<?xml version="1.0" standalone="no"?>
 <!DOCTYPE svg PUBLIC "-//W3C//DTD SVG 1.1//EN" 
 "http://www.w3.org/Graphics/SVG/1.1/DTD/svg11.dtd"> 
<svg xmlns="http://www.w3.org/2000/svg" version="1.1" 
    width="11.9786cm" height="10.5613cm" viewBox="0 0 47160 41580 ">
<title>SVG Picture created as ESP32_Clock-F.Paste.svg date 2018/05/08 13:13:59 </title>
  <desc>Picture generated by PCBNEW </desc>
<g style="fill:#000000; fill-opacity:1;stroke:#000000; stroke-opacity:1;
stroke-linecap:round; stroke-linejoin:round; "
 transform="translate(0 0) scale(1 1)">
</g>
<g style="fill:#840000; fill-opacity:0.0; 
stroke:#840000; stroke-width:-0.000393701; stroke-opacity:1; 
stroke-linecap:round; stroke-linejoin:round;">
</g>
<g style="fill:#840000; fill-opacity:0.0; 
stroke:#840000; stroke-width:0; stroke-opacity:1; 
stroke-linecap:round; stroke-linejoin:round;">
</g>
<g style="fill:#840000; fill-opacity:1.0; 
stroke:#840000; stroke-width:0; stroke-opacity:1; 
stroke-linecap:round; stroke-linejoin:round;">
<polyline style="fill-rule:evenodd;"
points="11122,37824
10827,37824
10827,37470
11122,37470
11122,37824
" /> 
<polyline style="fill-rule:evenodd;"
points="11122,36840
10827,36840
10827,36485
11122,36485
11122,36840
" /> 
<polyline style="fill-rule:evenodd;"
points="8122,37832
7827,37832
7827,37477
8122,37477
8122,37832
" /> 
<polyline style="fill-rule:evenodd;"
points="8122,36848
7827,36848
7827,36493
8122,36493
8122,36848
" /> 
<polyline style="fill-rule:evenodd;"
points="14327,7593
14622,7593
14622,7948
14327,7948
14327,7593
" /> 
<polyline style="fill-rule:evenodd;"
points="14327,8577
14622,8577
14622,8932
14327,8932
14327,8577
" /> 
<polyline style="fill-rule:evenodd;"
points="15964,35074
15964,35251
15681,35251
15681,35074
15964,35074
" /> 
<polyline style="fill-rule:evenodd;"
points="15216,35074
15216,35251
14933,35251
14933,35074
15216,35074
" /> 
<polyline style="fill-rule:evenodd;"
points="13005,35310
13005,35015
13359,35015
13359,35310
13005,35310
" /> 
<polyline style="fill-rule:evenodd;"
points="13989,35310
13989,35015
14344,35015
14344,35310
13989,35310
" /> 
<polyline style="fill-rule:evenodd;"
points="15422,7232
15127,7232
15127,6877
15422,6877
15422,7232
" /> 
<polyline style="fill-rule:evenodd;"
points="15422,6248
15127,6248
15127,5893
15422,5893
15422,6248
" /> 
<polyline style="fill-rule:evenodd;"
points="14663,7078
14486,7078
14486,6795
14663,6795
14663,7078
" /> 
<polyline style="fill-rule:evenodd;"
points="14663,6330
14486,6330
14486,6047
14663,6047
14663,6330
" /> 
<polyline style="fill-rule:evenodd;"
points="7644,29815
7644,30110
7289,30110
7289,29815
7644,29815
" /> 
<polyline style="fill-rule:evenodd;"
points="6659,29815
6659,30110
6305,30110
6305,29815
6659,29815
" /> 
<polyline style="fill-rule:evenodd;"
points="7516,29174
7516,29351
7233,29351
7233,29174
7516,29174
" /> 
<polyline style="fill-rule:evenodd;"
points="6768,29174
6768,29351
6485,29351
6485,29174
6768,29174
" /> 
<polyline style="fill-rule:evenodd;"
points="6536,21347
6713,21347
6713,21630
6536,21630
6536,21347
" /> 
<polyline style="fill-rule:evenodd;"
points="6536,22095
6713,22095
6713,22378
6536,22378
6536,22095
" /> 
<polyline style="fill-rule:evenodd;"
points="22859,38701
22859,38524
23142,38524
23142,38701
22859,38701
" /> 
<polyline style="fill-rule:evenodd;"
points="23607,38701
23607,38524
23890,38524
23890,38701
23607,38701
" /> 
<polyline style="fill-rule:evenodd;"
points="40213,22378
40036,22378
40036,22095
40213,22095
40213,22378
" /> 
<polyline style="fill-rule:evenodd;"
points="40213,21630
40036,21630
40036,21347
40213,21347
40213,21630
" /> 
<polyline style="fill-rule:evenodd;"
points="23890,5024
23890,5201
23607,5201
23607,5024
23890,5024
" /> 
<polyline style="fill-rule:evenodd;"
points="23142,5024
23142,5201
22859,5201
22859,5024
23142,5024
" /> 
<polyline style="fill-rule:evenodd;"
points="17152,10053
17240,10206
16995,10348
16906,10195
17152,10053
" /> 
<polyline style="fill-rule:evenodd;"
points="16504,10427
16593,10581
16347,10722
16258,10569
16504,10427
" /> 
<polyline style="fill-rule:evenodd;"
points="12081,14747
12234,14835
12092,15081
11939,14992
12081,14747
" /> 
<polyline style="fill-rule:evenodd;"
points="11707,15394
11860,15483
11718,15728
11565,15640
11707,15394
" /> 
<polyline style="fill-rule:evenodd;"
points="10036,21347
10213,21347
10213,21630
10036,21630
10036,21347
" /> 
<polyline style="fill-rule:evenodd;"
points="10036,22095
10213,22095
10213,22378
10036,22378
10036,22095
" /> 
<polyline style="fill-rule:evenodd;"
points="11565,28085
11718,27997
11860,28242
11707,28331
11565,28085
" /> 
<polyline style="fill-rule:evenodd;"
points="11939,28733
12092,28644
12234,28890
12081,28978
11939,28733
" /> 
<polyline style="fill-rule:evenodd;"
points="16258,33156
16347,33003
16593,33144
16504,33298
16258,33156
" /> 
<polyline style="fill-rule:evenodd;"
points="16906,33530
16995,33377
17240,33518
17152,33672
16906,33530
" /> 
<polyline style="fill-rule:evenodd;"
points="22859,35201
22859,35024
23142,35024
23142,35201
22859,35201
" /> 
<polyline style="fill-rule:evenodd;"
points="23607,35201
23607,35024
23890,35024
23890,35201
23607,35201
" /> 
<polyline style="fill-rule:evenodd;"
points="29597,33672
29508,33518
29754,33377
29843,33530
29597,33672
" /> 
<polyline style="fill-rule:evenodd;"
points="30245,33298
30156,33144
30402,33003
30490,33156
30245,33298
" /> 
<polyline style="fill-rule:evenodd;"
points="30490,10569
30402,10722
30156,10581
30245,10427
30490,10569
" /> 
<polyline style="fill-rule:evenodd;"
points="29843,10195
29754,10348
29508,10206
29597,10053
29843,10195
" /> 
<polyline style="fill-rule:evenodd;"
points="23890,8524
23890,8701
23607,8701
23607,8524
23890,8524
" /> 
<polyline style="fill-rule:evenodd;"
points="23142,8524
23142,8701
22859,8701
22859,8524
23142,8524
" /> 
<polyline style="fill-rule:evenodd;"
points="18902,13084
18990,13238
18745,13379
18656,13226
18902,13084
" /> 
<polyline style="fill-rule:evenodd;"
points="18254,13458
18343,13612
18097,13753
18008,13600
18254,13458
" /> 
<polyline style="fill-rule:evenodd;"
points="15112,16497
15265,16585
15124,16831
14970,16742
15112,16497
" /> 
<polyline style="fill-rule:evenodd;"
points="14738,17144
14891,17233
14750,17478
14596,17390
14738,17144
" /> 
<polyline style="fill-rule:evenodd;"
points="13536,21347
13713,21347
13713,21630
13536,21630
13536,21347
" /> 
<polyline style="fill-rule:evenodd;"
points="13536,22095
13713,22095
13713,22378
13536,22378
13536,22095
" /> 
<polyline style="fill-rule:evenodd;"
points="14596,26335
14750,26247
14891,26492
14738,26581
14596,26335
" /> 
<polyline style="fill-rule:evenodd;"
points="14970,26983
15124,26894
15265,27140
15112,27228
14970,26983
" /> 
<polyline style="fill-rule:evenodd;"
points="18008,30125
18097,29972
18343,30113
18254,30267
18008,30125
" /> 
<polyline style="fill-rule:evenodd;"
points="18656,30499
18745,30346
18990,30487
18902,30641
18656,30499
" /> 
<polyline style="fill-rule:evenodd;"
points="22859,31701
22859,31524
23142,31524
23142,31701
22859,31701
" /> 
<polyline style="fill-rule:evenodd;"
points="23607,31701
23607,31524
23890,31524
23890,31701
23607,31701
" /> 
<polyline style="fill-rule:evenodd;"
points="27847,30641
27758,30487
28004,30346
28093,30499
27847,30641
" /> 
<polyline style="fill-rule:evenodd;"
points="28495,30267
28406,30113
28652,29972
28740,30125
28495,30267
" /> 
<polyline style="fill-rule:evenodd;"
points="31637,27228
31484,27140
31625,26894
31779,26983
31637,27228
" /> 
<polyline style="fill-rule:evenodd;"
points="32011,26581
31858,26492
31999,26247
32153,26335
32011,26581
" /> 
<polyline style="fill-rule:evenodd;"
points="32153,17390
31999,17478
31858,17233
32011,17144
32153,17390
" /> 
<polyline style="fill-rule:evenodd;"
points="31779,16742
31625,16831
31484,16585
31637,16497
31779,16742
" /> 
<polyline style="fill-rule:evenodd;"
points="28740,13600
28652,13753
28406,13612
28495,13458
28740,13600
" /> 
<polyline style="fill-rule:evenodd;"
points="28093,13226
28004,13379
27758,13238
27847,13084
28093,13226
" /> 
<polyline style="fill-rule:evenodd;"
points="23890,12024
23890,12201
23607,12201
23607,12024
23890,12024
" /> 
<polyline style="fill-rule:evenodd;"
points="23142,12024
23142,12201
22859,12201
22859,12024
23142,12024
" /> 
<polyline style="fill-rule:evenodd;"
points="25286,21347
25463,21347
25463,21630
25286,21630
25286,21347
" /> 
<polyline style="fill-rule:evenodd;"
points="25286,22095
25463,22095
25463,22378
25286,22378
25286,22095
" /> 
<polyline style="fill-rule:evenodd;"
points="24862,17717
25287,17717
25287,18331
24862,18331
24862,17717
" /> 
<polyline style="fill-rule:evenodd;"
points="24862,19055
25287,19055
25287,19670
24862,19670
24862,19055
" /> 
<polyline style="fill-rule:evenodd;"
points="26197,17497
26552,17497
26552,18253
26197,18253
26197,17497
" /> 
<polyline style="fill-rule:evenodd;"
points="26197,19072
26552,19072
26552,19828
26197,19828
26197,19072
" /> 
<polyline style="fill-rule:evenodd;"
points="27362,17686
27787,17686
27787,18300
27362,18300
27362,17686
" /> 
<polyline style="fill-rule:evenodd;"
points="27362,19025
27787,19025
27787,19639
27362,19639
27362,19025
" /> 
<polyline style="fill-rule:evenodd;"
points="6505,11610
6505,11315
6859,11315
6859,11610
6505,11610
" /> 
<polyline style="fill-rule:evenodd;"
points="7489,11610
7489,11315
7844,11315
7844,11610
7489,11610
" /> 
<polyline style="fill-rule:evenodd;"
points="6685,10851
6685,10674
6968,10674
6968,10851
6685,10851
" /> 
<polyline style="fill-rule:evenodd;"
points="7433,10851
7433,10674
7716,10674
7716,10851
7433,10851
" /> 
<polyline style="fill-rule:evenodd;"
points="4986,12473
5163,12473
5163,12756
4986,12756
4986,12473
" /> 
<polyline style="fill-rule:evenodd;"
points="4986,13221
5163,13221
5163,13504
4986,13504
4986,13221
" /> 
<polyline style="fill-rule:evenodd;"
points="9469,33969
9280,33969
9280,33756
9469,33756
9469,33969
" /> 
<polyline style="fill-rule:evenodd;"
points="10217,33969
10028,33969
10028,33756
10217,33756
10217,33969
" /> 
<polyline style="fill-rule:evenodd;"
points="9843,33181
9654,33181
9654,32969
9843,32969
9843,33181
" /> 
<polyline style="fill-rule:evenodd;"
points="9522,32440
9427,32440
9427,32085
9522,32085
9522,32440
" /> 
<polyline style="fill-rule:evenodd;"
points="9778,32440
9683,32440
9683,32085
9778,32085
9778,32440
" /> 
<polyline style="fill-rule:evenodd;"
points="10033,32440
9939,32440
9939,32085
10033,32085
10033,32440
" /> 
<polyline style="fill-rule:evenodd;"
points="10033,31392
9939,31392
9939,31038
10033,31038
10033,31392
" /> 
<polyline style="fill-rule:evenodd;"
points="9778,31392
9683,31392
9683,31038
9778,31038
9778,31392
" /> 
<polyline style="fill-rule:evenodd;"
points="9522,31392
9427,31392
9427,31038
9522,31038
9522,31392
" /> 
<polyline style="fill-rule:evenodd;"
points="8327,24418
8422,24418
8422,24772
8327,24772
8327,24418
" /> 
<polyline style="fill-rule:evenodd;"
points="8071,24418
8166,24418
8166,24772
8071,24772
8071,24418
" /> 
<polyline style="fill-rule:evenodd;"
points="7815,24418
7910,24418
7910,24772
7815,24772
7815,24418
" /> 
<polyline style="fill-rule:evenodd;"
points="7815,25465
7910,25465
7910,25819
7815,25819
7815,25465
" /> 
<polyline style="fill-rule:evenodd;"
points="8071,25465
8166,25465
8166,25819
8071,25819
8071,25465
" /> 
<polyline style="fill-rule:evenodd;"
points="8327,25465
8422,25465
8422,25819
8327,25819
8327,25465
" /> 
<polyline style="fill-rule:evenodd;"
points="15168,7788
15381,7788
15381,8071
15168,8071
15168,7788
" /> 
<polyline style="fill-rule:evenodd;"
points="15168,8654
15381,8654
15381,8937
15168,8937
15168,8654
" /> 
<polyline style="fill-rule:evenodd;"
points="10016,35956
10016,36169
9733,36169
9733,35956
10016,35956
" /> 
<polyline style="fill-rule:evenodd;"
points="9150,35956
9150,36169
8867,36169
8867,35956
9150,35956
" /> 
<polyline style="fill-rule:evenodd;"
points="8268,31355
8481,31355
8481,31638
8268,31638
8268,31355
" /> 
<polyline style="fill-rule:evenodd;"
points="8268,32221
8481,32221
8481,32504
8268,32504
8268,32221
" /> 
<polyline style="fill-rule:evenodd;"
points="8481,34070
8268,34070
8268,33787
8481,33787
8481,34070
" /> 
<polyline style="fill-rule:evenodd;"
points="8481,33204
8268,33204
8268,32921
8481,32921
8481,33204
" /> 
<polyline style="fill-rule:evenodd;"
points="18916,8256
18916,8469
18633,8469
18633,8256
18916,8256
" /> 
<polyline style="fill-rule:evenodd;"
points="18050,8256
18050,8469
17767,8469
17767,8256
18050,8256
" /> 
<polyline style="fill-rule:evenodd;"
points="18916,6556
18916,6769
18633,6769
18633,6556
18916,6556
" /> 
<polyline style="fill-rule:evenodd;"
points="18050,6556
18050,6769
17767,6769
17767,6556
18050,6556
" /> 
<polyline style="fill-rule:evenodd;"
points="17767,7869
17767,7656
18050,7656
18050,7869
17767,7869
" /> 
<polyline style="fill-rule:evenodd;"
points="18633,7869
18633,7656
18916,7656
18916,7869
18633,7869
" /> 
<polyline style="fill-rule:evenodd;"
points="17767,7369
17767,7156
18050,7156
18050,7369
17767,7369
" /> 
<polyline style="fill-rule:evenodd;"
points="18633,7369
18633,7156
18916,7156
18916,7369
18633,7369
" /> 
<polyline style="fill-rule:evenodd;"
points="18481,5604
18268,5604
18268,5321
18481,5321
18481,5604
" /> 
<polyline style="fill-rule:evenodd;"
points="18481,4738
18268,4738
18268,4455
18481,4455
18481,4738
" /> 
<polyline style="fill-rule:evenodd;"
points="28981,6104
28768,6104
28768,5821
28981,5821
28981,6104
" /> 
<polyline style="fill-rule:evenodd;"
points="28981,5238
28768,5238
28768,4955
28981,4955
28981,5238
" /> 
<polyline style="fill-rule:evenodd;"
points="28181,6104
27968,6104
27968,5821
28181,5821
28181,6104
" /> 
<polyline style="fill-rule:evenodd;"
points="28181,5238
27968,5238
27968,4955
28181,4955
28181,5238
" /> 
<polyline style="fill-rule:evenodd;"
points="25049,16856
25049,17069
24766,17069
24766,16856
25049,16856
" /> 
<polyline style="fill-rule:evenodd;"
points="24183,16856
24183,17069
23900,17069
23900,16856
24183,16856
" /> 
<polyline style="fill-rule:evenodd;"
points="11716,12156
11716,12369
11433,12369
11433,12156
11716,12156
" /> 
<polyline style="fill-rule:evenodd;"
points="10850,12156
10850,12369
10567,12369
10567,12156
10850,12156
" /> 
<polyline style="fill-rule:evenodd;"
points="11716,11456
11716,11669
11433,11669
11433,11456
11716,11456
" /> 
<polyline style="fill-rule:evenodd;"
points="10850,11456
10850,11669
10567,11669
10567,11456
10850,11456
" /> 
<polyline style="fill-rule:evenodd;"
points="8759,36865
8759,36712
9127,36712
9127,36865
8759,36865
" /> 
<polyline style="fill-rule:evenodd;"
points="8759,37239
8759,37086
9127,37086
9127,37239
8759,37239
" /> 
<polyline style="fill-rule:evenodd;"
points="8759,37613
8759,37460
9127,37460
9127,37613
8759,37613
" /> 
<polyline style="fill-rule:evenodd;"
points="9822,37613
9822,37460
10190,37460
10190,37613
9822,37613
" /> 
<polyline style="fill-rule:evenodd;"
points="9822,36865
9822,36712
10190,36712
10190,36865
9822,36865
" /> 
<polyline style="fill-rule:evenodd;"
points="7626,22658
7863,22658
7863,23036
7626,23036
7626,22658
" /> 
<polyline style="fill-rule:evenodd;"
points="8886,22658
9122,22658
9122,23036
8886,23036
8886,22658
" /> 
<polyline style="fill-rule:evenodd;"
points="7626,20689
7863,20689
7863,21067
7626,21067
7626,20689
" /> 
<polyline style="fill-rule:evenodd;"
points="8886,20689
9122,20689
9122,21067
8886,21067
8886,20689
" /> 
<polyline style="fill-rule:evenodd;"
points="24170,37611
24170,37374
24548,37374
24548,37611
24170,37611
" /> 
<polyline style="fill-rule:evenodd;"
points="24170,36351
24170,36114
24548,36114
24548,36351
24170,36351
" /> 
<polyline style="fill-rule:evenodd;"
points="22201,37611
22201,37374
22579,37374
22579,37611
22201,37611
" /> 
<polyline style="fill-rule:evenodd;"
points="22201,36351
22201,36114
22579,36114
22579,36351
22201,36351
" /> 
<polyline style="fill-rule:evenodd;"
points="39122,21067
38886,21067
38886,20689
39122,20689
39122,21067
" /> 
<polyline style="fill-rule:evenodd;"
points="37863,21067
37626,21067
37626,20689
37863,20689
37863,21067
" /> 
<polyline style="fill-rule:evenodd;"
points="39122,23036
38886,23036
38886,22658
39122,22658
39122,23036
" /> 
<polyline style="fill-rule:evenodd;"
points="37863,23036
37626,23036
37626,22658
37863,22658
37863,23036
" /> 
<polyline style="fill-rule:evenodd;"
points="22579,6114
22579,6351
22201,6351
22201,6114
22579,6114
" /> 
<polyline style="fill-rule:evenodd;"
points="22579,7374
22579,7611
22201,7611
22201,7374
22579,7374
" /> 
<polyline style="fill-rule:evenodd;"
points="24548,6114
24548,6351
24170,6351
24170,6114
24548,6114
" /> 
<polyline style="fill-rule:evenodd;"
points="24548,7374
24548,7611
24170,7611
24170,7374
24548,7374
" /> 
<polyline style="fill-rule:evenodd;"
points="16562,11653
16680,11858
16352,12047
16234,11842
16562,11653
" /> 
<polyline style="fill-rule:evenodd;"
points="17192,12744
17310,12949
16982,13138
16864,12933
17192,12744
" /> 
<polyline style="fill-rule:evenodd;"
points="18266,10669
18385,10873
18057,11062
17939,10858
18266,10669
" /> 
<polyline style="fill-rule:evenodd;"
points="18896,11760
19014,11964
18687,12153
18569,11949
18896,11760
" /> 
<polyline style="fill-rule:evenodd;"
points="12370,16427
12574,16545
12385,16873
12181,16755
12370,16427
" /> 
<polyline style="fill-rule:evenodd;"
points="13461,17057
13665,17175
13476,17503
13272,17384
13461,17057
" /> 
<polyline style="fill-rule:evenodd;"
points="13354,14722
13558,14841
13370,15168
13165,15050
13354,14722
" /> 
<polyline style="fill-rule:evenodd;"
points="14445,15352
14650,15470
14461,15798
14256,15680
14445,15352
" /> 
<polyline style="fill-rule:evenodd;"
points="11126,22658
11363,22658
11363,23036
11126,23036
11126,22658
" /> 
<polyline style="fill-rule:evenodd;"
points="12386,22658
12622,22658
12622,23036
12386,23036
12386,22658
" /> 
<polyline style="fill-rule:evenodd;"
points="11126,20689
11363,20689
11363,21067
11126,21067
11126,20689
" /> 
<polyline style="fill-rule:evenodd;"
points="12386,20689
12622,20689
12622,21067
12386,21067
12386,20689
" /> 
<polyline style="fill-rule:evenodd;"
points="13165,28675
13370,28557
13558,28884
13354,29003
13165,28675
" /> 
<polyline style="fill-rule:evenodd;"
points="14256,28045
14461,27927
14650,28255
14445,28373
14256,28045
" /> 
<polyline style="fill-rule:evenodd;"
points="12181,26970
12385,26852
12574,27180
12370,27298
12181,26970
" /> 
<polyline style="fill-rule:evenodd;"
points="13272,26341
13476,26222
13665,26550
13461,26668
13272,26341
" /> 
<polyline style="fill-rule:evenodd;"
points="17939,32867
18057,32663
18385,32852
18266,33056
17939,32867
" /> 
<polyline style="fill-rule:evenodd;"
points="18569,31776
18687,31572
19014,31761
18896,31965
18569,31776
" /> 
<polyline style="fill-rule:evenodd;"
points="16234,31883
16352,31678
16680,31867
16562,32072
16234,31883
" /> 
<polyline style="fill-rule:evenodd;"
points="16864,30792
16982,30587
17310,30776
17192,30981
16864,30792
" /> 
<polyline style="fill-rule:evenodd;"
points="24170,34111
24170,33874
24548,33874
24548,34111
24170,34111
" /> 
<polyline style="fill-rule:evenodd;"
points="24170,32851
24170,32614
24548,32614
24548,32851
24170,32851
" /> 
<polyline style="fill-rule:evenodd;"
points="22201,34111
22201,33874
22579,33874
22579,34111
22201,34111
" /> 
<polyline style="fill-rule:evenodd;"
points="22201,32851
22201,32614
22579,32614
22579,32851
22201,32851
" /> 
<polyline style="fill-rule:evenodd;"
points="30187,32072
30069,31867
30396,31678
30514,31883
30187,32072
" /> 
<polyline style="fill-rule:evenodd;"
points="29557,30981
29439,30776
29766,30587
29885,30792
29557,30981
" /> 
<polyline style="fill-rule:evenodd;"
points="28482,33056
28364,32852
28692,32663
28810,32867
28482,33056
" /> 
<polyline style="fill-rule:evenodd;"
points="27852,31965
27734,31761
28062,31572
28180,31776
27852,31965
" /> 
<polyline style="fill-rule:evenodd;"
points="28810,10858
28692,11062
28364,10873
28482,10669
28810,10858
" /> 
<polyline style="fill-rule:evenodd;"
points="28180,11949
28062,12153
27734,11964
27852,11760
28180,11949
" /> 
<polyline style="fill-rule:evenodd;"
points="30514,11842
30396,12047
30069,11858
30187,11653
30514,11842
" /> 
<polyline style="fill-rule:evenodd;"
points="29885,12933
29766,13138
29439,12949
29557,12744
29885,12933
" /> 
<polyline style="fill-rule:evenodd;"
points="22579,9614
22579,9851
22201,9851
22201,9614
22579,9614
" /> 
<polyline style="fill-rule:evenodd;"
points="22579,10874
22579,11111
22201,11111
22201,10874
22579,10874
" /> 
<polyline style="fill-rule:evenodd;"
points="24548,9614
24548,9851
24170,9851
24170,9614
24548,9614
" /> 
<polyline style="fill-rule:evenodd;"
points="24548,10874
24548,11111
24170,11111
24170,10874
24548,10874
" /> 
<polyline style="fill-rule:evenodd;"
points="18312,14684
18430,14889
18102,15078
17984,14873
18312,14684
" /> 
<polyline style="fill-rule:evenodd;"
points="18942,15775
19060,15980
18732,16169
18614,15964
18942,15775
" /> 
<polyline style="fill-rule:evenodd;"
points="20016,13700
20135,13904
19807,14093
19689,13889
20016,13700
" /> 
<polyline style="fill-rule:evenodd;"
points="20646,14791
20764,14995
20437,15184
20319,14980
20646,14791
" /> 
<polyline style="fill-rule:evenodd;"
points="15401,18177
15605,18295
15416,18623
15212,18505
15401,18177
" /> 
<polyline style="fill-rule:evenodd;"
points="16492,18807
16696,18925
16507,19253
16303,19134
16492,18807
" /> 
<polyline style="fill-rule:evenodd;"
points="16385,16472
16590,16591
16401,16918
16196,16800
16385,16472
" /> 
<polyline style="fill-rule:evenodd;"
points="17476,17102
17681,17220
17492,17548
17287,17430
17476,17102
" /> 
<polyline style="fill-rule:evenodd;"
points="14626,22658
14863,22658
14863,23036
14626,23036
14626,22658
" /> 
<polyline style="fill-rule:evenodd;"
points="15886,22658
16122,22658
16122,23036
15886,23036
15886,22658
" /> 
<polyline style="fill-rule:evenodd;"
points="14626,20689
14863,20689
14863,21067
14626,21067
14626,20689
" /> 
<polyline style="fill-rule:evenodd;"
points="15886,20689
16122,20689
16122,21067
15886,21067
15886,20689
" /> 
<polyline style="fill-rule:evenodd;"
points="16196,26925
16401,26807
16590,27134
16385,27253
16196,26925
" /> 
<polyline style="fill-rule:evenodd;"
points="17287,26295
17492,26177
17681,26505
17476,26623
17287,26295
" /> 
<polyline style="fill-rule:evenodd;"
points="15212,25220
15416,25102
15605,25430
15401,25548
15212,25220
" /> 
<polyline style="fill-rule:evenodd;"
points="16303,24591
16507,24472
16696,24800
16492,24918
16303,24591
" /> 
<polyline style="fill-rule:evenodd;"
points="19689,29836
19807,29632
20135,29821
20016,30025
19689,29836
" /> 
<polyline style="fill-rule:evenodd;"
points="20319,28745
20437,28541
20764,28729
20646,28934
20319,28745
" /> 
<polyline style="fill-rule:evenodd;"
points="17984,28852
18102,28647
18430,28836
18312,29041
17984,28852
" /> 
<polyline style="fill-rule:evenodd;"
points="18614,27761
18732,27556
19060,27745
18942,27950
18614,27761
" /> 
<polyline style="fill-rule:evenodd;"
points="24170,30611
24170,30374
24548,30374
24548,30611
24170,30611
" /> 
<polyline style="fill-rule:evenodd;"
points="24170,29351
24170,29114
24548,29114
24548,29351
24170,29351
" /> 
<polyline style="fill-rule:evenodd;"
points="22201,30611
22201,30374
22579,30374
22579,30611
22201,30611
" /> 
<polyline style="fill-rule:evenodd;"
points="22201,29351
22201,29114
22579,29114
22579,29351
22201,29351
" /> 
<polyline style="fill-rule:evenodd;"
points="28437,29041
28319,28836
28646,28647
28764,28852
28437,29041
" /> 
<polyline style="fill-rule:evenodd;"
points="27807,27950
27689,27745
28016,27556
28135,27761
27807,27950
" /> 
<polyline style="fill-rule:evenodd;"
points="26732,30025
26614,29821
26942,29632
27060,29836
26732,30025
" /> 
<polyline style="fill-rule:evenodd;"
points="26102,28934
25984,28729
26312,28541
26430,28745
26102,28934
" /> 
<polyline style="fill-rule:evenodd;"
points="31348,25548
31143,25430
31332,25102
31537,25220
31348,25548
" /> 
<polyline style="fill-rule:evenodd;"
points="30257,24918
30052,24800
30241,24472
30446,24591
30257,24918
" /> 
<polyline style="fill-rule:evenodd;"
points="30364,27253
30159,27134
30348,26807
30553,26925
30364,27253
" /> 
<polyline style="fill-rule:evenodd;"
points="29273,26623
29068,26505
29257,26177
29462,26295
29273,26623
" /> 
<polyline style="fill-rule:evenodd;"
points="32122,21067
31886,21067
31886,20689
32122,20689
32122,21067
" /> 
<polyline style="fill-rule:evenodd;"
points="30863,21067
30626,21067
30626,20689
30863,20689
30863,21067
" /> 
<polyline style="fill-rule:evenodd;"
points="32122,23036
31886,23036
31886,22658
32122,22658
32122,23036
" /> 
<polyline style="fill-rule:evenodd;"
points="30863,23036
30626,23036
30626,22658
30863,22658
30863,23036
" /> 
<polyline style="fill-rule:evenodd;"
points="30553,16800
30348,16918
30159,16591
30364,16472
30553,16800
" /> 
<polyline style="fill-rule:evenodd;"
points="29462,17430
29257,17548
29068,17220
29273,17102
29462,17430
" /> 
<polyline style="fill-rule:evenodd;"
points="31537,18505
31332,18623
31143,18295
31348,18177
31537,18505
" /> 
<polyline style="fill-rule:evenodd;"
points="30446,19134
30241,19253
30052,18925
30257,18807
30446,19134
" /> 
<polyline style="fill-rule:evenodd;"
points="27060,13889
26942,14093
26614,13904
26732,13700
27060,13889
" /> 
<polyline style="fill-rule:evenodd;"
points="26430,14980
26312,15184
25984,14995
26102,14791
26430,14980
" /> 
<polyline style="fill-rule:evenodd;"
points="28764,14873
28646,15078
28319,14889
28437,14684
28764,14873
" /> 
<polyline style="fill-rule:evenodd;"
points="28135,15964
28016,16169
27689,15980
27807,15775
28135,15964
" /> 
<polyline style="fill-rule:evenodd;"
points="22579,13114
22579,13351
22201,13351
22201,13114
22579,13114
" /> 
<polyline style="fill-rule:evenodd;"
points="22579,14374
22579,14611
22201,14611
22201,14374
22579,14374
" /> 
<polyline style="fill-rule:evenodd;"
points="24548,13114
24548,13351
24170,13351
24170,13114
24548,13114
" /> 
<polyline style="fill-rule:evenodd;"
points="24548,14374
24548,14611
24170,14611
24170,14374
24548,14374
" /> 
<polyline style="fill-rule:evenodd;"
points="24170,22611
24170,22374
24548,22374
24548,22611
24170,22611
" /> 
<polyline style="fill-rule:evenodd;"
points="24170,21351
24170,21114
24548,21114
24548,21351
24170,21351
" /> 
<polyline style="fill-rule:evenodd;"
points="22201,22611
22201,22374
22579,22374
22579,22611
22201,22611
" /> 
<polyline style="fill-rule:evenodd;"
points="22201,21351
22201,21114
22579,21114
22579,21351
22201,21351
" /> 
<polyline style="fill-rule:evenodd;"
points="22813,17743
22813,17601
23191,17601
23191,17743
22813,17743
" /> 
<polyline style="fill-rule:evenodd;"
points="22813,18137
22813,17995
23191,17995
23191,18137
22813,18137
" /> 
<polyline style="fill-rule:evenodd;"
points="22813,18530
22813,18388
23191,18388
23191,18530
22813,18530
" /> 
<polyline style="fill-rule:evenodd;"
points="22813,18924
22813,18782
23191,18782
23191,18924
22813,18924
" /> 
<polyline style="fill-rule:evenodd;"
points="23758,18924
23758,18782
24136,18782
24136,18924
23758,18924
" /> 
<polyline style="fill-rule:evenodd;"
points="23758,18530
23758,18388
24136,18388
24136,18530
23758,18530
" /> 
<polyline style="fill-rule:evenodd;"
points="23758,18137
23758,17995
24136,17995
24136,18137
23758,18137
" /> 
<polyline style="fill-rule:evenodd;"
points="23758,17743
23758,17601
24136,17601
24136,17743
23758,17743
" /> 
<polyline style="fill-rule:evenodd;"
points="6130,12604
6130,12533
6437,12533
6437,12604
6130,12604
" /> 
<polyline style="fill-rule:evenodd;"
points="6130,12801
6130,12730
6437,12730
6437,12801
6130,12801
" /> 
<polyline style="fill-rule:evenodd;"
points="6130,12998
6130,12927
6437,12927
6437,12998
6130,12998
" /> 
<polyline style="fill-rule:evenodd;"
points="6130,13195
6130,13124
6437,13124
6437,13195
6130,13195
" /> 
<polyline style="fill-rule:evenodd;"
points="6130,13392
6130,13321
6437,13321
6437,13392
6130,13392
" /> 
<polyline style="fill-rule:evenodd;"
points="6713,13707
6642,13707
6642,13400
6713,13400
6713,13707
" /> 
<polyline style="fill-rule:evenodd;"
points="6910,13707
6839,13707
6839,13400
6910,13400
6910,13707
" /> 
<polyline style="fill-rule:evenodd;"
points="7107,13707
7036,13707
7036,13400
7107,13400
7107,13707
" /> 
<polyline style="fill-rule:evenodd;"
points="7311,13392
7311,13321
7619,13321
7619,13392
7311,13392
" /> 
<polyline style="fill-rule:evenodd;"
points="7311,13195
7311,13124
7619,13124
7619,13195
7311,13195
" /> 
<polyline style="fill-rule:evenodd;"
points="7311,12998
7311,12927
7619,12927
7619,12998
7311,12998
" /> 
<polyline style="fill-rule:evenodd;"
points="7311,12801
7311,12730
7619,12730
7619,12801
7311,12801
" /> 
<polyline style="fill-rule:evenodd;"
points="7311,12604
7311,12533
7619,12533
7619,12604
7311,12604
" /> 
<polyline style="fill-rule:evenodd;"
points="7107,12525
7036,12525
7036,12218
7107,12218
7107,12525
" /> 
<polyline style="fill-rule:evenodd;"
points="6910,12525
6839,12525
6839,12218
6910,12218
6910,12525
" /> 
<polyline style="fill-rule:evenodd;"
points="6713,12525
6642,12525
6642,12218
6713,12218
6713,12525
" /> 
<polyline style="fill-rule:evenodd;"
points="10888,39150
10888,39575
10061,39575
10061,39150
10888,39150
" /> 
<polyline style="fill-rule:evenodd;"
points="8919,39150
8919,39575
8093,39575
8093,39150
8919,39150
" /> 
<polyline style="fill-rule:evenodd;"
points="21481,22537
21268,22537
21268,22254
21481,22254
21481,22537
" /> 
<polyline style="fill-rule:evenodd;"
points="21481,21671
21268,21671
21268,21388
21481,21388
21481,21671
" /> 
<polyline style="fill-rule:evenodd;"
points="34668,28978
34515,28890
34656,28644
34810,28733
34668,28978
" /> 
<polyline style="fill-rule:evenodd;"
points="35042,28331
34889,28242
35030,27997
35184,28085
35042,28331
" /> 
<polyline style="fill-rule:evenodd;"
points="36713,22378
36536,22378
36536,22095
36713,22095
36713,22378
" /> 
<polyline style="fill-rule:evenodd;"
points="36713,21630
36536,21630
36536,21347
36713,21347
36713,21630
" /> 
<polyline style="fill-rule:evenodd;"
points="35184,15640
35030,15728
34889,15483
35042,15394
35184,15640
" /> 
<polyline style="fill-rule:evenodd;"
points="34810,14992
34656,15081
34515,14835
34668,14747
34810,14992
" /> 
<polyline style="fill-rule:evenodd;"
points="33213,22378
33036,22378
33036,22095
33213,22095
33213,22378
" /> 
<polyline style="fill-rule:evenodd;"
points="33213,21630
33036,21630
33036,21347
33213,21347
33213,21630
" /> 
<polyline style="fill-rule:evenodd;"
points="34379,27298
34175,27180
34364,26852
34568,26970
34379,27298
" /> 
<polyline style="fill-rule:evenodd;"
points="33288,26668
33084,26550
33273,26222
33477,26341
33288,26668
" /> 
<polyline style="fill-rule:evenodd;"
points="33395,29003
33190,28884
33379,28557
33584,28675
33395,29003
" /> 
<polyline style="fill-rule:evenodd;"
points="32304,28373
32099,28255
32288,27927
32493,28045
32304,28373
" /> 
<polyline style="fill-rule:evenodd;"
points="35622,21067
35386,21067
35386,20689
35622,20689
35622,21067
" /> 
<polyline style="fill-rule:evenodd;"
points="34363,21067
34126,21067
34126,20689
34363,20689
34363,21067
" /> 
<polyline style="fill-rule:evenodd;"
points="35622,23036
35386,23036
35386,22658
35622,22658
35622,23036
" /> 
<polyline style="fill-rule:evenodd;"
points="34363,23036
34126,23036
34126,22658
34363,22658
34363,23036
" /> 
<polyline style="fill-rule:evenodd;"
points="33584,15050
33379,15168
33190,14841
33395,14722
33584,15050
" /> 
<polyline style="fill-rule:evenodd;"
points="32493,15680
32288,15798
32099,15470
32304,15352
32493,15680
" /> 
<polyline style="fill-rule:evenodd;"
points="34568,16755
34364,16873
34175,16545
34379,16427
34568,16755
" /> 
<polyline style="fill-rule:evenodd;"
points="33477,17384
33273,17503
33084,17175
33288,17057
33477,17384
" /> 
<polyline style="fill-rule:evenodd;"
points="5231,28093
5562,28093
5562,28188
5231,28188
5231,28093
" /> 
<polyline style="fill-rule:evenodd;"
points="5231,27837
5562,27837
5562,27932
5231,27932
5231,27837
" /> 
<polyline style="fill-rule:evenodd;"
points="5231,27581
5562,27581
5562,27676
5231,27676
5231,27581
" /> 
<polyline style="fill-rule:evenodd;"
points="5231,28349
5562,28349
5562,28444
5231,28444
5231,28349
" /> 
<polyline style="fill-rule:evenodd;"
points="5231,28605
5562,28605
5562,28700
5231,28700
5231,28605
" /> 
<polyline style="fill-rule:evenodd;"
points="4109,28381
4440,28381
4440,28806
4109,28806
4109,28381
" /> 
<polyline style="fill-rule:evenodd;"
points="4109,27475
4440,27475
4440,27900
4109,27900
4109,27475
" /> 
<polyline style="fill-rule:evenodd;"
points="4109,29345
4440,29345
4440,29888
4109,29888
4109,29345
" /> 
<polyline style="fill-rule:evenodd;"
points="4109,26392
4440,26392
4440,26936
4109,26936
4109,26392
" /> 
<polyline style="fill-rule:evenodd;"
points="14647,35925
14647,36248
14394,36248
14394,35925
14647,35925
" /> 
<polyline style="fill-rule:evenodd;"
points="15324,35925
15324,36248
15072,36248
15072,35925
15324,35925
" /> 
<polyline style="fill-rule:evenodd;"
points="16002,35925
16002,36248
15749,36248
15749,35925
16002,35925
" /> 
<polyline style="fill-rule:evenodd;"
points="13970,35925
13970,36248
13717,36248
13717,35925
13970,35925
" /> 
<polyline style="fill-rule:evenodd;"
points="13293,35925
13293,36248
13040,36248
13040,35925
13293,35925
" /> 
<circle cx="14521.4" cy="38291.7" r="354.331" /> 
</g>
<g style="fill:#840000; fill-opacity:1.0; 
stroke:#840000; stroke-width:39.3701; stroke-opacity:1; 
stroke-linecap:round; stroke-linejoin:round;">
</g>
<g style="fill:#840000; fill-opacity:1.0; 
stroke:#840000; stroke-width:0; stroke-opacity:1; 
stroke-linecap:round; stroke-linejoin:round;">
<polyline style="fill-rule:evenodd;"
points="7148,27556
7148,27497
7314,27497
7314,27556
7148,27556
" /> 
<polyline style="fill-rule:evenodd;"
points="7148,27753
7148,27694
7314,27694
7314,27753
7148,27753
" /> 
<polyline style="fill-rule:evenodd;"
points="7148,27950
7148,27890
7314,27890
7314,27950
7148,27950
" /> 
<polyline style="fill-rule:evenodd;"
points="7148,28146
7148,28087
7314,28087
7314,28146
7148,28146
" /> 
<polyline style="fill-rule:evenodd;"
points="7148,28343
7148,28284
7314,28284
7314,28343
7148,28343
" /> 
<polyline style="fill-rule:evenodd;"
points="7148,28540
7148,28481
7314,28481
7314,28540
7148,28540
" /> 
<polyline style="fill-rule:evenodd;"
points="7556,28888
7497,28888
7497,28723
7556,28723
7556,28888
" /> 
<polyline style="fill-rule:evenodd;"
points="7753,28888
7694,28888
7694,28723
7753,28723
7753,28888
" /> 
<polyline style="fill-rule:evenodd;"
points="7950,28888
7891,28888
7891,28723
7950,28723
7950,28888
" /> 
<polyline style="fill-rule:evenodd;"
points="8146,28888
8087,28888
8087,28723
8146,28723
8146,28888
" /> 
<polyline style="fill-rule:evenodd;"
points="8343,28888
8284,28888
8284,28723
8343,28723
8343,28888
" /> 
<polyline style="fill-rule:evenodd;"
points="8540,28888
8481,28888
8481,28723
8540,28723
8540,28888
" /> 
<polyline style="fill-rule:evenodd;"
points="8723,28540
8723,28481
8889,28481
8889,28540
8723,28540
" /> 
<polyline style="fill-rule:evenodd;"
points="8723,28343
8723,28284
8889,28284
8889,28343
8723,28343
" /> 
<polyline style="fill-rule:evenodd;"
points="8723,28146
8723,28087
8889,28087
8889,28146
8723,28146
" /> 
<polyline style="fill-rule:evenodd;"
points="8723,27950
8723,27890
8889,27890
8889,27950
8723,27950
" /> 
<polyline style="fill-rule:evenodd;"
points="8723,27753
8723,27694
8889,27694
8889,27753
8723,27753
" /> 
<polyline style="fill-rule:evenodd;"
points="8723,27556
8723,27497
8889,27497
8889,27556
8723,27556
" /> 
<polyline style="fill-rule:evenodd;"
points="8540,27314
8481,27314
8481,27148
8540,27148
8540,27314
" /> 
<polyline style="fill-rule:evenodd;"
points="8343,27314
8284,27314
8284,27148
8343,27148
8343,27314
" /> 
<polyline style="fill-rule:evenodd;"
points="8146,27314
8087,27314
8087,27148
8146,27148
8146,27314
" /> 
<polyline style="fill-rule:evenodd;"
points="7950,27314
7891,27314
7891,27148
7950,27148
7950,27314
" /> 
<polyline style="fill-rule:evenodd;"
points="7753,27314
7694,27314
7694,27148
7753,27148
7753,27314
" /> 
<polyline style="fill-rule:evenodd;"
points="7556,27314
7497,27314
7497,27148
7556,27148
7556,27314
" /> 
<polyline style="fill-rule:evenodd;"
points="8235,28235
7802,28235
7802,27802
8235,27802
8235,28235
" /> 
</g> 
</svg>
