G04 #@! TF.FileFunction,Paste,Bot*
%FSLAX46Y46*%
G04 Gerber Fmt 4.6, Leading zero omitted, Abs format (unit mm)*
G04 Created by KiCad (PCBNEW 4.0.7) date Wednesday, 04 April 2018 'PMt' 17:02:53*
%MOMM*%
%LPD*%
G01*
G04 APERTURE LIST*
%ADD10C,0.100000*%
%ADD11R,0.900000X1.200000*%
%ADD12R,2.750000X1.000000*%
%ADD13O,2.500000X0.900000*%
%ADD14O,0.900000X2.500000*%
%ADD15R,6.000000X6.000000*%
G04 APERTURE END LIST*
D10*
D11*
X79756000Y-56982000D03*
X79756000Y-59182000D03*
X70612000Y-56896000D03*
X70612000Y-59096000D03*
X77978000Y-56896000D03*
X77978000Y-59096000D03*
X72390000Y-59096000D03*
X72390000Y-56896000D03*
D12*
X82128000Y-70580000D03*
X76368000Y-70580000D03*
X76368000Y-66580000D03*
X82128000Y-66580000D03*
X72222000Y-70612000D03*
X66462000Y-70612000D03*
X66462000Y-66612000D03*
X72222000Y-66612000D03*
D13*
X66184000Y-36406000D03*
X66184000Y-37676000D03*
X66184000Y-38946000D03*
X66184000Y-40216000D03*
X66184000Y-41486000D03*
X66184000Y-42756000D03*
X66184000Y-44026000D03*
X66184000Y-45296000D03*
X66184000Y-46566000D03*
X66184000Y-47836000D03*
X66184000Y-49106000D03*
X66184000Y-50376000D03*
X66184000Y-51646000D03*
X66184000Y-52916000D03*
D14*
X69469000Y-54406000D03*
X70739000Y-54406000D03*
X72009000Y-54406000D03*
X73279000Y-54406000D03*
X74549000Y-54406000D03*
X75819000Y-54406000D03*
X77089000Y-54406000D03*
X78359000Y-54406000D03*
X79629000Y-54406000D03*
X80899000Y-54406000D03*
D13*
X84184000Y-52916000D03*
X84184000Y-51646000D03*
X84184000Y-50376000D03*
X84184000Y-49106000D03*
X84184000Y-47836000D03*
X84184000Y-46566000D03*
X84184000Y-45296000D03*
X84184000Y-44026000D03*
X84184000Y-42756000D03*
X84184000Y-41486000D03*
X84184000Y-40216000D03*
X84184000Y-38946000D03*
X84184000Y-37676000D03*
X84184000Y-36406000D03*
D15*
X75484000Y-44106000D03*
M02*
