G04 #@! TF.FileFunction,Copper,L2,Bot,Signal*
%FSLAX46Y46*%
G04 Gerber Fmt 4.6, Leading zero omitted, Abs format (unit mm)*
G04 Created by KiCad (PCBNEW 4.0.7) date Wednesday, 04 April 2018 'PMt' 17:02:53*
%MOMM*%
%LPD*%
G01*
G04 APERTURE LIST*
%ADD10C,0.100000*%
%ADD11R,0.900000X1.200000*%
%ADD12R,1.700000X1.700000*%
%ADD13O,1.700000X1.700000*%
%ADD14R,2.750000X1.000000*%
%ADD15O,2.500000X0.900000*%
%ADD16O,0.900000X2.500000*%
%ADD17R,6.000000X6.000000*%
%ADD18R,1.600000X1.600000*%
%ADD19C,1.600000*%
%ADD20R,1.700000X1.200000*%
%ADD21O,1.700000X1.200000*%
%ADD22R,2.032000X1.727200*%
%ADD23O,2.032000X1.727200*%
%ADD24R,1.200000X1.200000*%
%ADD25C,5.600000*%
%ADD26C,0.600000*%
%ADD27C,0.500000*%
%ADD28C,0.254000*%
%ADD29C,0.250000*%
G04 APERTURE END LIST*
D10*
D11*
X79756000Y-56982000D03*
X79756000Y-59182000D03*
X70612000Y-56896000D03*
X70612000Y-59096000D03*
D12*
X56134000Y-65532000D03*
D13*
X56134000Y-62992000D03*
X56134000Y-60452000D03*
D12*
X56134000Y-108966000D03*
D13*
X56134000Y-106426000D03*
X56134000Y-103886000D03*
X56134000Y-101346000D03*
D12*
X141732000Y-113030000D03*
D13*
X141732000Y-115570000D03*
X141732000Y-118110000D03*
X141732000Y-120650000D03*
D12*
X134112000Y-113030000D03*
D13*
X134112000Y-115570000D03*
X134112000Y-118110000D03*
X134112000Y-120650000D03*
D12*
X118872000Y-113030000D03*
D13*
X118872000Y-115570000D03*
X118872000Y-118110000D03*
X118872000Y-120650000D03*
D12*
X126492000Y-113030000D03*
D13*
X126492000Y-115570000D03*
X126492000Y-118110000D03*
X126492000Y-120650000D03*
D12*
X104394000Y-30734000D03*
D13*
X101854000Y-30734000D03*
X99314000Y-30734000D03*
X96774000Y-30734000D03*
X94234000Y-30734000D03*
D12*
X56134000Y-83820000D03*
D13*
X56134000Y-81280000D03*
X56134000Y-78740000D03*
X56134000Y-76200000D03*
X56134000Y-73660000D03*
X56134000Y-71120000D03*
D11*
X77978000Y-56896000D03*
X77978000Y-59096000D03*
X72390000Y-59096000D03*
X72390000Y-56896000D03*
D14*
X82128000Y-70580000D03*
X76368000Y-70580000D03*
X76368000Y-66580000D03*
X82128000Y-66580000D03*
X72222000Y-70612000D03*
X66462000Y-70612000D03*
X66462000Y-66612000D03*
X72222000Y-66612000D03*
D15*
X66184000Y-36406000D03*
X66184000Y-37676000D03*
X66184000Y-38946000D03*
X66184000Y-40216000D03*
X66184000Y-41486000D03*
X66184000Y-42756000D03*
X66184000Y-44026000D03*
X66184000Y-45296000D03*
X66184000Y-46566000D03*
X66184000Y-47836000D03*
X66184000Y-49106000D03*
X66184000Y-50376000D03*
X66184000Y-51646000D03*
X66184000Y-52916000D03*
D16*
X69469000Y-54406000D03*
X70739000Y-54406000D03*
X72009000Y-54406000D03*
X73279000Y-54406000D03*
X74549000Y-54406000D03*
X75819000Y-54406000D03*
X77089000Y-54406000D03*
X78359000Y-54406000D03*
X79629000Y-54406000D03*
X80899000Y-54406000D03*
D15*
X84184000Y-52916000D03*
X84184000Y-51646000D03*
X84184000Y-50376000D03*
X84184000Y-49106000D03*
X84184000Y-47836000D03*
X84184000Y-46566000D03*
X84184000Y-45296000D03*
X84184000Y-44026000D03*
X84184000Y-42756000D03*
X84184000Y-41486000D03*
X84184000Y-40216000D03*
X84184000Y-38946000D03*
X84184000Y-37676000D03*
X84184000Y-36406000D03*
D17*
X75484000Y-44106000D03*
D18*
X77272000Y-106426000D03*
D19*
X80772000Y-106426000D03*
D20*
X59436000Y-113792000D03*
D21*
X59436000Y-115792000D03*
D22*
X109982000Y-30988000D03*
D23*
X109982000Y-33528000D03*
X109982000Y-36068000D03*
X109982000Y-38608000D03*
D24*
X74912000Y-114554000D03*
X76112000Y-114554000D03*
X77312000Y-114554000D03*
X78512000Y-114554000D03*
X79712000Y-114554000D03*
X80912000Y-114554000D03*
X82112000Y-114554000D03*
X83312000Y-114554000D03*
X83312000Y-115754000D03*
X82112000Y-115754000D03*
X80912000Y-115754000D03*
X79712000Y-115754000D03*
X78512000Y-115754000D03*
X77312000Y-115754000D03*
X76112000Y-115754000D03*
X74912000Y-115754000D03*
X74912000Y-116954000D03*
X76112000Y-116954000D03*
X77312000Y-116954000D03*
X78512000Y-116954000D03*
X79712000Y-116954000D03*
X80912000Y-116954000D03*
X82112000Y-116954000D03*
X83312000Y-116954000D03*
X83312000Y-118154000D03*
X82112000Y-118154000D03*
X80912000Y-118154000D03*
X79712000Y-118154000D03*
X78512000Y-118154000D03*
X77312000Y-118154000D03*
X76112000Y-118154000D03*
X74912000Y-118154000D03*
X74912000Y-119354000D03*
X76112000Y-119354000D03*
X77312000Y-119354000D03*
X78512000Y-119354000D03*
X79712000Y-119354000D03*
X80912000Y-119354000D03*
X82112000Y-119354000D03*
X83312000Y-119354000D03*
X83312000Y-120554000D03*
X82112000Y-120554000D03*
X80912000Y-120554000D03*
X79712000Y-120554000D03*
X78512000Y-120554000D03*
X77312000Y-120554000D03*
X76112000Y-120554000D03*
X74912000Y-120554000D03*
X74912000Y-121754000D03*
X76112000Y-121754000D03*
X77312000Y-121754000D03*
X78512000Y-121754000D03*
X79712000Y-121754000D03*
X80912000Y-121754000D03*
X82112000Y-121754000D03*
X83312000Y-121754000D03*
D25*
X146558000Y-31242000D03*
X146558000Y-121158000D03*
X56642000Y-121158000D03*
X56642000Y-31242000D03*
D26*
X68326000Y-122936000D03*
X66040000Y-108966000D03*
X67310000Y-73406000D03*
X67310000Y-81280000D03*
X57912000Y-93472000D03*
X73914000Y-64770000D03*
X112776000Y-48377010D03*
X110744000Y-70866000D03*
X109982000Y-53594000D03*
X109982000Y-42164000D03*
X117602000Y-75438000D03*
X61976000Y-102870000D03*
X84836000Y-88138000D03*
X62484000Y-112014000D03*
X84941835Y-91849233D03*
X91440000Y-94234000D03*
X106172000Y-98044000D03*
X112268000Y-93980000D03*
X116586000Y-92710000D03*
X119888000Y-85852000D03*
X122174000Y-82550000D03*
X122174000Y-75438000D03*
X119380000Y-65278000D03*
X117602000Y-61214000D03*
X111506000Y-58166000D03*
X73155836Y-50779677D03*
X86809038Y-36425638D03*
X73406000Y-48006000D03*
X101092000Y-56388000D03*
X91694000Y-59690000D03*
X81788000Y-77216000D03*
X84836000Y-67310000D03*
X82296000Y-36322000D03*
X59436000Y-90424000D03*
X66548000Y-72644000D03*
X66548000Y-80518000D03*
X63557321Y-81889997D03*
X82347375Y-41344934D03*
X83566000Y-107696000D03*
X65731972Y-60452000D03*
X73152000Y-109982000D03*
X108458000Y-62230000D03*
X108458000Y-55626000D03*
X108712000Y-41148000D03*
X57658000Y-61468000D03*
X85852000Y-37846000D03*
X82537655Y-38113020D03*
X92207180Y-44559963D03*
X77453916Y-51620969D03*
X92996045Y-43848935D03*
X76455105Y-51293958D03*
X91209898Y-46206140D03*
X78349366Y-52540211D03*
X78177285Y-51066223D03*
X91588943Y-45501623D03*
X104140000Y-59944000D03*
X107696000Y-54610000D03*
X107696000Y-40132000D03*
X103124000Y-59944000D03*
X106680000Y-53848000D03*
X106680000Y-39116000D03*
X101854000Y-60198000D03*
X105918000Y-53086000D03*
X105918000Y-38354000D03*
X62738000Y-94742000D03*
X57974794Y-89599206D03*
X65001015Y-102593931D03*
X57819088Y-92387788D03*
X58685990Y-91440000D03*
X56862299Y-53721010D03*
X58817010Y-56014990D03*
X67541662Y-53869010D03*
X62656585Y-53418999D03*
X62704462Y-81673549D03*
X61438634Y-88985996D03*
X61722000Y-81640011D03*
X86360000Y-41402000D03*
X86360000Y-39624000D03*
X83604785Y-80333294D03*
X94234000Y-77724000D03*
X60198000Y-78486000D03*
X71120000Y-88900000D03*
X80772000Y-103632000D03*
X84836000Y-107696000D03*
X68072000Y-78740000D03*
X110998000Y-42926000D03*
X104140000Y-42926000D03*
X100584000Y-58166000D03*
X100584000Y-77216000D03*
D27*
X56134000Y-108966000D02*
X56134000Y-114782002D01*
X56134000Y-114782002D02*
X64287998Y-122936000D01*
X64287998Y-122936000D02*
X68326000Y-122936000D01*
X56134000Y-108966000D02*
X66040000Y-108966000D01*
D28*
X67310000Y-81280000D02*
X67310000Y-73406000D01*
D27*
X59436000Y-115792000D02*
X59686000Y-115792000D01*
X59686000Y-115792000D02*
X62484000Y-112994000D01*
X62484000Y-112994000D02*
X62484000Y-112438264D01*
X62484000Y-112438264D02*
X62484000Y-112014000D01*
X59436000Y-90424000D02*
X59436000Y-91948000D01*
X59436000Y-91948000D02*
X57912000Y-93472000D01*
X76368000Y-66580000D02*
X75724000Y-66580000D01*
X75724000Y-66580000D02*
X73914000Y-64770000D01*
X119380000Y-65278000D02*
X119380000Y-72644000D01*
X119380000Y-72644000D02*
X122174000Y-75438000D01*
X112351736Y-48377010D02*
X112776000Y-48377010D01*
X101092000Y-56388000D02*
X109102990Y-48377010D01*
X109102990Y-48377010D02*
X112351736Y-48377010D01*
X109982000Y-53594000D02*
X109982000Y-70104000D01*
X109982000Y-70104000D02*
X110744000Y-70866000D01*
X109982000Y-38608000D02*
X109982000Y-42164000D01*
X117602000Y-75438000D02*
X122174000Y-75438000D01*
X56134000Y-101346000D02*
X60452000Y-101346000D01*
X60452000Y-101346000D02*
X61976000Y-102870000D01*
X81470815Y-79259999D02*
X84836000Y-82625184D01*
X84836000Y-82625184D02*
X84836000Y-88138000D01*
X81788000Y-77216000D02*
X81788000Y-78942814D01*
X81788000Y-78942814D02*
X81470815Y-79259999D01*
X62484000Y-112014000D02*
X62484000Y-112998000D01*
X85366099Y-91849233D02*
X84941835Y-91849233D01*
X89055233Y-91849233D02*
X85366099Y-91849233D01*
X91440000Y-94234000D02*
X89055233Y-91849233D01*
X112268000Y-93980000D02*
X108204000Y-98044000D01*
X108204000Y-98044000D02*
X106172000Y-98044000D01*
X119888000Y-85852000D02*
X119888000Y-89408000D01*
X119888000Y-89408000D02*
X116586000Y-92710000D01*
X122174000Y-75438000D02*
X122174000Y-82550000D01*
X111506000Y-58166000D02*
X114554000Y-61214000D01*
X114554000Y-61214000D02*
X117602000Y-61214000D01*
X73406000Y-48006000D02*
X73406000Y-50529513D01*
X73406000Y-50529513D02*
X73155836Y-50779677D01*
X80899000Y-54406000D02*
X80899000Y-46021000D01*
X80899000Y-46021000D02*
X78984000Y-44106000D01*
X78984000Y-44106000D02*
X75484000Y-44106000D01*
X86789400Y-36406000D02*
X86809038Y-36425638D01*
X84184000Y-36406000D02*
X86789400Y-36406000D01*
X73406000Y-48006000D02*
X73406000Y-46184000D01*
X73406000Y-46184000D02*
X75484000Y-44106000D01*
X91694000Y-59690000D02*
X97790000Y-59690000D01*
X97790000Y-59690000D02*
X101092000Y-56388000D01*
X86868000Y-67310000D02*
X91694000Y-62484000D01*
X91694000Y-62484000D02*
X91694000Y-59690000D01*
X84836000Y-67310000D02*
X86868000Y-67310000D01*
X84836000Y-67310000D02*
X84836000Y-74168000D01*
X84836000Y-74168000D02*
X81788000Y-77216000D01*
X72222000Y-66612000D02*
X66462000Y-66612000D01*
X76368000Y-66580000D02*
X72254000Y-66580000D01*
X72254000Y-66580000D02*
X72222000Y-66612000D01*
X82128000Y-66580000D02*
X76368000Y-66580000D01*
X66184000Y-36406000D02*
X71284000Y-36406000D01*
X71284000Y-36406000D02*
X75484000Y-40606000D01*
X75484000Y-40606000D02*
X75484000Y-44106000D01*
X82296000Y-36322000D02*
X82296000Y-37294000D01*
X82296000Y-37294000D02*
X75484000Y-44106000D01*
X84184000Y-36406000D02*
X82380000Y-36406000D01*
X82380000Y-36406000D02*
X82296000Y-36322000D01*
D28*
X66548000Y-80518000D02*
X66548000Y-72644000D01*
X64516000Y-71628000D02*
X73691000Y-71628000D01*
X74739000Y-70580000D02*
X76368000Y-70580000D01*
X73691000Y-71628000D02*
X74739000Y-70580000D01*
X63557321Y-72586679D02*
X64516000Y-71628000D01*
X63557321Y-81889997D02*
X63557321Y-72586679D01*
D29*
X76368000Y-70580000D02*
X75493000Y-70580000D01*
X82347375Y-41769198D02*
X82347375Y-41344934D01*
X83828001Y-65819999D02*
X82347375Y-64339373D01*
X83828001Y-68129999D02*
X83828001Y-65819999D01*
X82128000Y-69830000D02*
X83828001Y-68129999D01*
X82128000Y-70580000D02*
X82128000Y-69830000D01*
X82347375Y-39982625D02*
X82347375Y-40920670D01*
X84184000Y-38946000D02*
X83384000Y-38946000D01*
X82347375Y-64339373D02*
X82347375Y-41769198D01*
X82347375Y-40920670D02*
X82347375Y-41344934D01*
X83384000Y-38946000D02*
X82347375Y-39982625D01*
X76368000Y-70580000D02*
X82128000Y-70580000D01*
D27*
X109982000Y-36068000D02*
X108493560Y-37556440D01*
X108493560Y-37556440D02*
X108493560Y-40929560D01*
X108493560Y-40929560D02*
X108712000Y-41148000D01*
X77272000Y-106426000D02*
X78572000Y-106426000D01*
X78572000Y-106426000D02*
X79842000Y-107696000D01*
X79842000Y-107696000D02*
X83566000Y-107696000D01*
X72390000Y-59096000D02*
X71512001Y-59096000D01*
X71512001Y-59096000D02*
X71512001Y-60056001D01*
X71512001Y-60056001D02*
X71116002Y-60452000D01*
X71116002Y-60452000D02*
X65731972Y-60452000D01*
X77978000Y-59096000D02*
X77028000Y-59096000D01*
X77028000Y-59096000D02*
X72390000Y-59096000D01*
X56134000Y-103886000D02*
X67056000Y-103886000D01*
X67056000Y-103886000D02*
X73152000Y-109982000D01*
X134112000Y-118110000D02*
X141732000Y-118110000D01*
X126492000Y-118110000D02*
X134112000Y-118110000D01*
X118872000Y-118110000D02*
X126492000Y-118110000D01*
X108458000Y-55626000D02*
X108458000Y-62230000D01*
X56134000Y-76200000D02*
X57658000Y-74676000D01*
X57658000Y-74676000D02*
X57658000Y-61468000D01*
D28*
X77978000Y-59246000D02*
X77978000Y-59096000D01*
D27*
X84184000Y-37676000D02*
X85682000Y-37676000D01*
X85682000Y-37676000D02*
X85852000Y-37846000D01*
X82837654Y-37813021D02*
X82537655Y-38113020D01*
X82974675Y-37676000D02*
X82837654Y-37813021D01*
X84184000Y-37676000D02*
X82974675Y-37676000D01*
D29*
X79629000Y-54406000D02*
X79629000Y-56855000D01*
X79629000Y-56855000D02*
X79756000Y-56982000D01*
X79756000Y-59182000D02*
X79756000Y-58824000D01*
X79756000Y-58824000D02*
X77978000Y-57046000D01*
X77978000Y-57046000D02*
X77978000Y-56896000D01*
X70739000Y-54406000D02*
X70739000Y-56769000D01*
X70739000Y-56769000D02*
X70612000Y-56896000D01*
X70612000Y-59096000D02*
X70612000Y-58824000D01*
X70612000Y-58824000D02*
X72390000Y-57046000D01*
X72390000Y-57046000D02*
X72390000Y-56896000D01*
X122428000Y-44903473D02*
X123516728Y-44903473D01*
X123516728Y-44903473D02*
X131732058Y-53118803D01*
X131732058Y-102120474D02*
X141732000Y-112120416D01*
X141732000Y-112120416D02*
X141732000Y-113030000D01*
X131732058Y-53118803D02*
X131732058Y-102120474D01*
D28*
X122428000Y-44903473D02*
X92974954Y-44903473D01*
X122593833Y-44903473D02*
X122428000Y-44903473D01*
X92974954Y-44903473D02*
X92631444Y-44559963D01*
X92631444Y-44559963D02*
X92207180Y-44559963D01*
X77153917Y-51920968D02*
X77453916Y-51620969D01*
X69342000Y-51188068D02*
X70074900Y-51920968D01*
X69342000Y-41304000D02*
X69342000Y-51188068D01*
X70074900Y-51920968D02*
X77153917Y-51920968D01*
X66184000Y-38946000D02*
X66984000Y-38946000D01*
X66984000Y-38946000D02*
X69342000Y-41304000D01*
D29*
X122428000Y-44451463D02*
X123701128Y-44451463D01*
X142116568Y-111854999D02*
X142842001Y-111854999D01*
X123701128Y-44451463D02*
X132182068Y-52932403D01*
X132182068Y-52932403D02*
X132182068Y-101920499D01*
X132182068Y-101920499D02*
X142116568Y-111854999D01*
X142842001Y-111854999D02*
X142907001Y-111919999D01*
X142907001Y-111919999D02*
X142907001Y-114394999D01*
X142907001Y-114394999D02*
X142581999Y-114720001D01*
X142581999Y-114720001D02*
X141732000Y-115570000D01*
X122428000Y-44451463D02*
X122781061Y-44451463D01*
X121013687Y-44451463D02*
X122428000Y-44451463D01*
X92996045Y-43848935D02*
X93420309Y-43848935D01*
X93420309Y-43848935D02*
X94006672Y-44435298D01*
X94006672Y-44435298D02*
X120997522Y-44435298D01*
X120997522Y-44435298D02*
X121013687Y-44451463D01*
D28*
X69850000Y-51054000D02*
X70262958Y-51466959D01*
X76282104Y-51466959D02*
X76455105Y-51293958D01*
X70262958Y-51466959D02*
X76282104Y-51466959D01*
X69850000Y-39838000D02*
X69850000Y-51054000D01*
X66184000Y-37676000D02*
X67688000Y-37676000D01*
X67688000Y-37676000D02*
X69850000Y-39838000D01*
D29*
X92403971Y-45891967D02*
X123232402Y-45891967D01*
X123232402Y-45891967D02*
X130832038Y-53491603D01*
X130832038Y-53491603D02*
X130832038Y-108435962D01*
X130832038Y-108435962D02*
X134112000Y-111715924D01*
X134112000Y-111715924D02*
X134112000Y-113030000D01*
D28*
X92089798Y-46206140D02*
X91634162Y-46206140D01*
X92403971Y-45891967D02*
X92089798Y-46206140D01*
X91634162Y-46206140D02*
X91209898Y-46206140D01*
X66184000Y-46566000D02*
X66984000Y-46566000D01*
X68326000Y-47908000D02*
X68326000Y-52019183D01*
X66984000Y-46566000D02*
X68326000Y-47908000D01*
X78060587Y-52828990D02*
X78349366Y-52540211D01*
X69135807Y-52828990D02*
X78060587Y-52828990D01*
X68326000Y-52019183D02*
X69135807Y-52828990D01*
D29*
X135287001Y-109668953D02*
X135287001Y-114394999D01*
X135287001Y-114394999D02*
X134112000Y-115570000D01*
X131282048Y-105664000D02*
X135287001Y-109668953D01*
X131282048Y-53305203D02*
X131282048Y-105664000D01*
X122735701Y-45402859D02*
X122735701Y-45412299D01*
X122735701Y-45412299D02*
X122765359Y-45441957D01*
X122765359Y-45441957D02*
X123418803Y-45441958D01*
X123418803Y-45441958D02*
X131282048Y-53305203D01*
D28*
X122735701Y-45402859D02*
X91687707Y-45402859D01*
X91687707Y-45402859D02*
X91588943Y-45501623D01*
X66184000Y-45296000D02*
X66984000Y-45296000D01*
X66984000Y-45296000D02*
X68834000Y-47146000D01*
X68834000Y-47146000D02*
X68834000Y-51322136D01*
X68834000Y-51322136D02*
X69886844Y-52374981D01*
X69886844Y-52374981D02*
X77627475Y-52374981D01*
X77627475Y-52374981D02*
X78177285Y-51825171D01*
X78177285Y-51825171D02*
X78177285Y-51490487D01*
X78177285Y-51490487D02*
X78177285Y-51066223D01*
D29*
X94234000Y-30734000D02*
X95859012Y-29108988D01*
X95859012Y-29108988D02*
X110567590Y-29108988D01*
X110567590Y-29108988D02*
X111603447Y-30144845D01*
X110743999Y-32766001D02*
X109982000Y-33528000D01*
X111603447Y-30144845D02*
X111603447Y-31906553D01*
X111603447Y-31906553D02*
X110743999Y-32766001D01*
X107696000Y-54610000D02*
X107696000Y-56388000D01*
X107696000Y-56388000D02*
X104140000Y-59944000D01*
X109982000Y-33528000D02*
X107696000Y-35814000D01*
X107696000Y-35814000D02*
X107696000Y-40132000D01*
X84184000Y-45296000D02*
X84984000Y-45296000D01*
X84984000Y-45296000D02*
X94234000Y-36046000D01*
X94234000Y-36046000D02*
X94234000Y-31936081D01*
X94234000Y-31936081D02*
X94234000Y-30734000D01*
X106680000Y-53848000D02*
X106680000Y-56388000D01*
X106680000Y-56388000D02*
X103124000Y-59944000D01*
X109982000Y-30988000D02*
X106680000Y-34290000D01*
X106680000Y-34290000D02*
X106680000Y-39116000D01*
X96774000Y-30734000D02*
X97949001Y-29558999D01*
X97949001Y-29558999D02*
X108552999Y-29558999D01*
X108552999Y-29558999D02*
X109220001Y-30226001D01*
X109220001Y-30226001D02*
X109982000Y-30988000D01*
X84184000Y-46566000D02*
X84984000Y-46566000D01*
X84984000Y-46566000D02*
X96774000Y-34776000D01*
X96774000Y-34776000D02*
X96774000Y-31936081D01*
X96774000Y-31936081D02*
X96774000Y-30734000D01*
X105918000Y-53086000D02*
X105918000Y-56134000D01*
X105918000Y-56134000D02*
X101854000Y-60198000D01*
X99314000Y-30734000D02*
X105918000Y-37338000D01*
X105918000Y-37338000D02*
X105918000Y-38354000D01*
X84184000Y-47836000D02*
X84984000Y-47836000D01*
X84984000Y-47836000D02*
X99314000Y-33506000D01*
X99314000Y-33506000D02*
X99314000Y-31936081D01*
X99314000Y-31936081D02*
X99314000Y-30734000D01*
X84184000Y-49106000D02*
X89829178Y-49106000D01*
X89829178Y-49106000D02*
X92591200Y-46343978D01*
X92591200Y-46343978D02*
X123048003Y-46343978D01*
X130382028Y-108039972D02*
X126492000Y-111930000D01*
X123048003Y-46343978D02*
X130382028Y-53678003D01*
X130382028Y-53678003D02*
X130382028Y-108039972D01*
X126492000Y-111930000D02*
X126492000Y-113030000D01*
D27*
X62230000Y-95250000D02*
X65001015Y-98021015D01*
X61722000Y-94742000D02*
X62230000Y-95250000D01*
X62230000Y-95250000D02*
X62738000Y-94742000D01*
X56850001Y-93934001D02*
X56850001Y-90723999D01*
X57658000Y-94742000D02*
X56850001Y-93934001D01*
X57674795Y-89899205D02*
X57974794Y-89599206D01*
X56850001Y-90723999D02*
X57674795Y-89899205D01*
X61722000Y-94742000D02*
X57658000Y-94742000D01*
X65001015Y-102169667D02*
X65001015Y-102593931D01*
X65001015Y-98021015D02*
X65001015Y-102169667D01*
D28*
X57819088Y-92306902D02*
X57819088Y-92387788D01*
X58685990Y-91440000D02*
X57819088Y-92306902D01*
D29*
X129932018Y-105779982D02*
X125316999Y-110395001D01*
X125316999Y-110395001D02*
X125316999Y-114394999D01*
X125316999Y-114394999D02*
X125642001Y-114720001D01*
X125642001Y-114720001D02*
X126492000Y-115570000D01*
X122360400Y-46793989D02*
X122861606Y-46793991D01*
X129932018Y-53864403D02*
X129932018Y-105779982D01*
X122861606Y-46793991D02*
X129932018Y-53864403D01*
X92777600Y-46793989D02*
X122360400Y-46793989D01*
X84184000Y-50376000D02*
X89195589Y-50376000D01*
X89195589Y-50376000D02*
X92777600Y-46793989D01*
X84184000Y-52916000D02*
X88054000Y-52916000D01*
X88054000Y-52916000D02*
X93218000Y-47752000D01*
X93218000Y-47752000D02*
X122428000Y-47752000D01*
X122428000Y-47752000D02*
X129032000Y-54356000D01*
X129032000Y-54356000D02*
X129032000Y-101770000D01*
X129032000Y-101770000D02*
X118872000Y-111930000D01*
X118872000Y-111930000D02*
X118872000Y-113030000D01*
X120650000Y-110788410D02*
X120650000Y-113792000D01*
X120650000Y-113792000D02*
X118872000Y-115570000D01*
X129482009Y-101956401D02*
X120650000Y-110788410D01*
X122174000Y-47244000D02*
X122302410Y-47244000D01*
X92964000Y-47244000D02*
X122174000Y-47244000D01*
X122174000Y-47244000D02*
X122556410Y-47244000D01*
X122556410Y-47244000D02*
X129482010Y-54169600D01*
X129482010Y-54169600D02*
X129482009Y-101956401D01*
X84184000Y-51646000D02*
X88562000Y-51646000D01*
X88562000Y-51646000D02*
X92964000Y-47244000D01*
X62747309Y-47836000D02*
X57162298Y-53421011D01*
X66184000Y-47836000D02*
X62747309Y-47836000D01*
X57162298Y-53421011D02*
X56862299Y-53721010D01*
D28*
X59117009Y-56314989D02*
X58817010Y-56014990D01*
X65384000Y-51646000D02*
X63246000Y-53784000D01*
X63065011Y-56314989D02*
X59117009Y-56314989D01*
X63246000Y-56134000D02*
X63065011Y-56314989D01*
X63246000Y-53784000D02*
X63246000Y-56134000D01*
X66184000Y-51646000D02*
X65384000Y-51646000D01*
D29*
X67841661Y-53569011D02*
X67541662Y-53869010D01*
X67841661Y-49963661D02*
X67841661Y-53569011D01*
X66184000Y-49106000D02*
X66984000Y-49106000D01*
X66984000Y-49106000D02*
X67841661Y-49963661D01*
X65384000Y-50376000D02*
X62656585Y-53103415D01*
X66184000Y-50376000D02*
X65384000Y-50376000D01*
X62656585Y-53103415D02*
X62656585Y-53418999D01*
D28*
X62404463Y-81973548D02*
X62704462Y-81673549D01*
X61438634Y-82939377D02*
X62404463Y-81973548D01*
X61438634Y-88985996D02*
X61438634Y-82939377D01*
D29*
X54102000Y-51498000D02*
X54102000Y-79248000D01*
X54102000Y-79248000D02*
X56134000Y-81280000D01*
X66184000Y-40216000D02*
X65384000Y-40216000D01*
X65384000Y-40216000D02*
X54102000Y-51498000D01*
X56134000Y-78740000D02*
X54958999Y-77564999D01*
X54958999Y-77564999D02*
X54958999Y-51911001D01*
X54958999Y-51911001D02*
X65384000Y-41486000D01*
X65384000Y-41486000D02*
X66184000Y-41486000D01*
D28*
X61722000Y-72390000D02*
X63500000Y-70612000D01*
X63500000Y-70612000D02*
X66462000Y-70612000D01*
X61722000Y-81640011D02*
X61722000Y-72390000D01*
D29*
X62021999Y-81340012D02*
X61722000Y-81640011D01*
X66462000Y-70612000D02*
X66462000Y-69862000D01*
X66462000Y-69862000D02*
X64761999Y-68161999D01*
X64761999Y-68161999D02*
X64761999Y-55038001D01*
X64761999Y-55038001D02*
X66184000Y-53616000D01*
X66184000Y-53616000D02*
X66184000Y-52916000D01*
X66462000Y-70612000D02*
X72222000Y-70612000D01*
D28*
X86360000Y-41402000D02*
X84268000Y-41402000D01*
X84268000Y-41402000D02*
X84184000Y-41486000D01*
X86360000Y-39624000D02*
X85768000Y-40216000D01*
X85768000Y-40216000D02*
X84184000Y-40216000D01*
D29*
X94234000Y-77724000D02*
X86214079Y-77724000D01*
X83904784Y-80033295D02*
X83604785Y-80333294D01*
X86214079Y-77724000D02*
X83904784Y-80033295D01*
D28*
X60198000Y-59436000D02*
X60198000Y-78486000D01*
X55880000Y-55118000D02*
X60198000Y-59436000D01*
X55880000Y-52260000D02*
X55880000Y-55118000D01*
X65384000Y-42756000D02*
X55880000Y-52260000D01*
X66184000Y-42756000D02*
X65384000Y-42756000D01*
D29*
X71120000Y-88900000D02*
X68072000Y-85852000D01*
X68072000Y-85852000D02*
X68072000Y-78740000D01*
X84836000Y-107696000D02*
X80772000Y-103632000D01*
X104140000Y-42926000D02*
X110998000Y-42926000D01*
X100584000Y-77216000D02*
X100584000Y-58166000D01*
D28*
G36*
X65913000Y-35052000D02*
X65923006Y-35101410D01*
X65951447Y-35143035D01*
X65993841Y-35170315D01*
X66040000Y-35179000D01*
X84328000Y-35179000D01*
X84377410Y-35168994D01*
X84419035Y-35140553D01*
X84446315Y-35098159D01*
X84454948Y-35048373D01*
X84220623Y-26847000D01*
X150953000Y-26847000D01*
X150953000Y-125553000D01*
X52247000Y-125553000D01*
X52247000Y-121838266D01*
X53206405Y-121838266D01*
X53728250Y-123101229D01*
X54693688Y-124068354D01*
X55955739Y-124592403D01*
X57322266Y-124593595D01*
X58585229Y-124071750D01*
X59552354Y-123106312D01*
X60076403Y-121844261D01*
X60077595Y-120477734D01*
X59725136Y-119624718D01*
X63662206Y-123561787D01*
X63662208Y-123561790D01*
X63854052Y-123689975D01*
X63949324Y-123753634D01*
X64287998Y-123821001D01*
X64288003Y-123821000D01*
X68019178Y-123821000D01*
X68139201Y-123870838D01*
X68511167Y-123871162D01*
X68854943Y-123729117D01*
X69118192Y-123466327D01*
X69260838Y-123122799D01*
X69261162Y-122750833D01*
X69119117Y-122407057D01*
X68856327Y-122143808D01*
X68512799Y-122001162D01*
X68140833Y-122000838D01*
X68019431Y-122051000D01*
X64654577Y-122051000D01*
X64441844Y-121838266D01*
X143122405Y-121838266D01*
X143644250Y-123101229D01*
X144609688Y-124068354D01*
X145871739Y-124592403D01*
X147238266Y-124593595D01*
X148501229Y-124071750D01*
X149468354Y-123106312D01*
X149992403Y-121844261D01*
X149993595Y-120477734D01*
X149471750Y-119214771D01*
X148506312Y-118247646D01*
X147244261Y-117723597D01*
X145877734Y-117722405D01*
X144614771Y-118244250D01*
X143647646Y-119209688D01*
X143123597Y-120471739D01*
X143122405Y-121838266D01*
X64441844Y-121838266D01*
X57019000Y-114415422D01*
X57019000Y-113192000D01*
X57938560Y-113192000D01*
X57938560Y-114392000D01*
X57982838Y-114627317D01*
X58121910Y-114843441D01*
X58334110Y-114988431D01*
X58586000Y-115039440D01*
X60286000Y-115039440D01*
X60521317Y-114995162D01*
X60737441Y-114856090D01*
X60882431Y-114643890D01*
X60933440Y-114392000D01*
X60933440Y-113192000D01*
X60889162Y-112956683D01*
X60750090Y-112740559D01*
X60537890Y-112595569D01*
X60286000Y-112544560D01*
X58586000Y-112544560D01*
X58350683Y-112588838D01*
X58134559Y-112727910D01*
X57989569Y-112940110D01*
X57938560Y-113192000D01*
X57019000Y-113192000D01*
X57019000Y-110456854D01*
X57219317Y-110419162D01*
X57435441Y-110280090D01*
X57580431Y-110067890D01*
X57624352Y-109851000D01*
X65733178Y-109851000D01*
X65853201Y-109900838D01*
X66225167Y-109901162D01*
X66568943Y-109759117D01*
X66832192Y-109496327D01*
X66974838Y-109152799D01*
X66975162Y-108780833D01*
X66833117Y-108437057D01*
X66570327Y-108173808D01*
X66226799Y-108031162D01*
X65854833Y-108030838D01*
X65733431Y-108081000D01*
X57624854Y-108081000D01*
X57587162Y-107880683D01*
X57448090Y-107664559D01*
X57235890Y-107519569D01*
X57168459Y-107505914D01*
X57213147Y-107476054D01*
X57535054Y-106994285D01*
X57648093Y-106426000D01*
X57535054Y-105857715D01*
X57213147Y-105375946D01*
X56883974Y-105156000D01*
X57213147Y-104936054D01*
X57323432Y-104771000D01*
X66689420Y-104771000D01*
X72309255Y-110390834D01*
X72358883Y-110510943D01*
X72621673Y-110774192D01*
X72965201Y-110916838D01*
X73337167Y-110917162D01*
X73680943Y-110775117D01*
X73944192Y-110512327D01*
X74086838Y-110168799D01*
X74087162Y-109796833D01*
X73945117Y-109453057D01*
X73682327Y-109189808D01*
X73561013Y-109139434D01*
X70047580Y-105626000D01*
X75824560Y-105626000D01*
X75824560Y-107226000D01*
X75868838Y-107461317D01*
X76007910Y-107677441D01*
X76220110Y-107822431D01*
X76472000Y-107873440D01*
X78072000Y-107873440D01*
X78307317Y-107829162D01*
X78523441Y-107690090D01*
X78548230Y-107653810D01*
X79216208Y-108321787D01*
X79216210Y-108321790D01*
X79417071Y-108456000D01*
X79503325Y-108513633D01*
X79842000Y-108581001D01*
X79842005Y-108581000D01*
X83259178Y-108581000D01*
X83379201Y-108630838D01*
X83751167Y-108631162D01*
X84094943Y-108489117D01*
X84200954Y-108383290D01*
X84305673Y-108488192D01*
X84649201Y-108630838D01*
X85021167Y-108631162D01*
X85364943Y-108489117D01*
X85628192Y-108226327D01*
X85770838Y-107882799D01*
X85771162Y-107510833D01*
X85629117Y-107167057D01*
X85366327Y-106903808D01*
X85022799Y-106761162D01*
X84975923Y-106761121D01*
X81707122Y-103492320D01*
X81707162Y-103446833D01*
X81565117Y-103103057D01*
X81302327Y-102839808D01*
X80958799Y-102697162D01*
X80586833Y-102696838D01*
X80243057Y-102838883D01*
X79979808Y-103101673D01*
X79837162Y-103445201D01*
X79836838Y-103817167D01*
X79978883Y-104160943D01*
X80241673Y-104424192D01*
X80585201Y-104566838D01*
X80632077Y-104566879D01*
X82876198Y-106811000D01*
X80208579Y-106811000D01*
X79197790Y-105800210D01*
X79167516Y-105779982D01*
X78910675Y-105608367D01*
X78854484Y-105597190D01*
X78708557Y-105568163D01*
X78675162Y-105390683D01*
X78536090Y-105174559D01*
X78323890Y-105029569D01*
X78072000Y-104978560D01*
X76472000Y-104978560D01*
X76236683Y-105022838D01*
X76020559Y-105161910D01*
X75875569Y-105374110D01*
X75824560Y-105626000D01*
X70047580Y-105626000D01*
X67681790Y-103260210D01*
X67394675Y-103068367D01*
X67325801Y-103054667D01*
X67056000Y-103000999D01*
X67055995Y-103001000D01*
X65844388Y-103001000D01*
X65935853Y-102780730D01*
X65936177Y-102408764D01*
X65886015Y-102287362D01*
X65886015Y-98021020D01*
X65886016Y-98021015D01*
X65818648Y-97682341D01*
X65818648Y-97682340D01*
X65626805Y-97395225D01*
X65626802Y-97395223D01*
X63517038Y-95285458D01*
X63530192Y-95272327D01*
X63672838Y-94928799D01*
X63673162Y-94556833D01*
X63531117Y-94213057D01*
X63268327Y-93949808D01*
X62924799Y-93807162D01*
X62552833Y-93806838D01*
X62209057Y-93948883D01*
X62164273Y-93993589D01*
X62098750Y-93949808D01*
X62060675Y-93924367D01*
X62004484Y-93913190D01*
X61722000Y-93856999D01*
X61721995Y-93857000D01*
X58024579Y-93857000D01*
X57735001Y-93567421D01*
X57735001Y-93322715D01*
X58004255Y-93322950D01*
X58348031Y-93180905D01*
X58611280Y-92918115D01*
X58753926Y-92574587D01*
X58754035Y-92449586D01*
X58828496Y-92375125D01*
X58871157Y-92375162D01*
X59214933Y-92233117D01*
X59478182Y-91970327D01*
X59620828Y-91626799D01*
X59621152Y-91254833D01*
X59479107Y-90911057D01*
X59216317Y-90647808D01*
X58872789Y-90505162D01*
X58500823Y-90504838D01*
X58193940Y-90631639D01*
X58300582Y-90524997D01*
X58300585Y-90524995D01*
X58383629Y-90441950D01*
X58503737Y-90392323D01*
X58766986Y-90129533D01*
X58909632Y-89786005D01*
X58909956Y-89414039D01*
X58767911Y-89070263D01*
X58505121Y-88807014D01*
X58161593Y-88664368D01*
X57789627Y-88664044D01*
X57445851Y-88806089D01*
X57182602Y-89068879D01*
X57132228Y-89190192D01*
X57049005Y-89273415D01*
X57049003Y-89273418D01*
X56224211Y-90098209D01*
X56032368Y-90385324D01*
X56032368Y-90385325D01*
X55965000Y-90723999D01*
X55965001Y-90724004D01*
X55965001Y-93933996D01*
X55965000Y-93934001D01*
X56001245Y-94116211D01*
X56032368Y-94272676D01*
X56221144Y-94555201D01*
X56224211Y-94559791D01*
X57032208Y-95367787D01*
X57032210Y-95367790D01*
X57281250Y-95534192D01*
X57319325Y-95559633D01*
X57658000Y-95627001D01*
X57658005Y-95627000D01*
X61355421Y-95627000D01*
X61604208Y-95875787D01*
X61604210Y-95875790D01*
X64116015Y-98387594D01*
X64116015Y-102287109D01*
X64066177Y-102407132D01*
X64065853Y-102779098D01*
X64157541Y-103001000D01*
X57323432Y-103001000D01*
X57213147Y-102835946D01*
X56731378Y-102514039D01*
X56163093Y-102401000D01*
X56104907Y-102401000D01*
X55536622Y-102514039D01*
X55054853Y-102835946D01*
X54732946Y-103317715D01*
X54619907Y-103886000D01*
X54732946Y-104454285D01*
X55054853Y-104936054D01*
X55384026Y-105156000D01*
X55054853Y-105375946D01*
X54732946Y-105857715D01*
X54619907Y-106426000D01*
X54732946Y-106994285D01*
X55054853Y-107476054D01*
X55096452Y-107503850D01*
X55048683Y-107512838D01*
X54832559Y-107651910D01*
X54687569Y-107864110D01*
X54636560Y-108116000D01*
X54636560Y-109816000D01*
X54680838Y-110051317D01*
X54819910Y-110267441D01*
X55032110Y-110412431D01*
X55249000Y-110456352D01*
X55249000Y-114781997D01*
X55248999Y-114782002D01*
X55278916Y-114932400D01*
X55316367Y-115120677D01*
X55422262Y-115279161D01*
X55508210Y-115407792D01*
X58176046Y-118075628D01*
X57328261Y-117723597D01*
X55961734Y-117722405D01*
X54698771Y-118244250D01*
X53731646Y-119209688D01*
X53207597Y-120471739D01*
X53206405Y-121838266D01*
X52247000Y-121838266D01*
X52247000Y-51498000D01*
X53342000Y-51498000D01*
X53342000Y-79248000D01*
X53399852Y-79538839D01*
X53564599Y-79785401D01*
X54692790Y-80913592D01*
X54619907Y-81280000D01*
X54732946Y-81848285D01*
X55054853Y-82330054D01*
X55096452Y-82357850D01*
X55048683Y-82366838D01*
X54832559Y-82505910D01*
X54687569Y-82718110D01*
X54636560Y-82970000D01*
X54636560Y-84670000D01*
X54680838Y-84905317D01*
X54819910Y-85121441D01*
X55032110Y-85266431D01*
X55284000Y-85317440D01*
X56984000Y-85317440D01*
X57219317Y-85273162D01*
X57435441Y-85134090D01*
X57580431Y-84921890D01*
X57631440Y-84670000D01*
X57631440Y-82970000D01*
X57587162Y-82734683D01*
X57448090Y-82518559D01*
X57235890Y-82373569D01*
X57168459Y-82359914D01*
X57213147Y-82330054D01*
X57535054Y-81848285D01*
X57648093Y-81280000D01*
X57535054Y-80711715D01*
X57213147Y-80229946D01*
X56883974Y-80010000D01*
X57213147Y-79790054D01*
X57535054Y-79308285D01*
X57648093Y-78740000D01*
X57535054Y-78171715D01*
X57213147Y-77689946D01*
X56883974Y-77470000D01*
X57213147Y-77250054D01*
X57535054Y-76768285D01*
X57648093Y-76200000D01*
X57604539Y-75981040D01*
X58283787Y-75301792D01*
X58283790Y-75301790D01*
X58475633Y-75014675D01*
X58543000Y-74676000D01*
X58543000Y-61774822D01*
X58592838Y-61654799D01*
X58593162Y-61282833D01*
X58451117Y-60939057D01*
X58188327Y-60675808D01*
X57844799Y-60533162D01*
X57472833Y-60532838D01*
X57129057Y-60674883D01*
X56865808Y-60937673D01*
X56723162Y-61281201D01*
X56722868Y-61618346D01*
X56163093Y-61507000D01*
X56104907Y-61507000D01*
X55718999Y-61583762D01*
X55718999Y-56034629D01*
X59436000Y-59751630D01*
X59436000Y-77925534D01*
X59405808Y-77955673D01*
X59263162Y-78299201D01*
X59262838Y-78671167D01*
X59404883Y-79014943D01*
X59667673Y-79278192D01*
X60011201Y-79420838D01*
X60383167Y-79421162D01*
X60726943Y-79279117D01*
X60960000Y-79046466D01*
X60960000Y-81079545D01*
X60929808Y-81109684D01*
X60787162Y-81453212D01*
X60786838Y-81825178D01*
X60928883Y-82168954D01*
X61030067Y-82270314D01*
X60899819Y-82400562D01*
X60734638Y-82647772D01*
X60676634Y-82939377D01*
X60676634Y-88425530D01*
X60646442Y-88455669D01*
X60503796Y-88799197D01*
X60503472Y-89171163D01*
X60645517Y-89514939D01*
X60908307Y-89778188D01*
X61251835Y-89920834D01*
X61623801Y-89921158D01*
X61967577Y-89779113D01*
X62230826Y-89516323D01*
X62373472Y-89172795D01*
X62373796Y-88800829D01*
X62231751Y-88457053D01*
X62200634Y-88425882D01*
X62200634Y-83255007D01*
X62846968Y-82608674D01*
X62889629Y-82608711D01*
X62934950Y-82589985D01*
X63026994Y-82682189D01*
X63370522Y-82824835D01*
X63742488Y-82825159D01*
X64086264Y-82683114D01*
X64349513Y-82420324D01*
X64492159Y-82076796D01*
X64492483Y-81704830D01*
X64350438Y-81361054D01*
X64319321Y-81329883D01*
X64319321Y-72902309D01*
X64831630Y-72390000D01*
X65641066Y-72390000D01*
X65613162Y-72457201D01*
X65612838Y-72829167D01*
X65754883Y-73172943D01*
X65786000Y-73204114D01*
X65786000Y-79957534D01*
X65755808Y-79987673D01*
X65613162Y-80331201D01*
X65612838Y-80703167D01*
X65754883Y-81046943D01*
X66017673Y-81310192D01*
X66361201Y-81452838D01*
X66374849Y-81452850D01*
X66374838Y-81465167D01*
X66516883Y-81808943D01*
X66779673Y-82072192D01*
X67123201Y-82214838D01*
X67312000Y-82215002D01*
X67312000Y-85852000D01*
X67369852Y-86142839D01*
X67534599Y-86389401D01*
X70184878Y-89039680D01*
X70184838Y-89085167D01*
X70326883Y-89428943D01*
X70589673Y-89692192D01*
X70933201Y-89834838D01*
X71305167Y-89835162D01*
X71648943Y-89693117D01*
X71912192Y-89430327D01*
X72054838Y-89086799D01*
X72055162Y-88714833D01*
X71913117Y-88371057D01*
X71650327Y-88107808D01*
X71306799Y-87965162D01*
X71259923Y-87965121D01*
X68832000Y-85537198D01*
X68832000Y-80518461D01*
X82669623Y-80518461D01*
X82811668Y-80862237D01*
X83074458Y-81125486D01*
X83417986Y-81268132D01*
X83789952Y-81268456D01*
X84133728Y-81126411D01*
X84396977Y-80863621D01*
X84539623Y-80520093D01*
X84539664Y-80473217D01*
X86528881Y-78484000D01*
X93671537Y-78484000D01*
X93703673Y-78516192D01*
X94047201Y-78658838D01*
X94419167Y-78659162D01*
X94762943Y-78517117D01*
X95026192Y-78254327D01*
X95168838Y-77910799D01*
X95169162Y-77538833D01*
X95027117Y-77195057D01*
X94764327Y-76931808D01*
X94420799Y-76789162D01*
X94048833Y-76788838D01*
X93705057Y-76930883D01*
X93671882Y-76964000D01*
X86214079Y-76964000D01*
X85923239Y-77021852D01*
X85676678Y-77186599D01*
X83465105Y-79398172D01*
X83419618Y-79398132D01*
X83075842Y-79540177D01*
X82812593Y-79802967D01*
X82669947Y-80146495D01*
X82669623Y-80518461D01*
X68832000Y-80518461D01*
X68832000Y-79302463D01*
X68864192Y-79270327D01*
X69006838Y-78926799D01*
X69007162Y-78554833D01*
X68865117Y-78211057D01*
X68602327Y-77947808D01*
X68258799Y-77805162D01*
X68072000Y-77804999D01*
X68072000Y-73966466D01*
X68102192Y-73936327D01*
X68244838Y-73592799D01*
X68245162Y-73220833D01*
X68103117Y-72877057D01*
X67840327Y-72613808D01*
X67496799Y-72471162D01*
X67483151Y-72471150D01*
X67483162Y-72458833D01*
X67454721Y-72390000D01*
X73691000Y-72390000D01*
X73982605Y-72331996D01*
X74229815Y-72166815D01*
X74728687Y-71667943D01*
X74741110Y-71676431D01*
X74993000Y-71727440D01*
X77743000Y-71727440D01*
X77978317Y-71683162D01*
X78194441Y-71544090D01*
X78333890Y-71340000D01*
X80165721Y-71340000D01*
X80288910Y-71531441D01*
X80501110Y-71676431D01*
X80753000Y-71727440D01*
X83503000Y-71727440D01*
X83738317Y-71683162D01*
X83954441Y-71544090D01*
X84099431Y-71331890D01*
X84150440Y-71080000D01*
X84150440Y-70080000D01*
X84106162Y-69844683D01*
X83967090Y-69628559D01*
X83754890Y-69483569D01*
X83583866Y-69448936D01*
X84365402Y-68667400D01*
X84530149Y-68420839D01*
X84539747Y-68372585D01*
X84588001Y-68129999D01*
X84588001Y-65819999D01*
X84530149Y-65529160D01*
X84530149Y-65529159D01*
X84365402Y-65282598D01*
X83107375Y-64024571D01*
X83107375Y-58351167D01*
X99648838Y-58351167D01*
X99790883Y-58694943D01*
X99824000Y-58728118D01*
X99824000Y-76653537D01*
X99791808Y-76685673D01*
X99649162Y-77029201D01*
X99648838Y-77401167D01*
X99790883Y-77744943D01*
X100053673Y-78008192D01*
X100397201Y-78150838D01*
X100769167Y-78151162D01*
X101112943Y-78009117D01*
X101376192Y-77746327D01*
X101518838Y-77402799D01*
X101519162Y-77030833D01*
X101377117Y-76687057D01*
X101344000Y-76653882D01*
X101344000Y-60998633D01*
X101667201Y-61132838D01*
X102039167Y-61133162D01*
X102382943Y-60991117D01*
X102625199Y-60749283D01*
X102937201Y-60878838D01*
X103309167Y-60879162D01*
X103632371Y-60745617D01*
X103953201Y-60878838D01*
X104325167Y-60879162D01*
X104668943Y-60737117D01*
X104932192Y-60474327D01*
X105074838Y-60130799D01*
X105074879Y-60083923D01*
X107573000Y-57585802D01*
X107573000Y-61923178D01*
X107523162Y-62043201D01*
X107522838Y-62415167D01*
X107664883Y-62758943D01*
X107927673Y-63022192D01*
X108271201Y-63164838D01*
X108643167Y-63165162D01*
X108986943Y-63023117D01*
X109250192Y-62760327D01*
X109392838Y-62416799D01*
X109393162Y-62044833D01*
X109343000Y-61923431D01*
X109343000Y-55932822D01*
X109392838Y-55812799D01*
X109393162Y-55440833D01*
X109251117Y-55097057D01*
X108988327Y-54833808D01*
X108644799Y-54691162D01*
X108630930Y-54691150D01*
X108631162Y-54424833D01*
X108489117Y-54081057D01*
X108226327Y-53817808D01*
X107882799Y-53675162D01*
X107615151Y-53674929D01*
X107615162Y-53662833D01*
X107473117Y-53319057D01*
X107210327Y-53055808D01*
X106866799Y-52913162D01*
X106853151Y-52913150D01*
X106853162Y-52900833D01*
X106711117Y-52557057D01*
X106448327Y-52293808D01*
X106104799Y-52151162D01*
X105732833Y-52150838D01*
X105389057Y-52292883D01*
X105125808Y-52555673D01*
X104983162Y-52899201D01*
X104982838Y-53271167D01*
X105124883Y-53614943D01*
X105158000Y-53648118D01*
X105158000Y-55819198D01*
X101714320Y-59262878D01*
X101668833Y-59262838D01*
X101344000Y-59397056D01*
X101344000Y-58728463D01*
X101376192Y-58696327D01*
X101518838Y-58352799D01*
X101519162Y-57980833D01*
X101377117Y-57637057D01*
X101114327Y-57373808D01*
X100770799Y-57231162D01*
X100398833Y-57230838D01*
X100055057Y-57372883D01*
X99791808Y-57635673D01*
X99649162Y-57979201D01*
X99648838Y-58351167D01*
X83107375Y-58351167D01*
X83107375Y-53953321D01*
X83347071Y-54001000D01*
X85020929Y-54001000D01*
X85436141Y-53918409D01*
X85788140Y-53683211D01*
X85792958Y-53676000D01*
X88054000Y-53676000D01*
X88344839Y-53618148D01*
X88591401Y-53453401D01*
X93532802Y-48512000D01*
X122113198Y-48512000D01*
X128272000Y-54670802D01*
X128272000Y-101455198D01*
X118334599Y-111392599D01*
X118241080Y-111532560D01*
X118022000Y-111532560D01*
X117786683Y-111576838D01*
X117570559Y-111715910D01*
X117425569Y-111928110D01*
X117374560Y-112180000D01*
X117374560Y-113880000D01*
X117418838Y-114115317D01*
X117557910Y-114331441D01*
X117770110Y-114476431D01*
X117837541Y-114490086D01*
X117792853Y-114519946D01*
X117470946Y-115001715D01*
X117357907Y-115570000D01*
X117470946Y-116138285D01*
X117792853Y-116620054D01*
X118122026Y-116840000D01*
X117792853Y-117059946D01*
X117470946Y-117541715D01*
X117357907Y-118110000D01*
X117470946Y-118678285D01*
X117792853Y-119160054D01*
X118274622Y-119481961D01*
X118842907Y-119595000D01*
X118901093Y-119595000D01*
X119469378Y-119481961D01*
X119951147Y-119160054D01*
X120061432Y-118995000D01*
X125302568Y-118995000D01*
X125412853Y-119160054D01*
X125894622Y-119481961D01*
X126462907Y-119595000D01*
X126521093Y-119595000D01*
X127089378Y-119481961D01*
X127571147Y-119160054D01*
X127681432Y-118995000D01*
X132922568Y-118995000D01*
X133032853Y-119160054D01*
X133514622Y-119481961D01*
X134082907Y-119595000D01*
X134141093Y-119595000D01*
X134709378Y-119481961D01*
X135191147Y-119160054D01*
X135301432Y-118995000D01*
X140542568Y-118995000D01*
X140652853Y-119160054D01*
X141134622Y-119481961D01*
X141702907Y-119595000D01*
X141761093Y-119595000D01*
X142329378Y-119481961D01*
X142811147Y-119160054D01*
X143133054Y-118678285D01*
X143246093Y-118110000D01*
X143133054Y-117541715D01*
X142811147Y-117059946D01*
X142481974Y-116840000D01*
X142811147Y-116620054D01*
X143133054Y-116138285D01*
X143246093Y-115570000D01*
X143173210Y-115203592D01*
X143444402Y-114932400D01*
X143609149Y-114685839D01*
X143667001Y-114394999D01*
X143667001Y-111919999D01*
X143609149Y-111629160D01*
X143444402Y-111382598D01*
X143379402Y-111317598D01*
X143132840Y-111152851D01*
X142842001Y-111094999D01*
X142431370Y-111094999D01*
X132942068Y-101605697D01*
X132942068Y-52932403D01*
X132916101Y-52801860D01*
X132884216Y-52641563D01*
X132719469Y-52395002D01*
X124238529Y-43914062D01*
X123991967Y-43749315D01*
X123701128Y-43691463D01*
X121078788Y-43691463D01*
X120997522Y-43675298D01*
X111570839Y-43675298D01*
X111790192Y-43456327D01*
X111932838Y-43112799D01*
X111933162Y-42740833D01*
X111791117Y-42397057D01*
X111528327Y-42133808D01*
X111184799Y-41991162D01*
X110812833Y-41990838D01*
X110469057Y-42132883D01*
X110435882Y-42166000D01*
X104702463Y-42166000D01*
X104670327Y-42133808D01*
X104326799Y-41991162D01*
X103954833Y-41990838D01*
X103611057Y-42132883D01*
X103347808Y-42395673D01*
X103205162Y-42739201D01*
X103204838Y-43111167D01*
X103346883Y-43454943D01*
X103566854Y-43675298D01*
X94321475Y-43675298D01*
X93957710Y-43311534D01*
X93711148Y-43146787D01*
X93592749Y-43123236D01*
X93526372Y-43056743D01*
X93182844Y-42914097D01*
X92810878Y-42913773D01*
X92467102Y-43055818D01*
X92203853Y-43318608D01*
X92076690Y-43624849D01*
X92022013Y-43624801D01*
X91678237Y-43766846D01*
X91414988Y-44029636D01*
X91272342Y-44373164D01*
X91272126Y-44620857D01*
X91060000Y-44708506D01*
X90796751Y-44971296D01*
X90654105Y-45314824D01*
X90653996Y-45439935D01*
X90417706Y-45675813D01*
X90275060Y-46019341D01*
X90274736Y-46391307D01*
X90416781Y-46735083D01*
X90679571Y-46998332D01*
X90808505Y-47051871D01*
X89514376Y-48346000D01*
X85960003Y-48346000D01*
X86023338Y-48251212D01*
X86105929Y-47836000D01*
X86098110Y-47796692D01*
X99851401Y-34043401D01*
X100016148Y-33796840D01*
X100074000Y-33506000D01*
X100074000Y-32568802D01*
X105158000Y-37652802D01*
X105158000Y-37791537D01*
X105125808Y-37823673D01*
X104983162Y-38167201D01*
X104982838Y-38539167D01*
X105124883Y-38882943D01*
X105387673Y-39146192D01*
X105731201Y-39288838D01*
X105744849Y-39288850D01*
X105744838Y-39301167D01*
X105886883Y-39644943D01*
X106149673Y-39908192D01*
X106493201Y-40050838D01*
X106761070Y-40051071D01*
X106760838Y-40317167D01*
X106902883Y-40660943D01*
X107165673Y-40924192D01*
X107509201Y-41066838D01*
X107635888Y-41066948D01*
X107654351Y-41159767D01*
X107675927Y-41268235D01*
X107802771Y-41458071D01*
X107867770Y-41555350D01*
X107869256Y-41556836D01*
X107918883Y-41676943D01*
X108181673Y-41940192D01*
X108525201Y-42082838D01*
X108897167Y-42083162D01*
X109240943Y-41941117D01*
X109504192Y-41678327D01*
X109646838Y-41334799D01*
X109647162Y-40962833D01*
X109505117Y-40619057D01*
X109378560Y-40492279D01*
X109378560Y-37923020D01*
X109745312Y-37556268D01*
X109797255Y-37566600D01*
X110166745Y-37566600D01*
X110740234Y-37452526D01*
X111226415Y-37127670D01*
X111551271Y-36641489D01*
X111665345Y-36068000D01*
X111551271Y-35494511D01*
X111226415Y-35008330D01*
X110911634Y-34798000D01*
X111226415Y-34587670D01*
X111551271Y-34101489D01*
X111665345Y-33528000D01*
X111564381Y-33020421D01*
X112140848Y-32443954D01*
X112305595Y-32197392D01*
X112360321Y-31922266D01*
X143122405Y-31922266D01*
X143644250Y-33185229D01*
X144609688Y-34152354D01*
X145871739Y-34676403D01*
X147238266Y-34677595D01*
X148501229Y-34155750D01*
X149468354Y-33190312D01*
X149992403Y-31928261D01*
X149993595Y-30561734D01*
X149471750Y-29298771D01*
X148506312Y-28331646D01*
X147244261Y-27807597D01*
X145877734Y-27806405D01*
X144614771Y-28328250D01*
X143647646Y-29293688D01*
X143123597Y-30555739D01*
X143122405Y-31922266D01*
X112360321Y-31922266D01*
X112363447Y-31906553D01*
X112363447Y-30144845D01*
X112305595Y-29854006D01*
X112140848Y-29607444D01*
X111104991Y-28571587D01*
X110858429Y-28406840D01*
X110567590Y-28348988D01*
X95859012Y-28348988D01*
X95568173Y-28406840D01*
X95321611Y-28571587D01*
X94600408Y-29292790D01*
X94234000Y-29219907D01*
X93665715Y-29332946D01*
X93183946Y-29654853D01*
X92862039Y-30136622D01*
X92749000Y-30704907D01*
X92749000Y-30763093D01*
X92862039Y-31331378D01*
X93183946Y-31813147D01*
X93474000Y-32006954D01*
X93474000Y-35731198D01*
X86001897Y-43203301D01*
X86023338Y-43171212D01*
X86105929Y-42756000D01*
X86023338Y-42340788D01*
X85962139Y-42249197D01*
X86173201Y-42336838D01*
X86545167Y-42337162D01*
X86888943Y-42195117D01*
X87152192Y-41932327D01*
X87294838Y-41588799D01*
X87295162Y-41216833D01*
X87153117Y-40873057D01*
X86890327Y-40609808D01*
X86657039Y-40512938D01*
X86888943Y-40417117D01*
X87152192Y-40154327D01*
X87294838Y-39810799D01*
X87295162Y-39438833D01*
X87153117Y-39095057D01*
X86890327Y-38831808D01*
X86546799Y-38689162D01*
X86260428Y-38688913D01*
X86380943Y-38639117D01*
X86644192Y-38376327D01*
X86786838Y-38032799D01*
X86787162Y-37660833D01*
X86645117Y-37317057D01*
X86382327Y-37053808D01*
X86199650Y-36977953D01*
X86020675Y-36858367D01*
X85964484Y-36847190D01*
X85682000Y-36790999D01*
X85681995Y-36791000D01*
X85611856Y-36791000D01*
X85436141Y-36673591D01*
X85020929Y-36591000D01*
X83347071Y-36591000D01*
X82931859Y-36673591D01*
X82663512Y-36852894D01*
X82636000Y-36858367D01*
X82348885Y-37050210D01*
X82348883Y-37050213D01*
X82211864Y-37187231D01*
X82211862Y-37187234D01*
X82128820Y-37270275D01*
X82008712Y-37319903D01*
X81745463Y-37582693D01*
X81602817Y-37926221D01*
X81602493Y-38298187D01*
X81744538Y-38641963D01*
X82007328Y-38905212D01*
X82249448Y-39005750D01*
X81809974Y-39445224D01*
X81645227Y-39691786D01*
X81587375Y-39982625D01*
X81587375Y-40782471D01*
X81555183Y-40814607D01*
X81412537Y-41158135D01*
X81412213Y-41530101D01*
X81554258Y-41873877D01*
X81587375Y-41907052D01*
X81587375Y-64339373D01*
X81645227Y-64630212D01*
X81809974Y-64876774D01*
X83068001Y-66134801D01*
X83068001Y-67815197D01*
X81590599Y-69292599D01*
X81497080Y-69432560D01*
X80753000Y-69432560D01*
X80517683Y-69476838D01*
X80301559Y-69615910D01*
X80162110Y-69820000D01*
X78330279Y-69820000D01*
X78207090Y-69628559D01*
X77994890Y-69483569D01*
X77743000Y-69432560D01*
X74993000Y-69432560D01*
X74757683Y-69476838D01*
X74541559Y-69615910D01*
X74396569Y-69828110D01*
X74377399Y-69922774D01*
X74227661Y-70022826D01*
X74200162Y-69876683D01*
X74061090Y-69660559D01*
X73848890Y-69515569D01*
X73597000Y-69464560D01*
X70847000Y-69464560D01*
X70611683Y-69508838D01*
X70395559Y-69647910D01*
X70256110Y-69852000D01*
X68424279Y-69852000D01*
X68301090Y-69660559D01*
X68088890Y-69515569D01*
X67837000Y-69464560D01*
X67092920Y-69464560D01*
X66999401Y-69324599D01*
X65521999Y-67847197D01*
X65521999Y-61377215D01*
X65545173Y-61386838D01*
X65917139Y-61387162D01*
X66038541Y-61337000D01*
X71115997Y-61337000D01*
X71116002Y-61337001D01*
X71398486Y-61280810D01*
X71454677Y-61269633D01*
X71741792Y-61077790D01*
X72137788Y-60681793D01*
X72137791Y-60681791D01*
X72329634Y-60394676D01*
X72339826Y-60343440D01*
X72840000Y-60343440D01*
X73075317Y-60299162D01*
X73291441Y-60160090D01*
X73413808Y-59981000D01*
X76956808Y-59981000D01*
X77063910Y-60147441D01*
X77276110Y-60292431D01*
X77528000Y-60343440D01*
X78428000Y-60343440D01*
X78663317Y-60299162D01*
X78819521Y-60198647D01*
X78841910Y-60233441D01*
X79054110Y-60378431D01*
X79306000Y-60429440D01*
X80206000Y-60429440D01*
X80441317Y-60385162D01*
X80657441Y-60246090D01*
X80802431Y-60033890D01*
X80853440Y-59782000D01*
X80853440Y-58582000D01*
X80809162Y-58346683D01*
X80670090Y-58130559D01*
X80600289Y-58082866D01*
X80657441Y-58046090D01*
X80802431Y-57833890D01*
X80853440Y-57582000D01*
X80853440Y-56382000D01*
X80809162Y-56146683D01*
X80670090Y-55930559D01*
X80518564Y-55827026D01*
X80631409Y-55658141D01*
X80714000Y-55242929D01*
X80714000Y-53569071D01*
X80631409Y-53153859D01*
X80396211Y-52801860D01*
X80044212Y-52566662D01*
X79629000Y-52484071D01*
X79284356Y-52552625D01*
X79284528Y-52355044D01*
X79142483Y-52011268D01*
X78939285Y-51807715D01*
X78939285Y-51626689D01*
X78969477Y-51596550D01*
X79112123Y-51253022D01*
X79112447Y-50881056D01*
X78970402Y-50537280D01*
X78707612Y-50274031D01*
X78364084Y-50131385D01*
X77992118Y-50131061D01*
X77648342Y-50273106D01*
X77385093Y-50535896D01*
X77322825Y-50685854D01*
X77268749Y-50685807D01*
X77198236Y-50714942D01*
X76985432Y-50501766D01*
X76641904Y-50359120D01*
X76269938Y-50358796D01*
X75926162Y-50500841D01*
X75721687Y-50704959D01*
X70612000Y-50704959D01*
X70612000Y-39838000D01*
X70553996Y-39546395D01*
X70481035Y-39437201D01*
X70388816Y-39299185D01*
X68226815Y-37137185D01*
X68212575Y-37127670D01*
X67979605Y-36972004D01*
X67807505Y-36937771D01*
X67788140Y-36908789D01*
X67436141Y-36673591D01*
X67020929Y-36591000D01*
X65347071Y-36591000D01*
X64931859Y-36673591D01*
X64579860Y-36908789D01*
X64344662Y-37260788D01*
X64262071Y-37676000D01*
X64344662Y-38091212D01*
X64491520Y-38311000D01*
X64344662Y-38530788D01*
X64262071Y-38946000D01*
X64344662Y-39361212D01*
X64491520Y-39581000D01*
X64344662Y-39800788D01*
X64262071Y-40216000D01*
X64269890Y-40255308D01*
X53564599Y-50960599D01*
X53399852Y-51207161D01*
X53342000Y-51498000D01*
X52247000Y-51498000D01*
X52247000Y-31922266D01*
X53206405Y-31922266D01*
X53728250Y-33185229D01*
X54693688Y-34152354D01*
X55955739Y-34676403D01*
X57322266Y-34677595D01*
X58585229Y-34155750D01*
X59552354Y-33190312D01*
X60076403Y-31928261D01*
X60077595Y-30561734D01*
X59555750Y-29298771D01*
X58590312Y-28331646D01*
X57328261Y-27807597D01*
X55961734Y-27806405D01*
X54698771Y-28328250D01*
X53731646Y-29293688D01*
X53207597Y-30555739D01*
X53206405Y-31922266D01*
X52247000Y-31922266D01*
X52247000Y-26847000D01*
X65913000Y-26847000D01*
X65913000Y-35052000D01*
X65913000Y-35052000D01*
G37*
X65913000Y-35052000D02*
X65923006Y-35101410D01*
X65951447Y-35143035D01*
X65993841Y-35170315D01*
X66040000Y-35179000D01*
X84328000Y-35179000D01*
X84377410Y-35168994D01*
X84419035Y-35140553D01*
X84446315Y-35098159D01*
X84454948Y-35048373D01*
X84220623Y-26847000D01*
X150953000Y-26847000D01*
X150953000Y-125553000D01*
X52247000Y-125553000D01*
X52247000Y-121838266D01*
X53206405Y-121838266D01*
X53728250Y-123101229D01*
X54693688Y-124068354D01*
X55955739Y-124592403D01*
X57322266Y-124593595D01*
X58585229Y-124071750D01*
X59552354Y-123106312D01*
X60076403Y-121844261D01*
X60077595Y-120477734D01*
X59725136Y-119624718D01*
X63662206Y-123561787D01*
X63662208Y-123561790D01*
X63854052Y-123689975D01*
X63949324Y-123753634D01*
X64287998Y-123821001D01*
X64288003Y-123821000D01*
X68019178Y-123821000D01*
X68139201Y-123870838D01*
X68511167Y-123871162D01*
X68854943Y-123729117D01*
X69118192Y-123466327D01*
X69260838Y-123122799D01*
X69261162Y-122750833D01*
X69119117Y-122407057D01*
X68856327Y-122143808D01*
X68512799Y-122001162D01*
X68140833Y-122000838D01*
X68019431Y-122051000D01*
X64654577Y-122051000D01*
X64441844Y-121838266D01*
X143122405Y-121838266D01*
X143644250Y-123101229D01*
X144609688Y-124068354D01*
X145871739Y-124592403D01*
X147238266Y-124593595D01*
X148501229Y-124071750D01*
X149468354Y-123106312D01*
X149992403Y-121844261D01*
X149993595Y-120477734D01*
X149471750Y-119214771D01*
X148506312Y-118247646D01*
X147244261Y-117723597D01*
X145877734Y-117722405D01*
X144614771Y-118244250D01*
X143647646Y-119209688D01*
X143123597Y-120471739D01*
X143122405Y-121838266D01*
X64441844Y-121838266D01*
X57019000Y-114415422D01*
X57019000Y-113192000D01*
X57938560Y-113192000D01*
X57938560Y-114392000D01*
X57982838Y-114627317D01*
X58121910Y-114843441D01*
X58334110Y-114988431D01*
X58586000Y-115039440D01*
X60286000Y-115039440D01*
X60521317Y-114995162D01*
X60737441Y-114856090D01*
X60882431Y-114643890D01*
X60933440Y-114392000D01*
X60933440Y-113192000D01*
X60889162Y-112956683D01*
X60750090Y-112740559D01*
X60537890Y-112595569D01*
X60286000Y-112544560D01*
X58586000Y-112544560D01*
X58350683Y-112588838D01*
X58134559Y-112727910D01*
X57989569Y-112940110D01*
X57938560Y-113192000D01*
X57019000Y-113192000D01*
X57019000Y-110456854D01*
X57219317Y-110419162D01*
X57435441Y-110280090D01*
X57580431Y-110067890D01*
X57624352Y-109851000D01*
X65733178Y-109851000D01*
X65853201Y-109900838D01*
X66225167Y-109901162D01*
X66568943Y-109759117D01*
X66832192Y-109496327D01*
X66974838Y-109152799D01*
X66975162Y-108780833D01*
X66833117Y-108437057D01*
X66570327Y-108173808D01*
X66226799Y-108031162D01*
X65854833Y-108030838D01*
X65733431Y-108081000D01*
X57624854Y-108081000D01*
X57587162Y-107880683D01*
X57448090Y-107664559D01*
X57235890Y-107519569D01*
X57168459Y-107505914D01*
X57213147Y-107476054D01*
X57535054Y-106994285D01*
X57648093Y-106426000D01*
X57535054Y-105857715D01*
X57213147Y-105375946D01*
X56883974Y-105156000D01*
X57213147Y-104936054D01*
X57323432Y-104771000D01*
X66689420Y-104771000D01*
X72309255Y-110390834D01*
X72358883Y-110510943D01*
X72621673Y-110774192D01*
X72965201Y-110916838D01*
X73337167Y-110917162D01*
X73680943Y-110775117D01*
X73944192Y-110512327D01*
X74086838Y-110168799D01*
X74087162Y-109796833D01*
X73945117Y-109453057D01*
X73682327Y-109189808D01*
X73561013Y-109139434D01*
X70047580Y-105626000D01*
X75824560Y-105626000D01*
X75824560Y-107226000D01*
X75868838Y-107461317D01*
X76007910Y-107677441D01*
X76220110Y-107822431D01*
X76472000Y-107873440D01*
X78072000Y-107873440D01*
X78307317Y-107829162D01*
X78523441Y-107690090D01*
X78548230Y-107653810D01*
X79216208Y-108321787D01*
X79216210Y-108321790D01*
X79417071Y-108456000D01*
X79503325Y-108513633D01*
X79842000Y-108581001D01*
X79842005Y-108581000D01*
X83259178Y-108581000D01*
X83379201Y-108630838D01*
X83751167Y-108631162D01*
X84094943Y-108489117D01*
X84200954Y-108383290D01*
X84305673Y-108488192D01*
X84649201Y-108630838D01*
X85021167Y-108631162D01*
X85364943Y-108489117D01*
X85628192Y-108226327D01*
X85770838Y-107882799D01*
X85771162Y-107510833D01*
X85629117Y-107167057D01*
X85366327Y-106903808D01*
X85022799Y-106761162D01*
X84975923Y-106761121D01*
X81707122Y-103492320D01*
X81707162Y-103446833D01*
X81565117Y-103103057D01*
X81302327Y-102839808D01*
X80958799Y-102697162D01*
X80586833Y-102696838D01*
X80243057Y-102838883D01*
X79979808Y-103101673D01*
X79837162Y-103445201D01*
X79836838Y-103817167D01*
X79978883Y-104160943D01*
X80241673Y-104424192D01*
X80585201Y-104566838D01*
X80632077Y-104566879D01*
X82876198Y-106811000D01*
X80208579Y-106811000D01*
X79197790Y-105800210D01*
X79167516Y-105779982D01*
X78910675Y-105608367D01*
X78854484Y-105597190D01*
X78708557Y-105568163D01*
X78675162Y-105390683D01*
X78536090Y-105174559D01*
X78323890Y-105029569D01*
X78072000Y-104978560D01*
X76472000Y-104978560D01*
X76236683Y-105022838D01*
X76020559Y-105161910D01*
X75875569Y-105374110D01*
X75824560Y-105626000D01*
X70047580Y-105626000D01*
X67681790Y-103260210D01*
X67394675Y-103068367D01*
X67325801Y-103054667D01*
X67056000Y-103000999D01*
X67055995Y-103001000D01*
X65844388Y-103001000D01*
X65935853Y-102780730D01*
X65936177Y-102408764D01*
X65886015Y-102287362D01*
X65886015Y-98021020D01*
X65886016Y-98021015D01*
X65818648Y-97682341D01*
X65818648Y-97682340D01*
X65626805Y-97395225D01*
X65626802Y-97395223D01*
X63517038Y-95285458D01*
X63530192Y-95272327D01*
X63672838Y-94928799D01*
X63673162Y-94556833D01*
X63531117Y-94213057D01*
X63268327Y-93949808D01*
X62924799Y-93807162D01*
X62552833Y-93806838D01*
X62209057Y-93948883D01*
X62164273Y-93993589D01*
X62098750Y-93949808D01*
X62060675Y-93924367D01*
X62004484Y-93913190D01*
X61722000Y-93856999D01*
X61721995Y-93857000D01*
X58024579Y-93857000D01*
X57735001Y-93567421D01*
X57735001Y-93322715D01*
X58004255Y-93322950D01*
X58348031Y-93180905D01*
X58611280Y-92918115D01*
X58753926Y-92574587D01*
X58754035Y-92449586D01*
X58828496Y-92375125D01*
X58871157Y-92375162D01*
X59214933Y-92233117D01*
X59478182Y-91970327D01*
X59620828Y-91626799D01*
X59621152Y-91254833D01*
X59479107Y-90911057D01*
X59216317Y-90647808D01*
X58872789Y-90505162D01*
X58500823Y-90504838D01*
X58193940Y-90631639D01*
X58300582Y-90524997D01*
X58300585Y-90524995D01*
X58383629Y-90441950D01*
X58503737Y-90392323D01*
X58766986Y-90129533D01*
X58909632Y-89786005D01*
X58909956Y-89414039D01*
X58767911Y-89070263D01*
X58505121Y-88807014D01*
X58161593Y-88664368D01*
X57789627Y-88664044D01*
X57445851Y-88806089D01*
X57182602Y-89068879D01*
X57132228Y-89190192D01*
X57049005Y-89273415D01*
X57049003Y-89273418D01*
X56224211Y-90098209D01*
X56032368Y-90385324D01*
X56032368Y-90385325D01*
X55965000Y-90723999D01*
X55965001Y-90724004D01*
X55965001Y-93933996D01*
X55965000Y-93934001D01*
X56001245Y-94116211D01*
X56032368Y-94272676D01*
X56221144Y-94555201D01*
X56224211Y-94559791D01*
X57032208Y-95367787D01*
X57032210Y-95367790D01*
X57281250Y-95534192D01*
X57319325Y-95559633D01*
X57658000Y-95627001D01*
X57658005Y-95627000D01*
X61355421Y-95627000D01*
X61604208Y-95875787D01*
X61604210Y-95875790D01*
X64116015Y-98387594D01*
X64116015Y-102287109D01*
X64066177Y-102407132D01*
X64065853Y-102779098D01*
X64157541Y-103001000D01*
X57323432Y-103001000D01*
X57213147Y-102835946D01*
X56731378Y-102514039D01*
X56163093Y-102401000D01*
X56104907Y-102401000D01*
X55536622Y-102514039D01*
X55054853Y-102835946D01*
X54732946Y-103317715D01*
X54619907Y-103886000D01*
X54732946Y-104454285D01*
X55054853Y-104936054D01*
X55384026Y-105156000D01*
X55054853Y-105375946D01*
X54732946Y-105857715D01*
X54619907Y-106426000D01*
X54732946Y-106994285D01*
X55054853Y-107476054D01*
X55096452Y-107503850D01*
X55048683Y-107512838D01*
X54832559Y-107651910D01*
X54687569Y-107864110D01*
X54636560Y-108116000D01*
X54636560Y-109816000D01*
X54680838Y-110051317D01*
X54819910Y-110267441D01*
X55032110Y-110412431D01*
X55249000Y-110456352D01*
X55249000Y-114781997D01*
X55248999Y-114782002D01*
X55278916Y-114932400D01*
X55316367Y-115120677D01*
X55422262Y-115279161D01*
X55508210Y-115407792D01*
X58176046Y-118075628D01*
X57328261Y-117723597D01*
X55961734Y-117722405D01*
X54698771Y-118244250D01*
X53731646Y-119209688D01*
X53207597Y-120471739D01*
X53206405Y-121838266D01*
X52247000Y-121838266D01*
X52247000Y-51498000D01*
X53342000Y-51498000D01*
X53342000Y-79248000D01*
X53399852Y-79538839D01*
X53564599Y-79785401D01*
X54692790Y-80913592D01*
X54619907Y-81280000D01*
X54732946Y-81848285D01*
X55054853Y-82330054D01*
X55096452Y-82357850D01*
X55048683Y-82366838D01*
X54832559Y-82505910D01*
X54687569Y-82718110D01*
X54636560Y-82970000D01*
X54636560Y-84670000D01*
X54680838Y-84905317D01*
X54819910Y-85121441D01*
X55032110Y-85266431D01*
X55284000Y-85317440D01*
X56984000Y-85317440D01*
X57219317Y-85273162D01*
X57435441Y-85134090D01*
X57580431Y-84921890D01*
X57631440Y-84670000D01*
X57631440Y-82970000D01*
X57587162Y-82734683D01*
X57448090Y-82518559D01*
X57235890Y-82373569D01*
X57168459Y-82359914D01*
X57213147Y-82330054D01*
X57535054Y-81848285D01*
X57648093Y-81280000D01*
X57535054Y-80711715D01*
X57213147Y-80229946D01*
X56883974Y-80010000D01*
X57213147Y-79790054D01*
X57535054Y-79308285D01*
X57648093Y-78740000D01*
X57535054Y-78171715D01*
X57213147Y-77689946D01*
X56883974Y-77470000D01*
X57213147Y-77250054D01*
X57535054Y-76768285D01*
X57648093Y-76200000D01*
X57604539Y-75981040D01*
X58283787Y-75301792D01*
X58283790Y-75301790D01*
X58475633Y-75014675D01*
X58543000Y-74676000D01*
X58543000Y-61774822D01*
X58592838Y-61654799D01*
X58593162Y-61282833D01*
X58451117Y-60939057D01*
X58188327Y-60675808D01*
X57844799Y-60533162D01*
X57472833Y-60532838D01*
X57129057Y-60674883D01*
X56865808Y-60937673D01*
X56723162Y-61281201D01*
X56722868Y-61618346D01*
X56163093Y-61507000D01*
X56104907Y-61507000D01*
X55718999Y-61583762D01*
X55718999Y-56034629D01*
X59436000Y-59751630D01*
X59436000Y-77925534D01*
X59405808Y-77955673D01*
X59263162Y-78299201D01*
X59262838Y-78671167D01*
X59404883Y-79014943D01*
X59667673Y-79278192D01*
X60011201Y-79420838D01*
X60383167Y-79421162D01*
X60726943Y-79279117D01*
X60960000Y-79046466D01*
X60960000Y-81079545D01*
X60929808Y-81109684D01*
X60787162Y-81453212D01*
X60786838Y-81825178D01*
X60928883Y-82168954D01*
X61030067Y-82270314D01*
X60899819Y-82400562D01*
X60734638Y-82647772D01*
X60676634Y-82939377D01*
X60676634Y-88425530D01*
X60646442Y-88455669D01*
X60503796Y-88799197D01*
X60503472Y-89171163D01*
X60645517Y-89514939D01*
X60908307Y-89778188D01*
X61251835Y-89920834D01*
X61623801Y-89921158D01*
X61967577Y-89779113D01*
X62230826Y-89516323D01*
X62373472Y-89172795D01*
X62373796Y-88800829D01*
X62231751Y-88457053D01*
X62200634Y-88425882D01*
X62200634Y-83255007D01*
X62846968Y-82608674D01*
X62889629Y-82608711D01*
X62934950Y-82589985D01*
X63026994Y-82682189D01*
X63370522Y-82824835D01*
X63742488Y-82825159D01*
X64086264Y-82683114D01*
X64349513Y-82420324D01*
X64492159Y-82076796D01*
X64492483Y-81704830D01*
X64350438Y-81361054D01*
X64319321Y-81329883D01*
X64319321Y-72902309D01*
X64831630Y-72390000D01*
X65641066Y-72390000D01*
X65613162Y-72457201D01*
X65612838Y-72829167D01*
X65754883Y-73172943D01*
X65786000Y-73204114D01*
X65786000Y-79957534D01*
X65755808Y-79987673D01*
X65613162Y-80331201D01*
X65612838Y-80703167D01*
X65754883Y-81046943D01*
X66017673Y-81310192D01*
X66361201Y-81452838D01*
X66374849Y-81452850D01*
X66374838Y-81465167D01*
X66516883Y-81808943D01*
X66779673Y-82072192D01*
X67123201Y-82214838D01*
X67312000Y-82215002D01*
X67312000Y-85852000D01*
X67369852Y-86142839D01*
X67534599Y-86389401D01*
X70184878Y-89039680D01*
X70184838Y-89085167D01*
X70326883Y-89428943D01*
X70589673Y-89692192D01*
X70933201Y-89834838D01*
X71305167Y-89835162D01*
X71648943Y-89693117D01*
X71912192Y-89430327D01*
X72054838Y-89086799D01*
X72055162Y-88714833D01*
X71913117Y-88371057D01*
X71650327Y-88107808D01*
X71306799Y-87965162D01*
X71259923Y-87965121D01*
X68832000Y-85537198D01*
X68832000Y-80518461D01*
X82669623Y-80518461D01*
X82811668Y-80862237D01*
X83074458Y-81125486D01*
X83417986Y-81268132D01*
X83789952Y-81268456D01*
X84133728Y-81126411D01*
X84396977Y-80863621D01*
X84539623Y-80520093D01*
X84539664Y-80473217D01*
X86528881Y-78484000D01*
X93671537Y-78484000D01*
X93703673Y-78516192D01*
X94047201Y-78658838D01*
X94419167Y-78659162D01*
X94762943Y-78517117D01*
X95026192Y-78254327D01*
X95168838Y-77910799D01*
X95169162Y-77538833D01*
X95027117Y-77195057D01*
X94764327Y-76931808D01*
X94420799Y-76789162D01*
X94048833Y-76788838D01*
X93705057Y-76930883D01*
X93671882Y-76964000D01*
X86214079Y-76964000D01*
X85923239Y-77021852D01*
X85676678Y-77186599D01*
X83465105Y-79398172D01*
X83419618Y-79398132D01*
X83075842Y-79540177D01*
X82812593Y-79802967D01*
X82669947Y-80146495D01*
X82669623Y-80518461D01*
X68832000Y-80518461D01*
X68832000Y-79302463D01*
X68864192Y-79270327D01*
X69006838Y-78926799D01*
X69007162Y-78554833D01*
X68865117Y-78211057D01*
X68602327Y-77947808D01*
X68258799Y-77805162D01*
X68072000Y-77804999D01*
X68072000Y-73966466D01*
X68102192Y-73936327D01*
X68244838Y-73592799D01*
X68245162Y-73220833D01*
X68103117Y-72877057D01*
X67840327Y-72613808D01*
X67496799Y-72471162D01*
X67483151Y-72471150D01*
X67483162Y-72458833D01*
X67454721Y-72390000D01*
X73691000Y-72390000D01*
X73982605Y-72331996D01*
X74229815Y-72166815D01*
X74728687Y-71667943D01*
X74741110Y-71676431D01*
X74993000Y-71727440D01*
X77743000Y-71727440D01*
X77978317Y-71683162D01*
X78194441Y-71544090D01*
X78333890Y-71340000D01*
X80165721Y-71340000D01*
X80288910Y-71531441D01*
X80501110Y-71676431D01*
X80753000Y-71727440D01*
X83503000Y-71727440D01*
X83738317Y-71683162D01*
X83954441Y-71544090D01*
X84099431Y-71331890D01*
X84150440Y-71080000D01*
X84150440Y-70080000D01*
X84106162Y-69844683D01*
X83967090Y-69628559D01*
X83754890Y-69483569D01*
X83583866Y-69448936D01*
X84365402Y-68667400D01*
X84530149Y-68420839D01*
X84539747Y-68372585D01*
X84588001Y-68129999D01*
X84588001Y-65819999D01*
X84530149Y-65529160D01*
X84530149Y-65529159D01*
X84365402Y-65282598D01*
X83107375Y-64024571D01*
X83107375Y-58351167D01*
X99648838Y-58351167D01*
X99790883Y-58694943D01*
X99824000Y-58728118D01*
X99824000Y-76653537D01*
X99791808Y-76685673D01*
X99649162Y-77029201D01*
X99648838Y-77401167D01*
X99790883Y-77744943D01*
X100053673Y-78008192D01*
X100397201Y-78150838D01*
X100769167Y-78151162D01*
X101112943Y-78009117D01*
X101376192Y-77746327D01*
X101518838Y-77402799D01*
X101519162Y-77030833D01*
X101377117Y-76687057D01*
X101344000Y-76653882D01*
X101344000Y-60998633D01*
X101667201Y-61132838D01*
X102039167Y-61133162D01*
X102382943Y-60991117D01*
X102625199Y-60749283D01*
X102937201Y-60878838D01*
X103309167Y-60879162D01*
X103632371Y-60745617D01*
X103953201Y-60878838D01*
X104325167Y-60879162D01*
X104668943Y-60737117D01*
X104932192Y-60474327D01*
X105074838Y-60130799D01*
X105074879Y-60083923D01*
X107573000Y-57585802D01*
X107573000Y-61923178D01*
X107523162Y-62043201D01*
X107522838Y-62415167D01*
X107664883Y-62758943D01*
X107927673Y-63022192D01*
X108271201Y-63164838D01*
X108643167Y-63165162D01*
X108986943Y-63023117D01*
X109250192Y-62760327D01*
X109392838Y-62416799D01*
X109393162Y-62044833D01*
X109343000Y-61923431D01*
X109343000Y-55932822D01*
X109392838Y-55812799D01*
X109393162Y-55440833D01*
X109251117Y-55097057D01*
X108988327Y-54833808D01*
X108644799Y-54691162D01*
X108630930Y-54691150D01*
X108631162Y-54424833D01*
X108489117Y-54081057D01*
X108226327Y-53817808D01*
X107882799Y-53675162D01*
X107615151Y-53674929D01*
X107615162Y-53662833D01*
X107473117Y-53319057D01*
X107210327Y-53055808D01*
X106866799Y-52913162D01*
X106853151Y-52913150D01*
X106853162Y-52900833D01*
X106711117Y-52557057D01*
X106448327Y-52293808D01*
X106104799Y-52151162D01*
X105732833Y-52150838D01*
X105389057Y-52292883D01*
X105125808Y-52555673D01*
X104983162Y-52899201D01*
X104982838Y-53271167D01*
X105124883Y-53614943D01*
X105158000Y-53648118D01*
X105158000Y-55819198D01*
X101714320Y-59262878D01*
X101668833Y-59262838D01*
X101344000Y-59397056D01*
X101344000Y-58728463D01*
X101376192Y-58696327D01*
X101518838Y-58352799D01*
X101519162Y-57980833D01*
X101377117Y-57637057D01*
X101114327Y-57373808D01*
X100770799Y-57231162D01*
X100398833Y-57230838D01*
X100055057Y-57372883D01*
X99791808Y-57635673D01*
X99649162Y-57979201D01*
X99648838Y-58351167D01*
X83107375Y-58351167D01*
X83107375Y-53953321D01*
X83347071Y-54001000D01*
X85020929Y-54001000D01*
X85436141Y-53918409D01*
X85788140Y-53683211D01*
X85792958Y-53676000D01*
X88054000Y-53676000D01*
X88344839Y-53618148D01*
X88591401Y-53453401D01*
X93532802Y-48512000D01*
X122113198Y-48512000D01*
X128272000Y-54670802D01*
X128272000Y-101455198D01*
X118334599Y-111392599D01*
X118241080Y-111532560D01*
X118022000Y-111532560D01*
X117786683Y-111576838D01*
X117570559Y-111715910D01*
X117425569Y-111928110D01*
X117374560Y-112180000D01*
X117374560Y-113880000D01*
X117418838Y-114115317D01*
X117557910Y-114331441D01*
X117770110Y-114476431D01*
X117837541Y-114490086D01*
X117792853Y-114519946D01*
X117470946Y-115001715D01*
X117357907Y-115570000D01*
X117470946Y-116138285D01*
X117792853Y-116620054D01*
X118122026Y-116840000D01*
X117792853Y-117059946D01*
X117470946Y-117541715D01*
X117357907Y-118110000D01*
X117470946Y-118678285D01*
X117792853Y-119160054D01*
X118274622Y-119481961D01*
X118842907Y-119595000D01*
X118901093Y-119595000D01*
X119469378Y-119481961D01*
X119951147Y-119160054D01*
X120061432Y-118995000D01*
X125302568Y-118995000D01*
X125412853Y-119160054D01*
X125894622Y-119481961D01*
X126462907Y-119595000D01*
X126521093Y-119595000D01*
X127089378Y-119481961D01*
X127571147Y-119160054D01*
X127681432Y-118995000D01*
X132922568Y-118995000D01*
X133032853Y-119160054D01*
X133514622Y-119481961D01*
X134082907Y-119595000D01*
X134141093Y-119595000D01*
X134709378Y-119481961D01*
X135191147Y-119160054D01*
X135301432Y-118995000D01*
X140542568Y-118995000D01*
X140652853Y-119160054D01*
X141134622Y-119481961D01*
X141702907Y-119595000D01*
X141761093Y-119595000D01*
X142329378Y-119481961D01*
X142811147Y-119160054D01*
X143133054Y-118678285D01*
X143246093Y-118110000D01*
X143133054Y-117541715D01*
X142811147Y-117059946D01*
X142481974Y-116840000D01*
X142811147Y-116620054D01*
X143133054Y-116138285D01*
X143246093Y-115570000D01*
X143173210Y-115203592D01*
X143444402Y-114932400D01*
X143609149Y-114685839D01*
X143667001Y-114394999D01*
X143667001Y-111919999D01*
X143609149Y-111629160D01*
X143444402Y-111382598D01*
X143379402Y-111317598D01*
X143132840Y-111152851D01*
X142842001Y-111094999D01*
X142431370Y-111094999D01*
X132942068Y-101605697D01*
X132942068Y-52932403D01*
X132916101Y-52801860D01*
X132884216Y-52641563D01*
X132719469Y-52395002D01*
X124238529Y-43914062D01*
X123991967Y-43749315D01*
X123701128Y-43691463D01*
X121078788Y-43691463D01*
X120997522Y-43675298D01*
X111570839Y-43675298D01*
X111790192Y-43456327D01*
X111932838Y-43112799D01*
X111933162Y-42740833D01*
X111791117Y-42397057D01*
X111528327Y-42133808D01*
X111184799Y-41991162D01*
X110812833Y-41990838D01*
X110469057Y-42132883D01*
X110435882Y-42166000D01*
X104702463Y-42166000D01*
X104670327Y-42133808D01*
X104326799Y-41991162D01*
X103954833Y-41990838D01*
X103611057Y-42132883D01*
X103347808Y-42395673D01*
X103205162Y-42739201D01*
X103204838Y-43111167D01*
X103346883Y-43454943D01*
X103566854Y-43675298D01*
X94321475Y-43675298D01*
X93957710Y-43311534D01*
X93711148Y-43146787D01*
X93592749Y-43123236D01*
X93526372Y-43056743D01*
X93182844Y-42914097D01*
X92810878Y-42913773D01*
X92467102Y-43055818D01*
X92203853Y-43318608D01*
X92076690Y-43624849D01*
X92022013Y-43624801D01*
X91678237Y-43766846D01*
X91414988Y-44029636D01*
X91272342Y-44373164D01*
X91272126Y-44620857D01*
X91060000Y-44708506D01*
X90796751Y-44971296D01*
X90654105Y-45314824D01*
X90653996Y-45439935D01*
X90417706Y-45675813D01*
X90275060Y-46019341D01*
X90274736Y-46391307D01*
X90416781Y-46735083D01*
X90679571Y-46998332D01*
X90808505Y-47051871D01*
X89514376Y-48346000D01*
X85960003Y-48346000D01*
X86023338Y-48251212D01*
X86105929Y-47836000D01*
X86098110Y-47796692D01*
X99851401Y-34043401D01*
X100016148Y-33796840D01*
X100074000Y-33506000D01*
X100074000Y-32568802D01*
X105158000Y-37652802D01*
X105158000Y-37791537D01*
X105125808Y-37823673D01*
X104983162Y-38167201D01*
X104982838Y-38539167D01*
X105124883Y-38882943D01*
X105387673Y-39146192D01*
X105731201Y-39288838D01*
X105744849Y-39288850D01*
X105744838Y-39301167D01*
X105886883Y-39644943D01*
X106149673Y-39908192D01*
X106493201Y-40050838D01*
X106761070Y-40051071D01*
X106760838Y-40317167D01*
X106902883Y-40660943D01*
X107165673Y-40924192D01*
X107509201Y-41066838D01*
X107635888Y-41066948D01*
X107654351Y-41159767D01*
X107675927Y-41268235D01*
X107802771Y-41458071D01*
X107867770Y-41555350D01*
X107869256Y-41556836D01*
X107918883Y-41676943D01*
X108181673Y-41940192D01*
X108525201Y-42082838D01*
X108897167Y-42083162D01*
X109240943Y-41941117D01*
X109504192Y-41678327D01*
X109646838Y-41334799D01*
X109647162Y-40962833D01*
X109505117Y-40619057D01*
X109378560Y-40492279D01*
X109378560Y-37923020D01*
X109745312Y-37556268D01*
X109797255Y-37566600D01*
X110166745Y-37566600D01*
X110740234Y-37452526D01*
X111226415Y-37127670D01*
X111551271Y-36641489D01*
X111665345Y-36068000D01*
X111551271Y-35494511D01*
X111226415Y-35008330D01*
X110911634Y-34798000D01*
X111226415Y-34587670D01*
X111551271Y-34101489D01*
X111665345Y-33528000D01*
X111564381Y-33020421D01*
X112140848Y-32443954D01*
X112305595Y-32197392D01*
X112360321Y-31922266D01*
X143122405Y-31922266D01*
X143644250Y-33185229D01*
X144609688Y-34152354D01*
X145871739Y-34676403D01*
X147238266Y-34677595D01*
X148501229Y-34155750D01*
X149468354Y-33190312D01*
X149992403Y-31928261D01*
X149993595Y-30561734D01*
X149471750Y-29298771D01*
X148506312Y-28331646D01*
X147244261Y-27807597D01*
X145877734Y-27806405D01*
X144614771Y-28328250D01*
X143647646Y-29293688D01*
X143123597Y-30555739D01*
X143122405Y-31922266D01*
X112360321Y-31922266D01*
X112363447Y-31906553D01*
X112363447Y-30144845D01*
X112305595Y-29854006D01*
X112140848Y-29607444D01*
X111104991Y-28571587D01*
X110858429Y-28406840D01*
X110567590Y-28348988D01*
X95859012Y-28348988D01*
X95568173Y-28406840D01*
X95321611Y-28571587D01*
X94600408Y-29292790D01*
X94234000Y-29219907D01*
X93665715Y-29332946D01*
X93183946Y-29654853D01*
X92862039Y-30136622D01*
X92749000Y-30704907D01*
X92749000Y-30763093D01*
X92862039Y-31331378D01*
X93183946Y-31813147D01*
X93474000Y-32006954D01*
X93474000Y-35731198D01*
X86001897Y-43203301D01*
X86023338Y-43171212D01*
X86105929Y-42756000D01*
X86023338Y-42340788D01*
X85962139Y-42249197D01*
X86173201Y-42336838D01*
X86545167Y-42337162D01*
X86888943Y-42195117D01*
X87152192Y-41932327D01*
X87294838Y-41588799D01*
X87295162Y-41216833D01*
X87153117Y-40873057D01*
X86890327Y-40609808D01*
X86657039Y-40512938D01*
X86888943Y-40417117D01*
X87152192Y-40154327D01*
X87294838Y-39810799D01*
X87295162Y-39438833D01*
X87153117Y-39095057D01*
X86890327Y-38831808D01*
X86546799Y-38689162D01*
X86260428Y-38688913D01*
X86380943Y-38639117D01*
X86644192Y-38376327D01*
X86786838Y-38032799D01*
X86787162Y-37660833D01*
X86645117Y-37317057D01*
X86382327Y-37053808D01*
X86199650Y-36977953D01*
X86020675Y-36858367D01*
X85964484Y-36847190D01*
X85682000Y-36790999D01*
X85681995Y-36791000D01*
X85611856Y-36791000D01*
X85436141Y-36673591D01*
X85020929Y-36591000D01*
X83347071Y-36591000D01*
X82931859Y-36673591D01*
X82663512Y-36852894D01*
X82636000Y-36858367D01*
X82348885Y-37050210D01*
X82348883Y-37050213D01*
X82211864Y-37187231D01*
X82211862Y-37187234D01*
X82128820Y-37270275D01*
X82008712Y-37319903D01*
X81745463Y-37582693D01*
X81602817Y-37926221D01*
X81602493Y-38298187D01*
X81744538Y-38641963D01*
X82007328Y-38905212D01*
X82249448Y-39005750D01*
X81809974Y-39445224D01*
X81645227Y-39691786D01*
X81587375Y-39982625D01*
X81587375Y-40782471D01*
X81555183Y-40814607D01*
X81412537Y-41158135D01*
X81412213Y-41530101D01*
X81554258Y-41873877D01*
X81587375Y-41907052D01*
X81587375Y-64339373D01*
X81645227Y-64630212D01*
X81809974Y-64876774D01*
X83068001Y-66134801D01*
X83068001Y-67815197D01*
X81590599Y-69292599D01*
X81497080Y-69432560D01*
X80753000Y-69432560D01*
X80517683Y-69476838D01*
X80301559Y-69615910D01*
X80162110Y-69820000D01*
X78330279Y-69820000D01*
X78207090Y-69628559D01*
X77994890Y-69483569D01*
X77743000Y-69432560D01*
X74993000Y-69432560D01*
X74757683Y-69476838D01*
X74541559Y-69615910D01*
X74396569Y-69828110D01*
X74377399Y-69922774D01*
X74227661Y-70022826D01*
X74200162Y-69876683D01*
X74061090Y-69660559D01*
X73848890Y-69515569D01*
X73597000Y-69464560D01*
X70847000Y-69464560D01*
X70611683Y-69508838D01*
X70395559Y-69647910D01*
X70256110Y-69852000D01*
X68424279Y-69852000D01*
X68301090Y-69660559D01*
X68088890Y-69515569D01*
X67837000Y-69464560D01*
X67092920Y-69464560D01*
X66999401Y-69324599D01*
X65521999Y-67847197D01*
X65521999Y-61377215D01*
X65545173Y-61386838D01*
X65917139Y-61387162D01*
X66038541Y-61337000D01*
X71115997Y-61337000D01*
X71116002Y-61337001D01*
X71398486Y-61280810D01*
X71454677Y-61269633D01*
X71741792Y-61077790D01*
X72137788Y-60681793D01*
X72137791Y-60681791D01*
X72329634Y-60394676D01*
X72339826Y-60343440D01*
X72840000Y-60343440D01*
X73075317Y-60299162D01*
X73291441Y-60160090D01*
X73413808Y-59981000D01*
X76956808Y-59981000D01*
X77063910Y-60147441D01*
X77276110Y-60292431D01*
X77528000Y-60343440D01*
X78428000Y-60343440D01*
X78663317Y-60299162D01*
X78819521Y-60198647D01*
X78841910Y-60233441D01*
X79054110Y-60378431D01*
X79306000Y-60429440D01*
X80206000Y-60429440D01*
X80441317Y-60385162D01*
X80657441Y-60246090D01*
X80802431Y-60033890D01*
X80853440Y-59782000D01*
X80853440Y-58582000D01*
X80809162Y-58346683D01*
X80670090Y-58130559D01*
X80600289Y-58082866D01*
X80657441Y-58046090D01*
X80802431Y-57833890D01*
X80853440Y-57582000D01*
X80853440Y-56382000D01*
X80809162Y-56146683D01*
X80670090Y-55930559D01*
X80518564Y-55827026D01*
X80631409Y-55658141D01*
X80714000Y-55242929D01*
X80714000Y-53569071D01*
X80631409Y-53153859D01*
X80396211Y-52801860D01*
X80044212Y-52566662D01*
X79629000Y-52484071D01*
X79284356Y-52552625D01*
X79284528Y-52355044D01*
X79142483Y-52011268D01*
X78939285Y-51807715D01*
X78939285Y-51626689D01*
X78969477Y-51596550D01*
X79112123Y-51253022D01*
X79112447Y-50881056D01*
X78970402Y-50537280D01*
X78707612Y-50274031D01*
X78364084Y-50131385D01*
X77992118Y-50131061D01*
X77648342Y-50273106D01*
X77385093Y-50535896D01*
X77322825Y-50685854D01*
X77268749Y-50685807D01*
X77198236Y-50714942D01*
X76985432Y-50501766D01*
X76641904Y-50359120D01*
X76269938Y-50358796D01*
X75926162Y-50500841D01*
X75721687Y-50704959D01*
X70612000Y-50704959D01*
X70612000Y-39838000D01*
X70553996Y-39546395D01*
X70481035Y-39437201D01*
X70388816Y-39299185D01*
X68226815Y-37137185D01*
X68212575Y-37127670D01*
X67979605Y-36972004D01*
X67807505Y-36937771D01*
X67788140Y-36908789D01*
X67436141Y-36673591D01*
X67020929Y-36591000D01*
X65347071Y-36591000D01*
X64931859Y-36673591D01*
X64579860Y-36908789D01*
X64344662Y-37260788D01*
X64262071Y-37676000D01*
X64344662Y-38091212D01*
X64491520Y-38311000D01*
X64344662Y-38530788D01*
X64262071Y-38946000D01*
X64344662Y-39361212D01*
X64491520Y-39581000D01*
X64344662Y-39800788D01*
X64262071Y-40216000D01*
X64269890Y-40255308D01*
X53564599Y-50960599D01*
X53399852Y-51207161D01*
X53342000Y-51498000D01*
X52247000Y-51498000D01*
X52247000Y-31922266D01*
X53206405Y-31922266D01*
X53728250Y-33185229D01*
X54693688Y-34152354D01*
X55955739Y-34676403D01*
X57322266Y-34677595D01*
X58585229Y-34155750D01*
X59552354Y-33190312D01*
X60076403Y-31928261D01*
X60077595Y-30561734D01*
X59555750Y-29298771D01*
X58590312Y-28331646D01*
X57328261Y-27807597D01*
X55961734Y-27806405D01*
X54698771Y-28328250D01*
X53731646Y-29293688D01*
X53207597Y-30555739D01*
X53206405Y-31922266D01*
X52247000Y-31922266D01*
X52247000Y-26847000D01*
X65913000Y-26847000D01*
X65913000Y-35052000D01*
G36*
X56773000Y-72315850D02*
X56731378Y-72288039D01*
X56163093Y-72175000D01*
X56104907Y-72175000D01*
X55718999Y-72251762D01*
X55718999Y-67029440D01*
X56773000Y-67029440D01*
X56773000Y-72315850D01*
X56773000Y-72315850D01*
G37*
X56773000Y-72315850D02*
X56731378Y-72288039D01*
X56163093Y-72175000D01*
X56104907Y-72175000D01*
X55718999Y-72251762D01*
X55718999Y-67029440D01*
X56773000Y-67029440D01*
X56773000Y-72315850D01*
G36*
X102896560Y-31584000D02*
X102940838Y-31819317D01*
X103079910Y-32035441D01*
X103292110Y-32180431D01*
X103544000Y-32231440D01*
X105244000Y-32231440D01*
X105479317Y-32187162D01*
X105695441Y-32048090D01*
X105840431Y-31835890D01*
X105891440Y-31584000D01*
X105891440Y-30318999D01*
X108238197Y-30318999D01*
X108318560Y-30399362D01*
X108318560Y-31576638D01*
X106142599Y-33752599D01*
X105977852Y-33999161D01*
X105920000Y-34290000D01*
X105920000Y-36265198D01*
X100735771Y-31080969D01*
X100799000Y-30763093D01*
X100799000Y-30704907D01*
X100722238Y-30318999D01*
X102896560Y-30318999D01*
X102896560Y-31584000D01*
X102896560Y-31584000D01*
G37*
X102896560Y-31584000D02*
X102940838Y-31819317D01*
X103079910Y-32035441D01*
X103292110Y-32180431D01*
X103544000Y-32231440D01*
X105244000Y-32231440D01*
X105479317Y-32187162D01*
X105695441Y-32048090D01*
X105840431Y-31835890D01*
X105891440Y-31584000D01*
X105891440Y-30318999D01*
X108238197Y-30318999D01*
X108318560Y-30399362D01*
X108318560Y-31576638D01*
X106142599Y-33752599D01*
X105977852Y-33999161D01*
X105920000Y-34290000D01*
X105920000Y-36265198D01*
X100735771Y-31080969D01*
X100799000Y-30763093D01*
X100799000Y-30704907D01*
X100722238Y-30318999D01*
X102896560Y-30318999D01*
X102896560Y-31584000D01*
M02*
