G04 #@! TF.FileFunction,Legend,Bot*
%FSLAX46Y46*%
G04 Gerber Fmt 4.6, Leading zero omitted, Abs format (unit mm)*
G04 Created by KiCad (PCBNEW 4.0.7) date Wednesday, 04 April 2018 'PMt' 17:02:53*
%MOMM*%
%LPD*%
G01*
G04 APERTURE LIST*
%ADD10C,0.100000*%
%ADD11C,0.300000*%
%ADD12C,0.120000*%
%ADD13C,0.500000*%
%ADD14C,0.150000*%
G04 APERTURE END LIST*
D10*
D11*
X115716572Y-27118571D02*
X115430858Y-27118571D01*
X115288000Y-27190000D01*
X115145143Y-27332857D01*
X115073715Y-27618571D01*
X115073715Y-28118571D01*
X115145143Y-28404286D01*
X115288000Y-28547143D01*
X115430858Y-28618571D01*
X115716572Y-28618571D01*
X115859429Y-28547143D01*
X116002286Y-28404286D01*
X116073715Y-28118571D01*
X116073715Y-27618571D01*
X116002286Y-27332857D01*
X115859429Y-27190000D01*
X115716572Y-27118571D01*
X113716571Y-28618571D02*
X114430857Y-28618571D01*
X114430857Y-27118571D01*
X113216571Y-27832857D02*
X112716571Y-27832857D01*
X112502285Y-28618571D02*
X113216571Y-28618571D01*
X113216571Y-27118571D01*
X112502285Y-27118571D01*
X111859428Y-28618571D02*
X111859428Y-27118571D01*
X111502285Y-27118571D01*
X111288000Y-27190000D01*
X111145142Y-27332857D01*
X111073714Y-27475714D01*
X111002285Y-27761429D01*
X111002285Y-27975714D01*
X111073714Y-28261429D01*
X111145142Y-28404286D01*
X111288000Y-28547143D01*
X111502285Y-28618571D01*
X111859428Y-28618571D01*
X114934857Y-37858000D02*
X115077714Y-37786571D01*
X115292000Y-37786571D01*
X115506285Y-37858000D01*
X115649143Y-38000857D01*
X115720571Y-38143714D01*
X115792000Y-38429429D01*
X115792000Y-38643714D01*
X115720571Y-38929429D01*
X115649143Y-39072286D01*
X115506285Y-39215143D01*
X115292000Y-39286571D01*
X115149143Y-39286571D01*
X114934857Y-39215143D01*
X114863428Y-39143714D01*
X114863428Y-38643714D01*
X115149143Y-38643714D01*
X114220571Y-39286571D02*
X114220571Y-37786571D01*
X113363428Y-39286571D01*
X113363428Y-37786571D01*
X112649142Y-39286571D02*
X112649142Y-37786571D01*
X112291999Y-37786571D01*
X112077714Y-37858000D01*
X111934856Y-38000857D01*
X111863428Y-38143714D01*
X111791999Y-38429429D01*
X111791999Y-38643714D01*
X111863428Y-38929429D01*
X111934856Y-39072286D01*
X112077714Y-39215143D01*
X112291999Y-39286571D01*
X112649142Y-39286571D01*
X116260285Y-35246571D02*
X115331714Y-35246571D01*
X115831714Y-35818000D01*
X115617428Y-35818000D01*
X115474571Y-35889429D01*
X115403142Y-35960857D01*
X115331714Y-36103714D01*
X115331714Y-36460857D01*
X115403142Y-36603714D01*
X115474571Y-36675143D01*
X115617428Y-36746571D01*
X116046000Y-36746571D01*
X116188857Y-36675143D01*
X116260285Y-36603714D01*
X114688857Y-36603714D02*
X114617429Y-36675143D01*
X114688857Y-36746571D01*
X114760286Y-36675143D01*
X114688857Y-36603714D01*
X114688857Y-36746571D01*
X114117428Y-35246571D02*
X113188857Y-35246571D01*
X113688857Y-35818000D01*
X113474571Y-35818000D01*
X113331714Y-35889429D01*
X113260285Y-35960857D01*
X113188857Y-36103714D01*
X113188857Y-36460857D01*
X113260285Y-36603714D01*
X113331714Y-36675143D01*
X113474571Y-36746571D01*
X113903143Y-36746571D01*
X114046000Y-36675143D01*
X114117428Y-36603714D01*
X112760286Y-35246571D02*
X112260286Y-36746571D01*
X111760286Y-35246571D01*
X115577714Y-34135143D02*
X115363428Y-34206571D01*
X115006285Y-34206571D01*
X114863428Y-34135143D01*
X114791999Y-34063714D01*
X114720571Y-33920857D01*
X114720571Y-33778000D01*
X114791999Y-33635143D01*
X114863428Y-33563714D01*
X115006285Y-33492286D01*
X115291999Y-33420857D01*
X115434857Y-33349429D01*
X115506285Y-33278000D01*
X115577714Y-33135143D01*
X115577714Y-32992286D01*
X115506285Y-32849429D01*
X115434857Y-32778000D01*
X115291999Y-32706571D01*
X114934857Y-32706571D01*
X114720571Y-32778000D01*
X113220571Y-34063714D02*
X113292000Y-34135143D01*
X113506286Y-34206571D01*
X113649143Y-34206571D01*
X113863428Y-34135143D01*
X114006286Y-33992286D01*
X114077714Y-33849429D01*
X114149143Y-33563714D01*
X114149143Y-33349429D01*
X114077714Y-33063714D01*
X114006286Y-32920857D01*
X113863428Y-32778000D01*
X113649143Y-32706571D01*
X113506286Y-32706571D01*
X113292000Y-32778000D01*
X113220571Y-32849429D01*
X111863428Y-34206571D02*
X112577714Y-34206571D01*
X112577714Y-32706571D01*
X115867428Y-31595143D02*
X115653142Y-31666571D01*
X115295999Y-31666571D01*
X115153142Y-31595143D01*
X115081713Y-31523714D01*
X115010285Y-31380857D01*
X115010285Y-31238000D01*
X115081713Y-31095143D01*
X115153142Y-31023714D01*
X115295999Y-30952286D01*
X115581713Y-30880857D01*
X115724571Y-30809429D01*
X115795999Y-30738000D01*
X115867428Y-30595143D01*
X115867428Y-30452286D01*
X115795999Y-30309429D01*
X115724571Y-30238000D01*
X115581713Y-30166571D01*
X115224571Y-30166571D01*
X115010285Y-30238000D01*
X114367428Y-31666571D02*
X114367428Y-30166571D01*
X114010285Y-30166571D01*
X113796000Y-30238000D01*
X113653142Y-30380857D01*
X113581714Y-30523714D01*
X113510285Y-30809429D01*
X113510285Y-31023714D01*
X113581714Y-31309429D01*
X113653142Y-31452286D01*
X113796000Y-31595143D01*
X114010285Y-31666571D01*
X114367428Y-31666571D01*
X112938857Y-31238000D02*
X112224571Y-31238000D01*
X113081714Y-31666571D02*
X112581714Y-30166571D01*
X112081714Y-31666571D01*
X94841143Y-33012286D02*
X94912571Y-33226572D01*
X94912571Y-33583715D01*
X94841143Y-33726572D01*
X94769714Y-33798001D01*
X94626857Y-33869429D01*
X94484000Y-33869429D01*
X94341143Y-33798001D01*
X94269714Y-33726572D01*
X94198286Y-33583715D01*
X94126857Y-33298001D01*
X94055429Y-33155143D01*
X93984000Y-33083715D01*
X93841143Y-33012286D01*
X93698286Y-33012286D01*
X93555429Y-33083715D01*
X93484000Y-33155143D01*
X93412571Y-33298001D01*
X93412571Y-33655143D01*
X93484000Y-33869429D01*
X94769714Y-35369429D02*
X94841143Y-35298000D01*
X94912571Y-35083714D01*
X94912571Y-34940857D01*
X94841143Y-34726572D01*
X94698286Y-34583714D01*
X94555429Y-34512286D01*
X94269714Y-34440857D01*
X94055429Y-34440857D01*
X93769714Y-34512286D01*
X93626857Y-34583714D01*
X93484000Y-34726572D01*
X93412571Y-34940857D01*
X93412571Y-35083714D01*
X93484000Y-35298000D01*
X93555429Y-35369429D01*
X94912571Y-36726572D02*
X94912571Y-36012286D01*
X93412571Y-36012286D01*
X97381143Y-32976572D02*
X97452571Y-33190858D01*
X97452571Y-33548001D01*
X97381143Y-33690858D01*
X97309714Y-33762287D01*
X97166857Y-33833715D01*
X97024000Y-33833715D01*
X96881143Y-33762287D01*
X96809714Y-33690858D01*
X96738286Y-33548001D01*
X96666857Y-33262287D01*
X96595429Y-33119429D01*
X96524000Y-33048001D01*
X96381143Y-32976572D01*
X96238286Y-32976572D01*
X96095429Y-33048001D01*
X96024000Y-33119429D01*
X95952571Y-33262287D01*
X95952571Y-33619429D01*
X96024000Y-33833715D01*
X97452571Y-34476572D02*
X95952571Y-34476572D01*
X95952571Y-34833715D01*
X96024000Y-35048000D01*
X96166857Y-35190858D01*
X96309714Y-35262286D01*
X96595429Y-35333715D01*
X96809714Y-35333715D01*
X97095429Y-35262286D01*
X97238286Y-35190858D01*
X97381143Y-35048000D01*
X97452571Y-34833715D01*
X97452571Y-34476572D01*
X97024000Y-35905143D02*
X97024000Y-36619429D01*
X97452571Y-35762286D02*
X95952571Y-36262286D01*
X97452571Y-36762286D01*
X99992571Y-32932857D02*
X98492571Y-32932857D01*
X99992571Y-33647143D02*
X98492571Y-33647143D01*
X99992571Y-34504286D01*
X98492571Y-34504286D01*
X98492571Y-35004286D02*
X98492571Y-35861429D01*
X99992571Y-35432858D02*
X98492571Y-35432858D01*
X101104000Y-33655143D02*
X101032571Y-33512286D01*
X101032571Y-33298000D01*
X101104000Y-33083715D01*
X101246857Y-32940857D01*
X101389714Y-32869429D01*
X101675429Y-32798000D01*
X101889714Y-32798000D01*
X102175429Y-32869429D01*
X102318286Y-32940857D01*
X102461143Y-33083715D01*
X102532571Y-33298000D01*
X102532571Y-33440857D01*
X102461143Y-33655143D01*
X102389714Y-33726572D01*
X101889714Y-33726572D01*
X101889714Y-33440857D01*
X102532571Y-34369429D02*
X101032571Y-34369429D01*
X102532571Y-35226572D01*
X101032571Y-35226572D01*
X102532571Y-35940858D02*
X101032571Y-35940858D01*
X101032571Y-36298001D01*
X101104000Y-36512286D01*
X101246857Y-36655144D01*
X101389714Y-36726572D01*
X101675429Y-36798001D01*
X101889714Y-36798001D01*
X102175429Y-36726572D01*
X102318286Y-36655144D01*
X102461143Y-36512286D01*
X102532571Y-36298001D01*
X102532571Y-35940858D01*
X103572571Y-32583715D02*
X103572571Y-33512286D01*
X104144000Y-33012286D01*
X104144000Y-33226572D01*
X104215429Y-33369429D01*
X104286857Y-33440858D01*
X104429714Y-33512286D01*
X104786857Y-33512286D01*
X104929714Y-33440858D01*
X105001143Y-33369429D01*
X105072571Y-33226572D01*
X105072571Y-32798000D01*
X105001143Y-32655143D01*
X104929714Y-32583715D01*
X104929714Y-34155143D02*
X105001143Y-34226571D01*
X105072571Y-34155143D01*
X105001143Y-34083714D01*
X104929714Y-34155143D01*
X105072571Y-34155143D01*
X103572571Y-34726572D02*
X103572571Y-35655143D01*
X104144000Y-35155143D01*
X104144000Y-35369429D01*
X104215429Y-35512286D01*
X104286857Y-35583715D01*
X104429714Y-35655143D01*
X104786857Y-35655143D01*
X104929714Y-35583715D01*
X105001143Y-35512286D01*
X105072571Y-35369429D01*
X105072571Y-34940857D01*
X105001143Y-34798000D01*
X104929714Y-34726572D01*
X103572571Y-36083714D02*
X105072571Y-36583714D01*
X103572571Y-37083714D01*
X105417142Y-28190000D02*
X104702856Y-28190000D01*
X105559999Y-28618571D02*
X105059999Y-27118571D01*
X104559999Y-28618571D01*
X104059999Y-28618571D02*
X104059999Y-27118571D01*
X103488571Y-27118571D01*
X103345713Y-27190000D01*
X103274285Y-27261429D01*
X103202856Y-27404286D01*
X103202856Y-27618571D01*
X103274285Y-27761429D01*
X103345713Y-27832857D01*
X103488571Y-27904286D01*
X104059999Y-27904286D01*
X102559999Y-28618571D02*
X102559999Y-27118571D01*
X102202856Y-27118571D01*
X101988571Y-27190000D01*
X101845713Y-27332857D01*
X101774285Y-27475714D01*
X101702856Y-27761429D01*
X101702856Y-27975714D01*
X101774285Y-28261429D01*
X101845713Y-28404286D01*
X101988571Y-28547143D01*
X102202856Y-28618571D01*
X102559999Y-28618571D01*
X101131428Y-28547143D02*
X100917142Y-28618571D01*
X100559999Y-28618571D01*
X100417142Y-28547143D01*
X100345713Y-28475714D01*
X100274285Y-28332857D01*
X100274285Y-28190000D01*
X100345713Y-28047143D01*
X100417142Y-27975714D01*
X100559999Y-27904286D01*
X100845713Y-27832857D01*
X100988571Y-27761429D01*
X101059999Y-27690000D01*
X101131428Y-27547143D01*
X101131428Y-27404286D01*
X101059999Y-27261429D01*
X100988571Y-27190000D01*
X100845713Y-27118571D01*
X100488571Y-27118571D01*
X100274285Y-27190000D01*
X99631428Y-28047143D02*
X98488571Y-28047143D01*
X97702857Y-28618571D02*
X97417142Y-28618571D01*
X97274285Y-28547143D01*
X97202857Y-28475714D01*
X97059999Y-28261429D01*
X96988571Y-27975714D01*
X96988571Y-27404286D01*
X97059999Y-27261429D01*
X97131428Y-27190000D01*
X97274285Y-27118571D01*
X97559999Y-27118571D01*
X97702857Y-27190000D01*
X97774285Y-27261429D01*
X97845714Y-27404286D01*
X97845714Y-27761429D01*
X97774285Y-27904286D01*
X97702857Y-27975714D01*
X97559999Y-28047143D01*
X97274285Y-28047143D01*
X97131428Y-27975714D01*
X97059999Y-27904286D01*
X96988571Y-27761429D01*
X96274286Y-28618571D02*
X95988571Y-28618571D01*
X95845714Y-28547143D01*
X95774286Y-28475714D01*
X95631428Y-28261429D01*
X95560000Y-27975714D01*
X95560000Y-27404286D01*
X95631428Y-27261429D01*
X95702857Y-27190000D01*
X95845714Y-27118571D01*
X96131428Y-27118571D01*
X96274286Y-27190000D01*
X96345714Y-27261429D01*
X96417143Y-27404286D01*
X96417143Y-27761429D01*
X96345714Y-27904286D01*
X96274286Y-27975714D01*
X96131428Y-28047143D01*
X95845714Y-28047143D01*
X95702857Y-27975714D01*
X95631428Y-27904286D01*
X95560000Y-27761429D01*
X94274286Y-27118571D02*
X94560000Y-27118571D01*
X94702857Y-27190000D01*
X94774286Y-27261429D01*
X94917143Y-27475714D01*
X94988572Y-27761429D01*
X94988572Y-28332857D01*
X94917143Y-28475714D01*
X94845715Y-28547143D01*
X94702857Y-28618571D01*
X94417143Y-28618571D01*
X94274286Y-28547143D01*
X94202857Y-28475714D01*
X94131429Y-28332857D01*
X94131429Y-27975714D01*
X94202857Y-27832857D01*
X94274286Y-27761429D01*
X94417143Y-27690000D01*
X94702857Y-27690000D01*
X94845715Y-27761429D01*
X94917143Y-27832857D01*
X94988572Y-27975714D01*
X93202858Y-27118571D02*
X93060001Y-27118571D01*
X92917144Y-27190000D01*
X92845715Y-27261429D01*
X92774286Y-27404286D01*
X92702858Y-27690000D01*
X92702858Y-28047143D01*
X92774286Y-28332857D01*
X92845715Y-28475714D01*
X92917144Y-28547143D01*
X93060001Y-28618571D01*
X93202858Y-28618571D01*
X93345715Y-28547143D01*
X93417144Y-28475714D01*
X93488572Y-28332857D01*
X93560001Y-28047143D01*
X93560001Y-27690000D01*
X93488572Y-27404286D01*
X93417144Y-27261429D01*
X93345715Y-27190000D01*
X93202858Y-27118571D01*
X63174285Y-64710571D02*
X62245714Y-64710571D01*
X62745714Y-65282000D01*
X62531428Y-65282000D01*
X62388571Y-65353429D01*
X62317142Y-65424857D01*
X62245714Y-65567714D01*
X62245714Y-65924857D01*
X62317142Y-66067714D01*
X62388571Y-66139143D01*
X62531428Y-66210571D01*
X62960000Y-66210571D01*
X63102857Y-66139143D01*
X63174285Y-66067714D01*
X61602857Y-66067714D02*
X61531429Y-66139143D01*
X61602857Y-66210571D01*
X61674286Y-66139143D01*
X61602857Y-66067714D01*
X61602857Y-66210571D01*
X61031428Y-64710571D02*
X60102857Y-64710571D01*
X60602857Y-65282000D01*
X60388571Y-65282000D01*
X60245714Y-65353429D01*
X60174285Y-65424857D01*
X60102857Y-65567714D01*
X60102857Y-65924857D01*
X60174285Y-66067714D01*
X60245714Y-66139143D01*
X60388571Y-66210571D01*
X60817143Y-66210571D01*
X60960000Y-66139143D01*
X61031428Y-66067714D01*
X59674286Y-64710571D02*
X59174286Y-66210571D01*
X58674286Y-64710571D01*
X63209999Y-63670571D02*
X63209999Y-62170571D01*
X62852856Y-62170571D01*
X62638571Y-62242000D01*
X62495713Y-62384857D01*
X62424285Y-62527714D01*
X62352856Y-62813429D01*
X62352856Y-63027714D01*
X62424285Y-63313429D01*
X62495713Y-63456286D01*
X62638571Y-63599143D01*
X62852856Y-63670571D01*
X63209999Y-63670571D01*
X61781428Y-63242000D02*
X61067142Y-63242000D01*
X61924285Y-63670571D02*
X61424285Y-62170571D01*
X60924285Y-63670571D01*
X60638571Y-62170571D02*
X59781428Y-62170571D01*
X60209999Y-63670571D02*
X60209999Y-62170571D01*
X59352857Y-63242000D02*
X58638571Y-63242000D01*
X59495714Y-63670571D02*
X58995714Y-62170571D01*
X58495714Y-63670571D01*
X61848857Y-59702000D02*
X61991714Y-59630571D01*
X62206000Y-59630571D01*
X62420285Y-59702000D01*
X62563143Y-59844857D01*
X62634571Y-59987714D01*
X62706000Y-60273429D01*
X62706000Y-60487714D01*
X62634571Y-60773429D01*
X62563143Y-60916286D01*
X62420285Y-61059143D01*
X62206000Y-61130571D01*
X62063143Y-61130571D01*
X61848857Y-61059143D01*
X61777428Y-60987714D01*
X61777428Y-60487714D01*
X62063143Y-60487714D01*
X61134571Y-61130571D02*
X61134571Y-59630571D01*
X60277428Y-61130571D01*
X60277428Y-59630571D01*
X59563142Y-61130571D02*
X59563142Y-59630571D01*
X59205999Y-59630571D01*
X58991714Y-59702000D01*
X58848856Y-59844857D01*
X58777428Y-59987714D01*
X58705999Y-60273429D01*
X58705999Y-60487714D01*
X58777428Y-60773429D01*
X58848856Y-60916286D01*
X58991714Y-61059143D01*
X59205999Y-61130571D01*
X59563142Y-61130571D01*
X56812571Y-55169715D02*
X56812571Y-54455429D01*
X55312571Y-54455429D01*
X56026857Y-55669715D02*
X56026857Y-56169715D01*
X56812571Y-56384001D02*
X56812571Y-55669715D01*
X55312571Y-55669715D01*
X55312571Y-56384001D01*
X56812571Y-57026858D02*
X55312571Y-57026858D01*
X55312571Y-57384001D01*
X55384000Y-57598286D01*
X55526857Y-57741144D01*
X55669714Y-57812572D01*
X55955429Y-57884001D01*
X56169714Y-57884001D01*
X56455429Y-57812572D01*
X56598286Y-57741144D01*
X56741143Y-57598286D01*
X56812571Y-57384001D01*
X56812571Y-57026858D01*
X61912285Y-84752571D02*
X61912285Y-83252571D01*
X61555142Y-83252571D01*
X61340857Y-83324000D01*
X61197999Y-83466857D01*
X61126571Y-83609714D01*
X61055142Y-83895429D01*
X61055142Y-84109714D01*
X61126571Y-84395429D01*
X61197999Y-84538286D01*
X61340857Y-84681143D01*
X61555142Y-84752571D01*
X61912285Y-84752571D01*
X60626571Y-83252571D02*
X59769428Y-83252571D01*
X60197999Y-84752571D02*
X60197999Y-83252571D01*
X58412285Y-84752571D02*
X58912285Y-84038286D01*
X59269428Y-84752571D02*
X59269428Y-83252571D01*
X58698000Y-83252571D01*
X58555142Y-83324000D01*
X58483714Y-83395429D01*
X58412285Y-83538286D01*
X58412285Y-83752571D01*
X58483714Y-83895429D01*
X58555142Y-83966857D01*
X58698000Y-84038286D01*
X59269428Y-84038286D01*
X63638571Y-80458571D02*
X62781428Y-80458571D01*
X63209999Y-81958571D02*
X63209999Y-80458571D01*
X62424285Y-80458571D02*
X61424285Y-81958571D01*
X61424285Y-80458571D02*
X62424285Y-81958571D01*
X60852857Y-81958571D02*
X60852857Y-80458571D01*
X60495714Y-80458571D01*
X60281429Y-80530000D01*
X60138571Y-80672857D01*
X60067143Y-80815714D01*
X59995714Y-81101429D01*
X59995714Y-81315714D01*
X60067143Y-81601429D01*
X60138571Y-81744286D01*
X60281429Y-81887143D01*
X60495714Y-81958571D01*
X60852857Y-81958571D01*
X59067143Y-80458571D02*
X58781429Y-80458571D01*
X58638571Y-80530000D01*
X58495714Y-80672857D01*
X58424286Y-80958571D01*
X58424286Y-81458571D01*
X58495714Y-81744286D01*
X58638571Y-81887143D01*
X58781429Y-81958571D01*
X59067143Y-81958571D01*
X59210000Y-81887143D01*
X59352857Y-81744286D01*
X59424286Y-81458571D01*
X59424286Y-80958571D01*
X59352857Y-80672857D01*
X59210000Y-80530000D01*
X59067143Y-80458571D01*
X62317142Y-79418571D02*
X62817142Y-78704286D01*
X63174285Y-79418571D02*
X63174285Y-77918571D01*
X62602857Y-77918571D01*
X62459999Y-77990000D01*
X62388571Y-78061429D01*
X62317142Y-78204286D01*
X62317142Y-78418571D01*
X62388571Y-78561429D01*
X62459999Y-78632857D01*
X62602857Y-78704286D01*
X63174285Y-78704286D01*
X61817142Y-77918571D02*
X60817142Y-79418571D01*
X60817142Y-77918571D02*
X61817142Y-79418571D01*
X60245714Y-79418571D02*
X60245714Y-77918571D01*
X59888571Y-77918571D01*
X59674286Y-77990000D01*
X59531428Y-78132857D01*
X59460000Y-78275714D01*
X59388571Y-78561429D01*
X59388571Y-78775714D01*
X59460000Y-79061429D01*
X59531428Y-79204286D01*
X59674286Y-79347143D01*
X59888571Y-79418571D01*
X60245714Y-79418571D01*
X58745714Y-79418571D02*
X58745714Y-77918571D01*
X63174285Y-75378571D02*
X62245714Y-75378571D01*
X62745714Y-75950000D01*
X62531428Y-75950000D01*
X62388571Y-76021429D01*
X62317142Y-76092857D01*
X62245714Y-76235714D01*
X62245714Y-76592857D01*
X62317142Y-76735714D01*
X62388571Y-76807143D01*
X62531428Y-76878571D01*
X62960000Y-76878571D01*
X63102857Y-76807143D01*
X63174285Y-76735714D01*
X61602857Y-76735714D02*
X61531429Y-76807143D01*
X61602857Y-76878571D01*
X61674286Y-76807143D01*
X61602857Y-76735714D01*
X61602857Y-76878571D01*
X61031428Y-75378571D02*
X60102857Y-75378571D01*
X60602857Y-75950000D01*
X60388571Y-75950000D01*
X60245714Y-76021429D01*
X60174285Y-76092857D01*
X60102857Y-76235714D01*
X60102857Y-76592857D01*
X60174285Y-76735714D01*
X60245714Y-76807143D01*
X60388571Y-76878571D01*
X60817143Y-76878571D01*
X60960000Y-76807143D01*
X61031428Y-76735714D01*
X59674286Y-75378571D02*
X59174286Y-76878571D01*
X58674286Y-75378571D01*
X61848857Y-70370000D02*
X61991714Y-70298571D01*
X62206000Y-70298571D01*
X62420285Y-70370000D01*
X62563143Y-70512857D01*
X62634571Y-70655714D01*
X62706000Y-70941429D01*
X62706000Y-71155714D01*
X62634571Y-71441429D01*
X62563143Y-71584286D01*
X62420285Y-71727143D01*
X62206000Y-71798571D01*
X62063143Y-71798571D01*
X61848857Y-71727143D01*
X61777428Y-71655714D01*
X61777428Y-71155714D01*
X62063143Y-71155714D01*
X61134571Y-71798571D02*
X61134571Y-70298571D01*
X60277428Y-71798571D01*
X60277428Y-70298571D01*
X59563142Y-71798571D02*
X59563142Y-70298571D01*
X59205999Y-70298571D01*
X58991714Y-70370000D01*
X58848856Y-70512857D01*
X58777428Y-70655714D01*
X58705999Y-70941429D01*
X58705999Y-71155714D01*
X58777428Y-71441429D01*
X58848856Y-71584286D01*
X58991714Y-71727143D01*
X59205999Y-71798571D01*
X59563142Y-71798571D01*
X72020571Y-64432571D02*
X72020571Y-62932571D01*
X71449143Y-62932571D01*
X71306285Y-63004000D01*
X71234857Y-63075429D01*
X71163428Y-63218286D01*
X71163428Y-63432571D01*
X71234857Y-63575429D01*
X71306285Y-63646857D01*
X71449143Y-63718286D01*
X72020571Y-63718286D01*
X69663428Y-64432571D02*
X70163428Y-63718286D01*
X70520571Y-64432571D02*
X70520571Y-62932571D01*
X69949143Y-62932571D01*
X69806285Y-63004000D01*
X69734857Y-63075429D01*
X69663428Y-63218286D01*
X69663428Y-63432571D01*
X69734857Y-63575429D01*
X69806285Y-63646857D01*
X69949143Y-63718286D01*
X70520571Y-63718286D01*
X68734857Y-62932571D02*
X68449143Y-62932571D01*
X68306285Y-63004000D01*
X68163428Y-63146857D01*
X68092000Y-63432571D01*
X68092000Y-63932571D01*
X68163428Y-64218286D01*
X68306285Y-64361143D01*
X68449143Y-64432571D01*
X68734857Y-64432571D01*
X68877714Y-64361143D01*
X69020571Y-64218286D01*
X69092000Y-63932571D01*
X69092000Y-63432571D01*
X69020571Y-63146857D01*
X68877714Y-63004000D01*
X68734857Y-62932571D01*
X66663428Y-63004000D02*
X66806285Y-62932571D01*
X67020571Y-62932571D01*
X67234856Y-63004000D01*
X67377714Y-63146857D01*
X67449142Y-63289714D01*
X67520571Y-63575429D01*
X67520571Y-63789714D01*
X67449142Y-64075429D01*
X67377714Y-64218286D01*
X67234856Y-64361143D01*
X67020571Y-64432571D01*
X66877714Y-64432571D01*
X66663428Y-64361143D01*
X66591999Y-64289714D01*
X66591999Y-63789714D01*
X66877714Y-63789714D01*
X81426571Y-64432571D02*
X81926571Y-63718286D01*
X82283714Y-64432571D02*
X82283714Y-62932571D01*
X81712286Y-62932571D01*
X81569428Y-63004000D01*
X81498000Y-63075429D01*
X81426571Y-63218286D01*
X81426571Y-63432571D01*
X81498000Y-63575429D01*
X81569428Y-63646857D01*
X81712286Y-63718286D01*
X82283714Y-63718286D01*
X80783714Y-63646857D02*
X80283714Y-63646857D01*
X80069428Y-64432571D02*
X80783714Y-64432571D01*
X80783714Y-62932571D01*
X80069428Y-62932571D01*
X79498000Y-64361143D02*
X79283714Y-64432571D01*
X78926571Y-64432571D01*
X78783714Y-64361143D01*
X78712285Y-64289714D01*
X78640857Y-64146857D01*
X78640857Y-64004000D01*
X78712285Y-63861143D01*
X78783714Y-63789714D01*
X78926571Y-63718286D01*
X79212285Y-63646857D01*
X79355143Y-63575429D01*
X79426571Y-63504000D01*
X79498000Y-63361143D01*
X79498000Y-63218286D01*
X79426571Y-63075429D01*
X79355143Y-63004000D01*
X79212285Y-62932571D01*
X78855143Y-62932571D01*
X78640857Y-63004000D01*
X77998000Y-63646857D02*
X77498000Y-63646857D01*
X77283714Y-64432571D02*
X77998000Y-64432571D01*
X77998000Y-62932571D01*
X77283714Y-62932571D01*
X76855143Y-62932571D02*
X75998000Y-62932571D01*
X76426571Y-64432571D02*
X76426571Y-62932571D01*
X65194571Y-113633429D02*
X65194571Y-112919143D01*
X63694571Y-112919143D01*
X65194571Y-114133429D02*
X63694571Y-114133429D01*
X65194571Y-114847715D02*
X63694571Y-114847715D01*
X63694571Y-115419143D01*
X63766000Y-115562001D01*
X63837429Y-115633429D01*
X63980286Y-115704858D01*
X64194571Y-115704858D01*
X64337429Y-115633429D01*
X64408857Y-115562001D01*
X64480286Y-115419143D01*
X64480286Y-114847715D01*
X63694571Y-116633429D02*
X63694571Y-116919143D01*
X63766000Y-117062001D01*
X63908857Y-117204858D01*
X64194571Y-117276286D01*
X64694571Y-117276286D01*
X64980286Y-117204858D01*
X65123143Y-117062001D01*
X65194571Y-116919143D01*
X65194571Y-116633429D01*
X65123143Y-116490572D01*
X64980286Y-116347715D01*
X64694571Y-116276286D01*
X64194571Y-116276286D01*
X63908857Y-116347715D01*
X63766000Y-116490572D01*
X63694571Y-116633429D01*
X115442857Y-119900000D02*
X115585714Y-119828571D01*
X115800000Y-119828571D01*
X116014285Y-119900000D01*
X116157143Y-120042857D01*
X116228571Y-120185714D01*
X116300000Y-120471429D01*
X116300000Y-120685714D01*
X116228571Y-120971429D01*
X116157143Y-121114286D01*
X116014285Y-121257143D01*
X115800000Y-121328571D01*
X115657143Y-121328571D01*
X115442857Y-121257143D01*
X115371428Y-121185714D01*
X115371428Y-120685714D01*
X115657143Y-120685714D01*
X114728571Y-121328571D02*
X114728571Y-119828571D01*
X113871428Y-121328571D01*
X113871428Y-119828571D01*
X113157142Y-121328571D02*
X113157142Y-119828571D01*
X112799999Y-119828571D01*
X112585714Y-119900000D01*
X112442856Y-120042857D01*
X112371428Y-120185714D01*
X112299999Y-120471429D01*
X112299999Y-120685714D01*
X112371428Y-120971429D01*
X112442856Y-121114286D01*
X112585714Y-121257143D01*
X112799999Y-121328571D01*
X113157142Y-121328571D01*
X116260285Y-117288571D02*
X115331714Y-117288571D01*
X115831714Y-117860000D01*
X115617428Y-117860000D01*
X115474571Y-117931429D01*
X115403142Y-118002857D01*
X115331714Y-118145714D01*
X115331714Y-118502857D01*
X115403142Y-118645714D01*
X115474571Y-118717143D01*
X115617428Y-118788571D01*
X116046000Y-118788571D01*
X116188857Y-118717143D01*
X116260285Y-118645714D01*
X114688857Y-118645714D02*
X114617429Y-118717143D01*
X114688857Y-118788571D01*
X114760286Y-118717143D01*
X114688857Y-118645714D01*
X114688857Y-118788571D01*
X114117428Y-117288571D02*
X113188857Y-117288571D01*
X113688857Y-117860000D01*
X113474571Y-117860000D01*
X113331714Y-117931429D01*
X113260285Y-118002857D01*
X113188857Y-118145714D01*
X113188857Y-118502857D01*
X113260285Y-118645714D01*
X113331714Y-118717143D01*
X113474571Y-118788571D01*
X113903143Y-118788571D01*
X114046000Y-118717143D01*
X114117428Y-118645714D01*
X112760286Y-117288571D02*
X112260286Y-118788571D01*
X111760286Y-117288571D01*
X122967714Y-116248571D02*
X123824857Y-116248571D01*
X123396285Y-116248571D02*
X123396285Y-114748571D01*
X123539142Y-114962857D01*
X123682000Y-115105714D01*
X123824857Y-115177143D01*
X121682000Y-115248571D02*
X121682000Y-116248571D01*
X122039143Y-114677143D02*
X122396286Y-115748571D01*
X121467714Y-115748571D01*
X122967714Y-113708571D02*
X123824857Y-113708571D01*
X123396285Y-113708571D02*
X123396285Y-112208571D01*
X123539142Y-112422857D01*
X123682000Y-112565714D01*
X123824857Y-112637143D01*
X122396286Y-112351429D02*
X122324857Y-112280000D01*
X122182000Y-112208571D01*
X121824857Y-112208571D01*
X121682000Y-112280000D01*
X121610571Y-112351429D01*
X121539143Y-112494286D01*
X121539143Y-112637143D01*
X121610571Y-112851429D01*
X122467714Y-113708571D01*
X121539143Y-113708571D01*
X131444857Y-114891429D02*
X131373428Y-114820000D01*
X131230571Y-114748571D01*
X130873428Y-114748571D01*
X130730571Y-114820000D01*
X130659142Y-114891429D01*
X130587714Y-115034286D01*
X130587714Y-115177143D01*
X130659142Y-115391429D01*
X131516285Y-116248571D01*
X130587714Y-116248571D01*
X130087714Y-114748571D02*
X129087714Y-114748571D01*
X129730571Y-116248571D01*
X131444857Y-112351429D02*
X131373428Y-112280000D01*
X131230571Y-112208571D01*
X130873428Y-112208571D01*
X130730571Y-112280000D01*
X130659142Y-112351429D01*
X130587714Y-112494286D01*
X130587714Y-112637143D01*
X130659142Y-112851429D01*
X131516285Y-113708571D01*
X130587714Y-113708571D01*
X129302000Y-112208571D02*
X129587714Y-112208571D01*
X129730571Y-112280000D01*
X129802000Y-112351429D01*
X129944857Y-112565714D01*
X130016286Y-112851429D01*
X130016286Y-113422857D01*
X129944857Y-113565714D01*
X129873429Y-113637143D01*
X129730571Y-113708571D01*
X129444857Y-113708571D01*
X129302000Y-113637143D01*
X129230571Y-113565714D01*
X129159143Y-113422857D01*
X129159143Y-113065714D01*
X129230571Y-112922857D01*
X129302000Y-112851429D01*
X129444857Y-112780000D01*
X129730571Y-112780000D01*
X129873429Y-112851429D01*
X129944857Y-112922857D01*
X130016286Y-113065714D01*
X138207714Y-116248571D02*
X139064857Y-116248571D01*
X138636285Y-116248571D02*
X138636285Y-114748571D01*
X138779142Y-114962857D01*
X138922000Y-115105714D01*
X139064857Y-115177143D01*
X137493429Y-116248571D02*
X137207714Y-116248571D01*
X137064857Y-116177143D01*
X136993429Y-116105714D01*
X136850571Y-115891429D01*
X136779143Y-115605714D01*
X136779143Y-115034286D01*
X136850571Y-114891429D01*
X136922000Y-114820000D01*
X137064857Y-114748571D01*
X137350571Y-114748571D01*
X137493429Y-114820000D01*
X137564857Y-114891429D01*
X137636286Y-115034286D01*
X137636286Y-115391429D01*
X137564857Y-115534286D01*
X137493429Y-115605714D01*
X137350571Y-115677143D01*
X137064857Y-115677143D01*
X136922000Y-115605714D01*
X136850571Y-115534286D01*
X136779143Y-115391429D01*
X138207714Y-113708571D02*
X139064857Y-113708571D01*
X138636285Y-113708571D02*
X138636285Y-112208571D01*
X138779142Y-112422857D01*
X138922000Y-112565714D01*
X139064857Y-112637143D01*
X137350571Y-112851429D02*
X137493429Y-112780000D01*
X137564857Y-112708571D01*
X137636286Y-112565714D01*
X137636286Y-112494286D01*
X137564857Y-112351429D01*
X137493429Y-112280000D01*
X137350571Y-112208571D01*
X137064857Y-112208571D01*
X136922000Y-112280000D01*
X136850571Y-112351429D01*
X136779143Y-112494286D01*
X136779143Y-112565714D01*
X136850571Y-112708571D01*
X136922000Y-112780000D01*
X137064857Y-112851429D01*
X137350571Y-112851429D01*
X137493429Y-112922857D01*
X137564857Y-112994286D01*
X137636286Y-113137143D01*
X137636286Y-113422857D01*
X137564857Y-113565714D01*
X137493429Y-113637143D01*
X137350571Y-113708571D01*
X137064857Y-113708571D01*
X136922000Y-113637143D01*
X136850571Y-113565714D01*
X136779143Y-113422857D01*
X136779143Y-113137143D01*
X136850571Y-112994286D01*
X136922000Y-112922857D01*
X137064857Y-112851429D01*
X146684857Y-114891429D02*
X146613428Y-114820000D01*
X146470571Y-114748571D01*
X146113428Y-114748571D01*
X145970571Y-114820000D01*
X145899142Y-114891429D01*
X145827714Y-115034286D01*
X145827714Y-115177143D01*
X145899142Y-115391429D01*
X146756285Y-116248571D01*
X145827714Y-116248571D01*
X145327714Y-114748571D02*
X144399143Y-114748571D01*
X144899143Y-115320000D01*
X144684857Y-115320000D01*
X144542000Y-115391429D01*
X144470571Y-115462857D01*
X144399143Y-115605714D01*
X144399143Y-115962857D01*
X144470571Y-116105714D01*
X144542000Y-116177143D01*
X144684857Y-116248571D01*
X145113429Y-116248571D01*
X145256286Y-116177143D01*
X145327714Y-116105714D01*
X146684857Y-112351429D02*
X146613428Y-112280000D01*
X146470571Y-112208571D01*
X146113428Y-112208571D01*
X145970571Y-112280000D01*
X145899142Y-112351429D01*
X145827714Y-112494286D01*
X145827714Y-112637143D01*
X145899142Y-112851429D01*
X146756285Y-113708571D01*
X145827714Y-113708571D01*
X145256286Y-112351429D02*
X145184857Y-112280000D01*
X145042000Y-112208571D01*
X144684857Y-112208571D01*
X144542000Y-112280000D01*
X144470571Y-112351429D01*
X144399143Y-112494286D01*
X144399143Y-112637143D01*
X144470571Y-112851429D01*
X145327714Y-113708571D01*
X144399143Y-113708571D01*
D12*
X79206000Y-56282000D02*
X80306000Y-56282000D01*
X80306000Y-56282000D02*
X80306000Y-58882000D01*
X79206000Y-56282000D02*
X79206000Y-58882000D01*
X70062000Y-56196000D02*
X71162000Y-56196000D01*
X71162000Y-56196000D02*
X71162000Y-58796000D01*
X70062000Y-56196000D02*
X70062000Y-58796000D01*
X54804000Y-59122000D02*
X57464000Y-59122000D01*
X54804000Y-64262000D02*
X54804000Y-59122000D01*
X57464000Y-64262000D02*
X57464000Y-59122000D01*
X54804000Y-64262000D02*
X57464000Y-64262000D01*
X54804000Y-65532000D02*
X54804000Y-66862000D01*
X54804000Y-66862000D02*
X56134000Y-66862000D01*
X54804000Y-100016000D02*
X57464000Y-100016000D01*
X54804000Y-107696000D02*
X54804000Y-100016000D01*
X57464000Y-107696000D02*
X57464000Y-100016000D01*
X54804000Y-107696000D02*
X57464000Y-107696000D01*
X54804000Y-108966000D02*
X54804000Y-110296000D01*
X54804000Y-110296000D02*
X56134000Y-110296000D01*
X143062000Y-121980000D02*
X140402000Y-121980000D01*
X143062000Y-114300000D02*
X143062000Y-121980000D01*
X140402000Y-114300000D02*
X140402000Y-121980000D01*
X143062000Y-114300000D02*
X140402000Y-114300000D01*
X143062000Y-113030000D02*
X143062000Y-111700000D01*
X143062000Y-111700000D02*
X141732000Y-111700000D01*
X135442000Y-121980000D02*
X132782000Y-121980000D01*
X135442000Y-114300000D02*
X135442000Y-121980000D01*
X132782000Y-114300000D02*
X132782000Y-121980000D01*
X135442000Y-114300000D02*
X132782000Y-114300000D01*
X135442000Y-113030000D02*
X135442000Y-111700000D01*
X135442000Y-111700000D02*
X134112000Y-111700000D01*
X120202000Y-121980000D02*
X117542000Y-121980000D01*
X120202000Y-114300000D02*
X120202000Y-121980000D01*
X117542000Y-114300000D02*
X117542000Y-121980000D01*
X120202000Y-114300000D02*
X117542000Y-114300000D01*
X120202000Y-113030000D02*
X120202000Y-111700000D01*
X120202000Y-111700000D02*
X118872000Y-111700000D01*
X127822000Y-121980000D02*
X125162000Y-121980000D01*
X127822000Y-114300000D02*
X127822000Y-121980000D01*
X125162000Y-114300000D02*
X125162000Y-121980000D01*
X127822000Y-114300000D02*
X125162000Y-114300000D01*
X127822000Y-113030000D02*
X127822000Y-111700000D01*
X127822000Y-111700000D02*
X126492000Y-111700000D01*
X92904000Y-32064000D02*
X92904000Y-29404000D01*
X103124000Y-32064000D02*
X92904000Y-32064000D01*
X103124000Y-29404000D02*
X92904000Y-29404000D01*
X103124000Y-32064000D02*
X103124000Y-29404000D01*
X104394000Y-32064000D02*
X105724000Y-32064000D01*
X105724000Y-32064000D02*
X105724000Y-30734000D01*
X54804000Y-69790000D02*
X57464000Y-69790000D01*
X54804000Y-82550000D02*
X54804000Y-69790000D01*
X57464000Y-82550000D02*
X57464000Y-69790000D01*
X54804000Y-82550000D02*
X57464000Y-82550000D01*
X54804000Y-83820000D02*
X54804000Y-85150000D01*
X54804000Y-85150000D02*
X56134000Y-85150000D01*
X78658000Y-58496000D02*
X78658000Y-57496000D01*
X77298000Y-57496000D02*
X77298000Y-58496000D01*
X71710000Y-57496000D02*
X71710000Y-58496000D01*
X73070000Y-58496000D02*
X73070000Y-57496000D01*
X76098000Y-65930000D02*
X76098000Y-65480000D01*
X76098000Y-65480000D02*
X82398000Y-65480000D01*
X82398000Y-65480000D02*
X82398000Y-65880000D01*
X76098000Y-67230000D02*
X76098000Y-69930000D01*
X82398000Y-69930000D02*
X82398000Y-67230000D01*
X76098000Y-71680000D02*
X82398000Y-71680000D01*
X82398000Y-71680000D02*
X82398000Y-71230000D01*
X76098000Y-71230000D02*
X76098000Y-71680000D01*
X66192000Y-65962000D02*
X66192000Y-65512000D01*
X66192000Y-65512000D02*
X72492000Y-65512000D01*
X72492000Y-65512000D02*
X72492000Y-65912000D01*
X66192000Y-67262000D02*
X66192000Y-69962000D01*
X72492000Y-69962000D02*
X72492000Y-67262000D01*
X66192000Y-71712000D02*
X72492000Y-71712000D01*
X72492000Y-71712000D02*
X72492000Y-71262000D01*
X66192000Y-71262000D02*
X66192000Y-71712000D01*
D13*
X85373981Y-35052000D02*
G75*
G03X85373981Y-35052000I-283981J0D01*
G01*
D14*
X66184000Y-34906000D02*
X84184000Y-34906000D01*
X84184000Y-28906000D02*
X84184000Y-54406000D01*
X66184000Y-28906000D02*
X66184000Y-54406000D01*
X66184000Y-54406000D02*
X84184000Y-54406000D01*
X66184000Y-28906000D02*
X84184000Y-28906000D01*
D12*
X83112000Y-106426000D02*
G75*
G03X83112000Y-106426000I-4090000J0D01*
G01*
X79022000Y-110476000D02*
X79022000Y-102376000D01*
X79062000Y-110476000D02*
X79062000Y-102376000D01*
X79102000Y-110476000D02*
X79102000Y-102376000D01*
X79142000Y-110475000D02*
X79142000Y-102377000D01*
X79182000Y-110473000D02*
X79182000Y-102379000D01*
X79222000Y-110472000D02*
X79222000Y-102380000D01*
X79262000Y-110469000D02*
X79262000Y-102383000D01*
X79302000Y-110467000D02*
X79302000Y-102385000D01*
X79342000Y-110464000D02*
X79342000Y-102388000D01*
X79382000Y-110461000D02*
X79382000Y-102391000D01*
X79422000Y-110457000D02*
X79422000Y-102395000D01*
X79462000Y-110453000D02*
X79462000Y-102399000D01*
X79502000Y-110448000D02*
X79502000Y-102404000D01*
X79542000Y-110443000D02*
X79542000Y-102409000D01*
X79582000Y-110438000D02*
X79582000Y-102414000D01*
X79622000Y-110432000D02*
X79622000Y-102420000D01*
X79662000Y-110426000D02*
X79662000Y-102426000D01*
X79702000Y-110420000D02*
X79702000Y-102432000D01*
X79743000Y-110413000D02*
X79743000Y-102439000D01*
X79783000Y-110405000D02*
X79783000Y-102447000D01*
X79823000Y-110397000D02*
X79823000Y-107406000D01*
X79823000Y-105446000D02*
X79823000Y-102455000D01*
X79863000Y-110389000D02*
X79863000Y-107406000D01*
X79863000Y-105446000D02*
X79863000Y-102463000D01*
X79903000Y-110381000D02*
X79903000Y-107406000D01*
X79903000Y-105446000D02*
X79903000Y-102471000D01*
X79943000Y-110372000D02*
X79943000Y-107406000D01*
X79943000Y-105446000D02*
X79943000Y-102480000D01*
X79983000Y-110362000D02*
X79983000Y-107406000D01*
X79983000Y-105446000D02*
X79983000Y-102490000D01*
X80023000Y-110352000D02*
X80023000Y-107406000D01*
X80023000Y-105446000D02*
X80023000Y-102500000D01*
X80063000Y-110342000D02*
X80063000Y-107406000D01*
X80063000Y-105446000D02*
X80063000Y-102510000D01*
X80103000Y-110331000D02*
X80103000Y-107406000D01*
X80103000Y-105446000D02*
X80103000Y-102521000D01*
X80143000Y-110320000D02*
X80143000Y-107406000D01*
X80143000Y-105446000D02*
X80143000Y-102532000D01*
X80183000Y-110309000D02*
X80183000Y-107406000D01*
X80183000Y-105446000D02*
X80183000Y-102543000D01*
X80223000Y-110296000D02*
X80223000Y-107406000D01*
X80223000Y-105446000D02*
X80223000Y-102556000D01*
X80263000Y-110284000D02*
X80263000Y-107406000D01*
X80263000Y-105446000D02*
X80263000Y-102568000D01*
X80303000Y-110271000D02*
X80303000Y-107406000D01*
X80303000Y-105446000D02*
X80303000Y-102581000D01*
X80343000Y-110258000D02*
X80343000Y-107406000D01*
X80343000Y-105446000D02*
X80343000Y-102594000D01*
X80383000Y-110244000D02*
X80383000Y-107406000D01*
X80383000Y-105446000D02*
X80383000Y-102608000D01*
X80423000Y-110229000D02*
X80423000Y-107406000D01*
X80423000Y-105446000D02*
X80423000Y-102623000D01*
X80463000Y-110215000D02*
X80463000Y-107406000D01*
X80463000Y-105446000D02*
X80463000Y-102637000D01*
X80503000Y-110199000D02*
X80503000Y-107406000D01*
X80503000Y-105446000D02*
X80503000Y-102653000D01*
X80543000Y-110184000D02*
X80543000Y-107406000D01*
X80543000Y-105446000D02*
X80543000Y-102668000D01*
X80583000Y-110167000D02*
X80583000Y-107406000D01*
X80583000Y-105446000D02*
X80583000Y-102685000D01*
X80623000Y-110151000D02*
X80623000Y-107406000D01*
X80623000Y-105446000D02*
X80623000Y-102701000D01*
X80663000Y-110133000D02*
X80663000Y-107406000D01*
X80663000Y-105446000D02*
X80663000Y-102719000D01*
X80703000Y-110116000D02*
X80703000Y-107406000D01*
X80703000Y-105446000D02*
X80703000Y-102736000D01*
X80743000Y-110097000D02*
X80743000Y-107406000D01*
X80743000Y-105446000D02*
X80743000Y-102755000D01*
X80783000Y-110078000D02*
X80783000Y-107406000D01*
X80783000Y-105446000D02*
X80783000Y-102774000D01*
X80823000Y-110059000D02*
X80823000Y-107406000D01*
X80823000Y-105446000D02*
X80823000Y-102793000D01*
X80863000Y-110039000D02*
X80863000Y-107406000D01*
X80863000Y-105446000D02*
X80863000Y-102813000D01*
X80903000Y-110019000D02*
X80903000Y-107406000D01*
X80903000Y-105446000D02*
X80903000Y-102833000D01*
X80943000Y-109998000D02*
X80943000Y-107406000D01*
X80943000Y-105446000D02*
X80943000Y-102854000D01*
X80983000Y-109976000D02*
X80983000Y-107406000D01*
X80983000Y-105446000D02*
X80983000Y-102876000D01*
X81023000Y-109954000D02*
X81023000Y-107406000D01*
X81023000Y-105446000D02*
X81023000Y-102898000D01*
X81063000Y-109931000D02*
X81063000Y-107406000D01*
X81063000Y-105446000D02*
X81063000Y-102921000D01*
X81103000Y-109908000D02*
X81103000Y-107406000D01*
X81103000Y-105446000D02*
X81103000Y-102944000D01*
X81143000Y-109884000D02*
X81143000Y-107406000D01*
X81143000Y-105446000D02*
X81143000Y-102968000D01*
X81183000Y-109860000D02*
X81183000Y-107406000D01*
X81183000Y-105446000D02*
X81183000Y-102992000D01*
X81223000Y-109834000D02*
X81223000Y-107406000D01*
X81223000Y-105446000D02*
X81223000Y-103018000D01*
X81263000Y-109809000D02*
X81263000Y-107406000D01*
X81263000Y-105446000D02*
X81263000Y-103043000D01*
X81303000Y-109782000D02*
X81303000Y-107406000D01*
X81303000Y-105446000D02*
X81303000Y-103070000D01*
X81343000Y-109755000D02*
X81343000Y-107406000D01*
X81343000Y-105446000D02*
X81343000Y-103097000D01*
X81383000Y-109727000D02*
X81383000Y-107406000D01*
X81383000Y-105446000D02*
X81383000Y-103125000D01*
X81423000Y-109698000D02*
X81423000Y-107406000D01*
X81423000Y-105446000D02*
X81423000Y-103154000D01*
X81463000Y-109669000D02*
X81463000Y-107406000D01*
X81463000Y-105446000D02*
X81463000Y-103183000D01*
X81503000Y-109639000D02*
X81503000Y-107406000D01*
X81503000Y-105446000D02*
X81503000Y-103213000D01*
X81543000Y-109608000D02*
X81543000Y-107406000D01*
X81543000Y-105446000D02*
X81543000Y-103244000D01*
X81583000Y-109576000D02*
X81583000Y-107406000D01*
X81583000Y-105446000D02*
X81583000Y-103276000D01*
X81623000Y-109544000D02*
X81623000Y-107406000D01*
X81623000Y-105446000D02*
X81623000Y-103308000D01*
X81663000Y-109510000D02*
X81663000Y-107406000D01*
X81663000Y-105446000D02*
X81663000Y-103342000D01*
X81703000Y-109476000D02*
X81703000Y-107406000D01*
X81703000Y-105446000D02*
X81703000Y-103376000D01*
X81743000Y-109441000D02*
X81743000Y-107406000D01*
X81743000Y-105446000D02*
X81743000Y-103411000D01*
X81783000Y-109405000D02*
X81783000Y-103447000D01*
X81823000Y-109368000D02*
X81823000Y-103484000D01*
X81863000Y-109330000D02*
X81863000Y-103522000D01*
X81903000Y-109291000D02*
X81903000Y-103561000D01*
X81943000Y-109250000D02*
X81943000Y-103602000D01*
X81983000Y-109209000D02*
X81983000Y-103643000D01*
X82023000Y-109166000D02*
X82023000Y-103686000D01*
X82063000Y-109123000D02*
X82063000Y-103729000D01*
X82103000Y-109078000D02*
X82103000Y-103774000D01*
X82143000Y-109031000D02*
X82143000Y-103821000D01*
X82183000Y-108983000D02*
X82183000Y-103869000D01*
X82223000Y-108934000D02*
X82223000Y-103918000D01*
X82263000Y-108883000D02*
X82263000Y-103969000D01*
X82303000Y-108830000D02*
X82303000Y-104022000D01*
X82343000Y-108775000D02*
X82343000Y-104077000D01*
X82383000Y-108719000D02*
X82383000Y-104133000D01*
X82423000Y-108660000D02*
X82423000Y-104192000D01*
X82463000Y-108599000D02*
X82463000Y-104253000D01*
X82503000Y-108535000D02*
X82503000Y-104317000D01*
X82543000Y-108469000D02*
X82543000Y-104383000D01*
X82583000Y-108400000D02*
X82583000Y-104452000D01*
X82623000Y-108328000D02*
X82623000Y-104524000D01*
X82663000Y-108252000D02*
X82663000Y-104600000D01*
X82703000Y-108171000D02*
X82703000Y-104681000D01*
X82743000Y-108086000D02*
X82743000Y-104766000D01*
X82783000Y-107996000D02*
X82783000Y-104856000D01*
X82823000Y-107899000D02*
X82823000Y-104953000D01*
X82863000Y-107795000D02*
X82863000Y-105057000D01*
X82903000Y-107680000D02*
X82903000Y-105172000D01*
X82943000Y-107553000D02*
X82943000Y-105299000D01*
X82983000Y-107409000D02*
X82983000Y-105443000D01*
X83023000Y-107240000D02*
X83023000Y-105612000D01*
X83063000Y-107024000D02*
X83063000Y-105828000D01*
X83103000Y-106672000D02*
X83103000Y-106180000D01*
X75072000Y-106426000D02*
X76272000Y-106426000D01*
X75672000Y-107076000D02*
X75672000Y-105776000D01*
X65786000Y-114292000D02*
X61436000Y-114292000D01*
X61436000Y-114292000D02*
X61436000Y-115292000D01*
X61436000Y-115292000D02*
X65786000Y-115292000D01*
X59586000Y-112992000D02*
X59586000Y-112642000D01*
X59586000Y-112642000D02*
X57986000Y-112642000D01*
X57986000Y-112642000D02*
X57986000Y-111742000D01*
X57986000Y-111742000D02*
X65786000Y-111742000D01*
X65786000Y-111742000D02*
X65786000Y-117842000D01*
X65786000Y-117842000D02*
X57986000Y-117842000D01*
X57986000Y-117842000D02*
X57986000Y-116942000D01*
X57986000Y-116942000D02*
X59586000Y-116942000D01*
X59586000Y-116942000D02*
X59586000Y-116592000D01*
X59586000Y-111742000D02*
X59586000Y-112642000D01*
X59586000Y-117842000D02*
X59586000Y-116942000D01*
X61936000Y-112492000D02*
X63536000Y-112492000D01*
X63536000Y-112492000D02*
X63536000Y-113492000D01*
X63536000Y-113492000D02*
X61936000Y-113492000D01*
X61936000Y-113492000D02*
X61936000Y-112492000D01*
X61936000Y-117092000D02*
X63536000Y-117092000D01*
X63536000Y-117092000D02*
X63536000Y-116092000D01*
X63536000Y-116092000D02*
X61936000Y-116092000D01*
X61936000Y-116092000D02*
X61936000Y-117092000D01*
X63536000Y-113492000D02*
X65786000Y-113492000D01*
X63536000Y-112992000D02*
X65786000Y-112992000D01*
X59586000Y-112992000D02*
X58386000Y-112992000D01*
D14*
X78758381Y-57343905D02*
X77758381Y-57343905D01*
X77758381Y-57582000D01*
X77806000Y-57724858D01*
X77901238Y-57820096D01*
X77996476Y-57867715D01*
X78186952Y-57915334D01*
X78329810Y-57915334D01*
X78520286Y-57867715D01*
X78615524Y-57820096D01*
X78710762Y-57724858D01*
X78758381Y-57582000D01*
X78758381Y-57343905D01*
X78758381Y-58867715D02*
X78758381Y-58296286D01*
X78758381Y-58582000D02*
X77758381Y-58582000D01*
X77901238Y-58486762D01*
X77996476Y-58391524D01*
X78044095Y-58296286D01*
X69614381Y-57257905D02*
X68614381Y-57257905D01*
X68614381Y-57496000D01*
X68662000Y-57638858D01*
X68757238Y-57734096D01*
X68852476Y-57781715D01*
X69042952Y-57829334D01*
X69185810Y-57829334D01*
X69376286Y-57781715D01*
X69471524Y-57734096D01*
X69566762Y-57638858D01*
X69614381Y-57496000D01*
X69614381Y-57257905D01*
X68709619Y-58210286D02*
X68662000Y-58257905D01*
X68614381Y-58353143D01*
X68614381Y-58591239D01*
X68662000Y-58686477D01*
X68709619Y-58734096D01*
X68804857Y-58781715D01*
X68900095Y-58781715D01*
X69042952Y-58734096D01*
X69614381Y-58162667D01*
X69614381Y-58781715D01*
X56467333Y-67314381D02*
X56467333Y-68028667D01*
X56514953Y-68171524D01*
X56610191Y-68266762D01*
X56753048Y-68314381D01*
X56848286Y-68314381D01*
X56038762Y-67409619D02*
X55991143Y-67362000D01*
X55895905Y-67314381D01*
X55657809Y-67314381D01*
X55562571Y-67362000D01*
X55514952Y-67409619D01*
X55467333Y-67504857D01*
X55467333Y-67600095D01*
X55514952Y-67742952D01*
X56086381Y-68314381D01*
X55467333Y-68314381D01*
X56467333Y-110748381D02*
X56467333Y-111462667D01*
X56514953Y-111605524D01*
X56610191Y-111700762D01*
X56753048Y-111748381D01*
X56848286Y-111748381D01*
X56086381Y-110748381D02*
X55467333Y-110748381D01*
X55800667Y-111129333D01*
X55657809Y-111129333D01*
X55562571Y-111176952D01*
X55514952Y-111224571D01*
X55467333Y-111319810D01*
X55467333Y-111557905D01*
X55514952Y-111653143D01*
X55562571Y-111700762D01*
X55657809Y-111748381D01*
X55943524Y-111748381D01*
X56038762Y-111700762D01*
X56086381Y-111653143D01*
X142065333Y-110152381D02*
X142065333Y-110866667D01*
X142112953Y-111009524D01*
X142208191Y-111104762D01*
X142351048Y-111152381D01*
X142446286Y-111152381D01*
X141160571Y-110485714D02*
X141160571Y-111152381D01*
X141398667Y-110104762D02*
X141636762Y-110819048D01*
X141017714Y-110819048D01*
X134445333Y-110152381D02*
X134445333Y-110866667D01*
X134492953Y-111009524D01*
X134588191Y-111104762D01*
X134731048Y-111152381D01*
X134826286Y-111152381D01*
X133492952Y-110152381D02*
X133969143Y-110152381D01*
X134016762Y-110628571D01*
X133969143Y-110580952D01*
X133873905Y-110533333D01*
X133635809Y-110533333D01*
X133540571Y-110580952D01*
X133492952Y-110628571D01*
X133445333Y-110723810D01*
X133445333Y-110961905D01*
X133492952Y-111057143D01*
X133540571Y-111104762D01*
X133635809Y-111152381D01*
X133873905Y-111152381D01*
X133969143Y-111104762D01*
X134016762Y-111057143D01*
X119205333Y-110152381D02*
X119205333Y-110866667D01*
X119252953Y-111009524D01*
X119348191Y-111104762D01*
X119491048Y-111152381D01*
X119586286Y-111152381D01*
X118824381Y-110152381D02*
X118157714Y-110152381D01*
X118586286Y-111152381D01*
X126825333Y-110152381D02*
X126825333Y-110866667D01*
X126872953Y-111009524D01*
X126968191Y-111104762D01*
X127111048Y-111152381D01*
X127206286Y-111152381D01*
X125920571Y-110152381D02*
X126111048Y-110152381D01*
X126206286Y-110200000D01*
X126253905Y-110247619D01*
X126349143Y-110390476D01*
X126396762Y-110580952D01*
X126396762Y-110961905D01*
X126349143Y-111057143D01*
X126301524Y-111104762D01*
X126206286Y-111152381D01*
X126015809Y-111152381D01*
X125920571Y-111104762D01*
X125872952Y-111057143D01*
X125825333Y-110961905D01*
X125825333Y-110723810D01*
X125872952Y-110628571D01*
X125920571Y-110580952D01*
X126015809Y-110533333D01*
X126206286Y-110533333D01*
X126301524Y-110580952D01*
X126349143Y-110628571D01*
X126396762Y-110723810D01*
X106176381Y-30400667D02*
X106890667Y-30400667D01*
X107033524Y-30353047D01*
X107128762Y-30257809D01*
X107176381Y-30114952D01*
X107176381Y-30019714D01*
X107176381Y-30924476D02*
X107176381Y-31114952D01*
X107128762Y-31210191D01*
X107081143Y-31257810D01*
X106938286Y-31353048D01*
X106747810Y-31400667D01*
X106366857Y-31400667D01*
X106271619Y-31353048D01*
X106224000Y-31305429D01*
X106176381Y-31210191D01*
X106176381Y-31019714D01*
X106224000Y-30924476D01*
X106271619Y-30876857D01*
X106366857Y-30829238D01*
X106604952Y-30829238D01*
X106700190Y-30876857D01*
X106747810Y-30924476D01*
X106795429Y-31019714D01*
X106795429Y-31210191D01*
X106747810Y-31305429D01*
X106700190Y-31353048D01*
X106604952Y-31400667D01*
X56943523Y-85602381D02*
X56943523Y-86316667D01*
X56991143Y-86459524D01*
X57086381Y-86554762D01*
X57229238Y-86602381D01*
X57324476Y-86602381D01*
X55943523Y-86602381D02*
X56514952Y-86602381D01*
X56229238Y-86602381D02*
X56229238Y-85602381D01*
X56324476Y-85745238D01*
X56419714Y-85840476D01*
X56514952Y-85888095D01*
X55562571Y-85697619D02*
X55514952Y-85650000D01*
X55419714Y-85602381D01*
X55181618Y-85602381D01*
X55086380Y-85650000D01*
X55038761Y-85697619D01*
X54991142Y-85792857D01*
X54991142Y-85888095D01*
X55038761Y-86030952D01*
X55610190Y-86602381D01*
X54991142Y-86602381D01*
X76980381Y-57829334D02*
X76504190Y-57496000D01*
X76980381Y-57257905D02*
X75980381Y-57257905D01*
X75980381Y-57638858D01*
X76028000Y-57734096D01*
X76075619Y-57781715D01*
X76170857Y-57829334D01*
X76313714Y-57829334D01*
X76408952Y-57781715D01*
X76456571Y-57734096D01*
X76504190Y-57638858D01*
X76504190Y-57257905D01*
X76980381Y-58305524D02*
X76980381Y-58496000D01*
X76932762Y-58591239D01*
X76885143Y-58638858D01*
X76742286Y-58734096D01*
X76551810Y-58781715D01*
X76170857Y-58781715D01*
X76075619Y-58734096D01*
X76028000Y-58686477D01*
X75980381Y-58591239D01*
X75980381Y-58400762D01*
X76028000Y-58305524D01*
X76075619Y-58257905D01*
X76170857Y-58210286D01*
X76408952Y-58210286D01*
X76504190Y-58257905D01*
X76551810Y-58305524D01*
X76599429Y-58400762D01*
X76599429Y-58591239D01*
X76551810Y-58686477D01*
X76504190Y-58734096D01*
X76408952Y-58781715D01*
X74292381Y-57353143D02*
X73816190Y-57019809D01*
X74292381Y-56781714D02*
X73292381Y-56781714D01*
X73292381Y-57162667D01*
X73340000Y-57257905D01*
X73387619Y-57305524D01*
X73482857Y-57353143D01*
X73625714Y-57353143D01*
X73720952Y-57305524D01*
X73768571Y-57257905D01*
X73816190Y-57162667D01*
X73816190Y-56781714D01*
X74292381Y-58305524D02*
X74292381Y-57734095D01*
X74292381Y-58019809D02*
X73292381Y-58019809D01*
X73435238Y-57924571D01*
X73530476Y-57829333D01*
X73578095Y-57734095D01*
X73292381Y-58924571D02*
X73292381Y-59019810D01*
X73340000Y-59115048D01*
X73387619Y-59162667D01*
X73482857Y-59210286D01*
X73673333Y-59257905D01*
X73911429Y-59257905D01*
X74101905Y-59210286D01*
X74197143Y-59162667D01*
X74244762Y-59115048D01*
X74292381Y-59019810D01*
X74292381Y-58924571D01*
X74244762Y-58829333D01*
X74197143Y-58781714D01*
X74101905Y-58734095D01*
X73911429Y-58686476D01*
X73673333Y-58686476D01*
X73482857Y-58734095D01*
X73387619Y-58781714D01*
X73340000Y-58829333D01*
X73292381Y-58924571D01*
X80581333Y-72884762D02*
X80438476Y-72932381D01*
X80200380Y-72932381D01*
X80105142Y-72884762D01*
X80057523Y-72837143D01*
X80009904Y-72741905D01*
X80009904Y-72646667D01*
X80057523Y-72551429D01*
X80105142Y-72503810D01*
X80200380Y-72456190D01*
X80390857Y-72408571D01*
X80486095Y-72360952D01*
X80533714Y-72313333D01*
X80581333Y-72218095D01*
X80581333Y-72122857D01*
X80533714Y-72027619D01*
X80486095Y-71980000D01*
X80390857Y-71932381D01*
X80152761Y-71932381D01*
X80009904Y-71980000D01*
X79676571Y-71932381D02*
X79438476Y-72932381D01*
X79247999Y-72218095D01*
X79057523Y-72932381D01*
X78819428Y-71932381D01*
X77914666Y-72932381D02*
X78486095Y-72932381D01*
X78200381Y-72932381D02*
X78200381Y-71932381D01*
X78295619Y-72075238D01*
X78390857Y-72170476D01*
X78486095Y-72218095D01*
X70675333Y-72916762D02*
X70532476Y-72964381D01*
X70294380Y-72964381D01*
X70199142Y-72916762D01*
X70151523Y-72869143D01*
X70103904Y-72773905D01*
X70103904Y-72678667D01*
X70151523Y-72583429D01*
X70199142Y-72535810D01*
X70294380Y-72488190D01*
X70484857Y-72440571D01*
X70580095Y-72392952D01*
X70627714Y-72345333D01*
X70675333Y-72250095D01*
X70675333Y-72154857D01*
X70627714Y-72059619D01*
X70580095Y-72012000D01*
X70484857Y-71964381D01*
X70246761Y-71964381D01*
X70103904Y-72012000D01*
X69770571Y-71964381D02*
X69532476Y-72964381D01*
X69341999Y-72250095D01*
X69151523Y-72964381D01*
X68913428Y-71964381D01*
X68580095Y-72059619D02*
X68532476Y-72012000D01*
X68437238Y-71964381D01*
X68199142Y-71964381D01*
X68103904Y-72012000D01*
X68056285Y-72059619D01*
X68008666Y-72154857D01*
X68008666Y-72250095D01*
X68056285Y-72392952D01*
X68627714Y-72964381D01*
X68008666Y-72964381D01*
X64388905Y-32091381D02*
X64388905Y-32900905D01*
X64341286Y-32996143D01*
X64293667Y-33043762D01*
X64198429Y-33091381D01*
X64007952Y-33091381D01*
X63912714Y-33043762D01*
X63865095Y-32996143D01*
X63817476Y-32900905D01*
X63817476Y-32091381D01*
X63388905Y-32186619D02*
X63341286Y-32139000D01*
X63246048Y-32091381D01*
X63007952Y-32091381D01*
X62912714Y-32139000D01*
X62865095Y-32186619D01*
X62817476Y-32281857D01*
X62817476Y-32377095D01*
X62865095Y-32519952D01*
X63436524Y-33091381D01*
X62817476Y-33091381D01*
X68254571Y-35973570D02*
X68254571Y-36306904D01*
X68778381Y-36449761D02*
X68778381Y-35973570D01*
X67778381Y-35973570D01*
X67778381Y-36449761D01*
X68730762Y-36830713D02*
X68778381Y-36925951D01*
X68778381Y-37116427D01*
X68730762Y-37211666D01*
X68635524Y-37259285D01*
X68587905Y-37259285D01*
X68492667Y-37211666D01*
X68445048Y-37116427D01*
X68445048Y-36973570D01*
X68397429Y-36878332D01*
X68302190Y-36830713D01*
X68254571Y-36830713D01*
X68159333Y-36878332D01*
X68111714Y-36973570D01*
X68111714Y-37116427D01*
X68159333Y-37211666D01*
X68111714Y-37687856D02*
X69111714Y-37687856D01*
X68159333Y-37687856D02*
X68111714Y-37783094D01*
X68111714Y-37973571D01*
X68159333Y-38068809D01*
X68206952Y-38116428D01*
X68302190Y-38164047D01*
X68587905Y-38164047D01*
X68683143Y-38116428D01*
X68730762Y-38068809D01*
X68778381Y-37973571D01*
X68778381Y-37783094D01*
X68730762Y-37687856D01*
X68778381Y-38592618D02*
X68111714Y-38592618D01*
X68302190Y-38592618D02*
X68206952Y-38640237D01*
X68159333Y-38687856D01*
X68111714Y-38783094D01*
X68111714Y-38878333D01*
X68730762Y-39592619D02*
X68778381Y-39497381D01*
X68778381Y-39306904D01*
X68730762Y-39211666D01*
X68635524Y-39164047D01*
X68254571Y-39164047D01*
X68159333Y-39211666D01*
X68111714Y-39306904D01*
X68111714Y-39497381D01*
X68159333Y-39592619D01*
X68254571Y-39640238D01*
X68349810Y-39640238D01*
X68445048Y-39164047D01*
X68730762Y-40021190D02*
X68778381Y-40116428D01*
X68778381Y-40306904D01*
X68730762Y-40402143D01*
X68635524Y-40449762D01*
X68587905Y-40449762D01*
X68492667Y-40402143D01*
X68445048Y-40306904D01*
X68445048Y-40164047D01*
X68397429Y-40068809D01*
X68302190Y-40021190D01*
X68254571Y-40021190D01*
X68159333Y-40068809D01*
X68111714Y-40164047D01*
X68111714Y-40306904D01*
X68159333Y-40402143D01*
X68730762Y-40830714D02*
X68778381Y-40925952D01*
X68778381Y-41116428D01*
X68730762Y-41211667D01*
X68635524Y-41259286D01*
X68587905Y-41259286D01*
X68492667Y-41211667D01*
X68445048Y-41116428D01*
X68445048Y-40973571D01*
X68397429Y-40878333D01*
X68302190Y-40830714D01*
X68254571Y-40830714D01*
X68159333Y-40878333D01*
X68111714Y-40973571D01*
X68111714Y-41116428D01*
X68159333Y-41211667D01*
X68778381Y-41687857D02*
X68111714Y-41687857D01*
X67778381Y-41687857D02*
X67826000Y-41640238D01*
X67873619Y-41687857D01*
X67826000Y-41735476D01*
X67778381Y-41687857D01*
X67873619Y-41687857D01*
X68111714Y-42021190D02*
X68111714Y-42402142D01*
X68778381Y-42164047D02*
X67921238Y-42164047D01*
X67826000Y-42211666D01*
X67778381Y-42306904D01*
X67778381Y-42402142D01*
X68730762Y-43449762D02*
X68778381Y-43592619D01*
X68778381Y-43830715D01*
X68730762Y-43925953D01*
X68683143Y-43973572D01*
X68587905Y-44021191D01*
X68492667Y-44021191D01*
X68397429Y-43973572D01*
X68349810Y-43925953D01*
X68302190Y-43830715D01*
X68254571Y-43640238D01*
X68206952Y-43545000D01*
X68159333Y-43497381D01*
X68064095Y-43449762D01*
X67968857Y-43449762D01*
X67873619Y-43497381D01*
X67826000Y-43545000D01*
X67778381Y-43640238D01*
X67778381Y-43878334D01*
X67826000Y-44021191D01*
X68111714Y-44354524D02*
X68778381Y-44592619D01*
X68111714Y-44830715D02*
X68778381Y-44592619D01*
X69016476Y-44497381D01*
X69064095Y-44449762D01*
X69111714Y-44354524D01*
X68730762Y-45164048D02*
X68778381Y-45259286D01*
X68778381Y-45449762D01*
X68730762Y-45545001D01*
X68635524Y-45592620D01*
X68587905Y-45592620D01*
X68492667Y-45545001D01*
X68445048Y-45449762D01*
X68445048Y-45306905D01*
X68397429Y-45211667D01*
X68302190Y-45164048D01*
X68254571Y-45164048D01*
X68159333Y-45211667D01*
X68111714Y-45306905D01*
X68111714Y-45449762D01*
X68159333Y-45545001D01*
X68111714Y-45878334D02*
X68111714Y-46259286D01*
X67778381Y-46021191D02*
X68635524Y-46021191D01*
X68730762Y-46068810D01*
X68778381Y-46164048D01*
X68778381Y-46259286D01*
X68730762Y-46973573D02*
X68778381Y-46878335D01*
X68778381Y-46687858D01*
X68730762Y-46592620D01*
X68635524Y-46545001D01*
X68254571Y-46545001D01*
X68159333Y-46592620D01*
X68111714Y-46687858D01*
X68111714Y-46878335D01*
X68159333Y-46973573D01*
X68254571Y-47021192D01*
X68349810Y-47021192D01*
X68445048Y-46545001D01*
X68778381Y-47449763D02*
X68111714Y-47449763D01*
X68206952Y-47449763D02*
X68159333Y-47497382D01*
X68111714Y-47592620D01*
X68111714Y-47735478D01*
X68159333Y-47830716D01*
X68254571Y-47878335D01*
X68778381Y-47878335D01*
X68254571Y-47878335D02*
X68159333Y-47925954D01*
X68111714Y-48021192D01*
X68111714Y-48164049D01*
X68159333Y-48259287D01*
X68254571Y-48306906D01*
X68778381Y-48306906D01*
X68730762Y-48735477D02*
X68778381Y-48830715D01*
X68778381Y-49021191D01*
X68730762Y-49116430D01*
X68635524Y-49164049D01*
X68587905Y-49164049D01*
X68492667Y-49116430D01*
X68445048Y-49021191D01*
X68445048Y-48878334D01*
X68397429Y-48783096D01*
X68302190Y-48735477D01*
X68254571Y-48735477D01*
X68159333Y-48783096D01*
X68111714Y-48878334D01*
X68111714Y-49021191D01*
X68159333Y-49116430D01*
X69905571Y-35949619D02*
X69905571Y-36282953D01*
X70429381Y-36425810D02*
X70429381Y-35949619D01*
X69429381Y-35949619D01*
X69429381Y-36425810D01*
X70381762Y-36806762D02*
X70429381Y-36949619D01*
X70429381Y-37187715D01*
X70381762Y-37282953D01*
X70334143Y-37330572D01*
X70238905Y-37378191D01*
X70143667Y-37378191D01*
X70048429Y-37330572D01*
X70000810Y-37282953D01*
X69953190Y-37187715D01*
X69905571Y-36997238D01*
X69857952Y-36902000D01*
X69810333Y-36854381D01*
X69715095Y-36806762D01*
X69619857Y-36806762D01*
X69524619Y-36854381D01*
X69477000Y-36902000D01*
X69429381Y-36997238D01*
X69429381Y-37235334D01*
X69477000Y-37378191D01*
X70429381Y-37806762D02*
X69429381Y-37806762D01*
X69429381Y-38187715D01*
X69477000Y-38282953D01*
X69524619Y-38330572D01*
X69619857Y-38378191D01*
X69762714Y-38378191D01*
X69857952Y-38330572D01*
X69905571Y-38282953D01*
X69953190Y-38187715D01*
X69953190Y-37806762D01*
X69429381Y-38711524D02*
X69429381Y-39330572D01*
X69810333Y-38997238D01*
X69810333Y-39140096D01*
X69857952Y-39235334D01*
X69905571Y-39282953D01*
X70000810Y-39330572D01*
X70238905Y-39330572D01*
X70334143Y-39282953D01*
X70381762Y-39235334D01*
X70429381Y-39140096D01*
X70429381Y-38854381D01*
X70381762Y-38759143D01*
X70334143Y-38711524D01*
X69524619Y-39711524D02*
X69477000Y-39759143D01*
X69429381Y-39854381D01*
X69429381Y-40092477D01*
X69477000Y-40187715D01*
X69524619Y-40235334D01*
X69619857Y-40282953D01*
X69715095Y-40282953D01*
X69857952Y-40235334D01*
X70429381Y-39663905D01*
X70429381Y-40282953D01*
X70048429Y-40711524D02*
X70048429Y-41473429D01*
X69429381Y-41854381D02*
X70429381Y-42092476D01*
X69715095Y-42282953D01*
X70429381Y-42473429D01*
X69429381Y-42711524D01*
X70429381Y-43663905D02*
X69953190Y-43330571D01*
X70429381Y-43092476D02*
X69429381Y-43092476D01*
X69429381Y-43473429D01*
X69477000Y-43568667D01*
X69524619Y-43616286D01*
X69619857Y-43663905D01*
X69762714Y-43663905D01*
X69857952Y-43616286D01*
X69905571Y-43568667D01*
X69953190Y-43473429D01*
X69953190Y-43092476D01*
X69429381Y-44282952D02*
X69429381Y-44473429D01*
X69477000Y-44568667D01*
X69572238Y-44663905D01*
X69762714Y-44711524D01*
X70096048Y-44711524D01*
X70286524Y-44663905D01*
X70381762Y-44568667D01*
X70429381Y-44473429D01*
X70429381Y-44282952D01*
X70381762Y-44187714D01*
X70286524Y-44092476D01*
X70096048Y-44044857D01*
X69762714Y-44044857D01*
X69572238Y-44092476D01*
X69477000Y-44187714D01*
X69429381Y-44282952D01*
X69429381Y-45330571D02*
X69429381Y-45521048D01*
X69477000Y-45616286D01*
X69572238Y-45711524D01*
X69762714Y-45759143D01*
X70096048Y-45759143D01*
X70286524Y-45711524D01*
X70381762Y-45616286D01*
X70429381Y-45521048D01*
X70429381Y-45330571D01*
X70381762Y-45235333D01*
X70286524Y-45140095D01*
X70096048Y-45092476D01*
X69762714Y-45092476D01*
X69572238Y-45140095D01*
X69477000Y-45235333D01*
X69429381Y-45330571D01*
X70429381Y-46187714D02*
X69429381Y-46187714D01*
X70143667Y-46521048D01*
X69429381Y-46854381D01*
X70429381Y-46854381D01*
X79664857Y-112093143D02*
X79712476Y-112140762D01*
X79855333Y-112188381D01*
X79950571Y-112188381D01*
X80093429Y-112140762D01*
X80188667Y-112045524D01*
X80236286Y-111950286D01*
X80283905Y-111759810D01*
X80283905Y-111616952D01*
X80236286Y-111426476D01*
X80188667Y-111331238D01*
X80093429Y-111236000D01*
X79950571Y-111188381D01*
X79855333Y-111188381D01*
X79712476Y-111236000D01*
X79664857Y-111283619D01*
X78807714Y-111521714D02*
X78807714Y-112188381D01*
X79045810Y-111140762D02*
X79283905Y-111855048D01*
X78664857Y-111855048D01*
X77807714Y-111188381D02*
X78283905Y-111188381D01*
X78331524Y-111664571D01*
X78283905Y-111616952D01*
X78188667Y-111569333D01*
X77950571Y-111569333D01*
X77855333Y-111616952D01*
X77807714Y-111664571D01*
X77760095Y-111759810D01*
X77760095Y-111997905D01*
X77807714Y-112093143D01*
X77855333Y-112140762D01*
X77950571Y-112188381D01*
X78188667Y-112188381D01*
X78283905Y-112140762D01*
X78331524Y-112093143D01*
X56094381Y-114220667D02*
X56808667Y-114220667D01*
X56951524Y-114173047D01*
X57046762Y-114077809D01*
X57094381Y-113934952D01*
X57094381Y-113839714D01*
X57094381Y-115220667D02*
X57094381Y-114649238D01*
X57094381Y-114934952D02*
X56094381Y-114934952D01*
X56237238Y-114839714D01*
X56332476Y-114744476D01*
X56380095Y-114649238D01*
M02*
