<?xml version="1.0" standalone="no"?>
 <!DOCTYPE svg PUBLIC "-//W3C//DTD SVG 1.1//EN" 
 "http://www.w3.org/Graphics/SVG/1.1/DTD/svg11.dtd"> 
<svg xmlns="http://www.w3.org/2000/svg" version="1.1" 
    width="29.7002cm" height="21.0007cm" viewBox="0 0 116930 82680 ">
<title>SVG Picture created as ESP32_Clock-F.Mask.svg date 2018/04/25 19:32:23 </title>
  <desc>Picture generated by PCBNEW </desc>
<g style="fill:#000000; fill-opacity:1;stroke:#000000; stroke-opacity:1;
stroke-linecap:round; stroke-linejoin:round; "
 transform="translate(0 0) scale(1 1)">
</g>
<g style="fill:#000000; fill-opacity:0.0; 
stroke:#000000; stroke-width:-0.000393701; stroke-opacity:1; 
stroke-linecap:round; stroke-linejoin:round;">
</g>
<g style="fill:#000000; fill-opacity:0.0; 
stroke:#000000; stroke-width:39.3701; stroke-opacity:1; 
stroke-linecap:round; stroke-linejoin:round;">
</g>
<g style="fill:#000000; fill-opacity:0.0; 
stroke:#000000; stroke-width:59.0551; stroke-opacity:1; 
stroke-linecap:round; stroke-linejoin:round;">
<rect x="69685.9" y="65357.2" width="42519.7" height="12598.4" rx="0" />
</g>
<g style="fill:#000000; fill-opacity:0.0; 
stroke:#000000; stroke-width:39.3701; stroke-opacity:1; 
stroke-linecap:round; stroke-linejoin:round;">
</g>
<g style="fill:#000000; fill-opacity:0.0; 
stroke:#000000; stroke-width:59.0551; stroke-opacity:1; 
stroke-linecap:round; stroke-linejoin:round;">
<rect x="3937.01" y="3937.01" width="109056" height="74806" rx="0" />
</g>
<g style="fill:#000000; fill-opacity:0.0; 
stroke:#000000; stroke-width:39.3701; stroke-opacity:1; 
stroke-linecap:round; stroke-linejoin:round;">
</g>
<g style="fill:#000000; fill-opacity:0.0; 
stroke:#000000; stroke-width:59.0551; stroke-opacity:1; 
stroke-linecap:round; stroke-linejoin:round;">
<rect x="4724.41" y="4724.41" width="107481" height="73231.2" rx="0" />
</g>
<g style="fill:#000000; fill-opacity:0.0; 
stroke:#000000; stroke-width:39.3701; stroke-opacity:1; 
stroke-linecap:round; stroke-linejoin:round;">
</g>
<g style="fill:#000000; fill-opacity:0.0; 
stroke:#000000; stroke-width:59.0551; stroke-opacity:1; 
stroke-linecap:round; stroke-linejoin:round;">
<path d="M23622 4724
L23622 3937
" />
</g>
<g style="fill:#000000; fill-opacity:0.0; 
stroke:#000000; stroke-width:39.3701; stroke-opacity:1; 
stroke-linecap:round; stroke-linejoin:round;">
</g>
<g style="fill:#000000; fill-opacity:0.0; 
stroke:#000000; stroke-width:59.0551; stroke-opacity:1; 
stroke-linecap:round; stroke-linejoin:round;">
<path d="M43307 4724
L43307 3937
" />
</g>
<g style="fill:#000000; fill-opacity:0.0; 
stroke:#000000; stroke-width:39.3701; stroke-opacity:1; 
stroke-linecap:round; stroke-linejoin:round;">
</g>
<g style="fill:#000000; fill-opacity:0.0; 
stroke:#000000; stroke-width:59.0551; stroke-opacity:1; 
stroke-linecap:round; stroke-linejoin:round;">
<path d="M62992 4724
L62992 3937
" />
</g>
<g style="fill:#000000; fill-opacity:0.0; 
stroke:#000000; stroke-width:39.3701; stroke-opacity:1; 
stroke-linecap:round; stroke-linejoin:round;">
</g>
<g style="fill:#000000; fill-opacity:0.0; 
stroke:#000000; stroke-width:59.0551; stroke-opacity:1; 
stroke-linecap:round; stroke-linejoin:round;">
<path d="M82677 4724
L82677 3937
" />
</g>
<g style="fill:#000000; fill-opacity:0.0; 
stroke:#000000; stroke-width:39.3701; stroke-opacity:1; 
stroke-linecap:round; stroke-linejoin:round;">
</g>
<g style="fill:#000000; fill-opacity:0.0; 
stroke:#000000; stroke-width:59.0551; stroke-opacity:1; 
stroke-linecap:round; stroke-linejoin:round;">
<path d="M102362 4724
L102362 3937
" />
</g>
<g style="fill:#000000; fill-opacity:0.0; 
stroke:#000000; stroke-width:39.3701; stroke-opacity:1; 
stroke-linecap:round; stroke-linejoin:round;">
</g>
<g style="fill:#000000; fill-opacity:0.0; 
stroke:#000000; stroke-width:59.0551; stroke-opacity:1; 
stroke-linecap:round; stroke-linejoin:round;">
<path d="M14169 4562
L13877 4562
" />
<path d="M14023 4562
L14023 4050
L13974 4123
L13925 4172
L13877 4196
" />
</g>
<g style="fill:#000000; fill-opacity:0.0; 
stroke:#000000; stroke-width:39.3701; stroke-opacity:1; 
stroke-linecap:round; stroke-linejoin:round;">
</g>
<g style="fill:#000000; fill-opacity:0.0; 
stroke:#000000; stroke-width:59.0551; stroke-opacity:1; 
stroke-linecap:round; stroke-linejoin:round;">
<path d="M33562 4099
L33586 4074
L33635 4050
L33757 4050
L33805 4074
L33830 4099
L33854 4147
L33854 4196
L33830 4269
L33537 4562
L33854 4562
" />
</g>
<g style="fill:#000000; fill-opacity:0.0; 
stroke:#000000; stroke-width:39.3701; stroke-opacity:1; 
stroke-linecap:round; stroke-linejoin:round;">
</g>
<g style="fill:#000000; fill-opacity:0.0; 
stroke:#000000; stroke-width:59.0551; stroke-opacity:1; 
stroke-linecap:round; stroke-linejoin:round;">
<path d="M53222 4050
L53539 4050
L53368 4245
L53442 4245
L53490 4269
L53515 4294
L53539 4342
L53539 4464
L53515 4513
L53490 4537
L53442 4562
L53295 4562
L53247 4537
L53222 4513
" />
</g>
<g style="fill:#000000; fill-opacity:0.0; 
stroke:#000000; stroke-width:39.3701; stroke-opacity:1; 
stroke-linecap:round; stroke-linejoin:round;">
</g>
<g style="fill:#000000; fill-opacity:0.0; 
stroke:#000000; stroke-width:59.0551; stroke-opacity:1; 
stroke-linecap:round; stroke-linejoin:round;">
<path d="M73175 4221
L73175 4562
" />
<path d="M73053 4026
L72932 4391
L73248 4391
" />
</g>
<g style="fill:#000000; fill-opacity:0.0; 
stroke:#000000; stroke-width:39.3701; stroke-opacity:1; 
stroke-linecap:round; stroke-linejoin:round;">
</g>
<g style="fill:#000000; fill-opacity:0.0; 
stroke:#000000; stroke-width:59.0551; stroke-opacity:1; 
stroke-linecap:round; stroke-linejoin:round;">
<path d="M92885 4050
L92641 4050
L92617 4294
L92641 4269
L92690 4245
L92812 4245
L92860 4269
L92885 4294
L92909 4342
L92909 4464
L92885 4513
L92860 4537
L92812 4562
L92690 4562
L92641 4537
L92617 4513
" />
</g>
<g style="fill:#000000; fill-opacity:0.0; 
stroke:#000000; stroke-width:39.3701; stroke-opacity:1; 
stroke-linecap:round; stroke-linejoin:round;">
</g>
<g style="fill:#000000; fill-opacity:0.0; 
stroke:#000000; stroke-width:59.0551; stroke-opacity:1; 
stroke-linecap:round; stroke-linejoin:round;">
<path d="M112545 4050
L112448 4050
L112399 4074
L112375 4099
L112326 4172
L112302 4269
L112302 4464
L112326 4513
L112350 4537
L112399 4562
L112497 4562
L112545 4537
L112570 4513
L112594 4464
L112594 4342
L112570 4294
L112545 4269
L112497 4245
L112399 4245
L112350 4269
L112326 4294
L112302 4342
" />
</g>
<g style="fill:#000000; fill-opacity:0.0; 
stroke:#000000; stroke-width:39.3701; stroke-opacity:1; 
stroke-linecap:round; stroke-linejoin:round;">
</g>
<g style="fill:#000000; fill-opacity:0.0; 
stroke:#000000; stroke-width:59.0551; stroke-opacity:1; 
stroke-linecap:round; stroke-linejoin:round;">
<path d="M23622 77955
L23622 78742
" />
</g>
<g style="fill:#000000; fill-opacity:0.0; 
stroke:#000000; stroke-width:39.3701; stroke-opacity:1; 
stroke-linecap:round; stroke-linejoin:round;">
</g>
<g style="fill:#000000; fill-opacity:0.0; 
stroke:#000000; stroke-width:59.0551; stroke-opacity:1; 
stroke-linecap:round; stroke-linejoin:round;">
<path d="M43307 77955
L43307 78742
" />
</g>
<g style="fill:#000000; fill-opacity:0.0; 
stroke:#000000; stroke-width:39.3701; stroke-opacity:1; 
stroke-linecap:round; stroke-linejoin:round;">
</g>
<g style="fill:#000000; fill-opacity:0.0; 
stroke:#000000; stroke-width:59.0551; stroke-opacity:1; 
stroke-linecap:round; stroke-linejoin:round;">
<path d="M62992 77955
L62992 78742
" />
</g>
<g style="fill:#000000; fill-opacity:0.0; 
stroke:#000000; stroke-width:39.3701; stroke-opacity:1; 
stroke-linecap:round; stroke-linejoin:round;">
</g>
<g style="fill:#000000; fill-opacity:0.0; 
stroke:#000000; stroke-width:59.0551; stroke-opacity:1; 
stroke-linecap:round; stroke-linejoin:round;">
<path d="M82677 77955
L82677 78742
" />
</g>
<g style="fill:#000000; fill-opacity:0.0; 
stroke:#000000; stroke-width:39.3701; stroke-opacity:1; 
stroke-linecap:round; stroke-linejoin:round;">
</g>
<g style="fill:#000000; fill-opacity:0.0; 
stroke:#000000; stroke-width:59.0551; stroke-opacity:1; 
stroke-linecap:round; stroke-linejoin:round;">
<path d="M102362 77955
L102362 78742
" />
</g>
<g style="fill:#000000; fill-opacity:0.0; 
stroke:#000000; stroke-width:39.3701; stroke-opacity:1; 
stroke-linecap:round; stroke-linejoin:round;">
</g>
<g style="fill:#000000; fill-opacity:0.0; 
stroke:#000000; stroke-width:59.0551; stroke-opacity:1; 
stroke-linecap:round; stroke-linejoin:round;">
<path d="M14169 78580
L13877 78580
" />
<path d="M14023 78580
L14023 78069
L13974 78142
L13925 78190
L13877 78215
" />
</g>
<g style="fill:#000000; fill-opacity:0.0; 
stroke:#000000; stroke-width:39.3701; stroke-opacity:1; 
stroke-linecap:round; stroke-linejoin:round;">
</g>
<g style="fill:#000000; fill-opacity:0.0; 
stroke:#000000; stroke-width:59.0551; stroke-opacity:1; 
stroke-linecap:round; stroke-linejoin:round;">
<path d="M33562 78117
L33586 78093
L33635 78069
L33757 78069
L33805 78093
L33830 78117
L33854 78166
L33854 78215
L33830 78288
L33537 78580
L33854 78580
" />
</g>
<g style="fill:#000000; fill-opacity:0.0; 
stroke:#000000; stroke-width:39.3701; stroke-opacity:1; 
stroke-linecap:round; stroke-linejoin:round;">
</g>
<g style="fill:#000000; fill-opacity:0.0; 
stroke:#000000; stroke-width:59.0551; stroke-opacity:1; 
stroke-linecap:round; stroke-linejoin:round;">
<path d="M53222 78069
L53539 78069
L53368 78263
L53442 78263
L53490 78288
L53515 78312
L53539 78361
L53539 78483
L53515 78532
L53490 78556
L53442 78580
L53295 78580
L53247 78556
L53222 78532
" />
</g>
<g style="fill:#000000; fill-opacity:0.0; 
stroke:#000000; stroke-width:39.3701; stroke-opacity:1; 
stroke-linecap:round; stroke-linejoin:round;">
</g>
<g style="fill:#000000; fill-opacity:0.0; 
stroke:#000000; stroke-width:59.0551; stroke-opacity:1; 
stroke-linecap:round; stroke-linejoin:round;">
<path d="M73175 78239
L73175 78580
" />
<path d="M73053 78044
L72932 78410
L73248 78410
" />
</g>
<g style="fill:#000000; fill-opacity:0.0; 
stroke:#000000; stroke-width:39.3701; stroke-opacity:1; 
stroke-linecap:round; stroke-linejoin:round;">
</g>
<g style="fill:#000000; fill-opacity:0.0; 
stroke:#000000; stroke-width:59.0551; stroke-opacity:1; 
stroke-linecap:round; stroke-linejoin:round;">
<path d="M92885 78069
L92641 78069
L92617 78312
L92641 78288
L92690 78263
L92812 78263
L92860 78288
L92885 78312
L92909 78361
L92909 78483
L92885 78532
L92860 78556
L92812 78580
L92690 78580
L92641 78556
L92617 78532
" />
</g>
<g style="fill:#000000; fill-opacity:0.0; 
stroke:#000000; stroke-width:39.3701; stroke-opacity:1; 
stroke-linecap:round; stroke-linejoin:round;">
</g>
<g style="fill:#000000; fill-opacity:0.0; 
stroke:#000000; stroke-width:59.0551; stroke-opacity:1; 
stroke-linecap:round; stroke-linejoin:round;">
<path d="M112545 78069
L112448 78069
L112399 78093
L112375 78117
L112326 78190
L112302 78288
L112302 78483
L112326 78532
L112350 78556
L112399 78580
L112497 78580
L112545 78556
L112570 78532
L112594 78483
L112594 78361
L112570 78312
L112545 78288
L112497 78263
L112399 78263
L112350 78288
L112326 78312
L112302 78361
" />
</g>
<g style="fill:#000000; fill-opacity:0.0; 
stroke:#000000; stroke-width:39.3701; stroke-opacity:1; 
stroke-linecap:round; stroke-linejoin:round;">
</g>
<g style="fill:#000000; fill-opacity:0.0; 
stroke:#000000; stroke-width:59.0551; stroke-opacity:1; 
stroke-linecap:round; stroke-linejoin:round;">
<path d="M3937 23622
L4724 23622
" />
</g>
<g style="fill:#000000; fill-opacity:0.0; 
stroke:#000000; stroke-width:39.3701; stroke-opacity:1; 
stroke-linecap:round; stroke-linejoin:round;">
</g>
<g style="fill:#000000; fill-opacity:0.0; 
stroke:#000000; stroke-width:59.0551; stroke-opacity:1; 
stroke-linecap:round; stroke-linejoin:round;">
<path d="M3937 43307
L4724 43307
" />
</g>
<g style="fill:#000000; fill-opacity:0.0; 
stroke:#000000; stroke-width:39.3701; stroke-opacity:1; 
stroke-linecap:round; stroke-linejoin:round;">
</g>
<g style="fill:#000000; fill-opacity:0.0; 
stroke:#000000; stroke-width:59.0551; stroke-opacity:1; 
stroke-linecap:round; stroke-linejoin:round;">
<path d="M3937 62992
L4724 62992
" />
</g>
<g style="fill:#000000; fill-opacity:0.0; 
stroke:#000000; stroke-width:39.3701; stroke-opacity:1; 
stroke-linecap:round; stroke-linejoin:round;">
</g>
<g style="fill:#000000; fill-opacity:0.0; 
stroke:#000000; stroke-width:59.0551; stroke-opacity:1; 
stroke-linecap:round; stroke-linejoin:round;">
<path d="M4208 13864
L4452 13864
" />
<path d="M4160 14011
L4330 13499
L4501 14011
" />
</g>
<g style="fill:#000000; fill-opacity:0.0; 
stroke:#000000; stroke-width:39.3701; stroke-opacity:1; 
stroke-linecap:round; stroke-linejoin:round;">
</g>
<g style="fill:#000000; fill-opacity:0.0; 
stroke:#000000; stroke-width:59.0551; stroke-opacity:1; 
stroke-linecap:round; stroke-linejoin:round;">
<path d="M4367 33428
L4440 33452
L4464 33476
L4489 33525
L4489 33598
L4464 33647
L4440 33671
L4391 33696
L4196 33696
L4196 33184
L4367 33184
L4416 33208
L4440 33233
L4464 33281
L4464 33330
L4440 33379
L4416 33403
L4367 33428
L4196 33428
" />
</g>
<g style="fill:#000000; fill-opacity:0.0; 
stroke:#000000; stroke-width:39.3701; stroke-opacity:1; 
stroke-linecap:round; stroke-linejoin:round;">
</g>
<g style="fill:#000000; fill-opacity:0.0; 
stroke:#000000; stroke-width:59.0551; stroke-opacity:1; 
stroke-linecap:round; stroke-linejoin:round;">
<path d="M4489 53332
L4464 53356
L4391 53381
L4342 53381
L4269 53356
L4221 53308
L4196 53259
L4172 53161
L4172 53088
L4196 52991
L4221 52942
L4269 52893
L4342 52869
L4391 52869
L4464 52893
L4489 52918
" />
</g>
<g style="fill:#000000; fill-opacity:0.0; 
stroke:#000000; stroke-width:39.3701; stroke-opacity:1; 
stroke-linecap:round; stroke-linejoin:round;">
</g>
<g style="fill:#000000; fill-opacity:0.0; 
stroke:#000000; stroke-width:59.0551; stroke-opacity:1; 
stroke-linecap:round; stroke-linejoin:round;">
<path d="M4196 73066
L4196 72554
L4318 72554
L4391 72578
L4440 72627
L4464 72676
L4489 72773
L4489 72846
L4464 72944
L4440 72993
L4391 73041
L4318 73066
L4196 73066
" />
</g>
<g style="fill:#000000; fill-opacity:0.0; 
stroke:#000000; stroke-width:39.3701; stroke-opacity:1; 
stroke-linecap:round; stroke-linejoin:round;">
</g>
<g style="fill:#000000; fill-opacity:0.0; 
stroke:#000000; stroke-width:59.0551; stroke-opacity:1; 
stroke-linecap:round; stroke-linejoin:round;">
<path d="M112992 23622
L112205 23622
" />
</g>
<g style="fill:#000000; fill-opacity:0.0; 
stroke:#000000; stroke-width:39.3701; stroke-opacity:1; 
stroke-linecap:round; stroke-linejoin:round;">
</g>
<g style="fill:#000000; fill-opacity:0.0; 
stroke:#000000; stroke-width:59.0551; stroke-opacity:1; 
stroke-linecap:round; stroke-linejoin:round;">
<path d="M112992 43307
L112205 43307
" />
</g>
<g style="fill:#000000; fill-opacity:0.0; 
stroke:#000000; stroke-width:39.3701; stroke-opacity:1; 
stroke-linecap:round; stroke-linejoin:round;">
</g>
<g style="fill:#000000; fill-opacity:0.0; 
stroke:#000000; stroke-width:59.0551; stroke-opacity:1; 
stroke-linecap:round; stroke-linejoin:round;">
<path d="M112992 62992
L112205 62992
" />
</g>
<g style="fill:#000000; fill-opacity:0.0; 
stroke:#000000; stroke-width:39.3701; stroke-opacity:1; 
stroke-linecap:round; stroke-linejoin:round;">
</g>
<g style="fill:#000000; fill-opacity:0.0; 
stroke:#000000; stroke-width:59.0551; stroke-opacity:1; 
stroke-linecap:round; stroke-linejoin:round;">
<path d="M112477 13864
L112721 13864
" />
<path d="M112428 14011
L112599 13499
L112769 14011
" />
</g>
<g style="fill:#000000; fill-opacity:0.0; 
stroke:#000000; stroke-width:39.3701; stroke-opacity:1; 
stroke-linecap:round; stroke-linejoin:round;">
</g>
<g style="fill:#000000; fill-opacity:0.0; 
stroke:#000000; stroke-width:59.0551; stroke-opacity:1; 
stroke-linecap:round; stroke-linejoin:round;">
<path d="M112635 33428
L112708 33452
L112733 33476
L112757 33525
L112757 33598
L112733 33647
L112708 33671
L112660 33696
L112465 33696
L112465 33184
L112635 33184
L112684 33208
L112708 33233
L112733 33281
L112733 33330
L112708 33379
L112684 33403
L112635 33428
L112465 33428
" />
</g>
<g style="fill:#000000; fill-opacity:0.0; 
stroke:#000000; stroke-width:39.3701; stroke-opacity:1; 
stroke-linecap:round; stroke-linejoin:round;">
</g>
<g style="fill:#000000; fill-opacity:0.0; 
stroke:#000000; stroke-width:59.0551; stroke-opacity:1; 
stroke-linecap:round; stroke-linejoin:round;">
<path d="M112757 53332
L112733 53356
L112660 53381
L112611 53381
L112538 53356
L112489 53308
L112465 53259
L112440 53161
L112440 53088
L112465 52991
L112489 52942
L112538 52893
L112611 52869
L112660 52869
L112733 52893
L112757 52918
" />
</g>
<g style="fill:#000000; fill-opacity:0.0; 
stroke:#000000; stroke-width:39.3701; stroke-opacity:1; 
stroke-linecap:round; stroke-linejoin:round;">
</g>
<g style="fill:#000000; fill-opacity:0.0; 
stroke:#000000; stroke-width:59.0551; stroke-opacity:1; 
stroke-linecap:round; stroke-linejoin:round;">
<path d="M112465 73066
L112465 72554
L112587 72554
L112660 72578
L112708 72627
L112733 72676
L112757 72773
L112757 72846
L112733 72944
L112708 72993
L112660 73041
L112587 73066
L112465 73066
" />
</g>
<g style="fill:#000000; fill-opacity:0.0; 
stroke:#000000; stroke-width:39.3701; stroke-opacity:1; 
stroke-linecap:round; stroke-linejoin:round;">
</g>
<g style="fill:#000000; fill-opacity:0.0; 
stroke:#000000; stroke-width:59.0551; stroke-opacity:1; 
stroke-linecap:round; stroke-linejoin:round;">
<path d="M78881 76293
L78881 75703
L79022 75703
L79106 75731
L79162 75787
L79190 75843
L79219 75956
L79219 76040
L79190 76153
L79162 76209
L79106 76265
L79022 76293
L78881 76293
" />
<path d="M79725 76293
L79725 75984
L79697 75928
L79640 75899
L79528 75899
L79472 75928
" />
<path d="M79725 76265
L79669 76293
L79528 76293
L79472 76265
L79444 76209
L79444 76153
L79472 76096
L79528 76068
L79669 76068
L79725 76040
" />
<path d="M79922 75899
L80147 75899
" />
<path d="M80006 75703
L80006 76209
L80034 76265
L80090 76293
L80147 76293
" />
<path d="M80568 76265
L80512 76293
L80400 76293
L80343 76265
L80315 76209
L80315 75984
L80343 75928
L80400 75899
L80512 75899
L80568 75928
L80597 75984
L80597 76040
L80315 76096
" />
<path d="M80850 76237
L80878 76265
L80850 76293
L80822 76265
L80850 76237
L80850 76293
" />
<path d="M80850 75928
L80878 75956
L80850 75984
L80822 75956
L80850 75928
L80850 75984
" />
</g>
<g style="fill:#000000; fill-opacity:0.0; 
stroke:#000000; stroke-width:39.3701; stroke-opacity:1; 
stroke-linecap:round; stroke-linejoin:round;">
</g>
<g style="fill:#000000; fill-opacity:0.0; 
stroke:#000000; stroke-width:59.0551; stroke-opacity:1; 
stroke-linecap:round; stroke-linejoin:round;">
<path d="M69685 76577
L112205 76577
" />
</g>
<g style="fill:#000000; fill-opacity:0.0; 
stroke:#000000; stroke-width:39.3701; stroke-opacity:1; 
stroke-linecap:round; stroke-linejoin:round;">
</g>
<g style="fill:#000000; fill-opacity:0.0; 
stroke:#000000; stroke-width:59.0551; stroke-opacity:1; 
stroke-linecap:round; stroke-linejoin:round;">
<path d="M70220 77395
L70220 76805
" />
<path d="M70557 77395
L70304 77058
" />
<path d="M70557 76805
L70220 77142
" />
<path d="M70810 77395
L70810 77002
" />
<path d="M70810 76805
L70782 76833
L70810 76861
L70838 76833
L70810 76805
L70810 76861
" />
<path d="M71429 77339
L71401 77367
L71316 77395
L71260 77395
L71176 77367
L71120 77311
L71091 77255
L71063 77142
L71063 77058
L71091 76946
L71120 76889
L71176 76833
L71260 76805
L71316 76805
L71401 76833
L71429 76861
" />
<path d="M71935 77395
L71935 77086
L71907 77030
L71851 77002
L71738 77002
L71682 77030
" />
<path d="M71935 77367
L71879 77395
L71738 77395
L71682 77367
L71654 77311
L71654 77255
L71682 77199
L71738 77171
L71879 77171
L71935 77142
" />
<path d="M72469 77395
L72469 76805
" />
<path d="M72469 77367
L72413 77395
L72301 77395
L72244 77367
L72216 77339
L72188 77283
L72188 77114
L72216 77058
L72244 77030
L72301 77002
L72413 77002
L72469 77030
" />
<path d="M73201 77086
L73397 77086
" />
<path d="M73482 77395
L73201 77395
L73201 76805
L73482 76805
" />
<path d="M73735 77339
L73763 77367
L73735 77395
L73707 77367
L73735 77339
L73735 77395
" />
<path d="M74016 77395
L74016 76805
L74157 76805
L74241 76833
L74297 76889
L74325 76946
L74354 77058
L74354 77142
L74325 77255
L74297 77311
L74241 77367
L74157 77395
L74016 77395
" />
<path d="M74607 77339
L74635 77367
L74607 77395
L74579 77367
L74607 77339
L74607 77395
" />
<path d="M74860 77227
L75141 77227
" />
<path d="M74804 77395
L75000 76805
L75197 77395
" />
<path d="M75394 77339
L75422 77367
L75394 77395
L75366 77367
L75394 77339
L75394 77395
" />
<path d="M76575 77395
L76575 76805
" />
<path d="M76631 77171
L76800 77395
" />
<path d="M76800 77002
L76575 77227
" />
<path d="M77053 77395
L77053 77002
" />
<path d="M77053 76805
L77025 76833
L77053 76861
L77081 76833
L77053 76805
L77053 76861
" />
<path d="M77588 77367
L77531 77395
L77419 77395
L77363 77367
L77334 77339
L77306 77283
L77306 77114
L77334 77058
L77363 77030
L77419 77002
L77531 77002
L77588 77030
" />
<path d="M78094 77395
L78094 77086
L78066 77030
L78009 77002
L77897 77002
L77841 77030
" />
<path d="M78094 77367
L78037 77395
L77897 77395
L77841 77367
L77813 77311
L77813 77255
L77841 77199
L77897 77171
L78037 77171
L78094 77142
" />
<path d="M78628 77395
L78628 76805
" />
<path d="M78628 77367
L78572 77395
L78459 77395
L78403 77367
L78375 77339
L78347 77283
L78347 77114
L78375 77058
L78403 77030
L78459 77002
L78572 77002
L78628 77030
" />
<path d="M79612 77002
L79612 77395
" />
<path d="M79472 76777
L79331 77199
L79697 77199
" />
<path d="M79922 77339
L79950 77367
L79922 77395
L79894 77367
L79922 77339
L79922 77395
" />
<path d="M80315 76805
L80372 76805
L80428 76833
L80456 76861
L80484 76917
L80512 77030
L80512 77171
L80484 77283
L80456 77339
L80428 77367
L80372 77395
L80315 77395
L80259 77367
L80231 77339
L80203 77283
L80175 77171
L80175 77030
L80203 76917
L80231 76861
L80259 76833
L80315 76805
" />
<path d="M80765 77339
L80793 77367
L80765 77395
L80737 77367
L80765 77339
L80765 77395
" />
<path d="M80990 76805
L81384 76805
L81131 77395
" />
</g>
<g style="fill:#000000; fill-opacity:0.0; 
stroke:#000000; stroke-width:39.3701; stroke-opacity:1; 
stroke-linecap:round; stroke-linejoin:round;">
</g>
<g style="fill:#000000; fill-opacity:0.0; 
stroke:#000000; stroke-width:59.0551; stroke-opacity:1; 
stroke-linecap:round; stroke-linejoin:round;">
<path d="M69685 75396
L112205 75396
" />
</g>
<g style="fill:#000000; fill-opacity:0.0; 
stroke:#000000; stroke-width:39.3701; stroke-opacity:1; 
stroke-linecap:round; stroke-linejoin:round;">
</g>
<g style="fill:#000000; fill-opacity:0.0; 
stroke:#000000; stroke-width:118.11; stroke-opacity:1; 
stroke-linecap:round; stroke-linejoin:round;">
<path d="M104022 76293
L103825 76012
" />
<path d="M103684 76293
L103684 75703
L103909 75703
L103965 75731
L103994 75759
L104022 75815
L104022 75899
L103994 75956
L103965 75984
L103909 76012
L103684 76012
" />
<path d="M104500 76265
L104444 76293
L104331 76293
L104275 76265
L104247 76209
L104247 75984
L104275 75928
L104331 75899
L104444 75899
L104500 75928
L104528 75984
L104528 76040
L104247 76096
" />
<path d="M104725 75899
L104865 76293
L105006 75899
" />
<path d="M105231 76237
L105259 76265
L105231 76293
L105203 76265
L105231 76237
L105231 76293
" />
<path d="M105231 75928
L105259 75956
L105231 75984
L105203 75956
L105231 75928
L105231 75984
" />
</g>
<g style="fill:#000000; fill-opacity:0.0; 
stroke:#000000; stroke-width:39.3701; stroke-opacity:1; 
stroke-linecap:round; stroke-linejoin:round;">
</g>
<g style="fill:#000000; fill-opacity:0.0; 
stroke:#000000; stroke-width:59.0551; stroke-opacity:1; 
stroke-linecap:round; stroke-linejoin:round;">
<path d="M70192 76265
L70276 76293
L70417 76293
L70473 76265
L70501 76237
L70529 76181
L70529 76124
L70501 76068
L70473 76040
L70417 76012
L70304 75984
L70248 75956
L70220 75928
L70192 75871
L70192 75815
L70220 75759
L70248 75731
L70304 75703
L70445 75703
L70529 75731
" />
<path d="M70782 76293
L70782 75899
" />
<path d="M70782 75703
L70754 75731
L70782 75759
L70810 75731
L70782 75703
L70782 75759
" />
<path d="M71007 75899
L71316 75899
L71007 76293
L71316 76293
" />
<path d="M71766 76265
L71710 76293
L71598 76293
L71541 76265
L71513 76209
L71513 75984
L71541 75928
L71598 75899
L71710 75899
L71766 75928
L71795 75984
L71795 76040
L71513 76096
" />
<path d="M72048 76237
L72076 76265
L72048 76293
L72019 76265
L72048 76237
L72048 76293
" />
<path d="M72048 75928
L72076 75956
L72048 75984
L72019 75956
L72048 75928
L72048 75984
" />
<path d="M72751 76124
L73032 76124
" />
<path d="M72694 76293
L72891 75703
L73088 76293
" />
<path d="M73538 75899
L73538 76293
" />
<path d="M73397 75674
L73257 76096
L73622 76096
" />
</g>
<g style="fill:#000000; fill-opacity:0.0; 
stroke:#000000; stroke-width:39.3701; stroke-opacity:1; 
stroke-linecap:round; stroke-linejoin:round;">
</g>
<g style="fill:#000000; fill-opacity:0.0; 
stroke:#000000; stroke-width:59.0551; stroke-opacity:1; 
stroke-linecap:round; stroke-linejoin:round;">
<path d="M103684 77395
L103684 76805
" />
<path d="M104219 77395
L104219 76805
" />
<path d="M104219 77367
L104162 77395
L104050 77395
L103994 77367
L103965 77339
L103937 77283
L103937 77114
L103965 77058
L103994 77030
L104050 77002
L104162 77002
L104219 77030
" />
<path d="M104500 77339
L104528 77367
L104500 77395
L104472 77367
L104500 77339
L104500 77395
" />
<path d="M104500 77030
L104528 77058
L104500 77086
L104472 77058
L104500 77030
L104500 77086
" />
<path d="M105540 77395
L105203 77395
" />
<path d="M105372 77395
L105372 76805
L105315 76889
L105259 76946
L105203 76974
" />
<path d="M106215 76777
L105709 77536
" />
<path d="M106721 77395
L106384 77395
" />
<path d="M106553 77395
L106553 76805
L106496 76889
L106440 76946
L106384 76974
" />
</g>
<g style="fill:#000000; fill-opacity:0.0; 
stroke:#000000; stroke-width:39.3701; stroke-opacity:1; 
stroke-linecap:round; stroke-linejoin:round;">
</g>
<g style="fill:#000000; fill-opacity:0.0; 
stroke:#000000; stroke-width:59.0551; stroke-opacity:1; 
stroke-linecap:round; stroke-linejoin:round;">
<path d="M69685 73821
L112205 73821
" />
</g>
<g style="fill:#000000; fill-opacity:0.0; 
stroke:#000000; stroke-width:39.3701; stroke-opacity:1; 
stroke-linecap:round; stroke-linejoin:round;">
</g>
<g style="fill:#000000; fill-opacity:0.0; 
stroke:#000000; stroke-width:157.48; stroke-opacity:1; 
stroke-linecap:round; stroke-linejoin:round;">
<path d="M70257 74099
L70707 74099
" />
<path d="M70384 74886
L70482 74099
" />
<path d="M70871 74886
L70937 74361
" />
<path d="M70970 74099
L70927 74136
L70960 74174
L71002 74136
L70970 74099
L70960 74174
" />
<path d="M71199 74361
L71499 74361
" />
<path d="M71345 74099
L71260 74774
L71288 74849
L71359 74886
L71434 74886
" />
<path d="M71809 74886
L71738 74849
L71710 74774
L71795 74099
" />
<path d="M72413 74849
L72334 74886
L72184 74886
L72113 74849
L72085 74774
L72123 74474
L72169 74399
L72249 74361
L72399 74361
L72469 74399
L72498 74474
L72488 74549
L72104 74624
" />
<path d="M72793 74811
L72826 74849
L72783 74886
L72751 74849
L72793 74811
L72783 74886
" />
<path d="M72844 74399
L72877 74436
L72835 74474
L72802 74436
L72844 74399
L72835 74474
" />
</g>
<g style="fill:#000000; fill-opacity:0.0; 
stroke:#000000; stroke-width:39.3701; stroke-opacity:1; 
stroke-linecap:round; stroke-linejoin:round;">
</g>
<g style="fill:#000000; fill-opacity:0.0; 
stroke:#000000; stroke-width:59.0551; stroke-opacity:1; 
stroke-linecap:round; stroke-linejoin:round;">
<path d="M70417 73070
L70220 73070
" />
<path d="M70220 73380
L70220 72789
L70501 72789
" />
<path d="M70726 73380
L70726 72986
" />
<path d="M70726 72789
L70698 72817
L70726 72845
L70754 72817
L70726 72789
L70726 72845
" />
<path d="M71091 73380
L71035 73352
L71007 73295
L71007 72789
" />
<path d="M71541 73352
L71485 73380
L71373 73380
L71316 73352
L71288 73295
L71288 73070
L71316 73014
L71373 72986
L71485 72986
L71541 73014
L71570 73070
L71570 73127
L71288 73183
" />
<path d="M71823 73323
L71851 73352
L71823 73380
L71795 73352
L71823 73323
L71823 73380
" />
<path d="M71823 73014
L71851 73042
L71823 73070
L71795 73042
L71823 73014
L71823 73070
" />
<path d="M72554 73070
L72751 73070
" />
<path d="M72835 73380
L72554 73380
L72554 72789
L72835 72789
" />
<path d="M73060 73352
L73144 73380
L73285 73380
L73341 73352
L73369 73323
L73397 73267
L73397 73211
L73369 73155
L73341 73127
L73285 73099
L73172 73070
L73116 73042
L73088 73014
L73060 72958
L73060 72902
L73088 72845
L73116 72817
L73172 72789
L73313 72789
L73397 72817
" />
<path d="M73651 73380
L73651 72789
L73876 72789
L73932 72817
L73960 72845
L73988 72902
L73988 72986
L73960 73042
L73932 73070
L73876 73099
L73651 73099
" />
<path d="M74185 72789
L74550 72789
L74354 73014
L74438 73014
L74494 73042
L74522 73070
L74550 73127
L74550 73267
L74522 73323
L74494 73352
L74438 73380
L74269 73380
L74213 73352
L74185 73323
" />
<path d="M74775 72845
L74804 72817
L74860 72789
L75000 72789
L75057 72817
L75085 72845
L75113 72902
L75113 72958
L75085 73042
L74747 73380
L75113 73380
" />
<path d="M75225 73436
L75675 73436
" />
<path d="M76153 73323
L76125 73352
L76041 73380
L75985 73380
L75900 73352
L75844 73295
L75816 73239
L75788 73127
L75788 73042
L75816 72930
L75844 72874
L75900 72817
L75985 72789
L76041 72789
L76125 72817
L76153 72845
" />
<path d="M76491 73380
L76435 73352
L76406 73295
L76406 72789
" />
<path d="M76800 73380
L76744 73352
L76716 73323
L76688 73267
L76688 73099
L76716 73042
L76744 73014
L76800 72986
L76885 72986
L76941 73014
L76969 73042
L76997 73099
L76997 73267
L76969 73323
L76941 73352
L76885 73380
L76800 73380
" />
<path d="M77503 73352
L77447 73380
L77334 73380
L77278 73352
L77250 73323
L77222 73267
L77222 73099
L77250 73042
L77278 73014
L77334 72986
L77447 72986
L77503 73014
" />
<path d="M77756 73380
L77756 72789
" />
<path d="M77813 73155
L77981 73380
" />
<path d="M77981 72986
L77756 73211
" />
<path d="M78234 73323
L78262 73352
L78234 73380
L78206 73352
L78234 73323
L78234 73380
" />
<path d="M78516 73380
L78516 72789
" />
<path d="M78572 73155
L78741 73380
" />
<path d="M78741 72986
L78516 73211
" />
<path d="M78994 73380
L78994 72986
" />
<path d="M78994 72789
L78965 72817
L78994 72845
L79022 72817
L78994 72789
L78994 72845
" />
<path d="M79528 73352
L79472 73380
L79359 73380
L79303 73352
L79275 73323
L79247 73267
L79247 73099
L79275 73042
L79303 73014
L79359 72986
L79472 72986
L79528 73014
" />
<path d="M80034 73380
L80034 73070
L80006 73014
L79950 72986
L79837 72986
L79781 73014
" />
<path d="M80034 73352
L79978 73380
L79837 73380
L79781 73352
L79753 73295
L79753 73239
L79781 73183
L79837 73155
L79978 73155
L80034 73127
" />
<path d="M80568 73380
L80568 72789
" />
<path d="M80568 73352
L80512 73380
L80400 73380
L80343 73352
L80315 73323
L80287 73267
L80287 73099
L80315 73042
L80343 73014
L80400 72986
L80512 72986
L80568 73014
" />
<path d="M80709 73436
L81159 73436
" />
<path d="M81300 72986
L81300 73577
" />
<path d="M81300 73014
L81356 72986
L81468 72986
L81525 73014
L81553 73042
L81581 73099
L81581 73267
L81553 73323
L81525 73352
L81468 73380
L81356 73380
L81300 73352
" />
<path d="M82087 73352
L82031 73380
L81918 73380
L81862 73352
L81834 73323
L81806 73267
L81806 73099
L81834 73042
L81862 73014
L81918 72986
L82031 72986
L82087 73014
" />
<path d="M82340 73380
L82340 72789
" />
<path d="M82340 73014
L82396 72986
L82509 72986
L82565 73014
L82593 73042
L82621 73099
L82621 73267
L82593 73323
L82565 73352
L82509 73380
L82396 73380
L82340 73352
" />
</g>
<g style="fill:#000000; fill-opacity:0.0; 
stroke:#000000; stroke-width:39.3701; stroke-opacity:1; 
stroke-linecap:round; stroke-linejoin:round;">
</g>
<g style="fill:#000000; fill-opacity:0.0; 
stroke:#000000; stroke-width:59.0551; stroke-opacity:1; 
stroke-linecap:round; stroke-linejoin:round;">
<path d="M69685 71459
L112205 71459
" />
</g>
<g style="fill:#000000; fill-opacity:0.0; 
stroke:#000000; stroke-width:39.3701; stroke-opacity:1; 
stroke-linecap:round; stroke-linejoin:round;">
</g>
<g style="fill:#000000; fill-opacity:0.0; 
stroke:#000000; stroke-width:59.0551; stroke-opacity:1; 
stroke-linecap:round; stroke-linejoin:round;">
<path d="M70192 72289
L70276 72317
L70417 72317
L70473 72289
L70501 72260
L70529 72204
L70529 72148
L70501 72092
L70473 72064
L70417 72036
L70304 72007
L70248 71979
L70220 71951
L70192 71895
L70192 71839
L70220 71782
L70248 71754
L70304 71726
L70445 71726
L70529 71754
" />
<path d="M70782 72317
L70782 71726
" />
<path d="M71035 72317
L71035 72007
L71007 71951
L70951 71923
L70867 71923
L70810 71951
L70782 71979
" />
<path d="M71541 72289
L71485 72317
L71373 72317
L71316 72289
L71288 72232
L71288 72007
L71316 71951
L71373 71923
L71485 71923
L71541 71951
L71570 72007
L71570 72064
L71288 72120
" />
<path d="M72048 72289
L71991 72317
L71879 72317
L71823 72289
L71795 72232
L71795 72007
L71823 71951
L71879 71923
L71991 71923
L72048 71951
L72076 72007
L72076 72064
L71795 72120
" />
<path d="M72244 71923
L72469 71923
" />
<path d="M72329 71726
L72329 72232
L72357 72289
L72413 72317
L72469 72317
" />
<path d="M72666 72260
L72694 72289
L72666 72317
L72638 72289
L72666 72260
L72666 72317
" />
<path d="M72666 71951
L72694 71979
L72666 72007
L72638 71979
L72666 71951
L72666 72007
" />
</g>
<g style="fill:#000000; fill-opacity:0.0; 
stroke:#000000; stroke-width:39.3701; stroke-opacity:1; 
stroke-linecap:round; stroke-linejoin:round;">
</g>
<g style="fill:#000000; fill-opacity:0.0; 
stroke:#000000; stroke-width:59.0551; stroke-opacity:1; 
stroke-linecap:round; stroke-linejoin:round;">
<path d="M77559 75396
L77559 76577
" />
</g>
<g style="fill:#000000; fill-opacity:0.0; 
stroke:#000000; stroke-width:39.3701; stroke-opacity:1; 
stroke-linecap:round; stroke-linejoin:round;">
</g>
<g style="fill:#000000; fill-opacity:0.0; 
stroke:#000000; stroke-width:59.0551; stroke-opacity:1; 
stroke-linecap:round; stroke-linejoin:round;">
<path d="M102756 75396
L102756 77955
" />
</g>
<g style="fill:#C2C200; fill-opacity:0.0; 
stroke:#C2C200; stroke-width:59.0551; stroke-opacity:1; 
stroke-linecap:round; stroke-linejoin:round;">
</g>
<g style="fill:#C2C200; fill-opacity:0.0; 
stroke:#C2C200; stroke-width:39.3701; stroke-opacity:1; 
stroke-linecap:round; stroke-linejoin:round;">
<path d="M20300 49700
L20300 10300
" />
<path d="M59700 49700
L20300 49700
" />
<path d="M59700 10300
L59700 49700
" />
<path d="M20300 10300
L59700 10300
" />
</g>
<g style="fill:#840000; fill-opacity:0.0; 
stroke:#840000; stroke-width:39.3701; stroke-opacity:1; 
stroke-linecap:round; stroke-linejoin:round;">
</g>
<g style="fill:#840000; fill-opacity:0.0; 
stroke:#840000; stroke-width:0; stroke-opacity:1; 
stroke-linecap:round; stroke-linejoin:round;">
</g>
<g style="fill:#840000; fill-opacity:1.0; 
stroke:#840000; stroke-width:0; stroke-opacity:1; 
stroke-linecap:round; stroke-linejoin:round;">
<polyline style="fill-rule:evenodd;"
points="27846,46079
27353,46079
27353,45488
27846,45488
27846,46079
" /> 
<polyline style="fill-rule:evenodd;"
points="27846,45095
27353,45095
27353,44504
27846,44504
27846,45095
" /> 
<polyline style="fill-rule:evenodd;"
points="24846,46087
24353,46087
24353,45496
24846,45496
24846,46087
" /> 
<polyline style="fill-rule:evenodd;"
points="24846,45103
24353,45103
24353,44512
24846,44512
24846,45103
" /> 
<polyline style="fill-rule:evenodd;"
points="30853,15612
31346,15612
31346,16203
30853,16203
30853,15612
" /> 
<polyline style="fill-rule:evenodd;"
points="30853,16596
31346,16596
31346,17187
30853,17187
30853,16596
" /> 
<polyline style="fill-rule:evenodd;"
points="32684,43152
32684,43447
32211,43447
32211,43152
32684,43152
" /> 
<polyline style="fill-rule:evenodd;"
points="31936,43152
31936,43447
31463,43447
31463,43152
31936,43152
" /> 
<polyline style="fill-rule:evenodd;"
points="29512,43546
29512,43053
30103,43053
30103,43546
29512,43546
" /> 
<polyline style="fill-rule:evenodd;"
points="30496,43546
30496,43053
31087,43053
31087,43546
30496,43546
" /> 
<polyline style="fill-rule:evenodd;"
points="32146,15487
31653,15487
31653,14896
32146,14896
32146,15487
" /> 
<polyline style="fill-rule:evenodd;"
points="32146,14503
31653,14503
31653,13912
32146,13912
32146,14503
" /> 
<polyline style="fill-rule:evenodd;"
points="31347,15310
31052,15310
31052,14837
31347,14837
31347,15310
" /> 
<polyline style="fill-rule:evenodd;"
points="31347,14562
31052,14562
31052,14089
31347,14089
31347,14562
" /> 
<polyline style="fill-rule:evenodd;"
points="24387,37853
24387,38346
23796,38346
23796,37853
24387,37853
" /> 
<polyline style="fill-rule:evenodd;"
points="23403,37853
23403,38346
22812,38346
22812,37853
23403,37853
" /> 
<polyline style="fill-rule:evenodd;"
points="24236,37252
24236,37547
23763,37547
23763,37252
24236,37252
" /> 
<polyline style="fill-rule:evenodd;"
points="23488,37252
23488,37547
23015,37547
23015,37252
23488,37252
" /> 
<polyline style="fill-rule:evenodd;"
points="23102,29389
23397,29389
23397,29862
23102,29862
23102,29389
" /> 
<polyline style="fill-rule:evenodd;"
points="23102,30137
23397,30137
23397,30610
23102,30610
23102,30137
" /> 
<polyline style="fill-rule:evenodd;"
points="39389,46897
39389,46602
39862,46602
39862,46897
39389,46897
" /> 
<polyline style="fill-rule:evenodd;"
points="40137,46897
40137,46602
40610,46602
40610,46897
40137,46897
" /> 
<polyline style="fill-rule:evenodd;"
points="56897,30610
56602,30610
56602,30137
56897,30137
56897,30610
" /> 
<polyline style="fill-rule:evenodd;"
points="56897,29862
56602,29862
56602,29389
56897,29389
56897,29862
" /> 
<polyline style="fill-rule:evenodd;"
points="40610,13102
40610,13397
40137,13397
40137,13102
40610,13102
" /> 
<polyline style="fill-rule:evenodd;"
points="39862,13102
39862,13397
39389,13397
39389,13102
39862,13102
" /> 
<polyline style="fill-rule:evenodd;"
points="33829,18092
33977,18347
33568,18584
33420,18328
33829,18092
" /> 
<polyline style="fill-rule:evenodd;"
points="33181,18466
33329,18721
32920,18958
32772,18702
33181,18466
" /> 
<polyline style="fill-rule:evenodd;"
points="28702,22772
28958,22920
28721,23329
28466,23181
28702,22772
" /> 
<polyline style="fill-rule:evenodd;"
points="28328,23420
28584,23568
28347,23977
28092,23829
28328,23420
" /> 
<polyline style="fill-rule:evenodd;"
points="26602,29389
26897,29389
26897,29862
26602,29862
26602,29389
" /> 
<polyline style="fill-rule:evenodd;"
points="26602,30137
26897,30137
26897,30610
26602,30610
26602,30137
" /> 
<polyline style="fill-rule:evenodd;"
points="28092,36170
28347,36022
28584,36431
28328,36579
28092,36170
" /> 
<polyline style="fill-rule:evenodd;"
points="28466,36818
28721,36670
28958,37079
28702,37227
28466,36818
" /> 
<polyline style="fill-rule:evenodd;"
points="32772,41297
32920,41041
33329,41278
33181,41533
32772,41297
" /> 
<polyline style="fill-rule:evenodd;"
points="33420,41671
33568,41415
33977,41652
33829,41907
33420,41671
" /> 
<polyline style="fill-rule:evenodd;"
points="39389,43397
39389,43102
39862,43102
39862,43397
39389,43397
" /> 
<polyline style="fill-rule:evenodd;"
points="40137,43397
40137,43102
40610,43102
40610,43397
40137,43397
" /> 
<polyline style="fill-rule:evenodd;"
points="46170,41907
46022,41652
46431,41415
46579,41671
46170,41907
" /> 
<polyline style="fill-rule:evenodd;"
points="46818,41533
46670,41278
47079,41041
47227,41297
46818,41533
" /> 
<polyline style="fill-rule:evenodd;"
points="47227,18702
47079,18958
46670,18721
46818,18466
47227,18702
" /> 
<polyline style="fill-rule:evenodd;"
points="46579,18328
46431,18584
46022,18347
46170,18092
46579,18328
" /> 
<polyline style="fill-rule:evenodd;"
points="40610,16602
40610,16897
40137,16897
40137,16602
40610,16602
" /> 
<polyline style="fill-rule:evenodd;"
points="39862,16602
39862,16897
39389,16897
39389,16602
39862,16602
" /> 
<polyline style="fill-rule:evenodd;"
points="35579,21123
35727,21378
35318,21615
35170,21359
35579,21123
" /> 
<polyline style="fill-rule:evenodd;"
points="34931,21497
35079,21753
34670,21989
34522,21733
34931,21497
" /> 
<polyline style="fill-rule:evenodd;"
points="31733,24522
31989,24670
31753,25079
31497,24931
31733,24522
" /> 
<polyline style="fill-rule:evenodd;"
points="31359,25170
31615,25318
31378,25727
31123,25579
31359,25170
" /> 
<polyline style="fill-rule:evenodd;"
points="30102,29389
30397,29389
30397,29862
30102,29862
30102,29389
" /> 
<polyline style="fill-rule:evenodd;"
points="30102,30137
30397,30137
30397,30610
30102,30610
30102,30137
" /> 
<polyline style="fill-rule:evenodd;"
points="31123,34420
31378,34272
31615,34681
31359,34829
31123,34420
" /> 
<polyline style="fill-rule:evenodd;"
points="31497,35068
31753,34920
31989,35329
31733,35477
31497,35068
" /> 
<polyline style="fill-rule:evenodd;"
points="34522,38266
34670,38010
35079,38246
34931,38502
34522,38266
" /> 
<polyline style="fill-rule:evenodd;"
points="35170,38640
35318,38384
35727,38621
35579,38876
35170,38640
" /> 
<polyline style="fill-rule:evenodd;"
points="39389,39897
39389,39602
39862,39602
39862,39897
39389,39897
" /> 
<polyline style="fill-rule:evenodd;"
points="40137,39897
40137,39602
40610,39602
40610,39897
40137,39897
" /> 
<polyline style="fill-rule:evenodd;"
points="44420,38876
44272,38621
44681,38384
44829,38640
44420,38876
" /> 
<polyline style="fill-rule:evenodd;"
points="45068,38502
44920,38246
45329,38010
45477,38266
45068,38502
" /> 
<polyline style="fill-rule:evenodd;"
points="48266,35477
48010,35329
48246,34920
48502,35068
48266,35477
" /> 
<polyline style="fill-rule:evenodd;"
points="48640,34829
48384,34681
48621,34272
48876,34420
48640,34829
" /> 
<polyline style="fill-rule:evenodd;"
points="48876,25579
48621,25727
48384,25318
48640,25170
48876,25579
" /> 
<polyline style="fill-rule:evenodd;"
points="48502,24931
48246,25079
48010,24670
48266,24522
48502,24931
" /> 
<polyline style="fill-rule:evenodd;"
points="45477,21733
45329,21989
44920,21753
45068,21497
45477,21733
" /> 
<polyline style="fill-rule:evenodd;"
points="44829,21359
44681,21615
44272,21378
44420,21123
44829,21359
" /> 
<polyline style="fill-rule:evenodd;"
points="40610,20102
40610,20397
40137,20397
40137,20102
40610,20102
" /> 
<polyline style="fill-rule:evenodd;"
points="39862,20102
39862,20397
39389,20397
39389,20102
39862,20102
" /> 
<polyline style="fill-rule:evenodd;"
points="41852,29389
42147,29389
42147,29862
41852,29862
41852,29389
" /> 
<polyline style="fill-rule:evenodd;"
points="41852,30137
42147,30137
42147,30610
41852,30610
41852,30137
" /> 
<polyline style="fill-rule:evenodd;"
points="41345,25649
42054,25649
42054,26673
41345,26673
41345,25649
" /> 
<polyline style="fill-rule:evenodd;"
points="41345,26988
42054,26988
42054,28011
41345,28011
41345,26988
" /> 
<polyline style="fill-rule:evenodd;"
points="42704,25382
43295,25382
43295,26642
42704,26642
42704,25382
" /> 
<polyline style="fill-rule:evenodd;"
points="42704,26957
43295,26957
43295,28217
42704,28217
42704,26957
" /> 
<polyline style="fill-rule:evenodd;"
points="43845,25618
44554,25618
44554,26642
43845,26642
43845,25618
" /> 
<polyline style="fill-rule:evenodd;"
points="43845,26957
44554,26957
44554,27981
43845,27981
43845,26957
" /> 
<polyline style="fill-rule:evenodd;"
points="23012,19846
23012,19353
23603,19353
23603,19846
23012,19846
" /> 
<polyline style="fill-rule:evenodd;"
points="23996,19846
23996,19353
24587,19353
24587,19846
23996,19846
" /> 
<polyline style="fill-rule:evenodd;"
points="23215,19047
23215,18752
23688,18752
23688,19047
23215,19047
" /> 
<polyline style="fill-rule:evenodd;"
points="23963,19047
23963,18752
24436,18752
24436,19047
23963,19047
" /> 
<polyline style="fill-rule:evenodd;"
points="21552,20515
21847,20515
21847,20988
21552,20988
21552,20515
" /> 
<polyline style="fill-rule:evenodd;"
points="21552,21263
21847,21263
21847,21736
21552,21736
21552,21263
" /> 
<polyline style="fill-rule:evenodd;"
points="21765,26134
21765,25465
22434,25465
22434,26134
21765,26134
" /> 
</g>
<g style="fill:#840000; fill-opacity:1.0; 
stroke:#840000; stroke-width:669.291; stroke-opacity:1; 
stroke-linecap:round; stroke-linejoin:round;">
</g>
<g style="fill:#840000; fill-opacity:0.0; 
stroke:#840000; stroke-width:669.291; stroke-opacity:1; 
stroke-linecap:round; stroke-linejoin:round;">
<path d="M22100 24800
L22100 24800
" />
<path d="M22100 23800
L22100 23800
" />
</g>
<g style="fill:#840000; fill-opacity:0.0; 
stroke:#840000; stroke-width:0; stroke-opacity:1; 
stroke-linecap:round; stroke-linejoin:round;">
</g>
<g style="fill:#840000; fill-opacity:1.0; 
stroke:#840000; stroke-width:0; stroke-opacity:1; 
stroke-linecap:round; stroke-linejoin:round;">
<polyline style="fill-rule:evenodd;"
points="21765,43234
21765,42565
22434,42565
22434,43234
21765,43234
" /> 
</g>
<g style="fill:#840000; fill-opacity:1.0; 
stroke:#840000; stroke-width:669.291; stroke-opacity:1; 
stroke-linecap:round; stroke-linejoin:round;">
</g>
<g style="fill:#840000; fill-opacity:0.0; 
stroke:#840000; stroke-width:669.291; stroke-opacity:1; 
stroke-linecap:round; stroke-linejoin:round;">
<path d="M22100 41900
L22100 41900
" />
<path d="M22100 40900
L22100 40900
" />
<path d="M22100 39900
L22100 39900
" />
</g>
<g style="fill:#840000; fill-opacity:0.0; 
stroke:#840000; stroke-width:0; stroke-opacity:1; 
stroke-linecap:round; stroke-linejoin:round;">
</g>
<g style="fill:#840000; fill-opacity:1.0; 
stroke:#840000; stroke-width:0; stroke-opacity:1; 
stroke-linecap:round; stroke-linejoin:round;">
<polyline style="fill-rule:evenodd;"
points="56134,44165
56134,44834
55465,44834
55465,44165
56134,44165
" /> 
</g>
<g style="fill:#840000; fill-opacity:1.0; 
stroke:#840000; stroke-width:669.291; stroke-opacity:1; 
stroke-linecap:round; stroke-linejoin:round;">
</g>
<g style="fill:#840000; fill-opacity:0.0; 
stroke:#840000; stroke-width:669.291; stroke-opacity:1; 
stroke-linecap:round; stroke-linejoin:round;">
<path d="M55800 45500
L55800 45500
" />
<path d="M55800 46500
L55800 46500
" />
<path d="M55800 47500
L55800 47500
" />
</g>
<g style="fill:#840000; fill-opacity:0.0; 
stroke:#840000; stroke-width:0; stroke-opacity:1; 
stroke-linecap:round; stroke-linejoin:round;">
</g>
<g style="fill:#840000; fill-opacity:1.0; 
stroke:#840000; stroke-width:0; stroke-opacity:1; 
stroke-linecap:round; stroke-linejoin:round;">
<polyline style="fill-rule:evenodd;"
points="53134,44165
53134,44834
52465,44834
52465,44165
53134,44165
" /> 
</g>
<g style="fill:#840000; fill-opacity:1.0; 
stroke:#840000; stroke-width:669.291; stroke-opacity:1; 
stroke-linecap:round; stroke-linejoin:round;">
</g>
<g style="fill:#840000; fill-opacity:0.0; 
stroke:#840000; stroke-width:669.291; stroke-opacity:1; 
stroke-linecap:round; stroke-linejoin:round;">
<path d="M52800 45500
L52800 45500
" />
<path d="M52800 46500
L52800 46500
" />
<path d="M52800 47500
L52800 47500
" />
</g>
<g style="fill:#840000; fill-opacity:0.0; 
stroke:#840000; stroke-width:0; stroke-opacity:1; 
stroke-linecap:round; stroke-linejoin:round;">
</g>
<g style="fill:#840000; fill-opacity:1.0; 
stroke:#840000; stroke-width:0; stroke-opacity:1; 
stroke-linecap:round; stroke-linejoin:round;">
<polyline style="fill-rule:evenodd;"
points="47134,44165
47134,44834
46465,44834
46465,44165
47134,44165
" /> 
</g>
<g style="fill:#840000; fill-opacity:1.0; 
stroke:#840000; stroke-width:669.291; stroke-opacity:1; 
stroke-linecap:round; stroke-linejoin:round;">
</g>
<g style="fill:#840000; fill-opacity:0.0; 
stroke:#840000; stroke-width:669.291; stroke-opacity:1; 
stroke-linecap:round; stroke-linejoin:round;">
<path d="M46800 45500
L46800 45500
" />
<path d="M46800 46500
L46800 46500
" />
<path d="M46800 47500
L46800 47500
" />
</g>
<g style="fill:#840000; fill-opacity:0.0; 
stroke:#840000; stroke-width:0; stroke-opacity:1; 
stroke-linecap:round; stroke-linejoin:round;">
</g>
<g style="fill:#840000; fill-opacity:1.0; 
stroke:#840000; stroke-width:0; stroke-opacity:1; 
stroke-linecap:round; stroke-linejoin:round;">
<polyline style="fill-rule:evenodd;"
points="50134,44165
50134,44834
49465,44834
49465,44165
50134,44165
" /> 
</g>
<g style="fill:#840000; fill-opacity:1.0; 
stroke:#840000; stroke-width:669.291; stroke-opacity:1; 
stroke-linecap:round; stroke-linejoin:round;">
</g>
<g style="fill:#840000; fill-opacity:0.0; 
stroke:#840000; stroke-width:669.291; stroke-opacity:1; 
stroke-linecap:round; stroke-linejoin:round;">
<path d="M49800 45500
L49800 45500
" />
<path d="M49800 46500
L49800 46500
" />
<path d="M49800 47500
L49800 47500
" />
</g>
<g style="fill:#840000; fill-opacity:0.0; 
stroke:#840000; stroke-width:0; stroke-opacity:1; 
stroke-linecap:round; stroke-linejoin:round;">
</g>
<g style="fill:#840000; fill-opacity:1.0; 
stroke:#840000; stroke-width:0; stroke-opacity:1; 
stroke-linecap:round; stroke-linejoin:round;">
<polyline style="fill-rule:evenodd;"
points="41434,12434
40765,12434
40765,11765
41434,11765
41434,12434
" /> 
</g>
<g style="fill:#840000; fill-opacity:1.0; 
stroke:#840000; stroke-width:669.291; stroke-opacity:1; 
stroke-linecap:round; stroke-linejoin:round;">
</g>
<g style="fill:#840000; fill-opacity:0.0; 
stroke:#840000; stroke-width:669.291; stroke-opacity:1; 
stroke-linecap:round; stroke-linejoin:round;">
<path d="M40100 12100
L40100 12100
" />
<path d="M39100 12100
L39100 12100
" />
<path d="M38100 12100
L38100 12100
" />
<path d="M37100 12100
L37100 12100
" />
</g>
<g style="fill:#840000; fill-opacity:0.0; 
stroke:#840000; stroke-width:0; stroke-opacity:1; 
stroke-linecap:round; stroke-linejoin:round;">
</g>
<g style="fill:#840000; fill-opacity:1.0; 
stroke:#840000; stroke-width:0; stroke-opacity:1; 
stroke-linecap:round; stroke-linejoin:round;">
<polyline style="fill-rule:evenodd;"
points="21765,33334
21765,32665
22434,32665
22434,33334
21765,33334
" /> 
</g>
<g style="fill:#840000; fill-opacity:1.0; 
stroke:#840000; stroke-width:669.291; stroke-opacity:1; 
stroke-linecap:round; stroke-linejoin:round;">
</g>
<g style="fill:#840000; fill-opacity:0.0; 
stroke:#840000; stroke-width:669.291; stroke-opacity:1; 
stroke-linecap:round; stroke-linejoin:round;">
<path d="M22100 32000
L22100 32000
" />
<path d="M22100 31000
L22100 31000
" />
<path d="M22100 30000
L22100 30000
" />
<path d="M22100 29000
L22100 29000
" />
<path d="M22100 28000
L22100 28000
" />
</g>
<g style="fill:#840000; fill-opacity:0.0; 
stroke:#840000; stroke-width:0; stroke-opacity:1; 
stroke-linecap:round; stroke-linejoin:round;">
</g>
<g style="fill:#840000; fill-opacity:1.0; 
stroke:#840000; stroke-width:0; stroke-opacity:1; 
stroke-linecap:round; stroke-linejoin:round;">
<polyline style="fill-rule:evenodd;"
points="26157,42177
25842,42177
25842,41822
26157,41822
26157,42177
" /> 
<polyline style="fill-rule:evenodd;"
points="26905,42177
26590,42177
26590,41822
26905,41822
26905,42177
" /> 
<polyline style="fill-rule:evenodd;"
points="26531,41389
26216,41389
26216,41035
26531,41035
26531,41389
" /> 
<polyline style="fill-rule:evenodd;"
points="26178,40695
26021,40695
26021,40104
26178,40104
26178,40695
" /> 
<polyline style="fill-rule:evenodd;"
points="26434,40695
26277,40695
26277,40104
26434,40104
26434,40695
" /> 
<polyline style="fill-rule:evenodd;"
points="26690,40695
26533,40695
26533,40104
26690,40104
26690,40695
" /> 
<polyline style="fill-rule:evenodd;"
points="26690,39648
26533,39648
26533,39057
26690,39057
26690,39648
" /> 
<polyline style="fill-rule:evenodd;"
points="26434,39648
26277,39648
26277,39057
26434,39057
26434,39648
" /> 
<polyline style="fill-rule:evenodd;"
points="26178,39648
26021,39648
26021,39057
26178,39057
26178,39648
" /> 
<polyline style="fill-rule:evenodd;"
points="24921,32437
25078,32437
25078,33027
24921,33027
24921,32437
" /> 
<polyline style="fill-rule:evenodd;"
points="24665,32437
24822,32437
24822,33027
24665,33027
24665,32437
" /> 
<polyline style="fill-rule:evenodd;"
points="24409,32437
24566,32437
24566,33027
24409,33027
24409,32437
" /> 
<polyline style="fill-rule:evenodd;"
points="24409,33484
24566,33484
24566,34074
24409,34074
24409,33484
" /> 
<polyline style="fill-rule:evenodd;"
points="24665,33484
24822,33484
24822,34074
24665,34074
24665,33484
" /> 
<polyline style="fill-rule:evenodd;"
points="24921,33484
25078,33484
25078,34074
24921,34074
24921,33484
" /> 
<polyline style="fill-rule:evenodd;"
points="31722,15830
32077,15830
32077,16303
31722,16303
31722,15830
" /> 
<polyline style="fill-rule:evenodd;"
points="31722,16696
32077,16696
32077,17169
31722,17169
31722,16696
" /> 
<polyline style="fill-rule:evenodd;"
points="26736,44022
26736,44377
26263,44377
26263,44022
26736,44022
" /> 
<polyline style="fill-rule:evenodd;"
points="25870,44022
25870,44377
25397,44377
25397,44022
25870,44022
" /> 
<polyline style="fill-rule:evenodd;"
points="24822,39397
25177,39397
25177,39870
24822,39870
24822,39397
" /> 
<polyline style="fill-rule:evenodd;"
points="24822,40263
25177,40263
25177,40736
24822,40736
24822,40263
" /> 
<polyline style="fill-rule:evenodd;"
points="25177,42302
24822,42302
24822,41829
25177,41829
25177,42302
" /> 
<polyline style="fill-rule:evenodd;"
points="25177,41436
24822,41436
24822,40963
25177,40963
25177,41436
" /> 
<polyline style="fill-rule:evenodd;"
points="35636,16322
35636,16677
35163,16677
35163,16322
35636,16322
" /> 
<polyline style="fill-rule:evenodd;"
points="34770,16322
34770,16677
34297,16677
34297,16322
34770,16322
" /> 
<polyline style="fill-rule:evenodd;"
points="35636,14622
35636,14977
35163,14977
35163,14622
35636,14622
" /> 
<polyline style="fill-rule:evenodd;"
points="34770,14622
34770,14977
34297,14977
34297,14622
34770,14622
" /> 
<polyline style="fill-rule:evenodd;"
points="34297,16077
34297,15722
34770,15722
34770,16077
34297,16077
" /> 
<polyline style="fill-rule:evenodd;"
points="35163,16077
35163,15722
35636,15722
35636,16077
35163,16077
" /> 
<polyline style="fill-rule:evenodd;"
points="34297,15577
34297,15222
34770,15222
34770,15577
34297,15577
" /> 
<polyline style="fill-rule:evenodd;"
points="35163,15577
35163,15222
35636,15222
35636,15577
35163,15577
" /> 
<polyline style="fill-rule:evenodd;"
points="35177,13836
34822,13836
34822,13363
35177,13363
35177,13836
" /> 
<polyline style="fill-rule:evenodd;"
points="35177,12970
34822,12970
34822,12497
35177,12497
35177,12970
" /> 
<polyline style="fill-rule:evenodd;"
points="45677,14336
45322,14336
45322,13863
45677,13863
45677,14336
" /> 
<polyline style="fill-rule:evenodd;"
points="45677,13470
45322,13470
45322,12997
45677,12997
45677,13470
" /> 
<polyline style="fill-rule:evenodd;"
points="44877,14336
44522,14336
44522,13863
44877,13863
44877,14336
" /> 
<polyline style="fill-rule:evenodd;"
points="44877,13470
44522,13470
44522,12997
44877,12997
44877,13470
" /> 
<polyline style="fill-rule:evenodd;"
points="41769,24922
41769,25277
41296,25277
41296,24922
41769,24922
" /> 
<polyline style="fill-rule:evenodd;"
points="40903,24922
40903,25277
40430,25277
40430,24922
40903,24922
" /> 
<polyline style="fill-rule:evenodd;"
points="28436,20222
28436,20577
27963,20577
27963,20222
28436,20222
" /> 
<polyline style="fill-rule:evenodd;"
points="27570,20222
27570,20577
27097,20577
27097,20222
27570,20222
" /> 
<polyline style="fill-rule:evenodd;"
points="28436,19522
28436,19877
27963,19877
27963,19522
28436,19522
" /> 
<polyline style="fill-rule:evenodd;"
points="27570,19522
27570,19877
27097,19877
27097,19522
27570,19522
" /> 
<polyline style="fill-rule:evenodd;"
points="25261,45053
25261,44798
25875,44798
25875,45053
25261,45053
" /> 
<polyline style="fill-rule:evenodd;"
points="25261,45427
25261,45172
25875,45172
25875,45427
25261,45427
" /> 
<polyline style="fill-rule:evenodd;"
points="25261,45801
25261,45546
25875,45546
25875,45801
25261,45801
" /> 
<polyline style="fill-rule:evenodd;"
points="26324,45801
26324,45546
26938,45546
26938,45801
26324,45801
" /> 
<polyline style="fill-rule:evenodd;"
points="26324,45053
26324,44798
26938,44798
26938,45053
26324,45053
" /> 
<polyline style="fill-rule:evenodd;"
points="24173,30669
24566,30669
24566,31299
24173,31299
24173,30669
" /> 
<polyline style="fill-rule:evenodd;"
points="25433,30669
25826,30669
25826,31299
25433,31299
25433,30669
" /> 
<polyline style="fill-rule:evenodd;"
points="24173,28700
24566,28700
24566,29330
24173,29330
24173,28700
" /> 
<polyline style="fill-rule:evenodd;"
points="25433,28700
25826,28700
25826,29330
25433,29330
25433,28700
" /> 
<polyline style="fill-rule:evenodd;"
points="40669,45826
40669,45433
41299,45433
41299,45826
40669,45826
" /> 
<polyline style="fill-rule:evenodd;"
points="40669,44566
40669,44173
41299,44173
41299,44566
40669,44566
" /> 
<polyline style="fill-rule:evenodd;"
points="38700,45826
38700,45433
39330,45433
39330,45826
38700,45826
" /> 
<polyline style="fill-rule:evenodd;"
points="38700,44566
38700,44173
39330,44173
39330,44566
38700,44566
" /> 
<polyline style="fill-rule:evenodd;"
points="55826,29330
55433,29330
55433,28700
55826,28700
55826,29330
" /> 
<polyline style="fill-rule:evenodd;"
points="54566,29330
54173,29330
54173,28700
54566,28700
54566,29330
" /> 
<polyline style="fill-rule:evenodd;"
points="55826,31299
55433,31299
55433,30669
55826,30669
55826,31299
" /> 
<polyline style="fill-rule:evenodd;"
points="54566,31299
54173,31299
54173,30669
54566,30669
54566,31299
" /> 
<polyline style="fill-rule:evenodd;"
points="39330,14173
39330,14566
38700,14566
38700,14173
39330,14173
" /> 
<polyline style="fill-rule:evenodd;"
points="39330,15433
39330,15826
38700,15826
38700,15433
39330,15433
" /> 
<polyline style="fill-rule:evenodd;"
points="41299,14173
41299,14566
40669,14566
40669,14173
41299,14173
" /> 
<polyline style="fill-rule:evenodd;"
points="41299,15433
41299,15826
40669,15826
40669,15433
41299,15433
" /> 
<polyline style="fill-rule:evenodd;"
points="33256,19659
33453,20000
32908,20315
32711,19974
33256,19659
" /> 
<polyline style="fill-rule:evenodd;"
points="33886,20750
34083,21091
33538,21406
33341,21065
33886,20750
" /> 
<polyline style="fill-rule:evenodd;"
points="34961,18675
35158,19016
34613,19331
34416,18990
34961,18675
" /> 
<polyline style="fill-rule:evenodd;"
points="35591,19766
35788,20107
35243,20422
35046,20081
35591,19766
" /> 
<polyline style="fill-rule:evenodd;"
points="28990,24416
29331,24613
29016,25158
28675,24961
28990,24416
" /> 
<polyline style="fill-rule:evenodd;"
points="30081,25046
30422,25243
30107,25788
29766,25591
30081,25046
" /> 
<polyline style="fill-rule:evenodd;"
points="29974,22711
30315,22908
30000,23453
29659,23256
29974,22711
" /> 
<polyline style="fill-rule:evenodd;"
points="31065,23341
31406,23538
31091,24083
30750,23886
31065,23341
" /> 
<polyline style="fill-rule:evenodd;"
points="27673,30669
28066,30669
28066,31299
27673,31299
27673,30669
" /> 
<polyline style="fill-rule:evenodd;"
points="28933,30669
29326,30669
29326,31299
28933,31299
28933,30669
" /> 
<polyline style="fill-rule:evenodd;"
points="27673,28700
28066,28700
28066,29330
27673,29330
27673,28700
" /> 
<polyline style="fill-rule:evenodd;"
points="28933,28700
29326,28700
29326,29330
28933,29330
28933,28700
" /> 
<polyline style="fill-rule:evenodd;"
points="29659,36743
30000,36546
30315,37091
29974,37288
29659,36743
" /> 
<polyline style="fill-rule:evenodd;"
points="30750,36113
31091,35916
31406,36461
31065,36658
30750,36113
" /> 
<polyline style="fill-rule:evenodd;"
points="28675,35038
29016,34841
29331,35386
28990,35583
28675,35038
" /> 
<polyline style="fill-rule:evenodd;"
points="29766,34408
30107,34211
30422,34756
30081,34953
29766,34408
" /> 
<polyline style="fill-rule:evenodd;"
points="34416,41009
34613,40668
35158,40983
34961,41324
34416,41009
" /> 
<polyline style="fill-rule:evenodd;"
points="35046,39918
35243,39577
35788,39892
35591,40233
35046,39918
" /> 
<polyline style="fill-rule:evenodd;"
points="32711,40025
32908,39684
33453,39999
33256,40340
32711,40025
" /> 
<polyline style="fill-rule:evenodd;"
points="33341,38934
33538,38593
34083,38908
33886,39249
33341,38934
" /> 
<polyline style="fill-rule:evenodd;"
points="40669,42326
40669,41933
41299,41933
41299,42326
40669,42326
" /> 
<polyline style="fill-rule:evenodd;"
points="40669,41066
40669,40673
41299,40673
41299,41066
40669,41066
" /> 
<polyline style="fill-rule:evenodd;"
points="38700,42326
38700,41933
39330,41933
39330,42326
38700,42326
" /> 
<polyline style="fill-rule:evenodd;"
points="38700,41066
38700,40673
39330,40673
39330,41066
38700,41066
" /> 
<polyline style="fill-rule:evenodd;"
points="46743,40340
46546,39999
47091,39684
47288,40025
46743,40340
" /> 
<polyline style="fill-rule:evenodd;"
points="46113,39249
45916,38908
46461,38593
46658,38934
46113,39249
" /> 
<polyline style="fill-rule:evenodd;"
points="45038,41324
44841,40983
45386,40668
45583,41009
45038,41324
" /> 
<polyline style="fill-rule:evenodd;"
points="44408,40233
44211,39892
44756,39577
44953,39918
44408,40233
" /> 
<polyline style="fill-rule:evenodd;"
points="45583,18990
45386,19331
44841,19016
45038,18675
45583,18990
" /> 
<polyline style="fill-rule:evenodd;"
points="44953,20081
44756,20422
44211,20107
44408,19766
44953,20081
" /> 
<polyline style="fill-rule:evenodd;"
points="47288,19974
47091,20315
46546,20000
46743,19659
47288,19974
" /> 
<polyline style="fill-rule:evenodd;"
points="46658,21065
46461,21406
45916,21091
46113,20750
46658,21065
" /> 
<polyline style="fill-rule:evenodd;"
points="39330,17673
39330,18066
38700,18066
38700,17673
39330,17673
" /> 
<polyline style="fill-rule:evenodd;"
points="39330,18933
39330,19326
38700,19326
38700,18933
39330,18933
" /> 
<polyline style="fill-rule:evenodd;"
points="41299,17673
41299,18066
40669,18066
40669,17673
41299,17673
" /> 
<polyline style="fill-rule:evenodd;"
points="41299,18933
41299,19326
40669,19326
40669,18933
41299,18933
" /> 
<polyline style="fill-rule:evenodd;"
points="35006,22690
35203,23031
34658,23346
34461,23005
35006,22690
" /> 
<polyline style="fill-rule:evenodd;"
points="35636,23781
35833,24122
35288,24437
35091,24096
35636,23781
" /> 
<polyline style="fill-rule:evenodd;"
points="36711,21706
36908,22047
36363,22362
36166,22021
36711,21706
" /> 
<polyline style="fill-rule:evenodd;"
points="37341,22797
37538,23138
36993,23453
36796,23112
37341,22797
" /> 
<polyline style="fill-rule:evenodd;"
points="32021,26166
32362,26363
32047,26908
31706,26711
32021,26166
" /> 
<polyline style="fill-rule:evenodd;"
points="33112,26796
33453,26993
33138,27538
32797,27341
33112,26796
" /> 
<polyline style="fill-rule:evenodd;"
points="33005,24461
33346,24658
33031,25203
32690,25006
33005,24461
" /> 
<polyline style="fill-rule:evenodd;"
points="34096,25091
34437,25288
34122,25833
33781,25636
34096,25091
" /> 
<polyline style="fill-rule:evenodd;"
points="31173,30669
31566,30669
31566,31299
31173,31299
31173,30669
" /> 
<polyline style="fill-rule:evenodd;"
points="32433,30669
32826,30669
32826,31299
32433,31299
32433,30669
" /> 
<polyline style="fill-rule:evenodd;"
points="31173,28700
31566,28700
31566,29330
31173,29330
31173,28700
" /> 
<polyline style="fill-rule:evenodd;"
points="32433,28700
32826,28700
32826,29330
32433,29330
32433,28700
" /> 
<polyline style="fill-rule:evenodd;"
points="32690,34993
33031,34796
33346,35341
33005,35538
32690,34993
" /> 
<polyline style="fill-rule:evenodd;"
points="33781,34363
34122,34166
34437,34711
34096,34908
33781,34363
" /> 
<polyline style="fill-rule:evenodd;"
points="31706,33288
32047,33091
32362,33636
32021,33833
31706,33288
" /> 
<polyline style="fill-rule:evenodd;"
points="32797,32658
33138,32461
33453,33006
33112,33203
32797,32658
" /> 
<polyline style="fill-rule:evenodd;"
points="36166,37978
36363,37637
36908,37952
36711,38293
36166,37978
" /> 
<polyline style="fill-rule:evenodd;"
points="36796,36887
36993,36546
37538,36861
37341,37202
36796,36887
" /> 
<polyline style="fill-rule:evenodd;"
points="34461,36994
34658,36653
35203,36968
35006,37309
34461,36994
" /> 
<polyline style="fill-rule:evenodd;"
points="35091,35903
35288,35562
35833,35877
35636,36218
35091,35903
" /> 
<polyline style="fill-rule:evenodd;"
points="40669,38826
40669,38433
41299,38433
41299,38826
40669,38826
" /> 
<polyline style="fill-rule:evenodd;"
points="40669,37566
40669,37173
41299,37173
41299,37566
40669,37566
" /> 
<polyline style="fill-rule:evenodd;"
points="38700,38826
38700,38433
39330,38433
39330,38826
38700,38826
" /> 
<polyline style="fill-rule:evenodd;"
points="38700,37566
38700,37173
39330,37173
39330,37566
38700,37566
" /> 
<polyline style="fill-rule:evenodd;"
points="44993,37309
44796,36968
45341,36653
45538,36994
44993,37309
" /> 
<polyline style="fill-rule:evenodd;"
points="44363,36218
44166,35877
44711,35562
44908,35903
44363,36218
" /> 
<polyline style="fill-rule:evenodd;"
points="43288,38293
43091,37952
43636,37637
43833,37978
43288,38293
" /> 
<polyline style="fill-rule:evenodd;"
points="42658,37202
42461,36861
43006,36546
43203,36887
42658,37202
" /> 
<polyline style="fill-rule:evenodd;"
points="47978,33833
47637,33636
47952,33091
48293,33288
47978,33833
" /> 
<polyline style="fill-rule:evenodd;"
points="46887,33203
46546,33006
46861,32461
47202,32658
46887,33203
" /> 
<polyline style="fill-rule:evenodd;"
points="46994,35538
46653,35341
46968,34796
47309,34993
46994,35538
" /> 
<polyline style="fill-rule:evenodd;"
points="45903,34908
45562,34711
45877,34166
46218,34363
45903,34908
" /> 
<polyline style="fill-rule:evenodd;"
points="48826,29330
48433,29330
48433,28700
48826,28700
48826,29330
" /> 
<polyline style="fill-rule:evenodd;"
points="47566,29330
47173,29330
47173,28700
47566,28700
47566,29330
" /> 
<polyline style="fill-rule:evenodd;"
points="48826,31299
48433,31299
48433,30669
48826,30669
48826,31299
" /> 
<polyline style="fill-rule:evenodd;"
points="47566,31299
47173,31299
47173,30669
47566,30669
47566,31299
" /> 
<polyline style="fill-rule:evenodd;"
points="47309,25006
46968,25203
46653,24658
46994,24461
47309,25006
" /> 
<polyline style="fill-rule:evenodd;"
points="46218,25636
45877,25833
45562,25288
45903,25091
46218,25636
" /> 
<polyline style="fill-rule:evenodd;"
points="48293,26711
47952,26908
47637,26363
47978,26166
48293,26711
" /> 
<polyline style="fill-rule:evenodd;"
points="47202,27341
46861,27538
46546,26993
46887,26796
47202,27341
" /> 
<polyline style="fill-rule:evenodd;"
points="43833,22021
43636,22362
43091,22047
43288,21706
43833,22021
" /> 
<polyline style="fill-rule:evenodd;"
points="43203,23112
43006,23453
42461,23138
42658,22797
43203,23112
" /> 
<polyline style="fill-rule:evenodd;"
points="45538,23005
45341,23346
44796,23031
44993,22690
45538,23005
" /> 
<polyline style="fill-rule:evenodd;"
points="44908,24096
44711,24437
44166,24122
44363,23781
44908,24096
" /> 
<polyline style="fill-rule:evenodd;"
points="39330,21173
39330,21566
38700,21566
38700,21173
39330,21173
" /> 
<polyline style="fill-rule:evenodd;"
points="39330,22433
39330,22826
38700,22826
38700,22433
39330,22433
" /> 
<polyline style="fill-rule:evenodd;"
points="41299,21173
41299,21566
40669,21566
40669,21173
41299,21173
" /> 
<polyline style="fill-rule:evenodd;"
points="41299,22433
41299,22826
40669,22826
40669,22433
41299,22433
" /> 
<polyline style="fill-rule:evenodd;"
points="40669,30826
40669,30433
41299,30433
41299,30826
40669,30826
" /> 
<polyline style="fill-rule:evenodd;"
points="40669,29566
40669,29173
41299,29173
41299,29566
40669,29566
" /> 
<polyline style="fill-rule:evenodd;"
points="38700,30826
38700,30433
39330,30433
39330,30826
38700,30826
" /> 
<polyline style="fill-rule:evenodd;"
points="38700,29566
38700,29173
39330,29173
39330,29566
38700,29566
" /> 
<polyline style="fill-rule:evenodd;"
points="39312,25927
39312,25691
39942,25691
39942,25927
39312,25927
" /> 
<polyline style="fill-rule:evenodd;"
points="39312,26321
39312,26085
39942,26085
39942,26321
39312,26321
" /> 
<polyline style="fill-rule:evenodd;"
points="39312,26714
39312,26478
39942,26478
39942,26714
39312,26714
" /> 
<polyline style="fill-rule:evenodd;"
points="39312,27108
39312,26872
39942,26872
39942,27108
39312,27108
" /> 
<polyline style="fill-rule:evenodd;"
points="40257,27108
40257,26872
40887,26872
40887,27108
40257,27108
" /> 
<polyline style="fill-rule:evenodd;"
points="40257,26714
40257,26478
40887,26478
40887,26714
40257,26714
" /> 
<polyline style="fill-rule:evenodd;"
points="40257,26321
40257,26085
40887,26085
40887,26321
40257,26321
" /> 
<polyline style="fill-rule:evenodd;"
points="40257,25927
40257,25691
40887,25691
40887,25927
40257,25927
" /> 
<polyline style="fill-rule:evenodd;"
points="22653,20765
22653,20647
23165,20647
23165,20765
22653,20765
" /> 
<polyline style="fill-rule:evenodd;"
points="22653,20962
22653,20844
23165,20844
23165,20962
22653,20962
" /> 
<polyline style="fill-rule:evenodd;"
points="22653,21159
22653,21040
23165,21040
23165,21159
22653,21159
" /> 
<polyline style="fill-rule:evenodd;"
points="22653,21355
22653,21237
23165,21237
23165,21355
22653,21355
" /> 
<polyline style="fill-rule:evenodd;"
points="22653,21552
22653,21434
23165,21434
23165,21552
22653,21552
" /> 
<polyline style="fill-rule:evenodd;"
points="23362,21946
23244,21946
23244,21434
23362,21434
23362,21946
" /> 
<polyline style="fill-rule:evenodd;"
points="23559,21946
23440,21946
23440,21434
23559,21434
23559,21946
" /> 
<polyline style="fill-rule:evenodd;"
points="23755,21946
23637,21946
23637,21434
23755,21434
23755,21946
" /> 
<polyline style="fill-rule:evenodd;"
points="23834,21552
23834,21434
24346,21434
24346,21552
23834,21552
" /> 
<polyline style="fill-rule:evenodd;"
points="23834,21355
23834,21237
24346,21237
24346,21355
23834,21355
" /> 
<polyline style="fill-rule:evenodd;"
points="23834,21159
23834,21040
24346,21040
24346,21159
23834,21159
" /> 
<polyline style="fill-rule:evenodd;"
points="23834,20962
23834,20844
24346,20844
24346,20962
23834,20962
" /> 
<polyline style="fill-rule:evenodd;"
points="23834,20765
23834,20647
24346,20647
24346,20765
23834,20765
" /> 
<polyline style="fill-rule:evenodd;"
points="23755,20765
23637,20765
23637,20253
23755,20253
23755,20765
" /> 
<polyline style="fill-rule:evenodd;"
points="23559,20765
23440,20765
23440,20253
23559,20253
23559,20765
" /> 
<polyline style="fill-rule:evenodd;"
points="23362,20765
23244,20765
23244,20253
23362,20253
23362,20765
" /> 
<polyline style="fill-rule:evenodd;"
points="23718,35712
23718,35614
23994,35614
23994,35712
23718,35712
" /> 
<polyline style="fill-rule:evenodd;"
points="23718,35909
23718,35811
23994,35811
23994,35909
23718,35909
" /> 
<polyline style="fill-rule:evenodd;"
points="23718,36106
23718,36008
23994,36008
23994,36106
23718,36106
" /> 
<polyline style="fill-rule:evenodd;"
points="23718,36303
23718,36205
23994,36205
23994,36303
23718,36303
" /> 
<polyline style="fill-rule:evenodd;"
points="23718,36500
23718,36401
23994,36401
23994,36500
23718,36500
" /> 
<polyline style="fill-rule:evenodd;"
points="23718,36697
23718,36598
23994,36598
23994,36697
23718,36697
" /> 
<polyline style="fill-rule:evenodd;"
points="24201,37081
24102,37081
24102,36805
24201,36805
24201,37081
" /> 
<polyline style="fill-rule:evenodd;"
points="24398,37081
24299,37081
24299,36805
24398,36805
24398,37081
" /> 
<polyline style="fill-rule:evenodd;"
points="24594,37081
24496,37081
24496,36805
24594,36805
24594,37081
" /> 
<polyline style="fill-rule:evenodd;"
points="24791,37081
24693,37081
24693,36805
24791,36805
24791,37081
" /> 
<polyline style="fill-rule:evenodd;"
points="24988,37081
24890,37081
24890,36805
24988,36805
24988,37081
" /> 
<polyline style="fill-rule:evenodd;"
points="25185,37081
25087,37081
25087,36805
25185,36805
25185,37081
" /> 
<polyline style="fill-rule:evenodd;"
points="25293,36697
25293,36598
25569,36598
25569,36697
25293,36697
" /> 
<polyline style="fill-rule:evenodd;"
points="25293,36500
25293,36401
25569,36401
25569,36500
25293,36500
" /> 
<polyline style="fill-rule:evenodd;"
points="25293,36303
25293,36205
25569,36205
25569,36303
25293,36303
" /> 
<polyline style="fill-rule:evenodd;"
points="25293,36106
25293,36008
25569,36008
25569,36106
25293,36106
" /> 
<polyline style="fill-rule:evenodd;"
points="25293,35909
25293,35811
25569,35811
25569,35909
25293,35909
" /> 
<polyline style="fill-rule:evenodd;"
points="25293,35712
25293,35614
25569,35614
25569,35712
25293,35712
" /> 
<polyline style="fill-rule:evenodd;"
points="25185,35506
25087,35506
25087,35230
25185,35230
25185,35506
" /> 
<polyline style="fill-rule:evenodd;"
points="24988,35506
24890,35506
24890,35230
24988,35230
24988,35506
" /> 
<polyline style="fill-rule:evenodd;"
points="24791,35506
24693,35506
24693,35230
24791,35230
24791,35506
" /> 
<polyline style="fill-rule:evenodd;"
points="24594,35506
24496,35506
24496,35230
24594,35230
24594,35506
" /> 
<polyline style="fill-rule:evenodd;"
points="24398,35506
24299,35506
24299,35230
24398,35230
24398,35506
" /> 
<polyline style="fill-rule:evenodd;"
points="24201,35506
24102,35506
24102,35230
24201,35230
24201,35506
" /> 
<polyline style="fill-rule:evenodd;"
points="25185,36697
24102,36697
24102,35614
25185,35614
25185,36697
" /> 
<polyline style="fill-rule:evenodd;"
points="30107,42214
30107,41585
30737,41585
30737,42214
30107,42214
" /> 
<circle cx="31800" cy="41900" r="314.961" /> 
</g>
<g style="fill:#840000; fill-opacity:1.0; 
stroke:#840000; stroke-width:39.3701; stroke-opacity:1; 
stroke-linecap:round; stroke-linejoin:round;">
</g>
<g style="fill:#840000; fill-opacity:1.0; 
stroke:#840000; stroke-width:0; stroke-opacity:1; 
stroke-linecap:round; stroke-linejoin:round;">
<polyline style="fill-rule:evenodd;"
points="27788,47145
27788,47854
26411,47854
26411,47145
27788,47145
" /> 
<polyline style="fill-rule:evenodd;"
points="25820,47145
25820,47854
24442,47854
24442,47145
25820,47145
" /> 
<polyline style="fill-rule:evenodd;"
points="38177,30769
37822,30769
37822,30296
38177,30296
38177,30769
" /> 
<polyline style="fill-rule:evenodd;"
points="38177,29903
37822,29903
37822,29430
38177,29430
38177,29903
" /> 
<polyline style="fill-rule:evenodd;"
points="51297,37227
51041,37079
51278,36670
51533,36818
51297,37227
" /> 
<polyline style="fill-rule:evenodd;"
points="51671,36579
51415,36431
51652,36022
51907,36170
51671,36579
" /> 
<polyline style="fill-rule:evenodd;"
points="53397,30610
53102,30610
53102,30137
53397,30137
53397,30610
" /> 
<polyline style="fill-rule:evenodd;"
points="53397,29862
53102,29862
53102,29389
53397,29389
53397,29862
" /> 
<polyline style="fill-rule:evenodd;"
points="51907,23829
51652,23977
51415,23568
51671,23420
51907,23829
" /> 
<polyline style="fill-rule:evenodd;"
points="51533,23181
51278,23329
51041,22920
51297,22772
51533,23181
" /> 
<polyline style="fill-rule:evenodd;"
points="49897,30610
49602,30610
49602,30137
49897,30137
49897,30610
" /> 
<polyline style="fill-rule:evenodd;"
points="49897,29862
49602,29862
49602,29389
49897,29389
49897,29862
" /> 
<polyline style="fill-rule:evenodd;"
points="51009,35583
50668,35386
50983,34841
51324,35038
51009,35583
" /> 
<polyline style="fill-rule:evenodd;"
points="49918,34953
49577,34756
49892,34211
50233,34408
49918,34953
" /> 
<polyline style="fill-rule:evenodd;"
points="50025,37288
49684,37091
49999,36546
50340,36743
50025,37288
" /> 
<polyline style="fill-rule:evenodd;"
points="48934,36658
48593,36461
48908,35916
49249,36113
48934,36658
" /> 
<polyline style="fill-rule:evenodd;"
points="52326,29330
51933,29330
51933,28700
52326,28700
52326,29330
" /> 
<polyline style="fill-rule:evenodd;"
points="51066,29330
50673,29330
50673,28700
51066,28700
51066,29330
" /> 
<polyline style="fill-rule:evenodd;"
points="52326,31299
51933,31299
51933,30669
52326,30669
52326,31299
" /> 
<polyline style="fill-rule:evenodd;"
points="51066,31299
50673,31299
50673,30669
51066,30669
51066,31299
" /> 
<polyline style="fill-rule:evenodd;"
points="50340,23256
49999,23453
49684,22908
50025,22711
50340,23256
" /> 
<polyline style="fill-rule:evenodd;"
points="49249,23886
48908,24083
48593,23538
48934,23341
49249,23886
" /> 
<polyline style="fill-rule:evenodd;"
points="51324,24961
50983,25158
50668,24613
51009,24416
51324,24961
" /> 
<polyline style="fill-rule:evenodd;"
points="50233,25591
49892,25788
49577,25243
49918,25046
50233,25591
" /> 
<polyline style="fill-rule:evenodd;"
points="23065,44563
23734,44563
23734,45036
23065,45036
23065,44563
" /> 
</g>
<g style="fill:#840000; fill-opacity:1.0; 
stroke:#840000; stroke-width:472.441; stroke-opacity:1; 
stroke-linecap:round; stroke-linejoin:round;">
</g>
<g style="fill:#840000; fill-opacity:0.0; 
stroke:#840000; stroke-width:472.441; stroke-opacity:1; 
stroke-linecap:round; stroke-linejoin:round;">
<path d="M23498 45587
L23301 45587
" />
</g>
<g style="fill:#840000; fill-opacity:0.0; 
stroke:#840000; stroke-width:0; stroke-opacity:1; 
stroke-linecap:round; stroke-linejoin:round;">
</g>
<g style="fill:#840000; fill-opacity:1.0; 
stroke:#840000; stroke-width:0; stroke-opacity:1; 
stroke-linecap:round; stroke-linejoin:round;">
<polyline style="fill-rule:evenodd;"
points="42900,12540
42900,11860
43700,11860
43700,12540
42900,12540
" /> 
</g>
<g style="fill:#840000; fill-opacity:1.0; 
stroke:#840000; stroke-width:680; stroke-opacity:1; 
stroke-linecap:round; stroke-linejoin:round;">
</g>
<g style="fill:#840000; fill-opacity:0.0; 
stroke:#840000; stroke-width:680; stroke-opacity:1; 
stroke-linecap:round; stroke-linejoin:round;">
<path d="M43240 13200
L43360 13200
" />
<path d="M43240 14200
L43360 14200
" />
<path d="M43240 15200
L43360 15200
" />
</g>
<g style="fill:#840000; fill-opacity:0.0; 
stroke:#840000; stroke-width:0; stroke-opacity:1; 
stroke-linecap:round; stroke-linejoin:round;">
</g>
<g style="fill:#840000; fill-opacity:1.0; 
stroke:#840000; stroke-width:0; stroke-opacity:1; 
stroke-linecap:round; stroke-linejoin:round;">
<polyline style="fill-rule:evenodd;"
points="31357,43954
31357,44493
30935,44493
30935,43954
31357,43954
" /> 
<polyline style="fill-rule:evenodd;"
points="32034,43954
32034,44493
31612,44493
31612,43954
32034,43954
" /> 
<polyline style="fill-rule:evenodd;"
points="32711,43954
32711,44493
32290,44493
32290,43954
32711,43954
" /> 
<polyline style="fill-rule:evenodd;"
points="30679,43954
30679,44493
30258,44493
30258,43954
30679,43954
" /> 
<polyline style="fill-rule:evenodd;"
points="30002,43954
30002,44493
29581,44493
29581,43954
30002,43954
" /> 
<polyline style="fill-rule:evenodd;"
points="29729,44863
29729,45336
29256,45336
29256,44863
29729,44863
" /> 
<polyline style="fill-rule:evenodd;"
points="30201,44863
30201,45336
29729,45336
29729,44863
30201,44863
" /> 
<polyline style="fill-rule:evenodd;"
points="30674,44863
30674,45336
30201,45336
30201,44863
30674,44863
" /> 
<polyline style="fill-rule:evenodd;"
points="31146,44863
31146,45336
30674,45336
30674,44863
31146,44863
" /> 
<polyline style="fill-rule:evenodd;"
points="31618,44863
31618,45336
31146,45336
31146,44863
31618,44863
" /> 
<polyline style="fill-rule:evenodd;"
points="32091,44863
32091,45336
31618,45336
31618,44863
32091,44863
" /> 
<polyline style="fill-rule:evenodd;"
points="32563,44863
32563,45336
32091,45336
32091,44863
32563,44863
" /> 
<polyline style="fill-rule:evenodd;"
points="33036,44863
33036,45336
32563,45336
32563,44863
33036,44863
" /> 
<polyline style="fill-rule:evenodd;"
points="33036,45336
33036,45808
32563,45808
32563,45336
33036,45336
" /> 
<polyline style="fill-rule:evenodd;"
points="32563,45336
32563,45808
32091,45808
32091,45336
32563,45336
" /> 
<polyline style="fill-rule:evenodd;"
points="31618,45336
32091,45336
32091,45808
31618,45808
31618,45336
" /> 
<polyline style="fill-rule:evenodd;"
points="31618,45336
31618,45808
31146,45808
31146,45336
31618,45336
" /> 
<polyline style="fill-rule:evenodd;"
points="31146,45336
31146,45808
30674,45808
30674,45336
31146,45336
" /> 
<polyline style="fill-rule:evenodd;"
points="30674,45336
30674,45808
30201,45808
30201,45336
30674,45336
" /> 
<polyline style="fill-rule:evenodd;"
points="30201,45336
30201,45808
29729,45808
29729,45336
30201,45336
" /> 
<polyline style="fill-rule:evenodd;"
points="29729,45336
29729,45808
29256,45808
29256,45336
29729,45336
" /> 
<polyline style="fill-rule:evenodd;"
points="29729,45808
29729,46281
29256,46281
29256,45808
29729,45808
" /> 
<polyline style="fill-rule:evenodd;"
points="30201,45808
30201,46281
29729,46281
29729,45808
30201,45808
" /> 
<polyline style="fill-rule:evenodd;"
points="30674,45808
30674,46281
30201,46281
30201,45808
30674,45808
" /> 
<polyline style="fill-rule:evenodd;"
points="31146,45808
31146,46281
30674,46281
30674,45808
31146,45808
" /> 
<polyline style="fill-rule:evenodd;"
points="31618,45808
31618,46281
31146,46281
31146,45808
31618,45808
" /> 
<polyline style="fill-rule:evenodd;"
points="32091,45808
32091,46281
31618,46281
31618,45808
32091,45808
" /> 
<polyline style="fill-rule:evenodd;"
points="32563,45808
32563,46281
32091,46281
32091,45808
32563,45808
" /> 
<polyline style="fill-rule:evenodd;"
points="33036,45808
33036,46281
32563,46281
32563,45808
33036,45808
" /> 
<polyline style="fill-rule:evenodd;"
points="33036,46281
33036,46753
32563,46753
32563,46281
33036,46281
" /> 
<polyline style="fill-rule:evenodd;"
points="32563,46281
32563,46753
32091,46753
32091,46281
32563,46281
" /> 
<polyline style="fill-rule:evenodd;"
points="32091,46281
32091,46753
31618,46753
31618,46281
32091,46281
" /> 
<polyline style="fill-rule:evenodd;"
points="31618,46281
31618,46753
31146,46753
31146,46281
31618,46281
" /> 
<polyline style="fill-rule:evenodd;"
points="31146,46281
31146,46753
30674,46753
30674,46281
31146,46281
" /> 
<polyline style="fill-rule:evenodd;"
points="30674,46281
30674,46753
30201,46753
30201,46281
30674,46281
" /> 
<polyline style="fill-rule:evenodd;"
points="30201,46281
30201,46753
29729,46753
29729,46281
30201,46281
" /> 
<polyline style="fill-rule:evenodd;"
points="29729,46281
29729,46753
29256,46753
29256,46281
29729,46281
" /> 
<polyline style="fill-rule:evenodd;"
points="29729,46753
29729,47225
29256,47225
29256,46753
29729,46753
" /> 
<polyline style="fill-rule:evenodd;"
points="30201,46753
30201,47225
29729,47225
29729,46753
30201,46753
" /> 
<polyline style="fill-rule:evenodd;"
points="30674,46753
30674,47225
30201,47225
30201,46753
30674,46753
" /> 
<polyline style="fill-rule:evenodd;"
points="31146,46753
31146,47225
30674,47225
30674,46753
31146,46753
" /> 
<polyline style="fill-rule:evenodd;"
points="31618,46753
31618,47225
31146,47225
31146,46753
31618,46753
" /> 
<polyline style="fill-rule:evenodd;"
points="32091,46753
32091,47225
31618,47225
31618,46753
32091,46753
" /> 
<polyline style="fill-rule:evenodd;"
points="32563,46753
32563,47225
32091,47225
32091,46753
32563,46753
" /> 
<polyline style="fill-rule:evenodd;"
points="33036,46753
33036,47225
32563,47225
32563,46753
33036,46753
" /> 
<polyline style="fill-rule:evenodd;"
points="33036,47225
33036,47698
32563,47698
32563,47225
33036,47225
" /> 
<polyline style="fill-rule:evenodd;"
points="32563,47225
32563,47698
32091,47698
32091,47225
32563,47225
" /> 
<polyline style="fill-rule:evenodd;"
points="32091,47225
32091,47698
31618,47698
31618,47225
32091,47225
" /> 
<polyline style="fill-rule:evenodd;"
points="31618,47225
31618,47698
31146,47698
31146,47225
31618,47225
" /> 
<polyline style="fill-rule:evenodd;"
points="31146,47225
31146,47698
30674,47698
30674,47225
31146,47225
" /> 
<polyline style="fill-rule:evenodd;"
points="30674,47225
30674,47698
30201,47698
30201,47225
30674,47225
" /> 
<polyline style="fill-rule:evenodd;"
points="30201,47225
30201,47698
29729,47698
29729,47225
30201,47225
" /> 
<polyline style="fill-rule:evenodd;"
points="29729,47225
29729,47698
29256,47698
29256,47225
29729,47225
" /> 
<polyline style="fill-rule:evenodd;"
points="29729,47698
29729,48170
29256,48170
29256,47698
29729,47698
" /> 
<polyline style="fill-rule:evenodd;"
points="30201,47698
30201,48170
29729,48170
29729,47698
30201,47698
" /> 
<polyline style="fill-rule:evenodd;"
points="30674,47698
30674,48170
30201,48170
30201,47698
30674,47698
" /> 
<polyline style="fill-rule:evenodd;"
points="31146,47698
31146,48170
30674,48170
30674,47698
31146,47698
" /> 
<polyline style="fill-rule:evenodd;"
points="31618,47698
31618,48170
31146,48170
31146,47698
31618,47698
" /> 
<polyline style="fill-rule:evenodd;"
points="32091,47698
32091,48170
31618,48170
31618,47698
32091,47698
" /> 
<polyline style="fill-rule:evenodd;"
points="32563,47698
32563,48170
32091,48170
32091,47698
32563,47698
" /> 
<polyline style="fill-rule:evenodd;"
points="33036,47698
33036,48170
32563,48170
32563,47698
33036,47698
" /> 
<polyline style="fill-rule:evenodd;"
points="21746,36199
22297,36199
22297,36356
21746,36356
21746,36199
" /> 
<polyline style="fill-rule:evenodd;"
points="21746,35943
22297,35943
22297,36100
21746,36100
21746,35943
" /> 
<polyline style="fill-rule:evenodd;"
points="21746,35687
22297,35687
22297,35844
21746,35844
21746,35687
" /> 
<polyline style="fill-rule:evenodd;"
points="21746,36455
22297,36455
22297,36612
21746,36612
21746,36455
" /> 
<polyline style="fill-rule:evenodd;"
points="21746,36711
22297,36711
22297,36868
21746,36868
21746,36711
" /> 
<polyline style="fill-rule:evenodd;"
points="20624,36376
21175,36376
21175,37085
20624,37085
20624,36376
" /> 
<polyline style="fill-rule:evenodd;"
points="20624,35470
21175,35470
21175,36179
20624,36179
20624,35470
" /> 
<polyline style="fill-rule:evenodd;"
points="20624,37301
21175,37301
21175,38207
20624,38207
20624,37301
" /> 
<polyline style="fill-rule:evenodd;"
points="20624,34348
21175,34348
21175,35254
20624,35254
20624,34348
" /> 
<circle cx="57700" cy="12300" r="1102.36" /> 
</g>
<g style="fill:#840000; fill-opacity:1.0; 
stroke:#840000; stroke-width:39.3701; stroke-opacity:1; 
stroke-linecap:round; stroke-linejoin:round;">
</g>
<g style="fill:#840000; fill-opacity:1.0; 
stroke:#840000; stroke-width:0; stroke-opacity:1; 
stroke-linecap:round; stroke-linejoin:round;">
<circle cx="57700" cy="47700" r="1102.36" /> 
</g>
<g style="fill:#840000; fill-opacity:1.0; 
stroke:#840000; stroke-width:39.3701; stroke-opacity:1; 
stroke-linecap:round; stroke-linejoin:round;">
</g>
<g style="fill:#840000; fill-opacity:1.0; 
stroke:#840000; stroke-width:0; stroke-opacity:1; 
stroke-linecap:round; stroke-linejoin:round;">
<circle cx="22300" cy="47700" r="1102.36" /> 
</g>
<g style="fill:#840000; fill-opacity:1.0; 
stroke:#840000; stroke-width:39.3701; stroke-opacity:1; 
stroke-linecap:round; stroke-linejoin:round;">
</g>
<g style="fill:#840000; fill-opacity:1.0; 
stroke:#840000; stroke-width:0; stroke-opacity:1; 
stroke-linecap:round; stroke-linejoin:round;">
<circle cx="22300" cy="12300" r="1102.36" /> 
</g>
<g style="fill:#840000; fill-opacity:1.0; 
stroke:#840000; stroke-width:39.3701; stroke-opacity:1; 
stroke-linecap:round; stroke-linejoin:round;">
</g> 
</svg>
