M48
INCH,TZ
T1C0.012
T2C0.016
T3C0.020
T4C0.030
T5C0.031
T6C0.039
T7C0.040
T8C0.126
%
G90
G05
T1
X24268Y-45325
X24268Y-45797
X24268Y-46270
X24268Y-46742
X24268Y-47215
X24268Y-47687
X24268Y-48159
X24740Y-45325
X24740Y-45797
X24740Y-46270
X24740Y-46742
X24740Y-47215
X24740Y-47687
X24740Y-48159
X25213Y-45325
X25213Y-45797
X25213Y-46270
X25213Y-46742
X25213Y-47215
X25213Y-47687
X25213Y-48159
X25685Y-45325
X25685Y-45797
X25685Y-46270
X25685Y-46742
X25685Y-47215
X25685Y-47687
X25685Y-48159
X26157Y-45325
X26157Y-45797
X26157Y-46270
X26157Y-46742
X26157Y-47215
X26157Y-47687
X26157Y-48159
X26630Y-45325
X26630Y-45797
X26630Y-46270
X26630Y-46742
X26630Y-47215
X26630Y-47687
X26630Y-48159
X27102Y-45325
X27102Y-45797
X27102Y-46270
X27102Y-46742
X27102Y-47215
X27102Y-47687
X27102Y-48159
X27575Y-45325
X27575Y-45797
X27575Y-46270
X27575Y-46742
X27575Y-47215
X27575Y-47687
X27575Y-48159
T2
X20965Y-15354
X21063Y-18209
X21063Y-40108
X21457Y-16398
X22047Y-18012
X22835Y-31299
X24114Y-27657
X24522Y-18012
X25000Y-21260
X25197Y-32283
X25492Y-42618
X25984Y-39291
X28543Y-21260
X28937Y-14370
X28937Y-18602
X29232Y-19488
X31102Y-14961
X31102Y-18898
X31299Y-13386
X31496Y-15059
X31988Y-18406
X32159Y-17887
X34055Y-41634
X34646Y-17175
X35039Y-16831
X36811Y-12894
X37500Y-28937
X37795Y-12894
X38091Y-45079
X38681Y-22146
X38681Y-28740
X39764Y-27461
X39803Y-29843
X40650Y-14961
X40748Y-18307
X40748Y-21850
X41112Y-14075
X41142Y-27362
X41289Y-13780
X41831Y-15551
X41831Y-20177
X42520Y-22736
X44291Y-19685
X44291Y-41929
X51476Y-34843
X53937Y-28346
T3
X20709Y-11811
X20709Y-48031
X20985Y-11143
X20985Y-12479
X20985Y-47363
X20985Y-48700
X21654Y-10866
X21654Y-12756
X21654Y-47087
X21654Y-48976
X22322Y-11143
X22322Y-12479
X22322Y-47363
X22322Y-48700
X22598Y-11811
X22598Y-48031
X56929Y-11811
X56929Y-48031
X57206Y-11143
X57206Y-12479
X57206Y-47363
X57206Y-48700
X57874Y-10866
X57874Y-12756
X57874Y-47087
X57874Y-48976
X58542Y-11143
X58542Y-12479
X58542Y-47363
X58542Y-48700
X58819Y-11811
X58819Y-48031
T4
X35748Y-44803
X35748Y-45591
T5
X28740Y-40079
X30118Y-40079
T6
X23228Y-24772
X23228Y-25772
X23228Y-26772
X29457Y-47677
X30457Y-47677
X31457Y-47677
X37634Y-11024
X38634Y-11024
X39634Y-11024
X40634Y-11024
X41634Y-11024
X48327Y-11024
X49327Y-11024
X50327Y-11024
X51327Y-11024
X51594Y-20965
X52327Y-11024
X52594Y-20965
X53327Y-11024
X53594Y-20965
X54594Y-20965
X55594Y-20965
X56594Y-20965
X57594Y-20965
X58594Y-20965
T7
X46654Y-13929
X46654Y-14929
X46654Y-15929
X46654Y-16929
T8
X21654Y-11811
X21654Y-48031
X57874Y-11811
X57874Y-48031
T0
M30
