G04 #@! TF.FileFunction,Soldermask,Top*
%FSLAX46Y46*%
G04 Gerber Fmt 4.6, Leading zero omitted, Abs format (unit mm)*
G04 Created by KiCad (PCBNEW 4.0.7) date Saturday, 23 June 2018 'PMt' 19:02:52*
%MOMM*%
%LPD*%
G01*
G04 APERTURE LIST*
%ADD10C,0.100000*%
%ADD11R,1.200000X0.750000*%
%ADD12R,1.500000X1.250000*%
%ADD13R,1.600000X1.600000*%
%ADD14C,1.600000*%
%ADD15R,1.250000X1.500000*%
%ADD16R,0.750000X1.200000*%
%ADD17R,1.800000X2.600000*%
%ADD18R,1.500000X3.200000*%
%ADD19R,1.800000X3.500000*%
%ADD20R,1.700000X1.200000*%
%ADD21O,1.700000X1.200000*%
%ADD22R,1.700000X1.700000*%
%ADD23O,1.700000X1.700000*%
%ADD24R,2.032000X1.727200*%
%ADD25O,2.032000X1.727200*%
%ADD26R,0.900000X1.200000*%
%ADD27R,1.200000X0.900000*%
%ADD28R,0.650000X1.560000*%
%ADD29R,1.070000X1.370000*%
%ADD30R,1.200000X1.200000*%
%ADD31C,3.000000*%
%ADD32O,2.500000X0.900000*%
%ADD33O,0.900000X2.500000*%
%ADD34R,6.000000X6.000000*%
%ADD35R,1.000000X1.600000*%
%ADD36R,1.600000X1.000000*%
%ADD37R,1.600000X0.600000*%
%ADD38C,6.400000*%
%ADD39C,0.800000*%
G04 APERTURE END LIST*
D10*
D11*
X69050000Y-110600000D03*
X67150000Y-110600000D03*
D12*
X62250000Y-110500000D03*
X64750000Y-110500000D03*
D13*
X73000000Y-101800000D03*
D14*
X76500000Y-101800000D03*
D12*
X80950000Y-117500000D03*
X83450000Y-117500000D03*
X80850000Y-108800000D03*
X83350000Y-108800000D03*
D15*
X55750000Y-41500000D03*
X55750000Y-44000000D03*
X55750000Y-37750000D03*
X55750000Y-35250000D03*
D16*
X53250000Y-37400000D03*
X53250000Y-35500000D03*
X58055000Y-75250000D03*
X58055000Y-77150000D03*
D11*
X99650000Y-118745000D03*
X101550000Y-118745000D03*
D16*
X143145000Y-77150000D03*
X143145000Y-75250000D03*
D11*
X101549999Y-33655000D03*
X99649999Y-33655000D03*
D10*
G36*
X84927338Y-45954155D02*
X85302338Y-46603675D01*
X84263108Y-47203675D01*
X83888108Y-46554155D01*
X84927338Y-45954155D01*
X84927338Y-45954155D01*
G37*
G36*
X83281890Y-46904155D02*
X83656890Y-47553675D01*
X82617660Y-48153675D01*
X82242660Y-47504155D01*
X83281890Y-46904155D01*
X83281890Y-46904155D01*
G37*
G36*
X71904155Y-57842661D02*
X72553675Y-58217661D01*
X71953675Y-59256891D01*
X71304155Y-58881891D01*
X71904155Y-57842661D01*
X71904155Y-57842661D01*
G37*
G36*
X70954155Y-59488109D02*
X71603675Y-59863109D01*
X71003675Y-60902339D01*
X70354155Y-60527339D01*
X70954155Y-59488109D01*
X70954155Y-59488109D01*
G37*
D16*
X66945000Y-75250000D03*
X66945000Y-77150000D03*
D10*
G36*
X70354155Y-91872661D02*
X71003675Y-91497661D01*
X71603675Y-92536891D01*
X70954155Y-92911891D01*
X70354155Y-91872661D01*
X70354155Y-91872661D01*
G37*
G36*
X71304155Y-93518109D02*
X71953675Y-93143109D01*
X72553675Y-94182339D01*
X71904155Y-94557339D01*
X71304155Y-93518109D01*
X71304155Y-93518109D01*
G37*
G36*
X82242661Y-104895844D02*
X82617661Y-104246324D01*
X83656891Y-104846324D01*
X83281891Y-105495844D01*
X82242661Y-104895844D01*
X82242661Y-104895844D01*
G37*
G36*
X83888109Y-105845844D02*
X84263109Y-105196324D01*
X85302339Y-105796324D01*
X84927339Y-106445844D01*
X83888109Y-105845844D01*
X83888109Y-105845844D01*
G37*
D11*
X99650000Y-109855000D03*
X101550000Y-109855000D03*
D10*
G36*
X116272661Y-106445844D02*
X115897661Y-105796324D01*
X116936891Y-105196324D01*
X117311891Y-105845844D01*
X116272661Y-106445844D01*
X116272661Y-106445844D01*
G37*
G36*
X117918109Y-105495844D02*
X117543109Y-104846324D01*
X118582339Y-104246324D01*
X118957339Y-104895844D01*
X117918109Y-105495844D01*
X117918109Y-105495844D01*
G37*
G36*
X129295844Y-94557339D02*
X128646324Y-94182339D01*
X129246324Y-93143109D01*
X129895844Y-93518109D01*
X129295844Y-94557339D01*
X129295844Y-94557339D01*
G37*
G36*
X130245844Y-92911891D02*
X129596324Y-92536891D01*
X130196324Y-91497661D01*
X130845844Y-91872661D01*
X130245844Y-92911891D01*
X130245844Y-92911891D01*
G37*
D16*
X134255000Y-77150000D03*
X134255000Y-75250000D03*
D10*
G36*
X130845844Y-60527338D02*
X130196324Y-60902338D01*
X129596324Y-59863108D01*
X130245844Y-59488108D01*
X130845844Y-60527338D01*
X130845844Y-60527338D01*
G37*
G36*
X129895844Y-58881890D02*
X129246324Y-59256890D01*
X128646324Y-58217660D01*
X129295844Y-57842660D01*
X129895844Y-58881890D01*
X129895844Y-58881890D01*
G37*
G36*
X118957339Y-47504155D02*
X118582339Y-48153675D01*
X117543109Y-47553675D01*
X117918109Y-46904155D01*
X118957339Y-47504155D01*
X118957339Y-47504155D01*
G37*
G36*
X117311891Y-46554155D02*
X116936891Y-47203675D01*
X115897661Y-46603675D01*
X116272661Y-45954155D01*
X117311891Y-46554155D01*
X117311891Y-46554155D01*
G37*
D11*
X101550000Y-42545000D03*
X99650000Y-42545000D03*
D10*
G36*
X89372338Y-53653120D02*
X89747338Y-54302640D01*
X88708108Y-54902640D01*
X88333108Y-54253120D01*
X89372338Y-53653120D01*
X89372338Y-53653120D01*
G37*
G36*
X87726890Y-54603120D02*
X88101890Y-55252640D01*
X87062660Y-55852640D01*
X86687660Y-55203120D01*
X87726890Y-54603120D01*
X87726890Y-54603120D01*
G37*
G36*
X79603120Y-62287661D02*
X80252640Y-62662661D01*
X79652640Y-63701891D01*
X79003120Y-63326891D01*
X79603120Y-62287661D01*
X79603120Y-62287661D01*
G37*
G36*
X78653120Y-63933109D02*
X79302640Y-64308109D01*
X78702640Y-65347339D01*
X78053120Y-64972339D01*
X78653120Y-63933109D01*
X78653120Y-63933109D01*
G37*
D16*
X75835000Y-75250000D03*
X75835000Y-77150000D03*
D10*
G36*
X78053120Y-87427661D02*
X78702640Y-87052661D01*
X79302640Y-88091891D01*
X78653120Y-88466891D01*
X78053120Y-87427661D01*
X78053120Y-87427661D01*
G37*
G36*
X79003120Y-89073109D02*
X79652640Y-88698109D01*
X80252640Y-89737339D01*
X79603120Y-90112339D01*
X79003120Y-89073109D01*
X79003120Y-89073109D01*
G37*
G36*
X86687661Y-97196879D02*
X87062661Y-96547359D01*
X88101891Y-97147359D01*
X87726891Y-97796879D01*
X86687661Y-97196879D01*
X86687661Y-97196879D01*
G37*
G36*
X88333109Y-98146879D02*
X88708109Y-97497359D01*
X89747339Y-98097359D01*
X89372339Y-98746879D01*
X88333109Y-98146879D01*
X88333109Y-98146879D01*
G37*
D11*
X99650000Y-100965000D03*
X101550000Y-100965000D03*
D10*
G36*
X111827661Y-98746879D02*
X111452661Y-98097359D01*
X112491891Y-97497359D01*
X112866891Y-98146879D01*
X111827661Y-98746879D01*
X111827661Y-98746879D01*
G37*
G36*
X113473109Y-97796879D02*
X113098109Y-97147359D01*
X114137339Y-96547359D01*
X114512339Y-97196879D01*
X113473109Y-97796879D01*
X113473109Y-97796879D01*
G37*
G36*
X121596879Y-90112339D02*
X120947359Y-89737339D01*
X121547359Y-88698109D01*
X122196879Y-89073109D01*
X121596879Y-90112339D01*
X121596879Y-90112339D01*
G37*
G36*
X122546879Y-88466891D02*
X121897359Y-88091891D01*
X122497359Y-87052661D01*
X123146879Y-87427661D01*
X122546879Y-88466891D01*
X122546879Y-88466891D01*
G37*
D16*
X125365000Y-77150000D03*
X125365000Y-75250000D03*
D10*
G36*
X123146879Y-64972338D02*
X122497359Y-65347338D01*
X121897359Y-64308108D01*
X122546879Y-63933108D01*
X123146879Y-64972338D01*
X123146879Y-64972338D01*
G37*
G36*
X122196879Y-63326890D02*
X121547359Y-63701890D01*
X120947359Y-62662660D01*
X121596879Y-62287660D01*
X122196879Y-63326890D01*
X122196879Y-63326890D01*
G37*
G36*
X114512339Y-55203120D02*
X114137339Y-55852640D01*
X113098109Y-55252640D01*
X113473109Y-54603120D01*
X114512339Y-55203120D01*
X114512339Y-55203120D01*
G37*
G36*
X112866891Y-54253120D02*
X112491891Y-54902640D01*
X111452661Y-54302640D01*
X111827661Y-53653120D01*
X112866891Y-54253120D01*
X112866891Y-54253120D01*
G37*
D11*
X101550000Y-51435000D03*
X99650000Y-51435000D03*
D16*
X105680000Y-77150000D03*
X105680000Y-75250000D03*
D17*
X99000000Y-65550000D03*
X99000000Y-68950000D03*
D18*
X95250000Y-69000000D03*
X95250000Y-65000000D03*
D17*
X91000000Y-69150000D03*
X91000000Y-65750000D03*
D19*
X75900000Y-115800000D03*
X75900000Y-110800000D03*
D20*
X90800000Y-113800000D03*
D21*
X90800000Y-115800000D03*
D22*
X122750000Y-28000000D03*
D23*
X125290000Y-28000000D03*
X127830000Y-28000000D03*
X130370000Y-28000000D03*
X132910000Y-28000000D03*
X135450000Y-28000000D03*
D22*
X59000000Y-62920000D03*
D23*
X59000000Y-65460000D03*
X59000000Y-68000000D03*
D22*
X105750000Y-28000000D03*
D23*
X103210000Y-28000000D03*
X100670000Y-28000000D03*
X98130000Y-28000000D03*
X95590000Y-28000000D03*
D24*
X118500000Y-35380000D03*
D25*
X118500000Y-37920000D03*
X118500000Y-40460000D03*
X118500000Y-43000000D03*
D26*
X86600000Y-115000000D03*
X86600000Y-117200000D03*
X68000000Y-106100000D03*
X68000000Y-103900000D03*
X64000000Y-106000000D03*
X64000000Y-103800000D03*
X68000000Y-102100000D03*
X68000000Y-99900000D03*
X64000000Y-102000000D03*
X64000000Y-99800000D03*
X53500000Y-43850000D03*
X53500000Y-41650000D03*
X95200000Y-75100000D03*
X95200000Y-77300000D03*
X110500000Y-29850000D03*
X110500000Y-27650000D03*
X126000000Y-40100000D03*
X126000000Y-37900000D03*
X122750000Y-40100000D03*
X122750000Y-37900000D03*
X102250000Y-68100000D03*
X102250000Y-65900000D03*
D27*
X145600000Y-57500000D03*
X143400000Y-57500000D03*
X145600000Y-59500000D03*
X143400000Y-59500000D03*
D28*
X83000000Y-112000000D03*
X82050000Y-112000000D03*
X81100000Y-112000000D03*
X81100000Y-114700000D03*
X83000000Y-114700000D03*
D29*
X65840000Y-112900000D03*
X67560000Y-112900000D03*
X69280000Y-112900000D03*
X64120000Y-112900000D03*
X62400000Y-112900000D03*
D30*
X61640000Y-115125000D03*
X62840000Y-115125000D03*
X64040000Y-115125000D03*
X65240000Y-115125000D03*
X66440000Y-115125000D03*
X67640000Y-115125000D03*
X68840000Y-115125000D03*
X70040000Y-115125000D03*
X70040000Y-116325000D03*
X68840000Y-116325000D03*
X67640000Y-116325000D03*
X66440000Y-116325000D03*
X65240000Y-116325000D03*
X64040000Y-116325000D03*
X62840000Y-116325000D03*
X61640000Y-116325000D03*
X61640000Y-117525000D03*
X62840000Y-117525000D03*
X64040000Y-117525000D03*
X65240000Y-117525000D03*
X66440000Y-117525000D03*
X67640000Y-117525000D03*
X68840000Y-117525000D03*
X70040000Y-117525000D03*
X70040000Y-118725000D03*
X68840000Y-118725000D03*
X67640000Y-118725000D03*
X66440000Y-118725000D03*
X65240000Y-118725000D03*
X64040000Y-118725000D03*
X62840000Y-118725000D03*
X61640000Y-118725000D03*
X61640000Y-119925000D03*
X62840000Y-119925000D03*
X64040000Y-119925000D03*
X65240000Y-119925000D03*
X66440000Y-119925000D03*
X67640000Y-119925000D03*
X68840000Y-119925000D03*
X70040000Y-119925000D03*
X70040000Y-121125000D03*
X68840000Y-121125000D03*
X67640000Y-121125000D03*
X66440000Y-121125000D03*
X65240000Y-121125000D03*
X64040000Y-121125000D03*
X62840000Y-121125000D03*
X61640000Y-121125000D03*
X61640000Y-122325000D03*
X62840000Y-122325000D03*
X64040000Y-122325000D03*
X65240000Y-122325000D03*
X66440000Y-122325000D03*
X67640000Y-122325000D03*
X68840000Y-122325000D03*
X70040000Y-122325000D03*
D31*
X65840000Y-118500000D03*
D32*
X77000000Y-34000000D03*
X77000000Y-35270000D03*
X77000000Y-36540000D03*
X77000000Y-37810000D03*
X77000000Y-39080000D03*
X77000000Y-40350000D03*
X77000000Y-41620000D03*
X77000000Y-42890000D03*
X77000000Y-44160000D03*
X77000000Y-45430000D03*
X77000000Y-46700000D03*
X77000000Y-47970000D03*
X77000000Y-49240000D03*
X77000000Y-50510000D03*
D33*
X73715000Y-52000000D03*
X72445000Y-52000000D03*
X71175000Y-52000000D03*
X69905000Y-52000000D03*
X68635000Y-52000000D03*
X67365000Y-52000000D03*
X66095000Y-52000000D03*
X64825000Y-52000000D03*
X63555000Y-52000000D03*
X62285000Y-52000000D03*
D32*
X59000000Y-50510000D03*
X59000000Y-49240000D03*
X59000000Y-47970000D03*
X59000000Y-46700000D03*
X59000000Y-45430000D03*
X59000000Y-44160000D03*
X59000000Y-42890000D03*
X59000000Y-41620000D03*
X59000000Y-40350000D03*
X59000000Y-39080000D03*
X59000000Y-37810000D03*
X59000000Y-36540000D03*
X59000000Y-35270000D03*
X59000000Y-34000000D03*
D34*
X67700000Y-41700000D03*
D35*
X60900000Y-78700000D03*
X64100000Y-78700000D03*
X60900000Y-73700000D03*
X64100000Y-73700000D03*
D36*
X103100000Y-115900000D03*
X103100000Y-112700000D03*
X98100000Y-115900000D03*
X98100000Y-112700000D03*
D35*
X140300000Y-73700000D03*
X137100000Y-73700000D03*
X140300000Y-78700000D03*
X137100000Y-78700000D03*
D36*
X98099999Y-36500000D03*
X98099999Y-39700000D03*
X103099999Y-36500000D03*
X103099999Y-39700000D03*
D10*
G36*
X83472755Y-49934743D02*
X83972755Y-50800769D01*
X82587115Y-51600769D01*
X82087115Y-50734743D01*
X83472755Y-49934743D01*
X83472755Y-49934743D01*
G37*
G36*
X85072755Y-52706025D02*
X85572755Y-53572051D01*
X84187115Y-54372051D01*
X83687115Y-53506025D01*
X85072755Y-52706025D01*
X85072755Y-52706025D01*
G37*
G36*
X87802883Y-47434743D02*
X88302883Y-48300769D01*
X86917243Y-49100769D01*
X86417243Y-48234743D01*
X87802883Y-47434743D01*
X87802883Y-47434743D01*
G37*
G36*
X89402883Y-50206025D02*
X89902883Y-51072051D01*
X88517243Y-51872051D01*
X88017243Y-51006025D01*
X89402883Y-50206025D01*
X89402883Y-50206025D01*
G37*
G36*
X72634743Y-62017244D02*
X73500769Y-62517244D01*
X72700769Y-63902884D01*
X71834743Y-63402884D01*
X72634743Y-62017244D01*
X72634743Y-62017244D01*
G37*
G36*
X75406025Y-63617244D02*
X76272051Y-64117244D01*
X75472051Y-65502884D01*
X74606025Y-65002884D01*
X75406025Y-63617244D01*
X75406025Y-63617244D01*
G37*
G36*
X75134743Y-57687116D02*
X76000769Y-58187116D01*
X75200769Y-59572756D01*
X74334743Y-59072756D01*
X75134743Y-57687116D01*
X75134743Y-57687116D01*
G37*
G36*
X77906025Y-59287116D02*
X78772051Y-59787116D01*
X77972051Y-61172756D01*
X77106025Y-60672756D01*
X77906025Y-59287116D01*
X77906025Y-59287116D01*
G37*
D35*
X69790000Y-78700000D03*
X72990000Y-78700000D03*
X69790000Y-73700000D03*
X72990000Y-73700000D03*
D10*
G36*
X74334743Y-93327244D02*
X75200769Y-92827244D01*
X76000769Y-94212884D01*
X75134743Y-94712884D01*
X74334743Y-93327244D01*
X74334743Y-93327244D01*
G37*
G36*
X77106025Y-91727244D02*
X77972051Y-91227244D01*
X78772051Y-92612884D01*
X77906025Y-93112884D01*
X77106025Y-91727244D01*
X77106025Y-91727244D01*
G37*
G36*
X71834743Y-88997116D02*
X72700769Y-88497116D01*
X73500769Y-89882756D01*
X72634743Y-90382756D01*
X71834743Y-88997116D01*
X71834743Y-88997116D01*
G37*
G36*
X74606025Y-87397116D02*
X75472051Y-86897116D01*
X76272051Y-88282756D01*
X75406025Y-88782756D01*
X74606025Y-87397116D01*
X74606025Y-87397116D01*
G37*
G36*
X86417244Y-104165256D02*
X86917244Y-103299230D01*
X88302884Y-104099230D01*
X87802884Y-104965256D01*
X86417244Y-104165256D01*
X86417244Y-104165256D01*
G37*
G36*
X88017244Y-101393974D02*
X88517244Y-100527948D01*
X89902884Y-101327948D01*
X89402884Y-102193974D01*
X88017244Y-101393974D01*
X88017244Y-101393974D01*
G37*
G36*
X82087116Y-101665256D02*
X82587116Y-100799230D01*
X83972756Y-101599230D01*
X83472756Y-102465256D01*
X82087116Y-101665256D01*
X82087116Y-101665256D01*
G37*
G36*
X83687116Y-98893974D02*
X84187116Y-98027948D01*
X85572756Y-98827948D01*
X85072756Y-99693974D01*
X83687116Y-98893974D01*
X83687116Y-98893974D01*
G37*
D36*
X103100000Y-107010000D03*
X103100000Y-103810000D03*
X98100000Y-107010000D03*
X98100000Y-103810000D03*
D10*
G36*
X117727244Y-102465256D02*
X117227244Y-101599230D01*
X118612884Y-100799230D01*
X119112884Y-101665256D01*
X117727244Y-102465256D01*
X117727244Y-102465256D01*
G37*
G36*
X116127244Y-99693974D02*
X115627244Y-98827948D01*
X117012884Y-98027948D01*
X117512884Y-98893974D01*
X116127244Y-99693974D01*
X116127244Y-99693974D01*
G37*
G36*
X113397116Y-104965256D02*
X112897116Y-104099230D01*
X114282756Y-103299230D01*
X114782756Y-104165256D01*
X113397116Y-104965256D01*
X113397116Y-104965256D01*
G37*
G36*
X111797116Y-102193974D02*
X111297116Y-101327948D01*
X112682756Y-100527948D01*
X113182756Y-101393974D01*
X111797116Y-102193974D01*
X111797116Y-102193974D01*
G37*
G36*
X128565256Y-90382756D02*
X127699230Y-89882756D01*
X128499230Y-88497116D01*
X129365256Y-88997116D01*
X128565256Y-90382756D01*
X128565256Y-90382756D01*
G37*
G36*
X125793974Y-88782756D02*
X124927948Y-88282756D01*
X125727948Y-86897116D01*
X126593974Y-87397116D01*
X125793974Y-88782756D01*
X125793974Y-88782756D01*
G37*
G36*
X126065256Y-94712884D02*
X125199230Y-94212884D01*
X125999230Y-92827244D01*
X126865256Y-93327244D01*
X126065256Y-94712884D01*
X126065256Y-94712884D01*
G37*
G36*
X123293974Y-93112884D02*
X122427948Y-92612884D01*
X123227948Y-91227244D01*
X124093974Y-91727244D01*
X123293974Y-93112884D01*
X123293974Y-93112884D01*
G37*
D35*
X131410000Y-73700000D03*
X128210000Y-73700000D03*
X131410000Y-78700000D03*
X128210000Y-78700000D03*
D10*
G36*
X126865256Y-59072755D02*
X125999230Y-59572755D01*
X125199230Y-58187115D01*
X126065256Y-57687115D01*
X126865256Y-59072755D01*
X126865256Y-59072755D01*
G37*
G36*
X124093974Y-60672755D02*
X123227948Y-61172755D01*
X122427948Y-59787115D01*
X123293974Y-59287115D01*
X124093974Y-60672755D01*
X124093974Y-60672755D01*
G37*
G36*
X129365256Y-63402883D02*
X128499230Y-63902883D01*
X127699230Y-62517243D01*
X128565256Y-62017243D01*
X129365256Y-63402883D01*
X129365256Y-63402883D01*
G37*
G36*
X126593974Y-65002883D02*
X125727948Y-65502883D01*
X124927948Y-64117243D01*
X125793974Y-63617243D01*
X126593974Y-65002883D01*
X126593974Y-65002883D01*
G37*
G36*
X114782756Y-48234743D02*
X114282756Y-49100769D01*
X112897116Y-48300769D01*
X113397116Y-47434743D01*
X114782756Y-48234743D01*
X114782756Y-48234743D01*
G37*
G36*
X113182756Y-51006025D02*
X112682756Y-51872051D01*
X111297116Y-51072051D01*
X111797116Y-50206025D01*
X113182756Y-51006025D01*
X113182756Y-51006025D01*
G37*
G36*
X119112884Y-50734743D02*
X118612884Y-51600769D01*
X117227244Y-50800769D01*
X117727244Y-49934743D01*
X119112884Y-50734743D01*
X119112884Y-50734743D01*
G37*
G36*
X117512884Y-53506025D02*
X117012884Y-54372051D01*
X115627244Y-53572051D01*
X116127244Y-52706025D01*
X117512884Y-53506025D01*
X117512884Y-53506025D01*
G37*
D36*
X98100000Y-45390000D03*
X98100000Y-48590000D03*
X103100000Y-45390000D03*
X103100000Y-48590000D03*
D10*
G36*
X87917755Y-57633709D02*
X88417755Y-58499735D01*
X87032115Y-59299735D01*
X86532115Y-58433709D01*
X87917755Y-57633709D01*
X87917755Y-57633709D01*
G37*
G36*
X89517755Y-60404991D02*
X90017755Y-61271017D01*
X88632115Y-62071017D01*
X88132115Y-61204991D01*
X89517755Y-60404991D01*
X89517755Y-60404991D01*
G37*
G36*
X92247883Y-55133709D02*
X92747883Y-55999735D01*
X91362243Y-56799735D01*
X90862243Y-55933709D01*
X92247883Y-55133709D01*
X92247883Y-55133709D01*
G37*
G36*
X93847883Y-57904991D02*
X94347883Y-58771017D01*
X92962243Y-59571017D01*
X92462243Y-58704991D01*
X93847883Y-57904991D01*
X93847883Y-57904991D01*
G37*
G36*
X80333709Y-66462244D02*
X81199735Y-66962244D01*
X80399735Y-68347884D01*
X79533709Y-67847884D01*
X80333709Y-66462244D01*
X80333709Y-66462244D01*
G37*
G36*
X83104991Y-68062244D02*
X83971017Y-68562244D01*
X83171017Y-69947884D01*
X82304991Y-69447884D01*
X83104991Y-68062244D01*
X83104991Y-68062244D01*
G37*
G36*
X82833709Y-62132116D02*
X83699735Y-62632116D01*
X82899735Y-64017756D01*
X82033709Y-63517756D01*
X82833709Y-62132116D01*
X82833709Y-62132116D01*
G37*
G36*
X85604991Y-63732116D02*
X86471017Y-64232116D01*
X85671017Y-65617756D01*
X84804991Y-65117756D01*
X85604991Y-63732116D01*
X85604991Y-63732116D01*
G37*
D35*
X78680000Y-78700000D03*
X81880000Y-78700000D03*
X78680000Y-73700000D03*
X81880000Y-73700000D03*
D10*
G36*
X82033709Y-88882244D02*
X82899735Y-88382244D01*
X83699735Y-89767884D01*
X82833709Y-90267884D01*
X82033709Y-88882244D01*
X82033709Y-88882244D01*
G37*
G36*
X84804991Y-87282244D02*
X85671017Y-86782244D01*
X86471017Y-88167884D01*
X85604991Y-88667884D01*
X84804991Y-87282244D01*
X84804991Y-87282244D01*
G37*
G36*
X79533709Y-84552116D02*
X80399735Y-84052116D01*
X81199735Y-85437756D01*
X80333709Y-85937756D01*
X79533709Y-84552116D01*
X79533709Y-84552116D01*
G37*
G36*
X82304991Y-82952116D02*
X83171017Y-82452116D01*
X83971017Y-83837756D01*
X83104991Y-84337756D01*
X82304991Y-82952116D01*
X82304991Y-82952116D01*
G37*
G36*
X90862244Y-96466290D02*
X91362244Y-95600264D01*
X92747884Y-96400264D01*
X92247884Y-97266290D01*
X90862244Y-96466290D01*
X90862244Y-96466290D01*
G37*
G36*
X92462244Y-93695008D02*
X92962244Y-92828982D01*
X94347884Y-93628982D01*
X93847884Y-94495008D01*
X92462244Y-93695008D01*
X92462244Y-93695008D01*
G37*
G36*
X86532116Y-93966290D02*
X87032116Y-93100264D01*
X88417756Y-93900264D01*
X87917756Y-94766290D01*
X86532116Y-93966290D01*
X86532116Y-93966290D01*
G37*
G36*
X88132116Y-91195008D02*
X88632116Y-90328982D01*
X90017756Y-91128982D01*
X89517756Y-91995008D01*
X88132116Y-91195008D01*
X88132116Y-91195008D01*
G37*
D36*
X103100000Y-98120000D03*
X103100000Y-94920000D03*
X98100000Y-98120000D03*
X98100000Y-94920000D03*
D10*
G36*
X113282244Y-94766290D02*
X112782244Y-93900264D01*
X114167884Y-93100264D01*
X114667884Y-93966290D01*
X113282244Y-94766290D01*
X113282244Y-94766290D01*
G37*
G36*
X111682244Y-91995008D02*
X111182244Y-91128982D01*
X112567884Y-90328982D01*
X113067884Y-91195008D01*
X111682244Y-91995008D01*
X111682244Y-91995008D01*
G37*
G36*
X108952116Y-97266290D02*
X108452116Y-96400264D01*
X109837756Y-95600264D01*
X110337756Y-96466290D01*
X108952116Y-97266290D01*
X108952116Y-97266290D01*
G37*
G36*
X107352116Y-94495008D02*
X106852116Y-93628982D01*
X108237756Y-92828982D01*
X108737756Y-93695008D01*
X107352116Y-94495008D01*
X107352116Y-94495008D01*
G37*
G36*
X120866290Y-85937756D02*
X120000264Y-85437756D01*
X120800264Y-84052116D01*
X121666290Y-84552116D01*
X120866290Y-85937756D01*
X120866290Y-85937756D01*
G37*
G36*
X118095008Y-84337756D02*
X117228982Y-83837756D01*
X118028982Y-82452116D01*
X118895008Y-82952116D01*
X118095008Y-84337756D01*
X118095008Y-84337756D01*
G37*
G36*
X118366290Y-90267884D02*
X117500264Y-89767884D01*
X118300264Y-88382244D01*
X119166290Y-88882244D01*
X118366290Y-90267884D01*
X118366290Y-90267884D01*
G37*
G36*
X115595008Y-88667884D02*
X114728982Y-88167884D01*
X115528982Y-86782244D01*
X116395008Y-87282244D01*
X115595008Y-88667884D01*
X115595008Y-88667884D01*
G37*
D35*
X122520000Y-73700000D03*
X119320000Y-73700000D03*
X122520000Y-78700000D03*
X119320000Y-78700000D03*
D10*
G36*
X119166290Y-63517755D02*
X118300264Y-64017755D01*
X117500264Y-62632115D01*
X118366290Y-62132115D01*
X119166290Y-63517755D01*
X119166290Y-63517755D01*
G37*
G36*
X116395008Y-65117755D02*
X115528982Y-65617755D01*
X114728982Y-64232115D01*
X115595008Y-63732115D01*
X116395008Y-65117755D01*
X116395008Y-65117755D01*
G37*
G36*
X121666290Y-67847883D02*
X120800264Y-68347883D01*
X120000264Y-66962243D01*
X120866290Y-66462243D01*
X121666290Y-67847883D01*
X121666290Y-67847883D01*
G37*
G36*
X118895008Y-69447883D02*
X118028982Y-69947883D01*
X117228982Y-68562243D01*
X118095008Y-68062243D01*
X118895008Y-69447883D01*
X118895008Y-69447883D01*
G37*
G36*
X110337756Y-55933709D02*
X109837756Y-56799735D01*
X108452116Y-55999735D01*
X108952116Y-55133709D01*
X110337756Y-55933709D01*
X110337756Y-55933709D01*
G37*
G36*
X108737756Y-58704991D02*
X108237756Y-59571017D01*
X106852116Y-58771017D01*
X107352116Y-57904991D01*
X108737756Y-58704991D01*
X108737756Y-58704991D01*
G37*
G36*
X114667884Y-58433709D02*
X114167884Y-59299735D01*
X112782244Y-58499735D01*
X113282244Y-57633709D01*
X114667884Y-58433709D01*
X114667884Y-58433709D01*
G37*
G36*
X113067884Y-61204991D02*
X112567884Y-62071017D01*
X111182244Y-61271017D01*
X111682244Y-60404991D01*
X113067884Y-61204991D01*
X113067884Y-61204991D01*
G37*
D36*
X98100000Y-54280000D03*
X98100000Y-57480000D03*
X103100000Y-54280000D03*
X103100000Y-57480000D03*
X98100000Y-74600000D03*
X98100000Y-77800000D03*
X103100000Y-74600000D03*
X103100000Y-77800000D03*
D37*
X105750000Y-67500000D03*
X105750000Y-68500000D03*
X105750000Y-69500000D03*
X105750000Y-70500000D03*
X108150000Y-70500000D03*
X108150000Y-69500000D03*
X108150000Y-68500000D03*
X108150000Y-67500000D03*
D22*
X74820000Y-121100000D03*
D23*
X77360000Y-121100000D03*
X79900000Y-121100000D03*
D22*
X148830000Y-53250000D03*
D23*
X146290000Y-53250000D03*
X143750000Y-53250000D03*
X141210000Y-53250000D03*
X138670000Y-53250000D03*
X136130000Y-53250000D03*
X133590000Y-53250000D03*
X131050000Y-53250000D03*
D38*
X147000000Y-30000000D03*
D39*
X149400000Y-30000000D03*
X148697056Y-31697056D03*
X147000000Y-32400000D03*
X145302944Y-31697056D03*
X144600000Y-30000000D03*
X145302944Y-28302944D03*
X147000000Y-27600000D03*
X148697056Y-28302944D03*
D38*
X55000000Y-30000000D03*
D39*
X57400000Y-30000000D03*
X56697056Y-31697056D03*
X55000000Y-32400000D03*
X53302944Y-31697056D03*
X52600000Y-30000000D03*
X53302944Y-28302944D03*
X55000000Y-27600000D03*
X56697056Y-28302944D03*
D38*
X55000000Y-122000000D03*
D39*
X57400000Y-122000000D03*
X56697056Y-123697056D03*
X55000000Y-124400000D03*
X53302944Y-123697056D03*
X52600000Y-122000000D03*
X53302944Y-120302944D03*
X55000000Y-119600000D03*
X56697056Y-120302944D03*
D38*
X147000000Y-122000000D03*
D39*
X149400000Y-122000000D03*
X148697056Y-123697056D03*
X147000000Y-124400000D03*
X145302944Y-123697056D03*
X144600000Y-122000000D03*
X145302944Y-120302944D03*
X147000000Y-119600000D03*
X148697056Y-120302944D03*
M02*
