G04 #@! TF.FileFunction,Legend,Bot*
%FSLAX46Y46*%
G04 Gerber Fmt 4.6, Leading zero omitted, Abs format (unit mm)*
G04 Created by KiCad (PCBNEW 4.0.7) date Saturday, 23 June 2018 'PMt' 19:02:52*
%MOMM*%
%LPD*%
G01*
G04 APERTURE LIST*
%ADD10C,0.100000*%
%ADD11C,0.200000*%
%ADD12C,0.300000*%
%ADD13C,0.120000*%
%ADD14C,0.150000*%
G04 APERTURE END LIST*
D10*
D11*
X74000000Y-55500000D02*
X76000000Y-55500000D01*
X76000000Y-56750000D02*
X75000000Y-55750000D01*
X74000000Y-56750000D02*
X76000000Y-56750000D01*
X75000000Y-55750000D02*
X74000000Y-56750000D01*
X60500000Y-55500000D02*
X62250000Y-55500000D01*
X60500000Y-56750000D02*
X61500000Y-55750000D01*
X62500000Y-56750000D02*
X60500000Y-56750000D01*
X61500000Y-55750000D02*
X62500000Y-56750000D01*
D12*
X94678571Y-120428571D02*
X95392857Y-120428571D01*
X95392857Y-118928571D01*
X94178571Y-120428571D02*
X94178571Y-118928571D01*
X93464285Y-120428571D02*
X93464285Y-118928571D01*
X92892857Y-118928571D01*
X92749999Y-119000000D01*
X92678571Y-119071429D01*
X92607142Y-119214286D01*
X92607142Y-119428571D01*
X92678571Y-119571429D01*
X92749999Y-119642857D01*
X92892857Y-119714286D01*
X93464285Y-119714286D01*
X91678571Y-118928571D02*
X91392857Y-118928571D01*
X91249999Y-119000000D01*
X91107142Y-119142857D01*
X91035714Y-119428571D01*
X91035714Y-119928571D01*
X91107142Y-120214286D01*
X91249999Y-120357143D01*
X91392857Y-120428571D01*
X91678571Y-120428571D01*
X91821428Y-120357143D01*
X91964285Y-120214286D01*
X92035714Y-119928571D01*
X92035714Y-119428571D01*
X91964285Y-119142857D01*
X91821428Y-119000000D01*
X91678571Y-118928571D01*
X91321428Y-110107143D02*
X90178571Y-110107143D01*
X90750000Y-110678571D02*
X90750000Y-109535714D01*
X78678571Y-43428571D02*
X78678571Y-41928571D01*
X78107143Y-41928571D01*
X77964285Y-42000000D01*
X77892857Y-42071429D01*
X77821428Y-42214286D01*
X77821428Y-42428571D01*
X77892857Y-42571429D01*
X77964285Y-42642857D01*
X78107143Y-42714286D01*
X78678571Y-42714286D01*
X76321428Y-43428571D02*
X76821428Y-42714286D01*
X77178571Y-43428571D02*
X77178571Y-41928571D01*
X76607143Y-41928571D01*
X76464285Y-42000000D01*
X76392857Y-42071429D01*
X76321428Y-42214286D01*
X76321428Y-42428571D01*
X76392857Y-42571429D01*
X76464285Y-42642857D01*
X76607143Y-42714286D01*
X77178571Y-42714286D01*
X75392857Y-41928571D02*
X75107143Y-41928571D01*
X74964285Y-42000000D01*
X74821428Y-42142857D01*
X74750000Y-42428571D01*
X74750000Y-42928571D01*
X74821428Y-43214286D01*
X74964285Y-43357143D01*
X75107143Y-43428571D01*
X75392857Y-43428571D01*
X75535714Y-43357143D01*
X75678571Y-43214286D01*
X75750000Y-42928571D01*
X75750000Y-42428571D01*
X75678571Y-42142857D01*
X75535714Y-42000000D01*
X75392857Y-41928571D01*
X73321428Y-42000000D02*
X73464285Y-41928571D01*
X73678571Y-41928571D01*
X73892856Y-42000000D01*
X74035714Y-42142857D01*
X74107142Y-42285714D01*
X74178571Y-42571429D01*
X74178571Y-42785714D01*
X74107142Y-43071429D01*
X74035714Y-43214286D01*
X73892856Y-43357143D01*
X73678571Y-43428571D01*
X73535714Y-43428571D01*
X73321428Y-43357143D01*
X73249999Y-43285714D01*
X73249999Y-42785714D01*
X73535714Y-42785714D01*
X71749999Y-43428571D02*
X72249999Y-42714286D01*
X72607142Y-43428571D02*
X72607142Y-41928571D01*
X72035714Y-41928571D01*
X71892856Y-42000000D01*
X71821428Y-42071429D01*
X71749999Y-42214286D01*
X71749999Y-42428571D01*
X71821428Y-42571429D01*
X71892856Y-42642857D01*
X72035714Y-42714286D01*
X72607142Y-42714286D01*
X71178571Y-43000000D02*
X70464285Y-43000000D01*
X71321428Y-43428571D02*
X70821428Y-41928571D01*
X70321428Y-43428571D01*
X69821428Y-43428571D02*
X69821428Y-41928571D01*
X69321428Y-43000000D01*
X68821428Y-41928571D01*
X68821428Y-43428571D01*
X64428571Y-43428571D02*
X64928571Y-42714286D01*
X65285714Y-43428571D02*
X65285714Y-41928571D01*
X64714286Y-41928571D01*
X64571428Y-42000000D01*
X64500000Y-42071429D01*
X64428571Y-42214286D01*
X64428571Y-42428571D01*
X64500000Y-42571429D01*
X64571428Y-42642857D01*
X64714286Y-42714286D01*
X65285714Y-42714286D01*
X63785714Y-42642857D02*
X63285714Y-42642857D01*
X63071428Y-43428571D02*
X63785714Y-43428571D01*
X63785714Y-41928571D01*
X63071428Y-41928571D01*
X62500000Y-43357143D02*
X62285714Y-43428571D01*
X61928571Y-43428571D01*
X61785714Y-43357143D01*
X61714285Y-43285714D01*
X61642857Y-43142857D01*
X61642857Y-43000000D01*
X61714285Y-42857143D01*
X61785714Y-42785714D01*
X61928571Y-42714286D01*
X62214285Y-42642857D01*
X62357143Y-42571429D01*
X62428571Y-42500000D01*
X62500000Y-42357143D01*
X62500000Y-42214286D01*
X62428571Y-42071429D01*
X62357143Y-42000000D01*
X62214285Y-41928571D01*
X61857143Y-41928571D01*
X61642857Y-42000000D01*
X61000000Y-42642857D02*
X60500000Y-42642857D01*
X60285714Y-43428571D02*
X61000000Y-43428571D01*
X61000000Y-41928571D01*
X60285714Y-41928571D01*
X59857143Y-41928571D02*
X59000000Y-41928571D01*
X59428571Y-43428571D02*
X59428571Y-41928571D01*
X121678571Y-37071428D02*
X121678571Y-37357142D01*
X121750000Y-37500000D01*
X121892857Y-37642857D01*
X122178571Y-37714285D01*
X122678571Y-37714285D01*
X122964286Y-37642857D01*
X123107143Y-37500000D01*
X123178571Y-37357142D01*
X123178571Y-37071428D01*
X123107143Y-36928571D01*
X122964286Y-36785714D01*
X122678571Y-36714285D01*
X122178571Y-36714285D01*
X121892857Y-36785714D01*
X121750000Y-36928571D01*
X121678571Y-37071428D01*
X123178571Y-39071429D02*
X123178571Y-38357143D01*
X121678571Y-38357143D01*
X122392857Y-39571429D02*
X122392857Y-40071429D01*
X123178571Y-40285715D02*
X123178571Y-39571429D01*
X121678571Y-39571429D01*
X121678571Y-40285715D01*
X123178571Y-40928572D02*
X121678571Y-40928572D01*
X121678571Y-41285715D01*
X121750000Y-41500000D01*
X121892857Y-41642858D01*
X122035714Y-41714286D01*
X122321429Y-41785715D01*
X122535714Y-41785715D01*
X122821429Y-41714286D01*
X122964286Y-41642858D01*
X123107143Y-41500000D01*
X123178571Y-41285715D01*
X123178571Y-40928572D01*
X116785714Y-36107143D02*
X116571428Y-36178571D01*
X116214285Y-36178571D01*
X116071428Y-36107143D01*
X115999999Y-36035714D01*
X115928571Y-35892857D01*
X115928571Y-35750000D01*
X115999999Y-35607143D01*
X116071428Y-35535714D01*
X116214285Y-35464286D01*
X116499999Y-35392857D01*
X116642857Y-35321429D01*
X116714285Y-35250000D01*
X116785714Y-35107143D01*
X116785714Y-34964286D01*
X116714285Y-34821429D01*
X116642857Y-34750000D01*
X116499999Y-34678571D01*
X116142857Y-34678571D01*
X115928571Y-34750000D01*
X115285714Y-36178571D02*
X115285714Y-34678571D01*
X114928571Y-34678571D01*
X114714286Y-34750000D01*
X114571428Y-34892857D01*
X114500000Y-35035714D01*
X114428571Y-35321429D01*
X114428571Y-35535714D01*
X114500000Y-35821429D01*
X114571428Y-35964286D01*
X114714286Y-36107143D01*
X114928571Y-36178571D01*
X115285714Y-36178571D01*
X113857143Y-35750000D02*
X113142857Y-35750000D01*
X114000000Y-36178571D02*
X113500000Y-34678571D01*
X113000000Y-36178571D01*
X112214286Y-34678571D02*
X112071429Y-34678571D01*
X111928572Y-34750000D01*
X111857143Y-34821429D01*
X111785714Y-34964286D01*
X111714286Y-35250000D01*
X111714286Y-35607143D01*
X111785714Y-35892857D01*
X111857143Y-36035714D01*
X111928572Y-36107143D01*
X112071429Y-36178571D01*
X112214286Y-36178571D01*
X112357143Y-36107143D01*
X112428572Y-36035714D01*
X112500000Y-35892857D01*
X112571429Y-35607143D01*
X112571429Y-35250000D01*
X112500000Y-34964286D01*
X112428572Y-34821429D01*
X112357143Y-34750000D01*
X112214286Y-34678571D01*
X116750000Y-38607143D02*
X116535714Y-38678571D01*
X116178571Y-38678571D01*
X116035714Y-38607143D01*
X115964285Y-38535714D01*
X115892857Y-38392857D01*
X115892857Y-38250000D01*
X115964285Y-38107143D01*
X116035714Y-38035714D01*
X116178571Y-37964286D01*
X116464285Y-37892857D01*
X116607143Y-37821429D01*
X116678571Y-37750000D01*
X116750000Y-37607143D01*
X116750000Y-37464286D01*
X116678571Y-37321429D01*
X116607143Y-37250000D01*
X116464285Y-37178571D01*
X116107143Y-37178571D01*
X115892857Y-37250000D01*
X114392857Y-38535714D02*
X114464286Y-38607143D01*
X114678572Y-38678571D01*
X114821429Y-38678571D01*
X115035714Y-38607143D01*
X115178572Y-38464286D01*
X115250000Y-38321429D01*
X115321429Y-38035714D01*
X115321429Y-37821429D01*
X115250000Y-37535714D01*
X115178572Y-37392857D01*
X115035714Y-37250000D01*
X114821429Y-37178571D01*
X114678572Y-37178571D01*
X114464286Y-37250000D01*
X114392857Y-37321429D01*
X113035714Y-38678571D02*
X113750000Y-38678571D01*
X113750000Y-37178571D01*
X112250000Y-37178571D02*
X112107143Y-37178571D01*
X111964286Y-37250000D01*
X111892857Y-37321429D01*
X111821428Y-37464286D01*
X111750000Y-37750000D01*
X111750000Y-38107143D01*
X111821428Y-38392857D01*
X111892857Y-38535714D01*
X111964286Y-38607143D01*
X112107143Y-38678571D01*
X112250000Y-38678571D01*
X112392857Y-38607143D01*
X112464286Y-38535714D01*
X112535714Y-38392857D01*
X112607143Y-38107143D01*
X112607143Y-37750000D01*
X112535714Y-37464286D01*
X112464286Y-37321429D01*
X112392857Y-37250000D01*
X112250000Y-37178571D01*
X116607142Y-39678571D02*
X115678571Y-39678571D01*
X116178571Y-40250000D01*
X115964285Y-40250000D01*
X115821428Y-40321429D01*
X115749999Y-40392857D01*
X115678571Y-40535714D01*
X115678571Y-40892857D01*
X115749999Y-41035714D01*
X115821428Y-41107143D01*
X115964285Y-41178571D01*
X116392857Y-41178571D01*
X116535714Y-41107143D01*
X116607142Y-41035714D01*
X115250000Y-39678571D02*
X114750000Y-41178571D01*
X114250000Y-39678571D01*
X113892857Y-39678571D02*
X112964286Y-39678571D01*
X113464286Y-40250000D01*
X113250000Y-40250000D01*
X113107143Y-40321429D01*
X113035714Y-40392857D01*
X112964286Y-40535714D01*
X112964286Y-40892857D01*
X113035714Y-41035714D01*
X113107143Y-41107143D01*
X113250000Y-41178571D01*
X113678572Y-41178571D01*
X113821429Y-41107143D01*
X113892857Y-41035714D01*
X115892857Y-42250000D02*
X116035714Y-42178571D01*
X116250000Y-42178571D01*
X116464285Y-42250000D01*
X116607143Y-42392857D01*
X116678571Y-42535714D01*
X116750000Y-42821429D01*
X116750000Y-43035714D01*
X116678571Y-43321429D01*
X116607143Y-43464286D01*
X116464285Y-43607143D01*
X116250000Y-43678571D01*
X116107143Y-43678571D01*
X115892857Y-43607143D01*
X115821428Y-43535714D01*
X115821428Y-43035714D01*
X116107143Y-43035714D01*
X115178571Y-43678571D02*
X115178571Y-42178571D01*
X114321428Y-43678571D01*
X114321428Y-42178571D01*
X113607142Y-43678571D02*
X113607142Y-42178571D01*
X113249999Y-42178571D01*
X113035714Y-42250000D01*
X112892856Y-42392857D01*
X112821428Y-42535714D01*
X112749999Y-42821429D01*
X112749999Y-43035714D01*
X112821428Y-43321429D01*
X112892856Y-43464286D01*
X113035714Y-43607143D01*
X113249999Y-43678571D01*
X113607142Y-43678571D01*
X143142857Y-56725000D02*
X142428571Y-56725000D01*
X143285714Y-57153571D02*
X142785714Y-55653571D01*
X142285714Y-57153571D01*
X140928571Y-57010714D02*
X141000000Y-57082143D01*
X141214286Y-57153571D01*
X141357143Y-57153571D01*
X141571428Y-57082143D01*
X141714286Y-56939286D01*
X141785714Y-56796429D01*
X141857143Y-56510714D01*
X141857143Y-56296429D01*
X141785714Y-56010714D01*
X141714286Y-55867857D01*
X141571428Y-55725000D01*
X141357143Y-55653571D01*
X141214286Y-55653571D01*
X141000000Y-55725000D01*
X140928571Y-55796429D01*
X139428571Y-57010714D02*
X139500000Y-57082143D01*
X139714286Y-57153571D01*
X139857143Y-57153571D01*
X140071428Y-57082143D01*
X140214286Y-56939286D01*
X140285714Y-56796429D01*
X140357143Y-56510714D01*
X140357143Y-56296429D01*
X140285714Y-56010714D01*
X140214286Y-55867857D01*
X140071428Y-55725000D01*
X139857143Y-55653571D01*
X139714286Y-55653571D01*
X139500000Y-55725000D01*
X139428571Y-55796429D01*
X138785714Y-56367857D02*
X138285714Y-56367857D01*
X138071428Y-57153571D02*
X138785714Y-57153571D01*
X138785714Y-55653571D01*
X138071428Y-55653571D01*
X136714285Y-57153571D02*
X137428571Y-57153571D01*
X137428571Y-55653571D01*
X144999999Y-59703571D02*
X144999999Y-58203571D01*
X144499999Y-59275000D01*
X143999999Y-58203571D01*
X143999999Y-59703571D01*
X143285713Y-59703571D02*
X143285713Y-58203571D01*
X142785713Y-59275000D01*
X142285713Y-58203571D01*
X142285713Y-59703571D01*
X141357141Y-58846429D02*
X141499999Y-58775000D01*
X141571427Y-58703571D01*
X141642856Y-58560714D01*
X141642856Y-58489286D01*
X141571427Y-58346429D01*
X141499999Y-58275000D01*
X141357141Y-58203571D01*
X141071427Y-58203571D01*
X140928570Y-58275000D01*
X140857141Y-58346429D01*
X140785713Y-58489286D01*
X140785713Y-58560714D01*
X140857141Y-58703571D01*
X140928570Y-58775000D01*
X141071427Y-58846429D01*
X141357141Y-58846429D01*
X141499999Y-58917857D01*
X141571427Y-58989286D01*
X141642856Y-59132143D01*
X141642856Y-59417857D01*
X141571427Y-59560714D01*
X141499999Y-59632143D01*
X141357141Y-59703571D01*
X141071427Y-59703571D01*
X140928570Y-59632143D01*
X140857141Y-59560714D01*
X140785713Y-59417857D01*
X140785713Y-59132143D01*
X140857141Y-58989286D01*
X140928570Y-58917857D01*
X141071427Y-58846429D01*
X139499999Y-58703571D02*
X139499999Y-59703571D01*
X139857142Y-58132143D02*
X140214285Y-59203571D01*
X139285713Y-59203571D01*
X137999999Y-58203571D02*
X138714285Y-58203571D01*
X138785714Y-58917857D01*
X138714285Y-58846429D01*
X138571428Y-58775000D01*
X138214285Y-58775000D01*
X138071428Y-58846429D01*
X137999999Y-58917857D01*
X137928571Y-59060714D01*
X137928571Y-59417857D01*
X137999999Y-59560714D01*
X138071428Y-59632143D01*
X138214285Y-59703571D01*
X138571428Y-59703571D01*
X138714285Y-59632143D01*
X138785714Y-59560714D01*
X137357143Y-58346429D02*
X137285714Y-58275000D01*
X137142857Y-58203571D01*
X136785714Y-58203571D01*
X136642857Y-58275000D01*
X136571428Y-58346429D01*
X136500000Y-58489286D01*
X136500000Y-58632143D01*
X136571428Y-58846429D01*
X137428571Y-59703571D01*
X136500000Y-59703571D01*
X134857143Y-59846429D02*
X135000000Y-59775000D01*
X135142857Y-59632143D01*
X135357143Y-59417857D01*
X135500000Y-59346429D01*
X135642857Y-59346429D01*
X135571429Y-59703571D02*
X135714286Y-59632143D01*
X135857143Y-59489286D01*
X135928572Y-59203571D01*
X135928572Y-58703571D01*
X135857143Y-58417857D01*
X135714286Y-58275000D01*
X135571429Y-58203571D01*
X135285715Y-58203571D01*
X135142857Y-58275000D01*
X135000000Y-58417857D01*
X134928572Y-58703571D01*
X134928572Y-59203571D01*
X135000000Y-59489286D01*
X135142857Y-59632143D01*
X135285715Y-59703571D01*
X135571429Y-59703571D01*
X131678571Y-47178572D02*
X130178571Y-47178572D01*
X131678571Y-47892858D02*
X130178571Y-47892858D01*
X131678571Y-48750001D01*
X130178571Y-48750001D01*
X130178571Y-49250001D02*
X130178571Y-50107144D01*
X131678571Y-49678573D02*
X130178571Y-49678573D01*
X130321429Y-50535715D02*
X130250000Y-50607144D01*
X130178571Y-50750001D01*
X130178571Y-51107144D01*
X130250000Y-51250001D01*
X130321429Y-51321430D01*
X130464286Y-51392858D01*
X130607143Y-51392858D01*
X130821429Y-51321430D01*
X131678571Y-50464287D01*
X131678571Y-51392858D01*
X134428571Y-47178572D02*
X132928571Y-47178572D01*
X134428571Y-47892858D02*
X132928571Y-47892858D01*
X134428571Y-48750001D01*
X132928571Y-48750001D01*
X132928571Y-49250001D02*
X132928571Y-50107144D01*
X134428571Y-49678573D02*
X132928571Y-49678573D01*
X134428571Y-51392858D02*
X134428571Y-50535715D01*
X134428571Y-50964287D02*
X132928571Y-50964287D01*
X133142857Y-50821430D01*
X133285714Y-50678572D01*
X133357143Y-50535715D01*
X139357143Y-46464286D02*
X139428571Y-46678572D01*
X139428571Y-47035715D01*
X139357143Y-47178572D01*
X139285714Y-47250001D01*
X139142857Y-47321429D01*
X139000000Y-47321429D01*
X138857143Y-47250001D01*
X138785714Y-47178572D01*
X138714286Y-47035715D01*
X138642857Y-46750001D01*
X138571429Y-46607143D01*
X138500000Y-46535715D01*
X138357143Y-46464286D01*
X138214286Y-46464286D01*
X138071429Y-46535715D01*
X138000000Y-46607143D01*
X137928571Y-46750001D01*
X137928571Y-47107143D01*
X138000000Y-47321429D01*
X139428571Y-47964286D02*
X137928571Y-47964286D01*
X137928571Y-48321429D01*
X138000000Y-48535714D01*
X138142857Y-48678572D01*
X138285714Y-48750000D01*
X138571429Y-48821429D01*
X138785714Y-48821429D01*
X139071429Y-48750000D01*
X139214286Y-48678572D01*
X139357143Y-48535714D01*
X139428571Y-48321429D01*
X139428571Y-47964286D01*
X139000000Y-49392857D02*
X139000000Y-50107143D01*
X139428571Y-49250000D02*
X137928571Y-49750000D01*
X139428571Y-50250000D01*
X139428571Y-51535714D02*
X139428571Y-50678571D01*
X139428571Y-51107143D02*
X137928571Y-51107143D01*
X138142857Y-50964286D01*
X138285714Y-50821428D01*
X138357143Y-50678571D01*
X141857143Y-46500000D02*
X141928571Y-46714286D01*
X141928571Y-47071429D01*
X141857143Y-47214286D01*
X141785714Y-47285715D01*
X141642857Y-47357143D01*
X141500000Y-47357143D01*
X141357143Y-47285715D01*
X141285714Y-47214286D01*
X141214286Y-47071429D01*
X141142857Y-46785715D01*
X141071429Y-46642857D01*
X141000000Y-46571429D01*
X140857143Y-46500000D01*
X140714286Y-46500000D01*
X140571429Y-46571429D01*
X140500000Y-46642857D01*
X140428571Y-46785715D01*
X140428571Y-47142857D01*
X140500000Y-47357143D01*
X141785714Y-48857143D02*
X141857143Y-48785714D01*
X141928571Y-48571428D01*
X141928571Y-48428571D01*
X141857143Y-48214286D01*
X141714286Y-48071428D01*
X141571429Y-48000000D01*
X141285714Y-47928571D01*
X141071429Y-47928571D01*
X140785714Y-48000000D01*
X140642857Y-48071428D01*
X140500000Y-48214286D01*
X140428571Y-48428571D01*
X140428571Y-48571428D01*
X140500000Y-48785714D01*
X140571429Y-48857143D01*
X141928571Y-50214286D02*
X141928571Y-49500000D01*
X140428571Y-49500000D01*
X141928571Y-51500000D02*
X141928571Y-50642857D01*
X141928571Y-51071429D02*
X140428571Y-51071429D01*
X140642857Y-50928572D01*
X140785714Y-50785714D01*
X140857143Y-50642857D01*
X143250000Y-47857143D02*
X143178571Y-47714286D01*
X143178571Y-47500000D01*
X143250000Y-47285715D01*
X143392857Y-47142857D01*
X143535714Y-47071429D01*
X143821429Y-47000000D01*
X144035714Y-47000000D01*
X144321429Y-47071429D01*
X144464286Y-47142857D01*
X144607143Y-47285715D01*
X144678571Y-47500000D01*
X144678571Y-47642857D01*
X144607143Y-47857143D01*
X144535714Y-47928572D01*
X144035714Y-47928572D01*
X144035714Y-47642857D01*
X144678571Y-48571429D02*
X143178571Y-48571429D01*
X144678571Y-49428572D01*
X143178571Y-49428572D01*
X144678571Y-50142858D02*
X143178571Y-50142858D01*
X143178571Y-50500001D01*
X143250000Y-50714286D01*
X143392857Y-50857144D01*
X143535714Y-50928572D01*
X143821429Y-51000001D01*
X144035714Y-51000001D01*
X144321429Y-50928572D01*
X144464286Y-50857144D01*
X144607143Y-50714286D01*
X144678571Y-50500001D01*
X144678571Y-50142858D01*
X145678571Y-47392858D02*
X145678571Y-48321429D01*
X146250000Y-47821429D01*
X146250000Y-48035715D01*
X146321429Y-48178572D01*
X146392857Y-48250001D01*
X146535714Y-48321429D01*
X146892857Y-48321429D01*
X147035714Y-48250001D01*
X147107143Y-48178572D01*
X147178571Y-48035715D01*
X147178571Y-47607143D01*
X147107143Y-47464286D01*
X147035714Y-47392858D01*
X145678571Y-48750000D02*
X147178571Y-49250000D01*
X145678571Y-49750000D01*
X145678571Y-50107143D02*
X145678571Y-51035714D01*
X146250000Y-50535714D01*
X146250000Y-50750000D01*
X146321429Y-50892857D01*
X146392857Y-50964286D01*
X146535714Y-51035714D01*
X146892857Y-51035714D01*
X147035714Y-50964286D01*
X147107143Y-50892857D01*
X147178571Y-50750000D01*
X147178571Y-50321428D01*
X147107143Y-50178571D01*
X147035714Y-50107143D01*
X62928571Y-64535715D02*
X62928571Y-63821429D01*
X61428571Y-63821429D01*
X62142857Y-65035715D02*
X62142857Y-65535715D01*
X62928571Y-65750001D02*
X62928571Y-65035715D01*
X61428571Y-65035715D01*
X61428571Y-65750001D01*
X62928571Y-66392858D02*
X61428571Y-66392858D01*
X61428571Y-66750001D01*
X61500000Y-66964286D01*
X61642857Y-67107144D01*
X61785714Y-67178572D01*
X62071429Y-67250001D01*
X62285714Y-67250001D01*
X62571429Y-67178572D01*
X62714286Y-67107144D01*
X62857143Y-66964286D01*
X62928571Y-66750001D01*
X62928571Y-66392858D01*
X55892857Y-67500000D02*
X56035714Y-67428571D01*
X56250000Y-67428571D01*
X56464285Y-67500000D01*
X56607143Y-67642857D01*
X56678571Y-67785714D01*
X56750000Y-68071429D01*
X56750000Y-68285714D01*
X56678571Y-68571429D01*
X56607143Y-68714286D01*
X56464285Y-68857143D01*
X56250000Y-68928571D01*
X56107143Y-68928571D01*
X55892857Y-68857143D01*
X55821428Y-68785714D01*
X55821428Y-68285714D01*
X56107143Y-68285714D01*
X55178571Y-68928571D02*
X55178571Y-67428571D01*
X54321428Y-68928571D01*
X54321428Y-67428571D01*
X53607142Y-68928571D02*
X53607142Y-67428571D01*
X53249999Y-67428571D01*
X53035714Y-67500000D01*
X52892856Y-67642857D01*
X52821428Y-67785714D01*
X52749999Y-68071429D01*
X52749999Y-68285714D01*
X52821428Y-68571429D01*
X52892856Y-68714286D01*
X53035714Y-68857143D01*
X53249999Y-68928571D01*
X53607142Y-68928571D01*
X56749999Y-66178571D02*
X56749999Y-64678571D01*
X56392856Y-64678571D01*
X56178571Y-64750000D01*
X56035713Y-64892857D01*
X55964285Y-65035714D01*
X55892856Y-65321429D01*
X55892856Y-65535714D01*
X55964285Y-65821429D01*
X56035713Y-65964286D01*
X56178571Y-66107143D01*
X56392856Y-66178571D01*
X56749999Y-66178571D01*
X55321428Y-65750000D02*
X54607142Y-65750000D01*
X55464285Y-66178571D02*
X54964285Y-64678571D01*
X54464285Y-66178571D01*
X54178571Y-64678571D02*
X53321428Y-64678571D01*
X53749999Y-66178571D02*
X53749999Y-64678571D01*
X52892857Y-65750000D02*
X52178571Y-65750000D01*
X53035714Y-66178571D02*
X52535714Y-64678571D01*
X52035714Y-66178571D01*
X56857142Y-62178571D02*
X55928571Y-62178571D01*
X56428571Y-62750000D01*
X56214285Y-62750000D01*
X56071428Y-62821429D01*
X55999999Y-62892857D01*
X55928571Y-63035714D01*
X55928571Y-63392857D01*
X55999999Y-63535714D01*
X56071428Y-63607143D01*
X56214285Y-63678571D01*
X56642857Y-63678571D01*
X56785714Y-63607143D01*
X56857142Y-63535714D01*
X55500000Y-62178571D02*
X55000000Y-63678571D01*
X54500000Y-62178571D01*
X54142857Y-62178571D02*
X53214286Y-62178571D01*
X53714286Y-62750000D01*
X53500000Y-62750000D01*
X53357143Y-62821429D01*
X53285714Y-62892857D01*
X53214286Y-63035714D01*
X53214286Y-63392857D01*
X53285714Y-63535714D01*
X53357143Y-63607143D01*
X53500000Y-63678571D01*
X53928572Y-63678571D01*
X54071429Y-63607143D01*
X54142857Y-63535714D01*
X141214285Y-27892857D02*
X141714285Y-27892857D01*
X141714285Y-28678571D02*
X141714285Y-27178571D01*
X140999999Y-27178571D01*
X140642857Y-27178571D02*
X139785714Y-27178571D01*
X140214285Y-28678571D02*
X140214285Y-27178571D01*
X139285714Y-28678571D02*
X139285714Y-27178571D01*
X138928571Y-27178571D01*
X138714286Y-27250000D01*
X138571428Y-27392857D01*
X138500000Y-27535714D01*
X138428571Y-27821429D01*
X138428571Y-28035714D01*
X138500000Y-28321429D01*
X138571428Y-28464286D01*
X138714286Y-28607143D01*
X138928571Y-28678571D01*
X139285714Y-28678571D01*
X137785714Y-28678571D02*
X137785714Y-27178571D01*
X90321428Y-26225000D02*
X90464285Y-26153571D01*
X90678571Y-26153571D01*
X90892856Y-26225000D01*
X91035714Y-26367857D01*
X91107142Y-26510714D01*
X91178571Y-26796429D01*
X91178571Y-27010714D01*
X91107142Y-27296429D01*
X91035714Y-27439286D01*
X90892856Y-27582143D01*
X90678571Y-27653571D01*
X90535714Y-27653571D01*
X90321428Y-27582143D01*
X90249999Y-27510714D01*
X90249999Y-27010714D01*
X90535714Y-27010714D01*
X89035714Y-27582143D02*
X89178571Y-27653571D01*
X89464285Y-27653571D01*
X89607142Y-27582143D01*
X89678571Y-27439286D01*
X89678571Y-26867857D01*
X89607142Y-26725000D01*
X89464285Y-26653571D01*
X89178571Y-26653571D01*
X89035714Y-26725000D01*
X88964285Y-26867857D01*
X88964285Y-27010714D01*
X89678571Y-27153571D01*
X88392857Y-27582143D02*
X88250000Y-27653571D01*
X87964285Y-27653571D01*
X87821428Y-27582143D01*
X87750000Y-27439286D01*
X87750000Y-27367857D01*
X87821428Y-27225000D01*
X87964285Y-27153571D01*
X88178571Y-27153571D01*
X88321428Y-27082143D01*
X88392857Y-26939286D01*
X88392857Y-26867857D01*
X88321428Y-26725000D01*
X88178571Y-26653571D01*
X87964285Y-26653571D01*
X87821428Y-26725000D01*
X87321428Y-26653571D02*
X86749999Y-26653571D01*
X87107142Y-26153571D02*
X87107142Y-27439286D01*
X87035714Y-27582143D01*
X86892856Y-27653571D01*
X86749999Y-27653571D01*
X85607142Y-26653571D02*
X85607142Y-27653571D01*
X86249999Y-26653571D02*
X86249999Y-27439286D01*
X86178571Y-27582143D01*
X86035713Y-27653571D01*
X85821428Y-27653571D01*
X85678571Y-27582143D01*
X85607142Y-27510714D01*
X84892856Y-27653571D02*
X84892856Y-26653571D01*
X84892856Y-26939286D02*
X84821428Y-26796429D01*
X84749999Y-26725000D01*
X84607142Y-26653571D01*
X84464285Y-26653571D01*
X83392857Y-27582143D02*
X83535714Y-27653571D01*
X83821428Y-27653571D01*
X83964285Y-27582143D01*
X84035714Y-27439286D01*
X84035714Y-26867857D01*
X83964285Y-26725000D01*
X83821428Y-26653571D01*
X83535714Y-26653571D01*
X83392857Y-26725000D01*
X83321428Y-26867857D01*
X83321428Y-27010714D01*
X84035714Y-27153571D01*
X93607142Y-29775000D02*
X92892856Y-29775000D01*
X93749999Y-30203571D02*
X93249999Y-28703571D01*
X92749999Y-30203571D01*
X92249999Y-30203571D02*
X92249999Y-28703571D01*
X91892856Y-28703571D01*
X91678571Y-28775000D01*
X91535713Y-28917857D01*
X91464285Y-29060714D01*
X91392856Y-29346429D01*
X91392856Y-29560714D01*
X91464285Y-29846429D01*
X91535713Y-29989286D01*
X91678571Y-30132143D01*
X91892856Y-30203571D01*
X92249999Y-30203571D01*
X90749999Y-30203571D02*
X90749999Y-28703571D01*
X90178571Y-28703571D01*
X90035713Y-28775000D01*
X89964285Y-28846429D01*
X89892856Y-28989286D01*
X89892856Y-29203571D01*
X89964285Y-29346429D01*
X90035713Y-29417857D01*
X90178571Y-29489286D01*
X90749999Y-29489286D01*
X89321428Y-30132143D02*
X89107142Y-30203571D01*
X88749999Y-30203571D01*
X88607142Y-30132143D01*
X88535713Y-30060714D01*
X88464285Y-29917857D01*
X88464285Y-29775000D01*
X88535713Y-29632143D01*
X88607142Y-29560714D01*
X88749999Y-29489286D01*
X89035713Y-29417857D01*
X89178571Y-29346429D01*
X89249999Y-29275000D01*
X89321428Y-29132143D01*
X89321428Y-28989286D01*
X89249999Y-28846429D01*
X89178571Y-28775000D01*
X89035713Y-28703571D01*
X88678571Y-28703571D01*
X88464285Y-28775000D01*
X87821428Y-29632143D02*
X86678571Y-29632143D01*
X85892857Y-30203571D02*
X85607142Y-30203571D01*
X85464285Y-30132143D01*
X85392857Y-30060714D01*
X85249999Y-29846429D01*
X85178571Y-29560714D01*
X85178571Y-28989286D01*
X85249999Y-28846429D01*
X85321428Y-28775000D01*
X85464285Y-28703571D01*
X85749999Y-28703571D01*
X85892857Y-28775000D01*
X85964285Y-28846429D01*
X86035714Y-28989286D01*
X86035714Y-29346429D01*
X85964285Y-29489286D01*
X85892857Y-29560714D01*
X85749999Y-29632143D01*
X85464285Y-29632143D01*
X85321428Y-29560714D01*
X85249999Y-29489286D01*
X85178571Y-29346429D01*
X84464286Y-30203571D02*
X84178571Y-30203571D01*
X84035714Y-30132143D01*
X83964286Y-30060714D01*
X83821428Y-29846429D01*
X83750000Y-29560714D01*
X83750000Y-28989286D01*
X83821428Y-28846429D01*
X83892857Y-28775000D01*
X84035714Y-28703571D01*
X84321428Y-28703571D01*
X84464286Y-28775000D01*
X84535714Y-28846429D01*
X84607143Y-28989286D01*
X84607143Y-29346429D01*
X84535714Y-29489286D01*
X84464286Y-29560714D01*
X84321428Y-29632143D01*
X84035714Y-29632143D01*
X83892857Y-29560714D01*
X83821428Y-29489286D01*
X83750000Y-29346429D01*
X82464286Y-28703571D02*
X82750000Y-28703571D01*
X82892857Y-28775000D01*
X82964286Y-28846429D01*
X83107143Y-29060714D01*
X83178572Y-29346429D01*
X83178572Y-29917857D01*
X83107143Y-30060714D01*
X83035715Y-30132143D01*
X82892857Y-30203571D01*
X82607143Y-30203571D01*
X82464286Y-30132143D01*
X82392857Y-30060714D01*
X82321429Y-29917857D01*
X82321429Y-29560714D01*
X82392857Y-29417857D01*
X82464286Y-29346429D01*
X82607143Y-29275000D01*
X82892857Y-29275000D01*
X83035715Y-29346429D01*
X83107143Y-29417857D01*
X83178572Y-29560714D01*
X81392858Y-28703571D02*
X81250001Y-28703571D01*
X81107144Y-28775000D01*
X81035715Y-28846429D01*
X80964286Y-28989286D01*
X80892858Y-29275000D01*
X80892858Y-29632143D01*
X80964286Y-29917857D01*
X81035715Y-30060714D01*
X81107144Y-30132143D01*
X81250001Y-30203571D01*
X81392858Y-30203571D01*
X81535715Y-30132143D01*
X81607144Y-30060714D01*
X81678572Y-29917857D01*
X81750001Y-29632143D01*
X81750001Y-29275000D01*
X81678572Y-28989286D01*
X81607144Y-28846429D01*
X81535715Y-28775000D01*
X81392858Y-28703571D01*
X96357143Y-29750000D02*
X96428571Y-29964286D01*
X96428571Y-30321429D01*
X96357143Y-30464286D01*
X96285714Y-30535715D01*
X96142857Y-30607143D01*
X96000000Y-30607143D01*
X95857143Y-30535715D01*
X95785714Y-30464286D01*
X95714286Y-30321429D01*
X95642857Y-30035715D01*
X95571429Y-29892857D01*
X95500000Y-29821429D01*
X95357143Y-29750000D01*
X95214286Y-29750000D01*
X95071429Y-29821429D01*
X95000000Y-29892857D01*
X94928571Y-30035715D01*
X94928571Y-30392857D01*
X95000000Y-30607143D01*
X96285714Y-32107143D02*
X96357143Y-32035714D01*
X96428571Y-31821428D01*
X96428571Y-31678571D01*
X96357143Y-31464286D01*
X96214286Y-31321428D01*
X96071429Y-31250000D01*
X95785714Y-31178571D01*
X95571429Y-31178571D01*
X95285714Y-31250000D01*
X95142857Y-31321428D01*
X95000000Y-31464286D01*
X94928571Y-31678571D01*
X94928571Y-31821428D01*
X95000000Y-32035714D01*
X95071429Y-32107143D01*
X96428571Y-33464286D02*
X96428571Y-32750000D01*
X94928571Y-32750000D01*
X94928571Y-34250000D02*
X94928571Y-34392857D01*
X95000000Y-34535714D01*
X95071429Y-34607143D01*
X95214286Y-34678572D01*
X95500000Y-34750000D01*
X95857143Y-34750000D01*
X96142857Y-34678572D01*
X96285714Y-34607143D01*
X96357143Y-34535714D01*
X96428571Y-34392857D01*
X96428571Y-34250000D01*
X96357143Y-34107143D01*
X96285714Y-34035714D01*
X96142857Y-33964286D01*
X95857143Y-33892857D01*
X95500000Y-33892857D01*
X95214286Y-33964286D01*
X95071429Y-34035714D01*
X95000000Y-34107143D01*
X94928571Y-34250000D01*
X98857143Y-29714286D02*
X98928571Y-29928572D01*
X98928571Y-30285715D01*
X98857143Y-30428572D01*
X98785714Y-30500001D01*
X98642857Y-30571429D01*
X98500000Y-30571429D01*
X98357143Y-30500001D01*
X98285714Y-30428572D01*
X98214286Y-30285715D01*
X98142857Y-30000001D01*
X98071429Y-29857143D01*
X98000000Y-29785715D01*
X97857143Y-29714286D01*
X97714286Y-29714286D01*
X97571429Y-29785715D01*
X97500000Y-29857143D01*
X97428571Y-30000001D01*
X97428571Y-30357143D01*
X97500000Y-30571429D01*
X98928571Y-31214286D02*
X97428571Y-31214286D01*
X97428571Y-31571429D01*
X97500000Y-31785714D01*
X97642857Y-31928572D01*
X97785714Y-32000000D01*
X98071429Y-32071429D01*
X98285714Y-32071429D01*
X98571429Y-32000000D01*
X98714286Y-31928572D01*
X98857143Y-31785714D01*
X98928571Y-31571429D01*
X98928571Y-31214286D01*
X98500000Y-32642857D02*
X98500000Y-33357143D01*
X98928571Y-32500000D02*
X97428571Y-33000000D01*
X98928571Y-33500000D01*
X97428571Y-34285714D02*
X97428571Y-34428571D01*
X97500000Y-34571428D01*
X97571429Y-34642857D01*
X97714286Y-34714286D01*
X98000000Y-34785714D01*
X98357143Y-34785714D01*
X98642857Y-34714286D01*
X98785714Y-34642857D01*
X98857143Y-34571428D01*
X98928571Y-34428571D01*
X98928571Y-34285714D01*
X98857143Y-34142857D01*
X98785714Y-34071428D01*
X98642857Y-34000000D01*
X98357143Y-33928571D01*
X98000000Y-33928571D01*
X97714286Y-34000000D01*
X97571429Y-34071428D01*
X97500000Y-34142857D01*
X97428571Y-34285714D01*
X101428571Y-29928572D02*
X99928571Y-29928572D01*
X101428571Y-30642858D02*
X99928571Y-30642858D01*
X101428571Y-31500001D01*
X99928571Y-31500001D01*
X99928571Y-32000001D02*
X99928571Y-32857144D01*
X101428571Y-32428573D02*
X99928571Y-32428573D01*
X99928571Y-33642858D02*
X99928571Y-33785715D01*
X100000000Y-33928572D01*
X100071429Y-34000001D01*
X100214286Y-34071430D01*
X100500000Y-34142858D01*
X100857143Y-34142858D01*
X101142857Y-34071430D01*
X101285714Y-34000001D01*
X101357143Y-33928572D01*
X101428571Y-33785715D01*
X101428571Y-33642858D01*
X101357143Y-33500001D01*
X101285714Y-33428572D01*
X101142857Y-33357144D01*
X100857143Y-33285715D01*
X100500000Y-33285715D01*
X100214286Y-33357144D01*
X100071429Y-33428572D01*
X100000000Y-33500001D01*
X99928571Y-33642858D01*
X102500000Y-30607143D02*
X102428571Y-30464286D01*
X102428571Y-30250000D01*
X102500000Y-30035715D01*
X102642857Y-29892857D01*
X102785714Y-29821429D01*
X103071429Y-29750000D01*
X103285714Y-29750000D01*
X103571429Y-29821429D01*
X103714286Y-29892857D01*
X103857143Y-30035715D01*
X103928571Y-30250000D01*
X103928571Y-30392857D01*
X103857143Y-30607143D01*
X103785714Y-30678572D01*
X103285714Y-30678572D01*
X103285714Y-30392857D01*
X103928571Y-31321429D02*
X102428571Y-31321429D01*
X103928571Y-32178572D01*
X102428571Y-32178572D01*
X103928571Y-32892858D02*
X102428571Y-32892858D01*
X102428571Y-33250001D01*
X102500000Y-33464286D01*
X102642857Y-33607144D01*
X102785714Y-33678572D01*
X103071429Y-33750001D01*
X103285714Y-33750001D01*
X103571429Y-33678572D01*
X103714286Y-33607144D01*
X103857143Y-33464286D01*
X103928571Y-33250001D01*
X103928571Y-32892858D01*
X105178571Y-29892858D02*
X105178571Y-30821429D01*
X105750000Y-30321429D01*
X105750000Y-30535715D01*
X105821429Y-30678572D01*
X105892857Y-30750001D01*
X106035714Y-30821429D01*
X106392857Y-30821429D01*
X106535714Y-30750001D01*
X106607143Y-30678572D01*
X106678571Y-30535715D01*
X106678571Y-30107143D01*
X106607143Y-29964286D01*
X106535714Y-29892858D01*
X105178571Y-31250000D02*
X106678571Y-31750000D01*
X105178571Y-32250000D01*
X105178571Y-32607143D02*
X105178571Y-33535714D01*
X105750000Y-33035714D01*
X105750000Y-33250000D01*
X105821429Y-33392857D01*
X105892857Y-33464286D01*
X106035714Y-33535714D01*
X106392857Y-33535714D01*
X106535714Y-33464286D01*
X106607143Y-33392857D01*
X106678571Y-33250000D01*
X106678571Y-32821428D01*
X106607143Y-32678571D01*
X106535714Y-32607143D01*
X134750000Y-31107143D02*
X134678571Y-30964286D01*
X134678571Y-30750000D01*
X134750000Y-30535715D01*
X134892857Y-30392857D01*
X135035714Y-30321429D01*
X135321429Y-30250000D01*
X135535714Y-30250000D01*
X135821429Y-30321429D01*
X135964286Y-30392857D01*
X136107143Y-30535715D01*
X136178571Y-30750000D01*
X136178571Y-30892857D01*
X136107143Y-31107143D01*
X136035714Y-31178572D01*
X135535714Y-31178572D01*
X135535714Y-30892857D01*
X136178571Y-31821429D02*
X134678571Y-31821429D01*
X136178571Y-32678572D01*
X134678571Y-32678572D01*
X136178571Y-33392858D02*
X134678571Y-33392858D01*
X134678571Y-33750001D01*
X134750000Y-33964286D01*
X134892857Y-34107144D01*
X135035714Y-34178572D01*
X135321429Y-34250001D01*
X135535714Y-34250001D01*
X135821429Y-34178572D01*
X135964286Y-34107144D01*
X136107143Y-33964286D01*
X136178571Y-33750001D01*
X136178571Y-33392858D01*
X129678571Y-30142858D02*
X129678571Y-31071429D01*
X130250000Y-30571429D01*
X130250000Y-30785715D01*
X130321429Y-30928572D01*
X130392857Y-31000001D01*
X130535714Y-31071429D01*
X130892857Y-31071429D01*
X131035714Y-31000001D01*
X131107143Y-30928572D01*
X131178571Y-30785715D01*
X131178571Y-30357143D01*
X131107143Y-30214286D01*
X131035714Y-30142858D01*
X129678571Y-31500000D02*
X131178571Y-32000000D01*
X129678571Y-32500000D01*
X129678571Y-32857143D02*
X129678571Y-33785714D01*
X130250000Y-33285714D01*
X130250000Y-33500000D01*
X130321429Y-33642857D01*
X130392857Y-33714286D01*
X130535714Y-33785714D01*
X130892857Y-33785714D01*
X131035714Y-33714286D01*
X131107143Y-33642857D01*
X131178571Y-33500000D01*
X131178571Y-33071428D01*
X131107143Y-32928571D01*
X131035714Y-32857143D01*
X128678571Y-31000001D02*
X127964286Y-30500001D01*
X128678571Y-30142858D02*
X127178571Y-30142858D01*
X127178571Y-30714286D01*
X127250000Y-30857144D01*
X127321429Y-30928572D01*
X127464286Y-31000001D01*
X127678571Y-31000001D01*
X127821429Y-30928572D01*
X127892857Y-30857144D01*
X127964286Y-30714286D01*
X127964286Y-30142858D01*
X127178571Y-31500001D02*
X128678571Y-32500001D01*
X127178571Y-32500001D02*
X128678571Y-31500001D01*
X124678571Y-30107143D02*
X124678571Y-30964286D01*
X126178571Y-30535715D02*
X124678571Y-30535715D01*
X124678571Y-31321429D02*
X126178571Y-32321429D01*
X124678571Y-32321429D02*
X126178571Y-31321429D01*
D13*
X78840000Y-101800000D02*
G75*
G03X78840000Y-101800000I-4090000J0D01*
G01*
X74750000Y-105850000D02*
X74750000Y-97750000D01*
X74790000Y-105850000D02*
X74790000Y-97750000D01*
X74830000Y-105850000D02*
X74830000Y-97750000D01*
X74870000Y-105849000D02*
X74870000Y-97751000D01*
X74910000Y-105847000D02*
X74910000Y-97753000D01*
X74950000Y-105846000D02*
X74950000Y-97754000D01*
X74990000Y-105843000D02*
X74990000Y-97757000D01*
X75030000Y-105841000D02*
X75030000Y-97759000D01*
X75070000Y-105838000D02*
X75070000Y-97762000D01*
X75110000Y-105835000D02*
X75110000Y-97765000D01*
X75150000Y-105831000D02*
X75150000Y-97769000D01*
X75190000Y-105827000D02*
X75190000Y-97773000D01*
X75230000Y-105822000D02*
X75230000Y-97778000D01*
X75270000Y-105817000D02*
X75270000Y-97783000D01*
X75310000Y-105812000D02*
X75310000Y-97788000D01*
X75350000Y-105806000D02*
X75350000Y-97794000D01*
X75390000Y-105800000D02*
X75390000Y-97800000D01*
X75430000Y-105794000D02*
X75430000Y-97806000D01*
X75471000Y-105787000D02*
X75471000Y-97813000D01*
X75511000Y-105779000D02*
X75511000Y-97821000D01*
X75551000Y-105771000D02*
X75551000Y-102780000D01*
X75551000Y-100820000D02*
X75551000Y-97829000D01*
X75591000Y-105763000D02*
X75591000Y-102780000D01*
X75591000Y-100820000D02*
X75591000Y-97837000D01*
X75631000Y-105755000D02*
X75631000Y-102780000D01*
X75631000Y-100820000D02*
X75631000Y-97845000D01*
X75671000Y-105746000D02*
X75671000Y-102780000D01*
X75671000Y-100820000D02*
X75671000Y-97854000D01*
X75711000Y-105736000D02*
X75711000Y-102780000D01*
X75711000Y-100820000D02*
X75711000Y-97864000D01*
X75751000Y-105726000D02*
X75751000Y-102780000D01*
X75751000Y-100820000D02*
X75751000Y-97874000D01*
X75791000Y-105716000D02*
X75791000Y-102780000D01*
X75791000Y-100820000D02*
X75791000Y-97884000D01*
X75831000Y-105705000D02*
X75831000Y-102780000D01*
X75831000Y-100820000D02*
X75831000Y-97895000D01*
X75871000Y-105694000D02*
X75871000Y-102780000D01*
X75871000Y-100820000D02*
X75871000Y-97906000D01*
X75911000Y-105683000D02*
X75911000Y-102780000D01*
X75911000Y-100820000D02*
X75911000Y-97917000D01*
X75951000Y-105670000D02*
X75951000Y-102780000D01*
X75951000Y-100820000D02*
X75951000Y-97930000D01*
X75991000Y-105658000D02*
X75991000Y-102780000D01*
X75991000Y-100820000D02*
X75991000Y-97942000D01*
X76031000Y-105645000D02*
X76031000Y-102780000D01*
X76031000Y-100820000D02*
X76031000Y-97955000D01*
X76071000Y-105632000D02*
X76071000Y-102780000D01*
X76071000Y-100820000D02*
X76071000Y-97968000D01*
X76111000Y-105618000D02*
X76111000Y-102780000D01*
X76111000Y-100820000D02*
X76111000Y-97982000D01*
X76151000Y-105603000D02*
X76151000Y-102780000D01*
X76151000Y-100820000D02*
X76151000Y-97997000D01*
X76191000Y-105589000D02*
X76191000Y-102780000D01*
X76191000Y-100820000D02*
X76191000Y-98011000D01*
X76231000Y-105573000D02*
X76231000Y-102780000D01*
X76231000Y-100820000D02*
X76231000Y-98027000D01*
X76271000Y-105558000D02*
X76271000Y-102780000D01*
X76271000Y-100820000D02*
X76271000Y-98042000D01*
X76311000Y-105541000D02*
X76311000Y-102780000D01*
X76311000Y-100820000D02*
X76311000Y-98059000D01*
X76351000Y-105525000D02*
X76351000Y-102780000D01*
X76351000Y-100820000D02*
X76351000Y-98075000D01*
X76391000Y-105507000D02*
X76391000Y-102780000D01*
X76391000Y-100820000D02*
X76391000Y-98093000D01*
X76431000Y-105490000D02*
X76431000Y-102780000D01*
X76431000Y-100820000D02*
X76431000Y-98110000D01*
X76471000Y-105471000D02*
X76471000Y-102780000D01*
X76471000Y-100820000D02*
X76471000Y-98129000D01*
X76511000Y-105452000D02*
X76511000Y-102780000D01*
X76511000Y-100820000D02*
X76511000Y-98148000D01*
X76551000Y-105433000D02*
X76551000Y-102780000D01*
X76551000Y-100820000D02*
X76551000Y-98167000D01*
X76591000Y-105413000D02*
X76591000Y-102780000D01*
X76591000Y-100820000D02*
X76591000Y-98187000D01*
X76631000Y-105393000D02*
X76631000Y-102780000D01*
X76631000Y-100820000D02*
X76631000Y-98207000D01*
X76671000Y-105372000D02*
X76671000Y-102780000D01*
X76671000Y-100820000D02*
X76671000Y-98228000D01*
X76711000Y-105350000D02*
X76711000Y-102780000D01*
X76711000Y-100820000D02*
X76711000Y-98250000D01*
X76751000Y-105328000D02*
X76751000Y-102780000D01*
X76751000Y-100820000D02*
X76751000Y-98272000D01*
X76791000Y-105305000D02*
X76791000Y-102780000D01*
X76791000Y-100820000D02*
X76791000Y-98295000D01*
X76831000Y-105282000D02*
X76831000Y-102780000D01*
X76831000Y-100820000D02*
X76831000Y-98318000D01*
X76871000Y-105258000D02*
X76871000Y-102780000D01*
X76871000Y-100820000D02*
X76871000Y-98342000D01*
X76911000Y-105234000D02*
X76911000Y-102780000D01*
X76911000Y-100820000D02*
X76911000Y-98366000D01*
X76951000Y-105208000D02*
X76951000Y-102780000D01*
X76951000Y-100820000D02*
X76951000Y-98392000D01*
X76991000Y-105183000D02*
X76991000Y-102780000D01*
X76991000Y-100820000D02*
X76991000Y-98417000D01*
X77031000Y-105156000D02*
X77031000Y-102780000D01*
X77031000Y-100820000D02*
X77031000Y-98444000D01*
X77071000Y-105129000D02*
X77071000Y-102780000D01*
X77071000Y-100820000D02*
X77071000Y-98471000D01*
X77111000Y-105101000D02*
X77111000Y-102780000D01*
X77111000Y-100820000D02*
X77111000Y-98499000D01*
X77151000Y-105072000D02*
X77151000Y-102780000D01*
X77151000Y-100820000D02*
X77151000Y-98528000D01*
X77191000Y-105043000D02*
X77191000Y-102780000D01*
X77191000Y-100820000D02*
X77191000Y-98557000D01*
X77231000Y-105013000D02*
X77231000Y-102780000D01*
X77231000Y-100820000D02*
X77231000Y-98587000D01*
X77271000Y-104982000D02*
X77271000Y-102780000D01*
X77271000Y-100820000D02*
X77271000Y-98618000D01*
X77311000Y-104950000D02*
X77311000Y-102780000D01*
X77311000Y-100820000D02*
X77311000Y-98650000D01*
X77351000Y-104918000D02*
X77351000Y-102780000D01*
X77351000Y-100820000D02*
X77351000Y-98682000D01*
X77391000Y-104884000D02*
X77391000Y-102780000D01*
X77391000Y-100820000D02*
X77391000Y-98716000D01*
X77431000Y-104850000D02*
X77431000Y-102780000D01*
X77431000Y-100820000D02*
X77431000Y-98750000D01*
X77471000Y-104815000D02*
X77471000Y-102780000D01*
X77471000Y-100820000D02*
X77471000Y-98785000D01*
X77511000Y-104779000D02*
X77511000Y-98821000D01*
X77551000Y-104742000D02*
X77551000Y-98858000D01*
X77591000Y-104704000D02*
X77591000Y-98896000D01*
X77631000Y-104665000D02*
X77631000Y-98935000D01*
X77671000Y-104624000D02*
X77671000Y-98976000D01*
X77711000Y-104583000D02*
X77711000Y-99017000D01*
X77751000Y-104540000D02*
X77751000Y-99060000D01*
X77791000Y-104497000D02*
X77791000Y-99103000D01*
X77831000Y-104452000D02*
X77831000Y-99148000D01*
X77871000Y-104405000D02*
X77871000Y-99195000D01*
X77911000Y-104357000D02*
X77911000Y-99243000D01*
X77951000Y-104308000D02*
X77951000Y-99292000D01*
X77991000Y-104257000D02*
X77991000Y-99343000D01*
X78031000Y-104204000D02*
X78031000Y-99396000D01*
X78071000Y-104149000D02*
X78071000Y-99451000D01*
X78111000Y-104093000D02*
X78111000Y-99507000D01*
X78151000Y-104034000D02*
X78151000Y-99566000D01*
X78191000Y-103973000D02*
X78191000Y-99627000D01*
X78231000Y-103909000D02*
X78231000Y-99691000D01*
X78271000Y-103843000D02*
X78271000Y-99757000D01*
X78311000Y-103774000D02*
X78311000Y-99826000D01*
X78351000Y-103702000D02*
X78351000Y-99898000D01*
X78391000Y-103626000D02*
X78391000Y-99974000D01*
X78431000Y-103545000D02*
X78431000Y-100055000D01*
X78471000Y-103460000D02*
X78471000Y-100140000D01*
X78511000Y-103370000D02*
X78511000Y-100230000D01*
X78551000Y-103273000D02*
X78551000Y-100327000D01*
X78591000Y-103169000D02*
X78591000Y-100431000D01*
X78631000Y-103054000D02*
X78631000Y-100546000D01*
X78671000Y-102927000D02*
X78671000Y-100673000D01*
X78711000Y-102783000D02*
X78711000Y-100817000D01*
X78751000Y-102614000D02*
X78751000Y-100986000D01*
X78791000Y-102398000D02*
X78791000Y-101202000D01*
X78831000Y-102046000D02*
X78831000Y-101554000D01*
X70800000Y-101800000D02*
X72000000Y-101800000D01*
X71400000Y-102450000D02*
X71400000Y-101150000D01*
X62950000Y-54700000D02*
X64050000Y-54700000D01*
X64050000Y-54700000D02*
X64050000Y-57300000D01*
X62950000Y-54700000D02*
X62950000Y-57300000D01*
X71950000Y-54600000D02*
X73050000Y-54600000D01*
X73050000Y-54600000D02*
X73050000Y-57200000D01*
X71950000Y-54600000D02*
X71950000Y-57200000D01*
X97150000Y-114300000D02*
X92800000Y-114300000D01*
X92800000Y-114300000D02*
X92800000Y-115300000D01*
X92800000Y-115300000D02*
X97150000Y-115300000D01*
X90950000Y-113000000D02*
X90950000Y-112650000D01*
X90950000Y-112650000D02*
X89350000Y-112650000D01*
X89350000Y-112650000D02*
X89350000Y-111750000D01*
X89350000Y-111750000D02*
X97150000Y-111750000D01*
X97150000Y-111750000D02*
X97150000Y-117850000D01*
X97150000Y-117850000D02*
X89350000Y-117850000D01*
X89350000Y-117850000D02*
X89350000Y-116950000D01*
X89350000Y-116950000D02*
X90950000Y-116950000D01*
X90950000Y-116950000D02*
X90950000Y-116600000D01*
X90950000Y-111750000D02*
X90950000Y-112650000D01*
X90950000Y-117850000D02*
X90950000Y-116950000D01*
X93300000Y-112500000D02*
X94900000Y-112500000D01*
X94900000Y-112500000D02*
X94900000Y-113500000D01*
X94900000Y-113500000D02*
X93300000Y-113500000D01*
X93300000Y-113500000D02*
X93300000Y-112500000D01*
X93300000Y-117100000D02*
X94900000Y-117100000D01*
X94900000Y-117100000D02*
X94900000Y-116100000D01*
X94900000Y-116100000D02*
X93300000Y-116100000D01*
X93300000Y-116100000D02*
X93300000Y-117100000D01*
X94900000Y-113500000D02*
X97150000Y-113500000D01*
X94900000Y-113000000D02*
X97150000Y-113000000D01*
X90950000Y-113000000D02*
X89750000Y-113000000D01*
X136780000Y-26670000D02*
X136780000Y-29330000D01*
X124020000Y-26670000D02*
X136780000Y-26670000D01*
X124020000Y-29330000D02*
X136780000Y-29330000D01*
X124020000Y-26670000D02*
X124020000Y-29330000D01*
X122750000Y-26670000D02*
X121420000Y-26670000D01*
X121420000Y-26670000D02*
X121420000Y-28000000D01*
X60330000Y-69330000D02*
X57670000Y-69330000D01*
X60330000Y-64190000D02*
X60330000Y-69330000D01*
X57670000Y-64190000D02*
X57670000Y-69330000D01*
X60330000Y-64190000D02*
X57670000Y-64190000D01*
X60330000Y-62920000D02*
X60330000Y-61590000D01*
X60330000Y-61590000D02*
X59000000Y-61590000D01*
X94260000Y-29330000D02*
X94260000Y-26670000D01*
X104480000Y-29330000D02*
X94260000Y-29330000D01*
X104480000Y-26670000D02*
X94260000Y-26670000D01*
X104480000Y-29330000D02*
X104480000Y-26670000D01*
X105750000Y-29330000D02*
X107080000Y-29330000D01*
X107080000Y-29330000D02*
X107080000Y-28000000D01*
D14*
X114690000Y-45540000D02*
X114690000Y-32840000D01*
X84210000Y-45540000D02*
X84210000Y-32840000D01*
X121040000Y-45540000D02*
X80400000Y-45540000D01*
X80400000Y-32840000D02*
X80400000Y-45540000D01*
X121040000Y-32840000D02*
X80400000Y-32840000D01*
X80400000Y-32840000D02*
X121040000Y-32840000D01*
X121040000Y-45540000D02*
X121040000Y-32840000D01*
D13*
X65320000Y-56000000D02*
X65320000Y-57000000D01*
X66680000Y-57000000D02*
X66680000Y-56000000D01*
X70680000Y-56900000D02*
X70680000Y-55900000D01*
X69320000Y-55900000D02*
X69320000Y-56900000D01*
X59100000Y-44850000D02*
X59100000Y-44400000D01*
X59100000Y-44400000D02*
X65400000Y-44400000D01*
X65400000Y-44400000D02*
X65400000Y-44800000D01*
X59100000Y-46150000D02*
X59100000Y-48850000D01*
X65400000Y-48850000D02*
X65400000Y-46150000D01*
X59100000Y-50600000D02*
X65400000Y-50600000D01*
X65400000Y-50600000D02*
X65400000Y-50150000D01*
X59100000Y-50150000D02*
X59100000Y-50600000D01*
X70600000Y-44850000D02*
X70600000Y-44400000D01*
X70600000Y-44400000D02*
X76900000Y-44400000D01*
X76900000Y-44400000D02*
X76900000Y-44800000D01*
X70600000Y-46150000D02*
X70600000Y-48850000D01*
X76900000Y-48850000D02*
X76900000Y-46150000D01*
X70600000Y-50600000D02*
X76900000Y-50600000D01*
X76900000Y-50600000D02*
X76900000Y-50150000D01*
X70600000Y-50150000D02*
X70600000Y-50600000D01*
X81230000Y-119770000D02*
X81230000Y-122430000D01*
X76090000Y-119770000D02*
X81230000Y-119770000D01*
X76090000Y-122430000D02*
X81230000Y-122430000D01*
X76090000Y-119770000D02*
X76090000Y-122430000D01*
X74820000Y-119770000D02*
X73490000Y-119770000D01*
X73490000Y-119770000D02*
X73490000Y-121100000D01*
X129720000Y-54580000D02*
X129720000Y-51920000D01*
X147560000Y-54580000D02*
X129720000Y-54580000D01*
X147560000Y-51920000D02*
X129720000Y-51920000D01*
X147560000Y-54580000D02*
X147560000Y-51920000D01*
X148830000Y-54580000D02*
X150160000Y-54580000D01*
X150160000Y-54580000D02*
X150160000Y-53250000D01*
X74320000Y-55750000D02*
X74320000Y-56750000D01*
X75680000Y-56750000D02*
X75680000Y-55750000D01*
D14*
X74916666Y-107467143D02*
X74964285Y-107514762D01*
X75107142Y-107562381D01*
X75202380Y-107562381D01*
X75345238Y-107514762D01*
X75440476Y-107419524D01*
X75488095Y-107324286D01*
X75535714Y-107133810D01*
X75535714Y-106990952D01*
X75488095Y-106800476D01*
X75440476Y-106705238D01*
X75345238Y-106610000D01*
X75202380Y-106562381D01*
X75107142Y-106562381D01*
X74964285Y-106610000D01*
X74916666Y-106657619D01*
X74583333Y-106562381D02*
X73964285Y-106562381D01*
X74297619Y-106943333D01*
X74154761Y-106943333D01*
X74059523Y-106990952D01*
X74011904Y-107038571D01*
X73964285Y-107133810D01*
X73964285Y-107371905D01*
X74011904Y-107467143D01*
X74059523Y-107514762D01*
X74154761Y-107562381D01*
X74440476Y-107562381D01*
X74535714Y-107514762D01*
X74583333Y-107467143D01*
X63952381Y-58761905D02*
X62952381Y-58761905D01*
X62952381Y-59000000D01*
X63000000Y-59142858D01*
X63095238Y-59238096D01*
X63190476Y-59285715D01*
X63380952Y-59333334D01*
X63523810Y-59333334D01*
X63714286Y-59285715D01*
X63809524Y-59238096D01*
X63904762Y-59142858D01*
X63952381Y-59000000D01*
X63952381Y-58761905D01*
X63047619Y-59714286D02*
X63000000Y-59761905D01*
X62952381Y-59857143D01*
X62952381Y-60095239D01*
X63000000Y-60190477D01*
X63047619Y-60238096D01*
X63142857Y-60285715D01*
X63238095Y-60285715D01*
X63380952Y-60238096D01*
X63952381Y-59666667D01*
X63952381Y-60285715D01*
X72952381Y-58761905D02*
X71952381Y-58761905D01*
X71952381Y-59000000D01*
X72000000Y-59142858D01*
X72095238Y-59238096D01*
X72190476Y-59285715D01*
X72380952Y-59333334D01*
X72523810Y-59333334D01*
X72714286Y-59285715D01*
X72809524Y-59238096D01*
X72904762Y-59142858D01*
X72952381Y-59000000D01*
X72952381Y-58761905D01*
X71952381Y-59666667D02*
X71952381Y-60285715D01*
X72333333Y-59952381D01*
X72333333Y-60095239D01*
X72380952Y-60190477D01*
X72428571Y-60238096D01*
X72523810Y-60285715D01*
X72761905Y-60285715D01*
X72857143Y-60238096D01*
X72904762Y-60190477D01*
X72952381Y-60095239D01*
X72952381Y-59809524D01*
X72904762Y-59714286D01*
X72857143Y-59666667D01*
X87802381Y-114966667D02*
X88516667Y-114966667D01*
X88659524Y-114919047D01*
X88754762Y-114823809D01*
X88802381Y-114680952D01*
X88802381Y-114585714D01*
X87897619Y-115395238D02*
X87850000Y-115442857D01*
X87802381Y-115538095D01*
X87802381Y-115776191D01*
X87850000Y-115871429D01*
X87897619Y-115919048D01*
X87992857Y-115966667D01*
X88088095Y-115966667D01*
X88230952Y-115919048D01*
X88802381Y-115347619D01*
X88802381Y-115966667D01*
X119872381Y-27666667D02*
X120586667Y-27666667D01*
X120729524Y-27619047D01*
X120824762Y-27523809D01*
X120872381Y-27380952D01*
X120872381Y-27285714D01*
X119872381Y-28047619D02*
X119872381Y-28666667D01*
X120253333Y-28333333D01*
X120253333Y-28476191D01*
X120300952Y-28571429D01*
X120348571Y-28619048D01*
X120443810Y-28666667D01*
X120681905Y-28666667D01*
X120777143Y-28619048D01*
X120824762Y-28571429D01*
X120872381Y-28476191D01*
X120872381Y-28190476D01*
X120824762Y-28095238D01*
X120777143Y-28047619D01*
X59333333Y-60042381D02*
X59333333Y-60756667D01*
X59380953Y-60899524D01*
X59476191Y-60994762D01*
X59619048Y-61042381D01*
X59714286Y-61042381D01*
X58428571Y-60375714D02*
X58428571Y-61042381D01*
X58666667Y-59994762D02*
X58904762Y-60709048D01*
X58285714Y-60709048D01*
X107532381Y-27666667D02*
X108246667Y-27666667D01*
X108389524Y-27619047D01*
X108484762Y-27523809D01*
X108532381Y-27380952D01*
X108532381Y-27285714D01*
X108532381Y-28190476D02*
X108532381Y-28380952D01*
X108484762Y-28476191D01*
X108437143Y-28523810D01*
X108294286Y-28619048D01*
X108103810Y-28666667D01*
X107722857Y-28666667D01*
X107627619Y-28619048D01*
X107580000Y-28571429D01*
X107532381Y-28476191D01*
X107532381Y-28285714D01*
X107580000Y-28190476D01*
X107627619Y-28142857D01*
X107722857Y-28095238D01*
X107960952Y-28095238D01*
X108056190Y-28142857D01*
X108103810Y-28190476D01*
X108151429Y-28285714D01*
X108151429Y-28476191D01*
X108103810Y-28571429D01*
X108056190Y-28619048D01*
X107960952Y-28666667D01*
X101529523Y-39142381D02*
X101529523Y-39856667D01*
X101577143Y-39999524D01*
X101672381Y-40094762D01*
X101815238Y-40142381D01*
X101910476Y-40142381D01*
X100529523Y-40142381D02*
X101100952Y-40142381D01*
X100815238Y-40142381D02*
X100815238Y-39142381D01*
X100910476Y-39285238D01*
X101005714Y-39380476D01*
X101100952Y-39428095D01*
X99910476Y-39142381D02*
X99815237Y-39142381D01*
X99719999Y-39190000D01*
X99672380Y-39237619D01*
X99624761Y-39332857D01*
X99577142Y-39523333D01*
X99577142Y-39761429D01*
X99624761Y-39951905D01*
X99672380Y-40047143D01*
X99719999Y-40094762D01*
X99815237Y-40142381D01*
X99910476Y-40142381D01*
X100005714Y-40094762D01*
X100053333Y-40047143D01*
X100100952Y-39951905D01*
X100148571Y-39761429D01*
X100148571Y-39523333D01*
X100100952Y-39332857D01*
X100053333Y-39237619D01*
X100005714Y-39190000D01*
X99910476Y-39142381D01*
X66452381Y-59333334D02*
X65976190Y-59000000D01*
X66452381Y-58761905D02*
X65452381Y-58761905D01*
X65452381Y-59142858D01*
X65500000Y-59238096D01*
X65547619Y-59285715D01*
X65642857Y-59333334D01*
X65785714Y-59333334D01*
X65880952Y-59285715D01*
X65928571Y-59238096D01*
X65976190Y-59142858D01*
X65976190Y-58761905D01*
X65452381Y-59666667D02*
X65452381Y-60333334D01*
X66452381Y-59904762D01*
X70452381Y-59333334D02*
X69976190Y-59000000D01*
X70452381Y-58761905D02*
X69452381Y-58761905D01*
X69452381Y-59142858D01*
X69500000Y-59238096D01*
X69547619Y-59285715D01*
X69642857Y-59333334D01*
X69785714Y-59333334D01*
X69880952Y-59285715D01*
X69928571Y-59238096D01*
X69976190Y-59142858D01*
X69976190Y-58761905D01*
X69880952Y-59904762D02*
X69833333Y-59809524D01*
X69785714Y-59761905D01*
X69690476Y-59714286D01*
X69642857Y-59714286D01*
X69547619Y-59761905D01*
X69500000Y-59809524D01*
X69452381Y-59904762D01*
X69452381Y-60095239D01*
X69500000Y-60190477D01*
X69547619Y-60238096D01*
X69642857Y-60285715D01*
X69690476Y-60285715D01*
X69785714Y-60238096D01*
X69833333Y-60190477D01*
X69880952Y-60095239D01*
X69880952Y-59904762D01*
X69928571Y-59809524D01*
X69976190Y-59761905D01*
X70071429Y-59714286D01*
X70261905Y-59714286D01*
X70357143Y-59761905D01*
X70404762Y-59809524D01*
X70452381Y-59904762D01*
X70452381Y-60095239D01*
X70404762Y-60190477D01*
X70357143Y-60238096D01*
X70261905Y-60285715D01*
X70071429Y-60285715D01*
X69976190Y-60238096D01*
X69928571Y-60190477D01*
X69880952Y-60095239D01*
X63583333Y-51804762D02*
X63440476Y-51852381D01*
X63202380Y-51852381D01*
X63107142Y-51804762D01*
X63059523Y-51757143D01*
X63011904Y-51661905D01*
X63011904Y-51566667D01*
X63059523Y-51471429D01*
X63107142Y-51423810D01*
X63202380Y-51376190D01*
X63392857Y-51328571D01*
X63488095Y-51280952D01*
X63535714Y-51233333D01*
X63583333Y-51138095D01*
X63583333Y-51042857D01*
X63535714Y-50947619D01*
X63488095Y-50900000D01*
X63392857Y-50852381D01*
X63154761Y-50852381D01*
X63011904Y-50900000D01*
X62678571Y-50852381D02*
X62440476Y-51852381D01*
X62249999Y-51138095D01*
X62059523Y-51852381D01*
X61821428Y-50852381D01*
X60916666Y-51852381D02*
X61488095Y-51852381D01*
X61202381Y-51852381D02*
X61202381Y-50852381D01*
X61297619Y-50995238D01*
X61392857Y-51090476D01*
X61488095Y-51138095D01*
X75083333Y-51804762D02*
X74940476Y-51852381D01*
X74702380Y-51852381D01*
X74607142Y-51804762D01*
X74559523Y-51757143D01*
X74511904Y-51661905D01*
X74511904Y-51566667D01*
X74559523Y-51471429D01*
X74607142Y-51423810D01*
X74702380Y-51376190D01*
X74892857Y-51328571D01*
X74988095Y-51280952D01*
X75035714Y-51233333D01*
X75083333Y-51138095D01*
X75083333Y-51042857D01*
X75035714Y-50947619D01*
X74988095Y-50900000D01*
X74892857Y-50852381D01*
X74654761Y-50852381D01*
X74511904Y-50900000D01*
X74178571Y-50852381D02*
X73940476Y-51852381D01*
X73749999Y-51138095D01*
X73559523Y-51852381D01*
X73321428Y-50852381D01*
X72988095Y-50947619D02*
X72940476Y-50900000D01*
X72845238Y-50852381D01*
X72607142Y-50852381D01*
X72511904Y-50900000D01*
X72464285Y-50947619D01*
X72416666Y-51042857D01*
X72416666Y-51138095D01*
X72464285Y-51280952D01*
X73035714Y-51852381D01*
X72416666Y-51852381D01*
X71942381Y-120766667D02*
X72656667Y-120766667D01*
X72799524Y-120719047D01*
X72894762Y-120623809D01*
X72942381Y-120480952D01*
X72942381Y-120385714D01*
X72942381Y-121766667D02*
X72942381Y-121195238D01*
X72942381Y-121480952D02*
X71942381Y-121480952D01*
X72085238Y-121385714D01*
X72180476Y-121290476D01*
X72228095Y-121195238D01*
X127702381Y-52440477D02*
X128416667Y-52440477D01*
X128559524Y-52392857D01*
X128654762Y-52297619D01*
X128702381Y-52154762D01*
X128702381Y-52059524D01*
X128702381Y-53440477D02*
X128702381Y-52869048D01*
X128702381Y-53154762D02*
X127702381Y-53154762D01*
X127845238Y-53059524D01*
X127940476Y-52964286D01*
X127988095Y-52869048D01*
X128702381Y-54392858D02*
X128702381Y-53821429D01*
X128702381Y-54107143D02*
X127702381Y-54107143D01*
X127845238Y-54011905D01*
X127940476Y-53916667D01*
X127988095Y-53821429D01*
X76902381Y-55607143D02*
X76426190Y-55273809D01*
X76902381Y-55035714D02*
X75902381Y-55035714D01*
X75902381Y-55416667D01*
X75950000Y-55511905D01*
X75997619Y-55559524D01*
X76092857Y-55607143D01*
X76235714Y-55607143D01*
X76330952Y-55559524D01*
X76378571Y-55511905D01*
X76426190Y-55416667D01*
X76426190Y-55035714D01*
X76902381Y-56559524D02*
X76902381Y-55988095D01*
X76902381Y-56273809D02*
X75902381Y-56273809D01*
X76045238Y-56178571D01*
X76140476Y-56083333D01*
X76188095Y-55988095D01*
X75902381Y-57416667D02*
X75902381Y-57226190D01*
X75950000Y-57130952D01*
X75997619Y-57083333D01*
X76140476Y-56988095D01*
X76330952Y-56940476D01*
X76711905Y-56940476D01*
X76807143Y-56988095D01*
X76854762Y-57035714D01*
X76902381Y-57130952D01*
X76902381Y-57321429D01*
X76854762Y-57416667D01*
X76807143Y-57464286D01*
X76711905Y-57511905D01*
X76473810Y-57511905D01*
X76378571Y-57464286D01*
X76330952Y-57416667D01*
X76283333Y-57321429D01*
X76283333Y-57130952D01*
X76330952Y-57035714D01*
X76378571Y-56988095D01*
X76473810Y-56940476D01*
M02*
