<?xml version="1.0" standalone="no"?>
 <!DOCTYPE svg PUBLIC "-//W3C//DTD SVG 1.1//EN" 
 "http://www.w3.org/Graphics/SVG/1.1/DTD/svg11.dtd"> 
<svg xmlns="http://www.w3.org/2000/svg" version="1.1" 
    width="12.5908cm" height="11.1887cm" viewBox="0 0 49570 44050 ">
<title>SVG Picture created as ESP32_Clock-F.Paste.svg date 2018/07/28 11:04:05 </title>
  <desc>Picture generated by PCBNEW </desc>
<g style="fill:#000000; fill-opacity:1;stroke:#000000; stroke-opacity:1;
stroke-linecap:round; stroke-linejoin:round; "
 transform="translate(0 0) scale(1 1)">
</g>
<g style="fill:#840000; fill-opacity:0.0; 
stroke:#840000; stroke-width:-0.000393701; stroke-opacity:1; 
stroke-linecap:round; stroke-linejoin:round;">
</g>
<g style="fill:#840000; fill-opacity:0.0; 
stroke:#840000; stroke-width:0; stroke-opacity:1; 
stroke-linecap:round; stroke-linejoin:round;">
</g>
<g style="fill:#840000; fill-opacity:1.0; 
stroke:#840000; stroke-width:0; stroke-opacity:1; 
stroke-linecap:round; stroke-linejoin:round;">
<polyline style="fill-rule:evenodd;"
points="13029,36220
13029,36456
12651,36456
12651,36220
13029,36220
" /> 
<polyline style="fill-rule:evenodd;"
points="12281,36220
12281,36456
11903,36456
11903,36220
12281,36220
" /> 
<polyline style="fill-rule:evenodd;"
points="9926,36496
9926,36102
10399,36102
10399,36496
9926,36496
" /> 
<polyline style="fill-rule:evenodd;"
points="10911,36496
10911,36102
11383,36102
11383,36496
10911,36496
" /> 
<polyline style="fill-rule:evenodd;"
points="17289,39251
17289,38858
17761,38858
17761,39251
17289,39251
" /> 
<polyline style="fill-rule:evenodd;"
points="18273,39251
18273,38858
18745,38858
18745,39251
18273,39251
" /> 
<polyline style="fill-rule:evenodd;"
points="17249,35826
17249,35433
17722,35433
17722,35826
17249,35826
" /> 
<polyline style="fill-rule:evenodd;"
points="18233,35826
18233,35433
18706,35433
18706,35826
18233,35826
" /> 
<polyline style="fill-rule:evenodd;"
points="7407,8897
7800,8897
7800,9370
7407,9370
7407,8897
" /> 
<polyline style="fill-rule:evenodd;"
points="7407,9881
7800,9881
7800,10354
7407,10354
7407,9881
" /> 
<polyline style="fill-rule:evenodd;"
points="7800,7893
7407,7893
7407,7421
7800,7421
7800,7893
" /> 
<polyline style="fill-rule:evenodd;"
points="7800,6909
7407,6909
7407,6437
7800,6437
7800,6909
" /> 
<polyline style="fill-rule:evenodd;"
points="6737,7708
6501,7708
6501,7330
6737,7330
6737,7708
" /> 
<polyline style="fill-rule:evenodd;"
points="6737,6960
6501,6960
6501,6582
6737,6582
6737,6960
" /> 
<polyline style="fill-rule:evenodd;"
points="8393,22232
8629,22232
8629,22610
8393,22610
8393,22232
" /> 
<polyline style="fill-rule:evenodd;"
points="8393,22980
8629,22980
8629,23358
8393,23358
8393,22980
" /> 
<polyline style="fill-rule:evenodd;"
points="24698,39663
24698,39427
25076,39427
25076,39663
24698,39663
" /> 
<polyline style="fill-rule:evenodd;"
points="25446,39663
25446,39427
25824,39427
25824,39663
25446,39663
" /> 
<polyline style="fill-rule:evenodd;"
points="42129,23358
41893,23358
41893,22980
42129,22980
42129,23358
" /> 
<polyline style="fill-rule:evenodd;"
points="42129,22610
41893,22610
41893,22232
42129,22232
42129,22610
" /> 
<polyline style="fill-rule:evenodd;"
points="25824,5927
25824,6163
25446,6163
25446,5927
25824,5927
" /> 
<polyline style="fill-rule:evenodd;"
points="25076,5927
25076,6163
24698,6163
24698,5927
25076,5927
" /> 
<polyline style="fill-rule:evenodd;"
points="19065,10936
19183,11141
18855,11330
18737,11125
19065,10936
" /> 
<polyline style="fill-rule:evenodd;"
points="18417,11310
18535,11515
18208,11704
18089,11499
18417,11310
" /> 
<polyline style="fill-rule:evenodd;"
points="13965,15623
14170,15741
13981,16069
13776,15950
13965,15623
" /> 
<polyline style="fill-rule:evenodd;"
points="13591,16271
13796,16389
13607,16716
13402,16598
13591,16271
" /> 
<polyline style="fill-rule:evenodd;"
points="11893,22232
12129,22232
12129,22610
11893,22610
11893,22232
" /> 
<polyline style="fill-rule:evenodd;"
points="11893,22980
12129,22980
12129,23358
11893,23358
11893,22980
" /> 
<polyline style="fill-rule:evenodd;"
points="13402,28991
13607,28873
13796,29200
13591,29319
13402,28991
" /> 
<polyline style="fill-rule:evenodd;"
points="13776,29639
13981,29521
14170,29848
13965,29966
13776,29639
" /> 
<polyline style="fill-rule:evenodd;"
points="18089,34090
18208,33886
18535,34075
18417,34279
18089,34090
" /> 
<polyline style="fill-rule:evenodd;"
points="18737,34464
18855,34260
19183,34449
19065,34653
18737,34464
" /> 
<polyline style="fill-rule:evenodd;"
points="24698,36163
24698,35927
25076,35927
25076,36163
24698,36163
" /> 
<polyline style="fill-rule:evenodd;"
points="25446,36163
25446,35927
25824,35927
25824,36163
25446,36163
" /> 
<polyline style="fill-rule:evenodd;"
points="31458,34653
31339,34449
31667,34260
31785,34464
31458,34653
" /> 
<polyline style="fill-rule:evenodd;"
points="32105,34279
31987,34075
32315,33886
32433,34090
32105,34279
" /> 
<polyline style="fill-rule:evenodd;"
points="36557,29966
36352,29848
36541,29521
36746,29639
36557,29966
" /> 
<polyline style="fill-rule:evenodd;"
points="36931,29319
36726,29200
36915,28873
37120,28991
36931,29319
" /> 
<polyline style="fill-rule:evenodd;"
points="38629,23358
38393,23358
38393,22980
38629,22980
38629,23358
" /> 
<polyline style="fill-rule:evenodd;"
points="38629,22610
38393,22610
38393,22232
38629,22232
38629,22610
" /> 
<polyline style="fill-rule:evenodd;"
points="37120,16598
36915,16716
36726,16389
36931,16271
37120,16598
" /> 
<polyline style="fill-rule:evenodd;"
points="36746,15950
36541,16069
36352,15741
36557,15623
36746,15950
" /> 
<polyline style="fill-rule:evenodd;"
points="32433,11499
32315,11704
31987,11515
32105,11310
32433,11499
" /> 
<polyline style="fill-rule:evenodd;"
points="31785,11125
31667,11330
31339,11141
31458,10936
31785,11125
" /> 
<polyline style="fill-rule:evenodd;"
points="25824,9427
25824,9663
25446,9663
25446,9427
25824,9427
" /> 
<polyline style="fill-rule:evenodd;"
points="25076,9427
25076,9663
24698,9663
24698,9427
25076,9427
" /> 
<polyline style="fill-rule:evenodd;"
points="20815,13967
20933,14172
20605,14361
20487,14156
20815,13967
" /> 
<polyline style="fill-rule:evenodd;"
points="20167,14341
20285,14546
19958,14735
19839,14530
20167,14341
" /> 
<polyline style="fill-rule:evenodd;"
points="16996,17373
17201,17491
17012,17819
16808,17700
16996,17373
" /> 
<polyline style="fill-rule:evenodd;"
points="16622,18021
16827,18139
16638,18466
16433,18348
16622,18021
" /> 
<polyline style="fill-rule:evenodd;"
points="15393,22232
15629,22232
15629,22610
15393,22610
15393,22232
" /> 
<polyline style="fill-rule:evenodd;"
points="15393,22980
15629,22980
15629,23358
15393,23358
15393,22980
" /> 
<polyline style="fill-rule:evenodd;"
points="16433,27241
16638,27123
16827,27450
16622,27569
16433,27241
" /> 
<polyline style="fill-rule:evenodd;"
points="16808,27889
17012,27771
17201,28098
16996,28216
16808,27889
" /> 
<polyline style="fill-rule:evenodd;"
points="19839,31059
19958,30855
20285,31044
20167,31248
19839,31059
" /> 
<polyline style="fill-rule:evenodd;"
points="20487,31433
20605,31229
20933,31418
20815,31622
20487,31433
" /> 
<polyline style="fill-rule:evenodd;"
points="24698,32663
24698,32427
25076,32427
25076,32663
24698,32663
" /> 
<polyline style="fill-rule:evenodd;"
points="25446,32663
25446,32427
25824,32427
25824,32663
25446,32663
" /> 
<polyline style="fill-rule:evenodd;"
points="29708,31622
29589,31418
29917,31229
30035,31433
29708,31622
" /> 
<polyline style="fill-rule:evenodd;"
points="30355,31248
30237,31044
30565,30855
30683,31059
30355,31248
" /> 
<polyline style="fill-rule:evenodd;"
points="33526,28216
33321,28098
33510,27771
33715,27889
33526,28216
" /> 
<polyline style="fill-rule:evenodd;"
points="33900,27569
33695,27450
33884,27123
34089,27241
33900,27569
" /> 
<polyline style="fill-rule:evenodd;"
points="35129,23358
34893,23358
34893,22980
35129,22980
35129,23358
" /> 
<polyline style="fill-rule:evenodd;"
points="35129,22610
34893,22610
34893,22232
35129,22232
35129,22610
" /> 
<polyline style="fill-rule:evenodd;"
points="34089,18348
33884,18466
33695,18139
33900,18021
34089,18348
" /> 
<polyline style="fill-rule:evenodd;"
points="33715,17700
33510,17819
33321,17491
33526,17373
33715,17700
" /> 
<polyline style="fill-rule:evenodd;"
points="30683,14530
30565,14735
30237,14546
30355,14341
30683,14530
" /> 
<polyline style="fill-rule:evenodd;"
points="30035,14156
29917,14361
29589,14172
29708,13967
30035,14156
" /> 
<polyline style="fill-rule:evenodd;"
points="25824,12927
25824,13163
25446,13163
25446,12927
25824,12927
" /> 
<polyline style="fill-rule:evenodd;"
points="25076,12927
25076,13163
24698,13163
24698,12927
25076,12927
" /> 
<polyline style="fill-rule:evenodd;"
points="27379,23358
27143,23358
27143,22980
27379,22980
27379,23358
" /> 
<polyline style="fill-rule:evenodd;"
points="27379,22610
27143,22610
27143,22232
27379,22232
27379,22610
" /> 
<polyline style="fill-rule:evenodd;"
points="24348,18192
24915,18192
24915,19011
24348,19011
24348,18192
" /> 
<polyline style="fill-rule:evenodd;"
points="24348,19531
24915,19531
24915,20350
24348,20350
24348,19531
" /> 
<polyline style="fill-rule:evenodd;"
points="23391,20464
22919,20464
22919,19456
23391,19456
23391,20464
" /> 
<polyline style="fill-rule:evenodd;"
points="23391,18889
22919,18889
22919,17881
23391,17881
23391,18889
" /> 
<polyline style="fill-rule:evenodd;"
points="21765,20429
21198,20429
21198,19610
21765,19610
21765,20429
" /> 
<polyline style="fill-rule:evenodd;"
points="21765,19090
21198,19090
21198,18271
21765,18271
21765,19090
" /> 
<polyline style="fill-rule:evenodd;"
points="15820,38937
15253,38937
15253,37834
15820,37834
15820,38937
" /> 
<polyline style="fill-rule:evenodd;"
points="15820,36968
15253,36968
15253,35866
15820,35866
15820,36968
" /> 
<polyline style="fill-rule:evenodd;"
points="19607,37881
19891,37881
19891,38259
19607,38259
19607,37881
" /> 
<polyline style="fill-rule:evenodd;"
points="19607,38748
19891,38748
19891,39125
19607,39125
19607,38748
" /> 
<polyline style="fill-rule:evenodd;"
points="12568,34755
12285,34755
12285,34377
12568,34377
12568,34755
" /> 
<polyline style="fill-rule:evenodd;"
points="12568,33889
12285,33889
12285,33511
12568,33511
12568,33889
" /> 
<polyline style="fill-rule:evenodd;"
points="10993,34716
10710,34716
10710,34338
10993,34338
10993,34716
" /> 
<polyline style="fill-rule:evenodd;"
points="10993,33850
10710,33850
10710,33472
10993,33472
10993,33850
" /> 
<polyline style="fill-rule:evenodd;"
points="12568,33181
12285,33181
12285,32803
12568,32803
12568,33181
" /> 
<polyline style="fill-rule:evenodd;"
points="12568,32314
12285,32314
12285,31937
12568,31937
12568,32314
" /> 
<polyline style="fill-rule:evenodd;"
points="10993,33141
10710,33141
10710,32763
10993,32763
10993,33141
" /> 
<polyline style="fill-rule:evenodd;"
points="10993,32275
10710,32275
10710,31897
10993,31897
10993,32275
" /> 
<polyline style="fill-rule:evenodd;"
points="6859,10248
6576,10248
6576,9870
6859,9870
6859,10248
" /> 
<polyline style="fill-rule:evenodd;"
points="6859,9381
6576,9381
6576,9003
6859,9003
6859,9381
" /> 
<polyline style="fill-rule:evenodd;"
points="22993,22173
23277,22173
23277,22551
22993,22551
22993,22173
" /> 
<polyline style="fill-rule:evenodd;"
points="22993,23039
23277,23039
23277,23417
22993,23417
22993,23039
" /> 
<polyline style="fill-rule:evenodd;"
points="29300,4736
29017,4736
29017,4358
29300,4358
29300,4736
" /> 
<polyline style="fill-rule:evenodd;"
points="29300,3870
29017,3870
29017,3492
29300,3492
29300,3870
" /> 
<polyline style="fill-rule:evenodd;"
points="35403,8771
35119,8771
35119,8393
35403,8393
35403,8771
" /> 
<polyline style="fill-rule:evenodd;"
points="35403,7905
35119,7905
35119,7527
35403,7527
35403,7905
" /> 
<polyline style="fill-rule:evenodd;"
points="34123,8771
33840,8771
33840,8393
34123,8393
34123,8771
" /> 
<polyline style="fill-rule:evenodd;"
points="34123,7905
33840,7905
33840,7527
34123,7527
34123,7905
" /> 
<polyline style="fill-rule:evenodd;"
points="26052,19795
25769,19795
25769,19417
26052,19417
26052,19795
" /> 
<polyline style="fill-rule:evenodd;"
points="26052,18929
25769,18929
25769,18551
26052,18551
26052,18929
" /> 
<polyline style="fill-rule:evenodd;"
points="43167,15291
43167,15574
42789,15574
42789,15291
43167,15291
" /> 
<polyline style="fill-rule:evenodd;"
points="42300,15291
42300,15574
41922,15574
41922,15291
42300,15291
" /> 
<polyline style="fill-rule:evenodd;"
points="43167,16078
43167,16362
42789,16362
42789,16078
43167,16078
" /> 
<polyline style="fill-rule:evenodd;"
points="42300,16078
42300,16362
41922,16362
41922,16078
42300,16078
" /> 
<polyline style="fill-rule:evenodd;"
points="18230,36644
18434,36644
18434,37135
18230,37135
18230,36644
" /> 
<polyline style="fill-rule:evenodd;"
points="17856,36644
18060,36644
18060,37135
17856,37135
17856,36644
" /> 
<polyline style="fill-rule:evenodd;"
points="17482,36644
17686,36644
17686,37135
17482,37135
17482,36644
" /> 
<polyline style="fill-rule:evenodd;"
points="17482,37707
17686,37707
17686,38198
17482,38198
17482,37707
" /> 
<polyline style="fill-rule:evenodd;"
points="18230,37707
18434,37707
18434,38198
18230,38198
18230,37707
" /> 
<polyline style="fill-rule:evenodd;"
points="11744,37028
11744,37459
11407,37459
11407,37028
11744,37028
" /> 
<polyline style="fill-rule:evenodd;"
points="12422,37028
12422,37459
12085,37459
12085,37028
12422,37028
" /> 
<polyline style="fill-rule:evenodd;"
points="13099,37028
13099,37459
12762,37459
12762,37028
13099,37028
" /> 
<polyline style="fill-rule:evenodd;"
points="11067,37028
11067,37459
10730,37459
10730,37028
11067,37028
" /> 
<polyline style="fill-rule:evenodd;"
points="10390,37028
10390,37459
10053,37459
10053,37028
10390,37028
" /> 
<circle cx="11576.5" cy="39448.8" r="472.441" /> 
</g>
<g style="fill:#840000; fill-opacity:1.0; 
stroke:#840000; stroke-width:39.3701; stroke-opacity:1; 
stroke-linecap:round; stroke-linejoin:round;">
</g>
<g style="fill:#840000; fill-opacity:1.0; 
stroke:#840000; stroke-width:283.465; stroke-opacity:1; 
stroke-linecap:round; stroke-linejoin:round;">
</g>
<g style="fill:#840000; fill-opacity:0.0; 
stroke:#840000; stroke-width:283.465; stroke-opacity:1; 
stroke-linecap:round; stroke-linejoin:round;">
<path d="M16222 6181
L15718 6181
" />
<path d="M16222 6681
L15718 6681
" />
<path d="M16222 7181
L15718 7181
" />
<path d="M16222 7681
L15718 7681
" />
<path d="M16222 8181
L15718 8181
" />
<path d="M16222 8681
L15718 8681
" />
<path d="M16222 9181
L15718 9181
" />
<path d="M16222 9681
L15718 9681
" />
<path d="M16222 10181
L15718 10181
" />
<path d="M16222 10681
L15718 10681
" />
<path d="M16222 11181
L15718 11181
" />
<path d="M16222 11681
L15718 11681
" />
<path d="M16222 12181
L15718 12181
" />
<path d="M16222 12681
L15718 12681
" />
<path d="M14676 13519
L14676 13015
" />
<path d="M14176 13519
L14176 13015
" />
<path d="M13676 13519
L13676 13015
" />
<path d="M13176 13519
L13176 13015
" />
<path d="M12676 13519
L12676 13015
" />
<path d="M12176 13519
L12176 13015
" />
<path d="M11676 13519
L11676 13015
" />
<path d="M11176 13519
L11176 13015
" />
<path d="M10676 13519
L10676 13015
" />
<path d="M10176 13519
L10176 13015
" />
<path d="M9135 12681
L8631 12681
" />
<path d="M9135 12181
L8631 12181
" />
<path d="M9135 11681
L8631 11681
" />
<path d="M9135 11181
L8631 11181
" />
<path d="M9135 10681
L8631 10681
" />
<path d="M9135 10181
L8631 10181
" />
<path d="M9135 9681
L8631 9681
" />
<path d="M9135 9181
L8631 9181
" />
<path d="M9135 8681
L8631 8681
" />
<path d="M9135 8181
L8631 8181
" />
<path d="M9135 7681
L8631 7681
" />
<path d="M9135 7181
L8631 7181
" />
<path d="M9135 6681
L8631 6681
" />
<path d="M9135 6181
L8631 6181
" />
</g>
<g style="fill:#840000; fill-opacity:0.0; 
stroke:#840000; stroke-width:0; stroke-opacity:1; 
stroke-linecap:round; stroke-linejoin:round;">
</g>
<g style="fill:#840000; fill-opacity:1.0; 
stroke:#840000; stroke-width:0; stroke-opacity:1; 
stroke-linecap:round; stroke-linejoin:round;">
<polyline style="fill-rule:evenodd;"
points="13253,8267
13253,10157
11363,10157
11363,8267
13253,8267
" /> 
<polyline style="fill-rule:evenodd;"
points="9474,23527
9789,23527
9789,24031
9474,24031
9474,23527
" /> 
<polyline style="fill-rule:evenodd;"
points="10733,23527
11048,23527
11048,24031
10733,24031
10733,23527
" /> 
<polyline style="fill-rule:evenodd;"
points="9474,21559
9789,21559
9789,22062
9474,22062
9474,21559
" /> 
<polyline style="fill-rule:evenodd;"
points="10733,21559
11048,21559
11048,22062
10733,22062
10733,21559
" /> 
<polyline style="fill-rule:evenodd;"
points="25993,38582
25993,38267
26497,38267
26497,38582
25993,38582
" /> 
<polyline style="fill-rule:evenodd;"
points="25993,37322
25993,37007
26497,37007
26497,37322
25993,37322
" /> 
<polyline style="fill-rule:evenodd;"
points="24025,38582
24025,38267
24529,38267
24529,38582
24025,38582
" /> 
<polyline style="fill-rule:evenodd;"
points="24025,37322
24025,37007
24529,37007
24529,37322
24025,37322
" /> 
<polyline style="fill-rule:evenodd;"
points="41048,22062
40733,22062
40733,21559
41048,21559
41048,22062
" /> 
<polyline style="fill-rule:evenodd;"
points="39789,22062
39474,22062
39474,21559
39789,21559
39789,22062
" /> 
<polyline style="fill-rule:evenodd;"
points="41048,24031
40733,24031
40733,23527
41048,23527
41048,24031
" /> 
<polyline style="fill-rule:evenodd;"
points="39789,24031
39474,24031
39474,23527
39789,23527
39789,24031
" /> 
<polyline style="fill-rule:evenodd;"
points="24529,7007
24529,7322
24025,7322
24025,7007
24529,7007
" /> 
<polyline style="fill-rule:evenodd;"
points="24529,8267
24529,8582
24025,8582
24025,8267
24529,8267
" /> 
<polyline style="fill-rule:evenodd;"
points="26497,7007
26497,7322
25993,7322
25993,7007
26497,7007
" /> 
<polyline style="fill-rule:evenodd;"
points="26497,8267
26497,8582
25993,8582
25993,8267
26497,8267
" /> 
<polyline style="fill-rule:evenodd;"
points="18483,12520
18641,12792
18204,13044
18047,12772
18483,12520
" /> 
<polyline style="fill-rule:evenodd;"
points="19113,13611
19271,13884
18834,14136
18677,13863
19113,13611
" /> 
<polyline style="fill-rule:evenodd;"
points="20188,11535
20345,11808
19909,12060
19752,11787
20188,11535
" /> 
<polyline style="fill-rule:evenodd;"
points="20818,12627
20975,12899
20539,13151
20381,12878
20818,12627
" /> 
<polyline style="fill-rule:evenodd;"
points="14254,17285
14526,17443
14274,17879
14002,17722
14254,17285
" /> 
<polyline style="fill-rule:evenodd;"
points="15345,17915
15618,18073
15366,18509
15093,18352
15345,17915
" /> 
<polyline style="fill-rule:evenodd;"
points="15238,15580
15511,15738
15259,16174
14986,16017
15238,15580
" /> 
<polyline style="fill-rule:evenodd;"
points="16329,16210
16602,16368
16350,16804
16077,16647
16329,16210
" /> 
<polyline style="fill-rule:evenodd;"
points="12974,23527
13289,23527
13289,24031
12974,24031
12974,23527
" /> 
<polyline style="fill-rule:evenodd;"
points="14233,23527
14548,23527
14548,24031
14233,24031
14233,23527
" /> 
<polyline style="fill-rule:evenodd;"
points="12974,21559
13289,21559
13289,22062
12974,22062
12974,21559
" /> 
<polyline style="fill-rule:evenodd;"
points="14233,21559
14548,21559
14548,22062
14233,22062
14233,21559
" /> 
<polyline style="fill-rule:evenodd;"
points="14986,29573
15259,29415
15511,29852
15238,30009
14986,29573
" /> 
<polyline style="fill-rule:evenodd;"
points="16077,28943
16350,28785
16602,29222
16329,29379
16077,28943
" /> 
<polyline style="fill-rule:evenodd;"
points="14002,27868
14274,27710
14526,28147
14254,28304
14002,27868
" /> 
<polyline style="fill-rule:evenodd;"
points="15093,27238
15366,27080
15618,27517
15345,27674
15093,27238
" /> 
<polyline style="fill-rule:evenodd;"
points="19752,33802
19909,33529
20345,33781
20188,34054
19752,33802
" /> 
<polyline style="fill-rule:evenodd;"
points="20381,32711
20539,32438
20975,32690
20818,32963
20381,32711
" /> 
<polyline style="fill-rule:evenodd;"
points="18047,32818
18204,32545
18641,32797
18483,33070
18047,32818
" /> 
<polyline style="fill-rule:evenodd;"
points="18677,31727
18834,31454
19271,31706
19113,31979
18677,31727
" /> 
<polyline style="fill-rule:evenodd;"
points="25993,35082
25993,34767
26497,34767
26497,35082
25993,35082
" /> 
<polyline style="fill-rule:evenodd;"
points="25993,33822
25993,33507
26497,33507
26497,33822
25993,33822
" /> 
<polyline style="fill-rule:evenodd;"
points="24025,35082
24025,34767
24529,34767
24529,35082
24025,35082
" /> 
<polyline style="fill-rule:evenodd;"
points="24025,33822
24025,33507
24529,33507
24529,33822
24025,33822
" /> 
<polyline style="fill-rule:evenodd;"
points="32039,33070
31881,32797
32318,32545
32475,32818
32039,33070
" /> 
<polyline style="fill-rule:evenodd;"
points="31409,31979
31252,31706
31688,31454
31845,31727
31409,31979
" /> 
<polyline style="fill-rule:evenodd;"
points="30334,34054
30177,33781
30613,33529
30771,33802
30334,34054
" /> 
<polyline style="fill-rule:evenodd;"
points="29704,32963
29547,32690
29983,32438
30141,32711
29704,32963
" /> 
<polyline style="fill-rule:evenodd;"
points="36268,28304
35996,28147
36248,27710
36520,27868
36268,28304
" /> 
<polyline style="fill-rule:evenodd;"
points="35177,27674
34905,27517
35157,27080
35429,27238
35177,27674
" /> 
<polyline style="fill-rule:evenodd;"
points="35284,30009
35011,29852
35263,29415
35536,29573
35284,30009
" /> 
<polyline style="fill-rule:evenodd;"
points="34193,29379
33920,29222
34172,28785
34445,28943
34193,29379
" /> 
<polyline style="fill-rule:evenodd;"
points="37548,22062
37233,22062
37233,21559
37548,21559
37548,22062
" /> 
<polyline style="fill-rule:evenodd;"
points="36289,22062
35974,22062
35974,21559
36289,21559
36289,22062
" /> 
<polyline style="fill-rule:evenodd;"
points="37548,24031
37233,24031
37233,23527
37548,23527
37548,24031
" /> 
<polyline style="fill-rule:evenodd;"
points="36289,24031
35974,24031
35974,23527
36289,23527
36289,24031
" /> 
<polyline style="fill-rule:evenodd;"
points="35536,16017
35263,16174
35011,15738
35284,15580
35536,16017
" /> 
<polyline style="fill-rule:evenodd;"
points="34445,16647
34172,16804
33920,16368
34193,16210
34445,16647
" /> 
<polyline style="fill-rule:evenodd;"
points="36520,17722
36248,17879
35996,17443
36268,17285
36520,17722
" /> 
<polyline style="fill-rule:evenodd;"
points="35429,18352
35157,18509
34905,18073
35177,17915
35429,18352
" /> 
<polyline style="fill-rule:evenodd;"
points="30771,11787
30613,12060
30177,11808
30334,11535
30771,11787
" /> 
<polyline style="fill-rule:evenodd;"
points="30141,12878
29983,13151
29547,12899
29704,12627
30141,12878
" /> 
<polyline style="fill-rule:evenodd;"
points="32475,12772
32318,13044
31881,12792
32039,12520
32475,12772
" /> 
<polyline style="fill-rule:evenodd;"
points="31845,13863
31688,14136
31252,13884
31409,13611
31845,13863
" /> 
<polyline style="fill-rule:evenodd;"
points="24529,10507
24529,10822
24025,10822
24025,10507
24529,10507
" /> 
<polyline style="fill-rule:evenodd;"
points="24529,11767
24529,12082
24025,12082
24025,11767
24529,11767
" /> 
<polyline style="fill-rule:evenodd;"
points="26497,10507
26497,10822
25993,10822
25993,10507
26497,10507
" /> 
<polyline style="fill-rule:evenodd;"
points="26497,11767
26497,12082
25993,12082
25993,11767
26497,11767
" /> 
<polyline style="fill-rule:evenodd;"
points="20233,15551
20391,15824
19954,16076
19797,15803
20233,15551
" /> 
<polyline style="fill-rule:evenodd;"
points="20863,16642
21021,16915
20584,17167
20427,16894
20863,16642
" /> 
<polyline style="fill-rule:evenodd;"
points="21938,14567
22095,14839
21659,15091
21502,14819
21938,14567
" /> 
<polyline style="fill-rule:evenodd;"
points="22568,15658
22725,15930
22289,16182
22131,15910
22568,15658
" /> 
<polyline style="fill-rule:evenodd;"
points="17285,19035
17558,19193
17306,19629
17033,19472
17285,19035
" /> 
<polyline style="fill-rule:evenodd;"
points="18376,19665
18649,19823
18397,20259
18124,20102
18376,19665
" /> 
<polyline style="fill-rule:evenodd;"
points="18269,17330
18542,17488
18290,17924
18017,17767
18269,17330
" /> 
<polyline style="fill-rule:evenodd;"
points="19360,17960
19633,18118
19381,18554
19108,18397
19360,17960
" /> 
<polyline style="fill-rule:evenodd;"
points="16474,23527
16789,23527
16789,24031
16474,24031
16474,23527
" /> 
<polyline style="fill-rule:evenodd;"
points="17733,23527
18048,23527
18048,24031
17733,24031
17733,23527
" /> 
<polyline style="fill-rule:evenodd;"
points="16474,21559
16789,21559
16789,22062
16474,22062
16474,21559
" /> 
<polyline style="fill-rule:evenodd;"
points="17733,21559
18048,21559
18048,22062
17733,22062
17733,21559
" /> 
<polyline style="fill-rule:evenodd;"
points="18017,27823
18290,27665
18542,28102
18269,28259
18017,27823
" /> 
<polyline style="fill-rule:evenodd;"
points="19108,27193
19381,27035
19633,27472
19360,27629
19108,27193
" /> 
<polyline style="fill-rule:evenodd;"
points="17033,26118
17306,25960
17558,26397
17285,26554
17033,26118
" /> 
<polyline style="fill-rule:evenodd;"
points="18124,25488
18397,25330
18649,25767
18376,25924
18124,25488
" /> 
<polyline style="fill-rule:evenodd;"
points="21502,30771
21659,30498
22095,30750
21938,31023
21502,30771
" /> 
<polyline style="fill-rule:evenodd;"
points="22131,29680
22289,29407
22725,29659
22568,29932
22131,29680
" /> 
<polyline style="fill-rule:evenodd;"
points="19797,29787
19954,29514
20391,29766
20233,30039
19797,29787
" /> 
<polyline style="fill-rule:evenodd;"
points="20427,28696
20584,28423
21021,28675
20863,28948
20427,28696
" /> 
<polyline style="fill-rule:evenodd;"
points="25993,31582
25993,31267
26497,31267
26497,31582
25993,31582
" /> 
<polyline style="fill-rule:evenodd;"
points="25993,30322
25993,30007
26497,30007
26497,30322
25993,30322
" /> 
<polyline style="fill-rule:evenodd;"
points="24025,31582
24025,31267
24529,31267
24529,31582
24025,31582
" /> 
<polyline style="fill-rule:evenodd;"
points="24025,30322
24025,30007
24529,30007
24529,30322
24025,30322
" /> 
<polyline style="fill-rule:evenodd;"
points="30289,30039
30131,29766
30568,29514
30725,29787
30289,30039
" /> 
<polyline style="fill-rule:evenodd;"
points="29659,28948
29502,28675
29938,28423
30095,28696
29659,28948
" /> 
<polyline style="fill-rule:evenodd;"
points="28584,31023
28427,30750
28863,30498
29021,30771
28584,31023
" /> 
<polyline style="fill-rule:evenodd;"
points="27954,29932
27797,29659
28233,29407
28391,29680
27954,29932
" /> 
<polyline style="fill-rule:evenodd;"
points="33237,26554
32965,26397
33216,25960
33489,26118
33237,26554
" /> 
<polyline style="fill-rule:evenodd;"
points="32146,25924
31873,25767
32125,25330
32398,25488
32146,25924
" /> 
<polyline style="fill-rule:evenodd;"
points="32253,28259
31980,28102
32232,27665
32505,27823
32253,28259
" /> 
<polyline style="fill-rule:evenodd;"
points="31162,27629
30889,27472
31141,27035
31414,27193
31162,27629
" /> 
<polyline style="fill-rule:evenodd;"
points="34048,22062
33733,22062
33733,21559
34048,21559
34048,22062
" /> 
<polyline style="fill-rule:evenodd;"
points="32789,22062
32474,22062
32474,21559
32789,21559
32789,22062
" /> 
<polyline style="fill-rule:evenodd;"
points="34048,24031
33733,24031
33733,23527
34048,23527
34048,24031
" /> 
<polyline style="fill-rule:evenodd;"
points="32789,24031
32474,24031
32474,23527
32789,23527
32789,24031
" /> 
<polyline style="fill-rule:evenodd;"
points="32505,17767
32232,17924
31980,17488
32253,17330
32505,17767
" /> 
<polyline style="fill-rule:evenodd;"
points="31414,18397
31141,18554
30889,18118
31162,17960
31414,18397
" /> 
<polyline style="fill-rule:evenodd;"
points="33489,19472
33216,19629
32965,19193
33237,19035
33489,19472
" /> 
<polyline style="fill-rule:evenodd;"
points="32398,20102
32125,20259
31873,19823
32146,19665
32398,20102
" /> 
<polyline style="fill-rule:evenodd;"
points="29021,14819
28863,15091
28427,14839
28584,14567
29021,14819
" /> 
<polyline style="fill-rule:evenodd;"
points="28391,15910
28233,16182
27797,15930
27954,15658
28391,15910
" /> 
<polyline style="fill-rule:evenodd;"
points="30725,15803
30568,16076
30131,15824
30289,15551
30725,15803
" /> 
<polyline style="fill-rule:evenodd;"
points="30095,16894
29938,17167
29502,16915
29659,16642
30095,16894
" /> 
<polyline style="fill-rule:evenodd;"
points="24529,14007
24529,14322
24025,14322
24025,14007
24529,14007
" /> 
<polyline style="fill-rule:evenodd;"
points="24529,15267
24529,15582
24025,15582
24025,15267
24529,15267
" /> 
<polyline style="fill-rule:evenodd;"
points="26497,14007
26497,14322
25993,14322
25993,14007
26497,14007
" /> 
<polyline style="fill-rule:evenodd;"
points="26497,15267
26497,15582
25993,15582
25993,15267
26497,15267
" /> 
<polyline style="fill-rule:evenodd;"
points="24529,22007
24529,22322
24025,22322
24025,22007
24529,22007
" /> 
<polyline style="fill-rule:evenodd;"
points="24529,23267
24529,23582
24025,23582
24025,23267
24529,23267
" /> 
<polyline style="fill-rule:evenodd;"
points="26497,22007
26497,22322
25993,22322
25993,22007
26497,22007
" /> 
<polyline style="fill-rule:evenodd;"
points="26497,23267
26497,23582
25993,23582
25993,23267
26497,23267
" /> 
<polyline style="fill-rule:evenodd;"
points="27037,19464
27037,19275
27541,19275
27541,19464
27037,19464
" /> 
<polyline style="fill-rule:evenodd;"
points="27037,19858
27037,19669
27541,19669
27541,19858
27037,19858
" /> 
<polyline style="fill-rule:evenodd;"
points="27037,20251
27037,20062
27541,20062
27541,20251
27037,20251
" /> 
<polyline style="fill-rule:evenodd;"
points="27037,20645
27037,20456
27541,20456
27541,20645
27037,20645
" /> 
<polyline style="fill-rule:evenodd;"
points="27982,20645
27982,20456
28485,20456
28485,20645
27982,20645
" /> 
<polyline style="fill-rule:evenodd;"
points="27982,20251
27982,20062
28485,20062
28485,20251
27982,20251
" /> 
<polyline style="fill-rule:evenodd;"
points="27982,19858
27982,19669
28485,19669
28485,19858
27982,19858
" /> 
<polyline style="fill-rule:evenodd;"
points="27982,19464
27982,19275
28485,19275
28485,19464
27982,19464
" /> 
</g> 
</svg>
