G04 #@! TF.FileFunction,Paste,Top*
%FSLAX46Y46*%
G04 Gerber Fmt 4.6, Leading zero omitted, Abs format (unit mm)*
G04 Created by KiCad (PCBNEW 4.0.7) date Tuesday, 08 May 2018 'PMt' 13:08:49*
%MOMM*%
%LPD*%
G01*
G04 APERTURE LIST*
%ADD10C,0.100000*%
%ADD11R,0.750000X0.900000*%
%ADD12R,0.720000X0.450000*%
%ADD13R,0.900000X0.750000*%
%ADD14R,0.450000X0.720000*%
%ADD15R,1.080000X1.560000*%
%ADD16R,0.900000X1.920000*%
%ADD17R,0.480000X0.540000*%
%ADD18R,0.240000X0.900000*%
%ADD19R,0.540000X0.720000*%
%ADD20R,0.720000X0.540000*%
%ADD21R,0.936000X0.390000*%
%ADD22R,0.600000X0.960000*%
%ADD23R,0.960000X0.600000*%
%ADD24R,0.960000X0.360000*%
%ADD25R,0.780000X0.180000*%
%ADD26R,0.180000X0.780000*%
%ADD27R,2.100000X1.080000*%
%ADD28R,0.840000X0.240000*%
%ADD29R,0.840000X1.080000*%
%ADD30R,0.840000X1.380000*%
%ADD31R,0.642000X0.822000*%
%ADD32C,1.800000*%
%ADD33R,0.420000X0.150000*%
%ADD34R,0.150000X0.420000*%
%ADD35R,1.100000X1.100000*%
G04 APERTURE END LIST*
D10*
D11*
X70104000Y-116292000D03*
X70104000Y-113792000D03*
X62484000Y-116312000D03*
X62484000Y-113812000D03*
X78994000Y-40406000D03*
X78994000Y-42906000D03*
D12*
X82418000Y-109982000D03*
X80518000Y-109982000D03*
D13*
X75712000Y-109982000D03*
X78212000Y-109982000D03*
D11*
X81026000Y-38588000D03*
X81026000Y-36088000D03*
D14*
X79248000Y-38288000D03*
X79248000Y-36388000D03*
D13*
X61194000Y-96774000D03*
X58694000Y-96774000D03*
D12*
X60960000Y-94996000D03*
X59060000Y-94996000D03*
D14*
X59055000Y-75250000D03*
X59055000Y-77150000D03*
D12*
X100650000Y-118745000D03*
X102550000Y-118745000D03*
D14*
X144145000Y-77150000D03*
X144145000Y-75250000D03*
D12*
X102549999Y-33655000D03*
X100649999Y-33655000D03*
D10*
G36*
X85794492Y-46204059D02*
X86019492Y-46593771D01*
X85395954Y-46953771D01*
X85170954Y-46564059D01*
X85794492Y-46204059D01*
X85794492Y-46204059D01*
G37*
G36*
X84149044Y-47154059D02*
X84374044Y-47543771D01*
X83750506Y-47903771D01*
X83525506Y-47514059D01*
X84149044Y-47154059D01*
X84149044Y-47154059D01*
G37*
G36*
X72914059Y-58125507D02*
X73303771Y-58350507D01*
X72943771Y-58974045D01*
X72554059Y-58749045D01*
X72914059Y-58125507D01*
X72914059Y-58125507D01*
G37*
G36*
X71964059Y-59770955D02*
X72353771Y-59995955D01*
X71993771Y-60619493D01*
X71604059Y-60394493D01*
X71964059Y-59770955D01*
X71964059Y-59770955D01*
G37*
D14*
X67945000Y-75250000D03*
X67945000Y-77150000D03*
D10*
G36*
X71604059Y-92005507D02*
X71993771Y-91780507D01*
X72353771Y-92404045D01*
X71964059Y-92629045D01*
X71604059Y-92005507D01*
X71604059Y-92005507D01*
G37*
G36*
X72554059Y-93650955D02*
X72943771Y-93425955D01*
X73303771Y-94049493D01*
X72914059Y-94274493D01*
X72554059Y-93650955D01*
X72554059Y-93650955D01*
G37*
G36*
X83525507Y-104885940D02*
X83750507Y-104496228D01*
X84374045Y-104856228D01*
X84149045Y-105245940D01*
X83525507Y-104885940D01*
X83525507Y-104885940D01*
G37*
G36*
X85170955Y-105835940D02*
X85395955Y-105446228D01*
X86019493Y-105806228D01*
X85794493Y-106195940D01*
X85170955Y-105835940D01*
X85170955Y-105835940D01*
G37*
D12*
X100650000Y-109855000D03*
X102550000Y-109855000D03*
D10*
G36*
X117405507Y-106195940D02*
X117180507Y-105806228D01*
X117804045Y-105446228D01*
X118029045Y-105835940D01*
X117405507Y-106195940D01*
X117405507Y-106195940D01*
G37*
G36*
X119050955Y-105245940D02*
X118825955Y-104856228D01*
X119449493Y-104496228D01*
X119674493Y-104885940D01*
X119050955Y-105245940D01*
X119050955Y-105245940D01*
G37*
G36*
X119674493Y-47514059D02*
X119449493Y-47903771D01*
X118825955Y-47543771D01*
X119050955Y-47154059D01*
X119674493Y-47514059D01*
X119674493Y-47514059D01*
G37*
G36*
X118029045Y-46564059D02*
X117804045Y-46953771D01*
X117180507Y-46593771D01*
X117405507Y-46204059D01*
X118029045Y-46564059D01*
X118029045Y-46564059D01*
G37*
D12*
X102550000Y-42545000D03*
X100650000Y-42545000D03*
D10*
G36*
X90239492Y-53903024D02*
X90464492Y-54292736D01*
X89840954Y-54652736D01*
X89615954Y-54263024D01*
X90239492Y-53903024D01*
X90239492Y-53903024D01*
G37*
G36*
X88594044Y-54853024D02*
X88819044Y-55242736D01*
X88195506Y-55602736D01*
X87970506Y-55213024D01*
X88594044Y-54853024D01*
X88594044Y-54853024D01*
G37*
G36*
X80613024Y-62570507D02*
X81002736Y-62795507D01*
X80642736Y-63419045D01*
X80253024Y-63194045D01*
X80613024Y-62570507D01*
X80613024Y-62570507D01*
G37*
G36*
X79663024Y-64215955D02*
X80052736Y-64440955D01*
X79692736Y-65064493D01*
X79303024Y-64839493D01*
X79663024Y-64215955D01*
X79663024Y-64215955D01*
G37*
D14*
X76835000Y-75250000D03*
X76835000Y-77150000D03*
D10*
G36*
X79303024Y-87560507D02*
X79692736Y-87335507D01*
X80052736Y-87959045D01*
X79663024Y-88184045D01*
X79303024Y-87560507D01*
X79303024Y-87560507D01*
G37*
G36*
X80253024Y-89205955D02*
X80642736Y-88980955D01*
X81002736Y-89604493D01*
X80613024Y-89829493D01*
X80253024Y-89205955D01*
X80253024Y-89205955D01*
G37*
G36*
X87970507Y-97186975D02*
X88195507Y-96797263D01*
X88819045Y-97157263D01*
X88594045Y-97546975D01*
X87970507Y-97186975D01*
X87970507Y-97186975D01*
G37*
G36*
X89615955Y-98136975D02*
X89840955Y-97747263D01*
X90464493Y-98107263D01*
X90239493Y-98496975D01*
X89615955Y-98136975D01*
X89615955Y-98136975D01*
G37*
D12*
X100650000Y-100965000D03*
X102550000Y-100965000D03*
D10*
G36*
X112960507Y-98496975D02*
X112735507Y-98107263D01*
X113359045Y-97747263D01*
X113584045Y-98136975D01*
X112960507Y-98496975D01*
X112960507Y-98496975D01*
G37*
G36*
X114605955Y-97546975D02*
X114380955Y-97157263D01*
X115004493Y-96797263D01*
X115229493Y-97186975D01*
X114605955Y-97546975D01*
X114605955Y-97546975D01*
G37*
G36*
X122586975Y-89829493D02*
X122197263Y-89604493D01*
X122557263Y-88980955D01*
X122946975Y-89205955D01*
X122586975Y-89829493D01*
X122586975Y-89829493D01*
G37*
G36*
X123536975Y-88184045D02*
X123147263Y-87959045D01*
X123507263Y-87335507D01*
X123896975Y-87560507D01*
X123536975Y-88184045D01*
X123536975Y-88184045D01*
G37*
G36*
X123896975Y-64839492D02*
X123507263Y-65064492D01*
X123147263Y-64440954D01*
X123536975Y-64215954D01*
X123896975Y-64839492D01*
X123896975Y-64839492D01*
G37*
G36*
X122946975Y-63194044D02*
X122557263Y-63419044D01*
X122197263Y-62795506D01*
X122586975Y-62570506D01*
X122946975Y-63194044D01*
X122946975Y-63194044D01*
G37*
G36*
X115229493Y-55213024D02*
X115004493Y-55602736D01*
X114380955Y-55242736D01*
X114605955Y-54853024D01*
X115229493Y-55213024D01*
X115229493Y-55213024D01*
G37*
G36*
X113584045Y-54263024D02*
X113359045Y-54652736D01*
X112735507Y-54292736D01*
X112960507Y-53903024D01*
X113584045Y-54263024D01*
X113584045Y-54263024D01*
G37*
D12*
X102550000Y-51435000D03*
X100650000Y-51435000D03*
D14*
X106680000Y-75250000D03*
X106680000Y-77150000D03*
D15*
X105918000Y-66450000D03*
X105918000Y-69850000D03*
D16*
X109220000Y-66072000D03*
X109220000Y-70072000D03*
D15*
X112268000Y-66372000D03*
X112268000Y-69772000D03*
D13*
X59202000Y-49784000D03*
X61702000Y-49784000D03*
D12*
X59568000Y-48006000D03*
X61468000Y-48006000D03*
D14*
X55118000Y-52710000D03*
X55118000Y-54610000D03*
D17*
X66040000Y-106680000D03*
X67940000Y-106680000D03*
X66990000Y-104680000D03*
D18*
X66294000Y-102616000D03*
X66944000Y-102616000D03*
X67594000Y-102616000D03*
X67594000Y-99956000D03*
X66944000Y-99956000D03*
X66294000Y-99956000D03*
X63500000Y-83140000D03*
X62850000Y-83140000D03*
X62200000Y-83140000D03*
X62200000Y-85800000D03*
X62850000Y-85800000D03*
X63500000Y-85800000D03*
D19*
X81026000Y-40810000D03*
X81026000Y-43010000D03*
D20*
X67310000Y-112268000D03*
X65110000Y-112268000D03*
D19*
X63500000Y-100670000D03*
X63500000Y-102870000D03*
X63500000Y-106848000D03*
X63500000Y-104648000D03*
D20*
X89916000Y-41910000D03*
X87716000Y-41910000D03*
X89916000Y-37592000D03*
X87716000Y-37592000D03*
X87716000Y-40386000D03*
X89916000Y-40386000D03*
X87716000Y-39116000D03*
X89916000Y-39116000D03*
D19*
X88900000Y-34544000D03*
X88900000Y-32344000D03*
X115570000Y-35814000D03*
X115570000Y-33614000D03*
X113538000Y-35814000D03*
X113538000Y-33614000D03*
D20*
X105494000Y-63754000D03*
X103294000Y-63754000D03*
X71628000Y-51816000D03*
X69428000Y-51816000D03*
X71628000Y-50038000D03*
X69428000Y-50038000D03*
D21*
X64944000Y-114112000D03*
X64944000Y-115062000D03*
X64944000Y-116012000D03*
X67644000Y-116012000D03*
X67644000Y-114112000D03*
D22*
X61900000Y-78700000D03*
X65100000Y-78700000D03*
X61900000Y-73700000D03*
X65100000Y-73700000D03*
D23*
X104100000Y-115900000D03*
X104100000Y-112700000D03*
X99100000Y-115900000D03*
X99100000Y-112700000D03*
D22*
X141300000Y-73700000D03*
X138100000Y-73700000D03*
X141300000Y-78700000D03*
X138100000Y-78700000D03*
D23*
X99099999Y-36500000D03*
X99099999Y-39700000D03*
X104099999Y-36500000D03*
X104099999Y-39700000D03*
D10*
G36*
X84295627Y-50267948D02*
X84595627Y-50787564D01*
X83764243Y-51267564D01*
X83464243Y-50747948D01*
X84295627Y-50267948D01*
X84295627Y-50267948D01*
G37*
G36*
X85895627Y-53039230D02*
X86195627Y-53558846D01*
X85364243Y-54038846D01*
X85064243Y-53519230D01*
X85895627Y-53039230D01*
X85895627Y-53039230D01*
G37*
G36*
X88625755Y-47767948D02*
X88925755Y-48287564D01*
X88094371Y-48767564D01*
X87794371Y-48247948D01*
X88625755Y-47767948D01*
X88625755Y-47767948D01*
G37*
G36*
X90225755Y-50539230D02*
X90525755Y-51058846D01*
X89694371Y-51538846D01*
X89394371Y-51019230D01*
X90225755Y-50539230D01*
X90225755Y-50539230D01*
G37*
G36*
X73647948Y-62394372D02*
X74167564Y-62694372D01*
X73687564Y-63525756D01*
X73167948Y-63225756D01*
X73647948Y-62394372D01*
X73647948Y-62394372D01*
G37*
G36*
X76419230Y-63994372D02*
X76938846Y-64294372D01*
X76458846Y-65125756D01*
X75939230Y-64825756D01*
X76419230Y-63994372D01*
X76419230Y-63994372D01*
G37*
G36*
X76147948Y-58064244D02*
X76667564Y-58364244D01*
X76187564Y-59195628D01*
X75667948Y-58895628D01*
X76147948Y-58064244D01*
X76147948Y-58064244D01*
G37*
G36*
X78919230Y-59664244D02*
X79438846Y-59964244D01*
X78958846Y-60795628D01*
X78439230Y-60495628D01*
X78919230Y-59664244D01*
X78919230Y-59664244D01*
G37*
D22*
X70790000Y-78700000D03*
X73990000Y-78700000D03*
X70790000Y-73700000D03*
X73990000Y-73700000D03*
D10*
G36*
X75667948Y-93504372D02*
X76187564Y-93204372D01*
X76667564Y-94035756D01*
X76147948Y-94335756D01*
X75667948Y-93504372D01*
X75667948Y-93504372D01*
G37*
G36*
X78439230Y-91904372D02*
X78958846Y-91604372D01*
X79438846Y-92435756D01*
X78919230Y-92735756D01*
X78439230Y-91904372D01*
X78439230Y-91904372D01*
G37*
G36*
X73167948Y-89174244D02*
X73687564Y-88874244D01*
X74167564Y-89705628D01*
X73647948Y-90005628D01*
X73167948Y-89174244D01*
X73167948Y-89174244D01*
G37*
G36*
X75939230Y-87574244D02*
X76458846Y-87274244D01*
X76938846Y-88105628D01*
X76419230Y-88405628D01*
X75939230Y-87574244D01*
X75939230Y-87574244D01*
G37*
G36*
X87794372Y-104152051D02*
X88094372Y-103632435D01*
X88925756Y-104112435D01*
X88625756Y-104632051D01*
X87794372Y-104152051D01*
X87794372Y-104152051D01*
G37*
G36*
X89394372Y-101380769D02*
X89694372Y-100861153D01*
X90525756Y-101341153D01*
X90225756Y-101860769D01*
X89394372Y-101380769D01*
X89394372Y-101380769D01*
G37*
G36*
X83464244Y-101652051D02*
X83764244Y-101132435D01*
X84595628Y-101612435D01*
X84295628Y-102132051D01*
X83464244Y-101652051D01*
X83464244Y-101652051D01*
G37*
G36*
X85064244Y-98880769D02*
X85364244Y-98361153D01*
X86195628Y-98841153D01*
X85895628Y-99360769D01*
X85064244Y-98880769D01*
X85064244Y-98880769D01*
G37*
D23*
X104100000Y-107010000D03*
X104100000Y-103810000D03*
X99100000Y-107010000D03*
X99100000Y-103810000D03*
D10*
G36*
X118904372Y-102132051D02*
X118604372Y-101612435D01*
X119435756Y-101132435D01*
X119735756Y-101652051D01*
X118904372Y-102132051D01*
X118904372Y-102132051D01*
G37*
G36*
X117304372Y-99360769D02*
X117004372Y-98841153D01*
X117835756Y-98361153D01*
X118135756Y-98880769D01*
X117304372Y-99360769D01*
X117304372Y-99360769D01*
G37*
G36*
X114574244Y-104632051D02*
X114274244Y-104112435D01*
X115105628Y-103632435D01*
X115405628Y-104152051D01*
X114574244Y-104632051D01*
X114574244Y-104632051D01*
G37*
G36*
X112974244Y-101860769D02*
X112674244Y-101341153D01*
X113505628Y-100861153D01*
X113805628Y-101380769D01*
X112974244Y-101860769D01*
X112974244Y-101860769D01*
G37*
G36*
X115405628Y-48247948D02*
X115105628Y-48767564D01*
X114274244Y-48287564D01*
X114574244Y-47767948D01*
X115405628Y-48247948D01*
X115405628Y-48247948D01*
G37*
G36*
X113805628Y-51019230D02*
X113505628Y-51538846D01*
X112674244Y-51058846D01*
X112974244Y-50539230D01*
X113805628Y-51019230D01*
X113805628Y-51019230D01*
G37*
G36*
X119735756Y-50747948D02*
X119435756Y-51267564D01*
X118604372Y-50787564D01*
X118904372Y-50267948D01*
X119735756Y-50747948D01*
X119735756Y-50747948D01*
G37*
G36*
X118135756Y-53519230D02*
X117835756Y-54038846D01*
X117004372Y-53558846D01*
X117304372Y-53039230D01*
X118135756Y-53519230D01*
X118135756Y-53519230D01*
G37*
D23*
X99100000Y-45390000D03*
X99100000Y-48590000D03*
X104100000Y-45390000D03*
X104100000Y-48590000D03*
D10*
G36*
X88740627Y-57966914D02*
X89040627Y-58486530D01*
X88209243Y-58966530D01*
X87909243Y-58446914D01*
X88740627Y-57966914D01*
X88740627Y-57966914D01*
G37*
G36*
X90340627Y-60738196D02*
X90640627Y-61257812D01*
X89809243Y-61737812D01*
X89509243Y-61218196D01*
X90340627Y-60738196D01*
X90340627Y-60738196D01*
G37*
G36*
X93070755Y-55466914D02*
X93370755Y-55986530D01*
X92539371Y-56466530D01*
X92239371Y-55946914D01*
X93070755Y-55466914D01*
X93070755Y-55466914D01*
G37*
G36*
X94670755Y-58238196D02*
X94970755Y-58757812D01*
X94139371Y-59237812D01*
X93839371Y-58718196D01*
X94670755Y-58238196D01*
X94670755Y-58238196D01*
G37*
G36*
X81346914Y-66839372D02*
X81866530Y-67139372D01*
X81386530Y-67970756D01*
X80866914Y-67670756D01*
X81346914Y-66839372D01*
X81346914Y-66839372D01*
G37*
G36*
X84118196Y-68439372D02*
X84637812Y-68739372D01*
X84157812Y-69570756D01*
X83638196Y-69270756D01*
X84118196Y-68439372D01*
X84118196Y-68439372D01*
G37*
G36*
X83846914Y-62509244D02*
X84366530Y-62809244D01*
X83886530Y-63640628D01*
X83366914Y-63340628D01*
X83846914Y-62509244D01*
X83846914Y-62509244D01*
G37*
G36*
X86618196Y-64109244D02*
X87137812Y-64409244D01*
X86657812Y-65240628D01*
X86138196Y-64940628D01*
X86618196Y-64109244D01*
X86618196Y-64109244D01*
G37*
D22*
X79680000Y-78700000D03*
X82880000Y-78700000D03*
X79680000Y-73700000D03*
X82880000Y-73700000D03*
D10*
G36*
X83366914Y-89059372D02*
X83886530Y-88759372D01*
X84366530Y-89590756D01*
X83846914Y-89890756D01*
X83366914Y-89059372D01*
X83366914Y-89059372D01*
G37*
G36*
X86138196Y-87459372D02*
X86657812Y-87159372D01*
X87137812Y-87990756D01*
X86618196Y-88290756D01*
X86138196Y-87459372D01*
X86138196Y-87459372D01*
G37*
G36*
X80866914Y-84729244D02*
X81386530Y-84429244D01*
X81866530Y-85260628D01*
X81346914Y-85560628D01*
X80866914Y-84729244D01*
X80866914Y-84729244D01*
G37*
G36*
X83638196Y-83129244D02*
X84157812Y-82829244D01*
X84637812Y-83660628D01*
X84118196Y-83960628D01*
X83638196Y-83129244D01*
X83638196Y-83129244D01*
G37*
G36*
X92239372Y-96453085D02*
X92539372Y-95933469D01*
X93370756Y-96413469D01*
X93070756Y-96933085D01*
X92239372Y-96453085D01*
X92239372Y-96453085D01*
G37*
G36*
X93839372Y-93681803D02*
X94139372Y-93162187D01*
X94970756Y-93642187D01*
X94670756Y-94161803D01*
X93839372Y-93681803D01*
X93839372Y-93681803D01*
G37*
G36*
X87909244Y-93953085D02*
X88209244Y-93433469D01*
X89040628Y-93913469D01*
X88740628Y-94433085D01*
X87909244Y-93953085D01*
X87909244Y-93953085D01*
G37*
G36*
X89509244Y-91181803D02*
X89809244Y-90662187D01*
X90640628Y-91142187D01*
X90340628Y-91661803D01*
X89509244Y-91181803D01*
X89509244Y-91181803D01*
G37*
D23*
X104100000Y-98120000D03*
X104100000Y-94920000D03*
X99100000Y-98120000D03*
X99100000Y-94920000D03*
D10*
G36*
X114459372Y-94433085D02*
X114159372Y-93913469D01*
X114990756Y-93433469D01*
X115290756Y-93953085D01*
X114459372Y-94433085D01*
X114459372Y-94433085D01*
G37*
G36*
X112859372Y-91661803D02*
X112559372Y-91142187D01*
X113390756Y-90662187D01*
X113690756Y-91181803D01*
X112859372Y-91661803D01*
X112859372Y-91661803D01*
G37*
G36*
X110129244Y-96933085D02*
X109829244Y-96413469D01*
X110660628Y-95933469D01*
X110960628Y-96453085D01*
X110129244Y-96933085D01*
X110129244Y-96933085D01*
G37*
G36*
X108529244Y-94161803D02*
X108229244Y-93642187D01*
X109060628Y-93162187D01*
X109360628Y-93681803D01*
X108529244Y-94161803D01*
X108529244Y-94161803D01*
G37*
G36*
X121853085Y-85560628D02*
X121333469Y-85260628D01*
X121813469Y-84429244D01*
X122333085Y-84729244D01*
X121853085Y-85560628D01*
X121853085Y-85560628D01*
G37*
G36*
X119081803Y-83960628D02*
X118562187Y-83660628D01*
X119042187Y-82829244D01*
X119561803Y-83129244D01*
X119081803Y-83960628D01*
X119081803Y-83960628D01*
G37*
G36*
X119353085Y-89890756D02*
X118833469Y-89590756D01*
X119313469Y-88759372D01*
X119833085Y-89059372D01*
X119353085Y-89890756D01*
X119353085Y-89890756D01*
G37*
G36*
X116581803Y-88290756D02*
X116062187Y-87990756D01*
X116542187Y-87159372D01*
X117061803Y-87459372D01*
X116581803Y-88290756D01*
X116581803Y-88290756D01*
G37*
D22*
X123520000Y-73700000D03*
X120320000Y-73700000D03*
X123520000Y-78700000D03*
X120320000Y-78700000D03*
D10*
G36*
X119833085Y-63340627D02*
X119313469Y-63640627D01*
X118833469Y-62809243D01*
X119353085Y-62509243D01*
X119833085Y-63340627D01*
X119833085Y-63340627D01*
G37*
G36*
X117061803Y-64940627D02*
X116542187Y-65240627D01*
X116062187Y-64409243D01*
X116581803Y-64109243D01*
X117061803Y-64940627D01*
X117061803Y-64940627D01*
G37*
G36*
X122333085Y-67670755D02*
X121813469Y-67970755D01*
X121333469Y-67139371D01*
X121853085Y-66839371D01*
X122333085Y-67670755D01*
X122333085Y-67670755D01*
G37*
G36*
X119561803Y-69270755D02*
X119042187Y-69570755D01*
X118562187Y-68739371D01*
X119081803Y-68439371D01*
X119561803Y-69270755D01*
X119561803Y-69270755D01*
G37*
G36*
X110960628Y-55946914D02*
X110660628Y-56466530D01*
X109829244Y-55986530D01*
X110129244Y-55466914D01*
X110960628Y-55946914D01*
X110960628Y-55946914D01*
G37*
G36*
X109360628Y-58718196D02*
X109060628Y-59237812D01*
X108229244Y-58757812D01*
X108529244Y-58238196D01*
X109360628Y-58718196D01*
X109360628Y-58718196D01*
G37*
G36*
X115290756Y-58446914D02*
X114990756Y-58966530D01*
X114159372Y-58486530D01*
X114459372Y-57966914D01*
X115290756Y-58446914D01*
X115290756Y-58446914D01*
G37*
G36*
X113690756Y-61218196D02*
X113390756Y-61737812D01*
X112559372Y-61257812D01*
X112859372Y-60738196D01*
X113690756Y-61218196D01*
X113690756Y-61218196D01*
G37*
D23*
X99100000Y-54280000D03*
X99100000Y-57480000D03*
X104100000Y-54280000D03*
X104100000Y-57480000D03*
X104100000Y-77800000D03*
X104100000Y-74600000D03*
X99100000Y-77800000D03*
X99100000Y-74600000D03*
D24*
X100654000Y-65556000D03*
X100654000Y-66556000D03*
X100654000Y-67556000D03*
X100654000Y-68556000D03*
X103054000Y-68556000D03*
X103054000Y-67556000D03*
X103054000Y-66556000D03*
X103054000Y-65556000D03*
D25*
X58190000Y-52594000D03*
X58190000Y-53094000D03*
X58190000Y-53594000D03*
X58190000Y-54094000D03*
X58190000Y-54594000D03*
D26*
X59190000Y-55094000D03*
X59690000Y-55094000D03*
X60190000Y-55094000D03*
D25*
X61190000Y-54594000D03*
X61190000Y-54094000D03*
X61190000Y-53594000D03*
X61190000Y-53094000D03*
X61190000Y-52594000D03*
D26*
X60190000Y-52094000D03*
X59690000Y-52094000D03*
X59190000Y-52094000D03*
D27*
X68834000Y-120650000D03*
X63834000Y-120650000D03*
D19*
X96520000Y-77554000D03*
X96520000Y-75354000D03*
D10*
G36*
X130285940Y-94274493D02*
X129896228Y-94049493D01*
X130256228Y-93425955D01*
X130645940Y-93650955D01*
X130285940Y-94274493D01*
X130285940Y-94274493D01*
G37*
G36*
X131235940Y-92629045D02*
X130846228Y-92404045D01*
X131206228Y-91780507D01*
X131595940Y-92005507D01*
X131235940Y-92629045D01*
X131235940Y-92629045D01*
G37*
D14*
X135255000Y-77150000D03*
X135255000Y-75250000D03*
D10*
G36*
X131595940Y-60394492D02*
X131206228Y-60619492D01*
X130846228Y-59995954D01*
X131235940Y-59770954D01*
X131595940Y-60394492D01*
X131595940Y-60394492D01*
G37*
G36*
X130645940Y-58749044D02*
X130256228Y-58974044D01*
X129896228Y-58350506D01*
X130285940Y-58125506D01*
X130645940Y-58749044D01*
X130645940Y-58749044D01*
G37*
D14*
X126365000Y-77150000D03*
X126365000Y-75250000D03*
D10*
G36*
X129552051Y-90005628D02*
X129032435Y-89705628D01*
X129512435Y-88874244D01*
X130032051Y-89174244D01*
X129552051Y-90005628D01*
X129552051Y-90005628D01*
G37*
G36*
X126780769Y-88405628D02*
X126261153Y-88105628D01*
X126741153Y-87274244D01*
X127260769Y-87574244D01*
X126780769Y-88405628D01*
X126780769Y-88405628D01*
G37*
G36*
X127052051Y-94335756D02*
X126532435Y-94035756D01*
X127012435Y-93204372D01*
X127532051Y-93504372D01*
X127052051Y-94335756D01*
X127052051Y-94335756D01*
G37*
G36*
X124280769Y-92735756D02*
X123761153Y-92435756D01*
X124241153Y-91604372D01*
X124760769Y-91904372D01*
X124280769Y-92735756D01*
X124280769Y-92735756D01*
G37*
D22*
X132410000Y-73700000D03*
X129210000Y-73700000D03*
X132410000Y-78700000D03*
X129210000Y-78700000D03*
D10*
G36*
X127532051Y-58895627D02*
X127012435Y-59195627D01*
X126532435Y-58364243D01*
X127052051Y-58064243D01*
X127532051Y-58895627D01*
X127532051Y-58895627D01*
G37*
G36*
X124760769Y-60495627D02*
X124241153Y-60795627D01*
X123761153Y-59964243D01*
X124280769Y-59664243D01*
X124760769Y-60495627D01*
X124760769Y-60495627D01*
G37*
G36*
X130032051Y-63225755D02*
X129512435Y-63525755D01*
X129032435Y-62694371D01*
X129552051Y-62394371D01*
X130032051Y-63225755D01*
X130032051Y-63225755D01*
G37*
G36*
X127260769Y-64825755D02*
X126741153Y-65125755D01*
X126261153Y-64294371D01*
X126780769Y-63994371D01*
X127260769Y-64825755D01*
X127260769Y-64825755D01*
G37*
D28*
X55936000Y-92146000D03*
X55936000Y-91496000D03*
X55936000Y-90846000D03*
X55936000Y-92796000D03*
X55936000Y-93446000D03*
D29*
X53086000Y-93296000D03*
X53086000Y-90996000D03*
D30*
X53086000Y-95896000D03*
X53086000Y-88396000D03*
D31*
X79112000Y-112329000D03*
X80832000Y-112329000D03*
X82552000Y-112329000D03*
X77392000Y-112329000D03*
X75672000Y-112329000D03*
D32*
X79112000Y-117929000D03*
D33*
X60596000Y-90586000D03*
X60596000Y-91086000D03*
X60596000Y-91586000D03*
X60596000Y-92086000D03*
X60596000Y-92586000D03*
X60596000Y-93086000D03*
D34*
X61346000Y-93836000D03*
X61846000Y-93836000D03*
X62346000Y-93836000D03*
X62846000Y-93836000D03*
X63346000Y-93836000D03*
X63846000Y-93836000D03*
D33*
X64596000Y-93086000D03*
X64596000Y-92586000D03*
X64596000Y-92086000D03*
X64596000Y-91586000D03*
X64596000Y-91086000D03*
X64596000Y-90586000D03*
D34*
X63846000Y-89836000D03*
X63346000Y-89836000D03*
X62846000Y-89836000D03*
X62346000Y-89836000D03*
X61846000Y-89836000D03*
X61346000Y-89836000D03*
D35*
X62596000Y-91836000D03*
M02*
