G04 #@! TF.FileFunction,Copper,L2,Bot,Signal*
%FSLAX46Y46*%
G04 Gerber Fmt 4.6, Leading zero omitted, Abs format (unit mm)*
G04 Created by KiCad (PCBNEW 4.0.7) date Saturday, 23 June 2018 'PMt' 19:02:52*
%MOMM*%
%LPD*%
G01*
G04 APERTURE LIST*
%ADD10C,0.100000*%
%ADD11R,1.600000X1.600000*%
%ADD12C,1.600000*%
%ADD13R,0.900000X1.200000*%
%ADD14R,1.700000X1.200000*%
%ADD15O,1.700000X1.200000*%
%ADD16R,1.700000X1.700000*%
%ADD17O,1.700000X1.700000*%
%ADD18R,2.032000X1.727200*%
%ADD19O,2.032000X1.727200*%
%ADD20R,2.750000X1.000000*%
%ADD21R,1.200000X1.200000*%
%ADD22C,6.400000*%
%ADD23C,0.800000*%
%ADD24C,0.600000*%
%ADD25C,1.000000*%
%ADD26C,0.500000*%
%ADD27C,0.250000*%
%ADD28C,0.254000*%
G04 APERTURE END LIST*
D10*
D11*
X73000000Y-101800000D03*
D12*
X76500000Y-101800000D03*
D13*
X63500000Y-55400000D03*
X63500000Y-57600000D03*
X72500000Y-55300000D03*
X72500000Y-57500000D03*
D14*
X90800000Y-113800000D03*
D15*
X90800000Y-115800000D03*
D16*
X122750000Y-28000000D03*
D17*
X125290000Y-28000000D03*
X127830000Y-28000000D03*
X130370000Y-28000000D03*
X132910000Y-28000000D03*
X135450000Y-28000000D03*
D16*
X59000000Y-62920000D03*
D17*
X59000000Y-65460000D03*
X59000000Y-68000000D03*
D16*
X105750000Y-28000000D03*
D17*
X103210000Y-28000000D03*
X100670000Y-28000000D03*
X98130000Y-28000000D03*
X95590000Y-28000000D03*
D18*
X118500000Y-35380000D03*
D19*
X118500000Y-37920000D03*
X118500000Y-40460000D03*
X118500000Y-43000000D03*
D13*
X66000000Y-57600000D03*
X66000000Y-55400000D03*
X70000000Y-55300000D03*
X70000000Y-57500000D03*
D20*
X65130000Y-49500000D03*
X59370000Y-49500000D03*
X59370000Y-45500000D03*
X65130000Y-45500000D03*
X76630000Y-49500000D03*
X70870000Y-49500000D03*
X70870000Y-45500000D03*
X76630000Y-45500000D03*
D21*
X61640000Y-115125000D03*
X62840000Y-115125000D03*
X64040000Y-115125000D03*
X65240000Y-115125000D03*
X66440000Y-115125000D03*
X67640000Y-115125000D03*
X68840000Y-115125000D03*
X70040000Y-115125000D03*
X70040000Y-116325000D03*
X68840000Y-116325000D03*
X67640000Y-116325000D03*
X66440000Y-116325000D03*
X65240000Y-116325000D03*
X64040000Y-116325000D03*
X62840000Y-116325000D03*
X61640000Y-116325000D03*
X61640000Y-117525000D03*
X62840000Y-117525000D03*
X64040000Y-117525000D03*
X65240000Y-117525000D03*
X66440000Y-117525000D03*
X67640000Y-117525000D03*
X68840000Y-117525000D03*
X70040000Y-117525000D03*
X70040000Y-118725000D03*
X68840000Y-118725000D03*
X67640000Y-118725000D03*
X66440000Y-118725000D03*
X65240000Y-118725000D03*
X64040000Y-118725000D03*
X62840000Y-118725000D03*
X61640000Y-118725000D03*
X61640000Y-119925000D03*
X62840000Y-119925000D03*
X64040000Y-119925000D03*
X65240000Y-119925000D03*
X66440000Y-119925000D03*
X67640000Y-119925000D03*
X68840000Y-119925000D03*
X70040000Y-119925000D03*
X70040000Y-121125000D03*
X68840000Y-121125000D03*
X67640000Y-121125000D03*
X66440000Y-121125000D03*
X65240000Y-121125000D03*
X64040000Y-121125000D03*
X62840000Y-121125000D03*
X61640000Y-121125000D03*
X61640000Y-122325000D03*
X62840000Y-122325000D03*
X64040000Y-122325000D03*
X65240000Y-122325000D03*
X66440000Y-122325000D03*
X67640000Y-122325000D03*
X68840000Y-122325000D03*
X70040000Y-122325000D03*
D16*
X74820000Y-121100000D03*
D17*
X77360000Y-121100000D03*
X79900000Y-121100000D03*
D16*
X148830000Y-53250000D03*
D17*
X146290000Y-53250000D03*
X143750000Y-53250000D03*
X141210000Y-53250000D03*
X138670000Y-53250000D03*
X136130000Y-53250000D03*
X133590000Y-53250000D03*
X131050000Y-53250000D03*
D13*
X75000000Y-57350000D03*
X75000000Y-55150000D03*
D22*
X147000000Y-30000000D03*
D23*
X149400000Y-30000000D03*
X148697056Y-31697056D03*
X147000000Y-32400000D03*
X145302944Y-31697056D03*
X144600000Y-30000000D03*
X145302944Y-28302944D03*
X147000000Y-27600000D03*
X148697056Y-28302944D03*
D22*
X55000000Y-30000000D03*
D23*
X57400000Y-30000000D03*
X56697056Y-31697056D03*
X55000000Y-32400000D03*
X53302944Y-31697056D03*
X52600000Y-30000000D03*
X53302944Y-28302944D03*
X55000000Y-27600000D03*
X56697056Y-28302944D03*
D22*
X55000000Y-122000000D03*
D23*
X57400000Y-122000000D03*
X56697056Y-123697056D03*
X55000000Y-124400000D03*
X53302944Y-123697056D03*
X52600000Y-122000000D03*
X53302944Y-120302944D03*
X55000000Y-119600000D03*
X56697056Y-120302944D03*
D22*
X147000000Y-122000000D03*
D23*
X149400000Y-122000000D03*
X148697056Y-123697056D03*
X147000000Y-124400000D03*
X145302944Y-123697056D03*
X144600000Y-122000000D03*
X145302944Y-120302944D03*
X147000000Y-119600000D03*
X148697056Y-120302944D03*
D24*
X66000000Y-99800000D03*
X79500000Y-34000000D03*
X104500000Y-69500000D03*
X101100001Y-75800001D03*
X101000000Y-69750000D03*
X58000000Y-79500000D03*
X86500000Y-105750000D03*
X64750000Y-108250000D03*
X62285000Y-45750000D03*
X56000000Y-45750000D03*
X73500000Y-36500000D03*
X73500000Y-47250000D03*
X61250000Y-70250000D03*
X53500000Y-101875000D03*
X53500000Y-46250000D03*
X53250000Y-39000000D03*
X54500000Y-41650000D03*
X63500000Y-54000000D03*
X72500000Y-54000000D03*
X79000000Y-38000000D03*
X80000000Y-38250000D03*
X104874990Y-35000000D03*
X93500000Y-32750000D03*
X104424979Y-35750000D03*
X88000000Y-43624990D03*
X89000000Y-42750000D03*
X81683051Y-45433051D03*
X95250000Y-73500000D03*
X79000000Y-48000000D03*
X81250000Y-46750000D03*
X96000000Y-32750000D03*
X64000000Y-82000000D03*
X96750000Y-114500000D03*
X130750000Y-88500000D03*
X112500000Y-106500000D03*
X137000000Y-72000000D03*
X106250000Y-51250000D03*
X106250000Y-39500000D03*
X103250000Y-38000000D03*
X112500000Y-50000000D03*
X103500000Y-46500000D03*
X108000000Y-57750000D03*
X103500000Y-55500000D03*
X98250000Y-56250000D03*
X98250000Y-73000000D03*
X74250000Y-49500000D03*
D25*
X66000000Y-99800000D02*
X74500000Y-99800000D01*
X74500000Y-99800000D02*
X76500000Y-101800000D01*
X68000000Y-45500000D02*
X70870000Y-45500000D01*
X65130000Y-45500000D02*
X68000000Y-45500000D01*
X135450000Y-28000000D02*
X135450000Y-44950000D01*
X135450000Y-28000000D02*
X120450000Y-43000000D01*
X120450000Y-43000000D02*
X118500000Y-43000000D01*
X79500000Y-34000000D02*
X97210000Y-34000000D01*
X97210000Y-34000000D02*
X103210000Y-28000000D01*
X59000000Y-68000000D02*
X59000000Y-78500000D01*
X59000000Y-78500000D02*
X58000000Y-79500000D01*
D26*
X101000000Y-69750000D02*
X104250000Y-69750000D01*
X104250000Y-69750000D02*
X104500000Y-69500000D01*
D25*
X101000000Y-69750000D02*
X101000000Y-75700000D01*
X101000000Y-75700000D02*
X101100001Y-75800001D01*
X76500000Y-101800000D02*
X76500000Y-98000000D01*
X76500000Y-98000000D02*
X58000000Y-79500000D01*
X76500000Y-101800000D02*
X82550000Y-101800000D01*
X82550000Y-101800000D02*
X86500000Y-105750000D01*
X76500000Y-101800000D02*
X70050000Y-108250000D01*
X70050000Y-108250000D02*
X69410002Y-108250000D01*
X69410002Y-108250000D02*
X64750000Y-108250000D01*
X70870000Y-45500000D02*
X76630000Y-45500000D01*
X65130000Y-45500000D02*
X62535000Y-45500000D01*
X62535000Y-45500000D02*
X62285000Y-45750000D01*
X59370000Y-45500000D02*
X62035000Y-45500000D01*
X62035000Y-45500000D02*
X62285000Y-45750000D01*
X56000000Y-45750000D02*
X62285000Y-45750000D01*
X135450000Y-44950000D02*
X143750000Y-53250000D01*
X75000000Y-57350000D02*
X75000000Y-57500000D01*
X75000000Y-57500000D02*
X73599999Y-58900001D01*
X73599999Y-58900001D02*
X67010001Y-58900001D01*
X53500000Y-46250000D02*
X53275473Y-46025473D01*
X53275473Y-46025473D02*
X53275473Y-39025473D01*
X53275473Y-39025473D02*
X53250000Y-39000000D01*
X70000000Y-55300000D02*
X66100000Y-55300000D01*
X66100000Y-55300000D02*
X66000000Y-55400000D01*
X130370000Y-28000000D02*
X129520001Y-28849999D01*
X129520001Y-28849999D02*
X129520001Y-29592399D01*
X118652400Y-40460000D02*
X118500000Y-40460000D01*
X129520001Y-29592399D02*
X118652400Y-40460000D01*
X73500000Y-36500000D02*
X99100000Y-36500000D01*
X99100000Y-36500000D02*
X105750000Y-29850000D01*
X105750000Y-29850000D02*
X105750000Y-28000000D01*
X68000000Y-55400000D02*
X68105002Y-55400000D01*
X68105002Y-55400000D02*
X68794999Y-54710003D01*
X68794999Y-54710003D02*
X68794999Y-48439999D01*
X68794999Y-48439999D02*
X69984998Y-47250000D01*
X69984998Y-47250000D02*
X73500000Y-47250000D01*
X61250000Y-70250000D02*
X61250000Y-65170000D01*
X61250000Y-65170000D02*
X59000000Y-62920000D01*
X73000000Y-101800000D02*
X53575000Y-101800000D01*
X53575000Y-101800000D02*
X53500000Y-101875000D01*
X66000000Y-55400000D02*
X68000000Y-55400000D01*
X53500000Y-49910002D02*
X62489999Y-58900001D01*
X53500000Y-46250000D02*
X53500000Y-49910002D01*
X62489999Y-58900001D02*
X67010001Y-58900001D01*
X67010001Y-58900001D02*
X68000000Y-57910002D01*
X68000000Y-57910002D02*
X68000000Y-55400000D01*
D27*
X59370000Y-49500000D02*
X57745000Y-49500000D01*
X57745000Y-49500000D02*
X54500000Y-46255000D01*
X54500000Y-46255000D02*
X54500000Y-41650000D01*
X65130000Y-49500000D02*
X59370000Y-49500000D01*
X63500000Y-54000000D02*
X63500000Y-55400000D01*
X63500000Y-57600000D02*
X64200000Y-57600000D01*
X64200000Y-57600000D02*
X66000000Y-57600000D01*
X72500000Y-54000000D02*
X72500000Y-55300000D01*
X70000000Y-57500000D02*
X72500000Y-57500000D01*
X100000000Y-37500000D02*
X108324999Y-29175001D01*
X108324999Y-29175001D02*
X124114999Y-29175001D01*
X124114999Y-29175001D02*
X124440001Y-28849999D01*
X124440001Y-28849999D02*
X125290000Y-28000000D01*
X79500000Y-37500000D02*
X100000000Y-37500000D01*
X79000000Y-38000000D02*
X79500000Y-37500000D01*
X100200001Y-37950001D02*
X108524990Y-29625012D01*
X108524990Y-29625012D02*
X126204988Y-29625012D01*
X126204988Y-29625012D02*
X126980001Y-28849999D01*
X126980001Y-28849999D02*
X127830000Y-28000000D01*
X80000000Y-38250000D02*
X80299999Y-37950001D01*
X80299999Y-37950001D02*
X100200001Y-37950001D01*
X118500000Y-35380000D02*
X105254990Y-35380000D01*
X105254990Y-35380000D02*
X105174989Y-35299999D01*
X105174989Y-35299999D02*
X104874990Y-35000000D01*
X98130000Y-28000000D02*
X93500000Y-32630000D01*
X93500000Y-32630000D02*
X93500000Y-32750000D01*
X118500000Y-37920000D02*
X106594979Y-37920000D01*
X106594979Y-37920000D02*
X104724978Y-36049999D01*
X104724978Y-36049999D02*
X104424979Y-35750000D01*
X88424264Y-43624990D02*
X88000000Y-43624990D01*
X114250000Y-45000000D02*
X112874990Y-43624990D01*
X130420000Y-45000000D02*
X114250000Y-45000000D01*
X138670000Y-53250000D02*
X130420000Y-45000000D01*
X112874990Y-43624990D02*
X88424264Y-43624990D01*
X140360001Y-52400001D02*
X141210000Y-53250000D01*
X132460000Y-44500000D02*
X140360001Y-52400001D01*
X114386410Y-44500000D02*
X132460000Y-44500000D01*
X112636410Y-42750000D02*
X114386410Y-44500000D01*
X89000000Y-42750000D02*
X112636410Y-42750000D01*
X133590000Y-53250000D02*
X125840000Y-45500000D01*
X125840000Y-45500000D02*
X114000000Y-45500000D01*
X81983050Y-45133052D02*
X81683051Y-45433051D01*
X82866102Y-44250000D02*
X81983050Y-45133052D01*
X112750000Y-44250000D02*
X82866102Y-44250000D01*
X114000000Y-45500000D02*
X112750000Y-44250000D01*
X79000000Y-48000000D02*
X95250000Y-64250000D01*
X95250000Y-64250000D02*
X95250000Y-73500000D01*
X130150001Y-52400001D02*
X123750000Y-46000000D01*
X123750000Y-46000000D02*
X113750000Y-46000000D01*
X131050000Y-53250000D02*
X130200001Y-52400001D01*
X130200001Y-52400001D02*
X130150001Y-52400001D01*
X81250000Y-46750000D02*
X83250000Y-44750000D01*
X83250000Y-44750000D02*
X112500000Y-44750000D01*
X112500000Y-44750000D02*
X113750000Y-46000000D01*
X96000000Y-32750000D02*
X100670000Y-28080000D01*
X100670000Y-28080000D02*
X100670000Y-28000000D01*
X96750000Y-114500000D02*
X64250000Y-82000000D01*
X64250000Y-82000000D02*
X64000000Y-82000000D01*
X112750000Y-106500000D02*
X112500000Y-106500000D01*
X130750000Y-88500000D02*
X112750000Y-106500000D01*
X106250000Y-51250000D02*
X116250000Y-51250000D01*
X116250000Y-51250000D02*
X137000000Y-72000000D01*
X103250000Y-38000000D02*
X104750000Y-39500000D01*
X104750000Y-39500000D02*
X106250000Y-39500000D01*
X103500000Y-46500000D02*
X107000000Y-50000000D01*
X107000000Y-50000000D02*
X112500000Y-50000000D01*
X103500000Y-55500000D02*
X105750000Y-57750000D01*
X105750000Y-57750000D02*
X108000000Y-57750000D01*
X98250000Y-63250000D02*
X98250000Y-56250000D01*
X98250000Y-73000000D02*
X98250000Y-63250000D01*
X75000000Y-55150000D02*
X75000000Y-50250000D01*
X75000000Y-50250000D02*
X74250000Y-49500000D01*
X72495000Y-49500000D02*
X74250000Y-49500000D01*
X74250000Y-49500000D02*
X76630000Y-49500000D01*
X70870000Y-49500000D02*
X72495000Y-49500000D01*
D28*
G36*
X94539946Y-26920853D02*
X94218039Y-27402622D01*
X94105000Y-27970907D01*
X94105000Y-28029093D01*
X94218039Y-28597378D01*
X94539946Y-29079147D01*
X95021715Y-29401054D01*
X95549217Y-29505981D01*
X93187921Y-31867277D01*
X92971057Y-31956883D01*
X92707808Y-32219673D01*
X92565162Y-32563201D01*
X92564838Y-32935167D01*
X92706883Y-33278943D01*
X92969673Y-33542192D01*
X93313201Y-33684838D01*
X93685167Y-33685162D01*
X94028943Y-33543117D01*
X94292192Y-33280327D01*
X94434838Y-32936799D01*
X94434983Y-32769819D01*
X97763592Y-29441210D01*
X98130000Y-29514093D01*
X98168828Y-29506370D01*
X95860320Y-31814878D01*
X95814833Y-31814838D01*
X95471057Y-31956883D01*
X95207808Y-32219673D01*
X95065162Y-32563201D01*
X95064838Y-32935167D01*
X95206883Y-33278943D01*
X95469673Y-33542192D01*
X95813201Y-33684838D01*
X96185167Y-33685162D01*
X96528943Y-33543117D01*
X96792192Y-33280327D01*
X96934838Y-32936799D01*
X96934879Y-32889923D01*
X100370319Y-29454483D01*
X100670000Y-29514093D01*
X101238285Y-29401054D01*
X101720054Y-29079147D01*
X101947702Y-28738447D01*
X102014817Y-28881358D01*
X102443076Y-29271645D01*
X102853110Y-29441476D01*
X103083000Y-29320155D01*
X103083000Y-28127000D01*
X103063000Y-28127000D01*
X103063000Y-27873000D01*
X103083000Y-27873000D01*
X103083000Y-27853000D01*
X103337000Y-27853000D01*
X103337000Y-27873000D01*
X103357000Y-27873000D01*
X103357000Y-28127000D01*
X103337000Y-28127000D01*
X103337000Y-29320155D01*
X103566890Y-29441476D01*
X103976924Y-29271645D01*
X104279937Y-28995499D01*
X104296838Y-29085317D01*
X104435910Y-29301441D01*
X104588896Y-29405972D01*
X98629868Y-35365000D01*
X73500000Y-35365000D01*
X73065654Y-35451397D01*
X72697434Y-35697434D01*
X72451397Y-36065654D01*
X72365000Y-36500000D01*
X72451397Y-36934346D01*
X72697434Y-37302566D01*
X73065654Y-37548603D01*
X73500000Y-37635000D01*
X78139158Y-37635000D01*
X78065162Y-37813201D01*
X78064838Y-38185167D01*
X78206883Y-38528943D01*
X78469673Y-38792192D01*
X78813201Y-38934838D01*
X79185167Y-38935162D01*
X79310949Y-38883190D01*
X79469673Y-39042192D01*
X79813201Y-39184838D01*
X80185167Y-39185162D01*
X80528943Y-39043117D01*
X80792192Y-38780327D01*
X80821394Y-38710001D01*
X100200001Y-38710001D01*
X100490840Y-38652149D01*
X100737402Y-38487402D01*
X103489992Y-35734812D01*
X103489817Y-35935167D01*
X103631862Y-36278943D01*
X103894652Y-36542192D01*
X104238180Y-36684838D01*
X104285056Y-36684879D01*
X106057578Y-38457401D01*
X106218570Y-38564972D01*
X106064833Y-38564838D01*
X105721057Y-38706883D01*
X105687882Y-38740000D01*
X105064802Y-38740000D01*
X104185122Y-37860320D01*
X104185162Y-37814833D01*
X104043117Y-37471057D01*
X103780327Y-37207808D01*
X103436799Y-37065162D01*
X103064833Y-37064838D01*
X102721057Y-37206883D01*
X102457808Y-37469673D01*
X102315162Y-37813201D01*
X102314838Y-38185167D01*
X102456883Y-38528943D01*
X102719673Y-38792192D01*
X103063201Y-38934838D01*
X103110077Y-38934879D01*
X104212599Y-40037401D01*
X104459160Y-40202148D01*
X104750000Y-40260000D01*
X105687537Y-40260000D01*
X105719673Y-40292192D01*
X106063201Y-40434838D01*
X106435167Y-40435162D01*
X106778943Y-40293117D01*
X107042192Y-40030327D01*
X107184838Y-39686799D01*
X107185162Y-39314833D01*
X107043117Y-38971057D01*
X106780327Y-38707808D01*
X106713358Y-38680000D01*
X117055352Y-38680000D01*
X117255585Y-38979670D01*
X117570366Y-39190000D01*
X117255585Y-39400330D01*
X116930729Y-39886511D01*
X116816655Y-40460000D01*
X116930729Y-41033489D01*
X117255585Y-41519670D01*
X117565069Y-41726461D01*
X117149268Y-42097964D01*
X116895291Y-42625209D01*
X116892642Y-42640974D01*
X117013783Y-42873000D01*
X118373000Y-42873000D01*
X118373000Y-42853000D01*
X118627000Y-42853000D01*
X118627000Y-42873000D01*
X119986217Y-42873000D01*
X120107358Y-42640974D01*
X120104709Y-42625209D01*
X119850732Y-42097964D01*
X119434931Y-41726461D01*
X119744415Y-41519670D01*
X120069271Y-41033489D01*
X120164924Y-40552608D01*
X130322567Y-30394965D01*
X130477953Y-30162413D01*
X130568604Y-30026745D01*
X130655001Y-29592399D01*
X130655001Y-29457403D01*
X130938285Y-29401054D01*
X131420054Y-29079147D01*
X131640000Y-28749974D01*
X131859946Y-29079147D01*
X132341715Y-29401054D01*
X132910000Y-29514093D01*
X133478285Y-29401054D01*
X133960054Y-29079147D01*
X134187702Y-28738447D01*
X134254817Y-28881358D01*
X134683076Y-29271645D01*
X135093110Y-29441476D01*
X135323000Y-29320155D01*
X135323000Y-28127000D01*
X135577000Y-28127000D01*
X135577000Y-29320155D01*
X135806890Y-29441476D01*
X136216924Y-29271645D01*
X136645183Y-28881358D01*
X136891486Y-28356892D01*
X136770819Y-28127000D01*
X135577000Y-28127000D01*
X135323000Y-28127000D01*
X135303000Y-28127000D01*
X135303000Y-27873000D01*
X135323000Y-27873000D01*
X135323000Y-27853000D01*
X135577000Y-27853000D01*
X135577000Y-27873000D01*
X136770819Y-27873000D01*
X136891486Y-27643108D01*
X136645183Y-27118642D01*
X136216924Y-26728355D01*
X136112249Y-26685000D01*
X144980415Y-26685000D01*
X144830485Y-26746950D01*
X143750741Y-27824811D01*
X143165667Y-29233825D01*
X143164336Y-30759482D01*
X143746950Y-32169515D01*
X144824811Y-33249259D01*
X146233825Y-33834333D01*
X147759482Y-33835664D01*
X149169515Y-33253050D01*
X150249259Y-32175189D01*
X150315000Y-32016867D01*
X150315000Y-52333887D01*
X150283162Y-52164683D01*
X150144090Y-51948559D01*
X149931890Y-51803569D01*
X149680000Y-51752560D01*
X147980000Y-51752560D01*
X147744683Y-51796838D01*
X147528559Y-51935910D01*
X147383569Y-52148110D01*
X147369914Y-52215541D01*
X147340054Y-52170853D01*
X146858285Y-51848946D01*
X146290000Y-51735907D01*
X145721715Y-51848946D01*
X145239946Y-52170853D01*
X145012298Y-52511553D01*
X144945183Y-52368642D01*
X144516924Y-51978355D01*
X144106890Y-51808524D01*
X143877000Y-51929845D01*
X143877000Y-53123000D01*
X143897000Y-53123000D01*
X143897000Y-53377000D01*
X143877000Y-53377000D01*
X143877000Y-54570155D01*
X144106890Y-54691476D01*
X144516924Y-54521645D01*
X144945183Y-54131358D01*
X145012298Y-53988447D01*
X145239946Y-54329147D01*
X145721715Y-54651054D01*
X146290000Y-54764093D01*
X146858285Y-54651054D01*
X147340054Y-54329147D01*
X147367850Y-54287548D01*
X147376838Y-54335317D01*
X147515910Y-54551441D01*
X147728110Y-54696431D01*
X147980000Y-54747440D01*
X149680000Y-54747440D01*
X149915317Y-54703162D01*
X150131441Y-54564090D01*
X150276431Y-54351890D01*
X150315000Y-54161431D01*
X150315000Y-119980415D01*
X150253050Y-119830485D01*
X149175189Y-118750741D01*
X147766175Y-118165667D01*
X146240518Y-118164336D01*
X144830485Y-118746950D01*
X143750741Y-119824811D01*
X143165667Y-121233825D01*
X143164336Y-122759482D01*
X143746950Y-124169515D01*
X144824811Y-125249259D01*
X144983133Y-125315000D01*
X57019585Y-125315000D01*
X57169515Y-125253050D01*
X58249259Y-124175189D01*
X58834333Y-122766175D01*
X58834468Y-122610750D01*
X60405000Y-122610750D01*
X60405000Y-123051310D01*
X60501673Y-123284699D01*
X60680302Y-123463327D01*
X60913691Y-123560000D01*
X61354250Y-123560000D01*
X61513000Y-123401250D01*
X61513000Y-122610750D01*
X61605000Y-122610750D01*
X61605000Y-123051310D01*
X61701673Y-123284699D01*
X61767000Y-123350026D01*
X61767000Y-123401250D01*
X61925750Y-123560000D01*
X62554250Y-123560000D01*
X62713000Y-123401250D01*
X62713000Y-123350026D01*
X62778327Y-123284699D01*
X62840000Y-123135807D01*
X62901673Y-123284699D01*
X62967000Y-123350026D01*
X62967000Y-123401250D01*
X63125750Y-123560000D01*
X63754250Y-123560000D01*
X63913000Y-123401250D01*
X63913000Y-123350026D01*
X63978327Y-123284699D01*
X64040000Y-123135807D01*
X64101673Y-123284699D01*
X64167000Y-123350026D01*
X64167000Y-123401250D01*
X64325750Y-123560000D01*
X64954250Y-123560000D01*
X65113000Y-123401250D01*
X65113000Y-123350026D01*
X65178327Y-123284699D01*
X65240000Y-123135807D01*
X65301673Y-123284699D01*
X65367000Y-123350026D01*
X65367000Y-123401250D01*
X65525750Y-123560000D01*
X66154250Y-123560000D01*
X66313000Y-123401250D01*
X66313000Y-123350026D01*
X66378327Y-123284699D01*
X66440000Y-123135807D01*
X66501673Y-123284699D01*
X66567000Y-123350026D01*
X66567000Y-123401250D01*
X66725750Y-123560000D01*
X67354250Y-123560000D01*
X67513000Y-123401250D01*
X67513000Y-123350026D01*
X67578327Y-123284699D01*
X67640000Y-123135807D01*
X67701673Y-123284699D01*
X67767000Y-123350026D01*
X67767000Y-123401250D01*
X67925750Y-123560000D01*
X68554250Y-123560000D01*
X68713000Y-123401250D01*
X68713000Y-123350026D01*
X68778327Y-123284699D01*
X68840000Y-123135807D01*
X68901673Y-123284699D01*
X68967000Y-123350026D01*
X68967000Y-123401250D01*
X69125750Y-123560000D01*
X69754250Y-123560000D01*
X69913000Y-123401250D01*
X69913000Y-123350026D01*
X69978327Y-123284699D01*
X70075000Y-123051310D01*
X70075000Y-122610750D01*
X69916250Y-122452000D01*
X70167000Y-122452000D01*
X70167000Y-123401250D01*
X70325750Y-123560000D01*
X70766309Y-123560000D01*
X70999698Y-123463327D01*
X71178327Y-123284699D01*
X71275000Y-123051310D01*
X71275000Y-122610750D01*
X71116250Y-122452000D01*
X70167000Y-122452000D01*
X69916250Y-122452000D01*
X68963750Y-122452000D01*
X68840000Y-122575750D01*
X68716250Y-122452000D01*
X67763750Y-122452000D01*
X67640000Y-122575750D01*
X67516250Y-122452000D01*
X66563750Y-122452000D01*
X66440000Y-122575750D01*
X66316250Y-122452000D01*
X65363750Y-122452000D01*
X65240000Y-122575750D01*
X65116250Y-122452000D01*
X64163750Y-122452000D01*
X64040000Y-122575750D01*
X63916250Y-122452000D01*
X62963750Y-122452000D01*
X62840000Y-122575750D01*
X62716250Y-122452000D01*
X61763750Y-122452000D01*
X61605000Y-122610750D01*
X61513000Y-122610750D01*
X61513000Y-122452000D01*
X60563750Y-122452000D01*
X60405000Y-122610750D01*
X58834468Y-122610750D01*
X58835664Y-121240518D01*
X58253050Y-119830485D01*
X57175189Y-118750741D01*
X55766175Y-118165667D01*
X54240518Y-118164336D01*
X52830485Y-118746950D01*
X51750741Y-119824811D01*
X51685000Y-119983133D01*
X51685000Y-115410750D01*
X60405000Y-115410750D01*
X60405000Y-116039250D01*
X60563750Y-116198000D01*
X60614975Y-116198000D01*
X60680302Y-116263327D01*
X60829194Y-116325000D01*
X60680302Y-116386673D01*
X60614975Y-116452000D01*
X60563750Y-116452000D01*
X60405000Y-116610750D01*
X60405000Y-117239250D01*
X60563750Y-117398000D01*
X60614975Y-117398000D01*
X60680302Y-117463327D01*
X60829194Y-117525000D01*
X60680302Y-117586673D01*
X60614975Y-117652000D01*
X60563750Y-117652000D01*
X60405000Y-117810750D01*
X60405000Y-118439250D01*
X60563750Y-118598000D01*
X60614975Y-118598000D01*
X60680302Y-118663327D01*
X60829194Y-118725000D01*
X60680302Y-118786673D01*
X60614975Y-118852000D01*
X60563750Y-118852000D01*
X60405000Y-119010750D01*
X60405000Y-119639250D01*
X60563750Y-119798000D01*
X60614975Y-119798000D01*
X60680302Y-119863327D01*
X60829194Y-119925000D01*
X60680302Y-119986673D01*
X60614975Y-120052000D01*
X60563750Y-120052000D01*
X60405000Y-120210750D01*
X60405000Y-120839250D01*
X60563750Y-120998000D01*
X60614975Y-120998000D01*
X60680302Y-121063327D01*
X60829194Y-121125000D01*
X60680302Y-121186673D01*
X60614975Y-121252000D01*
X60563750Y-121252000D01*
X60405000Y-121410750D01*
X60405000Y-122039250D01*
X60563750Y-122198000D01*
X60614975Y-122198000D01*
X60680302Y-122263327D01*
X60913691Y-122360000D01*
X61354250Y-122360000D01*
X61513000Y-122201250D01*
X61513000Y-121248750D01*
X61389250Y-121125000D01*
X61513000Y-121001250D01*
X61513000Y-120048750D01*
X61389250Y-119925000D01*
X61513000Y-119801250D01*
X61513000Y-118848750D01*
X61389250Y-118725000D01*
X61513000Y-118601250D01*
X61513000Y-117648750D01*
X61389250Y-117525000D01*
X61513000Y-117401250D01*
X61513000Y-116448750D01*
X61389250Y-116325000D01*
X61513000Y-116201250D01*
X61513000Y-115410750D01*
X61605000Y-115410750D01*
X61605000Y-116039250D01*
X61763750Y-116198000D01*
X61767000Y-116198000D01*
X61767000Y-116201250D01*
X61890750Y-116325000D01*
X61767000Y-116448750D01*
X61767000Y-116452000D01*
X61763750Y-116452000D01*
X61605000Y-116610750D01*
X61605000Y-117239250D01*
X61763750Y-117398000D01*
X61767000Y-117398000D01*
X61767000Y-117401250D01*
X61890750Y-117525000D01*
X61767000Y-117648750D01*
X61767000Y-117652000D01*
X61763750Y-117652000D01*
X61605000Y-117810750D01*
X61605000Y-118439250D01*
X61763750Y-118598000D01*
X61767000Y-118598000D01*
X61767000Y-118601250D01*
X61890750Y-118725000D01*
X61767000Y-118848750D01*
X61767000Y-118852000D01*
X61763750Y-118852000D01*
X61605000Y-119010750D01*
X61605000Y-119639250D01*
X61763750Y-119798000D01*
X61767000Y-119798000D01*
X61767000Y-119801250D01*
X61890750Y-119925000D01*
X61767000Y-120048750D01*
X61767000Y-120052000D01*
X61763750Y-120052000D01*
X61605000Y-120210750D01*
X61605000Y-120839250D01*
X61763750Y-120998000D01*
X61767000Y-120998000D01*
X61767000Y-121001250D01*
X61890750Y-121125000D01*
X61767000Y-121248750D01*
X61767000Y-121252000D01*
X61763750Y-121252000D01*
X61605000Y-121410750D01*
X61605000Y-122039250D01*
X61763750Y-122198000D01*
X61767000Y-122198000D01*
X61767000Y-122201250D01*
X61925750Y-122360000D01*
X62554250Y-122360000D01*
X62713000Y-122201250D01*
X62713000Y-122198000D01*
X62716250Y-122198000D01*
X62840000Y-122074250D01*
X62963750Y-122198000D01*
X62967000Y-122198000D01*
X62967000Y-122201250D01*
X63125750Y-122360000D01*
X63754250Y-122360000D01*
X63913000Y-122201250D01*
X63913000Y-122198000D01*
X63916250Y-122198000D01*
X64040000Y-122074250D01*
X64163750Y-122198000D01*
X64167000Y-122198000D01*
X64167000Y-122201250D01*
X64325750Y-122360000D01*
X64954250Y-122360000D01*
X65113000Y-122201250D01*
X65113000Y-122198000D01*
X65116250Y-122198000D01*
X65240000Y-122074250D01*
X65363750Y-122198000D01*
X65367000Y-122198000D01*
X65367000Y-122201250D01*
X65525750Y-122360000D01*
X66154250Y-122360000D01*
X66313000Y-122201250D01*
X66313000Y-122198000D01*
X66316250Y-122198000D01*
X66440000Y-122074250D01*
X66563750Y-122198000D01*
X66567000Y-122198000D01*
X66567000Y-122201250D01*
X66725750Y-122360000D01*
X67354250Y-122360000D01*
X67513000Y-122201250D01*
X67513000Y-122198000D01*
X67516250Y-122198000D01*
X67640000Y-122074250D01*
X67763750Y-122198000D01*
X67767000Y-122198000D01*
X67767000Y-122201250D01*
X67925750Y-122360000D01*
X68554250Y-122360000D01*
X68713000Y-122201250D01*
X68713000Y-122198000D01*
X68716250Y-122198000D01*
X68840000Y-122074250D01*
X68963750Y-122198000D01*
X68967000Y-122198000D01*
X68967000Y-122201250D01*
X69125750Y-122360000D01*
X69754250Y-122360000D01*
X69913000Y-122201250D01*
X69913000Y-122198000D01*
X69916250Y-122198000D01*
X70075000Y-122039250D01*
X70075000Y-121410750D01*
X69916250Y-121252000D01*
X69913000Y-121252000D01*
X69913000Y-121248750D01*
X69789250Y-121125000D01*
X69913000Y-121001250D01*
X69913000Y-120998000D01*
X69916250Y-120998000D01*
X70075000Y-120839250D01*
X70075000Y-120210750D01*
X69916250Y-120052000D01*
X69913000Y-120052000D01*
X69913000Y-120048750D01*
X69789250Y-119925000D01*
X69913000Y-119801250D01*
X69913000Y-119798000D01*
X69916250Y-119798000D01*
X70075000Y-119639250D01*
X70075000Y-119010750D01*
X69916250Y-118852000D01*
X69913000Y-118852000D01*
X69913000Y-118848750D01*
X69789250Y-118725000D01*
X69913000Y-118601250D01*
X69913000Y-118598000D01*
X69916250Y-118598000D01*
X70075000Y-118439250D01*
X70075000Y-117810750D01*
X69916250Y-117652000D01*
X69913000Y-117652000D01*
X69913000Y-117648750D01*
X69789250Y-117525000D01*
X69913000Y-117401250D01*
X69913000Y-117398000D01*
X69916250Y-117398000D01*
X70075000Y-117239250D01*
X70075000Y-116610750D01*
X69916250Y-116452000D01*
X69913000Y-116452000D01*
X69913000Y-116448750D01*
X69789250Y-116325000D01*
X69913000Y-116201250D01*
X69913000Y-116198000D01*
X69916250Y-116198000D01*
X70075000Y-116039250D01*
X70075000Y-115410750D01*
X69916250Y-115252000D01*
X69913000Y-115252000D01*
X69913000Y-115248750D01*
X70167000Y-115248750D01*
X70167000Y-116201250D01*
X70290750Y-116325000D01*
X70167000Y-116448750D01*
X70167000Y-117401250D01*
X70290750Y-117525000D01*
X70167000Y-117648750D01*
X70167000Y-118601250D01*
X70290750Y-118725000D01*
X70167000Y-118848750D01*
X70167000Y-119801250D01*
X70290750Y-119925000D01*
X70167000Y-120048750D01*
X70167000Y-121001250D01*
X70290750Y-121125000D01*
X70167000Y-121248750D01*
X70167000Y-122201250D01*
X70325750Y-122360000D01*
X70766309Y-122360000D01*
X70999698Y-122263327D01*
X71065025Y-122198000D01*
X71116250Y-122198000D01*
X71275000Y-122039250D01*
X71275000Y-121410750D01*
X71116250Y-121252000D01*
X71065025Y-121252000D01*
X70999698Y-121186673D01*
X70850806Y-121125000D01*
X70999698Y-121063327D01*
X71065025Y-120998000D01*
X71116250Y-120998000D01*
X71275000Y-120839250D01*
X71275000Y-120250000D01*
X73322560Y-120250000D01*
X73322560Y-121950000D01*
X73366838Y-122185317D01*
X73505910Y-122401441D01*
X73718110Y-122546431D01*
X73970000Y-122597440D01*
X75670000Y-122597440D01*
X75905317Y-122553162D01*
X76121441Y-122414090D01*
X76266431Y-122201890D01*
X76280086Y-122134459D01*
X76309946Y-122179147D01*
X76791715Y-122501054D01*
X77360000Y-122614093D01*
X77928285Y-122501054D01*
X78410054Y-122179147D01*
X78637702Y-121838447D01*
X78704817Y-121981358D01*
X79133076Y-122371645D01*
X79543110Y-122541476D01*
X79773000Y-122420155D01*
X79773000Y-121227000D01*
X80027000Y-121227000D01*
X80027000Y-122420155D01*
X80256890Y-122541476D01*
X80666924Y-122371645D01*
X81095183Y-121981358D01*
X81341486Y-121456892D01*
X81220819Y-121227000D01*
X80027000Y-121227000D01*
X79773000Y-121227000D01*
X79753000Y-121227000D01*
X79753000Y-120973000D01*
X79773000Y-120973000D01*
X79773000Y-119779845D01*
X80027000Y-119779845D01*
X80027000Y-120973000D01*
X81220819Y-120973000D01*
X81341486Y-120743108D01*
X81095183Y-120218642D01*
X80666924Y-119828355D01*
X80256890Y-119658524D01*
X80027000Y-119779845D01*
X79773000Y-119779845D01*
X79543110Y-119658524D01*
X79133076Y-119828355D01*
X78704817Y-120218642D01*
X78637702Y-120361553D01*
X78410054Y-120020853D01*
X77928285Y-119698946D01*
X77360000Y-119585907D01*
X76791715Y-119698946D01*
X76309946Y-120020853D01*
X76282150Y-120062452D01*
X76273162Y-120014683D01*
X76134090Y-119798559D01*
X75921890Y-119653569D01*
X75670000Y-119602560D01*
X73970000Y-119602560D01*
X73734683Y-119646838D01*
X73518559Y-119785910D01*
X73373569Y-119998110D01*
X73322560Y-120250000D01*
X71275000Y-120250000D01*
X71275000Y-120210750D01*
X71116250Y-120052000D01*
X71065025Y-120052000D01*
X70999698Y-119986673D01*
X70850806Y-119925000D01*
X70999698Y-119863327D01*
X71065025Y-119798000D01*
X71116250Y-119798000D01*
X71275000Y-119639250D01*
X71275000Y-119010750D01*
X71116250Y-118852000D01*
X71065025Y-118852000D01*
X70999698Y-118786673D01*
X70850806Y-118725000D01*
X70999698Y-118663327D01*
X71065025Y-118598000D01*
X71116250Y-118598000D01*
X71275000Y-118439250D01*
X71275000Y-117810750D01*
X71116250Y-117652000D01*
X71065025Y-117652000D01*
X70999698Y-117586673D01*
X70850806Y-117525000D01*
X70999698Y-117463327D01*
X71065025Y-117398000D01*
X71116250Y-117398000D01*
X71275000Y-117239250D01*
X71275000Y-116610750D01*
X71116250Y-116452000D01*
X71065025Y-116452000D01*
X70999698Y-116386673D01*
X70850806Y-116325000D01*
X70999698Y-116263327D01*
X71065025Y-116198000D01*
X71116250Y-116198000D01*
X71196641Y-116117609D01*
X89356538Y-116117609D01*
X89371714Y-116209376D01*
X89618067Y-116629125D01*
X90006299Y-116922647D01*
X90477304Y-117045256D01*
X90673000Y-116882547D01*
X90673000Y-115927000D01*
X90927000Y-115927000D01*
X90927000Y-116882547D01*
X91122696Y-117045256D01*
X91593701Y-116922647D01*
X91981933Y-116629125D01*
X92228286Y-116209376D01*
X92243462Y-116117609D01*
X92118731Y-115927000D01*
X90927000Y-115927000D01*
X90673000Y-115927000D01*
X89481269Y-115927000D01*
X89356538Y-116117609D01*
X71196641Y-116117609D01*
X71275000Y-116039250D01*
X71275000Y-115410750D01*
X71116250Y-115252000D01*
X71065025Y-115252000D01*
X70999698Y-115186673D01*
X70766309Y-115090000D01*
X70325750Y-115090000D01*
X70167000Y-115248750D01*
X69913000Y-115248750D01*
X69754250Y-115090000D01*
X69125750Y-115090000D01*
X68967000Y-115248750D01*
X68967000Y-115252000D01*
X68963750Y-115252000D01*
X68840000Y-115375750D01*
X68716250Y-115252000D01*
X68713000Y-115252000D01*
X68713000Y-115248750D01*
X68554250Y-115090000D01*
X67925750Y-115090000D01*
X67767000Y-115248750D01*
X67767000Y-115252000D01*
X67763750Y-115252000D01*
X67640000Y-115375750D01*
X67516250Y-115252000D01*
X67513000Y-115252000D01*
X67513000Y-115248750D01*
X67354250Y-115090000D01*
X66725750Y-115090000D01*
X66567000Y-115248750D01*
X66567000Y-115252000D01*
X66563750Y-115252000D01*
X66440000Y-115375750D01*
X66316250Y-115252000D01*
X66313000Y-115252000D01*
X66313000Y-115248750D01*
X66154250Y-115090000D01*
X65525750Y-115090000D01*
X65367000Y-115248750D01*
X65367000Y-115252000D01*
X65363750Y-115252000D01*
X65240000Y-115375750D01*
X65116250Y-115252000D01*
X65113000Y-115252000D01*
X65113000Y-115248750D01*
X64954250Y-115090000D01*
X64325750Y-115090000D01*
X64167000Y-115248750D01*
X64167000Y-115252000D01*
X64163750Y-115252000D01*
X64040000Y-115375750D01*
X63916250Y-115252000D01*
X63913000Y-115252000D01*
X63913000Y-115248750D01*
X63754250Y-115090000D01*
X63125750Y-115090000D01*
X62967000Y-115248750D01*
X62967000Y-115252000D01*
X62963750Y-115252000D01*
X62840000Y-115375750D01*
X62716250Y-115252000D01*
X62713000Y-115252000D01*
X62713000Y-115248750D01*
X62554250Y-115090000D01*
X61925750Y-115090000D01*
X61767000Y-115248750D01*
X61767000Y-115252000D01*
X61763750Y-115252000D01*
X61605000Y-115410750D01*
X61513000Y-115410750D01*
X61513000Y-115248750D01*
X61354250Y-115090000D01*
X60913691Y-115090000D01*
X60680302Y-115186673D01*
X60614975Y-115252000D01*
X60563750Y-115252000D01*
X60405000Y-115410750D01*
X51685000Y-115410750D01*
X51685000Y-114398690D01*
X60405000Y-114398690D01*
X60405000Y-114839250D01*
X60563750Y-114998000D01*
X61513000Y-114998000D01*
X61513000Y-114398690D01*
X61605000Y-114398690D01*
X61605000Y-114839250D01*
X61763750Y-114998000D01*
X62716250Y-114998000D01*
X62840000Y-114874250D01*
X62963750Y-114998000D01*
X63916250Y-114998000D01*
X64040000Y-114874250D01*
X64163750Y-114998000D01*
X65116250Y-114998000D01*
X65240000Y-114874250D01*
X65363750Y-114998000D01*
X66316250Y-114998000D01*
X66440000Y-114874250D01*
X66563750Y-114998000D01*
X67516250Y-114998000D01*
X67640000Y-114874250D01*
X67763750Y-114998000D01*
X68716250Y-114998000D01*
X68840000Y-114874250D01*
X68963750Y-114998000D01*
X69916250Y-114998000D01*
X70075000Y-114839250D01*
X70075000Y-114398690D01*
X69978327Y-114165301D01*
X69913000Y-114099974D01*
X69913000Y-114048750D01*
X70167000Y-114048750D01*
X70167000Y-114998000D01*
X71116250Y-114998000D01*
X71275000Y-114839250D01*
X71275000Y-114398690D01*
X71178327Y-114165301D01*
X70999698Y-113986673D01*
X70766309Y-113890000D01*
X70325750Y-113890000D01*
X70167000Y-114048750D01*
X69913000Y-114048750D01*
X69754250Y-113890000D01*
X69125750Y-113890000D01*
X68967000Y-114048750D01*
X68967000Y-114099974D01*
X68901673Y-114165301D01*
X68840000Y-114314193D01*
X68778327Y-114165301D01*
X68713000Y-114099974D01*
X68713000Y-114048750D01*
X68554250Y-113890000D01*
X67925750Y-113890000D01*
X67767000Y-114048750D01*
X67767000Y-114099974D01*
X67701673Y-114165301D01*
X67640000Y-114314193D01*
X67578327Y-114165301D01*
X67513000Y-114099974D01*
X67513000Y-114048750D01*
X67354250Y-113890000D01*
X66725750Y-113890000D01*
X66567000Y-114048750D01*
X66567000Y-114099974D01*
X66501673Y-114165301D01*
X66440000Y-114314193D01*
X66378327Y-114165301D01*
X66313000Y-114099974D01*
X66313000Y-114048750D01*
X66154250Y-113890000D01*
X65525750Y-113890000D01*
X65367000Y-114048750D01*
X65367000Y-114099974D01*
X65301673Y-114165301D01*
X65240000Y-114314193D01*
X65178327Y-114165301D01*
X65113000Y-114099974D01*
X65113000Y-114048750D01*
X64954250Y-113890000D01*
X64325750Y-113890000D01*
X64167000Y-114048750D01*
X64167000Y-114099974D01*
X64101673Y-114165301D01*
X64040000Y-114314193D01*
X63978327Y-114165301D01*
X63913000Y-114099974D01*
X63913000Y-114048750D01*
X63754250Y-113890000D01*
X63125750Y-113890000D01*
X62967000Y-114048750D01*
X62967000Y-114099974D01*
X62901673Y-114165301D01*
X62840000Y-114314193D01*
X62778327Y-114165301D01*
X62713000Y-114099974D01*
X62713000Y-114048750D01*
X62554250Y-113890000D01*
X61925750Y-113890000D01*
X61767000Y-114048750D01*
X61767000Y-114099974D01*
X61701673Y-114165301D01*
X61605000Y-114398690D01*
X61513000Y-114398690D01*
X61513000Y-114048750D01*
X61354250Y-113890000D01*
X60913691Y-113890000D01*
X60680302Y-113986673D01*
X60501673Y-114165301D01*
X60405000Y-114398690D01*
X51685000Y-114398690D01*
X51685000Y-113200000D01*
X89302560Y-113200000D01*
X89302560Y-114400000D01*
X89346838Y-114635317D01*
X89485910Y-114851441D01*
X89638309Y-114955571D01*
X89618067Y-114970875D01*
X89371714Y-115390624D01*
X89356538Y-115482391D01*
X89481269Y-115673000D01*
X90673000Y-115673000D01*
X90673000Y-115653000D01*
X90927000Y-115653000D01*
X90927000Y-115673000D01*
X92118731Y-115673000D01*
X92243462Y-115482391D01*
X92228286Y-115390624D01*
X91981933Y-114970875D01*
X91960580Y-114954731D01*
X92101441Y-114864090D01*
X92246431Y-114651890D01*
X92297440Y-114400000D01*
X92297440Y-113200000D01*
X92253162Y-112964683D01*
X92114090Y-112748559D01*
X91901890Y-112603569D01*
X91650000Y-112552560D01*
X89950000Y-112552560D01*
X89714683Y-112596838D01*
X89498559Y-112735910D01*
X89353569Y-112948110D01*
X89302560Y-113200000D01*
X51685000Y-113200000D01*
X51685000Y-101875000D01*
X52365000Y-101875000D01*
X52451397Y-102309345D01*
X52697434Y-102677566D01*
X53065655Y-102923603D01*
X53500000Y-103010000D01*
X53877049Y-102935000D01*
X71660982Y-102935000D01*
X71735910Y-103051441D01*
X71948110Y-103196431D01*
X72200000Y-103247440D01*
X73800000Y-103247440D01*
X74035317Y-103203162D01*
X74251441Y-103064090D01*
X74396431Y-102851890D01*
X74405370Y-102807745D01*
X75671861Y-102807745D01*
X75745995Y-103053864D01*
X76283223Y-103246965D01*
X76853454Y-103219778D01*
X77254005Y-103053864D01*
X77328139Y-102807745D01*
X76500000Y-101979605D01*
X75671861Y-102807745D01*
X74405370Y-102807745D01*
X74447440Y-102600000D01*
X74447440Y-101583223D01*
X75053035Y-101583223D01*
X75080222Y-102153454D01*
X75246136Y-102554005D01*
X75492255Y-102628139D01*
X76320395Y-101800000D01*
X76679605Y-101800000D01*
X77507745Y-102628139D01*
X77753864Y-102554005D01*
X77946965Y-102016777D01*
X77919778Y-101446546D01*
X77753864Y-101045995D01*
X77507745Y-100971861D01*
X76679605Y-101800000D01*
X76320395Y-101800000D01*
X75492255Y-100971861D01*
X75246136Y-101045995D01*
X75053035Y-101583223D01*
X74447440Y-101583223D01*
X74447440Y-101000000D01*
X74408351Y-100792255D01*
X75671861Y-100792255D01*
X76500000Y-101620395D01*
X77328139Y-100792255D01*
X77254005Y-100546136D01*
X76716777Y-100353035D01*
X76146546Y-100380222D01*
X75745995Y-100546136D01*
X75671861Y-100792255D01*
X74408351Y-100792255D01*
X74403162Y-100764683D01*
X74264090Y-100548559D01*
X74051890Y-100403569D01*
X73800000Y-100352560D01*
X72200000Y-100352560D01*
X71964683Y-100396838D01*
X71748559Y-100535910D01*
X71660356Y-100665000D01*
X53575000Y-100665000D01*
X53140654Y-100751397D01*
X52858148Y-100940162D01*
X52772434Y-100997434D01*
X52697434Y-101072434D01*
X52451397Y-101440655D01*
X52365000Y-101875000D01*
X51685000Y-101875000D01*
X51685000Y-82185167D01*
X63064838Y-82185167D01*
X63206883Y-82528943D01*
X63469673Y-82792192D01*
X63813201Y-82934838D01*
X64110295Y-82935097D01*
X95814878Y-114639680D01*
X95814838Y-114685167D01*
X95956883Y-115028943D01*
X96219673Y-115292192D01*
X96563201Y-115434838D01*
X96935167Y-115435162D01*
X97278943Y-115293117D01*
X97542192Y-115030327D01*
X97684838Y-114686799D01*
X97685162Y-114314833D01*
X97543117Y-113971057D01*
X97280327Y-113707808D01*
X96936799Y-113565162D01*
X96889923Y-113565121D01*
X90009969Y-106685167D01*
X111564838Y-106685167D01*
X111706883Y-107028943D01*
X111969673Y-107292192D01*
X112313201Y-107434838D01*
X112685167Y-107435162D01*
X113028943Y-107293117D01*
X113280459Y-107042039D01*
X113287401Y-107037401D01*
X130889680Y-89435122D01*
X130935167Y-89435162D01*
X131278943Y-89293117D01*
X131542192Y-89030327D01*
X131684838Y-88686799D01*
X131685162Y-88314833D01*
X131543117Y-87971057D01*
X131280327Y-87707808D01*
X130936799Y-87565162D01*
X130564833Y-87564838D01*
X130221057Y-87706883D01*
X129957808Y-87969673D01*
X129815162Y-88313201D01*
X129815121Y-88360077D01*
X112610103Y-105565095D01*
X112314833Y-105564838D01*
X111971057Y-105706883D01*
X111707808Y-105969673D01*
X111565162Y-106313201D01*
X111564838Y-106685167D01*
X90009969Y-106685167D01*
X64787401Y-81462599D01*
X64779211Y-81457126D01*
X64530327Y-81207808D01*
X64186799Y-81065162D01*
X63814833Y-81064838D01*
X63471057Y-81206883D01*
X63207808Y-81469673D01*
X63065162Y-81813201D01*
X63064838Y-82185167D01*
X51685000Y-82185167D01*
X51685000Y-68356890D01*
X57558524Y-68356890D01*
X57728355Y-68766924D01*
X58118642Y-69195183D01*
X58643108Y-69441486D01*
X58873000Y-69320819D01*
X58873000Y-68127000D01*
X57679845Y-68127000D01*
X57558524Y-68356890D01*
X51685000Y-68356890D01*
X51685000Y-65460000D01*
X57485907Y-65460000D01*
X57598946Y-66028285D01*
X57920853Y-66510054D01*
X58261553Y-66737702D01*
X58118642Y-66804817D01*
X57728355Y-67233076D01*
X57558524Y-67643110D01*
X57679845Y-67873000D01*
X58873000Y-67873000D01*
X58873000Y-67853000D01*
X59127000Y-67853000D01*
X59127000Y-67873000D01*
X59147000Y-67873000D01*
X59147000Y-68127000D01*
X59127000Y-68127000D01*
X59127000Y-69320819D01*
X59356892Y-69441486D01*
X59881358Y-69195183D01*
X60115000Y-68938809D01*
X60115000Y-70250000D01*
X60201397Y-70684346D01*
X60447434Y-71052566D01*
X60815654Y-71298603D01*
X61250000Y-71385000D01*
X61684346Y-71298603D01*
X62052566Y-71052566D01*
X62298603Y-70684346D01*
X62385000Y-70250000D01*
X62385000Y-65170000D01*
X62353174Y-65010000D01*
X62298604Y-64735655D01*
X62052567Y-64367434D01*
X60497440Y-62812308D01*
X60497440Y-62070000D01*
X60453162Y-61834683D01*
X60314090Y-61618559D01*
X60101890Y-61473569D01*
X59850000Y-61422560D01*
X58150000Y-61422560D01*
X57914683Y-61466838D01*
X57698559Y-61605910D01*
X57553569Y-61818110D01*
X57502560Y-62070000D01*
X57502560Y-63770000D01*
X57546838Y-64005317D01*
X57685910Y-64221441D01*
X57898110Y-64366431D01*
X57965541Y-64380086D01*
X57920853Y-64409946D01*
X57598946Y-64891715D01*
X57485907Y-65460000D01*
X51685000Y-65460000D01*
X51685000Y-39000000D01*
X52115000Y-39000000D01*
X52140473Y-39128061D01*
X52140473Y-46025473D01*
X52226870Y-46459819D01*
X52365000Y-46666545D01*
X52365000Y-49910002D01*
X52451397Y-50344348D01*
X52587374Y-50547852D01*
X52697434Y-50712568D01*
X61687433Y-59702568D01*
X62055654Y-59948605D01*
X62489999Y-60035001D01*
X73599999Y-60035001D01*
X74034345Y-59948604D01*
X74402565Y-59702567D01*
X75521064Y-58584068D01*
X75685317Y-58553162D01*
X75901441Y-58414090D01*
X76046431Y-58201890D01*
X76097440Y-57950000D01*
X76097440Y-57688826D01*
X76135000Y-57500000D01*
X76135000Y-57350000D01*
X76097440Y-57161174D01*
X76097440Y-56750000D01*
X76053162Y-56514683D01*
X75914090Y-56298559D01*
X75844289Y-56250866D01*
X75901441Y-56214090D01*
X76046431Y-56001890D01*
X76097440Y-55750000D01*
X76097440Y-54550000D01*
X76053162Y-54314683D01*
X75914090Y-54098559D01*
X75760000Y-53993274D01*
X75760000Y-50647440D01*
X78005000Y-50647440D01*
X78240317Y-50603162D01*
X78456441Y-50464090D01*
X78601431Y-50251890D01*
X78652440Y-50000000D01*
X78652440Y-49000000D01*
X78625514Y-48856903D01*
X78813201Y-48934838D01*
X78860077Y-48934879D01*
X94490000Y-64564802D01*
X94490000Y-72937537D01*
X94457808Y-72969673D01*
X94315162Y-73313201D01*
X94314838Y-73685167D01*
X94456883Y-74028943D01*
X94719673Y-74292192D01*
X95063201Y-74434838D01*
X95435167Y-74435162D01*
X95778943Y-74293117D01*
X96042192Y-74030327D01*
X96184838Y-73686799D01*
X96185162Y-73314833D01*
X96043117Y-72971057D01*
X96010000Y-72937882D01*
X96010000Y-64250000D01*
X95977784Y-64088039D01*
X95952148Y-63959160D01*
X95787401Y-63712599D01*
X88509969Y-56435167D01*
X97314838Y-56435167D01*
X97456883Y-56778943D01*
X97490000Y-56812118D01*
X97490000Y-72437537D01*
X97457808Y-72469673D01*
X97315162Y-72813201D01*
X97314838Y-73185167D01*
X97456883Y-73528943D01*
X97719673Y-73792192D01*
X98063201Y-73934838D01*
X98435167Y-73935162D01*
X98778943Y-73793117D01*
X99042192Y-73530327D01*
X99184838Y-73186799D01*
X99185162Y-72814833D01*
X99043117Y-72471057D01*
X99010000Y-72437882D01*
X99010000Y-56812463D01*
X99042192Y-56780327D01*
X99184838Y-56436799D01*
X99185162Y-56064833D01*
X99043117Y-55721057D01*
X99007290Y-55685167D01*
X102564838Y-55685167D01*
X102706883Y-56028943D01*
X102969673Y-56292192D01*
X103313201Y-56434838D01*
X103360077Y-56434879D01*
X105212599Y-58287401D01*
X105459161Y-58452148D01*
X105750000Y-58510000D01*
X107437537Y-58510000D01*
X107469673Y-58542192D01*
X107813201Y-58684838D01*
X108185167Y-58685162D01*
X108528943Y-58543117D01*
X108792192Y-58280327D01*
X108934838Y-57936799D01*
X108935162Y-57564833D01*
X108793117Y-57221057D01*
X108530327Y-56957808D01*
X108186799Y-56815162D01*
X107814833Y-56814838D01*
X107471057Y-56956883D01*
X107437882Y-56990000D01*
X106064802Y-56990000D01*
X104435122Y-55360320D01*
X104435162Y-55314833D01*
X104293117Y-54971057D01*
X104030327Y-54707808D01*
X103686799Y-54565162D01*
X103314833Y-54564838D01*
X102971057Y-54706883D01*
X102707808Y-54969673D01*
X102565162Y-55313201D01*
X102564838Y-55685167D01*
X99007290Y-55685167D01*
X98780327Y-55457808D01*
X98436799Y-55315162D01*
X98064833Y-55314838D01*
X97721057Y-55456883D01*
X97457808Y-55719673D01*
X97315162Y-56063201D01*
X97314838Y-56435167D01*
X88509969Y-56435167D01*
X79935122Y-47860320D01*
X79935162Y-47814833D01*
X79793117Y-47471057D01*
X79530327Y-47207808D01*
X79186799Y-47065162D01*
X78814833Y-47064838D01*
X78471057Y-47206883D01*
X78207808Y-47469673D01*
X78065162Y-47813201D01*
X78064838Y-48185167D01*
X78145783Y-48381069D01*
X78005000Y-48352560D01*
X75255000Y-48352560D01*
X75019683Y-48396838D01*
X74803559Y-48535910D01*
X74706930Y-48677331D01*
X74436799Y-48565162D01*
X74064833Y-48564838D01*
X73721057Y-48706883D01*
X73687882Y-48740000D01*
X72832279Y-48740000D01*
X72709090Y-48548559D01*
X72496890Y-48403569D01*
X72405194Y-48385000D01*
X73500000Y-48385000D01*
X73934346Y-48298603D01*
X74302566Y-48052566D01*
X74548603Y-47684346D01*
X74635000Y-47250000D01*
X74572376Y-46935167D01*
X80314838Y-46935167D01*
X80456883Y-47278943D01*
X80719673Y-47542192D01*
X81063201Y-47684838D01*
X81435167Y-47685162D01*
X81778943Y-47543117D01*
X82042192Y-47280327D01*
X82184838Y-46936799D01*
X82184879Y-46889923D01*
X82389635Y-46685167D01*
X102564838Y-46685167D01*
X102706883Y-47028943D01*
X102969673Y-47292192D01*
X103313201Y-47434838D01*
X103360077Y-47434879D01*
X106240189Y-50314991D01*
X106064833Y-50314838D01*
X105721057Y-50456883D01*
X105457808Y-50719673D01*
X105315162Y-51063201D01*
X105314838Y-51435167D01*
X105456883Y-51778943D01*
X105719673Y-52042192D01*
X106063201Y-52184838D01*
X106435167Y-52185162D01*
X106778943Y-52043117D01*
X106812118Y-52010000D01*
X115935198Y-52010000D01*
X136064878Y-72139680D01*
X136064838Y-72185167D01*
X136206883Y-72528943D01*
X136469673Y-72792192D01*
X136813201Y-72934838D01*
X137185167Y-72935162D01*
X137528943Y-72793117D01*
X137792192Y-72530327D01*
X137934838Y-72186799D01*
X137935162Y-71814833D01*
X137793117Y-71471057D01*
X137530327Y-71207808D01*
X137186799Y-71065162D01*
X137139923Y-71065121D01*
X116787401Y-50712599D01*
X116540839Y-50547852D01*
X116250000Y-50490000D01*
X113308937Y-50490000D01*
X113434838Y-50186799D01*
X113435162Y-49814833D01*
X113293117Y-49471057D01*
X113030327Y-49207808D01*
X112686799Y-49065162D01*
X112314833Y-49064838D01*
X111971057Y-49206883D01*
X111937882Y-49240000D01*
X107314802Y-49240000D01*
X104435122Y-46360320D01*
X104435162Y-46314833D01*
X104293117Y-45971057D01*
X104030327Y-45707808D01*
X103686799Y-45565162D01*
X103314833Y-45564838D01*
X102971057Y-45706883D01*
X102707808Y-45969673D01*
X102565162Y-46313201D01*
X102564838Y-46685167D01*
X82389635Y-46685167D01*
X83564802Y-45510000D01*
X112185198Y-45510000D01*
X113212599Y-46537401D01*
X113459161Y-46702148D01*
X113750000Y-46760000D01*
X123435198Y-46760000D01*
X129612600Y-52937402D01*
X129620361Y-52942588D01*
X129565000Y-53220907D01*
X129565000Y-53279093D01*
X129678039Y-53847378D01*
X129999946Y-54329147D01*
X130481715Y-54651054D01*
X131050000Y-54764093D01*
X131618285Y-54651054D01*
X132100054Y-54329147D01*
X132320000Y-53999974D01*
X132539946Y-54329147D01*
X133021715Y-54651054D01*
X133590000Y-54764093D01*
X134158285Y-54651054D01*
X134640054Y-54329147D01*
X134860000Y-53999974D01*
X135079946Y-54329147D01*
X135561715Y-54651054D01*
X136130000Y-54764093D01*
X136698285Y-54651054D01*
X137180054Y-54329147D01*
X137400000Y-53999974D01*
X137619946Y-54329147D01*
X138101715Y-54651054D01*
X138670000Y-54764093D01*
X139238285Y-54651054D01*
X139720054Y-54329147D01*
X139940000Y-53999974D01*
X140159946Y-54329147D01*
X140641715Y-54651054D01*
X141210000Y-54764093D01*
X141778285Y-54651054D01*
X142260054Y-54329147D01*
X142487702Y-53988447D01*
X142554817Y-54131358D01*
X142983076Y-54521645D01*
X143393110Y-54691476D01*
X143623000Y-54570155D01*
X143623000Y-53377000D01*
X143603000Y-53377000D01*
X143603000Y-53123000D01*
X143623000Y-53123000D01*
X143623000Y-51929845D01*
X143393110Y-51808524D01*
X142983076Y-51978355D01*
X142554817Y-52368642D01*
X142487702Y-52511553D01*
X142260054Y-52170853D01*
X141778285Y-51848946D01*
X141210000Y-51735907D01*
X140843592Y-51808790D01*
X132997401Y-43962599D01*
X132750839Y-43797852D01*
X132460000Y-43740000D01*
X119928786Y-43740000D01*
X120104709Y-43374791D01*
X120107358Y-43359026D01*
X119986217Y-43127000D01*
X118627000Y-43127000D01*
X118627000Y-43147000D01*
X118373000Y-43147000D01*
X118373000Y-43127000D01*
X117013783Y-43127000D01*
X116892642Y-43359026D01*
X116895291Y-43374791D01*
X117071214Y-43740000D01*
X114701212Y-43740000D01*
X113173811Y-42212599D01*
X112927249Y-42047852D01*
X112636410Y-41990000D01*
X89562463Y-41990000D01*
X89530327Y-41957808D01*
X89186799Y-41815162D01*
X88814833Y-41814838D01*
X88471057Y-41956883D01*
X88207808Y-42219673D01*
X88065162Y-42563201D01*
X88065052Y-42690046D01*
X87814833Y-42689828D01*
X87471057Y-42831873D01*
X87207808Y-43094663D01*
X87065162Y-43438191D01*
X87065117Y-43490000D01*
X82866102Y-43490000D01*
X82575263Y-43547852D01*
X82328701Y-43712599D01*
X81543371Y-44497929D01*
X81497884Y-44497889D01*
X81154108Y-44639934D01*
X80890859Y-44902724D01*
X80748213Y-45246252D01*
X80747889Y-45618218D01*
X80863503Y-45898026D01*
X80721057Y-45956883D01*
X80457808Y-46219673D01*
X80315162Y-46563201D01*
X80314838Y-46935167D01*
X74572376Y-46935167D01*
X74548603Y-46815654D01*
X74302566Y-46447434D01*
X73934346Y-46201397D01*
X73500000Y-46115000D01*
X72880000Y-46115000D01*
X72880000Y-45785750D01*
X74620000Y-45785750D01*
X74620000Y-46126310D01*
X74716673Y-46359699D01*
X74895302Y-46538327D01*
X75128691Y-46635000D01*
X76344250Y-46635000D01*
X76503000Y-46476250D01*
X76503000Y-45627000D01*
X76757000Y-45627000D01*
X76757000Y-46476250D01*
X76915750Y-46635000D01*
X78131309Y-46635000D01*
X78364698Y-46538327D01*
X78543327Y-46359699D01*
X78640000Y-46126310D01*
X78640000Y-45785750D01*
X78481250Y-45627000D01*
X76757000Y-45627000D01*
X76503000Y-45627000D01*
X74778750Y-45627000D01*
X74620000Y-45785750D01*
X72880000Y-45785750D01*
X72721250Y-45627000D01*
X70997000Y-45627000D01*
X70997000Y-45647000D01*
X70743000Y-45647000D01*
X70743000Y-45627000D01*
X69018750Y-45627000D01*
X68860000Y-45785750D01*
X68860000Y-46126310D01*
X68956673Y-46359699D01*
X69113420Y-46516446D01*
X67992433Y-47637433D01*
X67746396Y-48005653D01*
X67659999Y-48439999D01*
X67659999Y-54165000D01*
X66511431Y-54165000D01*
X66450000Y-54152560D01*
X65550000Y-54152560D01*
X65314683Y-54196838D01*
X65098559Y-54335910D01*
X64953569Y-54548110D01*
X64902560Y-54800000D01*
X64902560Y-55211174D01*
X64865000Y-55400000D01*
X64902560Y-55588826D01*
X64902560Y-56000000D01*
X64946838Y-56235317D01*
X65085910Y-56451441D01*
X65155711Y-56499134D01*
X65098559Y-56535910D01*
X64953569Y-56748110D01*
X64934961Y-56840000D01*
X64567334Y-56840000D01*
X64553162Y-56764683D01*
X64414090Y-56548559D01*
X64344289Y-56500866D01*
X64401441Y-56464090D01*
X64546431Y-56251890D01*
X64597440Y-56000000D01*
X64597440Y-54800000D01*
X64553162Y-54564683D01*
X64414090Y-54348559D01*
X64377929Y-54323851D01*
X64434838Y-54186799D01*
X64435162Y-53814833D01*
X64293117Y-53471057D01*
X64030327Y-53207808D01*
X63686799Y-53065162D01*
X63314833Y-53064838D01*
X62971057Y-53206883D01*
X62707808Y-53469673D01*
X62565162Y-53813201D01*
X62564838Y-54185167D01*
X62621124Y-54321390D01*
X62598559Y-54335910D01*
X62453569Y-54548110D01*
X62402560Y-54800000D01*
X62402560Y-56000000D01*
X62446838Y-56235317D01*
X62585910Y-56451441D01*
X62655711Y-56499134D01*
X62598559Y-56535910D01*
X62453569Y-56748110D01*
X62402560Y-57000000D01*
X62402560Y-57207429D01*
X54635000Y-49439870D01*
X54635000Y-47464802D01*
X57207599Y-50037401D01*
X57375737Y-50149747D01*
X57391838Y-50235317D01*
X57530910Y-50451441D01*
X57743110Y-50596431D01*
X57995000Y-50647440D01*
X60745000Y-50647440D01*
X60980317Y-50603162D01*
X61196441Y-50464090D01*
X61335890Y-50260000D01*
X63167721Y-50260000D01*
X63290910Y-50451441D01*
X63503110Y-50596431D01*
X63755000Y-50647440D01*
X66505000Y-50647440D01*
X66740317Y-50603162D01*
X66956441Y-50464090D01*
X67101431Y-50251890D01*
X67152440Y-50000000D01*
X67152440Y-49000000D01*
X67108162Y-48764683D01*
X66969090Y-48548559D01*
X66756890Y-48403569D01*
X66505000Y-48352560D01*
X63755000Y-48352560D01*
X63519683Y-48396838D01*
X63303559Y-48535910D01*
X63164110Y-48740000D01*
X61332279Y-48740000D01*
X61209090Y-48548559D01*
X60996890Y-48403569D01*
X60745000Y-48352560D01*
X57995000Y-48352560D01*
X57759683Y-48396838D01*
X57733493Y-48413691D01*
X55260000Y-45940198D01*
X55260000Y-45785750D01*
X57360000Y-45785750D01*
X57360000Y-46126310D01*
X57456673Y-46359699D01*
X57635302Y-46538327D01*
X57868691Y-46635000D01*
X59084250Y-46635000D01*
X59243000Y-46476250D01*
X59243000Y-45627000D01*
X59497000Y-45627000D01*
X59497000Y-46476250D01*
X59655750Y-46635000D01*
X60871309Y-46635000D01*
X61104698Y-46538327D01*
X61283327Y-46359699D01*
X61380000Y-46126310D01*
X61380000Y-45785750D01*
X63120000Y-45785750D01*
X63120000Y-46126310D01*
X63216673Y-46359699D01*
X63395302Y-46538327D01*
X63628691Y-46635000D01*
X64844250Y-46635000D01*
X65003000Y-46476250D01*
X65003000Y-45627000D01*
X65257000Y-45627000D01*
X65257000Y-46476250D01*
X65415750Y-46635000D01*
X66631309Y-46635000D01*
X66864698Y-46538327D01*
X67043327Y-46359699D01*
X67140000Y-46126310D01*
X67140000Y-45785750D01*
X66981250Y-45627000D01*
X65257000Y-45627000D01*
X65003000Y-45627000D01*
X63278750Y-45627000D01*
X63120000Y-45785750D01*
X61380000Y-45785750D01*
X61221250Y-45627000D01*
X59497000Y-45627000D01*
X59243000Y-45627000D01*
X57518750Y-45627000D01*
X57360000Y-45785750D01*
X55260000Y-45785750D01*
X55260000Y-44873690D01*
X57360000Y-44873690D01*
X57360000Y-45214250D01*
X57518750Y-45373000D01*
X59243000Y-45373000D01*
X59243000Y-44523750D01*
X59497000Y-44523750D01*
X59497000Y-45373000D01*
X61221250Y-45373000D01*
X61380000Y-45214250D01*
X61380000Y-44873690D01*
X63120000Y-44873690D01*
X63120000Y-45214250D01*
X63278750Y-45373000D01*
X65003000Y-45373000D01*
X65003000Y-44523750D01*
X65257000Y-44523750D01*
X65257000Y-45373000D01*
X66981250Y-45373000D01*
X67140000Y-45214250D01*
X67140000Y-44873690D01*
X68860000Y-44873690D01*
X68860000Y-45214250D01*
X69018750Y-45373000D01*
X70743000Y-45373000D01*
X70743000Y-44523750D01*
X70997000Y-44523750D01*
X70997000Y-45373000D01*
X72721250Y-45373000D01*
X72880000Y-45214250D01*
X72880000Y-44873690D01*
X74620000Y-44873690D01*
X74620000Y-45214250D01*
X74778750Y-45373000D01*
X76503000Y-45373000D01*
X76503000Y-44523750D01*
X76757000Y-44523750D01*
X76757000Y-45373000D01*
X78481250Y-45373000D01*
X78640000Y-45214250D01*
X78640000Y-44873690D01*
X78543327Y-44640301D01*
X78364698Y-44461673D01*
X78131309Y-44365000D01*
X76915750Y-44365000D01*
X76757000Y-44523750D01*
X76503000Y-44523750D01*
X76344250Y-44365000D01*
X75128691Y-44365000D01*
X74895302Y-44461673D01*
X74716673Y-44640301D01*
X74620000Y-44873690D01*
X72880000Y-44873690D01*
X72783327Y-44640301D01*
X72604698Y-44461673D01*
X72371309Y-44365000D01*
X71155750Y-44365000D01*
X70997000Y-44523750D01*
X70743000Y-44523750D01*
X70584250Y-44365000D01*
X69368691Y-44365000D01*
X69135302Y-44461673D01*
X68956673Y-44640301D01*
X68860000Y-44873690D01*
X67140000Y-44873690D01*
X67043327Y-44640301D01*
X66864698Y-44461673D01*
X66631309Y-44365000D01*
X65415750Y-44365000D01*
X65257000Y-44523750D01*
X65003000Y-44523750D01*
X64844250Y-44365000D01*
X63628691Y-44365000D01*
X63395302Y-44461673D01*
X63216673Y-44640301D01*
X63120000Y-44873690D01*
X61380000Y-44873690D01*
X61283327Y-44640301D01*
X61104698Y-44461673D01*
X60871309Y-44365000D01*
X59655750Y-44365000D01*
X59497000Y-44523750D01*
X59243000Y-44523750D01*
X59084250Y-44365000D01*
X57868691Y-44365000D01*
X57635302Y-44461673D01*
X57456673Y-44640301D01*
X57360000Y-44873690D01*
X55260000Y-44873690D01*
X55260000Y-42212463D01*
X55292192Y-42180327D01*
X55434838Y-41836799D01*
X55435162Y-41464833D01*
X55293117Y-41121057D01*
X55030327Y-40857808D01*
X54686799Y-40715162D01*
X54410473Y-40714921D01*
X54410473Y-39025473D01*
X54324076Y-38591127D01*
X54078039Y-38222907D01*
X54052566Y-38197434D01*
X53684345Y-37951397D01*
X53250000Y-37865000D01*
X52815655Y-37951397D01*
X52447434Y-38197434D01*
X52201397Y-38565655D01*
X52115000Y-39000000D01*
X51685000Y-39000000D01*
X51685000Y-32019585D01*
X51746950Y-32169515D01*
X52824811Y-33249259D01*
X54233825Y-33834333D01*
X55759482Y-33835664D01*
X57169515Y-33253050D01*
X58249259Y-32175189D01*
X58373000Y-31877188D01*
X58373000Y-33000000D01*
X58381685Y-33046159D01*
X58408965Y-33088553D01*
X58450590Y-33116994D01*
X58500000Y-33127000D01*
X77500000Y-33127000D01*
X77546159Y-33118315D01*
X77588553Y-33091035D01*
X77616994Y-33049410D01*
X77627000Y-33000000D01*
X77627000Y-26685000D01*
X94892926Y-26685000D01*
X94539946Y-26920853D01*
X94539946Y-26920853D01*
G37*
X94539946Y-26920853D02*
X94218039Y-27402622D01*
X94105000Y-27970907D01*
X94105000Y-28029093D01*
X94218039Y-28597378D01*
X94539946Y-29079147D01*
X95021715Y-29401054D01*
X95549217Y-29505981D01*
X93187921Y-31867277D01*
X92971057Y-31956883D01*
X92707808Y-32219673D01*
X92565162Y-32563201D01*
X92564838Y-32935167D01*
X92706883Y-33278943D01*
X92969673Y-33542192D01*
X93313201Y-33684838D01*
X93685167Y-33685162D01*
X94028943Y-33543117D01*
X94292192Y-33280327D01*
X94434838Y-32936799D01*
X94434983Y-32769819D01*
X97763592Y-29441210D01*
X98130000Y-29514093D01*
X98168828Y-29506370D01*
X95860320Y-31814878D01*
X95814833Y-31814838D01*
X95471057Y-31956883D01*
X95207808Y-32219673D01*
X95065162Y-32563201D01*
X95064838Y-32935167D01*
X95206883Y-33278943D01*
X95469673Y-33542192D01*
X95813201Y-33684838D01*
X96185167Y-33685162D01*
X96528943Y-33543117D01*
X96792192Y-33280327D01*
X96934838Y-32936799D01*
X96934879Y-32889923D01*
X100370319Y-29454483D01*
X100670000Y-29514093D01*
X101238285Y-29401054D01*
X101720054Y-29079147D01*
X101947702Y-28738447D01*
X102014817Y-28881358D01*
X102443076Y-29271645D01*
X102853110Y-29441476D01*
X103083000Y-29320155D01*
X103083000Y-28127000D01*
X103063000Y-28127000D01*
X103063000Y-27873000D01*
X103083000Y-27873000D01*
X103083000Y-27853000D01*
X103337000Y-27853000D01*
X103337000Y-27873000D01*
X103357000Y-27873000D01*
X103357000Y-28127000D01*
X103337000Y-28127000D01*
X103337000Y-29320155D01*
X103566890Y-29441476D01*
X103976924Y-29271645D01*
X104279937Y-28995499D01*
X104296838Y-29085317D01*
X104435910Y-29301441D01*
X104588896Y-29405972D01*
X98629868Y-35365000D01*
X73500000Y-35365000D01*
X73065654Y-35451397D01*
X72697434Y-35697434D01*
X72451397Y-36065654D01*
X72365000Y-36500000D01*
X72451397Y-36934346D01*
X72697434Y-37302566D01*
X73065654Y-37548603D01*
X73500000Y-37635000D01*
X78139158Y-37635000D01*
X78065162Y-37813201D01*
X78064838Y-38185167D01*
X78206883Y-38528943D01*
X78469673Y-38792192D01*
X78813201Y-38934838D01*
X79185167Y-38935162D01*
X79310949Y-38883190D01*
X79469673Y-39042192D01*
X79813201Y-39184838D01*
X80185167Y-39185162D01*
X80528943Y-39043117D01*
X80792192Y-38780327D01*
X80821394Y-38710001D01*
X100200001Y-38710001D01*
X100490840Y-38652149D01*
X100737402Y-38487402D01*
X103489992Y-35734812D01*
X103489817Y-35935167D01*
X103631862Y-36278943D01*
X103894652Y-36542192D01*
X104238180Y-36684838D01*
X104285056Y-36684879D01*
X106057578Y-38457401D01*
X106218570Y-38564972D01*
X106064833Y-38564838D01*
X105721057Y-38706883D01*
X105687882Y-38740000D01*
X105064802Y-38740000D01*
X104185122Y-37860320D01*
X104185162Y-37814833D01*
X104043117Y-37471057D01*
X103780327Y-37207808D01*
X103436799Y-37065162D01*
X103064833Y-37064838D01*
X102721057Y-37206883D01*
X102457808Y-37469673D01*
X102315162Y-37813201D01*
X102314838Y-38185167D01*
X102456883Y-38528943D01*
X102719673Y-38792192D01*
X103063201Y-38934838D01*
X103110077Y-38934879D01*
X104212599Y-40037401D01*
X104459160Y-40202148D01*
X104750000Y-40260000D01*
X105687537Y-40260000D01*
X105719673Y-40292192D01*
X106063201Y-40434838D01*
X106435167Y-40435162D01*
X106778943Y-40293117D01*
X107042192Y-40030327D01*
X107184838Y-39686799D01*
X107185162Y-39314833D01*
X107043117Y-38971057D01*
X106780327Y-38707808D01*
X106713358Y-38680000D01*
X117055352Y-38680000D01*
X117255585Y-38979670D01*
X117570366Y-39190000D01*
X117255585Y-39400330D01*
X116930729Y-39886511D01*
X116816655Y-40460000D01*
X116930729Y-41033489D01*
X117255585Y-41519670D01*
X117565069Y-41726461D01*
X117149268Y-42097964D01*
X116895291Y-42625209D01*
X116892642Y-42640974D01*
X117013783Y-42873000D01*
X118373000Y-42873000D01*
X118373000Y-42853000D01*
X118627000Y-42853000D01*
X118627000Y-42873000D01*
X119986217Y-42873000D01*
X120107358Y-42640974D01*
X120104709Y-42625209D01*
X119850732Y-42097964D01*
X119434931Y-41726461D01*
X119744415Y-41519670D01*
X120069271Y-41033489D01*
X120164924Y-40552608D01*
X130322567Y-30394965D01*
X130477953Y-30162413D01*
X130568604Y-30026745D01*
X130655001Y-29592399D01*
X130655001Y-29457403D01*
X130938285Y-29401054D01*
X131420054Y-29079147D01*
X131640000Y-28749974D01*
X131859946Y-29079147D01*
X132341715Y-29401054D01*
X132910000Y-29514093D01*
X133478285Y-29401054D01*
X133960054Y-29079147D01*
X134187702Y-28738447D01*
X134254817Y-28881358D01*
X134683076Y-29271645D01*
X135093110Y-29441476D01*
X135323000Y-29320155D01*
X135323000Y-28127000D01*
X135577000Y-28127000D01*
X135577000Y-29320155D01*
X135806890Y-29441476D01*
X136216924Y-29271645D01*
X136645183Y-28881358D01*
X136891486Y-28356892D01*
X136770819Y-28127000D01*
X135577000Y-28127000D01*
X135323000Y-28127000D01*
X135303000Y-28127000D01*
X135303000Y-27873000D01*
X135323000Y-27873000D01*
X135323000Y-27853000D01*
X135577000Y-27853000D01*
X135577000Y-27873000D01*
X136770819Y-27873000D01*
X136891486Y-27643108D01*
X136645183Y-27118642D01*
X136216924Y-26728355D01*
X136112249Y-26685000D01*
X144980415Y-26685000D01*
X144830485Y-26746950D01*
X143750741Y-27824811D01*
X143165667Y-29233825D01*
X143164336Y-30759482D01*
X143746950Y-32169515D01*
X144824811Y-33249259D01*
X146233825Y-33834333D01*
X147759482Y-33835664D01*
X149169515Y-33253050D01*
X150249259Y-32175189D01*
X150315000Y-32016867D01*
X150315000Y-52333887D01*
X150283162Y-52164683D01*
X150144090Y-51948559D01*
X149931890Y-51803569D01*
X149680000Y-51752560D01*
X147980000Y-51752560D01*
X147744683Y-51796838D01*
X147528559Y-51935910D01*
X147383569Y-52148110D01*
X147369914Y-52215541D01*
X147340054Y-52170853D01*
X146858285Y-51848946D01*
X146290000Y-51735907D01*
X145721715Y-51848946D01*
X145239946Y-52170853D01*
X145012298Y-52511553D01*
X144945183Y-52368642D01*
X144516924Y-51978355D01*
X144106890Y-51808524D01*
X143877000Y-51929845D01*
X143877000Y-53123000D01*
X143897000Y-53123000D01*
X143897000Y-53377000D01*
X143877000Y-53377000D01*
X143877000Y-54570155D01*
X144106890Y-54691476D01*
X144516924Y-54521645D01*
X144945183Y-54131358D01*
X145012298Y-53988447D01*
X145239946Y-54329147D01*
X145721715Y-54651054D01*
X146290000Y-54764093D01*
X146858285Y-54651054D01*
X147340054Y-54329147D01*
X147367850Y-54287548D01*
X147376838Y-54335317D01*
X147515910Y-54551441D01*
X147728110Y-54696431D01*
X147980000Y-54747440D01*
X149680000Y-54747440D01*
X149915317Y-54703162D01*
X150131441Y-54564090D01*
X150276431Y-54351890D01*
X150315000Y-54161431D01*
X150315000Y-119980415D01*
X150253050Y-119830485D01*
X149175189Y-118750741D01*
X147766175Y-118165667D01*
X146240518Y-118164336D01*
X144830485Y-118746950D01*
X143750741Y-119824811D01*
X143165667Y-121233825D01*
X143164336Y-122759482D01*
X143746950Y-124169515D01*
X144824811Y-125249259D01*
X144983133Y-125315000D01*
X57019585Y-125315000D01*
X57169515Y-125253050D01*
X58249259Y-124175189D01*
X58834333Y-122766175D01*
X58834468Y-122610750D01*
X60405000Y-122610750D01*
X60405000Y-123051310D01*
X60501673Y-123284699D01*
X60680302Y-123463327D01*
X60913691Y-123560000D01*
X61354250Y-123560000D01*
X61513000Y-123401250D01*
X61513000Y-122610750D01*
X61605000Y-122610750D01*
X61605000Y-123051310D01*
X61701673Y-123284699D01*
X61767000Y-123350026D01*
X61767000Y-123401250D01*
X61925750Y-123560000D01*
X62554250Y-123560000D01*
X62713000Y-123401250D01*
X62713000Y-123350026D01*
X62778327Y-123284699D01*
X62840000Y-123135807D01*
X62901673Y-123284699D01*
X62967000Y-123350026D01*
X62967000Y-123401250D01*
X63125750Y-123560000D01*
X63754250Y-123560000D01*
X63913000Y-123401250D01*
X63913000Y-123350026D01*
X63978327Y-123284699D01*
X64040000Y-123135807D01*
X64101673Y-123284699D01*
X64167000Y-123350026D01*
X64167000Y-123401250D01*
X64325750Y-123560000D01*
X64954250Y-123560000D01*
X65113000Y-123401250D01*
X65113000Y-123350026D01*
X65178327Y-123284699D01*
X65240000Y-123135807D01*
X65301673Y-123284699D01*
X65367000Y-123350026D01*
X65367000Y-123401250D01*
X65525750Y-123560000D01*
X66154250Y-123560000D01*
X66313000Y-123401250D01*
X66313000Y-123350026D01*
X66378327Y-123284699D01*
X66440000Y-123135807D01*
X66501673Y-123284699D01*
X66567000Y-123350026D01*
X66567000Y-123401250D01*
X66725750Y-123560000D01*
X67354250Y-123560000D01*
X67513000Y-123401250D01*
X67513000Y-123350026D01*
X67578327Y-123284699D01*
X67640000Y-123135807D01*
X67701673Y-123284699D01*
X67767000Y-123350026D01*
X67767000Y-123401250D01*
X67925750Y-123560000D01*
X68554250Y-123560000D01*
X68713000Y-123401250D01*
X68713000Y-123350026D01*
X68778327Y-123284699D01*
X68840000Y-123135807D01*
X68901673Y-123284699D01*
X68967000Y-123350026D01*
X68967000Y-123401250D01*
X69125750Y-123560000D01*
X69754250Y-123560000D01*
X69913000Y-123401250D01*
X69913000Y-123350026D01*
X69978327Y-123284699D01*
X70075000Y-123051310D01*
X70075000Y-122610750D01*
X69916250Y-122452000D01*
X70167000Y-122452000D01*
X70167000Y-123401250D01*
X70325750Y-123560000D01*
X70766309Y-123560000D01*
X70999698Y-123463327D01*
X71178327Y-123284699D01*
X71275000Y-123051310D01*
X71275000Y-122610750D01*
X71116250Y-122452000D01*
X70167000Y-122452000D01*
X69916250Y-122452000D01*
X68963750Y-122452000D01*
X68840000Y-122575750D01*
X68716250Y-122452000D01*
X67763750Y-122452000D01*
X67640000Y-122575750D01*
X67516250Y-122452000D01*
X66563750Y-122452000D01*
X66440000Y-122575750D01*
X66316250Y-122452000D01*
X65363750Y-122452000D01*
X65240000Y-122575750D01*
X65116250Y-122452000D01*
X64163750Y-122452000D01*
X64040000Y-122575750D01*
X63916250Y-122452000D01*
X62963750Y-122452000D01*
X62840000Y-122575750D01*
X62716250Y-122452000D01*
X61763750Y-122452000D01*
X61605000Y-122610750D01*
X61513000Y-122610750D01*
X61513000Y-122452000D01*
X60563750Y-122452000D01*
X60405000Y-122610750D01*
X58834468Y-122610750D01*
X58835664Y-121240518D01*
X58253050Y-119830485D01*
X57175189Y-118750741D01*
X55766175Y-118165667D01*
X54240518Y-118164336D01*
X52830485Y-118746950D01*
X51750741Y-119824811D01*
X51685000Y-119983133D01*
X51685000Y-115410750D01*
X60405000Y-115410750D01*
X60405000Y-116039250D01*
X60563750Y-116198000D01*
X60614975Y-116198000D01*
X60680302Y-116263327D01*
X60829194Y-116325000D01*
X60680302Y-116386673D01*
X60614975Y-116452000D01*
X60563750Y-116452000D01*
X60405000Y-116610750D01*
X60405000Y-117239250D01*
X60563750Y-117398000D01*
X60614975Y-117398000D01*
X60680302Y-117463327D01*
X60829194Y-117525000D01*
X60680302Y-117586673D01*
X60614975Y-117652000D01*
X60563750Y-117652000D01*
X60405000Y-117810750D01*
X60405000Y-118439250D01*
X60563750Y-118598000D01*
X60614975Y-118598000D01*
X60680302Y-118663327D01*
X60829194Y-118725000D01*
X60680302Y-118786673D01*
X60614975Y-118852000D01*
X60563750Y-118852000D01*
X60405000Y-119010750D01*
X60405000Y-119639250D01*
X60563750Y-119798000D01*
X60614975Y-119798000D01*
X60680302Y-119863327D01*
X60829194Y-119925000D01*
X60680302Y-119986673D01*
X60614975Y-120052000D01*
X60563750Y-120052000D01*
X60405000Y-120210750D01*
X60405000Y-120839250D01*
X60563750Y-120998000D01*
X60614975Y-120998000D01*
X60680302Y-121063327D01*
X60829194Y-121125000D01*
X60680302Y-121186673D01*
X60614975Y-121252000D01*
X60563750Y-121252000D01*
X60405000Y-121410750D01*
X60405000Y-122039250D01*
X60563750Y-122198000D01*
X60614975Y-122198000D01*
X60680302Y-122263327D01*
X60913691Y-122360000D01*
X61354250Y-122360000D01*
X61513000Y-122201250D01*
X61513000Y-121248750D01*
X61389250Y-121125000D01*
X61513000Y-121001250D01*
X61513000Y-120048750D01*
X61389250Y-119925000D01*
X61513000Y-119801250D01*
X61513000Y-118848750D01*
X61389250Y-118725000D01*
X61513000Y-118601250D01*
X61513000Y-117648750D01*
X61389250Y-117525000D01*
X61513000Y-117401250D01*
X61513000Y-116448750D01*
X61389250Y-116325000D01*
X61513000Y-116201250D01*
X61513000Y-115410750D01*
X61605000Y-115410750D01*
X61605000Y-116039250D01*
X61763750Y-116198000D01*
X61767000Y-116198000D01*
X61767000Y-116201250D01*
X61890750Y-116325000D01*
X61767000Y-116448750D01*
X61767000Y-116452000D01*
X61763750Y-116452000D01*
X61605000Y-116610750D01*
X61605000Y-117239250D01*
X61763750Y-117398000D01*
X61767000Y-117398000D01*
X61767000Y-117401250D01*
X61890750Y-117525000D01*
X61767000Y-117648750D01*
X61767000Y-117652000D01*
X61763750Y-117652000D01*
X61605000Y-117810750D01*
X61605000Y-118439250D01*
X61763750Y-118598000D01*
X61767000Y-118598000D01*
X61767000Y-118601250D01*
X61890750Y-118725000D01*
X61767000Y-118848750D01*
X61767000Y-118852000D01*
X61763750Y-118852000D01*
X61605000Y-119010750D01*
X61605000Y-119639250D01*
X61763750Y-119798000D01*
X61767000Y-119798000D01*
X61767000Y-119801250D01*
X61890750Y-119925000D01*
X61767000Y-120048750D01*
X61767000Y-120052000D01*
X61763750Y-120052000D01*
X61605000Y-120210750D01*
X61605000Y-120839250D01*
X61763750Y-120998000D01*
X61767000Y-120998000D01*
X61767000Y-121001250D01*
X61890750Y-121125000D01*
X61767000Y-121248750D01*
X61767000Y-121252000D01*
X61763750Y-121252000D01*
X61605000Y-121410750D01*
X61605000Y-122039250D01*
X61763750Y-122198000D01*
X61767000Y-122198000D01*
X61767000Y-122201250D01*
X61925750Y-122360000D01*
X62554250Y-122360000D01*
X62713000Y-122201250D01*
X62713000Y-122198000D01*
X62716250Y-122198000D01*
X62840000Y-122074250D01*
X62963750Y-122198000D01*
X62967000Y-122198000D01*
X62967000Y-122201250D01*
X63125750Y-122360000D01*
X63754250Y-122360000D01*
X63913000Y-122201250D01*
X63913000Y-122198000D01*
X63916250Y-122198000D01*
X64040000Y-122074250D01*
X64163750Y-122198000D01*
X64167000Y-122198000D01*
X64167000Y-122201250D01*
X64325750Y-122360000D01*
X64954250Y-122360000D01*
X65113000Y-122201250D01*
X65113000Y-122198000D01*
X65116250Y-122198000D01*
X65240000Y-122074250D01*
X65363750Y-122198000D01*
X65367000Y-122198000D01*
X65367000Y-122201250D01*
X65525750Y-122360000D01*
X66154250Y-122360000D01*
X66313000Y-122201250D01*
X66313000Y-122198000D01*
X66316250Y-122198000D01*
X66440000Y-122074250D01*
X66563750Y-122198000D01*
X66567000Y-122198000D01*
X66567000Y-122201250D01*
X66725750Y-122360000D01*
X67354250Y-122360000D01*
X67513000Y-122201250D01*
X67513000Y-122198000D01*
X67516250Y-122198000D01*
X67640000Y-122074250D01*
X67763750Y-122198000D01*
X67767000Y-122198000D01*
X67767000Y-122201250D01*
X67925750Y-122360000D01*
X68554250Y-122360000D01*
X68713000Y-122201250D01*
X68713000Y-122198000D01*
X68716250Y-122198000D01*
X68840000Y-122074250D01*
X68963750Y-122198000D01*
X68967000Y-122198000D01*
X68967000Y-122201250D01*
X69125750Y-122360000D01*
X69754250Y-122360000D01*
X69913000Y-122201250D01*
X69913000Y-122198000D01*
X69916250Y-122198000D01*
X70075000Y-122039250D01*
X70075000Y-121410750D01*
X69916250Y-121252000D01*
X69913000Y-121252000D01*
X69913000Y-121248750D01*
X69789250Y-121125000D01*
X69913000Y-121001250D01*
X69913000Y-120998000D01*
X69916250Y-120998000D01*
X70075000Y-120839250D01*
X70075000Y-120210750D01*
X69916250Y-120052000D01*
X69913000Y-120052000D01*
X69913000Y-120048750D01*
X69789250Y-119925000D01*
X69913000Y-119801250D01*
X69913000Y-119798000D01*
X69916250Y-119798000D01*
X70075000Y-119639250D01*
X70075000Y-119010750D01*
X69916250Y-118852000D01*
X69913000Y-118852000D01*
X69913000Y-118848750D01*
X69789250Y-118725000D01*
X69913000Y-118601250D01*
X69913000Y-118598000D01*
X69916250Y-118598000D01*
X70075000Y-118439250D01*
X70075000Y-117810750D01*
X69916250Y-117652000D01*
X69913000Y-117652000D01*
X69913000Y-117648750D01*
X69789250Y-117525000D01*
X69913000Y-117401250D01*
X69913000Y-117398000D01*
X69916250Y-117398000D01*
X70075000Y-117239250D01*
X70075000Y-116610750D01*
X69916250Y-116452000D01*
X69913000Y-116452000D01*
X69913000Y-116448750D01*
X69789250Y-116325000D01*
X69913000Y-116201250D01*
X69913000Y-116198000D01*
X69916250Y-116198000D01*
X70075000Y-116039250D01*
X70075000Y-115410750D01*
X69916250Y-115252000D01*
X69913000Y-115252000D01*
X69913000Y-115248750D01*
X70167000Y-115248750D01*
X70167000Y-116201250D01*
X70290750Y-116325000D01*
X70167000Y-116448750D01*
X70167000Y-117401250D01*
X70290750Y-117525000D01*
X70167000Y-117648750D01*
X70167000Y-118601250D01*
X70290750Y-118725000D01*
X70167000Y-118848750D01*
X70167000Y-119801250D01*
X70290750Y-119925000D01*
X70167000Y-120048750D01*
X70167000Y-121001250D01*
X70290750Y-121125000D01*
X70167000Y-121248750D01*
X70167000Y-122201250D01*
X70325750Y-122360000D01*
X70766309Y-122360000D01*
X70999698Y-122263327D01*
X71065025Y-122198000D01*
X71116250Y-122198000D01*
X71275000Y-122039250D01*
X71275000Y-121410750D01*
X71116250Y-121252000D01*
X71065025Y-121252000D01*
X70999698Y-121186673D01*
X70850806Y-121125000D01*
X70999698Y-121063327D01*
X71065025Y-120998000D01*
X71116250Y-120998000D01*
X71275000Y-120839250D01*
X71275000Y-120250000D01*
X73322560Y-120250000D01*
X73322560Y-121950000D01*
X73366838Y-122185317D01*
X73505910Y-122401441D01*
X73718110Y-122546431D01*
X73970000Y-122597440D01*
X75670000Y-122597440D01*
X75905317Y-122553162D01*
X76121441Y-122414090D01*
X76266431Y-122201890D01*
X76280086Y-122134459D01*
X76309946Y-122179147D01*
X76791715Y-122501054D01*
X77360000Y-122614093D01*
X77928285Y-122501054D01*
X78410054Y-122179147D01*
X78637702Y-121838447D01*
X78704817Y-121981358D01*
X79133076Y-122371645D01*
X79543110Y-122541476D01*
X79773000Y-122420155D01*
X79773000Y-121227000D01*
X80027000Y-121227000D01*
X80027000Y-122420155D01*
X80256890Y-122541476D01*
X80666924Y-122371645D01*
X81095183Y-121981358D01*
X81341486Y-121456892D01*
X81220819Y-121227000D01*
X80027000Y-121227000D01*
X79773000Y-121227000D01*
X79753000Y-121227000D01*
X79753000Y-120973000D01*
X79773000Y-120973000D01*
X79773000Y-119779845D01*
X80027000Y-119779845D01*
X80027000Y-120973000D01*
X81220819Y-120973000D01*
X81341486Y-120743108D01*
X81095183Y-120218642D01*
X80666924Y-119828355D01*
X80256890Y-119658524D01*
X80027000Y-119779845D01*
X79773000Y-119779845D01*
X79543110Y-119658524D01*
X79133076Y-119828355D01*
X78704817Y-120218642D01*
X78637702Y-120361553D01*
X78410054Y-120020853D01*
X77928285Y-119698946D01*
X77360000Y-119585907D01*
X76791715Y-119698946D01*
X76309946Y-120020853D01*
X76282150Y-120062452D01*
X76273162Y-120014683D01*
X76134090Y-119798559D01*
X75921890Y-119653569D01*
X75670000Y-119602560D01*
X73970000Y-119602560D01*
X73734683Y-119646838D01*
X73518559Y-119785910D01*
X73373569Y-119998110D01*
X73322560Y-120250000D01*
X71275000Y-120250000D01*
X71275000Y-120210750D01*
X71116250Y-120052000D01*
X71065025Y-120052000D01*
X70999698Y-119986673D01*
X70850806Y-119925000D01*
X70999698Y-119863327D01*
X71065025Y-119798000D01*
X71116250Y-119798000D01*
X71275000Y-119639250D01*
X71275000Y-119010750D01*
X71116250Y-118852000D01*
X71065025Y-118852000D01*
X70999698Y-118786673D01*
X70850806Y-118725000D01*
X70999698Y-118663327D01*
X71065025Y-118598000D01*
X71116250Y-118598000D01*
X71275000Y-118439250D01*
X71275000Y-117810750D01*
X71116250Y-117652000D01*
X71065025Y-117652000D01*
X70999698Y-117586673D01*
X70850806Y-117525000D01*
X70999698Y-117463327D01*
X71065025Y-117398000D01*
X71116250Y-117398000D01*
X71275000Y-117239250D01*
X71275000Y-116610750D01*
X71116250Y-116452000D01*
X71065025Y-116452000D01*
X70999698Y-116386673D01*
X70850806Y-116325000D01*
X70999698Y-116263327D01*
X71065025Y-116198000D01*
X71116250Y-116198000D01*
X71196641Y-116117609D01*
X89356538Y-116117609D01*
X89371714Y-116209376D01*
X89618067Y-116629125D01*
X90006299Y-116922647D01*
X90477304Y-117045256D01*
X90673000Y-116882547D01*
X90673000Y-115927000D01*
X90927000Y-115927000D01*
X90927000Y-116882547D01*
X91122696Y-117045256D01*
X91593701Y-116922647D01*
X91981933Y-116629125D01*
X92228286Y-116209376D01*
X92243462Y-116117609D01*
X92118731Y-115927000D01*
X90927000Y-115927000D01*
X90673000Y-115927000D01*
X89481269Y-115927000D01*
X89356538Y-116117609D01*
X71196641Y-116117609D01*
X71275000Y-116039250D01*
X71275000Y-115410750D01*
X71116250Y-115252000D01*
X71065025Y-115252000D01*
X70999698Y-115186673D01*
X70766309Y-115090000D01*
X70325750Y-115090000D01*
X70167000Y-115248750D01*
X69913000Y-115248750D01*
X69754250Y-115090000D01*
X69125750Y-115090000D01*
X68967000Y-115248750D01*
X68967000Y-115252000D01*
X68963750Y-115252000D01*
X68840000Y-115375750D01*
X68716250Y-115252000D01*
X68713000Y-115252000D01*
X68713000Y-115248750D01*
X68554250Y-115090000D01*
X67925750Y-115090000D01*
X67767000Y-115248750D01*
X67767000Y-115252000D01*
X67763750Y-115252000D01*
X67640000Y-115375750D01*
X67516250Y-115252000D01*
X67513000Y-115252000D01*
X67513000Y-115248750D01*
X67354250Y-115090000D01*
X66725750Y-115090000D01*
X66567000Y-115248750D01*
X66567000Y-115252000D01*
X66563750Y-115252000D01*
X66440000Y-115375750D01*
X66316250Y-115252000D01*
X66313000Y-115252000D01*
X66313000Y-115248750D01*
X66154250Y-115090000D01*
X65525750Y-115090000D01*
X65367000Y-115248750D01*
X65367000Y-115252000D01*
X65363750Y-115252000D01*
X65240000Y-115375750D01*
X65116250Y-115252000D01*
X65113000Y-115252000D01*
X65113000Y-115248750D01*
X64954250Y-115090000D01*
X64325750Y-115090000D01*
X64167000Y-115248750D01*
X64167000Y-115252000D01*
X64163750Y-115252000D01*
X64040000Y-115375750D01*
X63916250Y-115252000D01*
X63913000Y-115252000D01*
X63913000Y-115248750D01*
X63754250Y-115090000D01*
X63125750Y-115090000D01*
X62967000Y-115248750D01*
X62967000Y-115252000D01*
X62963750Y-115252000D01*
X62840000Y-115375750D01*
X62716250Y-115252000D01*
X62713000Y-115252000D01*
X62713000Y-115248750D01*
X62554250Y-115090000D01*
X61925750Y-115090000D01*
X61767000Y-115248750D01*
X61767000Y-115252000D01*
X61763750Y-115252000D01*
X61605000Y-115410750D01*
X61513000Y-115410750D01*
X61513000Y-115248750D01*
X61354250Y-115090000D01*
X60913691Y-115090000D01*
X60680302Y-115186673D01*
X60614975Y-115252000D01*
X60563750Y-115252000D01*
X60405000Y-115410750D01*
X51685000Y-115410750D01*
X51685000Y-114398690D01*
X60405000Y-114398690D01*
X60405000Y-114839250D01*
X60563750Y-114998000D01*
X61513000Y-114998000D01*
X61513000Y-114398690D01*
X61605000Y-114398690D01*
X61605000Y-114839250D01*
X61763750Y-114998000D01*
X62716250Y-114998000D01*
X62840000Y-114874250D01*
X62963750Y-114998000D01*
X63916250Y-114998000D01*
X64040000Y-114874250D01*
X64163750Y-114998000D01*
X65116250Y-114998000D01*
X65240000Y-114874250D01*
X65363750Y-114998000D01*
X66316250Y-114998000D01*
X66440000Y-114874250D01*
X66563750Y-114998000D01*
X67516250Y-114998000D01*
X67640000Y-114874250D01*
X67763750Y-114998000D01*
X68716250Y-114998000D01*
X68840000Y-114874250D01*
X68963750Y-114998000D01*
X69916250Y-114998000D01*
X70075000Y-114839250D01*
X70075000Y-114398690D01*
X69978327Y-114165301D01*
X69913000Y-114099974D01*
X69913000Y-114048750D01*
X70167000Y-114048750D01*
X70167000Y-114998000D01*
X71116250Y-114998000D01*
X71275000Y-114839250D01*
X71275000Y-114398690D01*
X71178327Y-114165301D01*
X70999698Y-113986673D01*
X70766309Y-113890000D01*
X70325750Y-113890000D01*
X70167000Y-114048750D01*
X69913000Y-114048750D01*
X69754250Y-113890000D01*
X69125750Y-113890000D01*
X68967000Y-114048750D01*
X68967000Y-114099974D01*
X68901673Y-114165301D01*
X68840000Y-114314193D01*
X68778327Y-114165301D01*
X68713000Y-114099974D01*
X68713000Y-114048750D01*
X68554250Y-113890000D01*
X67925750Y-113890000D01*
X67767000Y-114048750D01*
X67767000Y-114099974D01*
X67701673Y-114165301D01*
X67640000Y-114314193D01*
X67578327Y-114165301D01*
X67513000Y-114099974D01*
X67513000Y-114048750D01*
X67354250Y-113890000D01*
X66725750Y-113890000D01*
X66567000Y-114048750D01*
X66567000Y-114099974D01*
X66501673Y-114165301D01*
X66440000Y-114314193D01*
X66378327Y-114165301D01*
X66313000Y-114099974D01*
X66313000Y-114048750D01*
X66154250Y-113890000D01*
X65525750Y-113890000D01*
X65367000Y-114048750D01*
X65367000Y-114099974D01*
X65301673Y-114165301D01*
X65240000Y-114314193D01*
X65178327Y-114165301D01*
X65113000Y-114099974D01*
X65113000Y-114048750D01*
X64954250Y-113890000D01*
X64325750Y-113890000D01*
X64167000Y-114048750D01*
X64167000Y-114099974D01*
X64101673Y-114165301D01*
X64040000Y-114314193D01*
X63978327Y-114165301D01*
X63913000Y-114099974D01*
X63913000Y-114048750D01*
X63754250Y-113890000D01*
X63125750Y-113890000D01*
X62967000Y-114048750D01*
X62967000Y-114099974D01*
X62901673Y-114165301D01*
X62840000Y-114314193D01*
X62778327Y-114165301D01*
X62713000Y-114099974D01*
X62713000Y-114048750D01*
X62554250Y-113890000D01*
X61925750Y-113890000D01*
X61767000Y-114048750D01*
X61767000Y-114099974D01*
X61701673Y-114165301D01*
X61605000Y-114398690D01*
X61513000Y-114398690D01*
X61513000Y-114048750D01*
X61354250Y-113890000D01*
X60913691Y-113890000D01*
X60680302Y-113986673D01*
X60501673Y-114165301D01*
X60405000Y-114398690D01*
X51685000Y-114398690D01*
X51685000Y-113200000D01*
X89302560Y-113200000D01*
X89302560Y-114400000D01*
X89346838Y-114635317D01*
X89485910Y-114851441D01*
X89638309Y-114955571D01*
X89618067Y-114970875D01*
X89371714Y-115390624D01*
X89356538Y-115482391D01*
X89481269Y-115673000D01*
X90673000Y-115673000D01*
X90673000Y-115653000D01*
X90927000Y-115653000D01*
X90927000Y-115673000D01*
X92118731Y-115673000D01*
X92243462Y-115482391D01*
X92228286Y-115390624D01*
X91981933Y-114970875D01*
X91960580Y-114954731D01*
X92101441Y-114864090D01*
X92246431Y-114651890D01*
X92297440Y-114400000D01*
X92297440Y-113200000D01*
X92253162Y-112964683D01*
X92114090Y-112748559D01*
X91901890Y-112603569D01*
X91650000Y-112552560D01*
X89950000Y-112552560D01*
X89714683Y-112596838D01*
X89498559Y-112735910D01*
X89353569Y-112948110D01*
X89302560Y-113200000D01*
X51685000Y-113200000D01*
X51685000Y-101875000D01*
X52365000Y-101875000D01*
X52451397Y-102309345D01*
X52697434Y-102677566D01*
X53065655Y-102923603D01*
X53500000Y-103010000D01*
X53877049Y-102935000D01*
X71660982Y-102935000D01*
X71735910Y-103051441D01*
X71948110Y-103196431D01*
X72200000Y-103247440D01*
X73800000Y-103247440D01*
X74035317Y-103203162D01*
X74251441Y-103064090D01*
X74396431Y-102851890D01*
X74405370Y-102807745D01*
X75671861Y-102807745D01*
X75745995Y-103053864D01*
X76283223Y-103246965D01*
X76853454Y-103219778D01*
X77254005Y-103053864D01*
X77328139Y-102807745D01*
X76500000Y-101979605D01*
X75671861Y-102807745D01*
X74405370Y-102807745D01*
X74447440Y-102600000D01*
X74447440Y-101583223D01*
X75053035Y-101583223D01*
X75080222Y-102153454D01*
X75246136Y-102554005D01*
X75492255Y-102628139D01*
X76320395Y-101800000D01*
X76679605Y-101800000D01*
X77507745Y-102628139D01*
X77753864Y-102554005D01*
X77946965Y-102016777D01*
X77919778Y-101446546D01*
X77753864Y-101045995D01*
X77507745Y-100971861D01*
X76679605Y-101800000D01*
X76320395Y-101800000D01*
X75492255Y-100971861D01*
X75246136Y-101045995D01*
X75053035Y-101583223D01*
X74447440Y-101583223D01*
X74447440Y-101000000D01*
X74408351Y-100792255D01*
X75671861Y-100792255D01*
X76500000Y-101620395D01*
X77328139Y-100792255D01*
X77254005Y-100546136D01*
X76716777Y-100353035D01*
X76146546Y-100380222D01*
X75745995Y-100546136D01*
X75671861Y-100792255D01*
X74408351Y-100792255D01*
X74403162Y-100764683D01*
X74264090Y-100548559D01*
X74051890Y-100403569D01*
X73800000Y-100352560D01*
X72200000Y-100352560D01*
X71964683Y-100396838D01*
X71748559Y-100535910D01*
X71660356Y-100665000D01*
X53575000Y-100665000D01*
X53140654Y-100751397D01*
X52858148Y-100940162D01*
X52772434Y-100997434D01*
X52697434Y-101072434D01*
X52451397Y-101440655D01*
X52365000Y-101875000D01*
X51685000Y-101875000D01*
X51685000Y-82185167D01*
X63064838Y-82185167D01*
X63206883Y-82528943D01*
X63469673Y-82792192D01*
X63813201Y-82934838D01*
X64110295Y-82935097D01*
X95814878Y-114639680D01*
X95814838Y-114685167D01*
X95956883Y-115028943D01*
X96219673Y-115292192D01*
X96563201Y-115434838D01*
X96935167Y-115435162D01*
X97278943Y-115293117D01*
X97542192Y-115030327D01*
X97684838Y-114686799D01*
X97685162Y-114314833D01*
X97543117Y-113971057D01*
X97280327Y-113707808D01*
X96936799Y-113565162D01*
X96889923Y-113565121D01*
X90009969Y-106685167D01*
X111564838Y-106685167D01*
X111706883Y-107028943D01*
X111969673Y-107292192D01*
X112313201Y-107434838D01*
X112685167Y-107435162D01*
X113028943Y-107293117D01*
X113280459Y-107042039D01*
X113287401Y-107037401D01*
X130889680Y-89435122D01*
X130935167Y-89435162D01*
X131278943Y-89293117D01*
X131542192Y-89030327D01*
X131684838Y-88686799D01*
X131685162Y-88314833D01*
X131543117Y-87971057D01*
X131280327Y-87707808D01*
X130936799Y-87565162D01*
X130564833Y-87564838D01*
X130221057Y-87706883D01*
X129957808Y-87969673D01*
X129815162Y-88313201D01*
X129815121Y-88360077D01*
X112610103Y-105565095D01*
X112314833Y-105564838D01*
X111971057Y-105706883D01*
X111707808Y-105969673D01*
X111565162Y-106313201D01*
X111564838Y-106685167D01*
X90009969Y-106685167D01*
X64787401Y-81462599D01*
X64779211Y-81457126D01*
X64530327Y-81207808D01*
X64186799Y-81065162D01*
X63814833Y-81064838D01*
X63471057Y-81206883D01*
X63207808Y-81469673D01*
X63065162Y-81813201D01*
X63064838Y-82185167D01*
X51685000Y-82185167D01*
X51685000Y-68356890D01*
X57558524Y-68356890D01*
X57728355Y-68766924D01*
X58118642Y-69195183D01*
X58643108Y-69441486D01*
X58873000Y-69320819D01*
X58873000Y-68127000D01*
X57679845Y-68127000D01*
X57558524Y-68356890D01*
X51685000Y-68356890D01*
X51685000Y-65460000D01*
X57485907Y-65460000D01*
X57598946Y-66028285D01*
X57920853Y-66510054D01*
X58261553Y-66737702D01*
X58118642Y-66804817D01*
X57728355Y-67233076D01*
X57558524Y-67643110D01*
X57679845Y-67873000D01*
X58873000Y-67873000D01*
X58873000Y-67853000D01*
X59127000Y-67853000D01*
X59127000Y-67873000D01*
X59147000Y-67873000D01*
X59147000Y-68127000D01*
X59127000Y-68127000D01*
X59127000Y-69320819D01*
X59356892Y-69441486D01*
X59881358Y-69195183D01*
X60115000Y-68938809D01*
X60115000Y-70250000D01*
X60201397Y-70684346D01*
X60447434Y-71052566D01*
X60815654Y-71298603D01*
X61250000Y-71385000D01*
X61684346Y-71298603D01*
X62052566Y-71052566D01*
X62298603Y-70684346D01*
X62385000Y-70250000D01*
X62385000Y-65170000D01*
X62353174Y-65010000D01*
X62298604Y-64735655D01*
X62052567Y-64367434D01*
X60497440Y-62812308D01*
X60497440Y-62070000D01*
X60453162Y-61834683D01*
X60314090Y-61618559D01*
X60101890Y-61473569D01*
X59850000Y-61422560D01*
X58150000Y-61422560D01*
X57914683Y-61466838D01*
X57698559Y-61605910D01*
X57553569Y-61818110D01*
X57502560Y-62070000D01*
X57502560Y-63770000D01*
X57546838Y-64005317D01*
X57685910Y-64221441D01*
X57898110Y-64366431D01*
X57965541Y-64380086D01*
X57920853Y-64409946D01*
X57598946Y-64891715D01*
X57485907Y-65460000D01*
X51685000Y-65460000D01*
X51685000Y-39000000D01*
X52115000Y-39000000D01*
X52140473Y-39128061D01*
X52140473Y-46025473D01*
X52226870Y-46459819D01*
X52365000Y-46666545D01*
X52365000Y-49910002D01*
X52451397Y-50344348D01*
X52587374Y-50547852D01*
X52697434Y-50712568D01*
X61687433Y-59702568D01*
X62055654Y-59948605D01*
X62489999Y-60035001D01*
X73599999Y-60035001D01*
X74034345Y-59948604D01*
X74402565Y-59702567D01*
X75521064Y-58584068D01*
X75685317Y-58553162D01*
X75901441Y-58414090D01*
X76046431Y-58201890D01*
X76097440Y-57950000D01*
X76097440Y-57688826D01*
X76135000Y-57500000D01*
X76135000Y-57350000D01*
X76097440Y-57161174D01*
X76097440Y-56750000D01*
X76053162Y-56514683D01*
X75914090Y-56298559D01*
X75844289Y-56250866D01*
X75901441Y-56214090D01*
X76046431Y-56001890D01*
X76097440Y-55750000D01*
X76097440Y-54550000D01*
X76053162Y-54314683D01*
X75914090Y-54098559D01*
X75760000Y-53993274D01*
X75760000Y-50647440D01*
X78005000Y-50647440D01*
X78240317Y-50603162D01*
X78456441Y-50464090D01*
X78601431Y-50251890D01*
X78652440Y-50000000D01*
X78652440Y-49000000D01*
X78625514Y-48856903D01*
X78813201Y-48934838D01*
X78860077Y-48934879D01*
X94490000Y-64564802D01*
X94490000Y-72937537D01*
X94457808Y-72969673D01*
X94315162Y-73313201D01*
X94314838Y-73685167D01*
X94456883Y-74028943D01*
X94719673Y-74292192D01*
X95063201Y-74434838D01*
X95435167Y-74435162D01*
X95778943Y-74293117D01*
X96042192Y-74030327D01*
X96184838Y-73686799D01*
X96185162Y-73314833D01*
X96043117Y-72971057D01*
X96010000Y-72937882D01*
X96010000Y-64250000D01*
X95977784Y-64088039D01*
X95952148Y-63959160D01*
X95787401Y-63712599D01*
X88509969Y-56435167D01*
X97314838Y-56435167D01*
X97456883Y-56778943D01*
X97490000Y-56812118D01*
X97490000Y-72437537D01*
X97457808Y-72469673D01*
X97315162Y-72813201D01*
X97314838Y-73185167D01*
X97456883Y-73528943D01*
X97719673Y-73792192D01*
X98063201Y-73934838D01*
X98435167Y-73935162D01*
X98778943Y-73793117D01*
X99042192Y-73530327D01*
X99184838Y-73186799D01*
X99185162Y-72814833D01*
X99043117Y-72471057D01*
X99010000Y-72437882D01*
X99010000Y-56812463D01*
X99042192Y-56780327D01*
X99184838Y-56436799D01*
X99185162Y-56064833D01*
X99043117Y-55721057D01*
X99007290Y-55685167D01*
X102564838Y-55685167D01*
X102706883Y-56028943D01*
X102969673Y-56292192D01*
X103313201Y-56434838D01*
X103360077Y-56434879D01*
X105212599Y-58287401D01*
X105459161Y-58452148D01*
X105750000Y-58510000D01*
X107437537Y-58510000D01*
X107469673Y-58542192D01*
X107813201Y-58684838D01*
X108185167Y-58685162D01*
X108528943Y-58543117D01*
X108792192Y-58280327D01*
X108934838Y-57936799D01*
X108935162Y-57564833D01*
X108793117Y-57221057D01*
X108530327Y-56957808D01*
X108186799Y-56815162D01*
X107814833Y-56814838D01*
X107471057Y-56956883D01*
X107437882Y-56990000D01*
X106064802Y-56990000D01*
X104435122Y-55360320D01*
X104435162Y-55314833D01*
X104293117Y-54971057D01*
X104030327Y-54707808D01*
X103686799Y-54565162D01*
X103314833Y-54564838D01*
X102971057Y-54706883D01*
X102707808Y-54969673D01*
X102565162Y-55313201D01*
X102564838Y-55685167D01*
X99007290Y-55685167D01*
X98780327Y-55457808D01*
X98436799Y-55315162D01*
X98064833Y-55314838D01*
X97721057Y-55456883D01*
X97457808Y-55719673D01*
X97315162Y-56063201D01*
X97314838Y-56435167D01*
X88509969Y-56435167D01*
X79935122Y-47860320D01*
X79935162Y-47814833D01*
X79793117Y-47471057D01*
X79530327Y-47207808D01*
X79186799Y-47065162D01*
X78814833Y-47064838D01*
X78471057Y-47206883D01*
X78207808Y-47469673D01*
X78065162Y-47813201D01*
X78064838Y-48185167D01*
X78145783Y-48381069D01*
X78005000Y-48352560D01*
X75255000Y-48352560D01*
X75019683Y-48396838D01*
X74803559Y-48535910D01*
X74706930Y-48677331D01*
X74436799Y-48565162D01*
X74064833Y-48564838D01*
X73721057Y-48706883D01*
X73687882Y-48740000D01*
X72832279Y-48740000D01*
X72709090Y-48548559D01*
X72496890Y-48403569D01*
X72405194Y-48385000D01*
X73500000Y-48385000D01*
X73934346Y-48298603D01*
X74302566Y-48052566D01*
X74548603Y-47684346D01*
X74635000Y-47250000D01*
X74572376Y-46935167D01*
X80314838Y-46935167D01*
X80456883Y-47278943D01*
X80719673Y-47542192D01*
X81063201Y-47684838D01*
X81435167Y-47685162D01*
X81778943Y-47543117D01*
X82042192Y-47280327D01*
X82184838Y-46936799D01*
X82184879Y-46889923D01*
X82389635Y-46685167D01*
X102564838Y-46685167D01*
X102706883Y-47028943D01*
X102969673Y-47292192D01*
X103313201Y-47434838D01*
X103360077Y-47434879D01*
X106240189Y-50314991D01*
X106064833Y-50314838D01*
X105721057Y-50456883D01*
X105457808Y-50719673D01*
X105315162Y-51063201D01*
X105314838Y-51435167D01*
X105456883Y-51778943D01*
X105719673Y-52042192D01*
X106063201Y-52184838D01*
X106435167Y-52185162D01*
X106778943Y-52043117D01*
X106812118Y-52010000D01*
X115935198Y-52010000D01*
X136064878Y-72139680D01*
X136064838Y-72185167D01*
X136206883Y-72528943D01*
X136469673Y-72792192D01*
X136813201Y-72934838D01*
X137185167Y-72935162D01*
X137528943Y-72793117D01*
X137792192Y-72530327D01*
X137934838Y-72186799D01*
X137935162Y-71814833D01*
X137793117Y-71471057D01*
X137530327Y-71207808D01*
X137186799Y-71065162D01*
X137139923Y-71065121D01*
X116787401Y-50712599D01*
X116540839Y-50547852D01*
X116250000Y-50490000D01*
X113308937Y-50490000D01*
X113434838Y-50186799D01*
X113435162Y-49814833D01*
X113293117Y-49471057D01*
X113030327Y-49207808D01*
X112686799Y-49065162D01*
X112314833Y-49064838D01*
X111971057Y-49206883D01*
X111937882Y-49240000D01*
X107314802Y-49240000D01*
X104435122Y-46360320D01*
X104435162Y-46314833D01*
X104293117Y-45971057D01*
X104030327Y-45707808D01*
X103686799Y-45565162D01*
X103314833Y-45564838D01*
X102971057Y-45706883D01*
X102707808Y-45969673D01*
X102565162Y-46313201D01*
X102564838Y-46685167D01*
X82389635Y-46685167D01*
X83564802Y-45510000D01*
X112185198Y-45510000D01*
X113212599Y-46537401D01*
X113459161Y-46702148D01*
X113750000Y-46760000D01*
X123435198Y-46760000D01*
X129612600Y-52937402D01*
X129620361Y-52942588D01*
X129565000Y-53220907D01*
X129565000Y-53279093D01*
X129678039Y-53847378D01*
X129999946Y-54329147D01*
X130481715Y-54651054D01*
X131050000Y-54764093D01*
X131618285Y-54651054D01*
X132100054Y-54329147D01*
X132320000Y-53999974D01*
X132539946Y-54329147D01*
X133021715Y-54651054D01*
X133590000Y-54764093D01*
X134158285Y-54651054D01*
X134640054Y-54329147D01*
X134860000Y-53999974D01*
X135079946Y-54329147D01*
X135561715Y-54651054D01*
X136130000Y-54764093D01*
X136698285Y-54651054D01*
X137180054Y-54329147D01*
X137400000Y-53999974D01*
X137619946Y-54329147D01*
X138101715Y-54651054D01*
X138670000Y-54764093D01*
X139238285Y-54651054D01*
X139720054Y-54329147D01*
X139940000Y-53999974D01*
X140159946Y-54329147D01*
X140641715Y-54651054D01*
X141210000Y-54764093D01*
X141778285Y-54651054D01*
X142260054Y-54329147D01*
X142487702Y-53988447D01*
X142554817Y-54131358D01*
X142983076Y-54521645D01*
X143393110Y-54691476D01*
X143623000Y-54570155D01*
X143623000Y-53377000D01*
X143603000Y-53377000D01*
X143603000Y-53123000D01*
X143623000Y-53123000D01*
X143623000Y-51929845D01*
X143393110Y-51808524D01*
X142983076Y-51978355D01*
X142554817Y-52368642D01*
X142487702Y-52511553D01*
X142260054Y-52170853D01*
X141778285Y-51848946D01*
X141210000Y-51735907D01*
X140843592Y-51808790D01*
X132997401Y-43962599D01*
X132750839Y-43797852D01*
X132460000Y-43740000D01*
X119928786Y-43740000D01*
X120104709Y-43374791D01*
X120107358Y-43359026D01*
X119986217Y-43127000D01*
X118627000Y-43127000D01*
X118627000Y-43147000D01*
X118373000Y-43147000D01*
X118373000Y-43127000D01*
X117013783Y-43127000D01*
X116892642Y-43359026D01*
X116895291Y-43374791D01*
X117071214Y-43740000D01*
X114701212Y-43740000D01*
X113173811Y-42212599D01*
X112927249Y-42047852D01*
X112636410Y-41990000D01*
X89562463Y-41990000D01*
X89530327Y-41957808D01*
X89186799Y-41815162D01*
X88814833Y-41814838D01*
X88471057Y-41956883D01*
X88207808Y-42219673D01*
X88065162Y-42563201D01*
X88065052Y-42690046D01*
X87814833Y-42689828D01*
X87471057Y-42831873D01*
X87207808Y-43094663D01*
X87065162Y-43438191D01*
X87065117Y-43490000D01*
X82866102Y-43490000D01*
X82575263Y-43547852D01*
X82328701Y-43712599D01*
X81543371Y-44497929D01*
X81497884Y-44497889D01*
X81154108Y-44639934D01*
X80890859Y-44902724D01*
X80748213Y-45246252D01*
X80747889Y-45618218D01*
X80863503Y-45898026D01*
X80721057Y-45956883D01*
X80457808Y-46219673D01*
X80315162Y-46563201D01*
X80314838Y-46935167D01*
X74572376Y-46935167D01*
X74548603Y-46815654D01*
X74302566Y-46447434D01*
X73934346Y-46201397D01*
X73500000Y-46115000D01*
X72880000Y-46115000D01*
X72880000Y-45785750D01*
X74620000Y-45785750D01*
X74620000Y-46126310D01*
X74716673Y-46359699D01*
X74895302Y-46538327D01*
X75128691Y-46635000D01*
X76344250Y-46635000D01*
X76503000Y-46476250D01*
X76503000Y-45627000D01*
X76757000Y-45627000D01*
X76757000Y-46476250D01*
X76915750Y-46635000D01*
X78131309Y-46635000D01*
X78364698Y-46538327D01*
X78543327Y-46359699D01*
X78640000Y-46126310D01*
X78640000Y-45785750D01*
X78481250Y-45627000D01*
X76757000Y-45627000D01*
X76503000Y-45627000D01*
X74778750Y-45627000D01*
X74620000Y-45785750D01*
X72880000Y-45785750D01*
X72721250Y-45627000D01*
X70997000Y-45627000D01*
X70997000Y-45647000D01*
X70743000Y-45647000D01*
X70743000Y-45627000D01*
X69018750Y-45627000D01*
X68860000Y-45785750D01*
X68860000Y-46126310D01*
X68956673Y-46359699D01*
X69113420Y-46516446D01*
X67992433Y-47637433D01*
X67746396Y-48005653D01*
X67659999Y-48439999D01*
X67659999Y-54165000D01*
X66511431Y-54165000D01*
X66450000Y-54152560D01*
X65550000Y-54152560D01*
X65314683Y-54196838D01*
X65098559Y-54335910D01*
X64953569Y-54548110D01*
X64902560Y-54800000D01*
X64902560Y-55211174D01*
X64865000Y-55400000D01*
X64902560Y-55588826D01*
X64902560Y-56000000D01*
X64946838Y-56235317D01*
X65085910Y-56451441D01*
X65155711Y-56499134D01*
X65098559Y-56535910D01*
X64953569Y-56748110D01*
X64934961Y-56840000D01*
X64567334Y-56840000D01*
X64553162Y-56764683D01*
X64414090Y-56548559D01*
X64344289Y-56500866D01*
X64401441Y-56464090D01*
X64546431Y-56251890D01*
X64597440Y-56000000D01*
X64597440Y-54800000D01*
X64553162Y-54564683D01*
X64414090Y-54348559D01*
X64377929Y-54323851D01*
X64434838Y-54186799D01*
X64435162Y-53814833D01*
X64293117Y-53471057D01*
X64030327Y-53207808D01*
X63686799Y-53065162D01*
X63314833Y-53064838D01*
X62971057Y-53206883D01*
X62707808Y-53469673D01*
X62565162Y-53813201D01*
X62564838Y-54185167D01*
X62621124Y-54321390D01*
X62598559Y-54335910D01*
X62453569Y-54548110D01*
X62402560Y-54800000D01*
X62402560Y-56000000D01*
X62446838Y-56235317D01*
X62585910Y-56451441D01*
X62655711Y-56499134D01*
X62598559Y-56535910D01*
X62453569Y-56748110D01*
X62402560Y-57000000D01*
X62402560Y-57207429D01*
X54635000Y-49439870D01*
X54635000Y-47464802D01*
X57207599Y-50037401D01*
X57375737Y-50149747D01*
X57391838Y-50235317D01*
X57530910Y-50451441D01*
X57743110Y-50596431D01*
X57995000Y-50647440D01*
X60745000Y-50647440D01*
X60980317Y-50603162D01*
X61196441Y-50464090D01*
X61335890Y-50260000D01*
X63167721Y-50260000D01*
X63290910Y-50451441D01*
X63503110Y-50596431D01*
X63755000Y-50647440D01*
X66505000Y-50647440D01*
X66740317Y-50603162D01*
X66956441Y-50464090D01*
X67101431Y-50251890D01*
X67152440Y-50000000D01*
X67152440Y-49000000D01*
X67108162Y-48764683D01*
X66969090Y-48548559D01*
X66756890Y-48403569D01*
X66505000Y-48352560D01*
X63755000Y-48352560D01*
X63519683Y-48396838D01*
X63303559Y-48535910D01*
X63164110Y-48740000D01*
X61332279Y-48740000D01*
X61209090Y-48548559D01*
X60996890Y-48403569D01*
X60745000Y-48352560D01*
X57995000Y-48352560D01*
X57759683Y-48396838D01*
X57733493Y-48413691D01*
X55260000Y-45940198D01*
X55260000Y-45785750D01*
X57360000Y-45785750D01*
X57360000Y-46126310D01*
X57456673Y-46359699D01*
X57635302Y-46538327D01*
X57868691Y-46635000D01*
X59084250Y-46635000D01*
X59243000Y-46476250D01*
X59243000Y-45627000D01*
X59497000Y-45627000D01*
X59497000Y-46476250D01*
X59655750Y-46635000D01*
X60871309Y-46635000D01*
X61104698Y-46538327D01*
X61283327Y-46359699D01*
X61380000Y-46126310D01*
X61380000Y-45785750D01*
X63120000Y-45785750D01*
X63120000Y-46126310D01*
X63216673Y-46359699D01*
X63395302Y-46538327D01*
X63628691Y-46635000D01*
X64844250Y-46635000D01*
X65003000Y-46476250D01*
X65003000Y-45627000D01*
X65257000Y-45627000D01*
X65257000Y-46476250D01*
X65415750Y-46635000D01*
X66631309Y-46635000D01*
X66864698Y-46538327D01*
X67043327Y-46359699D01*
X67140000Y-46126310D01*
X67140000Y-45785750D01*
X66981250Y-45627000D01*
X65257000Y-45627000D01*
X65003000Y-45627000D01*
X63278750Y-45627000D01*
X63120000Y-45785750D01*
X61380000Y-45785750D01*
X61221250Y-45627000D01*
X59497000Y-45627000D01*
X59243000Y-45627000D01*
X57518750Y-45627000D01*
X57360000Y-45785750D01*
X55260000Y-45785750D01*
X55260000Y-44873690D01*
X57360000Y-44873690D01*
X57360000Y-45214250D01*
X57518750Y-45373000D01*
X59243000Y-45373000D01*
X59243000Y-44523750D01*
X59497000Y-44523750D01*
X59497000Y-45373000D01*
X61221250Y-45373000D01*
X61380000Y-45214250D01*
X61380000Y-44873690D01*
X63120000Y-44873690D01*
X63120000Y-45214250D01*
X63278750Y-45373000D01*
X65003000Y-45373000D01*
X65003000Y-44523750D01*
X65257000Y-44523750D01*
X65257000Y-45373000D01*
X66981250Y-45373000D01*
X67140000Y-45214250D01*
X67140000Y-44873690D01*
X68860000Y-44873690D01*
X68860000Y-45214250D01*
X69018750Y-45373000D01*
X70743000Y-45373000D01*
X70743000Y-44523750D01*
X70997000Y-44523750D01*
X70997000Y-45373000D01*
X72721250Y-45373000D01*
X72880000Y-45214250D01*
X72880000Y-44873690D01*
X74620000Y-44873690D01*
X74620000Y-45214250D01*
X74778750Y-45373000D01*
X76503000Y-45373000D01*
X76503000Y-44523750D01*
X76757000Y-44523750D01*
X76757000Y-45373000D01*
X78481250Y-45373000D01*
X78640000Y-45214250D01*
X78640000Y-44873690D01*
X78543327Y-44640301D01*
X78364698Y-44461673D01*
X78131309Y-44365000D01*
X76915750Y-44365000D01*
X76757000Y-44523750D01*
X76503000Y-44523750D01*
X76344250Y-44365000D01*
X75128691Y-44365000D01*
X74895302Y-44461673D01*
X74716673Y-44640301D01*
X74620000Y-44873690D01*
X72880000Y-44873690D01*
X72783327Y-44640301D01*
X72604698Y-44461673D01*
X72371309Y-44365000D01*
X71155750Y-44365000D01*
X70997000Y-44523750D01*
X70743000Y-44523750D01*
X70584250Y-44365000D01*
X69368691Y-44365000D01*
X69135302Y-44461673D01*
X68956673Y-44640301D01*
X68860000Y-44873690D01*
X67140000Y-44873690D01*
X67043327Y-44640301D01*
X66864698Y-44461673D01*
X66631309Y-44365000D01*
X65415750Y-44365000D01*
X65257000Y-44523750D01*
X65003000Y-44523750D01*
X64844250Y-44365000D01*
X63628691Y-44365000D01*
X63395302Y-44461673D01*
X63216673Y-44640301D01*
X63120000Y-44873690D01*
X61380000Y-44873690D01*
X61283327Y-44640301D01*
X61104698Y-44461673D01*
X60871309Y-44365000D01*
X59655750Y-44365000D01*
X59497000Y-44523750D01*
X59243000Y-44523750D01*
X59084250Y-44365000D01*
X57868691Y-44365000D01*
X57635302Y-44461673D01*
X57456673Y-44640301D01*
X57360000Y-44873690D01*
X55260000Y-44873690D01*
X55260000Y-42212463D01*
X55292192Y-42180327D01*
X55434838Y-41836799D01*
X55435162Y-41464833D01*
X55293117Y-41121057D01*
X55030327Y-40857808D01*
X54686799Y-40715162D01*
X54410473Y-40714921D01*
X54410473Y-39025473D01*
X54324076Y-38591127D01*
X54078039Y-38222907D01*
X54052566Y-38197434D01*
X53684345Y-37951397D01*
X53250000Y-37865000D01*
X52815655Y-37951397D01*
X52447434Y-38197434D01*
X52201397Y-38565655D01*
X52115000Y-39000000D01*
X51685000Y-39000000D01*
X51685000Y-32019585D01*
X51746950Y-32169515D01*
X52824811Y-33249259D01*
X54233825Y-33834333D01*
X55759482Y-33835664D01*
X57169515Y-33253050D01*
X58249259Y-32175189D01*
X58373000Y-31877188D01*
X58373000Y-33000000D01*
X58381685Y-33046159D01*
X58408965Y-33088553D01*
X58450590Y-33116994D01*
X58500000Y-33127000D01*
X77500000Y-33127000D01*
X77546159Y-33118315D01*
X77588553Y-33091035D01*
X77616994Y-33049410D01*
X77627000Y-33000000D01*
X77627000Y-26685000D01*
X94892926Y-26685000D01*
X94539946Y-26920853D01*
G36*
X62963750Y-120998000D02*
X62967000Y-120998000D01*
X62967000Y-121001250D01*
X63090750Y-121125000D01*
X62967000Y-121248750D01*
X62967000Y-121252000D01*
X62963750Y-121252000D01*
X62840000Y-121375750D01*
X62716250Y-121252000D01*
X62713000Y-121252000D01*
X62713000Y-121248750D01*
X62589250Y-121125000D01*
X62713000Y-121001250D01*
X62713000Y-120998000D01*
X62716250Y-120998000D01*
X62840000Y-120874250D01*
X62963750Y-120998000D01*
X62963750Y-120998000D01*
G37*
X62963750Y-120998000D02*
X62967000Y-120998000D01*
X62967000Y-121001250D01*
X63090750Y-121125000D01*
X62967000Y-121248750D01*
X62967000Y-121252000D01*
X62963750Y-121252000D01*
X62840000Y-121375750D01*
X62716250Y-121252000D01*
X62713000Y-121252000D01*
X62713000Y-121248750D01*
X62589250Y-121125000D01*
X62713000Y-121001250D01*
X62713000Y-120998000D01*
X62716250Y-120998000D01*
X62840000Y-120874250D01*
X62963750Y-120998000D01*
G36*
X64163750Y-120998000D02*
X64167000Y-120998000D01*
X64167000Y-121001250D01*
X64290750Y-121125000D01*
X64167000Y-121248750D01*
X64167000Y-121252000D01*
X64163750Y-121252000D01*
X64040000Y-121375750D01*
X63916250Y-121252000D01*
X63913000Y-121252000D01*
X63913000Y-121248750D01*
X63789250Y-121125000D01*
X63913000Y-121001250D01*
X63913000Y-120998000D01*
X63916250Y-120998000D01*
X64040000Y-120874250D01*
X64163750Y-120998000D01*
X64163750Y-120998000D01*
G37*
X64163750Y-120998000D02*
X64167000Y-120998000D01*
X64167000Y-121001250D01*
X64290750Y-121125000D01*
X64167000Y-121248750D01*
X64167000Y-121252000D01*
X64163750Y-121252000D01*
X64040000Y-121375750D01*
X63916250Y-121252000D01*
X63913000Y-121252000D01*
X63913000Y-121248750D01*
X63789250Y-121125000D01*
X63913000Y-121001250D01*
X63913000Y-120998000D01*
X63916250Y-120998000D01*
X64040000Y-120874250D01*
X64163750Y-120998000D01*
G36*
X65363750Y-120998000D02*
X65367000Y-120998000D01*
X65367000Y-121001250D01*
X65490750Y-121125000D01*
X65367000Y-121248750D01*
X65367000Y-121252000D01*
X65363750Y-121252000D01*
X65240000Y-121375750D01*
X65116250Y-121252000D01*
X65113000Y-121252000D01*
X65113000Y-121248750D01*
X64989250Y-121125000D01*
X65113000Y-121001250D01*
X65113000Y-120998000D01*
X65116250Y-120998000D01*
X65240000Y-120874250D01*
X65363750Y-120998000D01*
X65363750Y-120998000D01*
G37*
X65363750Y-120998000D02*
X65367000Y-120998000D01*
X65367000Y-121001250D01*
X65490750Y-121125000D01*
X65367000Y-121248750D01*
X65367000Y-121252000D01*
X65363750Y-121252000D01*
X65240000Y-121375750D01*
X65116250Y-121252000D01*
X65113000Y-121252000D01*
X65113000Y-121248750D01*
X64989250Y-121125000D01*
X65113000Y-121001250D01*
X65113000Y-120998000D01*
X65116250Y-120998000D01*
X65240000Y-120874250D01*
X65363750Y-120998000D01*
G36*
X68963750Y-120998000D02*
X68967000Y-120998000D01*
X68967000Y-121001250D01*
X69090750Y-121125000D01*
X68967000Y-121248750D01*
X68967000Y-121252000D01*
X68963750Y-121252000D01*
X68840000Y-121375750D01*
X68716250Y-121252000D01*
X68713000Y-121252000D01*
X68713000Y-121248750D01*
X68589250Y-121125000D01*
X68713000Y-121001250D01*
X68713000Y-120998000D01*
X68716250Y-120998000D01*
X68840000Y-120874250D01*
X68963750Y-120998000D01*
X68963750Y-120998000D01*
G37*
X68963750Y-120998000D02*
X68967000Y-120998000D01*
X68967000Y-121001250D01*
X69090750Y-121125000D01*
X68967000Y-121248750D01*
X68967000Y-121252000D01*
X68963750Y-121252000D01*
X68840000Y-121375750D01*
X68716250Y-121252000D01*
X68713000Y-121252000D01*
X68713000Y-121248750D01*
X68589250Y-121125000D01*
X68713000Y-121001250D01*
X68713000Y-120998000D01*
X68716250Y-120998000D01*
X68840000Y-120874250D01*
X68963750Y-120998000D01*
G36*
X67763750Y-120998000D02*
X67767000Y-120998000D01*
X67767000Y-121001250D01*
X67890750Y-121125000D01*
X67767000Y-121248750D01*
X67767000Y-121252000D01*
X67763750Y-121252000D01*
X67640000Y-121375750D01*
X67516250Y-121252000D01*
X67513000Y-121252000D01*
X67513000Y-121248750D01*
X67389250Y-121125000D01*
X67513000Y-121001250D01*
X67513000Y-120998000D01*
X67516250Y-120998000D01*
X67640000Y-120874250D01*
X67763750Y-120998000D01*
X67763750Y-120998000D01*
G37*
X67763750Y-120998000D02*
X67767000Y-120998000D01*
X67767000Y-121001250D01*
X67890750Y-121125000D01*
X67767000Y-121248750D01*
X67767000Y-121252000D01*
X67763750Y-121252000D01*
X67640000Y-121375750D01*
X67516250Y-121252000D01*
X67513000Y-121252000D01*
X67513000Y-121248750D01*
X67389250Y-121125000D01*
X67513000Y-121001250D01*
X67513000Y-120998000D01*
X67516250Y-120998000D01*
X67640000Y-120874250D01*
X67763750Y-120998000D01*
G36*
X66563750Y-120998000D02*
X66567000Y-120998000D01*
X66567000Y-121001250D01*
X66690750Y-121125000D01*
X66567000Y-121248750D01*
X66567000Y-121252000D01*
X66563750Y-121252000D01*
X66440000Y-121375750D01*
X66316250Y-121252000D01*
X66313000Y-121252000D01*
X66313000Y-121248750D01*
X66189250Y-121125000D01*
X66313000Y-121001250D01*
X66313000Y-120998000D01*
X66316250Y-120998000D01*
X66440000Y-120874250D01*
X66563750Y-120998000D01*
X66563750Y-120998000D01*
G37*
X66563750Y-120998000D02*
X66567000Y-120998000D01*
X66567000Y-121001250D01*
X66690750Y-121125000D01*
X66567000Y-121248750D01*
X66567000Y-121252000D01*
X66563750Y-121252000D01*
X66440000Y-121375750D01*
X66316250Y-121252000D01*
X66313000Y-121252000D01*
X66313000Y-121248750D01*
X66189250Y-121125000D01*
X66313000Y-121001250D01*
X66313000Y-120998000D01*
X66316250Y-120998000D01*
X66440000Y-120874250D01*
X66563750Y-120998000D01*
G36*
X67763750Y-119798000D02*
X67767000Y-119798000D01*
X67767000Y-119801250D01*
X67890750Y-119925000D01*
X67767000Y-120048750D01*
X67767000Y-120052000D01*
X67763750Y-120052000D01*
X67640000Y-120175750D01*
X67516250Y-120052000D01*
X67513000Y-120052000D01*
X67513000Y-120048750D01*
X67389250Y-119925000D01*
X67513000Y-119801250D01*
X67513000Y-119798000D01*
X67516250Y-119798000D01*
X67640000Y-119674250D01*
X67763750Y-119798000D01*
X67763750Y-119798000D01*
G37*
X67763750Y-119798000D02*
X67767000Y-119798000D01*
X67767000Y-119801250D01*
X67890750Y-119925000D01*
X67767000Y-120048750D01*
X67767000Y-120052000D01*
X67763750Y-120052000D01*
X67640000Y-120175750D01*
X67516250Y-120052000D01*
X67513000Y-120052000D01*
X67513000Y-120048750D01*
X67389250Y-119925000D01*
X67513000Y-119801250D01*
X67513000Y-119798000D01*
X67516250Y-119798000D01*
X67640000Y-119674250D01*
X67763750Y-119798000D01*
G36*
X68963750Y-119798000D02*
X68967000Y-119798000D01*
X68967000Y-119801250D01*
X69090750Y-119925000D01*
X68967000Y-120048750D01*
X68967000Y-120052000D01*
X68963750Y-120052000D01*
X68840000Y-120175750D01*
X68716250Y-120052000D01*
X68713000Y-120052000D01*
X68713000Y-120048750D01*
X68589250Y-119925000D01*
X68713000Y-119801250D01*
X68713000Y-119798000D01*
X68716250Y-119798000D01*
X68840000Y-119674250D01*
X68963750Y-119798000D01*
X68963750Y-119798000D01*
G37*
X68963750Y-119798000D02*
X68967000Y-119798000D01*
X68967000Y-119801250D01*
X69090750Y-119925000D01*
X68967000Y-120048750D01*
X68967000Y-120052000D01*
X68963750Y-120052000D01*
X68840000Y-120175750D01*
X68716250Y-120052000D01*
X68713000Y-120052000D01*
X68713000Y-120048750D01*
X68589250Y-119925000D01*
X68713000Y-119801250D01*
X68713000Y-119798000D01*
X68716250Y-119798000D01*
X68840000Y-119674250D01*
X68963750Y-119798000D01*
G36*
X66563750Y-119798000D02*
X66567000Y-119798000D01*
X66567000Y-119801250D01*
X66690750Y-119925000D01*
X66567000Y-120048750D01*
X66567000Y-120052000D01*
X66563750Y-120052000D01*
X66440000Y-120175750D01*
X66316250Y-120052000D01*
X66313000Y-120052000D01*
X66313000Y-120048750D01*
X66189250Y-119925000D01*
X66313000Y-119801250D01*
X66313000Y-119798000D01*
X66316250Y-119798000D01*
X66440000Y-119674250D01*
X66563750Y-119798000D01*
X66563750Y-119798000D01*
G37*
X66563750Y-119798000D02*
X66567000Y-119798000D01*
X66567000Y-119801250D01*
X66690750Y-119925000D01*
X66567000Y-120048750D01*
X66567000Y-120052000D01*
X66563750Y-120052000D01*
X66440000Y-120175750D01*
X66316250Y-120052000D01*
X66313000Y-120052000D01*
X66313000Y-120048750D01*
X66189250Y-119925000D01*
X66313000Y-119801250D01*
X66313000Y-119798000D01*
X66316250Y-119798000D01*
X66440000Y-119674250D01*
X66563750Y-119798000D01*
G36*
X62963750Y-119798000D02*
X62967000Y-119798000D01*
X62967000Y-119801250D01*
X63090750Y-119925000D01*
X62967000Y-120048750D01*
X62967000Y-120052000D01*
X62963750Y-120052000D01*
X62840000Y-120175750D01*
X62716250Y-120052000D01*
X62713000Y-120052000D01*
X62713000Y-120048750D01*
X62589250Y-119925000D01*
X62713000Y-119801250D01*
X62713000Y-119798000D01*
X62716250Y-119798000D01*
X62840000Y-119674250D01*
X62963750Y-119798000D01*
X62963750Y-119798000D01*
G37*
X62963750Y-119798000D02*
X62967000Y-119798000D01*
X62967000Y-119801250D01*
X63090750Y-119925000D01*
X62967000Y-120048750D01*
X62967000Y-120052000D01*
X62963750Y-120052000D01*
X62840000Y-120175750D01*
X62716250Y-120052000D01*
X62713000Y-120052000D01*
X62713000Y-120048750D01*
X62589250Y-119925000D01*
X62713000Y-119801250D01*
X62713000Y-119798000D01*
X62716250Y-119798000D01*
X62840000Y-119674250D01*
X62963750Y-119798000D01*
G36*
X64163750Y-119798000D02*
X64167000Y-119798000D01*
X64167000Y-119801250D01*
X64290750Y-119925000D01*
X64167000Y-120048750D01*
X64167000Y-120052000D01*
X64163750Y-120052000D01*
X64040000Y-120175750D01*
X63916250Y-120052000D01*
X63913000Y-120052000D01*
X63913000Y-120048750D01*
X63789250Y-119925000D01*
X63913000Y-119801250D01*
X63913000Y-119798000D01*
X63916250Y-119798000D01*
X64040000Y-119674250D01*
X64163750Y-119798000D01*
X64163750Y-119798000D01*
G37*
X64163750Y-119798000D02*
X64167000Y-119798000D01*
X64167000Y-119801250D01*
X64290750Y-119925000D01*
X64167000Y-120048750D01*
X64167000Y-120052000D01*
X64163750Y-120052000D01*
X64040000Y-120175750D01*
X63916250Y-120052000D01*
X63913000Y-120052000D01*
X63913000Y-120048750D01*
X63789250Y-119925000D01*
X63913000Y-119801250D01*
X63913000Y-119798000D01*
X63916250Y-119798000D01*
X64040000Y-119674250D01*
X64163750Y-119798000D01*
G36*
X65363750Y-119798000D02*
X65367000Y-119798000D01*
X65367000Y-119801250D01*
X65490750Y-119925000D01*
X65367000Y-120048750D01*
X65367000Y-120052000D01*
X65363750Y-120052000D01*
X65240000Y-120175750D01*
X65116250Y-120052000D01*
X65113000Y-120052000D01*
X65113000Y-120048750D01*
X64989250Y-119925000D01*
X65113000Y-119801250D01*
X65113000Y-119798000D01*
X65116250Y-119798000D01*
X65240000Y-119674250D01*
X65363750Y-119798000D01*
X65363750Y-119798000D01*
G37*
X65363750Y-119798000D02*
X65367000Y-119798000D01*
X65367000Y-119801250D01*
X65490750Y-119925000D01*
X65367000Y-120048750D01*
X65367000Y-120052000D01*
X65363750Y-120052000D01*
X65240000Y-120175750D01*
X65116250Y-120052000D01*
X65113000Y-120052000D01*
X65113000Y-120048750D01*
X64989250Y-119925000D01*
X65113000Y-119801250D01*
X65113000Y-119798000D01*
X65116250Y-119798000D01*
X65240000Y-119674250D01*
X65363750Y-119798000D01*
G36*
X62963750Y-118598000D02*
X62967000Y-118598000D01*
X62967000Y-118601250D01*
X63090750Y-118725000D01*
X62967000Y-118848750D01*
X62967000Y-118852000D01*
X62963750Y-118852000D01*
X62840000Y-118975750D01*
X62716250Y-118852000D01*
X62713000Y-118852000D01*
X62713000Y-118848750D01*
X62589250Y-118725000D01*
X62713000Y-118601250D01*
X62713000Y-118598000D01*
X62716250Y-118598000D01*
X62840000Y-118474250D01*
X62963750Y-118598000D01*
X62963750Y-118598000D01*
G37*
X62963750Y-118598000D02*
X62967000Y-118598000D01*
X62967000Y-118601250D01*
X63090750Y-118725000D01*
X62967000Y-118848750D01*
X62967000Y-118852000D01*
X62963750Y-118852000D01*
X62840000Y-118975750D01*
X62716250Y-118852000D01*
X62713000Y-118852000D01*
X62713000Y-118848750D01*
X62589250Y-118725000D01*
X62713000Y-118601250D01*
X62713000Y-118598000D01*
X62716250Y-118598000D01*
X62840000Y-118474250D01*
X62963750Y-118598000D01*
G36*
X67763750Y-118598000D02*
X67767000Y-118598000D01*
X67767000Y-118601250D01*
X67890750Y-118725000D01*
X67767000Y-118848750D01*
X67767000Y-118852000D01*
X67763750Y-118852000D01*
X67640000Y-118975750D01*
X67516250Y-118852000D01*
X67513000Y-118852000D01*
X67513000Y-118848750D01*
X67389250Y-118725000D01*
X67513000Y-118601250D01*
X67513000Y-118598000D01*
X67516250Y-118598000D01*
X67640000Y-118474250D01*
X67763750Y-118598000D01*
X67763750Y-118598000D01*
G37*
X67763750Y-118598000D02*
X67767000Y-118598000D01*
X67767000Y-118601250D01*
X67890750Y-118725000D01*
X67767000Y-118848750D01*
X67767000Y-118852000D01*
X67763750Y-118852000D01*
X67640000Y-118975750D01*
X67516250Y-118852000D01*
X67513000Y-118852000D01*
X67513000Y-118848750D01*
X67389250Y-118725000D01*
X67513000Y-118601250D01*
X67513000Y-118598000D01*
X67516250Y-118598000D01*
X67640000Y-118474250D01*
X67763750Y-118598000D01*
G36*
X68963750Y-118598000D02*
X68967000Y-118598000D01*
X68967000Y-118601250D01*
X69090750Y-118725000D01*
X68967000Y-118848750D01*
X68967000Y-118852000D01*
X68963750Y-118852000D01*
X68840000Y-118975750D01*
X68716250Y-118852000D01*
X68713000Y-118852000D01*
X68713000Y-118848750D01*
X68589250Y-118725000D01*
X68713000Y-118601250D01*
X68713000Y-118598000D01*
X68716250Y-118598000D01*
X68840000Y-118474250D01*
X68963750Y-118598000D01*
X68963750Y-118598000D01*
G37*
X68963750Y-118598000D02*
X68967000Y-118598000D01*
X68967000Y-118601250D01*
X69090750Y-118725000D01*
X68967000Y-118848750D01*
X68967000Y-118852000D01*
X68963750Y-118852000D01*
X68840000Y-118975750D01*
X68716250Y-118852000D01*
X68713000Y-118852000D01*
X68713000Y-118848750D01*
X68589250Y-118725000D01*
X68713000Y-118601250D01*
X68713000Y-118598000D01*
X68716250Y-118598000D01*
X68840000Y-118474250D01*
X68963750Y-118598000D01*
G36*
X66563750Y-118598000D02*
X66567000Y-118598000D01*
X66567000Y-118601250D01*
X66690750Y-118725000D01*
X66567000Y-118848750D01*
X66567000Y-118852000D01*
X66563750Y-118852000D01*
X66440000Y-118975750D01*
X66316250Y-118852000D01*
X66313000Y-118852000D01*
X66313000Y-118848750D01*
X66189250Y-118725000D01*
X66313000Y-118601250D01*
X66313000Y-118598000D01*
X66316250Y-118598000D01*
X66440000Y-118474250D01*
X66563750Y-118598000D01*
X66563750Y-118598000D01*
G37*
X66563750Y-118598000D02*
X66567000Y-118598000D01*
X66567000Y-118601250D01*
X66690750Y-118725000D01*
X66567000Y-118848750D01*
X66567000Y-118852000D01*
X66563750Y-118852000D01*
X66440000Y-118975750D01*
X66316250Y-118852000D01*
X66313000Y-118852000D01*
X66313000Y-118848750D01*
X66189250Y-118725000D01*
X66313000Y-118601250D01*
X66313000Y-118598000D01*
X66316250Y-118598000D01*
X66440000Y-118474250D01*
X66563750Y-118598000D01*
G36*
X65363750Y-118598000D02*
X65367000Y-118598000D01*
X65367000Y-118601250D01*
X65490750Y-118725000D01*
X65367000Y-118848750D01*
X65367000Y-118852000D01*
X65363750Y-118852000D01*
X65240000Y-118975750D01*
X65116250Y-118852000D01*
X65113000Y-118852000D01*
X65113000Y-118848750D01*
X64989250Y-118725000D01*
X65113000Y-118601250D01*
X65113000Y-118598000D01*
X65116250Y-118598000D01*
X65240000Y-118474250D01*
X65363750Y-118598000D01*
X65363750Y-118598000D01*
G37*
X65363750Y-118598000D02*
X65367000Y-118598000D01*
X65367000Y-118601250D01*
X65490750Y-118725000D01*
X65367000Y-118848750D01*
X65367000Y-118852000D01*
X65363750Y-118852000D01*
X65240000Y-118975750D01*
X65116250Y-118852000D01*
X65113000Y-118852000D01*
X65113000Y-118848750D01*
X64989250Y-118725000D01*
X65113000Y-118601250D01*
X65113000Y-118598000D01*
X65116250Y-118598000D01*
X65240000Y-118474250D01*
X65363750Y-118598000D01*
G36*
X64163750Y-118598000D02*
X64167000Y-118598000D01*
X64167000Y-118601250D01*
X64290750Y-118725000D01*
X64167000Y-118848750D01*
X64167000Y-118852000D01*
X64163750Y-118852000D01*
X64040000Y-118975750D01*
X63916250Y-118852000D01*
X63913000Y-118852000D01*
X63913000Y-118848750D01*
X63789250Y-118725000D01*
X63913000Y-118601250D01*
X63913000Y-118598000D01*
X63916250Y-118598000D01*
X64040000Y-118474250D01*
X64163750Y-118598000D01*
X64163750Y-118598000D01*
G37*
X64163750Y-118598000D02*
X64167000Y-118598000D01*
X64167000Y-118601250D01*
X64290750Y-118725000D01*
X64167000Y-118848750D01*
X64167000Y-118852000D01*
X64163750Y-118852000D01*
X64040000Y-118975750D01*
X63916250Y-118852000D01*
X63913000Y-118852000D01*
X63913000Y-118848750D01*
X63789250Y-118725000D01*
X63913000Y-118601250D01*
X63913000Y-118598000D01*
X63916250Y-118598000D01*
X64040000Y-118474250D01*
X64163750Y-118598000D01*
G36*
X65363750Y-117398000D02*
X65367000Y-117398000D01*
X65367000Y-117401250D01*
X65490750Y-117525000D01*
X65367000Y-117648750D01*
X65367000Y-117652000D01*
X65363750Y-117652000D01*
X65240000Y-117775750D01*
X65116250Y-117652000D01*
X65113000Y-117652000D01*
X65113000Y-117648750D01*
X64989250Y-117525000D01*
X65113000Y-117401250D01*
X65113000Y-117398000D01*
X65116250Y-117398000D01*
X65240000Y-117274250D01*
X65363750Y-117398000D01*
X65363750Y-117398000D01*
G37*
X65363750Y-117398000D02*
X65367000Y-117398000D01*
X65367000Y-117401250D01*
X65490750Y-117525000D01*
X65367000Y-117648750D01*
X65367000Y-117652000D01*
X65363750Y-117652000D01*
X65240000Y-117775750D01*
X65116250Y-117652000D01*
X65113000Y-117652000D01*
X65113000Y-117648750D01*
X64989250Y-117525000D01*
X65113000Y-117401250D01*
X65113000Y-117398000D01*
X65116250Y-117398000D01*
X65240000Y-117274250D01*
X65363750Y-117398000D01*
G36*
X66563750Y-117398000D02*
X66567000Y-117398000D01*
X66567000Y-117401250D01*
X66690750Y-117525000D01*
X66567000Y-117648750D01*
X66567000Y-117652000D01*
X66563750Y-117652000D01*
X66440000Y-117775750D01*
X66316250Y-117652000D01*
X66313000Y-117652000D01*
X66313000Y-117648750D01*
X66189250Y-117525000D01*
X66313000Y-117401250D01*
X66313000Y-117398000D01*
X66316250Y-117398000D01*
X66440000Y-117274250D01*
X66563750Y-117398000D01*
X66563750Y-117398000D01*
G37*
X66563750Y-117398000D02*
X66567000Y-117398000D01*
X66567000Y-117401250D01*
X66690750Y-117525000D01*
X66567000Y-117648750D01*
X66567000Y-117652000D01*
X66563750Y-117652000D01*
X66440000Y-117775750D01*
X66316250Y-117652000D01*
X66313000Y-117652000D01*
X66313000Y-117648750D01*
X66189250Y-117525000D01*
X66313000Y-117401250D01*
X66313000Y-117398000D01*
X66316250Y-117398000D01*
X66440000Y-117274250D01*
X66563750Y-117398000D01*
G36*
X67763750Y-117398000D02*
X67767000Y-117398000D01*
X67767000Y-117401250D01*
X67890750Y-117525000D01*
X67767000Y-117648750D01*
X67767000Y-117652000D01*
X67763750Y-117652000D01*
X67640000Y-117775750D01*
X67516250Y-117652000D01*
X67513000Y-117652000D01*
X67513000Y-117648750D01*
X67389250Y-117525000D01*
X67513000Y-117401250D01*
X67513000Y-117398000D01*
X67516250Y-117398000D01*
X67640000Y-117274250D01*
X67763750Y-117398000D01*
X67763750Y-117398000D01*
G37*
X67763750Y-117398000D02*
X67767000Y-117398000D01*
X67767000Y-117401250D01*
X67890750Y-117525000D01*
X67767000Y-117648750D01*
X67767000Y-117652000D01*
X67763750Y-117652000D01*
X67640000Y-117775750D01*
X67516250Y-117652000D01*
X67513000Y-117652000D01*
X67513000Y-117648750D01*
X67389250Y-117525000D01*
X67513000Y-117401250D01*
X67513000Y-117398000D01*
X67516250Y-117398000D01*
X67640000Y-117274250D01*
X67763750Y-117398000D01*
G36*
X68963750Y-117398000D02*
X68967000Y-117398000D01*
X68967000Y-117401250D01*
X69090750Y-117525000D01*
X68967000Y-117648750D01*
X68967000Y-117652000D01*
X68963750Y-117652000D01*
X68840000Y-117775750D01*
X68716250Y-117652000D01*
X68713000Y-117652000D01*
X68713000Y-117648750D01*
X68589250Y-117525000D01*
X68713000Y-117401250D01*
X68713000Y-117398000D01*
X68716250Y-117398000D01*
X68840000Y-117274250D01*
X68963750Y-117398000D01*
X68963750Y-117398000D01*
G37*
X68963750Y-117398000D02*
X68967000Y-117398000D01*
X68967000Y-117401250D01*
X69090750Y-117525000D01*
X68967000Y-117648750D01*
X68967000Y-117652000D01*
X68963750Y-117652000D01*
X68840000Y-117775750D01*
X68716250Y-117652000D01*
X68713000Y-117652000D01*
X68713000Y-117648750D01*
X68589250Y-117525000D01*
X68713000Y-117401250D01*
X68713000Y-117398000D01*
X68716250Y-117398000D01*
X68840000Y-117274250D01*
X68963750Y-117398000D01*
G36*
X64163750Y-117398000D02*
X64167000Y-117398000D01*
X64167000Y-117401250D01*
X64290750Y-117525000D01*
X64167000Y-117648750D01*
X64167000Y-117652000D01*
X64163750Y-117652000D01*
X64040000Y-117775750D01*
X63916250Y-117652000D01*
X63913000Y-117652000D01*
X63913000Y-117648750D01*
X63789250Y-117525000D01*
X63913000Y-117401250D01*
X63913000Y-117398000D01*
X63916250Y-117398000D01*
X64040000Y-117274250D01*
X64163750Y-117398000D01*
X64163750Y-117398000D01*
G37*
X64163750Y-117398000D02*
X64167000Y-117398000D01*
X64167000Y-117401250D01*
X64290750Y-117525000D01*
X64167000Y-117648750D01*
X64167000Y-117652000D01*
X64163750Y-117652000D01*
X64040000Y-117775750D01*
X63916250Y-117652000D01*
X63913000Y-117652000D01*
X63913000Y-117648750D01*
X63789250Y-117525000D01*
X63913000Y-117401250D01*
X63913000Y-117398000D01*
X63916250Y-117398000D01*
X64040000Y-117274250D01*
X64163750Y-117398000D01*
G36*
X62963750Y-117398000D02*
X62967000Y-117398000D01*
X62967000Y-117401250D01*
X63090750Y-117525000D01*
X62967000Y-117648750D01*
X62967000Y-117652000D01*
X62963750Y-117652000D01*
X62840000Y-117775750D01*
X62716250Y-117652000D01*
X62713000Y-117652000D01*
X62713000Y-117648750D01*
X62589250Y-117525000D01*
X62713000Y-117401250D01*
X62713000Y-117398000D01*
X62716250Y-117398000D01*
X62840000Y-117274250D01*
X62963750Y-117398000D01*
X62963750Y-117398000D01*
G37*
X62963750Y-117398000D02*
X62967000Y-117398000D01*
X62967000Y-117401250D01*
X63090750Y-117525000D01*
X62967000Y-117648750D01*
X62967000Y-117652000D01*
X62963750Y-117652000D01*
X62840000Y-117775750D01*
X62716250Y-117652000D01*
X62713000Y-117652000D01*
X62713000Y-117648750D01*
X62589250Y-117525000D01*
X62713000Y-117401250D01*
X62713000Y-117398000D01*
X62716250Y-117398000D01*
X62840000Y-117274250D01*
X62963750Y-117398000D01*
G36*
X68963750Y-116198000D02*
X68967000Y-116198000D01*
X68967000Y-116201250D01*
X69090750Y-116325000D01*
X68967000Y-116448750D01*
X68967000Y-116452000D01*
X68963750Y-116452000D01*
X68840000Y-116575750D01*
X68716250Y-116452000D01*
X68713000Y-116452000D01*
X68713000Y-116448750D01*
X68589250Y-116325000D01*
X68713000Y-116201250D01*
X68713000Y-116198000D01*
X68716250Y-116198000D01*
X68840000Y-116074250D01*
X68963750Y-116198000D01*
X68963750Y-116198000D01*
G37*
X68963750Y-116198000D02*
X68967000Y-116198000D01*
X68967000Y-116201250D01*
X69090750Y-116325000D01*
X68967000Y-116448750D01*
X68967000Y-116452000D01*
X68963750Y-116452000D01*
X68840000Y-116575750D01*
X68716250Y-116452000D01*
X68713000Y-116452000D01*
X68713000Y-116448750D01*
X68589250Y-116325000D01*
X68713000Y-116201250D01*
X68713000Y-116198000D01*
X68716250Y-116198000D01*
X68840000Y-116074250D01*
X68963750Y-116198000D01*
G36*
X67763750Y-116198000D02*
X67767000Y-116198000D01*
X67767000Y-116201250D01*
X67890750Y-116325000D01*
X67767000Y-116448750D01*
X67767000Y-116452000D01*
X67763750Y-116452000D01*
X67640000Y-116575750D01*
X67516250Y-116452000D01*
X67513000Y-116452000D01*
X67513000Y-116448750D01*
X67389250Y-116325000D01*
X67513000Y-116201250D01*
X67513000Y-116198000D01*
X67516250Y-116198000D01*
X67640000Y-116074250D01*
X67763750Y-116198000D01*
X67763750Y-116198000D01*
G37*
X67763750Y-116198000D02*
X67767000Y-116198000D01*
X67767000Y-116201250D01*
X67890750Y-116325000D01*
X67767000Y-116448750D01*
X67767000Y-116452000D01*
X67763750Y-116452000D01*
X67640000Y-116575750D01*
X67516250Y-116452000D01*
X67513000Y-116452000D01*
X67513000Y-116448750D01*
X67389250Y-116325000D01*
X67513000Y-116201250D01*
X67513000Y-116198000D01*
X67516250Y-116198000D01*
X67640000Y-116074250D01*
X67763750Y-116198000D01*
G36*
X66563750Y-116198000D02*
X66567000Y-116198000D01*
X66567000Y-116201250D01*
X66690750Y-116325000D01*
X66567000Y-116448750D01*
X66567000Y-116452000D01*
X66563750Y-116452000D01*
X66440000Y-116575750D01*
X66316250Y-116452000D01*
X66313000Y-116452000D01*
X66313000Y-116448750D01*
X66189250Y-116325000D01*
X66313000Y-116201250D01*
X66313000Y-116198000D01*
X66316250Y-116198000D01*
X66440000Y-116074250D01*
X66563750Y-116198000D01*
X66563750Y-116198000D01*
G37*
X66563750Y-116198000D02*
X66567000Y-116198000D01*
X66567000Y-116201250D01*
X66690750Y-116325000D01*
X66567000Y-116448750D01*
X66567000Y-116452000D01*
X66563750Y-116452000D01*
X66440000Y-116575750D01*
X66316250Y-116452000D01*
X66313000Y-116452000D01*
X66313000Y-116448750D01*
X66189250Y-116325000D01*
X66313000Y-116201250D01*
X66313000Y-116198000D01*
X66316250Y-116198000D01*
X66440000Y-116074250D01*
X66563750Y-116198000D01*
G36*
X65363750Y-116198000D02*
X65367000Y-116198000D01*
X65367000Y-116201250D01*
X65490750Y-116325000D01*
X65367000Y-116448750D01*
X65367000Y-116452000D01*
X65363750Y-116452000D01*
X65240000Y-116575750D01*
X65116250Y-116452000D01*
X65113000Y-116452000D01*
X65113000Y-116448750D01*
X64989250Y-116325000D01*
X65113000Y-116201250D01*
X65113000Y-116198000D01*
X65116250Y-116198000D01*
X65240000Y-116074250D01*
X65363750Y-116198000D01*
X65363750Y-116198000D01*
G37*
X65363750Y-116198000D02*
X65367000Y-116198000D01*
X65367000Y-116201250D01*
X65490750Y-116325000D01*
X65367000Y-116448750D01*
X65367000Y-116452000D01*
X65363750Y-116452000D01*
X65240000Y-116575750D01*
X65116250Y-116452000D01*
X65113000Y-116452000D01*
X65113000Y-116448750D01*
X64989250Y-116325000D01*
X65113000Y-116201250D01*
X65113000Y-116198000D01*
X65116250Y-116198000D01*
X65240000Y-116074250D01*
X65363750Y-116198000D01*
G36*
X64163750Y-116198000D02*
X64167000Y-116198000D01*
X64167000Y-116201250D01*
X64290750Y-116325000D01*
X64167000Y-116448750D01*
X64167000Y-116452000D01*
X64163750Y-116452000D01*
X64040000Y-116575750D01*
X63916250Y-116452000D01*
X63913000Y-116452000D01*
X63913000Y-116448750D01*
X63789250Y-116325000D01*
X63913000Y-116201250D01*
X63913000Y-116198000D01*
X63916250Y-116198000D01*
X64040000Y-116074250D01*
X64163750Y-116198000D01*
X64163750Y-116198000D01*
G37*
X64163750Y-116198000D02*
X64167000Y-116198000D01*
X64167000Y-116201250D01*
X64290750Y-116325000D01*
X64167000Y-116448750D01*
X64167000Y-116452000D01*
X64163750Y-116452000D01*
X64040000Y-116575750D01*
X63916250Y-116452000D01*
X63913000Y-116452000D01*
X63913000Y-116448750D01*
X63789250Y-116325000D01*
X63913000Y-116201250D01*
X63913000Y-116198000D01*
X63916250Y-116198000D01*
X64040000Y-116074250D01*
X64163750Y-116198000D01*
G36*
X62963750Y-116198000D02*
X62967000Y-116198000D01*
X62967000Y-116201250D01*
X63090750Y-116325000D01*
X62967000Y-116448750D01*
X62967000Y-116452000D01*
X62963750Y-116452000D01*
X62840000Y-116575750D01*
X62716250Y-116452000D01*
X62713000Y-116452000D01*
X62713000Y-116448750D01*
X62589250Y-116325000D01*
X62713000Y-116201250D01*
X62713000Y-116198000D01*
X62716250Y-116198000D01*
X62840000Y-116074250D01*
X62963750Y-116198000D01*
X62963750Y-116198000D01*
G37*
X62963750Y-116198000D02*
X62967000Y-116198000D01*
X62967000Y-116201250D01*
X63090750Y-116325000D01*
X62967000Y-116448750D01*
X62967000Y-116452000D01*
X62963750Y-116452000D01*
X62840000Y-116575750D01*
X62716250Y-116452000D01*
X62713000Y-116452000D01*
X62713000Y-116448750D01*
X62589250Y-116325000D01*
X62713000Y-116201250D01*
X62713000Y-116198000D01*
X62716250Y-116198000D01*
X62840000Y-116074250D01*
X62963750Y-116198000D01*
G36*
X71873000Y-124123000D02*
X58877000Y-124123000D01*
X58877000Y-122610750D01*
X60405000Y-122610750D01*
X60405000Y-123051310D01*
X60501673Y-123284699D01*
X60680302Y-123463327D01*
X60913691Y-123560000D01*
X61354250Y-123560000D01*
X61513000Y-123401250D01*
X61513000Y-122610750D01*
X61605000Y-122610750D01*
X61605000Y-123051310D01*
X61701673Y-123284699D01*
X61767000Y-123350026D01*
X61767000Y-123401250D01*
X61925750Y-123560000D01*
X62554250Y-123560000D01*
X62713000Y-123401250D01*
X62713000Y-123350026D01*
X62778327Y-123284699D01*
X62840000Y-123135807D01*
X62901673Y-123284699D01*
X62967000Y-123350026D01*
X62967000Y-123401250D01*
X63125750Y-123560000D01*
X63754250Y-123560000D01*
X63913000Y-123401250D01*
X63913000Y-123350026D01*
X63978327Y-123284699D01*
X64040000Y-123135807D01*
X64101673Y-123284699D01*
X64167000Y-123350026D01*
X64167000Y-123401250D01*
X64325750Y-123560000D01*
X64954250Y-123560000D01*
X65113000Y-123401250D01*
X65113000Y-123350026D01*
X65178327Y-123284699D01*
X65240000Y-123135807D01*
X65301673Y-123284699D01*
X65367000Y-123350026D01*
X65367000Y-123401250D01*
X65525750Y-123560000D01*
X66154250Y-123560000D01*
X66313000Y-123401250D01*
X66313000Y-123350026D01*
X66378327Y-123284699D01*
X66440000Y-123135807D01*
X66501673Y-123284699D01*
X66567000Y-123350026D01*
X66567000Y-123401250D01*
X66725750Y-123560000D01*
X67354250Y-123560000D01*
X67513000Y-123401250D01*
X67513000Y-123350026D01*
X67578327Y-123284699D01*
X67640000Y-123135807D01*
X67701673Y-123284699D01*
X67767000Y-123350026D01*
X67767000Y-123401250D01*
X67925750Y-123560000D01*
X68554250Y-123560000D01*
X68713000Y-123401250D01*
X68713000Y-123350026D01*
X68778327Y-123284699D01*
X68840000Y-123135807D01*
X68901673Y-123284699D01*
X68967000Y-123350026D01*
X68967000Y-123401250D01*
X69125750Y-123560000D01*
X69754250Y-123560000D01*
X69913000Y-123401250D01*
X69913000Y-123350026D01*
X69978327Y-123284699D01*
X70075000Y-123051310D01*
X70075000Y-122610750D01*
X69916250Y-122452000D01*
X70167000Y-122452000D01*
X70167000Y-123401250D01*
X70325750Y-123560000D01*
X70766309Y-123560000D01*
X70999698Y-123463327D01*
X71178327Y-123284699D01*
X71275000Y-123051310D01*
X71275000Y-122610750D01*
X71116250Y-122452000D01*
X70167000Y-122452000D01*
X69916250Y-122452000D01*
X68963750Y-122452000D01*
X68840000Y-122575750D01*
X68716250Y-122452000D01*
X67763750Y-122452000D01*
X67640000Y-122575750D01*
X67516250Y-122452000D01*
X66563750Y-122452000D01*
X66440000Y-122575750D01*
X66316250Y-122452000D01*
X65363750Y-122452000D01*
X65240000Y-122575750D01*
X65116250Y-122452000D01*
X64163750Y-122452000D01*
X64040000Y-122575750D01*
X63916250Y-122452000D01*
X62963750Y-122452000D01*
X62840000Y-122575750D01*
X62716250Y-122452000D01*
X61763750Y-122452000D01*
X61605000Y-122610750D01*
X61513000Y-122610750D01*
X61513000Y-122452000D01*
X60563750Y-122452000D01*
X60405000Y-122610750D01*
X58877000Y-122610750D01*
X58877000Y-115410750D01*
X60405000Y-115410750D01*
X60405000Y-116039250D01*
X60563750Y-116198000D01*
X60614975Y-116198000D01*
X60680302Y-116263327D01*
X60829194Y-116325000D01*
X60680302Y-116386673D01*
X60614975Y-116452000D01*
X60563750Y-116452000D01*
X60405000Y-116610750D01*
X60405000Y-117239250D01*
X60563750Y-117398000D01*
X60614975Y-117398000D01*
X60680302Y-117463327D01*
X60829194Y-117525000D01*
X60680302Y-117586673D01*
X60614975Y-117652000D01*
X60563750Y-117652000D01*
X60405000Y-117810750D01*
X60405000Y-118439250D01*
X60563750Y-118598000D01*
X60614975Y-118598000D01*
X60680302Y-118663327D01*
X60829194Y-118725000D01*
X60680302Y-118786673D01*
X60614975Y-118852000D01*
X60563750Y-118852000D01*
X60405000Y-119010750D01*
X60405000Y-119639250D01*
X60563750Y-119798000D01*
X60614975Y-119798000D01*
X60680302Y-119863327D01*
X60829194Y-119925000D01*
X60680302Y-119986673D01*
X60614975Y-120052000D01*
X60563750Y-120052000D01*
X60405000Y-120210750D01*
X60405000Y-120839250D01*
X60563750Y-120998000D01*
X60614975Y-120998000D01*
X60680302Y-121063327D01*
X60829194Y-121125000D01*
X60680302Y-121186673D01*
X60614975Y-121252000D01*
X60563750Y-121252000D01*
X60405000Y-121410750D01*
X60405000Y-122039250D01*
X60563750Y-122198000D01*
X60614975Y-122198000D01*
X60680302Y-122263327D01*
X60913691Y-122360000D01*
X61354250Y-122360000D01*
X61513000Y-122201250D01*
X61513000Y-121248750D01*
X61389250Y-121125000D01*
X61513000Y-121001250D01*
X61513000Y-120048750D01*
X61389250Y-119925000D01*
X61513000Y-119801250D01*
X61513000Y-118848750D01*
X61389250Y-118725000D01*
X61513000Y-118601250D01*
X61513000Y-117648750D01*
X61389250Y-117525000D01*
X61513000Y-117401250D01*
X61513000Y-116448750D01*
X61389250Y-116325000D01*
X61513000Y-116201250D01*
X61513000Y-115410750D01*
X61605000Y-115410750D01*
X61605000Y-116039250D01*
X61763750Y-116198000D01*
X61767000Y-116198000D01*
X61767000Y-116201250D01*
X61890750Y-116325000D01*
X61767000Y-116448750D01*
X61767000Y-116452000D01*
X61763750Y-116452000D01*
X61605000Y-116610750D01*
X61605000Y-117239250D01*
X61763750Y-117398000D01*
X61767000Y-117398000D01*
X61767000Y-117401250D01*
X61890750Y-117525000D01*
X61767000Y-117648750D01*
X61767000Y-117652000D01*
X61763750Y-117652000D01*
X61605000Y-117810750D01*
X61605000Y-118439250D01*
X61763750Y-118598000D01*
X61767000Y-118598000D01*
X61767000Y-118601250D01*
X61890750Y-118725000D01*
X61767000Y-118848750D01*
X61767000Y-118852000D01*
X61763750Y-118852000D01*
X61605000Y-119010750D01*
X61605000Y-119639250D01*
X61763750Y-119798000D01*
X61767000Y-119798000D01*
X61767000Y-119801250D01*
X61890750Y-119925000D01*
X61767000Y-120048750D01*
X61767000Y-120052000D01*
X61763750Y-120052000D01*
X61605000Y-120210750D01*
X61605000Y-120839250D01*
X61763750Y-120998000D01*
X61767000Y-120998000D01*
X61767000Y-121001250D01*
X61890750Y-121125000D01*
X61767000Y-121248750D01*
X61767000Y-121252000D01*
X61763750Y-121252000D01*
X61605000Y-121410750D01*
X61605000Y-122039250D01*
X61763750Y-122198000D01*
X61767000Y-122198000D01*
X61767000Y-122201250D01*
X61925750Y-122360000D01*
X62554250Y-122360000D01*
X62713000Y-122201250D01*
X62713000Y-122198000D01*
X62716250Y-122198000D01*
X62840000Y-122074250D01*
X62963750Y-122198000D01*
X62967000Y-122198000D01*
X62967000Y-122201250D01*
X63125750Y-122360000D01*
X63754250Y-122360000D01*
X63913000Y-122201250D01*
X63913000Y-122198000D01*
X63916250Y-122198000D01*
X64040000Y-122074250D01*
X64163750Y-122198000D01*
X64167000Y-122198000D01*
X64167000Y-122201250D01*
X64325750Y-122360000D01*
X64954250Y-122360000D01*
X65113000Y-122201250D01*
X65113000Y-122198000D01*
X65116250Y-122198000D01*
X65240000Y-122074250D01*
X65363750Y-122198000D01*
X65367000Y-122198000D01*
X65367000Y-122201250D01*
X65525750Y-122360000D01*
X66154250Y-122360000D01*
X66313000Y-122201250D01*
X66313000Y-122198000D01*
X66316250Y-122198000D01*
X66440000Y-122074250D01*
X66563750Y-122198000D01*
X66567000Y-122198000D01*
X66567000Y-122201250D01*
X66725750Y-122360000D01*
X67354250Y-122360000D01*
X67513000Y-122201250D01*
X67513000Y-122198000D01*
X67516250Y-122198000D01*
X67640000Y-122074250D01*
X67763750Y-122198000D01*
X67767000Y-122198000D01*
X67767000Y-122201250D01*
X67925750Y-122360000D01*
X68554250Y-122360000D01*
X68713000Y-122201250D01*
X68713000Y-122198000D01*
X68716250Y-122198000D01*
X68840000Y-122074250D01*
X68963750Y-122198000D01*
X68967000Y-122198000D01*
X68967000Y-122201250D01*
X69125750Y-122360000D01*
X69754250Y-122360000D01*
X69913000Y-122201250D01*
X69913000Y-122198000D01*
X69916250Y-122198000D01*
X70075000Y-122039250D01*
X70075000Y-121410750D01*
X69916250Y-121252000D01*
X69913000Y-121252000D01*
X69913000Y-121248750D01*
X69789250Y-121125000D01*
X69913000Y-121001250D01*
X69913000Y-120998000D01*
X69916250Y-120998000D01*
X70075000Y-120839250D01*
X70075000Y-120210750D01*
X69916250Y-120052000D01*
X69913000Y-120052000D01*
X69913000Y-120048750D01*
X69789250Y-119925000D01*
X69913000Y-119801250D01*
X69913000Y-119798000D01*
X69916250Y-119798000D01*
X70075000Y-119639250D01*
X70075000Y-119010750D01*
X69916250Y-118852000D01*
X69913000Y-118852000D01*
X69913000Y-118848750D01*
X69789250Y-118725000D01*
X69913000Y-118601250D01*
X69913000Y-118598000D01*
X69916250Y-118598000D01*
X70075000Y-118439250D01*
X70075000Y-117810750D01*
X69916250Y-117652000D01*
X69913000Y-117652000D01*
X69913000Y-117648750D01*
X69789250Y-117525000D01*
X69913000Y-117401250D01*
X69913000Y-117398000D01*
X69916250Y-117398000D01*
X70075000Y-117239250D01*
X70075000Y-116610750D01*
X69916250Y-116452000D01*
X69913000Y-116452000D01*
X69913000Y-116448750D01*
X69789250Y-116325000D01*
X69913000Y-116201250D01*
X69913000Y-116198000D01*
X69916250Y-116198000D01*
X70075000Y-116039250D01*
X70075000Y-115410750D01*
X69916250Y-115252000D01*
X69913000Y-115252000D01*
X69913000Y-115248750D01*
X70167000Y-115248750D01*
X70167000Y-116201250D01*
X70290750Y-116325000D01*
X70167000Y-116448750D01*
X70167000Y-117401250D01*
X70290750Y-117525000D01*
X70167000Y-117648750D01*
X70167000Y-118601250D01*
X70290750Y-118725000D01*
X70167000Y-118848750D01*
X70167000Y-119801250D01*
X70290750Y-119925000D01*
X70167000Y-120048750D01*
X70167000Y-121001250D01*
X70290750Y-121125000D01*
X70167000Y-121248750D01*
X70167000Y-122201250D01*
X70325750Y-122360000D01*
X70766309Y-122360000D01*
X70999698Y-122263327D01*
X71065025Y-122198000D01*
X71116250Y-122198000D01*
X71275000Y-122039250D01*
X71275000Y-121410750D01*
X71116250Y-121252000D01*
X71065025Y-121252000D01*
X70999698Y-121186673D01*
X70850806Y-121125000D01*
X70999698Y-121063327D01*
X71065025Y-120998000D01*
X71116250Y-120998000D01*
X71275000Y-120839250D01*
X71275000Y-120210750D01*
X71116250Y-120052000D01*
X71065025Y-120052000D01*
X70999698Y-119986673D01*
X70850806Y-119925000D01*
X70999698Y-119863327D01*
X71065025Y-119798000D01*
X71116250Y-119798000D01*
X71275000Y-119639250D01*
X71275000Y-119010750D01*
X71116250Y-118852000D01*
X71065025Y-118852000D01*
X70999698Y-118786673D01*
X70850806Y-118725000D01*
X70999698Y-118663327D01*
X71065025Y-118598000D01*
X71116250Y-118598000D01*
X71275000Y-118439250D01*
X71275000Y-117810750D01*
X71116250Y-117652000D01*
X71065025Y-117652000D01*
X70999698Y-117586673D01*
X70850806Y-117525000D01*
X70999698Y-117463327D01*
X71065025Y-117398000D01*
X71116250Y-117398000D01*
X71275000Y-117239250D01*
X71275000Y-116610750D01*
X71116250Y-116452000D01*
X71065025Y-116452000D01*
X70999698Y-116386673D01*
X70850806Y-116325000D01*
X70999698Y-116263327D01*
X71065025Y-116198000D01*
X71116250Y-116198000D01*
X71275000Y-116039250D01*
X71275000Y-115410750D01*
X71116250Y-115252000D01*
X71065025Y-115252000D01*
X70999698Y-115186673D01*
X70766309Y-115090000D01*
X70325750Y-115090000D01*
X70167000Y-115248750D01*
X69913000Y-115248750D01*
X69754250Y-115090000D01*
X69125750Y-115090000D01*
X68967000Y-115248750D01*
X68967000Y-115252000D01*
X68963750Y-115252000D01*
X68840000Y-115375750D01*
X68716250Y-115252000D01*
X68713000Y-115252000D01*
X68713000Y-115248750D01*
X68554250Y-115090000D01*
X67925750Y-115090000D01*
X67767000Y-115248750D01*
X67767000Y-115252000D01*
X67763750Y-115252000D01*
X67640000Y-115375750D01*
X67516250Y-115252000D01*
X67513000Y-115252000D01*
X67513000Y-115248750D01*
X67354250Y-115090000D01*
X66725750Y-115090000D01*
X66567000Y-115248750D01*
X66567000Y-115252000D01*
X66563750Y-115252000D01*
X66440000Y-115375750D01*
X66316250Y-115252000D01*
X66313000Y-115252000D01*
X66313000Y-115248750D01*
X66154250Y-115090000D01*
X65525750Y-115090000D01*
X65367000Y-115248750D01*
X65367000Y-115252000D01*
X65363750Y-115252000D01*
X65240000Y-115375750D01*
X65116250Y-115252000D01*
X65113000Y-115252000D01*
X65113000Y-115248750D01*
X64954250Y-115090000D01*
X64325750Y-115090000D01*
X64167000Y-115248750D01*
X64167000Y-115252000D01*
X64163750Y-115252000D01*
X64040000Y-115375750D01*
X63916250Y-115252000D01*
X63913000Y-115252000D01*
X63913000Y-115248750D01*
X63754250Y-115090000D01*
X63125750Y-115090000D01*
X62967000Y-115248750D01*
X62967000Y-115252000D01*
X62963750Y-115252000D01*
X62840000Y-115375750D01*
X62716250Y-115252000D01*
X62713000Y-115252000D01*
X62713000Y-115248750D01*
X62554250Y-115090000D01*
X61925750Y-115090000D01*
X61767000Y-115248750D01*
X61767000Y-115252000D01*
X61763750Y-115252000D01*
X61605000Y-115410750D01*
X61513000Y-115410750D01*
X61513000Y-115248750D01*
X61354250Y-115090000D01*
X60913691Y-115090000D01*
X60680302Y-115186673D01*
X60614975Y-115252000D01*
X60563750Y-115252000D01*
X60405000Y-115410750D01*
X58877000Y-115410750D01*
X58877000Y-114398690D01*
X60405000Y-114398690D01*
X60405000Y-114839250D01*
X60563750Y-114998000D01*
X61513000Y-114998000D01*
X61513000Y-114398690D01*
X61605000Y-114398690D01*
X61605000Y-114839250D01*
X61763750Y-114998000D01*
X62716250Y-114998000D01*
X62840000Y-114874250D01*
X62963750Y-114998000D01*
X63916250Y-114998000D01*
X64040000Y-114874250D01*
X64163750Y-114998000D01*
X65116250Y-114998000D01*
X65240000Y-114874250D01*
X65363750Y-114998000D01*
X66316250Y-114998000D01*
X66440000Y-114874250D01*
X66563750Y-114998000D01*
X67516250Y-114998000D01*
X67640000Y-114874250D01*
X67763750Y-114998000D01*
X68716250Y-114998000D01*
X68840000Y-114874250D01*
X68963750Y-114998000D01*
X69916250Y-114998000D01*
X70075000Y-114839250D01*
X70075000Y-114398690D01*
X69978327Y-114165301D01*
X69913000Y-114099974D01*
X69913000Y-114048750D01*
X70167000Y-114048750D01*
X70167000Y-114998000D01*
X71116250Y-114998000D01*
X71275000Y-114839250D01*
X71275000Y-114398690D01*
X71178327Y-114165301D01*
X70999698Y-113986673D01*
X70766309Y-113890000D01*
X70325750Y-113890000D01*
X70167000Y-114048750D01*
X69913000Y-114048750D01*
X69754250Y-113890000D01*
X69125750Y-113890000D01*
X68967000Y-114048750D01*
X68967000Y-114099974D01*
X68901673Y-114165301D01*
X68840000Y-114314193D01*
X68778327Y-114165301D01*
X68713000Y-114099974D01*
X68713000Y-114048750D01*
X68554250Y-113890000D01*
X67925750Y-113890000D01*
X67767000Y-114048750D01*
X67767000Y-114099974D01*
X67701673Y-114165301D01*
X67640000Y-114314193D01*
X67578327Y-114165301D01*
X67513000Y-114099974D01*
X67513000Y-114048750D01*
X67354250Y-113890000D01*
X66725750Y-113890000D01*
X66567000Y-114048750D01*
X66567000Y-114099974D01*
X66501673Y-114165301D01*
X66440000Y-114314193D01*
X66378327Y-114165301D01*
X66313000Y-114099974D01*
X66313000Y-114048750D01*
X66154250Y-113890000D01*
X65525750Y-113890000D01*
X65367000Y-114048750D01*
X65367000Y-114099974D01*
X65301673Y-114165301D01*
X65240000Y-114314193D01*
X65178327Y-114165301D01*
X65113000Y-114099974D01*
X65113000Y-114048750D01*
X64954250Y-113890000D01*
X64325750Y-113890000D01*
X64167000Y-114048750D01*
X64167000Y-114099974D01*
X64101673Y-114165301D01*
X64040000Y-114314193D01*
X63978327Y-114165301D01*
X63913000Y-114099974D01*
X63913000Y-114048750D01*
X63754250Y-113890000D01*
X63125750Y-113890000D01*
X62967000Y-114048750D01*
X62967000Y-114099974D01*
X62901673Y-114165301D01*
X62840000Y-114314193D01*
X62778327Y-114165301D01*
X62713000Y-114099974D01*
X62713000Y-114048750D01*
X62554250Y-113890000D01*
X61925750Y-113890000D01*
X61767000Y-114048750D01*
X61767000Y-114099974D01*
X61701673Y-114165301D01*
X61605000Y-114398690D01*
X61513000Y-114398690D01*
X61513000Y-114048750D01*
X61354250Y-113890000D01*
X60913691Y-113890000D01*
X60680302Y-113986673D01*
X60501673Y-114165301D01*
X60405000Y-114398690D01*
X58877000Y-114398690D01*
X58877000Y-112627000D01*
X71873000Y-112627000D01*
X71873000Y-124123000D01*
X71873000Y-124123000D01*
G37*
X71873000Y-124123000D02*
X58877000Y-124123000D01*
X58877000Y-122610750D01*
X60405000Y-122610750D01*
X60405000Y-123051310D01*
X60501673Y-123284699D01*
X60680302Y-123463327D01*
X60913691Y-123560000D01*
X61354250Y-123560000D01*
X61513000Y-123401250D01*
X61513000Y-122610750D01*
X61605000Y-122610750D01*
X61605000Y-123051310D01*
X61701673Y-123284699D01*
X61767000Y-123350026D01*
X61767000Y-123401250D01*
X61925750Y-123560000D01*
X62554250Y-123560000D01*
X62713000Y-123401250D01*
X62713000Y-123350026D01*
X62778327Y-123284699D01*
X62840000Y-123135807D01*
X62901673Y-123284699D01*
X62967000Y-123350026D01*
X62967000Y-123401250D01*
X63125750Y-123560000D01*
X63754250Y-123560000D01*
X63913000Y-123401250D01*
X63913000Y-123350026D01*
X63978327Y-123284699D01*
X64040000Y-123135807D01*
X64101673Y-123284699D01*
X64167000Y-123350026D01*
X64167000Y-123401250D01*
X64325750Y-123560000D01*
X64954250Y-123560000D01*
X65113000Y-123401250D01*
X65113000Y-123350026D01*
X65178327Y-123284699D01*
X65240000Y-123135807D01*
X65301673Y-123284699D01*
X65367000Y-123350026D01*
X65367000Y-123401250D01*
X65525750Y-123560000D01*
X66154250Y-123560000D01*
X66313000Y-123401250D01*
X66313000Y-123350026D01*
X66378327Y-123284699D01*
X66440000Y-123135807D01*
X66501673Y-123284699D01*
X66567000Y-123350026D01*
X66567000Y-123401250D01*
X66725750Y-123560000D01*
X67354250Y-123560000D01*
X67513000Y-123401250D01*
X67513000Y-123350026D01*
X67578327Y-123284699D01*
X67640000Y-123135807D01*
X67701673Y-123284699D01*
X67767000Y-123350026D01*
X67767000Y-123401250D01*
X67925750Y-123560000D01*
X68554250Y-123560000D01*
X68713000Y-123401250D01*
X68713000Y-123350026D01*
X68778327Y-123284699D01*
X68840000Y-123135807D01*
X68901673Y-123284699D01*
X68967000Y-123350026D01*
X68967000Y-123401250D01*
X69125750Y-123560000D01*
X69754250Y-123560000D01*
X69913000Y-123401250D01*
X69913000Y-123350026D01*
X69978327Y-123284699D01*
X70075000Y-123051310D01*
X70075000Y-122610750D01*
X69916250Y-122452000D01*
X70167000Y-122452000D01*
X70167000Y-123401250D01*
X70325750Y-123560000D01*
X70766309Y-123560000D01*
X70999698Y-123463327D01*
X71178327Y-123284699D01*
X71275000Y-123051310D01*
X71275000Y-122610750D01*
X71116250Y-122452000D01*
X70167000Y-122452000D01*
X69916250Y-122452000D01*
X68963750Y-122452000D01*
X68840000Y-122575750D01*
X68716250Y-122452000D01*
X67763750Y-122452000D01*
X67640000Y-122575750D01*
X67516250Y-122452000D01*
X66563750Y-122452000D01*
X66440000Y-122575750D01*
X66316250Y-122452000D01*
X65363750Y-122452000D01*
X65240000Y-122575750D01*
X65116250Y-122452000D01*
X64163750Y-122452000D01*
X64040000Y-122575750D01*
X63916250Y-122452000D01*
X62963750Y-122452000D01*
X62840000Y-122575750D01*
X62716250Y-122452000D01*
X61763750Y-122452000D01*
X61605000Y-122610750D01*
X61513000Y-122610750D01*
X61513000Y-122452000D01*
X60563750Y-122452000D01*
X60405000Y-122610750D01*
X58877000Y-122610750D01*
X58877000Y-115410750D01*
X60405000Y-115410750D01*
X60405000Y-116039250D01*
X60563750Y-116198000D01*
X60614975Y-116198000D01*
X60680302Y-116263327D01*
X60829194Y-116325000D01*
X60680302Y-116386673D01*
X60614975Y-116452000D01*
X60563750Y-116452000D01*
X60405000Y-116610750D01*
X60405000Y-117239250D01*
X60563750Y-117398000D01*
X60614975Y-117398000D01*
X60680302Y-117463327D01*
X60829194Y-117525000D01*
X60680302Y-117586673D01*
X60614975Y-117652000D01*
X60563750Y-117652000D01*
X60405000Y-117810750D01*
X60405000Y-118439250D01*
X60563750Y-118598000D01*
X60614975Y-118598000D01*
X60680302Y-118663327D01*
X60829194Y-118725000D01*
X60680302Y-118786673D01*
X60614975Y-118852000D01*
X60563750Y-118852000D01*
X60405000Y-119010750D01*
X60405000Y-119639250D01*
X60563750Y-119798000D01*
X60614975Y-119798000D01*
X60680302Y-119863327D01*
X60829194Y-119925000D01*
X60680302Y-119986673D01*
X60614975Y-120052000D01*
X60563750Y-120052000D01*
X60405000Y-120210750D01*
X60405000Y-120839250D01*
X60563750Y-120998000D01*
X60614975Y-120998000D01*
X60680302Y-121063327D01*
X60829194Y-121125000D01*
X60680302Y-121186673D01*
X60614975Y-121252000D01*
X60563750Y-121252000D01*
X60405000Y-121410750D01*
X60405000Y-122039250D01*
X60563750Y-122198000D01*
X60614975Y-122198000D01*
X60680302Y-122263327D01*
X60913691Y-122360000D01*
X61354250Y-122360000D01*
X61513000Y-122201250D01*
X61513000Y-121248750D01*
X61389250Y-121125000D01*
X61513000Y-121001250D01*
X61513000Y-120048750D01*
X61389250Y-119925000D01*
X61513000Y-119801250D01*
X61513000Y-118848750D01*
X61389250Y-118725000D01*
X61513000Y-118601250D01*
X61513000Y-117648750D01*
X61389250Y-117525000D01*
X61513000Y-117401250D01*
X61513000Y-116448750D01*
X61389250Y-116325000D01*
X61513000Y-116201250D01*
X61513000Y-115410750D01*
X61605000Y-115410750D01*
X61605000Y-116039250D01*
X61763750Y-116198000D01*
X61767000Y-116198000D01*
X61767000Y-116201250D01*
X61890750Y-116325000D01*
X61767000Y-116448750D01*
X61767000Y-116452000D01*
X61763750Y-116452000D01*
X61605000Y-116610750D01*
X61605000Y-117239250D01*
X61763750Y-117398000D01*
X61767000Y-117398000D01*
X61767000Y-117401250D01*
X61890750Y-117525000D01*
X61767000Y-117648750D01*
X61767000Y-117652000D01*
X61763750Y-117652000D01*
X61605000Y-117810750D01*
X61605000Y-118439250D01*
X61763750Y-118598000D01*
X61767000Y-118598000D01*
X61767000Y-118601250D01*
X61890750Y-118725000D01*
X61767000Y-118848750D01*
X61767000Y-118852000D01*
X61763750Y-118852000D01*
X61605000Y-119010750D01*
X61605000Y-119639250D01*
X61763750Y-119798000D01*
X61767000Y-119798000D01*
X61767000Y-119801250D01*
X61890750Y-119925000D01*
X61767000Y-120048750D01*
X61767000Y-120052000D01*
X61763750Y-120052000D01*
X61605000Y-120210750D01*
X61605000Y-120839250D01*
X61763750Y-120998000D01*
X61767000Y-120998000D01*
X61767000Y-121001250D01*
X61890750Y-121125000D01*
X61767000Y-121248750D01*
X61767000Y-121252000D01*
X61763750Y-121252000D01*
X61605000Y-121410750D01*
X61605000Y-122039250D01*
X61763750Y-122198000D01*
X61767000Y-122198000D01*
X61767000Y-122201250D01*
X61925750Y-122360000D01*
X62554250Y-122360000D01*
X62713000Y-122201250D01*
X62713000Y-122198000D01*
X62716250Y-122198000D01*
X62840000Y-122074250D01*
X62963750Y-122198000D01*
X62967000Y-122198000D01*
X62967000Y-122201250D01*
X63125750Y-122360000D01*
X63754250Y-122360000D01*
X63913000Y-122201250D01*
X63913000Y-122198000D01*
X63916250Y-122198000D01*
X64040000Y-122074250D01*
X64163750Y-122198000D01*
X64167000Y-122198000D01*
X64167000Y-122201250D01*
X64325750Y-122360000D01*
X64954250Y-122360000D01*
X65113000Y-122201250D01*
X65113000Y-122198000D01*
X65116250Y-122198000D01*
X65240000Y-122074250D01*
X65363750Y-122198000D01*
X65367000Y-122198000D01*
X65367000Y-122201250D01*
X65525750Y-122360000D01*
X66154250Y-122360000D01*
X66313000Y-122201250D01*
X66313000Y-122198000D01*
X66316250Y-122198000D01*
X66440000Y-122074250D01*
X66563750Y-122198000D01*
X66567000Y-122198000D01*
X66567000Y-122201250D01*
X66725750Y-122360000D01*
X67354250Y-122360000D01*
X67513000Y-122201250D01*
X67513000Y-122198000D01*
X67516250Y-122198000D01*
X67640000Y-122074250D01*
X67763750Y-122198000D01*
X67767000Y-122198000D01*
X67767000Y-122201250D01*
X67925750Y-122360000D01*
X68554250Y-122360000D01*
X68713000Y-122201250D01*
X68713000Y-122198000D01*
X68716250Y-122198000D01*
X68840000Y-122074250D01*
X68963750Y-122198000D01*
X68967000Y-122198000D01*
X68967000Y-122201250D01*
X69125750Y-122360000D01*
X69754250Y-122360000D01*
X69913000Y-122201250D01*
X69913000Y-122198000D01*
X69916250Y-122198000D01*
X70075000Y-122039250D01*
X70075000Y-121410750D01*
X69916250Y-121252000D01*
X69913000Y-121252000D01*
X69913000Y-121248750D01*
X69789250Y-121125000D01*
X69913000Y-121001250D01*
X69913000Y-120998000D01*
X69916250Y-120998000D01*
X70075000Y-120839250D01*
X70075000Y-120210750D01*
X69916250Y-120052000D01*
X69913000Y-120052000D01*
X69913000Y-120048750D01*
X69789250Y-119925000D01*
X69913000Y-119801250D01*
X69913000Y-119798000D01*
X69916250Y-119798000D01*
X70075000Y-119639250D01*
X70075000Y-119010750D01*
X69916250Y-118852000D01*
X69913000Y-118852000D01*
X69913000Y-118848750D01*
X69789250Y-118725000D01*
X69913000Y-118601250D01*
X69913000Y-118598000D01*
X69916250Y-118598000D01*
X70075000Y-118439250D01*
X70075000Y-117810750D01*
X69916250Y-117652000D01*
X69913000Y-117652000D01*
X69913000Y-117648750D01*
X69789250Y-117525000D01*
X69913000Y-117401250D01*
X69913000Y-117398000D01*
X69916250Y-117398000D01*
X70075000Y-117239250D01*
X70075000Y-116610750D01*
X69916250Y-116452000D01*
X69913000Y-116452000D01*
X69913000Y-116448750D01*
X69789250Y-116325000D01*
X69913000Y-116201250D01*
X69913000Y-116198000D01*
X69916250Y-116198000D01*
X70075000Y-116039250D01*
X70075000Y-115410750D01*
X69916250Y-115252000D01*
X69913000Y-115252000D01*
X69913000Y-115248750D01*
X70167000Y-115248750D01*
X70167000Y-116201250D01*
X70290750Y-116325000D01*
X70167000Y-116448750D01*
X70167000Y-117401250D01*
X70290750Y-117525000D01*
X70167000Y-117648750D01*
X70167000Y-118601250D01*
X70290750Y-118725000D01*
X70167000Y-118848750D01*
X70167000Y-119801250D01*
X70290750Y-119925000D01*
X70167000Y-120048750D01*
X70167000Y-121001250D01*
X70290750Y-121125000D01*
X70167000Y-121248750D01*
X70167000Y-122201250D01*
X70325750Y-122360000D01*
X70766309Y-122360000D01*
X70999698Y-122263327D01*
X71065025Y-122198000D01*
X71116250Y-122198000D01*
X71275000Y-122039250D01*
X71275000Y-121410750D01*
X71116250Y-121252000D01*
X71065025Y-121252000D01*
X70999698Y-121186673D01*
X70850806Y-121125000D01*
X70999698Y-121063327D01*
X71065025Y-120998000D01*
X71116250Y-120998000D01*
X71275000Y-120839250D01*
X71275000Y-120210750D01*
X71116250Y-120052000D01*
X71065025Y-120052000D01*
X70999698Y-119986673D01*
X70850806Y-119925000D01*
X70999698Y-119863327D01*
X71065025Y-119798000D01*
X71116250Y-119798000D01*
X71275000Y-119639250D01*
X71275000Y-119010750D01*
X71116250Y-118852000D01*
X71065025Y-118852000D01*
X70999698Y-118786673D01*
X70850806Y-118725000D01*
X70999698Y-118663327D01*
X71065025Y-118598000D01*
X71116250Y-118598000D01*
X71275000Y-118439250D01*
X71275000Y-117810750D01*
X71116250Y-117652000D01*
X71065025Y-117652000D01*
X70999698Y-117586673D01*
X70850806Y-117525000D01*
X70999698Y-117463327D01*
X71065025Y-117398000D01*
X71116250Y-117398000D01*
X71275000Y-117239250D01*
X71275000Y-116610750D01*
X71116250Y-116452000D01*
X71065025Y-116452000D01*
X70999698Y-116386673D01*
X70850806Y-116325000D01*
X70999698Y-116263327D01*
X71065025Y-116198000D01*
X71116250Y-116198000D01*
X71275000Y-116039250D01*
X71275000Y-115410750D01*
X71116250Y-115252000D01*
X71065025Y-115252000D01*
X70999698Y-115186673D01*
X70766309Y-115090000D01*
X70325750Y-115090000D01*
X70167000Y-115248750D01*
X69913000Y-115248750D01*
X69754250Y-115090000D01*
X69125750Y-115090000D01*
X68967000Y-115248750D01*
X68967000Y-115252000D01*
X68963750Y-115252000D01*
X68840000Y-115375750D01*
X68716250Y-115252000D01*
X68713000Y-115252000D01*
X68713000Y-115248750D01*
X68554250Y-115090000D01*
X67925750Y-115090000D01*
X67767000Y-115248750D01*
X67767000Y-115252000D01*
X67763750Y-115252000D01*
X67640000Y-115375750D01*
X67516250Y-115252000D01*
X67513000Y-115252000D01*
X67513000Y-115248750D01*
X67354250Y-115090000D01*
X66725750Y-115090000D01*
X66567000Y-115248750D01*
X66567000Y-115252000D01*
X66563750Y-115252000D01*
X66440000Y-115375750D01*
X66316250Y-115252000D01*
X66313000Y-115252000D01*
X66313000Y-115248750D01*
X66154250Y-115090000D01*
X65525750Y-115090000D01*
X65367000Y-115248750D01*
X65367000Y-115252000D01*
X65363750Y-115252000D01*
X65240000Y-115375750D01*
X65116250Y-115252000D01*
X65113000Y-115252000D01*
X65113000Y-115248750D01*
X64954250Y-115090000D01*
X64325750Y-115090000D01*
X64167000Y-115248750D01*
X64167000Y-115252000D01*
X64163750Y-115252000D01*
X64040000Y-115375750D01*
X63916250Y-115252000D01*
X63913000Y-115252000D01*
X63913000Y-115248750D01*
X63754250Y-115090000D01*
X63125750Y-115090000D01*
X62967000Y-115248750D01*
X62967000Y-115252000D01*
X62963750Y-115252000D01*
X62840000Y-115375750D01*
X62716250Y-115252000D01*
X62713000Y-115252000D01*
X62713000Y-115248750D01*
X62554250Y-115090000D01*
X61925750Y-115090000D01*
X61767000Y-115248750D01*
X61767000Y-115252000D01*
X61763750Y-115252000D01*
X61605000Y-115410750D01*
X61513000Y-115410750D01*
X61513000Y-115248750D01*
X61354250Y-115090000D01*
X60913691Y-115090000D01*
X60680302Y-115186673D01*
X60614975Y-115252000D01*
X60563750Y-115252000D01*
X60405000Y-115410750D01*
X58877000Y-115410750D01*
X58877000Y-114398690D01*
X60405000Y-114398690D01*
X60405000Y-114839250D01*
X60563750Y-114998000D01*
X61513000Y-114998000D01*
X61513000Y-114398690D01*
X61605000Y-114398690D01*
X61605000Y-114839250D01*
X61763750Y-114998000D01*
X62716250Y-114998000D01*
X62840000Y-114874250D01*
X62963750Y-114998000D01*
X63916250Y-114998000D01*
X64040000Y-114874250D01*
X64163750Y-114998000D01*
X65116250Y-114998000D01*
X65240000Y-114874250D01*
X65363750Y-114998000D01*
X66316250Y-114998000D01*
X66440000Y-114874250D01*
X66563750Y-114998000D01*
X67516250Y-114998000D01*
X67640000Y-114874250D01*
X67763750Y-114998000D01*
X68716250Y-114998000D01*
X68840000Y-114874250D01*
X68963750Y-114998000D01*
X69916250Y-114998000D01*
X70075000Y-114839250D01*
X70075000Y-114398690D01*
X69978327Y-114165301D01*
X69913000Y-114099974D01*
X69913000Y-114048750D01*
X70167000Y-114048750D01*
X70167000Y-114998000D01*
X71116250Y-114998000D01*
X71275000Y-114839250D01*
X71275000Y-114398690D01*
X71178327Y-114165301D01*
X70999698Y-113986673D01*
X70766309Y-113890000D01*
X70325750Y-113890000D01*
X70167000Y-114048750D01*
X69913000Y-114048750D01*
X69754250Y-113890000D01*
X69125750Y-113890000D01*
X68967000Y-114048750D01*
X68967000Y-114099974D01*
X68901673Y-114165301D01*
X68840000Y-114314193D01*
X68778327Y-114165301D01*
X68713000Y-114099974D01*
X68713000Y-114048750D01*
X68554250Y-113890000D01*
X67925750Y-113890000D01*
X67767000Y-114048750D01*
X67767000Y-114099974D01*
X67701673Y-114165301D01*
X67640000Y-114314193D01*
X67578327Y-114165301D01*
X67513000Y-114099974D01*
X67513000Y-114048750D01*
X67354250Y-113890000D01*
X66725750Y-113890000D01*
X66567000Y-114048750D01*
X66567000Y-114099974D01*
X66501673Y-114165301D01*
X66440000Y-114314193D01*
X66378327Y-114165301D01*
X66313000Y-114099974D01*
X66313000Y-114048750D01*
X66154250Y-113890000D01*
X65525750Y-113890000D01*
X65367000Y-114048750D01*
X65367000Y-114099974D01*
X65301673Y-114165301D01*
X65240000Y-114314193D01*
X65178327Y-114165301D01*
X65113000Y-114099974D01*
X65113000Y-114048750D01*
X64954250Y-113890000D01*
X64325750Y-113890000D01*
X64167000Y-114048750D01*
X64167000Y-114099974D01*
X64101673Y-114165301D01*
X64040000Y-114314193D01*
X63978327Y-114165301D01*
X63913000Y-114099974D01*
X63913000Y-114048750D01*
X63754250Y-113890000D01*
X63125750Y-113890000D01*
X62967000Y-114048750D01*
X62967000Y-114099974D01*
X62901673Y-114165301D01*
X62840000Y-114314193D01*
X62778327Y-114165301D01*
X62713000Y-114099974D01*
X62713000Y-114048750D01*
X62554250Y-113890000D01*
X61925750Y-113890000D01*
X61767000Y-114048750D01*
X61767000Y-114099974D01*
X61701673Y-114165301D01*
X61605000Y-114398690D01*
X61513000Y-114398690D01*
X61513000Y-114048750D01*
X61354250Y-113890000D01*
X60913691Y-113890000D01*
X60680302Y-113986673D01*
X60501673Y-114165301D01*
X60405000Y-114398690D01*
X58877000Y-114398690D01*
X58877000Y-112627000D01*
X71873000Y-112627000D01*
X71873000Y-124123000D01*
G36*
X68963750Y-120998000D02*
X68967000Y-120998000D01*
X68967000Y-121001250D01*
X69090750Y-121125000D01*
X68967000Y-121248750D01*
X68967000Y-121252000D01*
X68963750Y-121252000D01*
X68840000Y-121375750D01*
X68716250Y-121252000D01*
X68713000Y-121252000D01*
X68713000Y-121248750D01*
X68589250Y-121125000D01*
X68713000Y-121001250D01*
X68713000Y-120998000D01*
X68716250Y-120998000D01*
X68840000Y-120874250D01*
X68963750Y-120998000D01*
X68963750Y-120998000D01*
G37*
X68963750Y-120998000D02*
X68967000Y-120998000D01*
X68967000Y-121001250D01*
X69090750Y-121125000D01*
X68967000Y-121248750D01*
X68967000Y-121252000D01*
X68963750Y-121252000D01*
X68840000Y-121375750D01*
X68716250Y-121252000D01*
X68713000Y-121252000D01*
X68713000Y-121248750D01*
X68589250Y-121125000D01*
X68713000Y-121001250D01*
X68713000Y-120998000D01*
X68716250Y-120998000D01*
X68840000Y-120874250D01*
X68963750Y-120998000D01*
G36*
X62963750Y-120998000D02*
X62967000Y-120998000D01*
X62967000Y-121001250D01*
X63090750Y-121125000D01*
X62967000Y-121248750D01*
X62967000Y-121252000D01*
X62963750Y-121252000D01*
X62840000Y-121375750D01*
X62716250Y-121252000D01*
X62713000Y-121252000D01*
X62713000Y-121248750D01*
X62589250Y-121125000D01*
X62713000Y-121001250D01*
X62713000Y-120998000D01*
X62716250Y-120998000D01*
X62840000Y-120874250D01*
X62963750Y-120998000D01*
X62963750Y-120998000D01*
G37*
X62963750Y-120998000D02*
X62967000Y-120998000D01*
X62967000Y-121001250D01*
X63090750Y-121125000D01*
X62967000Y-121248750D01*
X62967000Y-121252000D01*
X62963750Y-121252000D01*
X62840000Y-121375750D01*
X62716250Y-121252000D01*
X62713000Y-121252000D01*
X62713000Y-121248750D01*
X62589250Y-121125000D01*
X62713000Y-121001250D01*
X62713000Y-120998000D01*
X62716250Y-120998000D01*
X62840000Y-120874250D01*
X62963750Y-120998000D01*
G36*
X64163750Y-120998000D02*
X64167000Y-120998000D01*
X64167000Y-121001250D01*
X64290750Y-121125000D01*
X64167000Y-121248750D01*
X64167000Y-121252000D01*
X64163750Y-121252000D01*
X64040000Y-121375750D01*
X63916250Y-121252000D01*
X63913000Y-121252000D01*
X63913000Y-121248750D01*
X63789250Y-121125000D01*
X63913000Y-121001250D01*
X63913000Y-120998000D01*
X63916250Y-120998000D01*
X64040000Y-120874250D01*
X64163750Y-120998000D01*
X64163750Y-120998000D01*
G37*
X64163750Y-120998000D02*
X64167000Y-120998000D01*
X64167000Y-121001250D01*
X64290750Y-121125000D01*
X64167000Y-121248750D01*
X64167000Y-121252000D01*
X64163750Y-121252000D01*
X64040000Y-121375750D01*
X63916250Y-121252000D01*
X63913000Y-121252000D01*
X63913000Y-121248750D01*
X63789250Y-121125000D01*
X63913000Y-121001250D01*
X63913000Y-120998000D01*
X63916250Y-120998000D01*
X64040000Y-120874250D01*
X64163750Y-120998000D01*
G36*
X65363750Y-120998000D02*
X65367000Y-120998000D01*
X65367000Y-121001250D01*
X65490750Y-121125000D01*
X65367000Y-121248750D01*
X65367000Y-121252000D01*
X65363750Y-121252000D01*
X65240000Y-121375750D01*
X65116250Y-121252000D01*
X65113000Y-121252000D01*
X65113000Y-121248750D01*
X64989250Y-121125000D01*
X65113000Y-121001250D01*
X65113000Y-120998000D01*
X65116250Y-120998000D01*
X65240000Y-120874250D01*
X65363750Y-120998000D01*
X65363750Y-120998000D01*
G37*
X65363750Y-120998000D02*
X65367000Y-120998000D01*
X65367000Y-121001250D01*
X65490750Y-121125000D01*
X65367000Y-121248750D01*
X65367000Y-121252000D01*
X65363750Y-121252000D01*
X65240000Y-121375750D01*
X65116250Y-121252000D01*
X65113000Y-121252000D01*
X65113000Y-121248750D01*
X64989250Y-121125000D01*
X65113000Y-121001250D01*
X65113000Y-120998000D01*
X65116250Y-120998000D01*
X65240000Y-120874250D01*
X65363750Y-120998000D01*
G36*
X66563750Y-120998000D02*
X66567000Y-120998000D01*
X66567000Y-121001250D01*
X66690750Y-121125000D01*
X66567000Y-121248750D01*
X66567000Y-121252000D01*
X66563750Y-121252000D01*
X66440000Y-121375750D01*
X66316250Y-121252000D01*
X66313000Y-121252000D01*
X66313000Y-121248750D01*
X66189250Y-121125000D01*
X66313000Y-121001250D01*
X66313000Y-120998000D01*
X66316250Y-120998000D01*
X66440000Y-120874250D01*
X66563750Y-120998000D01*
X66563750Y-120998000D01*
G37*
X66563750Y-120998000D02*
X66567000Y-120998000D01*
X66567000Y-121001250D01*
X66690750Y-121125000D01*
X66567000Y-121248750D01*
X66567000Y-121252000D01*
X66563750Y-121252000D01*
X66440000Y-121375750D01*
X66316250Y-121252000D01*
X66313000Y-121252000D01*
X66313000Y-121248750D01*
X66189250Y-121125000D01*
X66313000Y-121001250D01*
X66313000Y-120998000D01*
X66316250Y-120998000D01*
X66440000Y-120874250D01*
X66563750Y-120998000D01*
G36*
X67763750Y-120998000D02*
X67767000Y-120998000D01*
X67767000Y-121001250D01*
X67890750Y-121125000D01*
X67767000Y-121248750D01*
X67767000Y-121252000D01*
X67763750Y-121252000D01*
X67640000Y-121375750D01*
X67516250Y-121252000D01*
X67513000Y-121252000D01*
X67513000Y-121248750D01*
X67389250Y-121125000D01*
X67513000Y-121001250D01*
X67513000Y-120998000D01*
X67516250Y-120998000D01*
X67640000Y-120874250D01*
X67763750Y-120998000D01*
X67763750Y-120998000D01*
G37*
X67763750Y-120998000D02*
X67767000Y-120998000D01*
X67767000Y-121001250D01*
X67890750Y-121125000D01*
X67767000Y-121248750D01*
X67767000Y-121252000D01*
X67763750Y-121252000D01*
X67640000Y-121375750D01*
X67516250Y-121252000D01*
X67513000Y-121252000D01*
X67513000Y-121248750D01*
X67389250Y-121125000D01*
X67513000Y-121001250D01*
X67513000Y-120998000D01*
X67516250Y-120998000D01*
X67640000Y-120874250D01*
X67763750Y-120998000D01*
G36*
X62963750Y-119798000D02*
X62967000Y-119798000D01*
X62967000Y-119801250D01*
X63090750Y-119925000D01*
X62967000Y-120048750D01*
X62967000Y-120052000D01*
X62963750Y-120052000D01*
X62840000Y-120175750D01*
X62716250Y-120052000D01*
X62713000Y-120052000D01*
X62713000Y-120048750D01*
X62589250Y-119925000D01*
X62713000Y-119801250D01*
X62713000Y-119798000D01*
X62716250Y-119798000D01*
X62840000Y-119674250D01*
X62963750Y-119798000D01*
X62963750Y-119798000D01*
G37*
X62963750Y-119798000D02*
X62967000Y-119798000D01*
X62967000Y-119801250D01*
X63090750Y-119925000D01*
X62967000Y-120048750D01*
X62967000Y-120052000D01*
X62963750Y-120052000D01*
X62840000Y-120175750D01*
X62716250Y-120052000D01*
X62713000Y-120052000D01*
X62713000Y-120048750D01*
X62589250Y-119925000D01*
X62713000Y-119801250D01*
X62713000Y-119798000D01*
X62716250Y-119798000D01*
X62840000Y-119674250D01*
X62963750Y-119798000D01*
G36*
X64163750Y-119798000D02*
X64167000Y-119798000D01*
X64167000Y-119801250D01*
X64290750Y-119925000D01*
X64167000Y-120048750D01*
X64167000Y-120052000D01*
X64163750Y-120052000D01*
X64040000Y-120175750D01*
X63916250Y-120052000D01*
X63913000Y-120052000D01*
X63913000Y-120048750D01*
X63789250Y-119925000D01*
X63913000Y-119801250D01*
X63913000Y-119798000D01*
X63916250Y-119798000D01*
X64040000Y-119674250D01*
X64163750Y-119798000D01*
X64163750Y-119798000D01*
G37*
X64163750Y-119798000D02*
X64167000Y-119798000D01*
X64167000Y-119801250D01*
X64290750Y-119925000D01*
X64167000Y-120048750D01*
X64167000Y-120052000D01*
X64163750Y-120052000D01*
X64040000Y-120175750D01*
X63916250Y-120052000D01*
X63913000Y-120052000D01*
X63913000Y-120048750D01*
X63789250Y-119925000D01*
X63913000Y-119801250D01*
X63913000Y-119798000D01*
X63916250Y-119798000D01*
X64040000Y-119674250D01*
X64163750Y-119798000D01*
G36*
X65363750Y-119798000D02*
X65367000Y-119798000D01*
X65367000Y-119801250D01*
X65490750Y-119925000D01*
X65367000Y-120048750D01*
X65367000Y-120052000D01*
X65363750Y-120052000D01*
X65240000Y-120175750D01*
X65116250Y-120052000D01*
X65113000Y-120052000D01*
X65113000Y-120048750D01*
X64989250Y-119925000D01*
X65113000Y-119801250D01*
X65113000Y-119798000D01*
X65116250Y-119798000D01*
X65240000Y-119674250D01*
X65363750Y-119798000D01*
X65363750Y-119798000D01*
G37*
X65363750Y-119798000D02*
X65367000Y-119798000D01*
X65367000Y-119801250D01*
X65490750Y-119925000D01*
X65367000Y-120048750D01*
X65367000Y-120052000D01*
X65363750Y-120052000D01*
X65240000Y-120175750D01*
X65116250Y-120052000D01*
X65113000Y-120052000D01*
X65113000Y-120048750D01*
X64989250Y-119925000D01*
X65113000Y-119801250D01*
X65113000Y-119798000D01*
X65116250Y-119798000D01*
X65240000Y-119674250D01*
X65363750Y-119798000D01*
G36*
X66563750Y-119798000D02*
X66567000Y-119798000D01*
X66567000Y-119801250D01*
X66690750Y-119925000D01*
X66567000Y-120048750D01*
X66567000Y-120052000D01*
X66563750Y-120052000D01*
X66440000Y-120175750D01*
X66316250Y-120052000D01*
X66313000Y-120052000D01*
X66313000Y-120048750D01*
X66189250Y-119925000D01*
X66313000Y-119801250D01*
X66313000Y-119798000D01*
X66316250Y-119798000D01*
X66440000Y-119674250D01*
X66563750Y-119798000D01*
X66563750Y-119798000D01*
G37*
X66563750Y-119798000D02*
X66567000Y-119798000D01*
X66567000Y-119801250D01*
X66690750Y-119925000D01*
X66567000Y-120048750D01*
X66567000Y-120052000D01*
X66563750Y-120052000D01*
X66440000Y-120175750D01*
X66316250Y-120052000D01*
X66313000Y-120052000D01*
X66313000Y-120048750D01*
X66189250Y-119925000D01*
X66313000Y-119801250D01*
X66313000Y-119798000D01*
X66316250Y-119798000D01*
X66440000Y-119674250D01*
X66563750Y-119798000D01*
G36*
X67763750Y-119798000D02*
X67767000Y-119798000D01*
X67767000Y-119801250D01*
X67890750Y-119925000D01*
X67767000Y-120048750D01*
X67767000Y-120052000D01*
X67763750Y-120052000D01*
X67640000Y-120175750D01*
X67516250Y-120052000D01*
X67513000Y-120052000D01*
X67513000Y-120048750D01*
X67389250Y-119925000D01*
X67513000Y-119801250D01*
X67513000Y-119798000D01*
X67516250Y-119798000D01*
X67640000Y-119674250D01*
X67763750Y-119798000D01*
X67763750Y-119798000D01*
G37*
X67763750Y-119798000D02*
X67767000Y-119798000D01*
X67767000Y-119801250D01*
X67890750Y-119925000D01*
X67767000Y-120048750D01*
X67767000Y-120052000D01*
X67763750Y-120052000D01*
X67640000Y-120175750D01*
X67516250Y-120052000D01*
X67513000Y-120052000D01*
X67513000Y-120048750D01*
X67389250Y-119925000D01*
X67513000Y-119801250D01*
X67513000Y-119798000D01*
X67516250Y-119798000D01*
X67640000Y-119674250D01*
X67763750Y-119798000D01*
G36*
X68963750Y-119798000D02*
X68967000Y-119798000D01*
X68967000Y-119801250D01*
X69090750Y-119925000D01*
X68967000Y-120048750D01*
X68967000Y-120052000D01*
X68963750Y-120052000D01*
X68840000Y-120175750D01*
X68716250Y-120052000D01*
X68713000Y-120052000D01*
X68713000Y-120048750D01*
X68589250Y-119925000D01*
X68713000Y-119801250D01*
X68713000Y-119798000D01*
X68716250Y-119798000D01*
X68840000Y-119674250D01*
X68963750Y-119798000D01*
X68963750Y-119798000D01*
G37*
X68963750Y-119798000D02*
X68967000Y-119798000D01*
X68967000Y-119801250D01*
X69090750Y-119925000D01*
X68967000Y-120048750D01*
X68967000Y-120052000D01*
X68963750Y-120052000D01*
X68840000Y-120175750D01*
X68716250Y-120052000D01*
X68713000Y-120052000D01*
X68713000Y-120048750D01*
X68589250Y-119925000D01*
X68713000Y-119801250D01*
X68713000Y-119798000D01*
X68716250Y-119798000D01*
X68840000Y-119674250D01*
X68963750Y-119798000D01*
G36*
X68963750Y-118598000D02*
X68967000Y-118598000D01*
X68967000Y-118601250D01*
X69090750Y-118725000D01*
X68967000Y-118848750D01*
X68967000Y-118852000D01*
X68963750Y-118852000D01*
X68840000Y-118975750D01*
X68716250Y-118852000D01*
X68713000Y-118852000D01*
X68713000Y-118848750D01*
X68589250Y-118725000D01*
X68713000Y-118601250D01*
X68713000Y-118598000D01*
X68716250Y-118598000D01*
X68840000Y-118474250D01*
X68963750Y-118598000D01*
X68963750Y-118598000D01*
G37*
X68963750Y-118598000D02*
X68967000Y-118598000D01*
X68967000Y-118601250D01*
X69090750Y-118725000D01*
X68967000Y-118848750D01*
X68967000Y-118852000D01*
X68963750Y-118852000D01*
X68840000Y-118975750D01*
X68716250Y-118852000D01*
X68713000Y-118852000D01*
X68713000Y-118848750D01*
X68589250Y-118725000D01*
X68713000Y-118601250D01*
X68713000Y-118598000D01*
X68716250Y-118598000D01*
X68840000Y-118474250D01*
X68963750Y-118598000D01*
G36*
X67763750Y-118598000D02*
X67767000Y-118598000D01*
X67767000Y-118601250D01*
X67890750Y-118725000D01*
X67767000Y-118848750D01*
X67767000Y-118852000D01*
X67763750Y-118852000D01*
X67640000Y-118975750D01*
X67516250Y-118852000D01*
X67513000Y-118852000D01*
X67513000Y-118848750D01*
X67389250Y-118725000D01*
X67513000Y-118601250D01*
X67513000Y-118598000D01*
X67516250Y-118598000D01*
X67640000Y-118474250D01*
X67763750Y-118598000D01*
X67763750Y-118598000D01*
G37*
X67763750Y-118598000D02*
X67767000Y-118598000D01*
X67767000Y-118601250D01*
X67890750Y-118725000D01*
X67767000Y-118848750D01*
X67767000Y-118852000D01*
X67763750Y-118852000D01*
X67640000Y-118975750D01*
X67516250Y-118852000D01*
X67513000Y-118852000D01*
X67513000Y-118848750D01*
X67389250Y-118725000D01*
X67513000Y-118601250D01*
X67513000Y-118598000D01*
X67516250Y-118598000D01*
X67640000Y-118474250D01*
X67763750Y-118598000D01*
G36*
X66563750Y-118598000D02*
X66567000Y-118598000D01*
X66567000Y-118601250D01*
X66690750Y-118725000D01*
X66567000Y-118848750D01*
X66567000Y-118852000D01*
X66563750Y-118852000D01*
X66440000Y-118975750D01*
X66316250Y-118852000D01*
X66313000Y-118852000D01*
X66313000Y-118848750D01*
X66189250Y-118725000D01*
X66313000Y-118601250D01*
X66313000Y-118598000D01*
X66316250Y-118598000D01*
X66440000Y-118474250D01*
X66563750Y-118598000D01*
X66563750Y-118598000D01*
G37*
X66563750Y-118598000D02*
X66567000Y-118598000D01*
X66567000Y-118601250D01*
X66690750Y-118725000D01*
X66567000Y-118848750D01*
X66567000Y-118852000D01*
X66563750Y-118852000D01*
X66440000Y-118975750D01*
X66316250Y-118852000D01*
X66313000Y-118852000D01*
X66313000Y-118848750D01*
X66189250Y-118725000D01*
X66313000Y-118601250D01*
X66313000Y-118598000D01*
X66316250Y-118598000D01*
X66440000Y-118474250D01*
X66563750Y-118598000D01*
G36*
X65363750Y-118598000D02*
X65367000Y-118598000D01*
X65367000Y-118601250D01*
X65490750Y-118725000D01*
X65367000Y-118848750D01*
X65367000Y-118852000D01*
X65363750Y-118852000D01*
X65240000Y-118975750D01*
X65116250Y-118852000D01*
X65113000Y-118852000D01*
X65113000Y-118848750D01*
X64989250Y-118725000D01*
X65113000Y-118601250D01*
X65113000Y-118598000D01*
X65116250Y-118598000D01*
X65240000Y-118474250D01*
X65363750Y-118598000D01*
X65363750Y-118598000D01*
G37*
X65363750Y-118598000D02*
X65367000Y-118598000D01*
X65367000Y-118601250D01*
X65490750Y-118725000D01*
X65367000Y-118848750D01*
X65367000Y-118852000D01*
X65363750Y-118852000D01*
X65240000Y-118975750D01*
X65116250Y-118852000D01*
X65113000Y-118852000D01*
X65113000Y-118848750D01*
X64989250Y-118725000D01*
X65113000Y-118601250D01*
X65113000Y-118598000D01*
X65116250Y-118598000D01*
X65240000Y-118474250D01*
X65363750Y-118598000D01*
G36*
X64163750Y-118598000D02*
X64167000Y-118598000D01*
X64167000Y-118601250D01*
X64290750Y-118725000D01*
X64167000Y-118848750D01*
X64167000Y-118852000D01*
X64163750Y-118852000D01*
X64040000Y-118975750D01*
X63916250Y-118852000D01*
X63913000Y-118852000D01*
X63913000Y-118848750D01*
X63789250Y-118725000D01*
X63913000Y-118601250D01*
X63913000Y-118598000D01*
X63916250Y-118598000D01*
X64040000Y-118474250D01*
X64163750Y-118598000D01*
X64163750Y-118598000D01*
G37*
X64163750Y-118598000D02*
X64167000Y-118598000D01*
X64167000Y-118601250D01*
X64290750Y-118725000D01*
X64167000Y-118848750D01*
X64167000Y-118852000D01*
X64163750Y-118852000D01*
X64040000Y-118975750D01*
X63916250Y-118852000D01*
X63913000Y-118852000D01*
X63913000Y-118848750D01*
X63789250Y-118725000D01*
X63913000Y-118601250D01*
X63913000Y-118598000D01*
X63916250Y-118598000D01*
X64040000Y-118474250D01*
X64163750Y-118598000D01*
G36*
X62963750Y-118598000D02*
X62967000Y-118598000D01*
X62967000Y-118601250D01*
X63090750Y-118725000D01*
X62967000Y-118848750D01*
X62967000Y-118852000D01*
X62963750Y-118852000D01*
X62840000Y-118975750D01*
X62716250Y-118852000D01*
X62713000Y-118852000D01*
X62713000Y-118848750D01*
X62589250Y-118725000D01*
X62713000Y-118601250D01*
X62713000Y-118598000D01*
X62716250Y-118598000D01*
X62840000Y-118474250D01*
X62963750Y-118598000D01*
X62963750Y-118598000D01*
G37*
X62963750Y-118598000D02*
X62967000Y-118598000D01*
X62967000Y-118601250D01*
X63090750Y-118725000D01*
X62967000Y-118848750D01*
X62967000Y-118852000D01*
X62963750Y-118852000D01*
X62840000Y-118975750D01*
X62716250Y-118852000D01*
X62713000Y-118852000D01*
X62713000Y-118848750D01*
X62589250Y-118725000D01*
X62713000Y-118601250D01*
X62713000Y-118598000D01*
X62716250Y-118598000D01*
X62840000Y-118474250D01*
X62963750Y-118598000D01*
G36*
X62963750Y-117398000D02*
X62967000Y-117398000D01*
X62967000Y-117401250D01*
X63090750Y-117525000D01*
X62967000Y-117648750D01*
X62967000Y-117652000D01*
X62963750Y-117652000D01*
X62840000Y-117775750D01*
X62716250Y-117652000D01*
X62713000Y-117652000D01*
X62713000Y-117648750D01*
X62589250Y-117525000D01*
X62713000Y-117401250D01*
X62713000Y-117398000D01*
X62716250Y-117398000D01*
X62840000Y-117274250D01*
X62963750Y-117398000D01*
X62963750Y-117398000D01*
G37*
X62963750Y-117398000D02*
X62967000Y-117398000D01*
X62967000Y-117401250D01*
X63090750Y-117525000D01*
X62967000Y-117648750D01*
X62967000Y-117652000D01*
X62963750Y-117652000D01*
X62840000Y-117775750D01*
X62716250Y-117652000D01*
X62713000Y-117652000D01*
X62713000Y-117648750D01*
X62589250Y-117525000D01*
X62713000Y-117401250D01*
X62713000Y-117398000D01*
X62716250Y-117398000D01*
X62840000Y-117274250D01*
X62963750Y-117398000D01*
G36*
X64163750Y-117398000D02*
X64167000Y-117398000D01*
X64167000Y-117401250D01*
X64290750Y-117525000D01*
X64167000Y-117648750D01*
X64167000Y-117652000D01*
X64163750Y-117652000D01*
X64040000Y-117775750D01*
X63916250Y-117652000D01*
X63913000Y-117652000D01*
X63913000Y-117648750D01*
X63789250Y-117525000D01*
X63913000Y-117401250D01*
X63913000Y-117398000D01*
X63916250Y-117398000D01*
X64040000Y-117274250D01*
X64163750Y-117398000D01*
X64163750Y-117398000D01*
G37*
X64163750Y-117398000D02*
X64167000Y-117398000D01*
X64167000Y-117401250D01*
X64290750Y-117525000D01*
X64167000Y-117648750D01*
X64167000Y-117652000D01*
X64163750Y-117652000D01*
X64040000Y-117775750D01*
X63916250Y-117652000D01*
X63913000Y-117652000D01*
X63913000Y-117648750D01*
X63789250Y-117525000D01*
X63913000Y-117401250D01*
X63913000Y-117398000D01*
X63916250Y-117398000D01*
X64040000Y-117274250D01*
X64163750Y-117398000D01*
G36*
X65363750Y-117398000D02*
X65367000Y-117398000D01*
X65367000Y-117401250D01*
X65490750Y-117525000D01*
X65367000Y-117648750D01*
X65367000Y-117652000D01*
X65363750Y-117652000D01*
X65240000Y-117775750D01*
X65116250Y-117652000D01*
X65113000Y-117652000D01*
X65113000Y-117648750D01*
X64989250Y-117525000D01*
X65113000Y-117401250D01*
X65113000Y-117398000D01*
X65116250Y-117398000D01*
X65240000Y-117274250D01*
X65363750Y-117398000D01*
X65363750Y-117398000D01*
G37*
X65363750Y-117398000D02*
X65367000Y-117398000D01*
X65367000Y-117401250D01*
X65490750Y-117525000D01*
X65367000Y-117648750D01*
X65367000Y-117652000D01*
X65363750Y-117652000D01*
X65240000Y-117775750D01*
X65116250Y-117652000D01*
X65113000Y-117652000D01*
X65113000Y-117648750D01*
X64989250Y-117525000D01*
X65113000Y-117401250D01*
X65113000Y-117398000D01*
X65116250Y-117398000D01*
X65240000Y-117274250D01*
X65363750Y-117398000D01*
G36*
X66563750Y-117398000D02*
X66567000Y-117398000D01*
X66567000Y-117401250D01*
X66690750Y-117525000D01*
X66567000Y-117648750D01*
X66567000Y-117652000D01*
X66563750Y-117652000D01*
X66440000Y-117775750D01*
X66316250Y-117652000D01*
X66313000Y-117652000D01*
X66313000Y-117648750D01*
X66189250Y-117525000D01*
X66313000Y-117401250D01*
X66313000Y-117398000D01*
X66316250Y-117398000D01*
X66440000Y-117274250D01*
X66563750Y-117398000D01*
X66563750Y-117398000D01*
G37*
X66563750Y-117398000D02*
X66567000Y-117398000D01*
X66567000Y-117401250D01*
X66690750Y-117525000D01*
X66567000Y-117648750D01*
X66567000Y-117652000D01*
X66563750Y-117652000D01*
X66440000Y-117775750D01*
X66316250Y-117652000D01*
X66313000Y-117652000D01*
X66313000Y-117648750D01*
X66189250Y-117525000D01*
X66313000Y-117401250D01*
X66313000Y-117398000D01*
X66316250Y-117398000D01*
X66440000Y-117274250D01*
X66563750Y-117398000D01*
G36*
X67763750Y-117398000D02*
X67767000Y-117398000D01*
X67767000Y-117401250D01*
X67890750Y-117525000D01*
X67767000Y-117648750D01*
X67767000Y-117652000D01*
X67763750Y-117652000D01*
X67640000Y-117775750D01*
X67516250Y-117652000D01*
X67513000Y-117652000D01*
X67513000Y-117648750D01*
X67389250Y-117525000D01*
X67513000Y-117401250D01*
X67513000Y-117398000D01*
X67516250Y-117398000D01*
X67640000Y-117274250D01*
X67763750Y-117398000D01*
X67763750Y-117398000D01*
G37*
X67763750Y-117398000D02*
X67767000Y-117398000D01*
X67767000Y-117401250D01*
X67890750Y-117525000D01*
X67767000Y-117648750D01*
X67767000Y-117652000D01*
X67763750Y-117652000D01*
X67640000Y-117775750D01*
X67516250Y-117652000D01*
X67513000Y-117652000D01*
X67513000Y-117648750D01*
X67389250Y-117525000D01*
X67513000Y-117401250D01*
X67513000Y-117398000D01*
X67516250Y-117398000D01*
X67640000Y-117274250D01*
X67763750Y-117398000D01*
G36*
X68963750Y-117398000D02*
X68967000Y-117398000D01*
X68967000Y-117401250D01*
X69090750Y-117525000D01*
X68967000Y-117648750D01*
X68967000Y-117652000D01*
X68963750Y-117652000D01*
X68840000Y-117775750D01*
X68716250Y-117652000D01*
X68713000Y-117652000D01*
X68713000Y-117648750D01*
X68589250Y-117525000D01*
X68713000Y-117401250D01*
X68713000Y-117398000D01*
X68716250Y-117398000D01*
X68840000Y-117274250D01*
X68963750Y-117398000D01*
X68963750Y-117398000D01*
G37*
X68963750Y-117398000D02*
X68967000Y-117398000D01*
X68967000Y-117401250D01*
X69090750Y-117525000D01*
X68967000Y-117648750D01*
X68967000Y-117652000D01*
X68963750Y-117652000D01*
X68840000Y-117775750D01*
X68716250Y-117652000D01*
X68713000Y-117652000D01*
X68713000Y-117648750D01*
X68589250Y-117525000D01*
X68713000Y-117401250D01*
X68713000Y-117398000D01*
X68716250Y-117398000D01*
X68840000Y-117274250D01*
X68963750Y-117398000D01*
G36*
X62963750Y-116198000D02*
X62967000Y-116198000D01*
X62967000Y-116201250D01*
X63090750Y-116325000D01*
X62967000Y-116448750D01*
X62967000Y-116452000D01*
X62963750Y-116452000D01*
X62840000Y-116575750D01*
X62716250Y-116452000D01*
X62713000Y-116452000D01*
X62713000Y-116448750D01*
X62589250Y-116325000D01*
X62713000Y-116201250D01*
X62713000Y-116198000D01*
X62716250Y-116198000D01*
X62840000Y-116074250D01*
X62963750Y-116198000D01*
X62963750Y-116198000D01*
G37*
X62963750Y-116198000D02*
X62967000Y-116198000D01*
X62967000Y-116201250D01*
X63090750Y-116325000D01*
X62967000Y-116448750D01*
X62967000Y-116452000D01*
X62963750Y-116452000D01*
X62840000Y-116575750D01*
X62716250Y-116452000D01*
X62713000Y-116452000D01*
X62713000Y-116448750D01*
X62589250Y-116325000D01*
X62713000Y-116201250D01*
X62713000Y-116198000D01*
X62716250Y-116198000D01*
X62840000Y-116074250D01*
X62963750Y-116198000D01*
G36*
X64163750Y-116198000D02*
X64167000Y-116198000D01*
X64167000Y-116201250D01*
X64290750Y-116325000D01*
X64167000Y-116448750D01*
X64167000Y-116452000D01*
X64163750Y-116452000D01*
X64040000Y-116575750D01*
X63916250Y-116452000D01*
X63913000Y-116452000D01*
X63913000Y-116448750D01*
X63789250Y-116325000D01*
X63913000Y-116201250D01*
X63913000Y-116198000D01*
X63916250Y-116198000D01*
X64040000Y-116074250D01*
X64163750Y-116198000D01*
X64163750Y-116198000D01*
G37*
X64163750Y-116198000D02*
X64167000Y-116198000D01*
X64167000Y-116201250D01*
X64290750Y-116325000D01*
X64167000Y-116448750D01*
X64167000Y-116452000D01*
X64163750Y-116452000D01*
X64040000Y-116575750D01*
X63916250Y-116452000D01*
X63913000Y-116452000D01*
X63913000Y-116448750D01*
X63789250Y-116325000D01*
X63913000Y-116201250D01*
X63913000Y-116198000D01*
X63916250Y-116198000D01*
X64040000Y-116074250D01*
X64163750Y-116198000D01*
G36*
X65363750Y-116198000D02*
X65367000Y-116198000D01*
X65367000Y-116201250D01*
X65490750Y-116325000D01*
X65367000Y-116448750D01*
X65367000Y-116452000D01*
X65363750Y-116452000D01*
X65240000Y-116575750D01*
X65116250Y-116452000D01*
X65113000Y-116452000D01*
X65113000Y-116448750D01*
X64989250Y-116325000D01*
X65113000Y-116201250D01*
X65113000Y-116198000D01*
X65116250Y-116198000D01*
X65240000Y-116074250D01*
X65363750Y-116198000D01*
X65363750Y-116198000D01*
G37*
X65363750Y-116198000D02*
X65367000Y-116198000D01*
X65367000Y-116201250D01*
X65490750Y-116325000D01*
X65367000Y-116448750D01*
X65367000Y-116452000D01*
X65363750Y-116452000D01*
X65240000Y-116575750D01*
X65116250Y-116452000D01*
X65113000Y-116452000D01*
X65113000Y-116448750D01*
X64989250Y-116325000D01*
X65113000Y-116201250D01*
X65113000Y-116198000D01*
X65116250Y-116198000D01*
X65240000Y-116074250D01*
X65363750Y-116198000D01*
G36*
X66563750Y-116198000D02*
X66567000Y-116198000D01*
X66567000Y-116201250D01*
X66690750Y-116325000D01*
X66567000Y-116448750D01*
X66567000Y-116452000D01*
X66563750Y-116452000D01*
X66440000Y-116575750D01*
X66316250Y-116452000D01*
X66313000Y-116452000D01*
X66313000Y-116448750D01*
X66189250Y-116325000D01*
X66313000Y-116201250D01*
X66313000Y-116198000D01*
X66316250Y-116198000D01*
X66440000Y-116074250D01*
X66563750Y-116198000D01*
X66563750Y-116198000D01*
G37*
X66563750Y-116198000D02*
X66567000Y-116198000D01*
X66567000Y-116201250D01*
X66690750Y-116325000D01*
X66567000Y-116448750D01*
X66567000Y-116452000D01*
X66563750Y-116452000D01*
X66440000Y-116575750D01*
X66316250Y-116452000D01*
X66313000Y-116452000D01*
X66313000Y-116448750D01*
X66189250Y-116325000D01*
X66313000Y-116201250D01*
X66313000Y-116198000D01*
X66316250Y-116198000D01*
X66440000Y-116074250D01*
X66563750Y-116198000D01*
G36*
X67763750Y-116198000D02*
X67767000Y-116198000D01*
X67767000Y-116201250D01*
X67890750Y-116325000D01*
X67767000Y-116448750D01*
X67767000Y-116452000D01*
X67763750Y-116452000D01*
X67640000Y-116575750D01*
X67516250Y-116452000D01*
X67513000Y-116452000D01*
X67513000Y-116448750D01*
X67389250Y-116325000D01*
X67513000Y-116201250D01*
X67513000Y-116198000D01*
X67516250Y-116198000D01*
X67640000Y-116074250D01*
X67763750Y-116198000D01*
X67763750Y-116198000D01*
G37*
X67763750Y-116198000D02*
X67767000Y-116198000D01*
X67767000Y-116201250D01*
X67890750Y-116325000D01*
X67767000Y-116448750D01*
X67767000Y-116452000D01*
X67763750Y-116452000D01*
X67640000Y-116575750D01*
X67516250Y-116452000D01*
X67513000Y-116452000D01*
X67513000Y-116448750D01*
X67389250Y-116325000D01*
X67513000Y-116201250D01*
X67513000Y-116198000D01*
X67516250Y-116198000D01*
X67640000Y-116074250D01*
X67763750Y-116198000D01*
G36*
X68963750Y-116198000D02*
X68967000Y-116198000D01*
X68967000Y-116201250D01*
X69090750Y-116325000D01*
X68967000Y-116448750D01*
X68967000Y-116452000D01*
X68963750Y-116452000D01*
X68840000Y-116575750D01*
X68716250Y-116452000D01*
X68713000Y-116452000D01*
X68713000Y-116448750D01*
X68589250Y-116325000D01*
X68713000Y-116201250D01*
X68713000Y-116198000D01*
X68716250Y-116198000D01*
X68840000Y-116074250D01*
X68963750Y-116198000D01*
X68963750Y-116198000D01*
G37*
X68963750Y-116198000D02*
X68967000Y-116198000D01*
X68967000Y-116201250D01*
X69090750Y-116325000D01*
X68967000Y-116448750D01*
X68967000Y-116452000D01*
X68963750Y-116452000D01*
X68840000Y-116575750D01*
X68716250Y-116452000D01*
X68713000Y-116452000D01*
X68713000Y-116448750D01*
X68589250Y-116325000D01*
X68713000Y-116201250D01*
X68713000Y-116198000D01*
X68716250Y-116198000D01*
X68840000Y-116074250D01*
X68963750Y-116198000D01*
G36*
X71873000Y-124123000D02*
X58877000Y-124123000D01*
X58877000Y-112627000D01*
X71873000Y-112627000D01*
X71873000Y-124123000D01*
X71873000Y-124123000D01*
G37*
X71873000Y-124123000D02*
X58877000Y-124123000D01*
X58877000Y-112627000D01*
X71873000Y-112627000D01*
X71873000Y-124123000D01*
M02*
