G04 #@! TF.FileFunction,Legend,Top*
%FSLAX46Y46*%
G04 Gerber Fmt 4.6, Leading zero omitted, Abs format (unit mm)*
G04 Created by KiCad (PCBNEW 4.0.7) date Wednesday, 04 April 2018 'PMt' 17:02:53*
%MOMM*%
%LPD*%
G01*
G04 APERTURE LIST*
%ADD10C,0.100000*%
%ADD11C,0.300000*%
%ADD12C,0.120000*%
%ADD13C,0.150000*%
%ADD14C,0.075000*%
G04 APERTURE END LIST*
D10*
D11*
X107950286Y-120336571D02*
X108450286Y-121836571D01*
X108950286Y-120336571D01*
X109736000Y-120336571D02*
X109878857Y-120336571D01*
X110021714Y-120408000D01*
X110093143Y-120479429D01*
X110164572Y-120622286D01*
X110236000Y-120908000D01*
X110236000Y-121265143D01*
X110164572Y-121550857D01*
X110093143Y-121693714D01*
X110021714Y-121765143D01*
X109878857Y-121836571D01*
X109736000Y-121836571D01*
X109593143Y-121765143D01*
X109521714Y-121693714D01*
X109450286Y-121550857D01*
X109378857Y-121265143D01*
X109378857Y-120908000D01*
X109450286Y-120622286D01*
X109521714Y-120479429D01*
X109593143Y-120408000D01*
X109736000Y-120336571D01*
X110878857Y-121693714D02*
X110950285Y-121765143D01*
X110878857Y-121836571D01*
X110807428Y-121765143D01*
X110878857Y-121693714D01*
X110878857Y-121836571D01*
X112378857Y-121836571D02*
X111521714Y-121836571D01*
X111950286Y-121836571D02*
X111950286Y-120336571D01*
X111807429Y-120550857D01*
X111664571Y-120693714D01*
X111521714Y-120765143D01*
X124270380Y-103839429D02*
X124746571Y-105172762D01*
X125222761Y-103839429D01*
X127222762Y-104220381D02*
X127127524Y-104125143D01*
X126937047Y-104029905D01*
X126746571Y-104029905D01*
X126556095Y-104125143D01*
X126460857Y-104220381D01*
X126365619Y-104410857D01*
X126365619Y-104601333D01*
X126460857Y-104791810D01*
X126556095Y-104887048D01*
X126746571Y-104982286D01*
X126937047Y-104982286D01*
X127127524Y-104887048D01*
X127222762Y-104791810D01*
X127222762Y-104029905D02*
X127222762Y-104791810D01*
X127318000Y-104887048D01*
X127413238Y-104887048D01*
X127603714Y-104791810D01*
X127698952Y-104601333D01*
X127698952Y-104125143D01*
X127508476Y-103839429D01*
X127222762Y-103648952D01*
X126841809Y-103553714D01*
X126460857Y-103648952D01*
X126175143Y-103839429D01*
X125984666Y-104125143D01*
X125889428Y-104506095D01*
X125984666Y-104887048D01*
X126175143Y-105172762D01*
X126460857Y-105363238D01*
X126841809Y-105458476D01*
X127222762Y-105363238D01*
X127508476Y-105172762D01*
X128556095Y-103839429D02*
X128556095Y-105172762D01*
X128556095Y-104029905D02*
X128651334Y-103934667D01*
X128841810Y-103839429D01*
X129127524Y-103839429D01*
X129318000Y-103934667D01*
X129413238Y-104125143D01*
X129413238Y-105172762D01*
X131222762Y-105077524D02*
X131032286Y-105172762D01*
X130651334Y-105172762D01*
X130460858Y-105077524D01*
X130365619Y-104982286D01*
X130270381Y-104791810D01*
X130270381Y-104220381D01*
X130365619Y-104029905D01*
X130460858Y-103934667D01*
X130651334Y-103839429D01*
X131032286Y-103839429D01*
X131222762Y-103934667D01*
X132841810Y-105077524D02*
X132651334Y-105172762D01*
X132270382Y-105172762D01*
X132079905Y-105077524D01*
X131984667Y-104887048D01*
X131984667Y-104125143D01*
X132079905Y-103934667D01*
X132270382Y-103839429D01*
X132651334Y-103839429D01*
X132841810Y-103934667D01*
X132937048Y-104125143D01*
X132937048Y-104315619D01*
X131984667Y-104506095D01*
X133794191Y-104982286D02*
X133889430Y-105077524D01*
X133794191Y-105172762D01*
X133698953Y-105077524D01*
X133794191Y-104982286D01*
X133794191Y-105172762D01*
X134746572Y-105172762D02*
X134746572Y-103839429D01*
X134746572Y-104029905D02*
X134841811Y-103934667D01*
X135032287Y-103839429D01*
X135318001Y-103839429D01*
X135508477Y-103934667D01*
X135603715Y-104125143D01*
X135603715Y-105172762D01*
X135603715Y-104125143D02*
X135698953Y-103934667D01*
X135889430Y-103839429D01*
X136175144Y-103839429D01*
X136365620Y-103934667D01*
X136460858Y-104125143D01*
X136460858Y-105172762D01*
X138175144Y-105077524D02*
X137984668Y-105172762D01*
X137603716Y-105172762D01*
X137413239Y-105077524D01*
X137318001Y-104887048D01*
X137318001Y-104125143D01*
X137413239Y-103934667D01*
X137603716Y-103839429D01*
X137984668Y-103839429D01*
X138175144Y-103934667D01*
X138270382Y-104125143D01*
X138270382Y-104315619D01*
X137318001Y-104506095D01*
X122175142Y-107425143D02*
X122841809Y-107425143D01*
X123127523Y-108472762D02*
X122175142Y-108472762D01*
X122175142Y-106472762D01*
X123127523Y-106472762D01*
X123889428Y-108377524D02*
X124175143Y-108472762D01*
X124651333Y-108472762D01*
X124841809Y-108377524D01*
X124937047Y-108282286D01*
X125032286Y-108091810D01*
X125032286Y-107901333D01*
X124937047Y-107710857D01*
X124841809Y-107615619D01*
X124651333Y-107520381D01*
X124270381Y-107425143D01*
X124079905Y-107329905D01*
X123984666Y-107234667D01*
X123889428Y-107044190D01*
X123889428Y-106853714D01*
X123984666Y-106663238D01*
X124079905Y-106568000D01*
X124270381Y-106472762D01*
X124746571Y-106472762D01*
X125032286Y-106568000D01*
X125889428Y-108472762D02*
X125889428Y-106472762D01*
X126651333Y-106472762D01*
X126841809Y-106568000D01*
X126937048Y-106663238D01*
X127032286Y-106853714D01*
X127032286Y-107139429D01*
X126937048Y-107329905D01*
X126841809Y-107425143D01*
X126651333Y-107520381D01*
X125889428Y-107520381D01*
X127698952Y-106472762D02*
X128937048Y-106472762D01*
X128270381Y-107234667D01*
X128556095Y-107234667D01*
X128746571Y-107329905D01*
X128841809Y-107425143D01*
X128937048Y-107615619D01*
X128937048Y-108091810D01*
X128841809Y-108282286D01*
X128746571Y-108377524D01*
X128556095Y-108472762D01*
X127984667Y-108472762D01*
X127794190Y-108377524D01*
X127698952Y-108282286D01*
X129698952Y-106663238D02*
X129794190Y-106568000D01*
X129984667Y-106472762D01*
X130460857Y-106472762D01*
X130651333Y-106568000D01*
X130746571Y-106663238D01*
X130841810Y-106853714D01*
X130841810Y-107044190D01*
X130746571Y-107329905D01*
X129603714Y-108472762D01*
X130841810Y-108472762D01*
X134365620Y-108282286D02*
X134270382Y-108377524D01*
X133984667Y-108472762D01*
X133794191Y-108472762D01*
X133508477Y-108377524D01*
X133318001Y-108187048D01*
X133222762Y-107996571D01*
X133127524Y-107615619D01*
X133127524Y-107329905D01*
X133222762Y-106948952D01*
X133318001Y-106758476D01*
X133508477Y-106568000D01*
X133794191Y-106472762D01*
X133984667Y-106472762D01*
X134270382Y-106568000D01*
X134365620Y-106663238D01*
X135508477Y-108472762D02*
X135318001Y-108377524D01*
X135222762Y-108187048D01*
X135222762Y-106472762D01*
X136556096Y-108472762D02*
X136365620Y-108377524D01*
X136270381Y-108282286D01*
X136175143Y-108091810D01*
X136175143Y-107520381D01*
X136270381Y-107329905D01*
X136365620Y-107234667D01*
X136556096Y-107139429D01*
X136841810Y-107139429D01*
X137032286Y-107234667D01*
X137127524Y-107329905D01*
X137222762Y-107520381D01*
X137222762Y-108091810D01*
X137127524Y-108282286D01*
X137032286Y-108377524D01*
X136841810Y-108472762D01*
X136556096Y-108472762D01*
X138937048Y-108377524D02*
X138746572Y-108472762D01*
X138365620Y-108472762D01*
X138175144Y-108377524D01*
X138079905Y-108282286D01*
X137984667Y-108091810D01*
X137984667Y-107520381D01*
X138079905Y-107329905D01*
X138175144Y-107234667D01*
X138365620Y-107139429D01*
X138746572Y-107139429D01*
X138937048Y-107234667D01*
X139794191Y-108472762D02*
X139794191Y-106472762D01*
X139984668Y-107710857D02*
X140556096Y-108472762D01*
X140556096Y-107139429D02*
X139794191Y-107901333D01*
D12*
X69254000Y-114542000D02*
X69254000Y-115542000D01*
X70954000Y-115542000D02*
X70954000Y-114542000D01*
X61634000Y-114562000D02*
X61634000Y-115562000D01*
X63334000Y-115562000D02*
X63334000Y-114562000D01*
X79844000Y-42156000D02*
X79844000Y-41156000D01*
X78144000Y-41156000D02*
X78144000Y-42156000D01*
X81818000Y-110582000D02*
X81118000Y-110582000D01*
X81118000Y-109382000D02*
X81818000Y-109382000D01*
X77462000Y-109132000D02*
X76462000Y-109132000D01*
X76462000Y-110832000D02*
X77462000Y-110832000D01*
X80176000Y-36838000D02*
X80176000Y-37838000D01*
X81876000Y-37838000D02*
X81876000Y-36838000D01*
X78648000Y-37688000D02*
X78648000Y-36988000D01*
X79848000Y-36988000D02*
X79848000Y-37688000D01*
X59444000Y-97624000D02*
X60444000Y-97624000D01*
X60444000Y-95924000D02*
X59444000Y-95924000D01*
X60360000Y-95596000D02*
X59660000Y-95596000D01*
X59660000Y-94396000D02*
X60360000Y-94396000D01*
X59655000Y-75850000D02*
X59655000Y-76550000D01*
X58455000Y-76550000D02*
X58455000Y-75850000D01*
X101250000Y-118145000D02*
X101950000Y-118145000D01*
X101950000Y-119345000D02*
X101250000Y-119345000D01*
X143545000Y-76550000D02*
X143545000Y-75850000D01*
X144745000Y-75850000D02*
X144745000Y-76550000D01*
X101949999Y-34255000D02*
X101249999Y-34255000D01*
X101249999Y-33055000D02*
X101949999Y-33055000D01*
X85375608Y-47398530D02*
X84769390Y-47748530D01*
X84169390Y-46709300D02*
X84775608Y-46359300D01*
X73148530Y-59369391D02*
X72798530Y-59975609D01*
X71759300Y-59375609D02*
X72109300Y-58769391D01*
X68545000Y-75850000D02*
X68545000Y-76550000D01*
X67345000Y-76550000D02*
X67345000Y-75850000D01*
X72798530Y-92424391D02*
X73148530Y-93030609D01*
X72109300Y-93630609D02*
X71759300Y-93024391D01*
X84769391Y-104651469D02*
X85375609Y-105001469D01*
X84775609Y-106040699D02*
X84169391Y-105690699D01*
X101250000Y-109255000D02*
X101950000Y-109255000D01*
X101950000Y-110455000D02*
X101250000Y-110455000D01*
X117824391Y-105001469D02*
X118430609Y-104651469D01*
X119030609Y-105690699D02*
X118424391Y-106040699D01*
X118430609Y-47748530D02*
X117824391Y-47398530D01*
X118424391Y-46359300D02*
X119030609Y-46709300D01*
X101950000Y-43145000D02*
X101250000Y-43145000D01*
X101250000Y-41945000D02*
X101950000Y-41945000D01*
X89820608Y-55097495D02*
X89214390Y-55447495D01*
X88614390Y-54408265D02*
X89220608Y-54058265D01*
X80847495Y-63814391D02*
X80497495Y-64420609D01*
X79458265Y-63820609D02*
X79808265Y-63214391D01*
X77435000Y-75850000D02*
X77435000Y-76550000D01*
X76235000Y-76550000D02*
X76235000Y-75850000D01*
X80497495Y-87979391D02*
X80847495Y-88585609D01*
X79808265Y-89185609D02*
X79458265Y-88579391D01*
X89214391Y-96952504D02*
X89820609Y-97302504D01*
X89220609Y-98341734D02*
X88614391Y-97991734D01*
X101250000Y-100365000D02*
X101950000Y-100365000D01*
X101950000Y-101565000D02*
X101250000Y-101565000D01*
X113379391Y-97302504D02*
X113985609Y-96952504D01*
X114585609Y-97991734D02*
X113979391Y-98341734D01*
X122352504Y-88585609D02*
X122702504Y-87979391D01*
X123741734Y-88579391D02*
X123391734Y-89185609D01*
X122702504Y-64420608D02*
X122352504Y-63814390D01*
X123391734Y-63214390D02*
X123741734Y-63820608D01*
X113985609Y-55447495D02*
X113379391Y-55097495D01*
X113979391Y-54058265D02*
X114585609Y-54408265D01*
X101950000Y-52035000D02*
X101250000Y-52035000D01*
X101250000Y-50835000D02*
X101950000Y-50835000D01*
X107280000Y-75850000D02*
X107280000Y-76550000D01*
X106080000Y-76550000D02*
X106080000Y-75850000D01*
X107068000Y-64850000D02*
X107068000Y-69150000D01*
X104768000Y-64850000D02*
X104768000Y-69150000D01*
X107068000Y-64850000D02*
X104768000Y-64850000D01*
X110270000Y-64172000D02*
X110270000Y-69672000D01*
X108170000Y-64172000D02*
X108170000Y-69672000D01*
X110270000Y-64172000D02*
X108170000Y-64172000D01*
X113418000Y-64772000D02*
X113418000Y-69072000D01*
X111118000Y-64772000D02*
X111118000Y-69072000D01*
X113418000Y-64772000D02*
X111118000Y-64772000D01*
X60952000Y-48934000D02*
X59952000Y-48934000D01*
X59952000Y-50634000D02*
X60952000Y-50634000D01*
X60168000Y-47406000D02*
X60868000Y-47406000D01*
X60868000Y-48606000D02*
X60168000Y-48606000D01*
X55718000Y-53310000D02*
X55718000Y-54010000D01*
X54518000Y-54010000D02*
X54518000Y-53310000D01*
X68570000Y-104920000D02*
X67640000Y-104920000D01*
X65410000Y-104920000D02*
X66340000Y-104920000D01*
X65410000Y-104920000D02*
X65410000Y-107080000D01*
X68570000Y-104920000D02*
X68570000Y-106380000D01*
X65784000Y-100586000D02*
X65784000Y-102486000D01*
X68104000Y-101986000D02*
X68104000Y-100586000D01*
X64010000Y-85170000D02*
X64010000Y-83270000D01*
X61690000Y-83770000D02*
X61690000Y-85170000D01*
X80346000Y-42410000D02*
X80346000Y-41410000D01*
X81706000Y-41410000D02*
X81706000Y-42410000D01*
X65710000Y-111588000D02*
X66710000Y-111588000D01*
X66710000Y-112948000D02*
X65710000Y-112948000D01*
X62820000Y-102270000D02*
X62820000Y-101270000D01*
X64180000Y-101270000D02*
X64180000Y-102270000D01*
X64180000Y-105248000D02*
X64180000Y-106248000D01*
X62820000Y-106248000D02*
X62820000Y-105248000D01*
X88316000Y-41230000D02*
X89316000Y-41230000D01*
X89316000Y-42590000D02*
X88316000Y-42590000D01*
X88316000Y-36912000D02*
X89316000Y-36912000D01*
X89316000Y-38272000D02*
X88316000Y-38272000D01*
X89316000Y-41066000D02*
X88316000Y-41066000D01*
X88316000Y-39706000D02*
X89316000Y-39706000D01*
X89316000Y-39796000D02*
X88316000Y-39796000D01*
X88316000Y-38436000D02*
X89316000Y-38436000D01*
X89580000Y-32944000D02*
X89580000Y-33944000D01*
X88220000Y-33944000D02*
X88220000Y-32944000D01*
X116250000Y-34214000D02*
X116250000Y-35214000D01*
X114890000Y-35214000D02*
X114890000Y-34214000D01*
X114218000Y-34214000D02*
X114218000Y-35214000D01*
X112858000Y-35214000D02*
X112858000Y-34214000D01*
X103894000Y-63074000D02*
X104894000Y-63074000D01*
X104894000Y-64434000D02*
X103894000Y-64434000D01*
X70028000Y-51136000D02*
X71028000Y-51136000D01*
X71028000Y-52496000D02*
X70028000Y-52496000D01*
X70028000Y-49358000D02*
X71028000Y-49358000D01*
X71028000Y-50718000D02*
X70028000Y-50718000D01*
X65394000Y-116672000D02*
X67194000Y-116672000D01*
X67194000Y-113452000D02*
X64744000Y-113452000D01*
X66100000Y-72700000D02*
X66100000Y-79700000D01*
X60900000Y-72700000D02*
X60900000Y-79700000D01*
X60900000Y-79700000D02*
X61900000Y-79700000D01*
X98100000Y-111700000D02*
X105100000Y-111700000D01*
X98100000Y-116900000D02*
X105100000Y-116900000D01*
X105100000Y-116900000D02*
X105100000Y-115900000D01*
X137100000Y-79700000D02*
X137100000Y-72700000D01*
X142300000Y-79700000D02*
X142300000Y-72700000D01*
X142300000Y-72700000D02*
X141300000Y-72700000D01*
X105099999Y-40700000D02*
X98099999Y-40700000D01*
X105099999Y-35500000D02*
X98099999Y-35500000D01*
X98099999Y-35500000D02*
X98099999Y-36500000D01*
X91326088Y-51405063D02*
X85263910Y-54905063D01*
X88726088Y-46901731D02*
X82663910Y-50401731D01*
X82663910Y-50401731D02*
X83163910Y-51267756D01*
X80305063Y-59863911D02*
X76805063Y-65926089D01*
X75801731Y-57263911D02*
X72301731Y-63326089D01*
X72301731Y-63326089D02*
X73167756Y-63826089D01*
X74990000Y-72700000D02*
X74990000Y-79700000D01*
X69790000Y-72700000D02*
X69790000Y-79700000D01*
X69790000Y-79700000D02*
X70790000Y-79700000D01*
X76805063Y-86473911D02*
X80305063Y-92536089D01*
X72301731Y-89073911D02*
X75801731Y-95136089D01*
X75801731Y-95136089D02*
X76667756Y-94636089D01*
X85263911Y-97494936D02*
X91326089Y-100994936D01*
X82663911Y-101998268D02*
X88726089Y-105498268D01*
X88726089Y-105498268D02*
X89226089Y-104632243D01*
X98100000Y-102810000D02*
X105100000Y-102810000D01*
X98100000Y-108010000D02*
X105100000Y-108010000D01*
X105100000Y-108010000D02*
X105100000Y-107010000D01*
X111873911Y-100994936D02*
X117936089Y-97494936D01*
X114473911Y-105498268D02*
X120536089Y-101998268D01*
X120536089Y-101998268D02*
X120036089Y-101132243D01*
X117936089Y-54905063D02*
X111873911Y-51405063D01*
X120536089Y-50401731D02*
X114473911Y-46901731D01*
X114473911Y-46901731D02*
X113973911Y-47767756D01*
X105100000Y-49590000D02*
X98100000Y-49590000D01*
X105100000Y-44390000D02*
X98100000Y-44390000D01*
X98100000Y-44390000D02*
X98100000Y-45390000D01*
X95771088Y-59104029D02*
X89708910Y-62604029D01*
X93171088Y-54600697D02*
X87108910Y-58100697D01*
X87108910Y-58100697D02*
X87608910Y-58966722D01*
X88004029Y-64308911D02*
X84504029Y-70371089D01*
X83500697Y-61708911D02*
X80000697Y-67771089D01*
X80000697Y-67771089D02*
X80866722Y-68271089D01*
X83880000Y-72700000D02*
X83880000Y-79700000D01*
X78680000Y-72700000D02*
X78680000Y-79700000D01*
X78680000Y-79700000D02*
X79680000Y-79700000D01*
X84504029Y-82028911D02*
X88004029Y-88091089D01*
X80000697Y-84628911D02*
X83500697Y-90691089D01*
X83500697Y-90691089D02*
X84366722Y-90191089D01*
X89708911Y-89795970D02*
X95771089Y-93295970D01*
X87108911Y-94299302D02*
X93171089Y-97799302D01*
X93171089Y-97799302D02*
X93671089Y-96933277D01*
X98100000Y-93920000D02*
X105100000Y-93920000D01*
X98100000Y-99120000D02*
X105100000Y-99120000D01*
X105100000Y-99120000D02*
X105100000Y-98120000D01*
X107428911Y-93295970D02*
X113491089Y-89795970D01*
X110028911Y-97799302D02*
X116091089Y-94299302D01*
X116091089Y-94299302D02*
X115591089Y-93433277D01*
X115195970Y-88091089D02*
X118695970Y-82028911D01*
X119699302Y-90691089D02*
X123199302Y-84628911D01*
X123199302Y-84628911D02*
X122333277Y-84128911D01*
X119320000Y-79700000D02*
X119320000Y-72700000D01*
X124520000Y-79700000D02*
X124520000Y-72700000D01*
X124520000Y-72700000D02*
X123520000Y-72700000D01*
X118695970Y-70371088D02*
X115195970Y-64308910D01*
X123199302Y-67771088D02*
X119699302Y-61708910D01*
X119699302Y-61708910D02*
X118833277Y-62208910D01*
X113491089Y-62604029D02*
X107428911Y-59104029D01*
X116091089Y-58100697D02*
X110028911Y-54600697D01*
X110028911Y-54600697D02*
X109528911Y-55466722D01*
X105100000Y-58480000D02*
X98100000Y-58480000D01*
X105100000Y-53280000D02*
X98100000Y-53280000D01*
X98100000Y-53280000D02*
X98100000Y-54280000D01*
X98100000Y-73600000D02*
X105100000Y-73600000D01*
X98100000Y-78800000D02*
X105100000Y-78800000D01*
X105100000Y-78800000D02*
X105100000Y-77800000D01*
D13*
X100854000Y-69056000D02*
X100854000Y-65056000D01*
X102854000Y-69056000D02*
X100854000Y-69056000D01*
X102854000Y-65056000D02*
X102854000Y-69056000D01*
X100854000Y-65056000D02*
X102854000Y-65056000D01*
X58190000Y-51594000D02*
G75*
G03X58190000Y-51594000I-500000J0D01*
G01*
X58190000Y-52094000D02*
X58190000Y-55094000D01*
X58190000Y-52094000D02*
X61190000Y-52094000D01*
X58190000Y-55094000D02*
X58190000Y-52094000D01*
X58190000Y-55094000D02*
X61190000Y-55094000D01*
X58190000Y-52094000D02*
X61190000Y-52094000D01*
X61190000Y-52094000D02*
X61190000Y-55094000D01*
X60096000Y-94336000D02*
X60096000Y-93336000D01*
X61096000Y-94336000D02*
X60096000Y-94336000D01*
X65096000Y-94336000D02*
X64096000Y-94336000D01*
X65096000Y-93336000D02*
X65096000Y-94336000D01*
X65096000Y-89336000D02*
X65096000Y-90336000D01*
X64096000Y-89336000D02*
X65096000Y-89336000D01*
X60096000Y-90336000D02*
X61096000Y-89336000D01*
D12*
X70734000Y-122300000D02*
X70734000Y-119000000D01*
X70734000Y-119000000D02*
X63834000Y-119000000D01*
X70734000Y-122300000D02*
X63834000Y-122300000D01*
X97200000Y-75954000D02*
X97200000Y-76954000D01*
X95840000Y-76954000D02*
X95840000Y-75954000D01*
X130051469Y-93030609D02*
X130401469Y-92424391D01*
X131440699Y-93024391D02*
X131090699Y-93630609D01*
X134655000Y-76550000D02*
X134655000Y-75850000D01*
X135855000Y-75850000D02*
X135855000Y-76550000D01*
X130401469Y-59975608D02*
X130051469Y-59369390D01*
X131090699Y-58769390D02*
X131440699Y-59375608D01*
X125765000Y-76550000D02*
X125765000Y-75850000D01*
X126965000Y-75850000D02*
X126965000Y-76550000D01*
X122894936Y-92536089D02*
X126394936Y-86473911D01*
X127398268Y-95136089D02*
X130898268Y-89073911D01*
X130898268Y-89073911D02*
X130032243Y-88573911D01*
X128210000Y-79700000D02*
X128210000Y-72700000D01*
X133410000Y-79700000D02*
X133410000Y-72700000D01*
X133410000Y-72700000D02*
X132410000Y-72700000D01*
X126394936Y-65926088D02*
X122894936Y-59863910D01*
X130898268Y-63326088D02*
X127398268Y-57263910D01*
X127398268Y-57263910D02*
X126532243Y-57763910D01*
D13*
X113792000Y-41148000D02*
X113792000Y-28448000D01*
X144272000Y-41148000D02*
X144272000Y-28448000D01*
X107442000Y-41148000D02*
X148082000Y-41148000D01*
X148082000Y-28448000D02*
X148082000Y-41148000D01*
X107442000Y-28448000D02*
X148082000Y-28448000D01*
X148082000Y-28448000D02*
X107442000Y-28448000D01*
X107442000Y-41148000D02*
X107442000Y-28448000D01*
X51636000Y-93146000D02*
X51636000Y-98646000D01*
X51636000Y-85646000D02*
X51636000Y-91146000D01*
X50086000Y-86646000D02*
X57086000Y-86646000D01*
X50086000Y-97696000D02*
X50086000Y-86646000D01*
X57086000Y-97646000D02*
X50086000Y-97696000D01*
X57086000Y-86646000D02*
X57086000Y-97646000D01*
X70461143Y-111672666D02*
X70508762Y-111720285D01*
X70556381Y-111863142D01*
X70556381Y-111958380D01*
X70508762Y-112101238D01*
X70413524Y-112196476D01*
X70318286Y-112244095D01*
X70127810Y-112291714D01*
X69984952Y-112291714D01*
X69794476Y-112244095D01*
X69699238Y-112196476D01*
X69604000Y-112101238D01*
X69556381Y-111958380D01*
X69556381Y-111863142D01*
X69604000Y-111720285D01*
X69651619Y-111672666D01*
X70556381Y-110720285D02*
X70556381Y-111291714D01*
X70556381Y-111006000D02*
X69556381Y-111006000D01*
X69699238Y-111101238D01*
X69794476Y-111196476D01*
X69842095Y-111291714D01*
X61825143Y-111672666D02*
X61872762Y-111720285D01*
X61920381Y-111863142D01*
X61920381Y-111958380D01*
X61872762Y-112101238D01*
X61777524Y-112196476D01*
X61682286Y-112244095D01*
X61491810Y-112291714D01*
X61348952Y-112291714D01*
X61158476Y-112244095D01*
X61063238Y-112196476D01*
X60968000Y-112101238D01*
X60920381Y-111958380D01*
X60920381Y-111863142D01*
X60968000Y-111720285D01*
X61015619Y-111672666D01*
X61015619Y-111291714D02*
X60968000Y-111244095D01*
X60920381Y-111148857D01*
X60920381Y-110910761D01*
X60968000Y-110815523D01*
X61015619Y-110767904D01*
X61110857Y-110720285D01*
X61206095Y-110720285D01*
X61348952Y-110767904D01*
X61920381Y-111339333D01*
X61920381Y-110720285D01*
X79351143Y-45124666D02*
X79398762Y-45172285D01*
X79446381Y-45315142D01*
X79446381Y-45410380D01*
X79398762Y-45553238D01*
X79303524Y-45648476D01*
X79208286Y-45696095D01*
X79017810Y-45743714D01*
X78874952Y-45743714D01*
X78684476Y-45696095D01*
X78589238Y-45648476D01*
X78494000Y-45553238D01*
X78446381Y-45410380D01*
X78446381Y-45315142D01*
X78494000Y-45172285D01*
X78541619Y-45124666D01*
X78446381Y-44791333D02*
X78446381Y-44172285D01*
X78827333Y-44505619D01*
X78827333Y-44362761D01*
X78874952Y-44267523D01*
X78922571Y-44219904D01*
X79017810Y-44172285D01*
X79255905Y-44172285D01*
X79351143Y-44219904D01*
X79398762Y-44267523D01*
X79446381Y-44362761D01*
X79446381Y-44648476D01*
X79398762Y-44743714D01*
X79351143Y-44791333D01*
X84415334Y-110339143D02*
X84367715Y-110386762D01*
X84224858Y-110434381D01*
X84129620Y-110434381D01*
X83986762Y-110386762D01*
X83891524Y-110291524D01*
X83843905Y-110196286D01*
X83796286Y-110005810D01*
X83796286Y-109862952D01*
X83843905Y-109672476D01*
X83891524Y-109577238D01*
X83986762Y-109482000D01*
X84129620Y-109434381D01*
X84224858Y-109434381D01*
X84367715Y-109482000D01*
X84415334Y-109529619D01*
X85272477Y-109767714D02*
X85272477Y-110434381D01*
X85034381Y-109386762D02*
X84796286Y-110101048D01*
X85415334Y-110101048D01*
X74001334Y-108815143D02*
X73953715Y-108862762D01*
X73810858Y-108910381D01*
X73715620Y-108910381D01*
X73572762Y-108862762D01*
X73477524Y-108767524D01*
X73429905Y-108672286D01*
X73382286Y-108481810D01*
X73382286Y-108338952D01*
X73429905Y-108148476D01*
X73477524Y-108053238D01*
X73572762Y-107958000D01*
X73715620Y-107910381D01*
X73810858Y-107910381D01*
X73953715Y-107958000D01*
X74001334Y-108005619D01*
X74906096Y-107910381D02*
X74429905Y-107910381D01*
X74382286Y-108386571D01*
X74429905Y-108338952D01*
X74525143Y-108291333D01*
X74763239Y-108291333D01*
X74858477Y-108338952D01*
X74906096Y-108386571D01*
X74953715Y-108481810D01*
X74953715Y-108719905D01*
X74906096Y-108815143D01*
X74858477Y-108862762D01*
X74763239Y-108910381D01*
X74525143Y-108910381D01*
X74429905Y-108862762D01*
X74382286Y-108815143D01*
X83161143Y-37504666D02*
X83208762Y-37552285D01*
X83256381Y-37695142D01*
X83256381Y-37790380D01*
X83208762Y-37933238D01*
X83113524Y-38028476D01*
X83018286Y-38076095D01*
X82827810Y-38123714D01*
X82684952Y-38123714D01*
X82494476Y-38076095D01*
X82399238Y-38028476D01*
X82304000Y-37933238D01*
X82256381Y-37790380D01*
X82256381Y-37695142D01*
X82304000Y-37552285D01*
X82351619Y-37504666D01*
X82256381Y-36647523D02*
X82256381Y-36838000D01*
X82304000Y-36933238D01*
X82351619Y-36980857D01*
X82494476Y-37076095D01*
X82684952Y-37123714D01*
X83065905Y-37123714D01*
X83161143Y-37076095D01*
X83208762Y-37028476D01*
X83256381Y-36933238D01*
X83256381Y-36742761D01*
X83208762Y-36647523D01*
X83161143Y-36599904D01*
X83065905Y-36552285D01*
X82827810Y-36552285D01*
X82732571Y-36599904D01*
X82684952Y-36647523D01*
X82637333Y-36742761D01*
X82637333Y-36933238D01*
X82684952Y-37028476D01*
X82732571Y-37076095D01*
X82827810Y-37123714D01*
X77827143Y-37504666D02*
X77874762Y-37552285D01*
X77922381Y-37695142D01*
X77922381Y-37790380D01*
X77874762Y-37933238D01*
X77779524Y-38028476D01*
X77684286Y-38076095D01*
X77493810Y-38123714D01*
X77350952Y-38123714D01*
X77160476Y-38076095D01*
X77065238Y-38028476D01*
X76970000Y-37933238D01*
X76922381Y-37790380D01*
X76922381Y-37695142D01*
X76970000Y-37552285D01*
X77017619Y-37504666D01*
X76922381Y-37171333D02*
X76922381Y-36504666D01*
X77922381Y-36933238D01*
X59777334Y-98881143D02*
X59729715Y-98928762D01*
X59586858Y-98976381D01*
X59491620Y-98976381D01*
X59348762Y-98928762D01*
X59253524Y-98833524D01*
X59205905Y-98738286D01*
X59158286Y-98547810D01*
X59158286Y-98404952D01*
X59205905Y-98214476D01*
X59253524Y-98119238D01*
X59348762Y-98024000D01*
X59491620Y-97976381D01*
X59586858Y-97976381D01*
X59729715Y-98024000D01*
X59777334Y-98071619D01*
X60348762Y-98404952D02*
X60253524Y-98357333D01*
X60205905Y-98309714D01*
X60158286Y-98214476D01*
X60158286Y-98166857D01*
X60205905Y-98071619D01*
X60253524Y-98024000D01*
X60348762Y-97976381D01*
X60539239Y-97976381D01*
X60634477Y-98024000D01*
X60682096Y-98071619D01*
X60729715Y-98166857D01*
X60729715Y-98214476D01*
X60682096Y-98309714D01*
X60634477Y-98357333D01*
X60539239Y-98404952D01*
X60348762Y-98404952D01*
X60253524Y-98452571D01*
X60205905Y-98500190D01*
X60158286Y-98595429D01*
X60158286Y-98785905D01*
X60205905Y-98881143D01*
X60253524Y-98928762D01*
X60348762Y-98976381D01*
X60539239Y-98976381D01*
X60634477Y-98928762D01*
X60682096Y-98881143D01*
X60729715Y-98785905D01*
X60729715Y-98595429D01*
X60682096Y-98500190D01*
X60634477Y-98452571D01*
X60539239Y-98404952D01*
X63211334Y-96369143D02*
X63163715Y-96416762D01*
X63020858Y-96464381D01*
X62925620Y-96464381D01*
X62782762Y-96416762D01*
X62687524Y-96321524D01*
X62639905Y-96226286D01*
X62592286Y-96035810D01*
X62592286Y-95892952D01*
X62639905Y-95702476D01*
X62687524Y-95607238D01*
X62782762Y-95512000D01*
X62925620Y-95464381D01*
X63020858Y-95464381D01*
X63163715Y-95512000D01*
X63211334Y-95559619D01*
X63687524Y-96464381D02*
X63878000Y-96464381D01*
X63973239Y-96416762D01*
X64020858Y-96369143D01*
X64116096Y-96226286D01*
X64163715Y-96035810D01*
X64163715Y-95654857D01*
X64116096Y-95559619D01*
X64068477Y-95512000D01*
X63973239Y-95464381D01*
X63782762Y-95464381D01*
X63687524Y-95512000D01*
X63639905Y-95559619D01*
X63592286Y-95654857D01*
X63592286Y-95892952D01*
X63639905Y-95988190D01*
X63687524Y-96035810D01*
X63782762Y-96083429D01*
X63973239Y-96083429D01*
X64068477Y-96035810D01*
X64116096Y-95988190D01*
X64163715Y-95892952D01*
X105275143Y-72747143D02*
X105227524Y-72794762D01*
X105084667Y-72842381D01*
X104989429Y-72842381D01*
X104846571Y-72794762D01*
X104751333Y-72699524D01*
X104703714Y-72604286D01*
X104656095Y-72413810D01*
X104656095Y-72270952D01*
X104703714Y-72080476D01*
X104751333Y-71985238D01*
X104846571Y-71890000D01*
X104989429Y-71842381D01*
X105084667Y-71842381D01*
X105227524Y-71890000D01*
X105275143Y-71937619D01*
X105608476Y-71842381D02*
X106227524Y-71842381D01*
X105894190Y-72223333D01*
X106037048Y-72223333D01*
X106132286Y-72270952D01*
X106179905Y-72318571D01*
X106227524Y-72413810D01*
X106227524Y-72651905D01*
X106179905Y-72747143D01*
X106132286Y-72794762D01*
X106037048Y-72842381D01*
X105751333Y-72842381D01*
X105656095Y-72794762D01*
X105608476Y-72747143D01*
X106703714Y-72842381D02*
X106894190Y-72842381D01*
X106989429Y-72794762D01*
X107037048Y-72747143D01*
X107132286Y-72604286D01*
X107179905Y-72413810D01*
X107179905Y-72032857D01*
X107132286Y-71937619D01*
X107084667Y-71890000D01*
X106989429Y-71842381D01*
X106798952Y-71842381D01*
X106703714Y-71890000D01*
X106656095Y-71937619D01*
X106608476Y-72032857D01*
X106608476Y-72270952D01*
X106656095Y-72366190D01*
X106703714Y-72413810D01*
X106798952Y-72461429D01*
X106989429Y-72461429D01*
X107084667Y-72413810D01*
X107132286Y-72366190D01*
X107179905Y-72270952D01*
X108577143Y-72747143D02*
X108529524Y-72794762D01*
X108386667Y-72842381D01*
X108291429Y-72842381D01*
X108148571Y-72794762D01*
X108053333Y-72699524D01*
X108005714Y-72604286D01*
X107958095Y-72413810D01*
X107958095Y-72270952D01*
X108005714Y-72080476D01*
X108053333Y-71985238D01*
X108148571Y-71890000D01*
X108291429Y-71842381D01*
X108386667Y-71842381D01*
X108529524Y-71890000D01*
X108577143Y-71937619D01*
X109434286Y-72175714D02*
X109434286Y-72842381D01*
X109196190Y-71794762D02*
X108958095Y-72509048D01*
X109577143Y-72509048D01*
X110148571Y-71842381D02*
X110243810Y-71842381D01*
X110339048Y-71890000D01*
X110386667Y-71937619D01*
X110434286Y-72032857D01*
X110481905Y-72223333D01*
X110481905Y-72461429D01*
X110434286Y-72651905D01*
X110386667Y-72747143D01*
X110339048Y-72794762D01*
X110243810Y-72842381D01*
X110148571Y-72842381D01*
X110053333Y-72794762D01*
X110005714Y-72747143D01*
X109958095Y-72651905D01*
X109910476Y-72461429D01*
X109910476Y-72223333D01*
X109958095Y-72032857D01*
X110005714Y-71937619D01*
X110053333Y-71890000D01*
X110148571Y-71842381D01*
X111625143Y-72747143D02*
X111577524Y-72794762D01*
X111434667Y-72842381D01*
X111339429Y-72842381D01*
X111196571Y-72794762D01*
X111101333Y-72699524D01*
X111053714Y-72604286D01*
X111006095Y-72413810D01*
X111006095Y-72270952D01*
X111053714Y-72080476D01*
X111101333Y-71985238D01*
X111196571Y-71890000D01*
X111339429Y-71842381D01*
X111434667Y-71842381D01*
X111577524Y-71890000D01*
X111625143Y-71937619D01*
X112482286Y-72175714D02*
X112482286Y-72842381D01*
X112244190Y-71794762D02*
X112006095Y-72509048D01*
X112625143Y-72509048D01*
X113529905Y-72842381D02*
X112958476Y-72842381D01*
X113244190Y-72842381D02*
X113244190Y-71842381D01*
X113148952Y-71985238D01*
X113053714Y-72080476D01*
X112958476Y-72128095D01*
X63619143Y-50141143D02*
X63571524Y-50188762D01*
X63428667Y-50236381D01*
X63333429Y-50236381D01*
X63190571Y-50188762D01*
X63095333Y-50093524D01*
X63047714Y-49998286D01*
X63000095Y-49807810D01*
X63000095Y-49664952D01*
X63047714Y-49474476D01*
X63095333Y-49379238D01*
X63190571Y-49284000D01*
X63333429Y-49236381D01*
X63428667Y-49236381D01*
X63571524Y-49284000D01*
X63619143Y-49331619D01*
X64476286Y-49569714D02*
X64476286Y-50236381D01*
X64238190Y-49188762D02*
X64000095Y-49903048D01*
X64619143Y-49903048D01*
X64952476Y-49331619D02*
X65000095Y-49284000D01*
X65095333Y-49236381D01*
X65333429Y-49236381D01*
X65428667Y-49284000D01*
X65476286Y-49331619D01*
X65523905Y-49426857D01*
X65523905Y-49522095D01*
X65476286Y-49664952D01*
X64904857Y-50236381D01*
X65523905Y-50236381D01*
X63619143Y-48617143D02*
X63571524Y-48664762D01*
X63428667Y-48712381D01*
X63333429Y-48712381D01*
X63190571Y-48664762D01*
X63095333Y-48569524D01*
X63047714Y-48474286D01*
X63000095Y-48283810D01*
X63000095Y-48140952D01*
X63047714Y-47950476D01*
X63095333Y-47855238D01*
X63190571Y-47760000D01*
X63333429Y-47712381D01*
X63428667Y-47712381D01*
X63571524Y-47760000D01*
X63619143Y-47807619D01*
X64476286Y-48045714D02*
X64476286Y-48712381D01*
X64238190Y-47664762D02*
X64000095Y-48379048D01*
X64619143Y-48379048D01*
X64904857Y-47712381D02*
X65523905Y-47712381D01*
X65190571Y-48093333D01*
X65333429Y-48093333D01*
X65428667Y-48140952D01*
X65476286Y-48188571D01*
X65523905Y-48283810D01*
X65523905Y-48521905D01*
X65476286Y-48617143D01*
X65428667Y-48664762D01*
X65333429Y-48712381D01*
X65047714Y-48712381D01*
X64952476Y-48664762D01*
X64904857Y-48617143D01*
X55475143Y-50680857D02*
X55522762Y-50728476D01*
X55570381Y-50871333D01*
X55570381Y-50966571D01*
X55522762Y-51109429D01*
X55427524Y-51204667D01*
X55332286Y-51252286D01*
X55141810Y-51299905D01*
X54998952Y-51299905D01*
X54808476Y-51252286D01*
X54713238Y-51204667D01*
X54618000Y-51109429D01*
X54570381Y-50966571D01*
X54570381Y-50871333D01*
X54618000Y-50728476D01*
X54665619Y-50680857D01*
X54903714Y-49823714D02*
X55570381Y-49823714D01*
X54522762Y-50061810D02*
X55237048Y-50299905D01*
X55237048Y-49680857D01*
X54903714Y-48871333D02*
X55570381Y-48871333D01*
X54522762Y-49109429D02*
X55237048Y-49347524D01*
X55237048Y-48728476D01*
X70143619Y-106013238D02*
X70096000Y-106108476D01*
X70000762Y-106203714D01*
X69857905Y-106346571D01*
X69810286Y-106441810D01*
X69810286Y-106537048D01*
X70048381Y-106489429D02*
X70000762Y-106584667D01*
X69905524Y-106679905D01*
X69715048Y-106727524D01*
X69381714Y-106727524D01*
X69191238Y-106679905D01*
X69096000Y-106584667D01*
X69048381Y-106489429D01*
X69048381Y-106298952D01*
X69096000Y-106203714D01*
X69191238Y-106108476D01*
X69381714Y-106060857D01*
X69715048Y-106060857D01*
X69905524Y-106108476D01*
X70000762Y-106203714D01*
X70048381Y-106298952D01*
X70048381Y-106489429D01*
X70048381Y-105108476D02*
X70048381Y-105679905D01*
X70048381Y-105394191D02*
X69048381Y-105394191D01*
X69191238Y-105489429D01*
X69286476Y-105584667D01*
X69334095Y-105679905D01*
X70143619Y-101441238D02*
X70096000Y-101536476D01*
X70000762Y-101631714D01*
X69857905Y-101774571D01*
X69810286Y-101869810D01*
X69810286Y-101965048D01*
X70048381Y-101917429D02*
X70000762Y-102012667D01*
X69905524Y-102107905D01*
X69715048Y-102155524D01*
X69381714Y-102155524D01*
X69191238Y-102107905D01*
X69096000Y-102012667D01*
X69048381Y-101917429D01*
X69048381Y-101726952D01*
X69096000Y-101631714D01*
X69191238Y-101536476D01*
X69381714Y-101488857D01*
X69715048Y-101488857D01*
X69905524Y-101536476D01*
X70000762Y-101631714D01*
X70048381Y-101726952D01*
X70048381Y-101917429D01*
X69143619Y-101107905D02*
X69096000Y-101060286D01*
X69048381Y-100965048D01*
X69048381Y-100726952D01*
X69096000Y-100631714D01*
X69143619Y-100584095D01*
X69238857Y-100536476D01*
X69334095Y-100536476D01*
X69476952Y-100584095D01*
X70048381Y-101155524D01*
X70048381Y-100536476D01*
X65571619Y-84565238D02*
X65524000Y-84660476D01*
X65428762Y-84755714D01*
X65285905Y-84898571D01*
X65238286Y-84993810D01*
X65238286Y-85089048D01*
X65476381Y-85041429D02*
X65428762Y-85136667D01*
X65333524Y-85231905D01*
X65143048Y-85279524D01*
X64809714Y-85279524D01*
X64619238Y-85231905D01*
X64524000Y-85136667D01*
X64476381Y-85041429D01*
X64476381Y-84850952D01*
X64524000Y-84755714D01*
X64619238Y-84660476D01*
X64809714Y-84612857D01*
X65143048Y-84612857D01*
X65333524Y-84660476D01*
X65428762Y-84755714D01*
X65476381Y-84850952D01*
X65476381Y-85041429D01*
X64476381Y-84279524D02*
X64476381Y-83660476D01*
X64857333Y-83993810D01*
X64857333Y-83850952D01*
X64904952Y-83755714D01*
X64952571Y-83708095D01*
X65047810Y-83660476D01*
X65285905Y-83660476D01*
X65381143Y-83708095D01*
X65428762Y-83755714D01*
X65476381Y-83850952D01*
X65476381Y-84136667D01*
X65428762Y-84231905D01*
X65381143Y-84279524D01*
X81478381Y-45124666D02*
X81002190Y-45458000D01*
X81478381Y-45696095D02*
X80478381Y-45696095D01*
X80478381Y-45315142D01*
X80526000Y-45219904D01*
X80573619Y-45172285D01*
X80668857Y-45124666D01*
X80811714Y-45124666D01*
X80906952Y-45172285D01*
X80954571Y-45219904D01*
X81002190Y-45315142D01*
X81002190Y-45696095D01*
X81478381Y-44172285D02*
X81478381Y-44743714D01*
X81478381Y-44458000D02*
X80478381Y-44458000D01*
X80621238Y-44553238D01*
X80716476Y-44648476D01*
X80764095Y-44743714D01*
X66043334Y-111196381D02*
X65710000Y-110720190D01*
X65471905Y-111196381D02*
X65471905Y-110196381D01*
X65852858Y-110196381D01*
X65948096Y-110244000D01*
X65995715Y-110291619D01*
X66043334Y-110386857D01*
X66043334Y-110529714D01*
X65995715Y-110624952D01*
X65948096Y-110672571D01*
X65852858Y-110720190D01*
X65471905Y-110720190D01*
X66424286Y-110291619D02*
X66471905Y-110244000D01*
X66567143Y-110196381D01*
X66805239Y-110196381D01*
X66900477Y-110244000D01*
X66948096Y-110291619D01*
X66995715Y-110386857D01*
X66995715Y-110482095D01*
X66948096Y-110624952D01*
X66376667Y-111196381D01*
X66995715Y-111196381D01*
X62428381Y-101766666D02*
X61952190Y-102100000D01*
X62428381Y-102338095D02*
X61428381Y-102338095D01*
X61428381Y-101957142D01*
X61476000Y-101861904D01*
X61523619Y-101814285D01*
X61618857Y-101766666D01*
X61761714Y-101766666D01*
X61856952Y-101814285D01*
X61904571Y-101861904D01*
X61952190Y-101957142D01*
X61952190Y-102338095D01*
X61428381Y-101433333D02*
X61428381Y-100814285D01*
X61809333Y-101147619D01*
X61809333Y-101004761D01*
X61856952Y-100909523D01*
X61904571Y-100861904D01*
X61999810Y-100814285D01*
X62237905Y-100814285D01*
X62333143Y-100861904D01*
X62380762Y-100909523D01*
X62428381Y-101004761D01*
X62428381Y-101290476D01*
X62380762Y-101385714D01*
X62333143Y-101433333D01*
X62502381Y-105914666D02*
X62026190Y-106248000D01*
X62502381Y-106486095D02*
X61502381Y-106486095D01*
X61502381Y-106105142D01*
X61550000Y-106009904D01*
X61597619Y-105962285D01*
X61692857Y-105914666D01*
X61835714Y-105914666D01*
X61930952Y-105962285D01*
X61978571Y-106009904D01*
X62026190Y-106105142D01*
X62026190Y-106486095D01*
X61835714Y-105057523D02*
X62502381Y-105057523D01*
X61454762Y-105295619D02*
X62169048Y-105533714D01*
X62169048Y-104914666D01*
X92035334Y-42616381D02*
X91702000Y-42140190D01*
X91463905Y-42616381D02*
X91463905Y-41616381D01*
X91844858Y-41616381D01*
X91940096Y-41664000D01*
X91987715Y-41711619D01*
X92035334Y-41806857D01*
X92035334Y-41949714D01*
X91987715Y-42044952D01*
X91940096Y-42092571D01*
X91844858Y-42140190D01*
X91463905Y-42140190D01*
X92940096Y-41616381D02*
X92463905Y-41616381D01*
X92416286Y-42092571D01*
X92463905Y-42044952D01*
X92559143Y-41997333D01*
X92797239Y-41997333D01*
X92892477Y-42044952D01*
X92940096Y-42092571D01*
X92987715Y-42187810D01*
X92987715Y-42425905D01*
X92940096Y-42521143D01*
X92892477Y-42568762D01*
X92797239Y-42616381D01*
X92559143Y-42616381D01*
X92463905Y-42568762D01*
X92416286Y-42521143D01*
X92035334Y-38044381D02*
X91702000Y-37568190D01*
X91463905Y-38044381D02*
X91463905Y-37044381D01*
X91844858Y-37044381D01*
X91940096Y-37092000D01*
X91987715Y-37139619D01*
X92035334Y-37234857D01*
X92035334Y-37377714D01*
X91987715Y-37472952D01*
X91940096Y-37520571D01*
X91844858Y-37568190D01*
X91463905Y-37568190D01*
X92892477Y-37044381D02*
X92702000Y-37044381D01*
X92606762Y-37092000D01*
X92559143Y-37139619D01*
X92463905Y-37282476D01*
X92416286Y-37472952D01*
X92416286Y-37853905D01*
X92463905Y-37949143D01*
X92511524Y-37996762D01*
X92606762Y-38044381D01*
X92797239Y-38044381D01*
X92892477Y-37996762D01*
X92940096Y-37949143D01*
X92987715Y-37853905D01*
X92987715Y-37615810D01*
X92940096Y-37520571D01*
X92892477Y-37472952D01*
X92797239Y-37425333D01*
X92606762Y-37425333D01*
X92511524Y-37472952D01*
X92463905Y-37520571D01*
X92416286Y-37615810D01*
X92035334Y-41092381D02*
X91702000Y-40616190D01*
X91463905Y-41092381D02*
X91463905Y-40092381D01*
X91844858Y-40092381D01*
X91940096Y-40140000D01*
X91987715Y-40187619D01*
X92035334Y-40282857D01*
X92035334Y-40425714D01*
X91987715Y-40520952D01*
X91940096Y-40568571D01*
X91844858Y-40616190D01*
X91463905Y-40616190D01*
X92368667Y-40092381D02*
X93035334Y-40092381D01*
X92606762Y-41092381D01*
X92035334Y-39568381D02*
X91702000Y-39092190D01*
X91463905Y-39568381D02*
X91463905Y-38568381D01*
X91844858Y-38568381D01*
X91940096Y-38616000D01*
X91987715Y-38663619D01*
X92035334Y-38758857D01*
X92035334Y-38901714D01*
X91987715Y-38996952D01*
X91940096Y-39044571D01*
X91844858Y-39092190D01*
X91463905Y-39092190D01*
X92606762Y-38996952D02*
X92511524Y-38949333D01*
X92463905Y-38901714D01*
X92416286Y-38806476D01*
X92416286Y-38758857D01*
X92463905Y-38663619D01*
X92511524Y-38616000D01*
X92606762Y-38568381D01*
X92797239Y-38568381D01*
X92892477Y-38616000D01*
X92940096Y-38663619D01*
X92987715Y-38758857D01*
X92987715Y-38806476D01*
X92940096Y-38901714D01*
X92892477Y-38949333D01*
X92797239Y-38996952D01*
X92606762Y-38996952D01*
X92511524Y-39044571D01*
X92463905Y-39092190D01*
X92416286Y-39187429D01*
X92416286Y-39377905D01*
X92463905Y-39473143D01*
X92511524Y-39520762D01*
X92606762Y-39568381D01*
X92797239Y-39568381D01*
X92892477Y-39520762D01*
X92940096Y-39473143D01*
X92987715Y-39377905D01*
X92987715Y-39187429D01*
X92940096Y-39092190D01*
X92892477Y-39044571D01*
X92797239Y-38996952D01*
X87902381Y-34086857D02*
X87426190Y-34420191D01*
X87902381Y-34658286D02*
X86902381Y-34658286D01*
X86902381Y-34277333D01*
X86950000Y-34182095D01*
X86997619Y-34134476D01*
X87092857Y-34086857D01*
X87235714Y-34086857D01*
X87330952Y-34134476D01*
X87378571Y-34182095D01*
X87426190Y-34277333D01*
X87426190Y-34658286D01*
X87902381Y-33134476D02*
X87902381Y-33705905D01*
X87902381Y-33420191D02*
X86902381Y-33420191D01*
X87045238Y-33515429D01*
X87140476Y-33610667D01*
X87188095Y-33705905D01*
X87902381Y-32182095D02*
X87902381Y-32753524D01*
X87902381Y-32467810D02*
X86902381Y-32467810D01*
X87045238Y-32563048D01*
X87140476Y-32658286D01*
X87188095Y-32753524D01*
X116022381Y-38996857D02*
X115546190Y-39330191D01*
X116022381Y-39568286D02*
X115022381Y-39568286D01*
X115022381Y-39187333D01*
X115070000Y-39092095D01*
X115117619Y-39044476D01*
X115212857Y-38996857D01*
X115355714Y-38996857D01*
X115450952Y-39044476D01*
X115498571Y-39092095D01*
X115546190Y-39187333D01*
X115546190Y-39568286D01*
X116022381Y-38044476D02*
X116022381Y-38615905D01*
X116022381Y-38330191D02*
X115022381Y-38330191D01*
X115165238Y-38425429D01*
X115260476Y-38520667D01*
X115308095Y-38615905D01*
X115117619Y-37663524D02*
X115070000Y-37615905D01*
X115022381Y-37520667D01*
X115022381Y-37282571D01*
X115070000Y-37187333D01*
X115117619Y-37139714D01*
X115212857Y-37092095D01*
X115308095Y-37092095D01*
X115450952Y-37139714D01*
X116022381Y-37711143D01*
X116022381Y-37092095D01*
X113990381Y-38996857D02*
X113514190Y-39330191D01*
X113990381Y-39568286D02*
X112990381Y-39568286D01*
X112990381Y-39187333D01*
X113038000Y-39092095D01*
X113085619Y-39044476D01*
X113180857Y-38996857D01*
X113323714Y-38996857D01*
X113418952Y-39044476D01*
X113466571Y-39092095D01*
X113514190Y-39187333D01*
X113514190Y-39568286D01*
X113990381Y-38044476D02*
X113990381Y-38615905D01*
X113990381Y-38330191D02*
X112990381Y-38330191D01*
X113133238Y-38425429D01*
X113228476Y-38520667D01*
X113276095Y-38615905D01*
X112990381Y-37711143D02*
X112990381Y-37092095D01*
X113371333Y-37425429D01*
X113371333Y-37282571D01*
X113418952Y-37187333D01*
X113466571Y-37139714D01*
X113561810Y-37092095D01*
X113799905Y-37092095D01*
X113895143Y-37139714D01*
X113942762Y-37187333D01*
X113990381Y-37282571D01*
X113990381Y-37568286D01*
X113942762Y-37663524D01*
X113895143Y-37711143D01*
X103751143Y-62682381D02*
X103417809Y-62206190D01*
X103179714Y-62682381D02*
X103179714Y-61682381D01*
X103560667Y-61682381D01*
X103655905Y-61730000D01*
X103703524Y-61777619D01*
X103751143Y-61872857D01*
X103751143Y-62015714D01*
X103703524Y-62110952D01*
X103655905Y-62158571D01*
X103560667Y-62206190D01*
X103179714Y-62206190D01*
X104703524Y-62682381D02*
X104132095Y-62682381D01*
X104417809Y-62682381D02*
X104417809Y-61682381D01*
X104322571Y-61825238D01*
X104227333Y-61920476D01*
X104132095Y-61968095D01*
X105560667Y-62015714D02*
X105560667Y-62682381D01*
X105322571Y-61634762D02*
X105084476Y-62349048D01*
X105703524Y-62349048D01*
X69885143Y-53718381D02*
X69551809Y-53242190D01*
X69313714Y-53718381D02*
X69313714Y-52718381D01*
X69694667Y-52718381D01*
X69789905Y-52766000D01*
X69837524Y-52813619D01*
X69885143Y-52908857D01*
X69885143Y-53051714D01*
X69837524Y-53146952D01*
X69789905Y-53194571D01*
X69694667Y-53242190D01*
X69313714Y-53242190D01*
X70837524Y-53718381D02*
X70266095Y-53718381D01*
X70551809Y-53718381D02*
X70551809Y-52718381D01*
X70456571Y-52861238D01*
X70361333Y-52956476D01*
X70266095Y-53004095D01*
X71742286Y-52718381D02*
X71266095Y-52718381D01*
X71218476Y-53194571D01*
X71266095Y-53146952D01*
X71361333Y-53099333D01*
X71599429Y-53099333D01*
X71694667Y-53146952D01*
X71742286Y-53194571D01*
X71789905Y-53289810D01*
X71789905Y-53527905D01*
X71742286Y-53623143D01*
X71694667Y-53670762D01*
X71599429Y-53718381D01*
X71361333Y-53718381D01*
X71266095Y-53670762D01*
X71218476Y-53623143D01*
X69885143Y-48966381D02*
X69551809Y-48490190D01*
X69313714Y-48966381D02*
X69313714Y-47966381D01*
X69694667Y-47966381D01*
X69789905Y-48014000D01*
X69837524Y-48061619D01*
X69885143Y-48156857D01*
X69885143Y-48299714D01*
X69837524Y-48394952D01*
X69789905Y-48442571D01*
X69694667Y-48490190D01*
X69313714Y-48490190D01*
X70837524Y-48966381D02*
X70266095Y-48966381D01*
X70551809Y-48966381D02*
X70551809Y-47966381D01*
X70456571Y-48109238D01*
X70361333Y-48204476D01*
X70266095Y-48252095D01*
X71694667Y-47966381D02*
X71504190Y-47966381D01*
X71408952Y-48014000D01*
X71361333Y-48061619D01*
X71266095Y-48204476D01*
X71218476Y-48394952D01*
X71218476Y-48775905D01*
X71266095Y-48871143D01*
X71313714Y-48918762D01*
X71408952Y-48966381D01*
X71599429Y-48966381D01*
X71694667Y-48918762D01*
X71742286Y-48871143D01*
X71789905Y-48775905D01*
X71789905Y-48537810D01*
X71742286Y-48442571D01*
X71694667Y-48394952D01*
X71599429Y-48347333D01*
X71408952Y-48347333D01*
X71313714Y-48394952D01*
X71266095Y-48442571D01*
X71218476Y-48537810D01*
X65532095Y-117308381D02*
X65532095Y-118117905D01*
X65579714Y-118213143D01*
X65627333Y-118260762D01*
X65722571Y-118308381D01*
X65913048Y-118308381D01*
X66008286Y-118260762D01*
X66055905Y-118213143D01*
X66103524Y-118117905D01*
X66103524Y-117308381D01*
X67103524Y-118308381D02*
X66532095Y-118308381D01*
X66817809Y-118308381D02*
X66817809Y-117308381D01*
X66722571Y-117451238D01*
X66627333Y-117546476D01*
X66532095Y-117594095D01*
X100615905Y-69810381D02*
X100615905Y-70619905D01*
X100663524Y-70715143D01*
X100711143Y-70762762D01*
X100806381Y-70810381D01*
X100996858Y-70810381D01*
X101092096Y-70762762D01*
X101139715Y-70715143D01*
X101187334Y-70619905D01*
X101187334Y-69810381D01*
X101568286Y-69810381D02*
X102187334Y-69810381D01*
X101854000Y-70191333D01*
X101996858Y-70191333D01*
X102092096Y-70238952D01*
X102139715Y-70286571D01*
X102187334Y-70381810D01*
X102187334Y-70619905D01*
X102139715Y-70715143D01*
X102092096Y-70762762D01*
X101996858Y-70810381D01*
X101711143Y-70810381D01*
X101615905Y-70762762D01*
X101568286Y-70715143D01*
X103044477Y-70143714D02*
X103044477Y-70810381D01*
X102806381Y-69762762D02*
X102568286Y-70477048D01*
X103187334Y-70477048D01*
X61245905Y-55586381D02*
X61245905Y-56395905D01*
X61293524Y-56491143D01*
X61341143Y-56538762D01*
X61436381Y-56586381D01*
X61626858Y-56586381D01*
X61722096Y-56538762D01*
X61769715Y-56491143D01*
X61817334Y-56395905D01*
X61817334Y-55586381D01*
X62198286Y-55586381D02*
X62817334Y-55586381D01*
X62484000Y-55967333D01*
X62626858Y-55967333D01*
X62722096Y-56014952D01*
X62769715Y-56062571D01*
X62817334Y-56157810D01*
X62817334Y-56395905D01*
X62769715Y-56491143D01*
X62722096Y-56538762D01*
X62626858Y-56586381D01*
X62341143Y-56586381D01*
X62245905Y-56538762D01*
X62198286Y-56491143D01*
X63722096Y-55586381D02*
X63245905Y-55586381D01*
X63198286Y-56062571D01*
X63245905Y-56014952D01*
X63341143Y-55967333D01*
X63579239Y-55967333D01*
X63674477Y-56014952D01*
X63722096Y-56062571D01*
X63769715Y-56157810D01*
X63769715Y-56395905D01*
X63722096Y-56491143D01*
X63674477Y-56538762D01*
X63579239Y-56586381D01*
X63341143Y-56586381D01*
X63245905Y-56538762D01*
X63198286Y-56491143D01*
X65786095Y-91400381D02*
X65786095Y-92209905D01*
X65833714Y-92305143D01*
X65881333Y-92352762D01*
X65976571Y-92400381D01*
X66167048Y-92400381D01*
X66262286Y-92352762D01*
X66309905Y-92305143D01*
X66357524Y-92209905D01*
X66357524Y-91400381D01*
X67262286Y-91733714D02*
X67262286Y-92400381D01*
X67024190Y-91352762D02*
X66786095Y-92067048D01*
X67405143Y-92067048D01*
X65595905Y-123602381D02*
X65595905Y-122602381D01*
X65834000Y-122602381D01*
X65976858Y-122650000D01*
X66072096Y-122745238D01*
X66119715Y-122840476D01*
X66167334Y-123030952D01*
X66167334Y-123173810D01*
X66119715Y-123364286D01*
X66072096Y-123459524D01*
X65976858Y-123554762D01*
X65834000Y-123602381D01*
X65595905Y-123602381D01*
X66500667Y-122602381D02*
X67119715Y-122602381D01*
X66786381Y-122983333D01*
X66929239Y-122983333D01*
X67024477Y-123030952D01*
X67072096Y-123078571D01*
X67119715Y-123173810D01*
X67119715Y-123411905D01*
X67072096Y-123507143D01*
X67024477Y-123554762D01*
X66929239Y-123602381D01*
X66643524Y-123602381D01*
X66548286Y-123554762D01*
X66500667Y-123507143D01*
X96972381Y-80906857D02*
X96496190Y-81240191D01*
X96972381Y-81478286D02*
X95972381Y-81478286D01*
X95972381Y-81097333D01*
X96020000Y-81002095D01*
X96067619Y-80954476D01*
X96162857Y-80906857D01*
X96305714Y-80906857D01*
X96400952Y-80954476D01*
X96448571Y-81002095D01*
X96496190Y-81097333D01*
X96496190Y-81478286D01*
X96972381Y-79954476D02*
X96972381Y-80525905D01*
X96972381Y-80240191D02*
X95972381Y-80240191D01*
X96115238Y-80335429D01*
X96210476Y-80430667D01*
X96258095Y-80525905D01*
X95972381Y-79621143D02*
X95972381Y-78954476D01*
X96972381Y-79383048D01*
X126952477Y-34750381D02*
X126952477Y-35464667D01*
X126904857Y-35607524D01*
X126809619Y-35702762D01*
X126666762Y-35750381D01*
X126571524Y-35750381D01*
X127952477Y-35750381D02*
X127381048Y-35750381D01*
X127666762Y-35750381D02*
X127666762Y-34750381D01*
X127571524Y-34893238D01*
X127476286Y-34988476D01*
X127381048Y-35036095D01*
X128571524Y-34750381D02*
X128666763Y-34750381D01*
X128762001Y-34798000D01*
X128809620Y-34845619D01*
X128857239Y-34940857D01*
X128904858Y-35131333D01*
X128904858Y-35369429D01*
X128857239Y-35559905D01*
X128809620Y-35655143D01*
X128762001Y-35702762D01*
X128666763Y-35750381D01*
X128571524Y-35750381D01*
X128476286Y-35702762D01*
X128428667Y-35655143D01*
X128381048Y-35559905D01*
X128333429Y-35369429D01*
X128333429Y-35131333D01*
X128381048Y-34940857D01*
X128428667Y-34845619D01*
X128476286Y-34798000D01*
X128571524Y-34750381D01*
X83350095Y-123531381D02*
X83350095Y-124340905D01*
X83397714Y-124436143D01*
X83445333Y-124483762D01*
X83540571Y-124531381D01*
X83731048Y-124531381D01*
X83826286Y-124483762D01*
X83873905Y-124436143D01*
X83921524Y-124340905D01*
X83921524Y-123531381D01*
X84302476Y-123531381D02*
X84921524Y-123531381D01*
X84588190Y-123912333D01*
X84731048Y-123912333D01*
X84826286Y-123959952D01*
X84873905Y-124007571D01*
X84921524Y-124102810D01*
X84921524Y-124340905D01*
X84873905Y-124436143D01*
X84826286Y-124483762D01*
X84731048Y-124531381D01*
X84445333Y-124531381D01*
X84350095Y-124483762D01*
X84302476Y-124436143D01*
X53952667Y-84748381D02*
X53952667Y-85462667D01*
X53905047Y-85605524D01*
X53809809Y-85700762D01*
X53666952Y-85748381D01*
X53571714Y-85748381D01*
X54571714Y-85176952D02*
X54476476Y-85129333D01*
X54428857Y-85081714D01*
X54381238Y-84986476D01*
X54381238Y-84938857D01*
X54428857Y-84843619D01*
X54476476Y-84796000D01*
X54571714Y-84748381D01*
X54762191Y-84748381D01*
X54857429Y-84796000D01*
X54905048Y-84843619D01*
X54952667Y-84938857D01*
X54952667Y-84986476D01*
X54905048Y-85081714D01*
X54857429Y-85129333D01*
X54762191Y-85176952D01*
X54571714Y-85176952D01*
X54476476Y-85224571D01*
X54428857Y-85272190D01*
X54381238Y-85367429D01*
X54381238Y-85557905D01*
X54428857Y-85653143D01*
X54476476Y-85700762D01*
X54571714Y-85748381D01*
X54762191Y-85748381D01*
X54857429Y-85700762D01*
X54905048Y-85653143D01*
X54952667Y-85557905D01*
X54952667Y-85367429D01*
X54905048Y-85272190D01*
X54857429Y-85224571D01*
X54762191Y-85176952D01*
D14*
X51600286Y-92979333D02*
X51600286Y-92812667D01*
X51862190Y-92741238D02*
X51862190Y-92979333D01*
X51362190Y-92979333D01*
X51362190Y-92741238D01*
X51862190Y-92526952D02*
X51362190Y-92526952D01*
X51362190Y-92407905D01*
X51386000Y-92336476D01*
X51433619Y-92288857D01*
X51481238Y-92265048D01*
X51576476Y-92241238D01*
X51647905Y-92241238D01*
X51743143Y-92265048D01*
X51790762Y-92288857D01*
X51838381Y-92336476D01*
X51862190Y-92407905D01*
X51862190Y-92526952D01*
X51386000Y-91765048D02*
X51362190Y-91812667D01*
X51362190Y-91884095D01*
X51386000Y-91955524D01*
X51433619Y-92003143D01*
X51481238Y-92026952D01*
X51576476Y-92050762D01*
X51647905Y-92050762D01*
X51743143Y-92026952D01*
X51790762Y-92003143D01*
X51838381Y-91955524D01*
X51862190Y-91884095D01*
X51862190Y-91836476D01*
X51838381Y-91765048D01*
X51814571Y-91741238D01*
X51647905Y-91741238D01*
X51647905Y-91836476D01*
X51600286Y-91526952D02*
X51600286Y-91360286D01*
X51862190Y-91288857D02*
X51862190Y-91526952D01*
X51362190Y-91526952D01*
X51362190Y-91288857D01*
M02*
