G04 #@! TF.FileFunction,Legend,Top*
%FSLAX46Y46*%
G04 Gerber Fmt 4.6, Leading zero omitted, Abs format (unit mm)*
G04 Created by KiCad (PCBNEW 4.0.7) date Saturday, 23 June 2018 'PMt' 19:02:52*
%MOMM*%
%LPD*%
G01*
G04 APERTURE LIST*
%ADD10C,0.100000*%
%ADD11C,0.200000*%
%ADD12C,0.300000*%
%ADD13C,0.120000*%
%ADD14C,0.500000*%
%ADD15C,0.150000*%
G04 APERTURE END LIST*
D10*
D11*
X74750000Y-113750000D02*
X76750000Y-113750000D01*
X76750000Y-112750000D02*
X74750000Y-112750000D01*
X75750000Y-113750000D02*
X76750000Y-112750000D01*
X74750000Y-112750000D02*
X75750000Y-113750000D01*
D12*
X98214286Y-122178571D02*
X98714286Y-123678571D01*
X99214286Y-122178571D01*
X100000000Y-122178571D02*
X100142857Y-122178571D01*
X100285714Y-122250000D01*
X100357143Y-122321429D01*
X100428572Y-122464286D01*
X100500000Y-122750000D01*
X100500000Y-123107143D01*
X100428572Y-123392857D01*
X100357143Y-123535714D01*
X100285714Y-123607143D01*
X100142857Y-123678571D01*
X100000000Y-123678571D01*
X99857143Y-123607143D01*
X99785714Y-123535714D01*
X99714286Y-123392857D01*
X99642857Y-123107143D01*
X99642857Y-122750000D01*
X99714286Y-122464286D01*
X99785714Y-122321429D01*
X99857143Y-122250000D01*
X100000000Y-122178571D01*
X101142857Y-123535714D02*
X101214285Y-123607143D01*
X101142857Y-123678571D01*
X101071428Y-123607143D01*
X101142857Y-123535714D01*
X101142857Y-123678571D01*
X101785714Y-122321429D02*
X101857143Y-122250000D01*
X102000000Y-122178571D01*
X102357143Y-122178571D01*
X102500000Y-122250000D01*
X102571429Y-122321429D01*
X102642857Y-122464286D01*
X102642857Y-122607143D01*
X102571429Y-122821429D01*
X101714286Y-123678571D01*
X102642857Y-123678571D01*
X121940477Y-109189286D02*
X122535715Y-110855952D01*
X123130953Y-109189286D01*
X125630953Y-109665476D02*
X125511906Y-109546429D01*
X125273810Y-109427381D01*
X125035715Y-109427381D01*
X124797620Y-109546429D01*
X124678572Y-109665476D01*
X124559525Y-109903571D01*
X124559525Y-110141667D01*
X124678572Y-110379762D01*
X124797620Y-110498810D01*
X125035715Y-110617857D01*
X125273810Y-110617857D01*
X125511906Y-110498810D01*
X125630953Y-110379762D01*
X125630953Y-109427381D02*
X125630953Y-110379762D01*
X125750001Y-110498810D01*
X125869048Y-110498810D01*
X126107144Y-110379762D01*
X126226191Y-110141667D01*
X126226191Y-109546429D01*
X125988096Y-109189286D01*
X125630953Y-108951190D01*
X125154763Y-108832143D01*
X124678572Y-108951190D01*
X124321429Y-109189286D01*
X124083334Y-109546429D01*
X123964286Y-110022619D01*
X124083334Y-110498810D01*
X124321429Y-110855952D01*
X124678572Y-111094048D01*
X125154763Y-111213095D01*
X125630953Y-111094048D01*
X125988096Y-110855952D01*
X127297620Y-109189286D02*
X127297620Y-110855952D01*
X127297620Y-109427381D02*
X127416668Y-109308333D01*
X127654763Y-109189286D01*
X128011906Y-109189286D01*
X128250001Y-109308333D01*
X128369049Y-109546429D01*
X128369049Y-110855952D01*
X130630954Y-110736905D02*
X130392858Y-110855952D01*
X129916668Y-110855952D01*
X129678573Y-110736905D01*
X129559525Y-110617857D01*
X129440477Y-110379762D01*
X129440477Y-109665476D01*
X129559525Y-109427381D01*
X129678573Y-109308333D01*
X129916668Y-109189286D01*
X130392858Y-109189286D01*
X130630954Y-109308333D01*
X132654763Y-110736905D02*
X132416668Y-110855952D01*
X131940477Y-110855952D01*
X131702382Y-110736905D01*
X131583334Y-110498810D01*
X131583334Y-109546429D01*
X131702382Y-109308333D01*
X131940477Y-109189286D01*
X132416668Y-109189286D01*
X132654763Y-109308333D01*
X132773811Y-109546429D01*
X132773811Y-109784524D01*
X131583334Y-110022619D01*
X133845239Y-110617857D02*
X133964287Y-110736905D01*
X133845239Y-110855952D01*
X133726191Y-110736905D01*
X133845239Y-110617857D01*
X133845239Y-110855952D01*
X135035715Y-110855952D02*
X135035715Y-109189286D01*
X135035715Y-109427381D02*
X135154763Y-109308333D01*
X135392858Y-109189286D01*
X135750001Y-109189286D01*
X135988096Y-109308333D01*
X136107144Y-109546429D01*
X136107144Y-110855952D01*
X136107144Y-109546429D02*
X136226191Y-109308333D01*
X136464287Y-109189286D01*
X136821429Y-109189286D01*
X137059525Y-109308333D01*
X137178572Y-109546429D01*
X137178572Y-110855952D01*
X139321429Y-110736905D02*
X139083334Y-110855952D01*
X138607143Y-110855952D01*
X138369048Y-110736905D01*
X138250000Y-110498810D01*
X138250000Y-109546429D01*
X138369048Y-109308333D01*
X138607143Y-109189286D01*
X139083334Y-109189286D01*
X139321429Y-109308333D01*
X139440477Y-109546429D01*
X139440477Y-109784524D01*
X138250000Y-110022619D01*
X119321429Y-113596429D02*
X120154762Y-113596429D01*
X120511905Y-114905952D02*
X119321429Y-114905952D01*
X119321429Y-112405952D01*
X120511905Y-112405952D01*
X121464286Y-114786905D02*
X121821429Y-114905952D01*
X122416667Y-114905952D01*
X122654763Y-114786905D01*
X122773810Y-114667857D01*
X122892858Y-114429762D01*
X122892858Y-114191667D01*
X122773810Y-113953571D01*
X122654763Y-113834524D01*
X122416667Y-113715476D01*
X121940477Y-113596429D01*
X121702382Y-113477381D01*
X121583334Y-113358333D01*
X121464286Y-113120238D01*
X121464286Y-112882143D01*
X121583334Y-112644048D01*
X121702382Y-112525000D01*
X121940477Y-112405952D01*
X122535715Y-112405952D01*
X122892858Y-112525000D01*
X123964286Y-114905952D02*
X123964286Y-112405952D01*
X124916667Y-112405952D01*
X125154762Y-112525000D01*
X125273810Y-112644048D01*
X125392858Y-112882143D01*
X125392858Y-113239286D01*
X125273810Y-113477381D01*
X125154762Y-113596429D01*
X124916667Y-113715476D01*
X123964286Y-113715476D01*
X126226191Y-112405952D02*
X127773810Y-112405952D01*
X126940477Y-113358333D01*
X127297619Y-113358333D01*
X127535715Y-113477381D01*
X127654762Y-113596429D01*
X127773810Y-113834524D01*
X127773810Y-114429762D01*
X127654762Y-114667857D01*
X127535715Y-114786905D01*
X127297619Y-114905952D01*
X126583334Y-114905952D01*
X126345238Y-114786905D01*
X126226191Y-114667857D01*
X128726190Y-112644048D02*
X128845238Y-112525000D01*
X129083333Y-112405952D01*
X129678571Y-112405952D01*
X129916667Y-112525000D01*
X130035714Y-112644048D01*
X130154762Y-112882143D01*
X130154762Y-113120238D01*
X130035714Y-113477381D01*
X128607143Y-114905952D01*
X130154762Y-114905952D01*
X134559524Y-114667857D02*
X134440476Y-114786905D01*
X134083333Y-114905952D01*
X133845238Y-114905952D01*
X133488095Y-114786905D01*
X133250000Y-114548810D01*
X133130952Y-114310714D01*
X133011904Y-113834524D01*
X133011904Y-113477381D01*
X133130952Y-113001190D01*
X133250000Y-112763095D01*
X133488095Y-112525000D01*
X133845238Y-112405952D01*
X134083333Y-112405952D01*
X134440476Y-112525000D01*
X134559524Y-112644048D01*
X135988095Y-114905952D02*
X135750000Y-114786905D01*
X135630952Y-114548810D01*
X135630952Y-112405952D01*
X137297619Y-114905952D02*
X137059524Y-114786905D01*
X136940476Y-114667857D01*
X136821428Y-114429762D01*
X136821428Y-113715476D01*
X136940476Y-113477381D01*
X137059524Y-113358333D01*
X137297619Y-113239286D01*
X137654762Y-113239286D01*
X137892857Y-113358333D01*
X138011905Y-113477381D01*
X138130952Y-113715476D01*
X138130952Y-114429762D01*
X138011905Y-114667857D01*
X137892857Y-114786905D01*
X137654762Y-114905952D01*
X137297619Y-114905952D01*
X140273810Y-114786905D02*
X140035714Y-114905952D01*
X139559524Y-114905952D01*
X139321429Y-114786905D01*
X139202381Y-114667857D01*
X139083333Y-114429762D01*
X139083333Y-113715476D01*
X139202381Y-113477381D01*
X139321429Y-113358333D01*
X139559524Y-113239286D01*
X140035714Y-113239286D01*
X140273810Y-113358333D01*
X141345238Y-114905952D02*
X141345238Y-112405952D01*
X141583333Y-113953571D02*
X142297619Y-114905952D01*
X142297619Y-113239286D02*
X141345238Y-114191667D01*
D13*
X68450000Y-111200000D02*
X67750000Y-111200000D01*
X67750000Y-110000000D02*
X68450000Y-110000000D01*
X64000000Y-109650000D02*
X63000000Y-109650000D01*
X63000000Y-111350000D02*
X64000000Y-111350000D01*
X82700000Y-116650000D02*
X81700000Y-116650000D01*
X81700000Y-118350000D02*
X82700000Y-118350000D01*
X82600000Y-107950000D02*
X81600000Y-107950000D01*
X81600000Y-109650000D02*
X82600000Y-109650000D01*
X56600000Y-43250000D02*
X56600000Y-42250000D01*
X54900000Y-42250000D02*
X54900000Y-43250000D01*
X54900000Y-36000000D02*
X54900000Y-37000000D01*
X56600000Y-37000000D02*
X56600000Y-36000000D01*
X52650000Y-36800000D02*
X52650000Y-36100000D01*
X53850000Y-36100000D02*
X53850000Y-36800000D01*
X58655000Y-75850000D02*
X58655000Y-76550000D01*
X57455000Y-76550000D02*
X57455000Y-75850000D01*
X100250000Y-118145000D02*
X100950000Y-118145000D01*
X100950000Y-119345000D02*
X100250000Y-119345000D01*
X142545000Y-76550000D02*
X142545000Y-75850000D01*
X143745000Y-75850000D02*
X143745000Y-76550000D01*
X100949999Y-34255000D02*
X100249999Y-34255000D01*
X100249999Y-33055000D02*
X100949999Y-33055000D01*
X84375608Y-47398530D02*
X83769390Y-47748530D01*
X83169390Y-46709300D02*
X83775608Y-46359300D01*
X72148530Y-59369391D02*
X71798530Y-59975609D01*
X70759300Y-59375609D02*
X71109300Y-58769391D01*
X67545000Y-75850000D02*
X67545000Y-76550000D01*
X66345000Y-76550000D02*
X66345000Y-75850000D01*
X71798530Y-92424391D02*
X72148530Y-93030609D01*
X71109300Y-93630609D02*
X70759300Y-93024391D01*
X83769391Y-104651469D02*
X84375609Y-105001469D01*
X83775609Y-106040699D02*
X83169391Y-105690699D01*
X100250000Y-109255000D02*
X100950000Y-109255000D01*
X100950000Y-110455000D02*
X100250000Y-110455000D01*
X116824391Y-105001469D02*
X117430609Y-104651469D01*
X118030609Y-105690699D02*
X117424391Y-106040699D01*
X129051469Y-93030609D02*
X129401469Y-92424391D01*
X130440699Y-93024391D02*
X130090699Y-93630609D01*
X133655000Y-76550000D02*
X133655000Y-75850000D01*
X134855000Y-75850000D02*
X134855000Y-76550000D01*
X129401469Y-59975608D02*
X129051469Y-59369390D01*
X130090699Y-58769390D02*
X130440699Y-59375608D01*
X117430609Y-47748530D02*
X116824391Y-47398530D01*
X117424391Y-46359300D02*
X118030609Y-46709300D01*
X100950000Y-43145000D02*
X100250000Y-43145000D01*
X100250000Y-41945000D02*
X100950000Y-41945000D01*
X88820608Y-55097495D02*
X88214390Y-55447495D01*
X87614390Y-54408265D02*
X88220608Y-54058265D01*
X79847495Y-63814391D02*
X79497495Y-64420609D01*
X78458265Y-63820609D02*
X78808265Y-63214391D01*
X76435000Y-75850000D02*
X76435000Y-76550000D01*
X75235000Y-76550000D02*
X75235000Y-75850000D01*
X79497495Y-87979391D02*
X79847495Y-88585609D01*
X78808265Y-89185609D02*
X78458265Y-88579391D01*
X88214391Y-96952504D02*
X88820609Y-97302504D01*
X88220609Y-98341734D02*
X87614391Y-97991734D01*
X100250000Y-100365000D02*
X100950000Y-100365000D01*
X100950000Y-101565000D02*
X100250000Y-101565000D01*
X112379391Y-97302504D02*
X112985609Y-96952504D01*
X113585609Y-97991734D02*
X112979391Y-98341734D01*
X121352504Y-88585609D02*
X121702504Y-87979391D01*
X122741734Y-88579391D02*
X122391734Y-89185609D01*
X124765000Y-76550000D02*
X124765000Y-75850000D01*
X125965000Y-75850000D02*
X125965000Y-76550000D01*
X121702504Y-64420608D02*
X121352504Y-63814390D01*
X122391734Y-63214390D02*
X122741734Y-63820608D01*
X112985609Y-55447495D02*
X112379391Y-55097495D01*
X112979391Y-54058265D02*
X113585609Y-54408265D01*
X100950000Y-52035000D02*
X100250000Y-52035000D01*
X100250000Y-50835000D02*
X100950000Y-50835000D01*
X105080000Y-76550000D02*
X105080000Y-75850000D01*
X106280000Y-75850000D02*
X106280000Y-76550000D01*
X100150000Y-63950000D02*
X100150000Y-68250000D01*
X97850000Y-63950000D02*
X97850000Y-68250000D01*
X100150000Y-63950000D02*
X97850000Y-63950000D01*
X94200000Y-70900000D02*
X94200000Y-65400000D01*
X96300000Y-70900000D02*
X96300000Y-65400000D01*
X94200000Y-70900000D02*
X96300000Y-70900000D01*
X89850000Y-70750000D02*
X89850000Y-66450000D01*
X92150000Y-70750000D02*
X92150000Y-66450000D01*
X89850000Y-70750000D02*
X92150000Y-70750000D01*
X74250000Y-117700000D02*
X77550000Y-117700000D01*
X77550000Y-117700000D02*
X77550000Y-110800000D01*
X74250000Y-117700000D02*
X74250000Y-110800000D01*
X85920000Y-116600000D02*
X85920000Y-115600000D01*
X87280000Y-115600000D02*
X87280000Y-116600000D01*
X68680000Y-104500000D02*
X68680000Y-105500000D01*
X67320000Y-105500000D02*
X67320000Y-104500000D01*
X64680000Y-104400000D02*
X64680000Y-105400000D01*
X63320000Y-105400000D02*
X63320000Y-104400000D01*
X68680000Y-100500000D02*
X68680000Y-101500000D01*
X67320000Y-101500000D02*
X67320000Y-100500000D01*
X64680000Y-100400000D02*
X64680000Y-101400000D01*
X63320000Y-101400000D02*
X63320000Y-100400000D01*
X54180000Y-42250000D02*
X54180000Y-43250000D01*
X52820000Y-43250000D02*
X52820000Y-42250000D01*
X94520000Y-76700000D02*
X94520000Y-75700000D01*
X95880000Y-75700000D02*
X95880000Y-76700000D01*
X111180000Y-28250000D02*
X111180000Y-29250000D01*
X109820000Y-29250000D02*
X109820000Y-28250000D01*
X126680000Y-38500000D02*
X126680000Y-39500000D01*
X125320000Y-39500000D02*
X125320000Y-38500000D01*
X123430000Y-38500000D02*
X123430000Y-39500000D01*
X122070000Y-39500000D02*
X122070000Y-38500000D01*
X102930000Y-66500000D02*
X102930000Y-67500000D01*
X101570000Y-67500000D02*
X101570000Y-66500000D01*
X144000000Y-56820000D02*
X145000000Y-56820000D01*
X145000000Y-58180000D02*
X144000000Y-58180000D01*
X144000000Y-58820000D02*
X145000000Y-58820000D01*
X145000000Y-60180000D02*
X144000000Y-60180000D01*
X80440000Y-112450000D02*
X80440000Y-114250000D01*
X83660000Y-114250000D02*
X83660000Y-111800000D01*
D14*
X58377981Y-32646000D02*
G75*
G03X58377981Y-32646000I-283981J0D01*
G01*
D15*
X77000000Y-32500000D02*
X59000000Y-32500000D01*
X59000000Y-26500000D02*
X59000000Y-52000000D01*
X77000000Y-26500000D02*
X77000000Y-52000000D01*
X77000000Y-52000000D02*
X59000000Y-52000000D01*
X77000000Y-26500000D02*
X59000000Y-26500000D01*
D13*
X65100000Y-72700000D02*
X65100000Y-79700000D01*
X59900000Y-72700000D02*
X59900000Y-79700000D01*
X59900000Y-79700000D02*
X60900000Y-79700000D01*
X97100000Y-111700000D02*
X104100000Y-111700000D01*
X97100000Y-116900000D02*
X104100000Y-116900000D01*
X104100000Y-116900000D02*
X104100000Y-115900000D01*
X136100000Y-79700000D02*
X136100000Y-72700000D01*
X141300000Y-79700000D02*
X141300000Y-72700000D01*
X141300000Y-72700000D02*
X140300000Y-72700000D01*
X104099999Y-40700000D02*
X97099999Y-40700000D01*
X104099999Y-35500000D02*
X97099999Y-35500000D01*
X97099999Y-35500000D02*
X97099999Y-36500000D01*
X90326088Y-51405063D02*
X84263910Y-54905063D01*
X87726088Y-46901731D02*
X81663910Y-50401731D01*
X81663910Y-50401731D02*
X82163910Y-51267756D01*
X79305063Y-59863911D02*
X75805063Y-65926089D01*
X74801731Y-57263911D02*
X71301731Y-63326089D01*
X71301731Y-63326089D02*
X72167756Y-63826089D01*
X73990000Y-72700000D02*
X73990000Y-79700000D01*
X68790000Y-72700000D02*
X68790000Y-79700000D01*
X68790000Y-79700000D02*
X69790000Y-79700000D01*
X75805063Y-86473911D02*
X79305063Y-92536089D01*
X71301731Y-89073911D02*
X74801731Y-95136089D01*
X74801731Y-95136089D02*
X75667756Y-94636089D01*
X84263911Y-97494936D02*
X90326089Y-100994936D01*
X81663911Y-101998268D02*
X87726089Y-105498268D01*
X87726089Y-105498268D02*
X88226089Y-104632243D01*
X97100000Y-102810000D02*
X104100000Y-102810000D01*
X97100000Y-108010000D02*
X104100000Y-108010000D01*
X104100000Y-108010000D02*
X104100000Y-107010000D01*
X110873911Y-100994936D02*
X116936089Y-97494936D01*
X113473911Y-105498268D02*
X119536089Y-101998268D01*
X119536089Y-101998268D02*
X119036089Y-101132243D01*
X121894936Y-92536089D02*
X125394936Y-86473911D01*
X126398268Y-95136089D02*
X129898268Y-89073911D01*
X129898268Y-89073911D02*
X129032243Y-88573911D01*
X127210000Y-79700000D02*
X127210000Y-72700000D01*
X132410000Y-79700000D02*
X132410000Y-72700000D01*
X132410000Y-72700000D02*
X131410000Y-72700000D01*
X125394936Y-65926088D02*
X121894936Y-59863910D01*
X129898268Y-63326088D02*
X126398268Y-57263910D01*
X126398268Y-57263910D02*
X125532243Y-57763910D01*
X116936089Y-54905063D02*
X110873911Y-51405063D01*
X119536089Y-50401731D02*
X113473911Y-46901731D01*
X113473911Y-46901731D02*
X112973911Y-47767756D01*
X104100000Y-49590000D02*
X97100000Y-49590000D01*
X104100000Y-44390000D02*
X97100000Y-44390000D01*
X97100000Y-44390000D02*
X97100000Y-45390000D01*
X94771088Y-59104029D02*
X88708910Y-62604029D01*
X92171088Y-54600697D02*
X86108910Y-58100697D01*
X86108910Y-58100697D02*
X86608910Y-58966722D01*
X87004029Y-64308911D02*
X83504029Y-70371089D01*
X82500697Y-61708911D02*
X79000697Y-67771089D01*
X79000697Y-67771089D02*
X79866722Y-68271089D01*
X82880000Y-72700000D02*
X82880000Y-79700000D01*
X77680000Y-72700000D02*
X77680000Y-79700000D01*
X77680000Y-79700000D02*
X78680000Y-79700000D01*
X83504029Y-82028911D02*
X87004029Y-88091089D01*
X79000697Y-84628911D02*
X82500697Y-90691089D01*
X82500697Y-90691089D02*
X83366722Y-90191089D01*
X88708911Y-89795970D02*
X94771089Y-93295970D01*
X86108911Y-94299302D02*
X92171089Y-97799302D01*
X92171089Y-97799302D02*
X92671089Y-96933277D01*
X97100000Y-93920000D02*
X104100000Y-93920000D01*
X97100000Y-99120000D02*
X104100000Y-99120000D01*
X104100000Y-99120000D02*
X104100000Y-98120000D01*
X106428911Y-93295970D02*
X112491089Y-89795970D01*
X109028911Y-97799302D02*
X115091089Y-94299302D01*
X115091089Y-94299302D02*
X114591089Y-93433277D01*
X114195970Y-88091089D02*
X117695970Y-82028911D01*
X118699302Y-90691089D02*
X122199302Y-84628911D01*
X122199302Y-84628911D02*
X121333277Y-84128911D01*
X118320000Y-79700000D02*
X118320000Y-72700000D01*
X123520000Y-79700000D02*
X123520000Y-72700000D01*
X123520000Y-72700000D02*
X122520000Y-72700000D01*
X117695970Y-70371088D02*
X114195970Y-64308910D01*
X122199302Y-67771088D02*
X118699302Y-61708910D01*
X118699302Y-61708910D02*
X117833277Y-62208910D01*
X112491089Y-62604029D02*
X106428911Y-59104029D01*
X115091089Y-58100697D02*
X109028911Y-54600697D01*
X109028911Y-54600697D02*
X108528911Y-55466722D01*
X104100000Y-58480000D02*
X97100000Y-58480000D01*
X104100000Y-53280000D02*
X97100000Y-53280000D01*
X97100000Y-53280000D02*
X97100000Y-54280000D01*
X104100000Y-78800000D02*
X97100000Y-78800000D01*
X104100000Y-73600000D02*
X97100000Y-73600000D01*
X97100000Y-73600000D02*
X97100000Y-74600000D01*
D15*
X105950000Y-71000000D02*
X105950000Y-67000000D01*
X107950000Y-71000000D02*
X105950000Y-71000000D01*
X107950000Y-67000000D02*
X107950000Y-71000000D01*
X105950000Y-67000000D02*
X107950000Y-67000000D01*
X70833334Y-111107143D02*
X70785715Y-111154762D01*
X70642858Y-111202381D01*
X70547620Y-111202381D01*
X70404762Y-111154762D01*
X70309524Y-111059524D01*
X70261905Y-110964286D01*
X70214286Y-110773810D01*
X70214286Y-110630952D01*
X70261905Y-110440476D01*
X70309524Y-110345238D01*
X70404762Y-110250000D01*
X70547620Y-110202381D01*
X70642858Y-110202381D01*
X70785715Y-110250000D01*
X70833334Y-110297619D01*
X71785715Y-111202381D02*
X71214286Y-111202381D01*
X71500000Y-111202381D02*
X71500000Y-110202381D01*
X71404762Y-110345238D01*
X71309524Y-110440476D01*
X71214286Y-110488095D01*
X59833334Y-110857143D02*
X59785715Y-110904762D01*
X59642858Y-110952381D01*
X59547620Y-110952381D01*
X59404762Y-110904762D01*
X59309524Y-110809524D01*
X59261905Y-110714286D01*
X59214286Y-110523810D01*
X59214286Y-110380952D01*
X59261905Y-110190476D01*
X59309524Y-110095238D01*
X59404762Y-110000000D01*
X59547620Y-109952381D01*
X59642858Y-109952381D01*
X59785715Y-110000000D01*
X59833334Y-110047619D01*
X60214286Y-110047619D02*
X60261905Y-110000000D01*
X60357143Y-109952381D01*
X60595239Y-109952381D01*
X60690477Y-110000000D01*
X60738096Y-110047619D01*
X60785715Y-110142857D01*
X60785715Y-110238095D01*
X60738096Y-110380952D01*
X60166667Y-110952381D01*
X60785715Y-110952381D01*
X83333334Y-119857143D02*
X83285715Y-119904762D01*
X83142858Y-119952381D01*
X83047620Y-119952381D01*
X82904762Y-119904762D01*
X82809524Y-119809524D01*
X82761905Y-119714286D01*
X82714286Y-119523810D01*
X82714286Y-119380952D01*
X82761905Y-119190476D01*
X82809524Y-119095238D01*
X82904762Y-119000000D01*
X83047620Y-118952381D01*
X83142858Y-118952381D01*
X83285715Y-119000000D01*
X83333334Y-119047619D01*
X84190477Y-119285714D02*
X84190477Y-119952381D01*
X83952381Y-118904762D02*
X83714286Y-119619048D01*
X84333334Y-119619048D01*
X80333334Y-107407143D02*
X80285715Y-107454762D01*
X80142858Y-107502381D01*
X80047620Y-107502381D01*
X79904762Y-107454762D01*
X79809524Y-107359524D01*
X79761905Y-107264286D01*
X79714286Y-107073810D01*
X79714286Y-106930952D01*
X79761905Y-106740476D01*
X79809524Y-106645238D01*
X79904762Y-106550000D01*
X80047620Y-106502381D01*
X80142858Y-106502381D01*
X80285715Y-106550000D01*
X80333334Y-106597619D01*
X81238096Y-106502381D02*
X80761905Y-106502381D01*
X80714286Y-106978571D01*
X80761905Y-106930952D01*
X80857143Y-106883333D01*
X81095239Y-106883333D01*
X81190477Y-106930952D01*
X81238096Y-106978571D01*
X81285715Y-107073810D01*
X81285715Y-107311905D01*
X81238096Y-107407143D01*
X81190477Y-107454762D01*
X81095239Y-107502381D01*
X80857143Y-107502381D01*
X80761905Y-107454762D01*
X80714286Y-107407143D01*
X57357143Y-40166666D02*
X57404762Y-40214285D01*
X57452381Y-40357142D01*
X57452381Y-40452380D01*
X57404762Y-40595238D01*
X57309524Y-40690476D01*
X57214286Y-40738095D01*
X57023810Y-40785714D01*
X56880952Y-40785714D01*
X56690476Y-40738095D01*
X56595238Y-40690476D01*
X56500000Y-40595238D01*
X56452381Y-40452380D01*
X56452381Y-40357142D01*
X56500000Y-40214285D01*
X56547619Y-40166666D01*
X56452381Y-39309523D02*
X56452381Y-39500000D01*
X56500000Y-39595238D01*
X56547619Y-39642857D01*
X56690476Y-39738095D01*
X56880952Y-39785714D01*
X57261905Y-39785714D01*
X57357143Y-39738095D01*
X57404762Y-39690476D01*
X57452381Y-39595238D01*
X57452381Y-39404761D01*
X57404762Y-39309523D01*
X57357143Y-39261904D01*
X57261905Y-39214285D01*
X57023810Y-39214285D01*
X56928571Y-39261904D01*
X56880952Y-39309523D01*
X56833333Y-39404761D01*
X56833333Y-39595238D01*
X56880952Y-39690476D01*
X56928571Y-39738095D01*
X57023810Y-39785714D01*
X54857143Y-39166666D02*
X54904762Y-39214285D01*
X54952381Y-39357142D01*
X54952381Y-39452380D01*
X54904762Y-39595238D01*
X54809524Y-39690476D01*
X54714286Y-39738095D01*
X54523810Y-39785714D01*
X54380952Y-39785714D01*
X54190476Y-39738095D01*
X54095238Y-39690476D01*
X54000000Y-39595238D01*
X53952381Y-39452380D01*
X53952381Y-39357142D01*
X54000000Y-39214285D01*
X54047619Y-39166666D01*
X53952381Y-38833333D02*
X53952381Y-38166666D01*
X54952381Y-38595238D01*
X52357143Y-36616666D02*
X52404762Y-36664285D01*
X52452381Y-36807142D01*
X52452381Y-36902380D01*
X52404762Y-37045238D01*
X52309524Y-37140476D01*
X52214286Y-37188095D01*
X52023810Y-37235714D01*
X51880952Y-37235714D01*
X51690476Y-37188095D01*
X51595238Y-37140476D01*
X51500000Y-37045238D01*
X51452381Y-36902380D01*
X51452381Y-36807142D01*
X51500000Y-36664285D01*
X51547619Y-36616666D01*
X51880952Y-36045238D02*
X51833333Y-36140476D01*
X51785714Y-36188095D01*
X51690476Y-36235714D01*
X51642857Y-36235714D01*
X51547619Y-36188095D01*
X51500000Y-36140476D01*
X51452381Y-36045238D01*
X51452381Y-35854761D01*
X51500000Y-35759523D01*
X51547619Y-35711904D01*
X51642857Y-35664285D01*
X51690476Y-35664285D01*
X51785714Y-35711904D01*
X51833333Y-35759523D01*
X51880952Y-35854761D01*
X51880952Y-36045238D01*
X51928571Y-36140476D01*
X51976190Y-36188095D01*
X52071429Y-36235714D01*
X52261905Y-36235714D01*
X52357143Y-36188095D01*
X52404762Y-36140476D01*
X52452381Y-36045238D01*
X52452381Y-35854761D01*
X52404762Y-35759523D01*
X52357143Y-35711904D01*
X52261905Y-35664285D01*
X52071429Y-35664285D01*
X51976190Y-35711904D01*
X51928571Y-35759523D01*
X51880952Y-35854761D01*
X107857143Y-76892857D02*
X107904762Y-76940476D01*
X107952381Y-77083333D01*
X107952381Y-77178571D01*
X107904762Y-77321429D01*
X107809524Y-77416667D01*
X107714286Y-77464286D01*
X107523810Y-77511905D01*
X107380952Y-77511905D01*
X107190476Y-77464286D01*
X107095238Y-77416667D01*
X107000000Y-77321429D01*
X106952381Y-77178571D01*
X106952381Y-77083333D01*
X107000000Y-76940476D01*
X107047619Y-76892857D01*
X106952381Y-76559524D02*
X106952381Y-75940476D01*
X107333333Y-76273810D01*
X107333333Y-76130952D01*
X107380952Y-76035714D01*
X107428571Y-75988095D01*
X107523810Y-75940476D01*
X107761905Y-75940476D01*
X107857143Y-75988095D01*
X107904762Y-76035714D01*
X107952381Y-76130952D01*
X107952381Y-76416667D01*
X107904762Y-76511905D01*
X107857143Y-76559524D01*
X106952381Y-75607143D02*
X106952381Y-74940476D01*
X107952381Y-75369048D01*
X99607143Y-62892857D02*
X99654762Y-62940476D01*
X99702381Y-63083333D01*
X99702381Y-63178571D01*
X99654762Y-63321429D01*
X99559524Y-63416667D01*
X99464286Y-63464286D01*
X99273810Y-63511905D01*
X99130952Y-63511905D01*
X98940476Y-63464286D01*
X98845238Y-63416667D01*
X98750000Y-63321429D01*
X98702381Y-63178571D01*
X98702381Y-63083333D01*
X98750000Y-62940476D01*
X98797619Y-62892857D01*
X98702381Y-62559524D02*
X98702381Y-61940476D01*
X99083333Y-62273810D01*
X99083333Y-62130952D01*
X99130952Y-62035714D01*
X99178571Y-61988095D01*
X99273810Y-61940476D01*
X99511905Y-61940476D01*
X99607143Y-61988095D01*
X99654762Y-62035714D01*
X99702381Y-62130952D01*
X99702381Y-62416667D01*
X99654762Y-62511905D01*
X99607143Y-62559524D01*
X99130952Y-61369048D02*
X99083333Y-61464286D01*
X99035714Y-61511905D01*
X98940476Y-61559524D01*
X98892857Y-61559524D01*
X98797619Y-61511905D01*
X98750000Y-61464286D01*
X98702381Y-61369048D01*
X98702381Y-61178571D01*
X98750000Y-61083333D01*
X98797619Y-61035714D01*
X98892857Y-60988095D01*
X98940476Y-60988095D01*
X99035714Y-61035714D01*
X99083333Y-61083333D01*
X99130952Y-61178571D01*
X99130952Y-61369048D01*
X99178571Y-61464286D01*
X99226190Y-61511905D01*
X99321429Y-61559524D01*
X99511905Y-61559524D01*
X99607143Y-61511905D01*
X99654762Y-61464286D01*
X99702381Y-61369048D01*
X99702381Y-61178571D01*
X99654762Y-61083333D01*
X99607143Y-61035714D01*
X99511905Y-60988095D01*
X99321429Y-60988095D01*
X99226190Y-61035714D01*
X99178571Y-61083333D01*
X99130952Y-61178571D01*
X95857143Y-61892857D02*
X95904762Y-61940476D01*
X95952381Y-62083333D01*
X95952381Y-62178571D01*
X95904762Y-62321429D01*
X95809524Y-62416667D01*
X95714286Y-62464286D01*
X95523810Y-62511905D01*
X95380952Y-62511905D01*
X95190476Y-62464286D01*
X95095238Y-62416667D01*
X95000000Y-62321429D01*
X94952381Y-62178571D01*
X94952381Y-62083333D01*
X95000000Y-61940476D01*
X95047619Y-61892857D01*
X94952381Y-61559524D02*
X94952381Y-60940476D01*
X95333333Y-61273810D01*
X95333333Y-61130952D01*
X95380952Y-61035714D01*
X95428571Y-60988095D01*
X95523810Y-60940476D01*
X95761905Y-60940476D01*
X95857143Y-60988095D01*
X95904762Y-61035714D01*
X95952381Y-61130952D01*
X95952381Y-61416667D01*
X95904762Y-61511905D01*
X95857143Y-61559524D01*
X95952381Y-60464286D02*
X95952381Y-60273810D01*
X95904762Y-60178571D01*
X95857143Y-60130952D01*
X95714286Y-60035714D01*
X95523810Y-59988095D01*
X95142857Y-59988095D01*
X95047619Y-60035714D01*
X95000000Y-60083333D01*
X94952381Y-60178571D01*
X94952381Y-60369048D01*
X95000000Y-60464286D01*
X95047619Y-60511905D01*
X95142857Y-60559524D01*
X95380952Y-60559524D01*
X95476190Y-60511905D01*
X95523810Y-60464286D01*
X95571429Y-60369048D01*
X95571429Y-60178571D01*
X95523810Y-60083333D01*
X95476190Y-60035714D01*
X95380952Y-59988095D01*
X91357143Y-73142857D02*
X91404762Y-73190476D01*
X91452381Y-73333333D01*
X91452381Y-73428571D01*
X91404762Y-73571429D01*
X91309524Y-73666667D01*
X91214286Y-73714286D01*
X91023810Y-73761905D01*
X90880952Y-73761905D01*
X90690476Y-73714286D01*
X90595238Y-73666667D01*
X90500000Y-73571429D01*
X90452381Y-73428571D01*
X90452381Y-73333333D01*
X90500000Y-73190476D01*
X90547619Y-73142857D01*
X90785714Y-72285714D02*
X91452381Y-72285714D01*
X90404762Y-72523810D02*
X91119048Y-72761905D01*
X91119048Y-72142857D01*
X90452381Y-71571429D02*
X90452381Y-71476190D01*
X90500000Y-71380952D01*
X90547619Y-71333333D01*
X90642857Y-71285714D01*
X90833333Y-71238095D01*
X91071429Y-71238095D01*
X91261905Y-71285714D01*
X91357143Y-71333333D01*
X91404762Y-71380952D01*
X91452381Y-71476190D01*
X91452381Y-71571429D01*
X91404762Y-71666667D01*
X91357143Y-71714286D01*
X91261905Y-71761905D01*
X91071429Y-71809524D01*
X90833333Y-71809524D01*
X90642857Y-71761905D01*
X90547619Y-71714286D01*
X90500000Y-71666667D01*
X90452381Y-71571429D01*
X73702381Y-116488095D02*
X72702381Y-116488095D01*
X72702381Y-116250000D01*
X72750000Y-116107142D01*
X72845238Y-116011904D01*
X72940476Y-115964285D01*
X73130952Y-115916666D01*
X73273810Y-115916666D01*
X73464286Y-115964285D01*
X73559524Y-116011904D01*
X73654762Y-116107142D01*
X73702381Y-116250000D01*
X73702381Y-116488095D01*
X73702381Y-114964285D02*
X73702381Y-115535714D01*
X73702381Y-115250000D02*
X72702381Y-115250000D01*
X72845238Y-115345238D01*
X72940476Y-115440476D01*
X72988095Y-115535714D01*
X87202381Y-119416666D02*
X86726190Y-119750000D01*
X87202381Y-119988095D02*
X86202381Y-119988095D01*
X86202381Y-119607142D01*
X86250000Y-119511904D01*
X86297619Y-119464285D01*
X86392857Y-119416666D01*
X86535714Y-119416666D01*
X86630952Y-119464285D01*
X86678571Y-119511904D01*
X86726190Y-119607142D01*
X86726190Y-119988095D01*
X87202381Y-118464285D02*
X87202381Y-119035714D01*
X87202381Y-118750000D02*
X86202381Y-118750000D01*
X86345238Y-118845238D01*
X86440476Y-118940476D01*
X86488095Y-119035714D01*
X69952381Y-105166666D02*
X69476190Y-105500000D01*
X69952381Y-105738095D02*
X68952381Y-105738095D01*
X68952381Y-105357142D01*
X69000000Y-105261904D01*
X69047619Y-105214285D01*
X69142857Y-105166666D01*
X69285714Y-105166666D01*
X69380952Y-105214285D01*
X69428571Y-105261904D01*
X69476190Y-105357142D01*
X69476190Y-105738095D01*
X69047619Y-104785714D02*
X69000000Y-104738095D01*
X68952381Y-104642857D01*
X68952381Y-104404761D01*
X69000000Y-104309523D01*
X69047619Y-104261904D01*
X69142857Y-104214285D01*
X69238095Y-104214285D01*
X69380952Y-104261904D01*
X69952381Y-104833333D01*
X69952381Y-104214285D01*
X63002381Y-105066666D02*
X62526190Y-105400000D01*
X63002381Y-105638095D02*
X62002381Y-105638095D01*
X62002381Y-105257142D01*
X62050000Y-105161904D01*
X62097619Y-105114285D01*
X62192857Y-105066666D01*
X62335714Y-105066666D01*
X62430952Y-105114285D01*
X62478571Y-105161904D01*
X62526190Y-105257142D01*
X62526190Y-105638095D01*
X62002381Y-104733333D02*
X62002381Y-104114285D01*
X62383333Y-104447619D01*
X62383333Y-104304761D01*
X62430952Y-104209523D01*
X62478571Y-104161904D01*
X62573810Y-104114285D01*
X62811905Y-104114285D01*
X62907143Y-104161904D01*
X62954762Y-104209523D01*
X63002381Y-104304761D01*
X63002381Y-104590476D01*
X62954762Y-104685714D01*
X62907143Y-104733333D01*
X68452381Y-97916666D02*
X67976190Y-98250000D01*
X68452381Y-98488095D02*
X67452381Y-98488095D01*
X67452381Y-98107142D01*
X67500000Y-98011904D01*
X67547619Y-97964285D01*
X67642857Y-97916666D01*
X67785714Y-97916666D01*
X67880952Y-97964285D01*
X67928571Y-98011904D01*
X67976190Y-98107142D01*
X67976190Y-98488095D01*
X67785714Y-97059523D02*
X68452381Y-97059523D01*
X67404762Y-97297619D02*
X68119048Y-97535714D01*
X68119048Y-96916666D01*
X64452381Y-97916666D02*
X63976190Y-98250000D01*
X64452381Y-98488095D02*
X63452381Y-98488095D01*
X63452381Y-98107142D01*
X63500000Y-98011904D01*
X63547619Y-97964285D01*
X63642857Y-97916666D01*
X63785714Y-97916666D01*
X63880952Y-97964285D01*
X63928571Y-98011904D01*
X63976190Y-98107142D01*
X63976190Y-98488095D01*
X63452381Y-97011904D02*
X63452381Y-97488095D01*
X63928571Y-97535714D01*
X63880952Y-97488095D01*
X63833333Y-97392857D01*
X63833333Y-97154761D01*
X63880952Y-97059523D01*
X63928571Y-97011904D01*
X64023810Y-96964285D01*
X64261905Y-96964285D01*
X64357143Y-97011904D01*
X64404762Y-97059523D01*
X64452381Y-97154761D01*
X64452381Y-97392857D01*
X64404762Y-97488095D01*
X64357143Y-97535714D01*
X52502381Y-42916666D02*
X52026190Y-43250000D01*
X52502381Y-43488095D02*
X51502381Y-43488095D01*
X51502381Y-43107142D01*
X51550000Y-43011904D01*
X51597619Y-42964285D01*
X51692857Y-42916666D01*
X51835714Y-42916666D01*
X51930952Y-42964285D01*
X51978571Y-43011904D01*
X52026190Y-43107142D01*
X52026190Y-43488095D01*
X51502381Y-42059523D02*
X51502381Y-42250000D01*
X51550000Y-42345238D01*
X51597619Y-42392857D01*
X51740476Y-42488095D01*
X51930952Y-42535714D01*
X52311905Y-42535714D01*
X52407143Y-42488095D01*
X52454762Y-42440476D01*
X52502381Y-42345238D01*
X52502381Y-42154761D01*
X52454762Y-42059523D01*
X52407143Y-42011904D01*
X52311905Y-41964285D01*
X52073810Y-41964285D01*
X51978571Y-42011904D01*
X51930952Y-42059523D01*
X51883333Y-42154761D01*
X51883333Y-42345238D01*
X51930952Y-42440476D01*
X51978571Y-42488095D01*
X52073810Y-42535714D01*
X93952381Y-76166666D02*
X93476190Y-76500000D01*
X93952381Y-76738095D02*
X92952381Y-76738095D01*
X92952381Y-76357142D01*
X93000000Y-76261904D01*
X93047619Y-76214285D01*
X93142857Y-76166666D01*
X93285714Y-76166666D01*
X93380952Y-76214285D01*
X93428571Y-76261904D01*
X93476190Y-76357142D01*
X93476190Y-76738095D01*
X93952381Y-75690476D02*
X93952381Y-75500000D01*
X93904762Y-75404761D01*
X93857143Y-75357142D01*
X93714286Y-75261904D01*
X93523810Y-75214285D01*
X93142857Y-75214285D01*
X93047619Y-75261904D01*
X93000000Y-75309523D01*
X92952381Y-75404761D01*
X92952381Y-75595238D01*
X93000000Y-75690476D01*
X93047619Y-75738095D01*
X93142857Y-75785714D01*
X93380952Y-75785714D01*
X93476190Y-75738095D01*
X93523810Y-75690476D01*
X93571429Y-75595238D01*
X93571429Y-75404761D01*
X93523810Y-75309523D01*
X93476190Y-75261904D01*
X93380952Y-75214285D01*
X109502381Y-29392857D02*
X109026190Y-29726191D01*
X109502381Y-29964286D02*
X108502381Y-29964286D01*
X108502381Y-29583333D01*
X108550000Y-29488095D01*
X108597619Y-29440476D01*
X108692857Y-29392857D01*
X108835714Y-29392857D01*
X108930952Y-29440476D01*
X108978571Y-29488095D01*
X109026190Y-29583333D01*
X109026190Y-29964286D01*
X109502381Y-28440476D02*
X109502381Y-29011905D01*
X109502381Y-28726191D02*
X108502381Y-28726191D01*
X108645238Y-28821429D01*
X108740476Y-28916667D01*
X108788095Y-29011905D01*
X108502381Y-27821429D02*
X108502381Y-27726190D01*
X108550000Y-27630952D01*
X108597619Y-27583333D01*
X108692857Y-27535714D01*
X108883333Y-27488095D01*
X109121429Y-27488095D01*
X109311905Y-27535714D01*
X109407143Y-27583333D01*
X109454762Y-27630952D01*
X109502381Y-27726190D01*
X109502381Y-27821429D01*
X109454762Y-27916667D01*
X109407143Y-27964286D01*
X109311905Y-28011905D01*
X109121429Y-28059524D01*
X108883333Y-28059524D01*
X108692857Y-28011905D01*
X108597619Y-27964286D01*
X108550000Y-27916667D01*
X108502381Y-27821429D01*
X126452381Y-43142857D02*
X125976190Y-43476191D01*
X126452381Y-43714286D02*
X125452381Y-43714286D01*
X125452381Y-43333333D01*
X125500000Y-43238095D01*
X125547619Y-43190476D01*
X125642857Y-43142857D01*
X125785714Y-43142857D01*
X125880952Y-43190476D01*
X125928571Y-43238095D01*
X125976190Y-43333333D01*
X125976190Y-43714286D01*
X126452381Y-42190476D02*
X126452381Y-42761905D01*
X126452381Y-42476191D02*
X125452381Y-42476191D01*
X125595238Y-42571429D01*
X125690476Y-42666667D01*
X125738095Y-42761905D01*
X126452381Y-41238095D02*
X126452381Y-41809524D01*
X126452381Y-41523810D02*
X125452381Y-41523810D01*
X125595238Y-41619048D01*
X125690476Y-41714286D01*
X125738095Y-41809524D01*
X123202381Y-43142857D02*
X122726190Y-43476191D01*
X123202381Y-43714286D02*
X122202381Y-43714286D01*
X122202381Y-43333333D01*
X122250000Y-43238095D01*
X122297619Y-43190476D01*
X122392857Y-43142857D01*
X122535714Y-43142857D01*
X122630952Y-43190476D01*
X122678571Y-43238095D01*
X122726190Y-43333333D01*
X122726190Y-43714286D01*
X123202381Y-42190476D02*
X123202381Y-42761905D01*
X123202381Y-42476191D02*
X122202381Y-42476191D01*
X122345238Y-42571429D01*
X122440476Y-42666667D01*
X122488095Y-42761905D01*
X122297619Y-41809524D02*
X122250000Y-41761905D01*
X122202381Y-41666667D01*
X122202381Y-41428571D01*
X122250000Y-41333333D01*
X122297619Y-41285714D01*
X122392857Y-41238095D01*
X122488095Y-41238095D01*
X122630952Y-41285714D01*
X123202381Y-41857143D01*
X123202381Y-41238095D01*
X102702381Y-63892857D02*
X102226190Y-64226191D01*
X102702381Y-64464286D02*
X101702381Y-64464286D01*
X101702381Y-64083333D01*
X101750000Y-63988095D01*
X101797619Y-63940476D01*
X101892857Y-63892857D01*
X102035714Y-63892857D01*
X102130952Y-63940476D01*
X102178571Y-63988095D01*
X102226190Y-64083333D01*
X102226190Y-64464286D01*
X102702381Y-62940476D02*
X102702381Y-63511905D01*
X102702381Y-63226191D02*
X101702381Y-63226191D01*
X101845238Y-63321429D01*
X101940476Y-63416667D01*
X101988095Y-63511905D01*
X101702381Y-62607143D02*
X101702381Y-61988095D01*
X102083333Y-62321429D01*
X102083333Y-62178571D01*
X102130952Y-62083333D01*
X102178571Y-62035714D01*
X102273810Y-61988095D01*
X102511905Y-61988095D01*
X102607143Y-62035714D01*
X102654762Y-62083333D01*
X102702381Y-62178571D01*
X102702381Y-62464286D01*
X102654762Y-62559524D01*
X102607143Y-62607143D01*
X147607143Y-57952381D02*
X147273809Y-57476190D01*
X147035714Y-57952381D02*
X147035714Y-56952381D01*
X147416667Y-56952381D01*
X147511905Y-57000000D01*
X147559524Y-57047619D01*
X147607143Y-57142857D01*
X147607143Y-57285714D01*
X147559524Y-57380952D01*
X147511905Y-57428571D01*
X147416667Y-57476190D01*
X147035714Y-57476190D01*
X148559524Y-57952381D02*
X147988095Y-57952381D01*
X148273809Y-57952381D02*
X148273809Y-56952381D01*
X148178571Y-57095238D01*
X148083333Y-57190476D01*
X147988095Y-57238095D01*
X149416667Y-57285714D02*
X149416667Y-57952381D01*
X149178571Y-56904762D02*
X148940476Y-57619048D01*
X149559524Y-57619048D01*
X147607143Y-59952381D02*
X147273809Y-59476190D01*
X147035714Y-59952381D02*
X147035714Y-58952381D01*
X147416667Y-58952381D01*
X147511905Y-59000000D01*
X147559524Y-59047619D01*
X147607143Y-59142857D01*
X147607143Y-59285714D01*
X147559524Y-59380952D01*
X147511905Y-59428571D01*
X147416667Y-59476190D01*
X147035714Y-59476190D01*
X148559524Y-59952381D02*
X147988095Y-59952381D01*
X148273809Y-59952381D02*
X148273809Y-58952381D01*
X148178571Y-59095238D01*
X148083333Y-59190476D01*
X147988095Y-59238095D01*
X149464286Y-58952381D02*
X148988095Y-58952381D01*
X148940476Y-59428571D01*
X148988095Y-59380952D01*
X149083333Y-59333333D01*
X149321429Y-59333333D01*
X149416667Y-59380952D01*
X149464286Y-59428571D01*
X149511905Y-59523810D01*
X149511905Y-59761905D01*
X149464286Y-59857143D01*
X149416667Y-59904762D01*
X149321429Y-59952381D01*
X149083333Y-59952381D01*
X148988095Y-59904762D01*
X148940476Y-59857143D01*
X84402381Y-114111905D02*
X85211905Y-114111905D01*
X85307143Y-114064286D01*
X85354762Y-114016667D01*
X85402381Y-113921429D01*
X85402381Y-113730952D01*
X85354762Y-113635714D01*
X85307143Y-113588095D01*
X85211905Y-113540476D01*
X84402381Y-113540476D01*
X85402381Y-112540476D02*
X85402381Y-113111905D01*
X85402381Y-112826191D02*
X84402381Y-112826191D01*
X84545238Y-112921429D01*
X84640476Y-113016667D01*
X84688095Y-113111905D01*
X70988095Y-117952381D02*
X70988095Y-118761905D01*
X71035714Y-118857143D01*
X71083333Y-118904762D01*
X71178571Y-118952381D01*
X71369048Y-118952381D01*
X71464286Y-118904762D01*
X71511905Y-118857143D01*
X71559524Y-118761905D01*
X71559524Y-117952381D01*
X71988095Y-118047619D02*
X72035714Y-118000000D01*
X72130952Y-117952381D01*
X72369048Y-117952381D01*
X72464286Y-118000000D01*
X72511905Y-118047619D01*
X72559524Y-118142857D01*
X72559524Y-118238095D01*
X72511905Y-118380952D01*
X71940476Y-118952381D01*
X72559524Y-118952381D01*
X78795095Y-29685381D02*
X78795095Y-30494905D01*
X78842714Y-30590143D01*
X78890333Y-30637762D01*
X78985571Y-30685381D01*
X79176048Y-30685381D01*
X79271286Y-30637762D01*
X79318905Y-30590143D01*
X79366524Y-30494905D01*
X79366524Y-29685381D01*
X79747476Y-29685381D02*
X80366524Y-29685381D01*
X80033190Y-30066333D01*
X80176048Y-30066333D01*
X80271286Y-30113952D01*
X80318905Y-30161571D01*
X80366524Y-30256810D01*
X80366524Y-30494905D01*
X80318905Y-30590143D01*
X80271286Y-30637762D01*
X80176048Y-30685381D01*
X79890333Y-30685381D01*
X79795095Y-30637762D01*
X79747476Y-30590143D01*
X74786571Y-46710430D02*
X74786571Y-46377096D01*
X75310381Y-46234239D02*
X75310381Y-46710430D01*
X74310381Y-46710430D01*
X74310381Y-46234239D01*
X75262762Y-45853287D02*
X75310381Y-45758049D01*
X75310381Y-45567573D01*
X75262762Y-45472334D01*
X75167524Y-45424715D01*
X75119905Y-45424715D01*
X75024667Y-45472334D01*
X74977048Y-45567573D01*
X74977048Y-45710430D01*
X74929429Y-45805668D01*
X74834190Y-45853287D01*
X74786571Y-45853287D01*
X74691333Y-45805668D01*
X74643714Y-45710430D01*
X74643714Y-45567573D01*
X74691333Y-45472334D01*
X74643714Y-44996144D02*
X75643714Y-44996144D01*
X74691333Y-44996144D02*
X74643714Y-44900906D01*
X74643714Y-44710429D01*
X74691333Y-44615191D01*
X74738952Y-44567572D01*
X74834190Y-44519953D01*
X75119905Y-44519953D01*
X75215143Y-44567572D01*
X75262762Y-44615191D01*
X75310381Y-44710429D01*
X75310381Y-44900906D01*
X75262762Y-44996144D01*
X75310381Y-44091382D02*
X74643714Y-44091382D01*
X74834190Y-44091382D02*
X74738952Y-44043763D01*
X74691333Y-43996144D01*
X74643714Y-43900906D01*
X74643714Y-43805667D01*
X75262762Y-43091381D02*
X75310381Y-43186619D01*
X75310381Y-43377096D01*
X75262762Y-43472334D01*
X75167524Y-43519953D01*
X74786571Y-43519953D01*
X74691333Y-43472334D01*
X74643714Y-43377096D01*
X74643714Y-43186619D01*
X74691333Y-43091381D01*
X74786571Y-43043762D01*
X74881810Y-43043762D01*
X74977048Y-43519953D01*
X75262762Y-42662810D02*
X75310381Y-42567572D01*
X75310381Y-42377096D01*
X75262762Y-42281857D01*
X75167524Y-42234238D01*
X75119905Y-42234238D01*
X75024667Y-42281857D01*
X74977048Y-42377096D01*
X74977048Y-42519953D01*
X74929429Y-42615191D01*
X74834190Y-42662810D01*
X74786571Y-42662810D01*
X74691333Y-42615191D01*
X74643714Y-42519953D01*
X74643714Y-42377096D01*
X74691333Y-42281857D01*
X75262762Y-41853286D02*
X75310381Y-41758048D01*
X75310381Y-41567572D01*
X75262762Y-41472333D01*
X75167524Y-41424714D01*
X75119905Y-41424714D01*
X75024667Y-41472333D01*
X74977048Y-41567572D01*
X74977048Y-41710429D01*
X74929429Y-41805667D01*
X74834190Y-41853286D01*
X74786571Y-41853286D01*
X74691333Y-41805667D01*
X74643714Y-41710429D01*
X74643714Y-41567572D01*
X74691333Y-41472333D01*
X75310381Y-40996143D02*
X74643714Y-40996143D01*
X74310381Y-40996143D02*
X74358000Y-41043762D01*
X74405619Y-40996143D01*
X74358000Y-40948524D01*
X74310381Y-40996143D01*
X74405619Y-40996143D01*
X74643714Y-40662810D02*
X74643714Y-40281858D01*
X75310381Y-40519953D02*
X74453238Y-40519953D01*
X74358000Y-40472334D01*
X74310381Y-40377096D01*
X74310381Y-40281858D01*
X75262762Y-39234238D02*
X75310381Y-39091381D01*
X75310381Y-38853285D01*
X75262762Y-38758047D01*
X75215143Y-38710428D01*
X75119905Y-38662809D01*
X75024667Y-38662809D01*
X74929429Y-38710428D01*
X74881810Y-38758047D01*
X74834190Y-38853285D01*
X74786571Y-39043762D01*
X74738952Y-39139000D01*
X74691333Y-39186619D01*
X74596095Y-39234238D01*
X74500857Y-39234238D01*
X74405619Y-39186619D01*
X74358000Y-39139000D01*
X74310381Y-39043762D01*
X74310381Y-38805666D01*
X74358000Y-38662809D01*
X74643714Y-38329476D02*
X75310381Y-38091381D01*
X74643714Y-37853285D02*
X75310381Y-38091381D01*
X75548476Y-38186619D01*
X75596095Y-38234238D01*
X75643714Y-38329476D01*
X75262762Y-37519952D02*
X75310381Y-37424714D01*
X75310381Y-37234238D01*
X75262762Y-37138999D01*
X75167524Y-37091380D01*
X75119905Y-37091380D01*
X75024667Y-37138999D01*
X74977048Y-37234238D01*
X74977048Y-37377095D01*
X74929429Y-37472333D01*
X74834190Y-37519952D01*
X74786571Y-37519952D01*
X74691333Y-37472333D01*
X74643714Y-37377095D01*
X74643714Y-37234238D01*
X74691333Y-37138999D01*
X74643714Y-36805666D02*
X74643714Y-36424714D01*
X74310381Y-36662809D02*
X75167524Y-36662809D01*
X75262762Y-36615190D01*
X75310381Y-36519952D01*
X75310381Y-36424714D01*
X75262762Y-35710427D02*
X75310381Y-35805665D01*
X75310381Y-35996142D01*
X75262762Y-36091380D01*
X75167524Y-36138999D01*
X74786571Y-36138999D01*
X74691333Y-36091380D01*
X74643714Y-35996142D01*
X74643714Y-35805665D01*
X74691333Y-35710427D01*
X74786571Y-35662808D01*
X74881810Y-35662808D01*
X74977048Y-36138999D01*
X75310381Y-35234237D02*
X74643714Y-35234237D01*
X74738952Y-35234237D02*
X74691333Y-35186618D01*
X74643714Y-35091380D01*
X74643714Y-34948522D01*
X74691333Y-34853284D01*
X74786571Y-34805665D01*
X75310381Y-34805665D01*
X74786571Y-34805665D02*
X74691333Y-34758046D01*
X74643714Y-34662808D01*
X74643714Y-34519951D01*
X74691333Y-34424713D01*
X74786571Y-34377094D01*
X75310381Y-34377094D01*
X75262762Y-33948523D02*
X75310381Y-33853285D01*
X75310381Y-33662809D01*
X75262762Y-33567570D01*
X75167524Y-33519951D01*
X75119905Y-33519951D01*
X75024667Y-33567570D01*
X74977048Y-33662809D01*
X74977048Y-33805666D01*
X74929429Y-33900904D01*
X74834190Y-33948523D01*
X74786571Y-33948523D01*
X74691333Y-33900904D01*
X74643714Y-33805666D01*
X74643714Y-33662809D01*
X74691333Y-33567570D01*
X73135571Y-44448381D02*
X73135571Y-44115047D01*
X73659381Y-43972190D02*
X73659381Y-44448381D01*
X72659381Y-44448381D01*
X72659381Y-43972190D01*
X73611762Y-43591238D02*
X73659381Y-43448381D01*
X73659381Y-43210285D01*
X73611762Y-43115047D01*
X73564143Y-43067428D01*
X73468905Y-43019809D01*
X73373667Y-43019809D01*
X73278429Y-43067428D01*
X73230810Y-43115047D01*
X73183190Y-43210285D01*
X73135571Y-43400762D01*
X73087952Y-43496000D01*
X73040333Y-43543619D01*
X72945095Y-43591238D01*
X72849857Y-43591238D01*
X72754619Y-43543619D01*
X72707000Y-43496000D01*
X72659381Y-43400762D01*
X72659381Y-43162666D01*
X72707000Y-43019809D01*
X73659381Y-42591238D02*
X72659381Y-42591238D01*
X72659381Y-42210285D01*
X72707000Y-42115047D01*
X72754619Y-42067428D01*
X72849857Y-42019809D01*
X72992714Y-42019809D01*
X73087952Y-42067428D01*
X73135571Y-42115047D01*
X73183190Y-42210285D01*
X73183190Y-42591238D01*
X72659381Y-41686476D02*
X72659381Y-41067428D01*
X73040333Y-41400762D01*
X73040333Y-41257904D01*
X73087952Y-41162666D01*
X73135571Y-41115047D01*
X73230810Y-41067428D01*
X73468905Y-41067428D01*
X73564143Y-41115047D01*
X73611762Y-41162666D01*
X73659381Y-41257904D01*
X73659381Y-41543619D01*
X73611762Y-41638857D01*
X73564143Y-41686476D01*
X72754619Y-40686476D02*
X72707000Y-40638857D01*
X72659381Y-40543619D01*
X72659381Y-40305523D01*
X72707000Y-40210285D01*
X72754619Y-40162666D01*
X72849857Y-40115047D01*
X72945095Y-40115047D01*
X73087952Y-40162666D01*
X73659381Y-40734095D01*
X73659381Y-40115047D01*
X73278429Y-39686476D02*
X73278429Y-38924571D01*
X72659381Y-38543619D02*
X73659381Y-38305524D01*
X72945095Y-38115047D01*
X73659381Y-37924571D01*
X72659381Y-37686476D01*
X73659381Y-36734095D02*
X73183190Y-37067429D01*
X73659381Y-37305524D02*
X72659381Y-37305524D01*
X72659381Y-36924571D01*
X72707000Y-36829333D01*
X72754619Y-36781714D01*
X72849857Y-36734095D01*
X72992714Y-36734095D01*
X73087952Y-36781714D01*
X73135571Y-36829333D01*
X73183190Y-36924571D01*
X73183190Y-37305524D01*
X72659381Y-36115048D02*
X72659381Y-35924571D01*
X72707000Y-35829333D01*
X72802238Y-35734095D01*
X72992714Y-35686476D01*
X73326048Y-35686476D01*
X73516524Y-35734095D01*
X73611762Y-35829333D01*
X73659381Y-35924571D01*
X73659381Y-36115048D01*
X73611762Y-36210286D01*
X73516524Y-36305524D01*
X73326048Y-36353143D01*
X72992714Y-36353143D01*
X72802238Y-36305524D01*
X72707000Y-36210286D01*
X72659381Y-36115048D01*
X72659381Y-35067429D02*
X72659381Y-34876952D01*
X72707000Y-34781714D01*
X72802238Y-34686476D01*
X72992714Y-34638857D01*
X73326048Y-34638857D01*
X73516524Y-34686476D01*
X73611762Y-34781714D01*
X73659381Y-34876952D01*
X73659381Y-35067429D01*
X73611762Y-35162667D01*
X73516524Y-35257905D01*
X73326048Y-35305524D01*
X72992714Y-35305524D01*
X72802238Y-35257905D01*
X72707000Y-35162667D01*
X72659381Y-35067429D01*
X73659381Y-34210286D02*
X72659381Y-34210286D01*
X73373667Y-33876952D01*
X72659381Y-33543619D01*
X73659381Y-33543619D01*
X101761905Y-79452381D02*
X101761905Y-80261905D01*
X101809524Y-80357143D01*
X101857143Y-80404762D01*
X101952381Y-80452381D01*
X102142858Y-80452381D01*
X102238096Y-80404762D01*
X102285715Y-80357143D01*
X102333334Y-80261905D01*
X102333334Y-79452381D01*
X102714286Y-79452381D02*
X103333334Y-79452381D01*
X103000000Y-79833333D01*
X103142858Y-79833333D01*
X103238096Y-79880952D01*
X103285715Y-79928571D01*
X103333334Y-80023810D01*
X103333334Y-80261905D01*
X103285715Y-80357143D01*
X103238096Y-80404762D01*
X103142858Y-80452381D01*
X102857143Y-80452381D01*
X102761905Y-80404762D01*
X102714286Y-80357143D01*
X103714286Y-79547619D02*
X103761905Y-79500000D01*
X103857143Y-79452381D01*
X104095239Y-79452381D01*
X104190477Y-79500000D01*
X104238096Y-79547619D01*
X104285715Y-79642857D01*
X104285715Y-79738095D01*
X104238096Y-79880952D01*
X103666667Y-80452381D01*
X104285715Y-80452381D01*
X105711905Y-71754381D02*
X105711905Y-72563905D01*
X105759524Y-72659143D01*
X105807143Y-72706762D01*
X105902381Y-72754381D01*
X106092858Y-72754381D01*
X106188096Y-72706762D01*
X106235715Y-72659143D01*
X106283334Y-72563905D01*
X106283334Y-71754381D01*
X106664286Y-71754381D02*
X107283334Y-71754381D01*
X106950000Y-72135333D01*
X107092858Y-72135333D01*
X107188096Y-72182952D01*
X107235715Y-72230571D01*
X107283334Y-72325810D01*
X107283334Y-72563905D01*
X107235715Y-72659143D01*
X107188096Y-72706762D01*
X107092858Y-72754381D01*
X106807143Y-72754381D01*
X106711905Y-72706762D01*
X106664286Y-72659143D01*
X107616667Y-71754381D02*
X108235715Y-71754381D01*
X107902381Y-72135333D01*
X108045239Y-72135333D01*
X108140477Y-72182952D01*
X108188096Y-72230571D01*
X108235715Y-72325810D01*
X108235715Y-72563905D01*
X108188096Y-72659143D01*
X108140477Y-72706762D01*
X108045239Y-72754381D01*
X107759524Y-72754381D01*
X107664286Y-72706762D01*
X107616667Y-72659143D01*
M02*
