G04 #@! TF.FileFunction,Soldermask,Bot*
%FSLAX46Y46*%
G04 Gerber Fmt 4.6, Leading zero omitted, Abs format (unit mm)*
G04 Created by KiCad (PCBNEW 4.0.7) date Wednesday, 04 April 2018 'PMt' 17:02:53*
%MOMM*%
%LPD*%
G01*
G04 APERTURE LIST*
%ADD10C,0.100000*%
%ADD11R,0.900000X1.200000*%
%ADD12R,1.700000X1.700000*%
%ADD13O,1.700000X1.700000*%
%ADD14R,2.750000X1.000000*%
%ADD15O,2.500000X0.900000*%
%ADD16O,0.900000X2.500000*%
%ADD17R,6.000000X6.000000*%
%ADD18R,1.600000X1.600000*%
%ADD19C,1.600000*%
%ADD20R,1.700000X1.200000*%
%ADD21O,1.700000X1.200000*%
%ADD22R,2.032000X1.727200*%
%ADD23O,2.032000X1.727200*%
%ADD24R,1.200000X1.200000*%
%ADD25C,5.600000*%
G04 APERTURE END LIST*
D10*
D11*
X79756000Y-56982000D03*
X79756000Y-59182000D03*
X70612000Y-56896000D03*
X70612000Y-59096000D03*
D12*
X56134000Y-65532000D03*
D13*
X56134000Y-62992000D03*
X56134000Y-60452000D03*
D12*
X56134000Y-108966000D03*
D13*
X56134000Y-106426000D03*
X56134000Y-103886000D03*
X56134000Y-101346000D03*
D12*
X141732000Y-113030000D03*
D13*
X141732000Y-115570000D03*
X141732000Y-118110000D03*
X141732000Y-120650000D03*
D12*
X134112000Y-113030000D03*
D13*
X134112000Y-115570000D03*
X134112000Y-118110000D03*
X134112000Y-120650000D03*
D12*
X118872000Y-113030000D03*
D13*
X118872000Y-115570000D03*
X118872000Y-118110000D03*
X118872000Y-120650000D03*
D12*
X126492000Y-113030000D03*
D13*
X126492000Y-115570000D03*
X126492000Y-118110000D03*
X126492000Y-120650000D03*
D12*
X104394000Y-30734000D03*
D13*
X101854000Y-30734000D03*
X99314000Y-30734000D03*
X96774000Y-30734000D03*
X94234000Y-30734000D03*
D12*
X56134000Y-83820000D03*
D13*
X56134000Y-81280000D03*
X56134000Y-78740000D03*
X56134000Y-76200000D03*
X56134000Y-73660000D03*
X56134000Y-71120000D03*
D11*
X77978000Y-56896000D03*
X77978000Y-59096000D03*
X72390000Y-59096000D03*
X72390000Y-56896000D03*
D14*
X82128000Y-70580000D03*
X76368000Y-70580000D03*
X76368000Y-66580000D03*
X82128000Y-66580000D03*
X72222000Y-70612000D03*
X66462000Y-70612000D03*
X66462000Y-66612000D03*
X72222000Y-66612000D03*
D15*
X66184000Y-36406000D03*
X66184000Y-37676000D03*
X66184000Y-38946000D03*
X66184000Y-40216000D03*
X66184000Y-41486000D03*
X66184000Y-42756000D03*
X66184000Y-44026000D03*
X66184000Y-45296000D03*
X66184000Y-46566000D03*
X66184000Y-47836000D03*
X66184000Y-49106000D03*
X66184000Y-50376000D03*
X66184000Y-51646000D03*
X66184000Y-52916000D03*
D16*
X69469000Y-54406000D03*
X70739000Y-54406000D03*
X72009000Y-54406000D03*
X73279000Y-54406000D03*
X74549000Y-54406000D03*
X75819000Y-54406000D03*
X77089000Y-54406000D03*
X78359000Y-54406000D03*
X79629000Y-54406000D03*
X80899000Y-54406000D03*
D15*
X84184000Y-52916000D03*
X84184000Y-51646000D03*
X84184000Y-50376000D03*
X84184000Y-49106000D03*
X84184000Y-47836000D03*
X84184000Y-46566000D03*
X84184000Y-45296000D03*
X84184000Y-44026000D03*
X84184000Y-42756000D03*
X84184000Y-41486000D03*
X84184000Y-40216000D03*
X84184000Y-38946000D03*
X84184000Y-37676000D03*
X84184000Y-36406000D03*
D17*
X75484000Y-44106000D03*
D18*
X77272000Y-106426000D03*
D19*
X80772000Y-106426000D03*
D20*
X59436000Y-113792000D03*
D21*
X59436000Y-115792000D03*
D22*
X109982000Y-30988000D03*
D23*
X109982000Y-33528000D03*
X109982000Y-36068000D03*
X109982000Y-38608000D03*
D24*
X74912000Y-114554000D03*
X76112000Y-114554000D03*
X77312000Y-114554000D03*
X78512000Y-114554000D03*
X79712000Y-114554000D03*
X80912000Y-114554000D03*
X82112000Y-114554000D03*
X83312000Y-114554000D03*
X83312000Y-115754000D03*
X82112000Y-115754000D03*
X80912000Y-115754000D03*
X79712000Y-115754000D03*
X78512000Y-115754000D03*
X77312000Y-115754000D03*
X76112000Y-115754000D03*
X74912000Y-115754000D03*
X74912000Y-116954000D03*
X76112000Y-116954000D03*
X77312000Y-116954000D03*
X78512000Y-116954000D03*
X79712000Y-116954000D03*
X80912000Y-116954000D03*
X82112000Y-116954000D03*
X83312000Y-116954000D03*
X83312000Y-118154000D03*
X82112000Y-118154000D03*
X80912000Y-118154000D03*
X79712000Y-118154000D03*
X78512000Y-118154000D03*
X77312000Y-118154000D03*
X76112000Y-118154000D03*
X74912000Y-118154000D03*
X74912000Y-119354000D03*
X76112000Y-119354000D03*
X77312000Y-119354000D03*
X78512000Y-119354000D03*
X79712000Y-119354000D03*
X80912000Y-119354000D03*
X82112000Y-119354000D03*
X83312000Y-119354000D03*
X83312000Y-120554000D03*
X82112000Y-120554000D03*
X80912000Y-120554000D03*
X79712000Y-120554000D03*
X78512000Y-120554000D03*
X77312000Y-120554000D03*
X76112000Y-120554000D03*
X74912000Y-120554000D03*
X74912000Y-121754000D03*
X76112000Y-121754000D03*
X77312000Y-121754000D03*
X78512000Y-121754000D03*
X79712000Y-121754000D03*
X80912000Y-121754000D03*
X82112000Y-121754000D03*
X83312000Y-121754000D03*
D25*
X146558000Y-31242000D03*
X146558000Y-121158000D03*
X56642000Y-121158000D03*
X56642000Y-31242000D03*
M02*
