M48
INCH,TZ
T1C0.012
T2C0.016
T3C0.030
T4C0.031
T5C0.039
T6C0.040
T7C0.126
%
G90
G05
T1
X29493Y-45100
X29493Y-45572
X29493Y-46045
X29493Y-46517
X29493Y-46990
X29493Y-47462
X29493Y-47935
X29965Y-45100
X29965Y-45572
X29965Y-46045
X29965Y-46517
X29965Y-46990
X29965Y-47462
X29965Y-47935
X30438Y-45100
X30438Y-45572
X30438Y-46045
X30438Y-46517
X30438Y-46990
X30438Y-47462
X30438Y-47935
X30910Y-45100
X30910Y-45572
X30910Y-46045
X30910Y-46517
X30910Y-46990
X30910Y-47462
X30910Y-47935
X31383Y-45100
X31383Y-45572
X31383Y-46045
X31383Y-46517
X31383Y-46990
X31383Y-47462
X31383Y-47935
X31855Y-45100
X31855Y-45572
X31855Y-46045
X31855Y-46517
X31855Y-46990
X31855Y-47462
X31855Y-47935
X32328Y-45100
X32328Y-45572
X32328Y-46045
X32328Y-46517
X32328Y-46990
X32328Y-47462
X32328Y-47935
X32800Y-45100
X32800Y-45572
X32800Y-46045
X32800Y-46517
X32800Y-46990
X32800Y-47462
X32800Y-47935
T2
X22387Y-21150
X22700Y-24200
X22763Y-36373
X22800Y-36800
X22825Y-35275
X23105Y-36000
X23156Y-22053
X23400Y-35600
X23700Y-30900
X24188Y-35034
X24300Y-32142
X24400Y-40500
X24600Y-44100
X24668Y-21031
X24687Y-32155
X24700Y-37300
X25023Y-32240
X25591Y-40391
X25879Y-23800
X26000Y-42900
X26200Y-28600
X26200Y-31700
X26500Y-28900
X26500Y-32000
X26591Y-21208
X26800Y-31000
X26900Y-48400
X28000Y-35000
X28800Y-43300
X28802Y-19992
X28900Y-18900
X29100Y-25500
X30100Y-20194
X30494Y-20323
X30778Y-20105
X30846Y-20685
X31800Y-40800
X32200Y-30400
X32400Y-14300
X32420Y-16278
X32495Y-15005
X32900Y-42400
X32915Y-31627
X33400Y-26500
X33400Y-34700
X33400Y-42400
X33442Y-36161
X33800Y-14900
X34000Y-15600
X34000Y-16300
X34177Y-14341
X35909Y-18191
X36000Y-37100
X36059Y-17914
X36100Y-23500
X36302Y-17543
X36613Y-17263
X37100Y-30600
X39600Y-22900
X39600Y-30400
X39800Y-22200
X40100Y-23700
X40600Y-23600
X41000Y-16900
X41000Y-23600
X41700Y-15100
X41700Y-20900
X41800Y-38600
X42000Y-15400
X42000Y-21200
X42400Y-15800
X42400Y-21500
X42700Y-21900
X42700Y-24500
X42800Y-16200
X43300Y-16600
X43300Y-21100
X43600Y-27900
X43700Y-16900
X43900Y-22900
X44200Y-37000
X44400Y-19046
X45900Y-36500
X46300Y-24100
X46300Y-29700
X47000Y-25700
X47200Y-33800
X48100Y-29700
X48100Y-32500
T3
X23400Y-44800
X23400Y-45587
T4
X30422Y-41900
X31800Y-41900
T5
X22100Y-23800
X22100Y-24800
X22100Y-25800
X22100Y-28000
X22100Y-29000
X22100Y-30000
X22100Y-31000
X22100Y-32000
X22100Y-33000
X22100Y-39900
X22100Y-40900
X22100Y-41900
X22100Y-42900
X37100Y-12100
X38100Y-12100
X39100Y-12100
X40100Y-12100
X41100Y-12100
X46800Y-44500
X46800Y-45500
X46800Y-46500
X46800Y-47500
X49800Y-44500
X49800Y-45500
X49800Y-46500
X49800Y-47500
X52800Y-44500
X52800Y-45500
X52800Y-46500
X52800Y-47500
X55800Y-44500
X55800Y-45500
X55800Y-46500
X55800Y-47500
T6
X43300Y-12200
X43300Y-13200
X43300Y-14200
X43300Y-15200
T7
X22300Y-12300
X22300Y-47700
X57700Y-12300
X57700Y-47700
T0
M30
